<svg width="24" height="24" viewBox="0 0 24 24" fill="none" xmlns="http://www.w3.org/2000/svg">
<path d="M7.12455 13.4575L7.11876 13.4591L7.12455 13.4575ZM7.12455 13.4575L7.11867 13.4483L7.2117 13.5941L7.12455 13.4575ZM9.14945 12.5032C9.12412 12.5127 9.0976 12.5226 9.07004 12.5328L7.85213 12.3664L7.11079 12.265L10.5215 12.1791C10.5216 12.1791 10.5216 12.1791 10.5216 12.1791C10.8722 12.1705 11.0425 12.1788 11.1364 12.1924C11.1986 12.2013 11.2144 12.209 11.2602 12.2334C11.3006 12.2559 11.3531 12.2846 11.427 12.3127L9.60923 12.3607L9.52579 12.3629L9.44759 12.3921L9.62241 12.8605L9.44757 12.3921L9.44751 12.3921L9.44725 12.3922L9.44622 12.3926L9.44215 12.3941L9.42623 12.4L9.36573 12.4226L9.14945 12.5032ZM6.23897 12.0688L6.30054 12.1543L6.0119 12.1149L6.00017 12.0591L5.90465 11.6045L6.23897 12.0688Z" fill="#757575" stroke="#757575"/>
<rect x="3.5" y="7.5" width="17" height="9" rx="1.5" stroke="#757575"/>
<path d="M15 10H18" stroke="#757575" stroke-linecap="round"/>
<path d="M15 12H18" stroke="#757575" stroke-linecap="round"/>
<path d="M15 14H18" stroke="#757575" stroke-linecap="round"/>
</svg>
