<svg width="24" height="24" viewBox="0 0 24 24" fill="none" xmlns="http://www.w3.org/2000/svg">
<path d="M6 5C6 4.72386 6.22386 4.5 6.5 4.5H17.5C17.7761 4.5 18 4.72386 18 5V7C18 7.82843 17.3284 8.5 16.5 8.5H7.5C6.67157 8.5 6 7.82843 6 7V5Z" stroke="#757575"/>
<path d="M7 8.5V18C7 19.1046 7.89543 20 9 20H15C16.1046 20 17 19.1046 17 18V8.5" stroke="#757575"/>
<path d="M5 13.5C5 13.2239 5.22386 13 5.5 13H7V18H5.5C5.22386 18 5 17.7761 5 17.5V13.5Z" stroke="#757575"/>
<path d="M19 13.5C19 13.2239 18.7761 13 18.5 13H17V18H18.5C18.7761 18 19 17.7761 19 17.5V13.5Z" stroke="#757575"/>
<rect x="9.5" y="13.5" width="5" height="4" rx="0.5" stroke="#757575"/>
<path d="M10 7.5V10" stroke="#757575" stroke-linecap="round"/>
<path d="M14 7.5V10" stroke="#757575" stroke-linecap="round"/>
</svg>
