<svg width="24" height="24" viewBox="0 0 24 24" fill="none" xmlns="http://www.w3.org/2000/svg">
<line x1="4.5" y1="18.5" x2="16.5" y2="18.5" stroke="#757575" stroke-linecap="round"/>
<path d="M5.06542 11.0312C5.04743 10.7433 5.27604 10.5 5.56445 10.5H15.8672C16.168 10.5 16.4007 10.7636 16.3634 11.062L15.8323 15.3101C15.676 16.5612 14.6125 17.5 13.3517 17.5H7.81835C6.4982 17.5 5.40557 16.4735 5.32322 15.1559L5.06542 11.0312Z" stroke="#757575"/>
<path d="M16 12H18C18.5523 12 19 12.4477 19 13V14C19 14.5523 18.5523 15 18 15H16" stroke="#757575"/>
<path d="M12.8834 9C12.2168 8.5 11.2834 7.2 12.8834 6C13.3834 5.5 13.8834 5 12.8834 4" stroke="#757575" stroke-linecap="round"/>
<path d="M9.88344 9C9.21678 8.5 8.28344 7.2 9.88344 6C10.3834 5.5 10.8834 5 9.88342 4" stroke="#757575" stroke-linecap="round"/>
</svg>
