<svg width="24" height="24" viewBox="0 0 24 24" fill="none" xmlns="http://www.w3.org/2000/svg">
<path d="M18.4612 4.98188C18.2242 4.76069 17.9109 4.63693 17.587 4.63693H10.2248L10.0299 3.87069C9.84296 3.13341 9.17414 2.61469 8.41053 2.61469C8.26571 2.61469 8.14722 2.73318 8.14722 2.878V5.85081C8.14722 6.16679 8.22884 6.4775 8.38683 6.75134C8.81867 7.50442 9.61914 7.96785 10.4881 7.97049H13.6768L13.0949 9.00268C13.0501 9.0843 13.0501 9.18436 13.0975 9.26336C13.1449 9.34499 13.2318 9.39238 13.324 9.39238H14.1244C14.8723 9.39238 15.5727 9.03164 16.0124 8.42602C16.0203 8.41549 16.0256 8.40495 16.0335 8.39179L16.1467 8.17324H18.6508C18.6692 8.17324 18.685 8.17324 18.7035 8.17324C19.2143 8.16007 19.6646 7.83356 19.8383 7.35433C20.0279 6.86984 19.8989 6.31688 19.5145 5.96404L18.4612 4.98188ZM17.5975 5.65859H18.4165L18.7377 5.95877H17.5975C17.5133 5.95877 17.4475 5.89031 17.4475 5.80868C17.4475 5.72705 17.5133 5.65859 17.5975 5.65859ZM14.1244 8.87102H13.7716L14.5694 7.45439H15.9255L15.5727 8.13637C15.2356 8.59717 14.6958 8.87102 14.1244 8.87102ZM19.346 7.17265C19.2485 7.45439 18.9826 7.64661 18.685 7.65188C18.6745 7.65188 18.6613 7.65188 18.6508 7.65188H16.4179L16.4653 7.55972C16.4969 7.50179 16.5048 7.43596 16.5074 7.32274C16.5101 7.19371 16.5022 7.13315 16.4706 7.07522C16.4258 6.98569 16.3336 6.9304 16.2336 6.9304H14.4167C14.3219 6.9304 14.235 6.98043 14.1876 7.06469L13.9717 7.44649H10.4881C9.80873 7.44649 9.18204 7.08049 8.84237 6.49066C8.73177 6.29581 8.67121 6.07463 8.67121 5.84818V3.17028C9.08725 3.2677 9.41376 3.58895 9.51908 4.00235L9.76396 4.96608C9.79293 5.08194 9.89825 5.16356 10.0194 5.16356H17.3974C17.0762 5.26099 16.8761 5.57697 16.9261 5.90874C16.9761 6.24052 17.2605 6.4854 17.5949 6.4854H19.267C19.4039 6.68815 19.4328 6.94356 19.346 7.17265Z" fill="#757575"/>
<path d="M14.1245 9.4739H13.324C13.2029 9.4739 13.0896 9.40807 13.0291 9.30538C12.9685 9.20005 12.9659 9.07103 13.0264 8.9657L13.5425 8.04937H10.4881C9.59546 8.04937 8.76339 7.56488 8.31839 6.79073C8.15513 6.50372 8.06824 6.17985 8.06824 5.8507V2.87789C8.06824 2.68831 8.22096 2.53558 8.41055 2.53558C9.21102 2.53558 9.9088 3.07801 10.1063 3.85215L10.2853 4.55783H17.5844H17.587C17.932 4.55783 18.2611 4.68686 18.5139 4.92384L19.5645 5.906C19.9753 6.28254 20.1096 6.86183 19.9068 7.38319C19.7225 7.89665 19.2485 8.23896 18.7008 8.25212C18.6824 8.25212 18.6666 8.25212 18.6482 8.25212H16.1915L16.0993 8.42854C16.0914 8.44434 16.0835 8.45751 16.073 8.47067C15.6253 9.09999 14.896 9.4739 14.1245 9.4739ZM8.41318 2.69357C8.41318 2.69357 8.41055 2.69357 8.41318 2.69357C8.31049 2.69357 8.22886 2.7752 8.22886 2.87789V5.8507C8.22886 6.15351 8.30785 6.45106 8.45794 6.71437C8.87398 7.44112 9.65339 7.89138 10.4907 7.89402H13.8137L13.166 9.0447C13.1344 9.09999 13.1344 9.17109 13.1686 9.22639C13.2002 9.28168 13.2634 9.31591 13.3266 9.31855H14.1271C14.8459 9.31855 15.5279 8.96834 15.9492 8.38641C15.9545 8.37851 15.9598 8.37062 15.9624 8.36272L16.0967 8.10204H18.6482C18.664 8.10204 18.6798 8.10204 18.6982 8.10204C19.1801 8.08887 19.5987 7.78869 19.762 7.33316C19.9411 6.87236 19.8226 6.36153 19.4592 6.02712L18.4059 5.04233C18.1821 4.83431 17.8925 4.71845 17.587 4.71845C17.587 4.71845 17.587 4.71845 17.5844 4.71845H10.1642L9.95356 3.89428C9.77451 3.18597 9.13992 2.69357 8.41318 2.69357ZM14.1245 8.94991H13.6373L14.5247 7.37529H16.0572L15.6385 8.18366C15.2857 8.66289 14.7195 8.94727 14.1245 8.94991ZM13.9085 8.79192H14.1245C14.6669 8.79192 15.183 8.53124 15.5069 8.09677L15.7965 7.53591H14.6142L13.9085 8.79192ZM18.6508 7.73076H16.2889L16.3969 7.52011C16.4179 7.48062 16.4258 7.43322 16.4285 7.32263C16.4311 7.19624 16.4206 7.15147 16.4021 7.11198C16.3705 7.04878 16.3073 7.00928 16.2362 7.00928H14.4194C14.3535 7.00928 14.293 7.04615 14.2587 7.10408L14.0191 7.52801H10.4881C9.78241 7.52801 9.12676 7.14621 8.77392 6.53269C8.65543 6.32467 8.59223 6.09032 8.59223 5.85334V3.07011L8.68966 3.09381C9.13466 3.19913 9.48223 3.53881 9.59546 3.98381L9.84034 4.94754C9.8614 5.02916 9.93513 5.08446 10.0194 5.08446H17.9293L17.4211 5.23982C17.1368 5.32671 16.9603 5.60319 17.0051 5.8981C17.0472 6.18774 17.3027 6.4063 17.5949 6.4063H19.3117L19.3354 6.44053C19.4829 6.66434 19.5145 6.94872 19.4197 7.19887C19.3117 7.50958 19.0142 7.72286 18.6851 7.73076C18.6745 7.73076 18.6614 7.73076 18.6508 7.73076ZM16.5469 7.57278H18.6508C18.6614 7.57278 18.6719 7.57278 18.6824 7.57278C18.9484 7.56751 19.1853 7.39636 19.2722 7.14621V7.14357C19.346 6.95399 19.3275 6.73807 19.2275 6.56165H17.5976C17.2263 6.56165 16.905 6.28517 16.8524 5.91916C16.8129 5.65585 16.9129 5.4057 17.0999 5.23982H10.022C9.86667 5.23982 9.72975 5.13449 9.69025 4.98177L9.44537 4.01804C9.35584 3.6652 9.09516 3.38609 8.75285 3.27023V5.84544C8.75285 6.05609 8.80815 6.26411 8.91347 6.44843C9.23735 7.01192 9.84034 7.36212 10.4907 7.36212H13.9296L14.1218 7.01982C14.1824 6.91186 14.2956 6.84603 14.4194 6.84603H16.2362C16.3679 6.84603 16.4837 6.91976 16.5443 7.03561C16.5812 7.10671 16.5917 7.1778 16.5891 7.32263C16.5838 7.43322 16.5759 7.50695 16.5469 7.57278ZM18.9378 6.03766H17.5976C17.4712 6.03766 17.3685 5.93496 17.3685 5.80857C17.3685 5.68218 17.4712 5.57949 17.5976 5.57949H18.4481L18.9378 6.03766ZM17.5976 5.73748C17.5581 5.73748 17.5265 5.76908 17.5265 5.80857C17.5265 5.84807 17.5581 5.87967 17.5976 5.87967H18.5376L18.3849 5.73748H17.5976Z" fill="#757575"/>
<path d="M15.7807 5.5874H10.683C10.5382 5.5874 10.4197 5.70589 10.4197 5.85072C10.4197 5.99554 10.5382 6.11403 10.683 6.11403H15.7807C15.9256 6.11403 16.0441 5.99554 16.0441 5.85072C16.0414 5.70589 15.9256 5.5874 15.7807 5.5874Z" fill="#757575"/>
<path d="M7.02027 3.77319C6.87545 3.77319 6.75696 3.89168 6.75696 4.03651C6.75696 4.18133 6.87545 4.29982 7.02027 4.29982H7.39154C7.53637 4.29982 7.65486 4.18133 7.65486 4.03651C7.65486 3.89168 7.53637 3.77319 7.39154 3.77319H7.02027Z" fill="#757575"/>
<path d="M7.62326 5.10553H6.53577C6.39095 5.10553 6.27246 5.22402 6.27246 5.36884C6.27246 5.51367 6.39095 5.63216 6.53577 5.63216H7.62589C7.77072 5.63216 7.88921 5.51367 7.88921 5.36884C7.88657 5.22402 7.76808 5.10553 7.62326 5.10553Z" fill="#757575"/>
<path d="M7.46264 6.43787H6.92811C6.78329 6.43787 6.66479 6.55636 6.66479 6.70118C6.66479 6.846 6.78329 6.96449 6.92811 6.96449H7.46C7.60483 6.96449 7.72332 6.846 7.72332 6.70118C7.72332 6.55372 7.60746 6.43787 7.46264 6.43787Z" fill="#757575"/>
<path d="M10.0905 14.0187C9.56646 14.0187 9.13989 14.4426 9.13989 14.9666C9.13989 15.4906 9.56383 15.9172 10.0905 15.9172C10.6144 15.9172 11.041 15.4932 11.041 14.9666C11.0384 14.4452 10.6144 14.0213 10.0905 14.0187ZM10.0905 15.3273C9.89297 15.3273 9.73235 15.1667 9.73235 14.9692C9.73235 14.7718 9.89297 14.6111 10.0905 14.6111C10.2879 14.6111 10.4486 14.7718 10.4486 14.9692C10.4486 15.1667 10.2879 15.3273 10.0905 15.3273Z" fill="#757575"/>
<path d="M16.1046 14.0187C15.5806 14.0187 15.1541 14.4426 15.1541 14.9666C15.1541 15.4906 15.578 15.9172 16.1046 15.9172C16.6286 15.9172 17.0552 15.4932 17.0552 14.9666C17.0525 14.4452 16.6286 14.0213 16.1046 14.0187ZM16.1046 15.3273C15.9071 15.3273 15.7465 15.1667 15.7465 14.9692C15.7465 14.7718 15.9071 14.6111 16.1046 14.6111C16.3021 14.6111 16.4627 14.7718 16.4627 14.9692C16.4627 15.1667 16.3021 15.3273 16.1046 15.3273Z" fill="#757575"/>
<path d="M17.8082 12.2967H17.5238C17.3053 12.2967 17.092 12.3731 16.9261 12.5153L16.4653 11.1671C16.4653 11.1645 16.4627 11.1592 16.4627 11.1566C16.3416 10.8406 16.0361 10.6326 15.6991 10.63H14.7643C14.738 10.1981 14.3799 9.86108 13.948 9.86108H12.3787C11.9469 9.86108 11.5888 10.1981 11.5624 10.63H10.5065C10.1669 10.6326 9.86405 10.8406 9.74292 11.154C9.74029 11.1566 9.74029 11.1619 9.74029 11.1645L9.27686 12.5206C9.10834 12.3731 8.89242 12.2941 8.67124 12.2941H8.38422C8.10511 12.2941 7.87866 12.5206 7.87866 12.7997V13.1657C7.87866 13.4448 8.10511 13.6712 8.38422 13.6712H8.43162C8.21834 13.8819 8.09985 14.1689 8.09985 14.4691V15.4644C8.09985 16.0858 8.60541 16.5914 9.22683 16.5914H9.27686V17.3339C9.27686 17.642 9.52701 17.8895 9.83245 17.8895H10.6171C10.9252 17.8895 11.1727 17.6394 11.1727 17.3339V16.5914H15.0329V17.3339C15.0329 17.642 15.283 17.8895 15.5885 17.8895H16.3705C16.6786 17.8895 16.9261 17.6394 16.9261 17.3339V16.5914H16.9762C17.5976 16.5914 18.1031 16.0858 18.1031 15.4644V14.4664C18.1031 14.1663 17.9846 13.8793 17.7714 13.6686H17.8082C18.0873 13.6686 18.3138 13.4422 18.3138 13.163V12.797C18.3138 12.5232 18.0873 12.2967 17.8082 12.2967ZM17.5238 12.8866H17.724V13.0814H17.221C17.2737 12.9629 17.3922 12.8866 17.5238 12.8866ZM12.3787 10.4535H13.948C14.0534 10.4535 14.1482 10.5273 14.1692 10.6326H12.1549C12.1812 10.5273 12.2734 10.4535 12.3787 10.4535ZM10.2959 11.3646C10.3301 11.2777 10.4144 11.2224 10.5065 11.2224H15.6991C15.7912 11.2224 15.8755 11.2777 15.9097 11.3646L16.5838 13.3421H16.044C16.0282 12.8313 15.6069 12.4231 15.0961 12.4231C14.5853 12.4231 14.164 12.8286 14.1482 13.3421H9.61917L10.2959 11.3646ZM15.4542 13.3447H14.7406C14.7538 13.1578 14.9118 13.0156 15.0987 13.0156C15.283 13.0129 15.4384 13.1578 15.4542 13.3447ZM8.47112 12.8866H8.6686C8.80026 12.8866 8.91875 12.9629 8.97141 13.0814H8.47112V12.8866ZM10.5829 17.305H9.86931V16.5966H10.5829V17.305ZM16.3363 17.305H15.6227V16.5966H16.3363V17.305ZM17.5133 15.467C17.5133 15.7646 17.2737 16.0042 16.9762 16.0042H9.22946C8.93192 16.0042 8.6923 15.7646 8.6923 15.467V14.4691C8.6923 14.1715 8.93192 13.9319 9.22946 13.9319H16.9788C17.2763 13.9319 17.5159 14.1715 17.5159 14.4691V15.467H17.5133Z" fill="#757575"/>
<path d="M16.3704 18H15.5884C15.2224 18 14.9275 17.7024 14.9275 17.3391V16.7018H11.278V17.3391C11.278 17.7051 10.9804 18 10.617 18H9.83499C9.47162 18 9.17408 17.7024 9.17408 17.3391V16.6992C8.52106 16.6676 7.99706 16.1278 7.99706 15.4669V14.4716C7.99706 14.2162 8.07869 13.9634 8.22615 13.7554C7.9681 13.6843 7.77588 13.4473 7.77588 13.1655V12.7995C7.77588 12.4625 8.04973 12.1886 8.38677 12.1886H8.67115C8.86863 12.1886 9.05822 12.2439 9.2241 12.3493L9.64014 11.1301C9.64277 11.1249 9.64277 11.1196 9.64541 11.1143C9.78496 10.7562 10.122 10.5245 10.5064 10.5219H11.4702C11.5439 10.0848 11.9257 9.75299 12.3812 9.75299H13.9506C14.4035 9.75299 14.7853 10.0848 14.8617 10.5219H15.699C16.0834 10.5245 16.4231 10.7562 16.56 11.1143C16.5627 11.117 16.5627 11.1249 16.5653 11.1301L16.9787 12.3414C17.142 12.2413 17.3289 12.186 17.5238 12.186H17.8081C18.1452 12.186 18.419 12.4599 18.419 12.7969V13.1629C18.419 13.4394 18.2321 13.6764 17.9793 13.7501C18.1267 13.9581 18.211 14.2109 18.211 14.4689V15.4669C18.211 16.1278 17.687 16.6676 17.034 16.6992V17.3391C17.0314 17.7024 16.7364 18 16.3704 18ZM11.0673 16.4886H15.1381V17.3364C15.1381 17.5839 15.3409 17.7867 15.5884 17.7867H16.3704C16.618 17.7867 16.8207 17.5839 16.8207 17.3364V16.4886H16.9761C17.5396 16.4886 17.9977 16.0304 17.9977 15.4669V14.4716C17.9977 14.2004 17.8871 13.937 17.6975 13.7475L17.5159 13.5684H17.8081C18.0293 13.5684 18.2084 13.3894 18.2084 13.1682V12.8022C18.2084 12.581 18.0293 12.4019 17.8081 12.4019H17.5238C17.3315 12.4019 17.142 12.4704 16.9945 12.5968L16.876 12.6968L16.3652 11.1986C16.2572 10.9195 15.9965 10.7404 15.699 10.7378H14.6668L14.6615 10.6377C14.6378 10.2612 14.3271 9.96891 13.9506 9.96891H12.3812C12.0047 9.96891 11.694 10.2638 11.6703 10.6377L11.665 10.7378H10.5091C10.2115 10.7378 9.95085 10.9195 9.84289 11.1959C9.84289 11.1986 9.84026 11.1986 9.84026 11.2012L9.3268 12.7047L9.20831 12.602C9.06085 12.473 8.86863 12.4019 8.67378 12.4019H8.38413C8.16295 12.4019 7.9839 12.581 7.9839 12.8022V13.1682C7.9839 13.3894 8.16295 13.5684 8.38413 13.5684H8.68694L8.50526 13.7475C8.31304 13.937 8.20508 14.2004 8.20508 14.4716V15.4669C8.20508 16.0304 8.66325 16.4886 9.22674 16.4886H9.38209V17.3364C9.38209 17.5839 9.58484 17.7867 9.83236 17.7867H10.617C10.8645 17.7867 11.0673 17.5839 11.0673 17.3364V16.4886ZM16.4415 17.4102H15.5173V16.4912H16.4415V17.4102ZM15.728 17.1995H16.2309V16.7018H15.728V17.1995ZM10.6881 17.4102H9.7639V16.4912H10.6881V17.4102ZM9.97192 17.1995H10.4748V16.7018H9.97192V17.1995ZM16.9761 16.1094H9.22937C8.87653 16.1094 8.58689 15.8197 8.58689 15.4669V14.4689C8.58689 14.1161 8.87653 13.8265 9.22937 13.8265H16.9787C17.3315 13.8265 17.6212 14.1161 17.6212 14.4689V15.4669C17.6185 15.8224 17.3289 16.1094 16.9761 16.1094ZM16.9761 14.0397H9.22937C8.99239 14.0397 8.79754 14.2346 8.79754 14.4716V15.4669C8.79754 15.7039 8.99239 15.8987 9.22937 15.8987H16.9761C17.213 15.8987 17.4079 15.7039 17.4079 15.4669V14.4716C17.4079 14.232 17.213 14.0397 16.9761 14.0397ZM16.7312 13.4499H15.9412L15.9386 13.3472C15.9228 12.8891 15.5542 12.531 15.096 12.531C14.6378 12.531 14.2692 12.8891 14.2534 13.3472L14.2508 13.4499H9.47162L10.1957 11.325C10.2484 11.1986 10.3669 11.117 10.5038 11.117H15.699C15.8359 11.117 15.957 11.1986 16.0071 11.325L16.0097 11.3302L16.7312 13.4499ZM16.1414 13.2393H16.4363L15.8096 11.404C15.7912 11.3592 15.7464 11.3302 15.6964 11.3302H10.5064C10.4564 11.3302 10.4143 11.3592 10.3932 11.404L9.76653 13.2393H14.0506C14.1165 12.7179 14.5588 12.3203 15.096 12.3203C15.6332 12.3203 16.0755 12.7153 16.1414 13.2393ZM15.5673 13.4499H14.6247L14.6326 13.3367C14.651 13.0971 14.8538 12.9101 15.0934 12.9101C15.333 12.9101 15.5357 13.0971 15.5542 13.3367L15.5673 13.4499ZM14.8827 13.2393H15.3119C15.2672 13.1682 15.1882 13.1208 15.0986 13.1208C15.0065 13.1181 14.9275 13.1655 14.8827 13.2393ZM17.8292 13.1866H17.0551L17.1235 13.0365C17.1946 12.8812 17.3526 12.7811 17.5238 12.7811H17.8292V13.1866ZM9.13721 13.1866H8.3657V12.7811H8.66851C8.83967 12.7811 8.99502 12.8812 9.06875 13.0365L9.13721 13.1866ZM14.3008 10.7378H12.0258L12.0547 10.6088C12.089 10.456 12.2232 10.3481 12.3786 10.3481H13.948C14.1059 10.3481 14.2376 10.456 14.2718 10.6088L14.3008 10.7378Z" fill="#757575"/>
</svg>
