<svg width="24" height="24" viewBox="0 0 24 24" fill="none" xmlns="http://www.w3.org/2000/svg">
<path d="M17 17C17.8 15.8 18 14.5 18 14V11C18 7.68629 15.3137 5 12 5V5C8.68629 5 6 7.68629 6 11V14C6.16667 16 7.6 20.3 12 21.5C13.5 21 13.5 21 14.5 20.5" stroke="#757575"/>
<path d="M4.5 13C4.5 12.3469 4.9174 11.7913 5.5 11.5854V14.4146C4.9174 14.2087 4.5 13.6531 4.5 13Z" stroke="#757575"/>
<path d="M19.5 13C19.5 12.3469 19.0826 11.7913 18.5 11.5854V14.4146C19.0826 14.2087 19.5 13.6531 19.5 13Z" stroke="#757575"/>
<path d="M12 2.5C13.8557 2.5 15.3741 3.94423 15.4926 5.77002C15.2811 5.69401 15.0317 5.6085 14.7589 5.52292C13.9534 5.27025 12.8926 5 12 5C11.1074 5 10.0466 5.27025 9.24111 5.52292C8.96831 5.6085 8.71888 5.69401 8.50744 5.77002C8.62587 3.94423 10.1443 2.5 12 2.5Z" stroke="#757575"/>
<path d="M6 12.5C8 12.1667 11 11.5 14 8.5" stroke="#757575" stroke-linecap="round"/>
<path d="M13 9.5C13.3333 10.5 14.8 12.5 18 12.5" stroke="#757575" stroke-linecap="round"/>
<path d="M8.5 13.5C9 14.1667 10 14 10.5 13.5" stroke="#757575" stroke-linecap="round"/>
<path d="M14 13.5C14.5 14.1667 15.5 14 16 13.5" stroke="#757575" stroke-linecap="round"/>
<path d="M17 22L15 19.5M15 19.5L13 18.5C13.1667 17.6667 13.9 16.1 15.5 16.5L16 18.5M15 19.5L16 18.5M16 18.5L18.5 21" stroke="#757575" stroke-linecap="round" stroke-linejoin="round"/>
</svg>
