<svg width="24" height="24" viewBox="0 0 24 24" fill="none" xmlns="http://www.w3.org/2000/svg">
<path d="M4.5 16C4.5 15.1716 5.17157 14.5 6 14.5H19.5V19.5H4.5V16Z" stroke="#757575"/>
<line x1="19.5" y1="4" x2="19.5" y2="14" stroke="#757575"/>
<line x1="4.5" y1="4.5" x2="19.5" y2="4.5" stroke="#757575" stroke-linecap="round"/>
<path d="M6.5 7.5C6.5 6.94772 6.94772 6.5 7.5 6.5C8.05228 6.5 8.5 6.94772 8.5 7.5V9.5H6.5V7.5Z" stroke="#757575"/>
<line x1="7.5" y1="5" x2="7.5" y2="7" stroke="#757575"/>
<path d="M10.5 7.5C10.5 6.94772 10.9477 6.5 11.5 6.5C12.0523 6.5 12.5 6.94772 12.5 7.5V9.5H10.5V7.5Z" stroke="#757575"/>
<line x1="11.5" y1="5" x2="11.5" y2="7" stroke="#757575"/>
<line x1="13.5" y1="13.5" x2="17.5" y2="13.5" stroke="#757575" stroke-linecap="round"/>
</svg>
