<svg width="24" height="24" viewBox="0 0 24 24" fill="none" xmlns="http://www.w3.org/2000/svg">
<path d="M12 15V10.5C12 9.67157 11.3284 9 10.5 9V9C9.67157 9 9 9.67157 9 10.5V20.5H20V18" stroke="#757575" stroke-linecap="round" stroke-linejoin="round"/>
<path d="M15 15V7.5C15 6.67157 14.3284 6 13.5 6V6C12.6716 6 12 6.67157 12 7.5V13" stroke="#757575" stroke-linecap="round"/>
<path d="M18 15V10.5C18 9.67157 17.3284 9 16.5 9V9C15.6716 9 15 9.67157 15 10.5V14" stroke="#757575" stroke-linecap="round"/>
<path d="M20 20V12C20 11.4477 19.5523 11 19 11V11C18.4477 11 18 11.4477 18 12V14" stroke="#757575" stroke-linecap="round"/>
<circle cx="5" cy="15" r="0.5" stroke="#757575"/>
<circle cx="4.5" cy="10.5" r="0.75" stroke="#757575" stroke-width="1.5"/>
<circle cx="3.5" cy="5.5" r="0.75" stroke="#757575" stroke-width="1.5"/>
<circle cx="9" cy="6" r="0.5" stroke="#757575"/>
</svg>
