<svg width="24" height="24" viewBox="0 0 24 24" fill="none" xmlns="http://www.w3.org/2000/svg">
<rect x="10" y="10" width="4" height="1" transform="rotate(90 10 10)" fill="#757575"/>
<rect x="15" y="10" width="4" height="1" transform="rotate(90 15 10)" fill="#757575"/>
<rect x="4.5" y="7.5" width="15" height="11" rx="1.5" stroke="#757575"/>
<path d="M5 12H19" stroke="#757575"/>
<path d="M9.5 10V14" stroke="#757575" stroke-linecap="round"/>
<path d="M14.5 10V14" stroke="#757575" stroke-linecap="round"/>
<path d="M8.5 5C8.5 4.72386 8.72386 4.5 9 4.5H15C15.2761 4.5 15.5 4.72386 15.5 5V7.5H8.5V5Z" stroke="#757575"/>
<path d="M6 18H8V19C8 19.5523 7.55228 20 7 20C6.44772 20 6 19.5523 6 19V18Z" fill="#757575"/>
<path d="M16 18H18V19C18 19.5523 17.5523 20 17 20C16.4477 20 16 19.5523 16 19V18Z" fill="#757575"/>
</svg>
