<svg width="24" height="24" viewBox="0 0 24 24" fill="none" xmlns="http://www.w3.org/2000/svg">
<path d="M9.32402 7.4031C10.3194 7.46771 11.1473 6.64618 11.0822 5.65848C11.0294 4.84002 10.3628 4.18156 9.54107 4.12925C8.54262 4.06464 7.71782 4.8831 7.77983 5.87079C7.83255 6.68925 8.49921 7.35079 9.32402 7.4031ZM9.36743 4.78156C9.96588 4.74464 10.462 5.23387 10.4217 5.82771C10.3907 6.31695 9.99069 6.71387 9.49766 6.74464C8.89921 6.78156 8.40309 6.29233 8.4434 5.69848C8.47441 5.20925 8.87441 4.81233 9.36743 4.78156Z" fill="#757575"/>
<path d="M9.42949 7.52922C9.39228 7.52922 9.35507 7.52922 9.31476 7.52614C8.42484 7.47076 7.71476 6.76307 7.65585 5.87999C7.62174 5.3723 7.81089 4.87691 8.17368 4.51691C8.53647 4.15691 9.03569 3.9723 9.54732 4.00307C10.4372 4.06153 11.1473 4.76614 11.2062 5.64922C11.2403 6.15691 11.0512 6.6523 10.6884 7.0123C10.3535 7.34153 9.90081 7.52922 9.42949 7.52922ZM9.33027 7.27999C9.77058 7.30768 10.2016 7.14768 10.5117 6.83691C10.8217 6.52922 10.9861 6.10153 10.9582 5.66461C10.9086 4.90768 10.2946 4.29845 9.53182 4.24922C9.09151 4.22153 8.6605 4.38153 8.35042 4.6923C8.04034 4.99999 7.876 5.42768 7.90391 5.86461C7.95352 6.62153 8.56748 7.23076 9.33027 7.27999ZM9.43259 6.87076C9.13802 6.87076 8.85275 6.75384 8.64189 6.54461C8.41554 6.32307 8.29771 6.00922 8.31631 5.6923C8.35042 5.13845 8.80003 4.69537 9.35817 4.65845C9.67755 4.63691 9.99383 4.75691 10.2202 4.98153C10.4465 5.20614 10.5644 5.51999 10.5458 5.83691C10.5117 6.39076 10.062 6.83384 9.50391 6.87076C9.4791 6.87076 9.4574 6.87076 9.43259 6.87076ZM9.37368 4.90461C8.93957 4.9323 8.59228 5.27691 8.56437 5.70768C8.54887 5.95384 8.64189 6.19691 8.81864 6.3723C8.99538 6.54768 9.24034 6.63999 9.48841 6.62461C9.92251 6.59691 10.2698 6.2523 10.2977 5.82153C10.3132 5.57537 10.2202 5.3323 10.0434 5.15691C9.8698 4.97845 9.62484 4.88922 9.37368 4.90461Z" fill="#757575"/>
<path d="M12.738 12.9845C12.738 12.9445 12.738 12.9199 12.0651 9.25839C12.0062 8.57531 11.4388 8.06146 10.7535 8.06146H8.10852C7.42015 8.06146 6.85581 8.57531 6.79999 9.23069C6.12402 12.9199 6.12402 12.9445 6.12402 12.9845C6.12402 13.5045 6.53022 13.9292 7.04495 13.9661L6.46201 16.8584C6.4434 16.9538 6.46821 17.0553 6.53022 17.1322C6.59224 17.2092 6.68836 17.2522 6.78759 17.2522H8.05271L8.4465 19.603C8.47441 19.7599 8.61085 19.8768 8.77209 19.8768H10.093C10.2543 19.8768 10.3938 19.7599 10.4186 19.603L10.8124 17.2522H12.0775C12.1767 17.2522 12.2698 17.2092 12.3349 17.1322C12.3969 17.0553 12.4217 16.9568 12.4031 16.8584L11.8201 13.9661C12.3318 13.9292 12.738 13.5045 12.738 12.9845ZM11.7457 13.3138H11.4139C11.3147 13.3138 11.2217 13.3568 11.1566 13.4338C11.0946 13.5107 11.0698 13.6092 11.0884 13.7076L11.6713 16.5968H10.5302C10.369 16.5968 10.2294 16.7138 10.2046 16.8707L9.81395 19.2215H9.05116L8.65736 16.8707C8.62945 16.7138 8.49302 16.5968 8.33178 16.5968H7.18759L7.77053 13.7076C7.78914 13.6122 7.76433 13.5107 7.70232 13.4338C7.6403 13.3568 7.54418 13.3138 7.44495 13.3138H7.11627C6.93333 13.3138 6.78449 13.1661 6.78139 13.0276C6.79999 12.9107 7.19069 10.763 7.45426 9.31685C7.48526 8.97531 7.76433 8.71685 8.10852 8.71685H10.7535C11.0977 8.71685 11.3767 8.97531 11.4108 9.34454C11.662 10.7076 12.0341 12.7507 12.0744 13.003C12.0651 13.1753 11.9225 13.3138 11.7457 13.3138Z" fill="#757575"/>
<path d="M10.093 20H8.76899C8.54574 20 8.35659 19.84 8.31938 19.6215L7.94109 17.3723H6.7845C6.64806 17.3723 6.52093 17.3107 6.43411 17.2061C6.34729 17.1015 6.31318 16.963 6.34109 16.8307L6.89922 14.0676C6.3845 13.9692 6 13.5169 6 12.9846C6 12.9323 6 12.9107 6.67597 9.21226C6.74109 8.49842 7.37054 7.93842 8.10853 7.93842H10.7535C11.5039 7.93842 12.1209 8.49842 12.1891 9.24303C12.862 12.9107 12.862 12.9323 12.862 12.9846C12.862 13.5169 12.4775 13.9692 11.9659 14.0707L12.524 16.8338C12.5519 16.9661 12.5178 17.1046 12.431 17.2092C12.3442 17.3138 12.2171 17.3753 12.0806 17.3753H10.9209L10.5426 19.6246C10.5054 19.84 10.3163 20 10.093 20ZM8.10853 8.18457C7.49457 8.18457 6.97364 8.64918 6.92403 9.23995V9.25226C6.35039 12.3692 6.25116 12.9384 6.24806 12.9815C6.24806 13.4338 6.60155 13.8092 7.05426 13.843L7.1938 13.8523L6.58295 16.88C6.57054 16.9415 6.58605 17.003 6.62636 17.0492C6.66667 17.0953 6.72558 17.123 6.7876 17.123H8.15504L8.56744 19.5784C8.58295 19.6769 8.66977 19.7507 8.77209 19.7507H10.093C10.1953 19.7507 10.2791 19.68 10.2977 19.5784L10.7101 17.123H12.0775C12.1395 17.123 12.1984 17.0953 12.2388 17.0492C12.2791 17.003 12.2946 16.9384 12.2822 16.88L11.6713 13.8523L11.8109 13.843C12.2636 13.8092 12.6171 13.4338 12.6171 12.9846V12.9815C12.614 12.9384 12.5147 12.3723 11.9473 9.27995V9.26765C11.8915 8.64918 11.3798 8.18149 10.7566 8.18149H8.10853V8.18457ZM9.91938 19.3446H8.94574L8.53333 16.8892C8.51783 16.7907 8.43101 16.7169 8.32868 16.7169H7.03876L7.64961 13.68C7.66202 13.6184 7.64651 13.5569 7.6062 13.5107C7.56589 13.4646 7.50698 13.4369 7.44496 13.4369H7.11628C6.87752 13.4369 6.66357 13.2461 6.65736 13.0307V13.0215V13.0123C6.67287 12.9138 6.93643 11.4676 7.1907 10.0676L7.33023 9.30457C7.36744 8.90149 7.70233 8.59995 8.10853 8.59995H10.7535C11.1659 8.59995 11.4915 8.90765 11.5349 9.33534C11.7798 10.6646 12.155 12.7323 12.1984 12.9907L12.2016 13.003V13.0184C12.186 13.2553 11.9876 13.443 11.7488 13.443H11.4171C11.355 13.443 11.2961 13.4707 11.2558 13.5169C11.2155 13.563 11.2 13.6276 11.2124 13.6861L11.8233 16.723H10.5302C10.4279 16.723 10.3442 16.7938 10.3256 16.8953L9.91938 19.3446ZM9.15659 19.0984H9.70853L10.0868 16.8492C10.124 16.6307 10.3132 16.4707 10.5364 16.4707H11.5256L10.9736 13.7292C10.9457 13.5969 10.9798 13.4584 11.0667 13.3538C11.1535 13.2492 11.2806 13.1876 11.4171 13.1876H11.7488C11.8543 13.1876 11.9411 13.1107 11.9535 13.0092C11.9008 12.6953 11.5318 10.6738 11.293 9.36918V9.35688C11.2651 9.05842 11.0419 8.83995 10.7597 8.83995H8.10853C7.82946 8.83995 7.6031 9.04918 7.57829 9.32611V9.33842L7.43876 10.1076C7.2031 11.4 6.93643 12.8615 6.90853 13.0307C6.91783 13.0984 7.00155 13.1876 7.11628 13.1876H7.44806C7.5845 13.1876 7.71163 13.2492 7.79845 13.3538C7.88527 13.4584 7.91938 13.5969 7.89147 13.7292L7.33953 16.4707H8.32868C8.55194 16.4707 8.74109 16.6307 8.77829 16.8492L9.15659 19.0984Z" fill="#757575"/>
<path d="M21.4356 14.2092C21.7798 13.9077 22 13.4738 22 12.9846C22 12.08 21.2589 11.3446 20.3473 11.3446C19.9721 11.3446 19.631 11.4738 19.355 11.68V10.8677C19.355 10.4369 19.0263 10.0646 18.5922 10.0338C18.1085 9.99692 17.7023 10.3785 17.7023 10.8523V12H16.0465V11.0154C16.0465 10.4708 15.6031 10.0308 15.0543 10.0308H13.5814C13.1473 10.0308 12.7721 10.3569 12.7411 10.7877C12.7039 11.2677 13.0884 11.6708 13.5659 11.6708H13.9256L13.9101 11.6861C13.5814 12.0123 13.4015 12.4431 13.4015 12.9046C13.4015 13.32 13.5566 13.6954 13.8046 13.9938C13.2 14.1138 12.7411 14.6431 12.7411 15.28V15.6092C12.7411 15.7908 12.8899 15.9385 13.0729 15.9385H21.6713C21.8543 15.9385 22.0031 15.7908 22.0031 15.6092V15.28C22 14.8369 21.7767 14.4461 21.4356 14.2092ZM19.0232 13.96C19.0263 13.9631 19.0294 13.9661 19.0325 13.9692H19.017C19.017 13.9661 19.0201 13.9631 19.0232 13.96ZM13.5659 11.0154C13.4636 11.0154 13.3829 10.92 13.4046 10.8154C13.4201 10.7385 13.4946 10.6861 13.5721 10.6861H15.0543C15.2372 10.6861 15.386 10.8338 15.386 11.0154V12C15.355 12.3538 15.6341 12.6554 15.9907 12.6554H18.031C18.2139 12.6554 18.3628 12.5077 18.3628 12.3261V10.8492C18.3628 10.6677 18.6946 10.6677 18.6946 10.8492V12.9846C18.6946 13.5292 18.2512 13.9692 17.7023 13.9692H16.0465L15.386 13.9569V13.9692H15.1349C14.5426 13.9692 14.062 13.4923 14.062 12.9046C14.1736 12.0185 14.9581 11.5754 14.9581 11.5754C15.0698 11.4646 15.0884 11.2831 14.9891 11.1477C14.9271 11.0615 14.8217 11.0154 14.7163 11.0154H13.5659ZM13.4015 15.2831C13.4015 14.92 13.6992 14.6277 14.062 14.6277H20.676C21.0419 14.6277 21.3364 14.9231 21.3364 15.2831H13.4015ZM20.3473 13.9692C19.7767 13.9692 19.3178 13.4892 19.3581 12.9169C19.3922 12.4308 19.786 12.04 20.276 12.0031C20.8558 11.9631 21.3395 12.4185 21.3395 12.9846C21.3395 13.5261 20.893 13.9692 20.3473 13.9692Z" fill="#757575"/>
</svg>
