<svg width="24" height="24" viewBox="0 0 24 24" fill="none" xmlns="http://www.w3.org/2000/svg">
<circle cx="12" cy="12" r="9.5" stroke="#757575"/>
<path d="M15.9736 16.5177C15.631 16.9009 15.2037 17.0225 14.71 16.9967L15.9736 16.5177ZM15.9736 16.5177C16.1348 16.3388 16.3082 16.1703 16.4818 16.0014C16.562 15.9234 16.6422 15.8453 16.7214 15.7662L15.9736 16.5177ZM12.1226 14.6788L12.1226 14.6788L12.1293 14.6829C12.2585 14.7627 12.3844 14.826 12.4802 14.8732C12.5067 14.8863 12.5305 14.8979 12.5522 14.9085C12.6173 14.9403 12.664 14.9632 12.7124 14.9893C12.8732 15.0778 13.1532 15.1883 13.5 15.1225C13.829 15.06 14.0396 14.8706 14.1401 14.766C14.3125 14.589 14.4829 14.4201 14.6603 14.2442C14.7142 14.1909 14.7687 14.1369 14.8241 14.0818C14.8945 14.1521 14.9646 14.2221 15.0346 14.292C15.3262 14.5829 15.6151 14.8713 15.906 15.1659C15.8765 15.1948 15.8456 15.2248 15.8139 15.2557C15.6303 15.4344 15.4148 15.644 15.2308 15.8482L15.2281 15.8512C15.1655 15.9213 15.113 15.9507 15.0638 15.9682C15.0067 15.9885 14.9141 16.006 14.7622 15.998L14.7612 15.998C14.2313 15.9708 13.7101 15.7957 13.1375 15.516L13.1355 15.5151C11.8543 14.8928 10.7575 14.031 9.83675 12.9357C9.14539 12.1071 8.59495 11.2394 8.23923 10.282L8.23924 10.282L8.23819 10.2793C8.06362 9.81367 7.97965 9.42922 8.00418 9.06464C8.0158 8.93587 8.05325 8.86948 8.1186 8.80693L8.1186 8.80693L8.11967 8.8059C8.31337 8.61993 8.51184 8.41878 8.69834 8.22977C8.74356 8.18394 8.78808 8.13882 8.83165 8.09481C8.93652 8.19902 9.0395 8.30259 9.14482 8.40852C9.219 8.48312 9.29434 8.5589 9.37231 8.63688L9.37229 8.6369L9.37849 8.643C9.517 8.77914 9.65222 8.91516 9.79201 9.05578C9.83054 9.09454 9.86942 9.13364 9.90881 9.17319C9.87567 9.20642 9.84273 9.23948 9.80994 9.27239C9.61053 9.47249 9.4168 9.66691 9.21937 9.85908C9.09864 9.97506 8.91888 10.1901 8.86522 10.5165C8.81413 10.8273 8.90726 11.0743 8.95007 11.177L8.95077 11.1787C9.18181 11.7304 9.50621 12.1965 9.82767 12.5953L9.82766 12.5953L9.83155 12.6001C10.4692 13.3812 11.2146 14.1085 12.1226 14.6788ZM8.71655 7.98097L8.71932 7.97815L8.83248 7.86021L8.71736 7.97723C8.70831 7.97294 8.70404 7.9699 8.70404 7.96989C8.70404 7.96989 8.70838 7.97297 8.71655 7.98097Z" stroke="#757575" stroke-width="2"/>
</svg>
