<svg width="24" height="24" viewBox="0 0 24 24" fill="none" xmlns="http://www.w3.org/2000/svg">
<path d="M9.14979 10.7586L9.15201 10.7561C9.75136 10.0798 9.57579 9.03911 8.59463 8.52111C8.31493 8.37706 8.02004 8.26183 7.69912 8.13643C7.62389 8.10704 7.54724 8.07708 7.46901 8.04607C7.4685 8.04587 7.46799 8.04566 7.46748 8.04546L7.65179 7.58067C7.41502 7.48862 7.19798 7.38737 7.00067 7.24009L9.14979 10.7586ZM9.14979 10.7586C8.91751 11.0243 8.61511 11.2051 8.22973 11.3025L8.22972 11.3025L8.22343 11.3041C8.07302 11.3442 7.88455 11.4208 7.74327 11.5908C7.59218 11.7726 7.55766 11.9839 7.56678 12.1625C7.57255 12.2756 7.57075 12.3758 7.56865 12.4924C7.56861 12.4947 7.56857 12.4969 7.56853 12.4992C7.48662 12.5004 7.40366 12.5003 7.32192 12.4989C7.32071 12.4253 7.31824 12.3481 7.31322 12.268C7.31311 12.1971 7.31188 12.1092 7.29981 12.0278C7.28572 11.9328 7.24947 11.7885 7.13212 11.6607C7.01935 11.538 6.88439 11.4889 6.80371 11.4653C6.72751 11.443 6.63995 11.4277 6.57028 11.4155L6.56397 11.4144L6.55395 11.4127L6.54387 11.4113C6.18285 11.3632 5.85354 11.2869 5.53959 11.1589C5.57019 11.0525 5.60324 10.9435 5.6375 10.8343L9.14979 10.7586ZM8.76175 10.1196C8.82248 9.70938 8.63863 9.31551 8.29429 9.05457L6.89948 11.1513C6.89993 11.1513 6.90038 11.1514 6.90083 11.1514C7.26744 11.1968 7.64965 11.1642 8.01501 11.0181L8.01502 11.0181L8.0201 11.016C8.41361 10.8536 8.70132 10.5278 8.76175 10.1196Z" fill="#757575" stroke="#757575"/>
<path d="M18.3222 18.0358C18.3393 18.076 18.3566 18.1172 18.3744 18.1594L18.3753 18.1616C18.3869 18.1892 18.3987 18.2172 18.4106 18.2454C18.3389 18.2711 18.2633 18.2958 18.1821 18.3224C18.1448 18.3346 18.1063 18.3472 18.0665 18.3604C17.4011 18.5435 16.7403 18.5551 16.1071 18.3438L16.1071 18.3437L16.1006 18.3417C15.3483 18.102 14.8507 17.5987 14.5459 16.8488C14.5231 16.7871 14.5026 16.718 14.4765 16.6291L14.4745 16.6221C14.4499 16.5383 14.4195 16.4351 14.3819 16.3347L14.2891 16.0868V15.616V15.2209V14.8269H14.3665L14.4611 14.448L14.4777 14.3815C14.6612 13.8197 14.9419 13.3775 15.3817 13.0388L15.3818 13.0388L15.3892 13.0329C15.7211 12.767 16.1312 12.6073 16.5835 12.5342C17.2088 12.4481 17.8224 12.5266 18.4311 12.7471L18.3202 12.997C18.2626 12.9833 18.2004 12.9671 18.131 12.949L18.1228 12.9469C18.0109 12.9176 17.8785 12.883 17.7476 12.8589C17.2053 12.7464 16.5928 12.7088 15.9843 12.9714C15.4155 13.2018 15.0661 13.6545 14.8649 14.133L14.8258 14.226V14.3269V14.3476V14.7417H14.6181V15.2417V15.2425V15.2432V15.2439V15.2447V15.2454V15.2461V15.2469V15.2476V15.2483V15.2491V15.2498V15.2505V15.2513V15.252V15.2527V15.2535V15.2542V15.255V15.2557V15.2564V15.2572V15.2579V15.2587V15.2594V15.2601V15.2609V15.2616V15.2624V15.2631V15.2639V15.2646V15.2654V15.2661V15.2668V15.2676V15.2683V15.2691V15.2698V15.2706V15.2713V15.2721V15.2728V15.2736V15.2743V15.2751V15.2758V15.2766V15.2773V15.2781V15.2788V15.2796V15.2803V15.2811V15.2818V15.2826V15.2834V15.2841V15.2849V15.2856V15.2864V15.2871V15.2879V15.2886V15.2894V15.2902V15.2909V15.2917V15.2924V15.2932V15.294V15.2947V15.2955V15.2962V15.297V15.2978V15.2985V15.2993V15.3V15.3008V15.3016V15.3023V15.3031V15.3039V15.3046V15.3054V15.3062V15.3069V15.3077V15.3085V15.3092V15.31V15.3108V15.3115V15.3123V15.3131V15.3138V15.3146V15.3154V15.3161V15.3169V15.3177V15.3184V15.3192V15.32V15.3207V15.3215V15.3223V15.3231V15.3238V15.3246V15.3254V15.3261V15.3269V15.3277V15.3285V15.3292V15.33V15.3308V15.3316V15.3323V15.3331V15.3339V15.3347V15.3354V15.3362V15.337V15.3378V15.3385V15.3393V15.3401V15.3409V15.3417V15.3424V15.3432V15.344V15.3448V15.3455V15.3463V15.3471V15.3479V15.3487V15.3494V15.3502V15.351V15.3518V15.3526V15.3533V15.3541V15.3549V15.3557V15.3565V15.3572V15.358V15.3588V15.3596V15.3604V15.3612V15.3619V15.3627V15.3635V15.3643V15.3651V15.3659V15.3666V15.3674V15.3682V15.369V15.3698V15.3706V15.3714V15.3721V15.3729V15.3737V15.3745V15.3753V15.3761V15.3769V15.3776V15.3784V15.3792V15.38V15.3808V15.3816V15.3824V15.3831V15.3839V15.3847V15.3855V15.3863V15.3871V15.3879V15.3887V15.3894V15.3902V15.391V15.3918V15.3926V15.3934V15.3942V15.395V15.3958V15.3965V15.3973V15.3981V15.3989V15.3997V15.4005V15.4013V15.4021V15.4029V15.4037V15.4044V15.4052V15.406V15.4068V15.4076V15.4084V15.4092V15.41V15.4108V15.4116V15.4123V15.4131V15.4139V15.4147V15.4155V15.4163V15.4171V15.4179V15.4187V15.4195V15.4203V15.421V15.4218V15.4226V15.4234V15.4242V15.425V15.4258V15.4266V15.4274V15.4282V15.429V15.4298V15.4305V15.4313V15.4321V15.4329V15.4337V15.4345V15.4353V15.4361V15.4369V15.4377V15.4385V15.4393V15.4401V15.4408V15.4416V15.4424V15.4432V15.444V15.4448V15.4456V15.4464V15.4472V15.448V15.4488V15.4496V15.4503V15.4511V15.4519V15.4527V15.4535V15.4543V15.4551V15.4559V15.4567V15.4575V15.4583V15.4591V15.4598V15.4606V15.4614V15.4622V15.463V15.4638V15.4646V15.4654V15.4662V15.467V15.4678V15.4685V15.4693V15.4701V15.4709V15.4717V15.4725V15.4733V15.4741V15.4749V15.4757V15.4764V15.4772V15.478V15.4788V15.4796V15.4804V15.4812V15.482V15.4828V15.4836V15.4843V15.4851V15.4859V15.4867V15.4875V15.4883V15.4891V15.4899V15.4906V15.4914V15.4922V15.493V15.4938V15.4946V15.4954V15.4962V15.4969V15.4977V15.4985V15.4993V15.5001V15.5009V15.5017V15.5025V15.5032V15.504V15.5048V15.5056V15.5064V15.5072V15.508V15.5087V15.5095V15.5103V15.5111V15.5119V15.5127V15.5134V15.5142V15.515V15.5158V15.5166V15.5174V15.5181V15.5189V15.5197V15.5205V15.5213V15.5221V15.5228V15.5236V15.5244V15.5252V15.526V15.5267V15.5275V15.5283V15.5291V15.5299V15.5306V15.5314V15.5322V15.533V15.5338V15.5345V15.5353V15.5361V15.5369V15.5376V15.5384V15.5392V15.54V15.5408V15.5415V15.5423V15.5431V15.5439V15.5446V15.5454V15.5462V15.547V15.5477V15.5485V15.5493V15.55V15.5508V15.5516V15.5524V15.5531V15.5539V15.5547V15.5555V15.5562V15.557V15.5578V15.5585V15.5593V15.5601V15.5609V15.5616V15.5624V15.5632V15.5639V15.5647V15.5655V15.5662V15.567V15.5678V15.5685V15.5693V15.5701V15.5708V15.5716V15.5724V15.5731V15.5739V15.5747V15.5754V15.5762V15.5769V15.5777V15.5785V15.5792V15.58V15.5808V15.5815V15.5823V15.583V15.5838V15.5846V15.5853V15.5861V15.5868V15.5876V15.5884V15.5891V15.5899V15.5906V15.5914V15.5921V15.5929V15.5937V15.5944V15.5952V15.5959V15.5967V15.5974V15.5982V15.5989V15.5997V15.6004V15.6012V15.6019V15.6027V15.6034V15.6042V15.6049V15.6057V15.6064V15.6072V15.6079V15.6087V15.6094V15.6102V15.6109V15.6117V15.6124V15.6132V15.6139V15.6147V15.6154V15.6161V15.6169V15.6176V15.6184V15.6191V15.6199V15.6206V15.6213V15.6221V15.6228V15.6236V15.6243V15.625V15.6258V15.6265V15.6272V15.628V15.6287V15.6295V15.6302V15.6309V15.6317V15.6324V15.6331V15.6339V15.6346V15.6353V15.6361V15.6368V16.0309H14.5524L14.793 16.7C15.0069 17.2949 15.3824 17.8783 16.1514 18.1098C16.6833 18.2855 17.2275 18.2816 17.7482 18.1652C17.9539 18.1302 18.1454 18.0829 18.3222 18.0358ZM18.5646 12.8068C18.5645 12.8068 18.564 12.8064 18.563 12.8056L18.5633 12.8057C18.5642 12.8064 18.5646 12.8068 18.5646 12.8068ZM18.507 18.4701C18.5068 18.47 18.5062 18.4684 18.5053 18.4653C18.5066 18.4686 18.5071 18.4701 18.507 18.4701Z" fill="#757575" stroke="#757575"/>
<path d="M12 4H18V8.5M16 7L18 9L20 7" stroke="#757575" stroke-linecap="round" stroke-linejoin="round"/>
<path d="M12 20L6 20L6 15.5M8 17L6 15L4 17" stroke="#757575" stroke-linecap="round" stroke-linejoin="round"/>
</svg>
