<svg width="24" height="24" viewBox="0 0 24 24" fill="none" xmlns="http://www.w3.org/2000/svg">
<path d="M17.1647 18.1412C17.6235 18.1412 17.96 18.4918 17.96 18.9009C17.96 19.3391 17.5929 19.6605 17.1647 19.6605C16.7058 19.6605 16.3694 19.3099 16.3694 18.9009C16.3388 18.4918 16.7058 18.1412 17.1647 18.1412ZM13.6775 18.1412C14.1364 18.1412 14.4728 18.4918 14.4728 18.9009C14.4728 19.3391 14.1058 19.6605 13.6775 19.6605C13.2493 19.6605 12.8822 19.3099 12.8822 18.9009C12.8822 18.4918 13.2187 18.1412 13.6775 18.1412ZM5.99971 4L8.14093 4.11687L8.07976 4.87652L5.93853 4.75965L5.99971 4ZM10.3739 10.7784L10.8328 10.8077V10.5739C10.6798 10.5739 10.5269 10.5739 10.3739 10.5739V10.7784ZM8.35506 13.5249C8.35506 13.3788 8.32447 13.2327 8.32447 13.0866L5.90794 12.9697C5.93853 13.145 5.93853 13.4664 5.93853 13.6417C5.93853 13.9339 6.06089 14.1677 6.21383 14.343C6.39737 14.6351 6.39737 14.9273 6.55031 15.2195C6.27501 16.505 5.38793 17.7906 5.02086 19.047C4.80674 20.0111 6.3056 20.391 6.55031 19.4852C6.88679 18.1997 7.9574 16.9141 8.2327 15.6285C8.2327 15.5701 8.26329 15.5117 8.26329 15.4532C9.21155 16.3882 9.82332 17.8783 9.94568 19.1931C10.0374 20.1572 11.5975 20.1572 11.5057 19.1931C11.3222 16.9725 10.1598 14.8397 8.35506 13.5249ZM6.91738 6.74644C7.59033 6.77565 8.17152 6.27896 8.20211 5.63617C8.20211 5.40244 8.17152 5.19791 8.04917 5.02261L5.96912 4.93496C5.84677 5.11026 5.78559 5.31478 5.755 5.5193C5.72441 6.19131 6.24442 6.71722 6.91738 6.74644ZM16.1858 6.80487C16.2164 6.74644 16.2164 6.65878 16.2164 6.60035C16.2164 6.30817 15.9717 6.07444 15.6658 6.07444H15.6046V5.72383C15.6046 5.66539 15.5435 5.60696 15.4823 5.60696C15.4211 5.60696 15.3599 5.66539 15.3599 5.72383V6.10365H15.3293C15.0234 6.10365 14.7787 6.33739 14.7787 6.62957C14.7787 6.71722 14.8093 6.77565 14.8093 6.83409C13.3411 7.03861 12.2093 8.17809 12.0257 9.58052C11.9034 9.28835 11.5975 9.02539 11.1692 9.08383C11.0775 9.08383 11.0469 9.11305 10.9551 9.11305V8.93774L10.4963 8.90852V9.08383C10.6492 9.08383 10.8022 9.08383 10.9551 9.08383L10.8633 10.5739C11.1081 10.5739 11.261 10.5447 11.5057 10.5155C11.7504 10.4863 11.9034 10.3694 11.9951 10.2233V17.5569H19V9.96035C19 8.38261 17.7764 7.03861 16.1858 6.80487ZM18.4188 16.9725H12.6069V9.96035C12.6069 8.5287 13.8305 7.36 15.3293 7.36H15.6658C17.1647 7.36 18.3882 8.5287 18.3882 9.96035V16.9725H18.4188ZM8.26329 8.20731C8.2327 7.59374 7.83504 7.03861 7.1315 6.98018C6.51972 6.95096 5.81618 7.44765 5.84677 8.06122C5.93853 9.60974 5.93853 11.129 5.93853 12.6484L8.35506 12.7652C8.35506 11.8595 8.35506 10.983 8.35506 10.0772C9.02801 10.311 9.73156 10.4863 10.4351 10.5155L10.5269 9.05461C9.76215 8.99618 8.99742 8.76244 8.32447 8.41183C8.26329 8.35339 8.26329 8.29496 8.26329 8.20731ZM17.0117 12.0932H16.0329V12.5899H15.0234V14.752H17.9294V12.5899H17.0117V12.0932ZM16.8282 12.5899H16.1858V12.2393H16.8282V12.5899ZM13.0352 10.457H14.7787V14.752H13.0352V10.457Z" fill="#757575"/>
</svg>
