<svg width="24" height="24" viewBox="0 0 24 24" fill="none" xmlns="http://www.w3.org/2000/svg">
<path d="M13.3588 5.60169L13.341 5.58035L13.3209 5.56112C13.1496 5.39698 12.9526 5.27317 12.766 5.1838C12.5222 5.06702 12.2637 5.03892 12.05 5.03892C11.8408 5.03892 11.5887 5.06585 11.3495 5.17651C10.942 5.34436 10.5536 5.71305 10.3733 6.11446C10.2524 6.356 10.225 6.63115 10.225 6.80838C10.225 6.98827 10.1452 7.17824 9.99459 7.34256C9.83043 7.49573 9.6302 7.57784 9.425 7.57784C9.21583 7.57784 9.01181 7.49252 8.84591 7.33357C8.69844 7.19228 8.625 7.01317 8.625 6.80838C8.625 6.3738 8.71095 5.96334 8.88275 5.57242C9.05702 5.17588 9.31955 4.79947 9.62091 4.51074L9.63295 4.4992L9.6442 4.48688C9.93525 4.1682 10.3188 3.91984 10.7371 3.75112C11.1497 3.58466 11.6109 3.5 12.05 3.5C12.5125 3.5 12.9489 3.58409 13.3629 3.75112C13.7823 3.9203 14.1776 4.17398 14.4791 4.46284C14.8038 4.77392 15.042 5.12578 15.2173 5.52452L15.2171 5.52458L15.2224 5.53592C15.4151 5.94606 15.5 6.35223 15.5 6.78443V19.3713C15.5 19.662 15.3837 19.94 15.1541 20.1599C14.9238 20.3805 14.6234 20.5 14.3 20.5H9.675C9.01067 20.5 8.5 19.9901 8.5 19.3713V10.2575C8.5 9.64817 9.00075 9.15269 9.675 9.15269H12.4C12.7705 9.15269 13.1469 9.01274 13.4209 8.75026C13.696 8.48674 13.85 8.1161 13.85 7.74251V6.80838C13.85 6.59761 13.8197 6.34024 13.6933 6.09801C13.5989 5.91725 13.4776 5.74395 13.3588 5.60169Z" stroke="#757575"/>
<rect x="10.5" y="15.5" width="3" height="2" rx="0.5" stroke="#757575"/>
</svg>
