<svg width="24" height="24" viewBox="0 0 24 24" fill="none" xmlns="http://www.w3.org/2000/svg">
<path d="M5.63922 19.1961L4.23922 12.1961C4.11546 11.5773 4.58876 11 5.2198 11H11.7802C12.4112 11 12.8845 11.5773 12.7608 12.1961L11.3608 19.1961C11.2673 19.6635 10.8569 20 10.3802 20H6.6198C6.14312 20 5.73271 19.6635 5.63922 19.1961Z" stroke="#757575"/>
<path d="M14.7345 14.8586L14.1631 18.8586C14.077 19.461 14.5445 20 15.153 20H18.847C19.4555 20 19.923 19.461 19.8369 18.8586L19.2655 14.8586C19.1951 14.3659 18.7732 14 18.2756 14H15.7244C15.2268 14 14.8049 14.3659 14.7345 14.8586Z" stroke="#757575"/>
<path d="M17 14V4" stroke="#757575" stroke-linecap="round"/>
<path d="M14.5 16.5H19.5" stroke="#757575"/>
<path d="M11 11.5C11 12.8807 9.88071 14 8.5 14C7.11929 14 6 12.8807 6 11.5" stroke="#757575"/>
</svg>
