<svg width="24" height="24" viewBox="0 0 24 24" fill="none" xmlns="http://www.w3.org/2000/svg">
<path d="M19.8153 16.2338L19.094 13.6283C18.794 12.5461 18.4872 11.4248 17.1389 11.4248H14.7693V10.2021H15.9187C16.576 10.2021 17.112 9.6823 17.112 9.0448C17.112 8.4073 16.576 7.88749 15.9187 7.88749H14.7693V7.78615C14.7693 7.19115 14.4659 6.6648 14.0007 6.34442C14.4659 6.02403 14.7693 5.49769 14.7693 4.90269C14.7693 3.92846 13.9502 3.13403 12.9457 3.13403C11.9412 3.13403 11.1221 3.92846 11.1221 4.90269C11.1221 5.49769 11.4254 6.02403 11.8906 6.34442C11.4254 6.6648 11.1221 7.19115 11.1221 7.78615V8.15557C8.54679 8.92057 6.77039 11.2417 6.77039 13.8767C6.77039 17.1819 9.54117 19.8692 12.949 19.8692C13.9266 19.8692 14.8603 19.6535 15.7266 19.2317C16.4479 18.8786 17.1018 18.3817 17.6311 17.7867C17.8603 17.9273 18.1299 18.009 18.4131 18.009C18.5378 18.009 18.6659 17.9927 18.7872 17.96C19.1614 17.8619 19.4749 17.6298 19.667 17.3029C19.8625 16.976 19.9165 16.5967 19.8153 16.2338ZM11.7996 4.89942C11.7996 4.2848 12.3153 3.78461 12.949 3.78461C13.5827 3.78461 14.0985 4.2848 14.0985 4.89942C14.0985 5.51403 13.5827 6.01423 12.949 6.01423C12.3153 6.01423 11.7996 5.51403 11.7996 4.89942ZM12.949 14.2429H16.2591L16.7209 15.9102C15.9592 17.2408 14.5266 18.0613 12.9524 18.0613C10.5726 18.0613 8.6378 16.1848 8.6378 13.8767C8.6378 12.2356 9.62207 10.7644 11.1288 10.0844V12.4742C11.1254 13.4485 11.9412 14.2429 12.949 14.2429ZM12.949 19.2154C9.91196 19.2154 7.44454 16.8223 7.44454 13.8767C7.44454 11.5948 8.9378 9.58096 11.1254 8.83884V9.37499C9.22432 10.0975 7.96027 11.8792 7.96027 13.88C7.96027 16.5477 10.1985 18.7185 12.949 18.7185C14.5502 18.7185 16.0232 17.9861 16.9535 16.7667L16.9872 16.8942L17.0075 16.9694C17.0142 16.9988 17.0243 17.025 17.0344 17.0511C17.0344 17.0544 17.0378 17.061 17.0378 17.0642C17.0479 17.0904 17.058 17.1198 17.0715 17.146C17.0715 17.146 17.0715 17.1492 17.0749 17.1492C17.0985 17.2048 17.1288 17.2604 17.1592 17.3127C17.1592 17.3127 17.1592 17.3127 17.1592 17.316C16.1108 18.5256 14.5906 19.2154 12.949 19.2154ZM19.0839 16.976C18.9794 17.1525 18.8108 17.2767 18.612 17.329C18.5479 17.3454 18.4805 17.3552 18.4131 17.3552C18.1771 17.3552 17.9614 17.2506 17.8165 17.0838C17.8097 17.0773 17.8063 17.0708 17.7996 17.0642C17.7895 17.0511 17.7794 17.0381 17.7726 17.0283C17.7693 17.025 17.7659 17.0217 17.7659 17.0185C17.7558 17.0054 17.7457 16.989 17.7389 16.976L17.7356 16.9727C17.7254 16.9563 17.7153 16.9367 17.7086 16.9204V16.9171C17.7018 16.9008 17.6951 16.8844 17.6884 16.8681C17.6884 16.8648 17.685 16.8615 17.685 16.855C17.6783 16.8354 17.6715 16.819 17.6681 16.7994L16.849 13.8375C16.8086 13.6936 16.6771 13.5956 16.5221 13.5956H12.949C12.3153 13.5956 11.7996 13.0954 11.7996 12.4808V7.78288C11.7996 7.16826 12.3153 6.66807 12.949 6.66807C13.5827 6.66807 14.0985 7.16826 14.0985 7.78288V8.21115C14.0985 8.39096 14.2502 8.53807 14.4356 8.53807H15.9221C16.2086 8.53807 16.4412 8.76365 16.4412 9.04153C16.4412 9.31942 16.2086 9.54499 15.9221 9.54499H14.4356C14.2502 9.54499 14.0985 9.69211 14.0985 9.87192V11.7485C14.0985 11.9283 14.2502 12.0754 14.4356 12.0754H17.1423C17.9344 12.0754 18.1333 12.6638 18.4434 13.795L19.1648 16.4006C19.2187 16.5967 19.1884 16.7994 19.0839 16.976Z" fill="#757575"/>
<path d="M12.9482 20C9.46623 20 6.63477 17.2538 6.63477 13.8767C6.63477 12.556 7.06286 11.2973 7.87184 10.2348C8.66061 9.20173 9.73589 8.44981 10.9898 8.05423V7.78289C10.9898 7.22712 11.2426 6.70077 11.6741 6.34115C11.2426 5.98154 10.9898 5.45519 10.9898 4.89942C10.9898 3.85327 11.8696 3 12.9482 3C14.0269 3 14.9067 3.85327 14.9067 4.89942C14.9067 5.45519 14.6539 5.98154 14.2224 6.34115C14.6471 6.69423 14.8999 7.21077 14.9067 7.75346H15.9213C16.6527 7.75346 17.2494 8.33212 17.2494 9.04154C17.2494 9.75096 16.6527 10.3296 15.9213 10.3296H14.9067V11.2908H17.1415C18.5909 11.2908 18.928 12.5135 19.2247 13.5923L19.946 16.1979C20.0539 16.5935 19.9999 17.0087 19.7876 17.365C19.5752 17.7213 19.2348 17.9763 18.8235 18.0842C18.6887 18.1202 18.5539 18.1365 18.4157 18.1365C18.1527 18.1365 17.8932 18.0712 17.6606 17.9502C17.1348 18.5223 16.4876 19.0029 15.7898 19.3462C14.8999 19.781 13.946 20 12.9482 20ZM12.9482 3.26154C12.0179 3.26154 11.2595 3.99712 11.2595 4.89942C11.2595 5.42904 11.5258 5.92596 11.9707 6.23327L12.1258 6.34115L11.9707 6.44904C11.5258 6.75635 11.2595 7.25654 11.2595 7.78289V8.24712L11.1651 8.27654C8.61679 9.03827 6.90443 11.2875 6.90443 13.8767C6.90443 17.11 9.61454 19.7385 12.9482 19.7385C13.9022 19.7385 14.819 19.5292 15.6651 19.114C16.3662 18.7708 17.01 18.2804 17.5291 17.6985L17.6067 17.6135L17.7044 17.6756C17.9168 17.8063 18.1629 17.8783 18.4157 17.8783C18.5303 17.8783 18.6449 17.8652 18.7561 17.8358C19.0966 17.7475 19.3797 17.535 19.555 17.2408C19.7303 16.9433 19.7775 16.6 19.6865 16.2731L18.9651 13.6675C18.6651 12.5854 18.3853 11.5621 17.1415 11.5621H14.637V10.0779H15.9213C16.5044 10.0779 16.9797 9.61692 16.9797 9.05135C16.9797 8.48577 16.5044 8.02481 15.9213 8.02481H14.637V7.79269C14.637 7.26308 14.3707 6.76615 13.9258 6.45885L13.7707 6.35096L13.9258 6.24308C14.3707 5.93577 14.637 5.43558 14.637 4.90923C14.637 3.99712 13.8786 3.26154 12.9482 3.26154ZM12.9482 19.3462C9.83701 19.3462 7.30892 16.8942 7.30892 13.8767C7.30892 11.5556 8.82578 9.47962 11.0808 8.71462L11.2595 8.6525V9.46L11.1752 9.49269C9.30443 10.2054 8.09769 11.925 8.09769 13.8735C8.09769 16.4692 10.2752 18.5812 12.9516 18.5812C14.482 18.5812 15.9381 17.8717 16.8482 16.6817L17.0134 16.4627L17.1415 16.9237C17.1482 16.9465 17.155 16.9694 17.1651 16.9988L17.1685 17.0119C17.1786 17.0381 17.1887 17.061 17.1988 17.0838L17.2022 17.0904C17.2224 17.1394 17.2494 17.1885 17.2797 17.2375L17.2831 17.2408L17.3303 17.3192L17.2696 17.3912C16.1909 18.6367 14.6168 19.3462 12.9482 19.3462ZM10.9898 9.02846C8.94038 9.80327 7.57859 11.7288 7.57859 13.8767C7.57859 16.7471 9.9887 19.0846 12.9482 19.0846C14.5089 19.0846 15.9786 18.434 16.9966 17.2963C16.9797 17.2637 16.9629 17.231 16.9494 17.195L16.946 17.1885C16.9359 17.1623 16.9224 17.1329 16.9123 17.1002L16.9056 17.0838C16.9022 17.0708 16.8954 17.0577 16.8921 17.0446C16.4438 17.5677 15.8842 18.0025 15.2606 18.3098C14.5494 18.6596 13.7505 18.8427 12.9482 18.8427C10.1235 18.8427 7.82465 16.6131 7.82465 13.8735C7.82465 12.8665 8.13477 11.8988 8.71791 11.0685C9.28083 10.2675 10.0662 9.64962 10.9898 9.28019V9.02846ZM12.9482 18.1921C10.4943 18.1921 8.49881 16.2567 8.49881 13.8767C8.49881 12.2062 9.50668 10.6696 11.0673 9.96673L11.2595 9.88173V12.4742C11.2595 13.3765 12.0179 14.1121 12.9482 14.1121H16.3595L16.8617 15.9298L16.8348 15.9756C16.0494 17.3421 14.5595 18.1921 12.9482 18.1921ZM10.9898 10.2969C9.63477 10.9933 8.76847 12.3762 8.76847 13.8767C8.76847 16.1129 10.6426 17.9306 12.9482 17.9306C14.4449 17.9306 15.8303 17.1525 16.5752 15.8938L16.1539 14.3737H12.9482C11.8696 14.3737 10.9898 13.5204 10.9898 12.4742V10.2969ZM18.4123 17.4827C18.1426 17.4827 17.8865 17.3683 17.7112 17.1656C17.7044 17.159 17.6977 17.1492 17.6909 17.1427C17.6808 17.1296 17.6673 17.1133 17.6572 17.1002C17.6539 17.0969 17.6539 17.0937 17.6505 17.0904L17.6471 17.0871C17.637 17.0708 17.6235 17.0544 17.6134 17.0348L17.61 17.0315C17.5966 17.0087 17.5865 16.989 17.5763 16.9694L17.573 16.9629C17.5629 16.9433 17.5561 16.9269 17.5494 16.9073L17.5426 16.8942C17.5325 16.8681 17.5258 16.8485 17.5224 16.8288L16.7033 13.8669C16.6797 13.7819 16.5988 13.7231 16.5078 13.7231H12.9482C12.2404 13.7231 11.664 13.164 11.664 12.4775V7.78289C11.664 7.09635 12.2404 6.53731 12.9482 6.53731C13.6561 6.53731 14.2325 7.09635 14.2325 7.78289V8.21115C14.2325 8.31904 14.3235 8.40731 14.4348 8.40731H15.9213C16.282 8.40731 16.5752 8.69173 16.5752 9.04154C16.5752 9.39135 16.282 9.67577 15.9213 9.67577H14.4348C14.3235 9.67577 14.2325 9.76404 14.2325 9.87192V11.7485C14.2325 11.8563 14.3235 11.9446 14.4348 11.9446H17.1415C18.0752 11.9446 18.2842 12.7063 18.5741 13.759L19.2954 16.3646C19.3595 16.5935 19.3258 16.8321 19.2044 17.0348C19.0831 17.2408 18.8842 17.3879 18.6516 17.4467C18.5707 17.4729 18.4932 17.4827 18.4123 17.4827ZM17.8258 16.8615C17.8325 16.8746 17.8393 16.891 17.8494 16.904L17.8527 16.9106C17.8595 16.9204 17.8662 16.9335 17.873 16.9433L17.8797 16.9498C17.8865 16.9596 17.8966 16.9727 17.9033 16.9825C17.9067 16.989 17.9134 16.9923 17.9168 16.9988C18.0415 17.1427 18.2202 17.2244 18.4123 17.2244C18.4662 17.2244 18.5235 17.2179 18.5775 17.2048C18.7426 17.1623 18.8808 17.0577 18.9685 16.9138C19.0561 16.77 19.0797 16.6 19.0325 16.4398L18.3112 13.8342C17.9876 12.6573 17.8022 12.2127 17.1381 12.2127H14.4314C14.1718 12.2127 13.9595 12.0067 13.9595 11.755V9.87846C13.9595 9.62673 14.1718 9.42077 14.4314 9.42077H15.9179C16.1303 9.42077 16.3022 9.25404 16.3022 9.04808C16.3022 8.84212 16.1303 8.67538 15.9179 8.67538H14.4314C14.1718 8.67538 13.9595 8.46942 13.9595 8.21769V7.78942C13.9595 7.24673 13.5044 6.80538 12.9449 6.80538C12.3853 6.80538 11.9303 7.24673 11.9303 7.78942V12.4808C11.9303 13.0235 12.3853 13.4648 12.9449 13.4648H16.5112C16.7235 13.4648 16.9123 13.6054 16.9662 13.8048L17.7853 16.7667C17.7887 16.7798 17.7921 16.7929 17.7988 16.8125L17.8022 16.8223C17.8056 16.8354 17.8123 16.8485 17.819 16.8615H17.8258ZM12.9482 6.145C12.6044 6.145 12.2842 6.01423 12.0415 5.77885C11.7988 5.54346 11.664 5.22962 11.664 4.89942C11.664 4.21288 12.2404 3.65385 12.9482 3.65385C13.6561 3.65385 14.2325 4.21288 14.2325 4.89942C14.2325 5.58596 13.6561 6.145 12.9482 6.145ZM12.9482 3.91538C12.3887 3.91538 11.9336 4.35673 11.9336 4.89942C11.9336 5.16096 12.0381 5.40942 12.2303 5.59577C12.4224 5.78212 12.6752 5.88346 12.9482 5.88346C13.5078 5.88346 13.9629 5.44212 13.9629 4.89942C13.9629 4.35673 13.5078 3.91538 12.9482 3.91538Z" fill="#757575"/>
<path d="M8.35219 6.73346H8.32859C7.9241 6.73346 7.57017 7.02115 7.52298 7.41346C7.46567 7.88423 7.8432 8.28634 8.31848 8.28634H8.34208C8.73309 8.28634 9.08028 8.01826 9.14432 7.6423C9.22522 7.15519 8.84095 6.73346 8.35219 6.73346Z" fill="#757575"/>
<path d="M8.34108 8.41711H8.31748C8.05119 8.41711 7.79501 8.30595 7.61973 8.11307C7.44108 7.92018 7.36018 7.65865 7.39052 7.40038C7.44782 6.94596 7.85231 6.60596 8.33097 6.60596H8.35456C8.63097 6.60596 8.89052 6.72365 9.0658 6.92634C9.24445 7.12903 9.31861 7.40038 9.27479 7.66519C9.20063 8.09999 8.80962 8.41711 8.34108 8.41711ZM8.33097 6.86423C7.98715 6.86423 7.69726 7.10615 7.65681 7.4298C7.63321 7.61615 7.69052 7.79922 7.81861 7.93653C7.94333 8.07384 8.12535 8.1523 8.31748 8.1523H8.34108C8.67142 8.1523 8.95793 7.92345 9.00849 7.61615C9.0422 7.42326 8.98827 7.23692 8.86018 7.0898C8.73209 6.94596 8.55007 6.86096 8.35456 6.86096H8.33097V6.86423Z" fill="#757575"/>
<path d="M6.49464 3.49042H6.45756C5.79689 3.49042 5.22385 3.96119 5.14633 4.59542C5.05194 5.36369 5.66543 6.01426 6.43734 6.01426H6.47442C7.1115 6.01426 7.67442 5.57619 7.77554 4.96484C7.91037 4.17369 7.28678 3.49042 6.49464 3.49042Z" fill="#757575"/>
<path d="M6.47387 6.145H6.4368C6.02556 6.145 5.63455 5.975 5.36151 5.6775C5.08848 5.38 4.96039 4.98116 5.01095 4.58231C5.09859 3.88597 5.71882 3.35962 6.45702 3.35962H6.4941C6.91545 3.35962 7.31657 3.53943 7.58961 3.85C7.86264 4.16385 7.98062 4.57577 7.90983 4.9877C7.79859 5.64808 7.18174 6.145 6.47387 6.145ZM6.45702 3.62116C5.85365 3.62116 5.34803 4.04616 5.27724 4.61173C5.23679 4.94193 5.33792 5.25904 5.56376 5.50423C5.78623 5.74616 6.10309 5.88347 6.4368 5.88347H6.47387C7.05028 5.88347 7.55253 5.48135 7.64354 4.9452C7.70084 4.61173 7.60646 4.275 7.38399 4.02C7.16151 3.765 6.83792 3.62116 6.4941 3.62116H6.45702Z" fill="#757575"/>
</svg>
