<svg width="24" height="24" viewBox="0 0 24 24" fill="none" xmlns="http://www.w3.org/2000/svg">
<path d="M2 18C3.25 18 3.25 19 4.5 19C5.75 19 5.75 18 7 18C8.25 18 8.25 19 9.5 19C10.75 19 10.75 18 12 18C13.25 18 13.25 19 14.5 19C15.75 19 15.75 18 17 18C18.25 18 18.25 19 19.5 19C20.75 19 20.75 18 22 18" stroke="#757575" stroke-linecap="round"/>
<path d="M4 18.5V14H21C20.3333 15.1667 18.4 17.6 16 18" stroke="#757575" stroke-linecap="round" stroke-linejoin="round"/>
<path d="M5.55001 13.5C5.78164 12.3589 6.79052 11.5 8 11.5H16C16.2761 11.5 16.5 11.7239 16.5 12V13.5H5.55001Z" stroke="#757575"/>
<path d="M14.5 5V11" stroke="#757575" stroke-linecap="round"/>
<path d="M12 7V11" stroke="#757575" stroke-linecap="round"/>
<path d="M6 16H8" stroke="#757575" stroke-linecap="round"/>
<path d="M10 16H12" stroke="#757575" stroke-linecap="round"/>
<path d="M14 16H16" stroke="#757575" stroke-linecap="round"/>
</svg>
