<svg width="24" height="24" viewBox="0 0 24 24" fill="none" xmlns="http://www.w3.org/2000/svg">
<path d="M11 15C6.99995 14.3333 -0.200046 10.8 2.99995 2C3.49995 3 4.5 4 8 4C9 4 13.5 4.5 12 10C13.5 8.5 14.5 6.5 21 7C20.5 9 19.5 14.5 14 14" stroke="#757575" stroke-linecap="round" stroke-linejoin="round"/>
<path d="M6 8C6.66667 9.16667 8.6 11.6 11 12" stroke="#757575" stroke-linecap="round" stroke-linejoin="round"/>
<path d="M17 10C16.1667 10.6667 14.1 12.2 12.5 13C12.5 15 12.5 17.8333 12.5 19" stroke="#757575" stroke-linecap="round" stroke-linejoin="round"/>
<path d="M14 20.5C14 19.6716 13.3284 19 12.5 19C11.6716 19 11 19.6716 11 20.5" stroke="#757575"/>
<path d="M11 20.5C11 19.6716 10.3284 19 9.5 19C8.67157 19 8 19.6716 8 20.5" stroke="#757575"/>
<path d="M17 20.5C17 19.6716 16.3284 19 15.5 19C14.6716 19 14 19.6716 14 20.5" stroke="#757575"/>
</svg>
