<svg width="24" height="24" viewBox="0 0 24 24" fill="none" xmlns="http://www.w3.org/2000/svg">
<path d="M2.30604 13.4815L4.92772 12.4512C5.16929 12.3569 5.43584 12.4917 5.52325 12.7525L5.68241 13.2239L8.71913 12.0306C8.79542 12 8.87806 11.9921 8.95821 12.008L15.2782 13.2128C15.8508 13.3231 16.3428 13.7156 16.6087 14.2742L19.5074 13.13C19.9705 12.9464 20.4828 12.9709 20.9293 13.1979C21.4956 13.4837 21.8916 14.0568 21.9842 14.7245C22.1 15.6913 21.5696 16.6127 20.7152 16.9286L11.1669 20.6807C11.116 20.7011 11.062 20.7114 11.0077 20.7114C10.9571 20.7114 10.9069 20.7023 10.859 20.6849L8.19284 19.713L7.90926 19.8243L8.06819 20.2961C8.15561 20.557 8.03073 20.845 7.78916 20.9393L5.16702 21.9694C5.11639 21.9897 5.06258 22.0002 5.00854 22C4.94066 22.0002 4.87345 21.9841 4.81192 21.9529C4.70022 21.8966 4.61371 21.7948 4.57148 21.6698L2.027 14.1215C1.9414 13.8617 2.06605 13.5759 2.30604 13.4815ZM8.02823 18.7104C8.12745 18.6715 8.23598 18.6702 8.33611 18.7068L11.0018 19.6787L20.3974 15.9864C20.8322 15.8302 21.1094 15.3704 21.0656 14.8779C21.0211 14.5414 20.8217 14.2519 20.5359 14.109C20.3129 13.9953 20.0568 13.9828 19.8255 14.0749L16.8071 15.2606C16.806 15.353 16.7996 15.4452 16.7876 15.5366C16.6051 16.6254 15.6444 17.3522 14.6343 17.1657L9.39936 16.1693L9.56124 15.1802L14.7937 16.1769C15.2982 16.2732 15.7798 15.9111 15.871 15.367C15.891 15.2351 15.8878 15.1005 15.8613 14.9699C15.8547 14.9267 15.844 14.8846 15.8293 14.8439C15.7153 14.5068 15.4437 14.2605 15.1166 14.1972L8.92052 13.0175L6.00027 14.1646L7.59072 18.8835L8.02823 18.7104ZM5.28486 20.856L7.0331 20.1692L4.80625 13.5648L3.05846 14.2514L5.28486 20.856Z" fill="#757575"/>
<circle cx="14" cy="7" r="4.5" stroke="#757575"/>
<path d="M14.6216 7.92797C14.6216 7.78426 14.575 7.67035 14.4818 7.58623C14.3906 7.50035 14.2345 7.42149 14.0137 7.34963C13.7928 7.27778 13.6023 7.2068 13.4422 7.1367C13.2822 7.06484 13.1444 6.98335 13.0289 6.89222C12.9154 6.79933 12.8262 6.69068 12.7614 6.56625C12.6986 6.44182 12.6672 6.29373 12.6672 6.12198C12.6672 5.8258 12.7766 5.58307 12.9954 5.3938C13.2143 5.20452 13.5051 5.09411 13.8678 5.06257V4.5H14.3541V5.07045C14.7128 5.11427 14.9934 5.24395 15.196 5.45952C15.3987 5.67333 15.5 5.9511 15.5 6.29285H14.6216C14.6216 6.08254 14.5709 5.92569 14.4696 5.82229C14.3703 5.71714 14.2366 5.66456 14.0684 5.66456C13.9022 5.66456 13.7736 5.70575 13.6824 5.78812C13.5912 5.86873 13.5456 5.9809 13.5456 6.12461C13.5456 6.2578 13.5902 6.3647 13.6793 6.44532C13.7685 6.52594 13.9336 6.60831 14.1748 6.69243C14.4179 6.77655 14.6175 6.85629 14.7736 6.93165C14.9296 7.00526 15.0613 7.08938 15.1687 7.18402C15.2761 7.2769 15.3582 7.38381 15.4149 7.50473C15.4716 7.6239 15.5 7.76323 15.5 7.92271C15.5 8.22064 15.3926 8.4625 15.1778 8.64826C14.963 8.83403 14.6672 8.94357 14.2903 8.97687V9.5H13.807V8.9795C13.3916 8.94094 13.0694 8.81388 12.8404 8.59832C12.6135 8.381 12.5 8.09271 12.5 7.73344H13.3784C13.3784 7.94199 13.4352 8.10235 13.5486 8.21451C13.6641 8.32492 13.8293 8.38013 14.0441 8.38013C14.2224 8.38013 14.3632 8.33982 14.4666 8.2592C14.5699 8.17683 14.6216 8.06642 14.6216 7.92797Z" fill="#757575"/>
</svg>
