<svg width="24" height="24" viewBox="0 0 24 24" fill="none" xmlns="http://www.w3.org/2000/svg">
<path d="M12.0016 20.498L11.9998 20.4976L11.9841 20.4944L11.9766 20.4929C11.7386 20.432 8.37177 19.5305 6.08138 16.2088L6.08122 16.2086C4.94516 14.563 4.57159 12.0241 4.50977 9.77545C4.45 7.60172 4.68275 5.80733 4.71043 5.59397C4.71105 5.58915 4.71157 5.58514 4.71198 5.58195L4.71199 5.58195L4.71223 5.57999C4.71751 5.53755 4.74556 5.51637 4.7623 5.51198L4.76232 5.51204L4.76994 5.50992L11.9508 3.50658C11.9625 3.50441 11.9728 3.50271 11.9816 3.5015C11.9852 3.50101 11.9882 3.50065 11.9905 3.50041C11.9918 3.50058 11.9934 3.50079 11.9952 3.50106C12.0018 3.502 12.0101 3.50332 12.0223 3.50539L12.0387 3.5082L19.2253 5.50769C19.2473 5.51513 19.2627 5.5267 19.2726 5.53809C19.2825 5.54953 19.2889 5.56299 19.291 5.57999L19.2912 5.58195L19.2924 5.59118C19.3182 5.79065 19.551 7.59154 19.4898 9.77518C19.4268 12.024 19.0532 14.5635 17.9215 16.2094C15.6319 19.5389 12.2671 20.4317 12.0269 20.4928L12.0191 20.4944L12.0034 20.4976L12.0016 20.498ZM12.0016 20.498L11.9874 20.5007C11.9861 20.501 11.9866 20.5008 11.9884 20.5007C11.9908 20.5004 11.9956 20.5 12.0016 20.5C12.0081 20.5 12.0131 20.5005 12.0154 20.5007C12.0167 20.5009 12.017 20.5009 12.0159 20.5007L12.0016 20.498ZM4.21606 5.51824C4.21563 5.52159 4.21509 5.52576 4.21444 5.53076C4.15636 5.97866 3.24792 12.9847 5.66975 16.4927C8.10883 20.0299 11.7089 20.9412 11.865 20.9804C11.8721 20.9818 11.879 20.9833 11.8858 20.9847C11.9254 20.9929 11.9599 21 12.0016 21C12.0433 21 12.0778 20.9929 12.1174 20.9847C12.1242 20.9833 12.1311 20.9818 12.1382 20.9804L12.1386 20.9803C12.3002 20.9397 15.8964 20.0368 18.3335 16.4927C20.751 12.9768 19.8426 5.94736 19.7884 5.52786L4.21606 5.51824Z" stroke="#757575"/>
<path d="M11.9992 15.1956C11.9768 15.1664 11.9536 15.136 11.9297 15.1045C11.6546 14.7414 11.2883 14.2336 10.923 13.654C10.5568 13.0731 10.1969 12.4285 9.92992 11.7911C9.66042 11.1477 9.5 10.5453 9.5 10.0394C9.5 9.37058 9.75619 8.76284 10.1726 8.30971C9.82385 8.72764 9.61377 9.26761 9.61377 9.85743C9.61377 11.183 10.6758 12.2685 12 12.2685C13.3153 12.2685 14.3784 11.1825 14.3683 9.8553C14.3677 9.17444 14.0852 8.55483 13.6287 8.11581C14.1608 8.58117 14.5 9.26984 14.5 10.0394C14.5 10.5404 14.3398 11.1403 14.0702 11.7832C13.8031 12.42 13.4431 13.0653 13.0768 13.6475C12.7113 14.2285 12.345 14.7381 12.0697 15.1027C12.0454 15.1348 12.0219 15.1658 11.9992 15.1956Z" fill="#757575" stroke="#757575"/>
</svg>
