<svg width="24" height="24" viewBox="0 0 24 24" fill="none" xmlns="http://www.w3.org/2000/svg">
<path d="M18.5513 7.74464H14.2308L12.8077 6.98552V6.73248C13.3782 6.51363 13.7692 5.89813 13.6731 5.20056C13.5897 4.57822 13.1154 4.08581 12.5321 4.01059C11.7372 3.908 11.0577 4.56454 11.0513 5.39205C11.0513 5.62457 11.1987 5.82974 11.4103 5.87077C11.6923 5.92549 11.9359 5.69296 11.9295 5.40573C11.9295 5.24159 12 5.07746 12.141 5.00223C12.5064 4.79706 12.8718 5.12533 12.8013 5.50147C12.7628 5.72032 12.5705 5.87077 12.359 5.87077C12.1218 5.87761 11.9295 6.08278 11.9295 6.34266V6.99236L10.5064 7.75148H6.19231C5.94872 7.75148 5.75 7.96349 5.75 8.22337V11.9985C5.75 12.2583 5.94872 12.4703 6.19231 12.4703H7.51282V15.3974H8.39103V11.082C8.39103 10.8427 8.23077 10.6307 8.00641 10.5965C7.73718 10.5623 7.51282 10.7811 7.51282 11.0615V11.5334H6.62821V8.68841H10.2179C10.4167 9.74845 11.2949 10.5965 12.3718 10.5965C13.4487 10.5965 14.3269 9.74845 14.5256 8.68841H18.1154V11.5334H17.2372V11.082C17.2372 10.8427 17.0769 10.6307 16.8526 10.5965C16.5833 10.5623 16.359 10.7811 16.359 11.0615V19.0631H13.6154C13.6667 18.9194 13.6923 18.7622 13.6923 18.5912C13.6923 18.2287 13.5641 17.9004 13.3526 17.6542C13.5641 17.408 13.6923 17.0798 13.6923 16.7173C13.6923 16.3822 13.5833 16.0745 13.3974 15.8351C13.391 15.8283 13.3846 15.8214 13.3782 15.8146C13.3718 15.8077 13.359 15.7941 13.3526 15.7804C13.2372 15.6436 12.9167 15.3153 12.3718 15.3153H5.32692C4.77564 15.3153 4.44231 15.6436 4.33333 15.7804C4.32051 15.8009 4.30128 15.8146 4.28846 15.8351C4.10897 16.0745 4 16.3822 4 16.7173C4 17.0798 4.12821 17.408 4.33974 17.6542C4.10256 17.9346 3.97436 18.3176 4.00641 18.7348C4.0641 19.4597 4.66026 20 5.33974 20H16.7949C17.0385 20 17.2372 19.788 17.2372 19.5281V12.4703H18.5577C18.8013 12.4703 19 12.2583 19 11.9985V8.21653C18.9936 7.95665 18.7949 7.74464 18.5513 7.74464ZM12.3718 9.6527C11.7436 9.6527 11.1987 9.14662 11.0769 8.49008L12.3718 7.79935L13.6667 8.49008C13.5449 9.14662 13 9.6527 12.3718 9.6527ZM12.3718 19.0631H5.3141C5.03846 19.0631 4.82051 18.7963 4.88462 18.4886C4.92949 18.2698 5.12179 18.1261 5.32692 18.1261H12.359C12.5641 18.1261 12.7564 18.2698 12.8013 18.4886C12.8654 18.7895 12.6474 19.0631 12.3718 19.0631ZM12.3718 17.1892H5.3141C5.03846 17.1892 4.82051 16.9156 4.88462 16.6147C4.92949 16.3959 5.12179 16.2523 5.32692 16.2523H12.359C12.5641 16.2523 12.7564 16.4027 12.8013 16.6147C12.8654 16.9156 12.6474 17.1892 12.3718 17.1892Z" fill="#757575"/>
</svg>
