<svg width="24" height="24" viewBox="0 0 24 24" fill="none" xmlns="http://www.w3.org/2000/svg">
<rect x="10.5" y="13.5" width="3" height="8" rx="1.5" stroke="#757575"/>
<path d="M11 18V18C8.79086 18 7 16.2091 7 14V10C7 8.89543 7.89543 8 9 8H15C16.1046 8 17 8.89543 17 10V14C17 16.2091 15.2091 18 13 18V18" stroke="#757575"/>
<path d="M10 10.5H14" stroke="#757575" stroke-linecap="round"/>
<circle cx="12" cy="5" r="2.5" stroke="#757575"/>
<circle cx="12" cy="5" r="0.5" stroke="#757575"/>
<path d="M10 4H7C6.44772 4 6 4.44772 6 5V5C6 5.55228 6.44772 6 7 6H10" stroke="#757575"/>
<path d="M14 4H17C17.5523 4 18 4.44772 18 5V5C18 5.55228 17.5523 6 17 6H14" stroke="#757575"/>
</svg>
