<svg width="24" height="24" viewBox="0 0 24 24" fill="none" xmlns="http://www.w3.org/2000/svg">
<path d="M18.9596 3.61771C18.9114 3.5625 18.8308 3.54271 18.7603 3.56562C18.5611 3.63229 18.3462 3.66563 18.119 3.66563C17.0321 3.66563 16.149 2.84271 16.149 1.83229C16.149 1.22396 16.4714 0.657292 17.012 0.316667C17.0736 0.278125 17.1027 0.208333 17.0859 0.141667C17.0691 0.075 17.0109 0.025 16.937 0.0145833C16.8531 0.00416667 16.7702 0 16.6863 0C15.2044 0 14 1.12083 14 2.5C14 3.87917 15.2044 5 16.6863 5C17.6265 5 18.4816 4.55521 18.9741 3.81042C19.0133 3.75 19.0077 3.67292 18.9596 3.61771Z" fill="#757575"/>
<g clip-path="url(#clip0)">
<path d="M13.6164 13.3448L17.9499 8.0588L18.9382 6.88822C19.0029 6.80913 19.0184 6.70103 18.977 6.60612C18.9356 6.51385 18.8425 6.45321 18.7416 6.45321H8.77067L8.07472 5.59637C7.98417 5.483 7.82118 5.46718 7.70993 5.56209C7.59868 5.65437 7.58316 5.82046 7.6763 5.93383L8.09801 6.45321H6.81477C6.71387 6.45321 6.62332 6.51385 6.57934 6.60612C6.53795 6.6984 6.55088 6.80913 6.61556 6.88822L7.59092 8.0588L11.927 13.3448C11.9865 13.416 12.0538 13.4793 12.1262 13.5347V17.3048L10.8404 18.0904C10.6515 18.2038 10.5662 18.4253 10.6231 18.6414C10.6826 18.855 10.8663 19 11.0862 19H14.4676C14.6875 19 14.8712 18.855 14.9307 18.6414C14.9902 18.4279 14.9022 18.2064 14.7134 18.0904L13.4276 17.3048V13.5241C13.4974 13.4714 13.5595 13.4134 13.6164 13.3448ZM18.1776 6.9805L17.6343 7.62642H9.72274L9.19755 6.9805H18.1776ZM8.52747 6.9805L9.05267 7.62642H7.90914L7.3736 6.9805H8.52747ZM8.3412 8.15371H9.47955L11.1172 10.1732C10.9827 10.3578 10.9025 10.5871 10.9025 10.8323C10.9025 11.444 11.3889 11.9396 11.9891 11.9396C12.1598 11.9396 12.3203 11.9001 12.4625 11.8289L13.1093 12.6251C13.1611 12.6884 13.2335 12.72 13.3085 12.72C13.3655 12.72 13.425 12.6989 13.4741 12.6594C13.5854 12.5671 13.6009 12.401 13.5078 12.2876L12.861 11.4914C12.9955 11.3069 13.0757 11.0775 13.0757 10.8323C13.0757 10.2207 12.5893 9.72502 11.9891 9.72502C11.8209 9.72502 11.6605 9.76457 11.5156 9.83575L10.1496 8.15371H17.1996L13.218 13.0074C13.1093 13.1392 12.9438 13.2183 12.7756 13.2209C12.6023 13.2236 12.4341 13.1418 12.3228 13.0074L8.3412 8.15371ZM11.9891 11.4123C11.6761 11.4123 11.4199 11.1513 11.4199 10.8323C11.4199 10.5133 11.6761 10.2523 11.9891 10.2523C12.3021 10.2523 12.5583 10.5133 12.5583 10.8323C12.5583 11.1513 12.3021 11.4123 11.9891 11.4123ZM12.9127 13.7377V17.4524C12.9127 17.5447 12.9593 17.6317 13.0395 17.6791L14.3357 18.4727H11.2207L12.5169 17.6791C12.5945 17.6317 12.6436 17.5447 12.6436 17.4524V13.7403C12.7316 13.7509 12.8247 13.7509 12.9127 13.7377Z" fill="#757575"/>
<path d="M14.4397 19H11.1135C10.8513 19 10.6299 18.8261 10.5587 18.5691C10.49 18.3121 10.5918 18.0473 10.8157 17.9097L12.0296 17.1673V13.5668C11.966 13.5148 11.9075 13.4577 11.8566 13.3954L7.5888 8.18283L6.63955 7.03804C6.55048 6.9316 6.53012 6.77844 6.58865 6.65124C6.64718 6.52404 6.77443 6.44098 6.91185 6.44098H7.9578L7.68041 6.09572C7.55571 5.94256 7.57607 5.71152 7.72876 5.58432C7.80257 5.52202 7.89418 5.49347 7.98834 5.50125C8.0825 5.51164 8.16903 5.55577 8.23011 5.63105L8.88415 6.43578H18.6438C18.7838 6.43578 18.9085 6.51885 18.967 6.64865C19.0255 6.77844 19.0052 6.92901 18.9136 7.03804L17.9414 8.19062L13.6787 13.3954C13.6304 13.4525 13.5769 13.507 13.5209 13.5564V17.1699L14.7349 17.9123C14.9588 18.0499 15.0631 18.3147 14.9944 18.5717C14.9257 18.8261 14.7018 19 14.4397 19ZM7.77712 8.08678L12.0169 13.263C12.0678 13.3253 12.1289 13.3824 12.1951 13.4318L12.2383 13.4629V17.2867L10.9252 18.0888C10.7801 18.1771 10.7139 18.3484 10.7572 18.5146C10.803 18.6807 10.9455 18.7923 11.1135 18.7923H14.4397C14.6076 18.7923 14.7527 18.6807 14.7985 18.5146C14.8443 18.3484 14.7756 18.1771 14.6305 18.0888L13.3174 17.2867V13.4525L13.3581 13.4214C13.4191 13.3747 13.4751 13.3201 13.5235 13.263L17.7887 8.05823L18.7583 6.90305C18.7965 6.85632 18.8067 6.79142 18.7812 6.73691C18.7558 6.6824 18.7023 6.64605 18.6413 6.64605H8.78744L8.07232 5.76604C8.04688 5.73489 8.0087 5.71412 7.96798 5.71152C7.92727 5.70633 7.88655 5.71931 7.85601 5.74787C7.78984 5.80238 7.78221 5.90103 7.83565 5.96592L8.38789 6.64865H6.91185C6.85332 6.64865 6.79733 6.68499 6.77443 6.73951C6.74898 6.79402 6.75916 6.85892 6.79733 6.90564L7.77712 8.08678ZM14.6789 18.4808H10.8768L12.4674 17.5074C12.5132 17.4788 12.5412 17.4269 12.5412 17.375V13.6005L12.6557 13.6135C12.7371 13.6239 12.8186 13.6213 12.8974 13.6109L13.012 13.5953V17.3724C13.012 17.4269 13.04 17.4788 13.0858 17.5048L14.6789 18.4808ZM11.6123 18.2731H13.9409L12.9814 17.6865C12.8745 17.6216 12.8084 17.5022 12.8084 17.375V13.8289C12.788 13.8289 12.7677 13.8289 12.7448 13.8289V17.375C12.7448 17.5022 12.6786 17.6216 12.5717 17.6865L11.6123 18.2731ZM12.7702 13.3098C12.5717 13.3098 12.3783 13.2163 12.251 13.0631L8.19702 8.11274H9.58145L11.2738 10.1999L11.2254 10.2648C11.1007 10.4361 11.0346 10.6386 11.0346 10.854C11.0346 11.3992 11.4672 11.8405 12.0016 11.8405C12.1492 11.8405 12.2918 11.8067 12.4215 11.7418L12.4928 11.7055L13.1799 12.5518C13.2079 12.5881 13.2512 12.6089 13.297 12.6089C13.3326 12.6089 13.3657 12.5959 13.3937 12.5725C13.4242 12.5466 13.4446 12.5076 13.4497 12.4661C13.4548 12.4246 13.4421 12.383 13.4141 12.3519L12.7269 11.5056L12.7753 11.4407C12.9 11.2694 12.9662 11.0669 12.9662 10.854C12.9662 10.3115 12.5335 9.86758 11.9991 9.86758C11.8515 9.86758 11.7115 9.90133 11.5792 9.96622L11.5079 10.0026L9.97591 8.11274H17.3459L13.2894 13.0631C13.1647 13.2163 12.9712 13.3098 12.7753 13.3098C12.7753 13.3098 12.7727 13.3098 12.7702 13.3098ZM11.6377 11.9884L12.4063 12.9282C12.4954 13.0372 12.6302 13.1021 12.7677 13.1021H12.7702C12.9076 13.1021 13.0425 13.0372 13.129 12.9282L13.2257 12.8087C13.1443 12.7932 13.0705 12.749 13.0171 12.6841L12.4317 11.9625C12.2943 12.0196 12.1467 12.0481 11.9966 12.0481C11.8744 12.0481 11.7522 12.0274 11.6377 11.9884ZM12.9865 11.4978L13.5718 12.2195C13.5973 12.2506 13.6151 12.2844 13.6304 12.3207L16.9107 8.31782H10.4085L11.5639 9.74298C11.7013 9.68587 11.8489 9.65731 11.9991 9.65731C12.6455 9.65731 13.1697 10.1921 13.1697 10.8514C13.1723 11.0851 13.1087 11.3057 12.9865 11.4978ZM8.6322 8.32042L10.8412 11.0176C10.8335 10.9657 10.831 10.9111 10.831 10.854C10.831 10.623 10.8946 10.4023 11.0168 10.2102L9.48474 8.32042H8.6322ZM12.0016 11.529C11.6377 11.529 11.34 11.2252 11.34 10.854C11.34 10.4828 11.6377 10.1791 12.0016 10.1791C12.3656 10.1791 12.6633 10.4828 12.6633 10.854C12.6633 11.2252 12.3656 11.529 12.0016 11.529ZM12.0016 10.3868C11.7497 10.3868 11.5436 10.597 11.5436 10.854C11.5436 11.111 11.7497 11.3213 12.0016 11.3213C12.2536 11.3213 12.4597 11.111 12.4597 10.854C12.4597 10.597 12.2536 10.3868 12.0016 10.3868ZM17.6004 7.80123H9.72396L9.03938 6.95756H18.3104L17.6004 7.80123ZM9.81812 7.59356H17.5062L17.8651 7.16523H9.47202L9.81812 7.59356ZM9.32696 7.80123H7.93999L7.24014 6.95756H8.64238L9.32696 7.80123ZM8.03415 7.59356H8.89433L8.54822 7.16523H7.68041L8.03415 7.59356Z" fill="#757575"/>
</g>
<defs>
<clipPath id="clip0">
<rect width="14" height="15" fill="white" transform="translate(5 4)"/>
</clipPath>
</defs>
</svg>
