<svg width="24" height="24" viewBox="0 0 24 24" fill="none" xmlns="http://www.w3.org/2000/svg">
<rect x="10.5" y="8.5" width="10" height="7" rx="0.5" stroke="#757575"/>
<path d="M11 11H20" stroke="#757575"/>
<path d="M2.5 12H10" stroke="#757575"/>
<path fill-rule="evenodd" clip-rule="evenodd" d="M15.7453 16C14.4804 17.8135 12.3787 19 10 19C6.13401 19 3 15.866 3 12C3 8.13401 6.13401 5 10 5C12.3787 5 14.4804 6.18652 15.7453 8H16.9297C15.5465 5.60879 12.9611 4 10 4C5.58172 4 2 7.58172 2 12C2 16.4183 5.58172 20 10 20C12.9611 20 15.5465 18.3912 16.9297 16H15.7453Z" fill="#757575"/>
<path fill-rule="evenodd" clip-rule="evenodd" d="M12.4197 16C12.278 16.4429 12.1146 16.8485 11.934 17.2096C11.2633 18.5511 10.5217 19 10 19C9.47826 19 8.73671 18.5511 8.066 17.2096C7.4252 15.928 7 14.0876 7 12C7 9.91244 7.4252 8.07196 8.066 6.79036C8.73671 5.44895 9.47826 5 10 5C10.3947 5 10.9099 5.24306 11.4532 5.98918C11.822 6.49568 12.1566 7.17719 12.4197 8H13.4649C12.7733 5.60879 11.4806 4 10 4C7.79086 4 6 7.58172 6 12C6 16.4183 7.79086 20 10 20C11.4806 20 12.7733 18.3912 13.4649 16H12.4197Z" fill="#757575"/>
</svg>
