<svg width="24" height="24" viewBox="0 0 24 24" fill="none" xmlns="http://www.w3.org/2000/svg">
<path d="M7.28414 7.96706C7.92872 5.90441 9.83898 4.5 12 4.5C14.161 4.5 16.0713 5.90441 16.7159 7.96706L18.0885 12.3595C19.1953 15.9011 16.5494 19.5 12.8389 19.5H11.1611C7.45062 19.5 4.80475 15.9011 5.91151 12.3595L7.28414 7.96706Z" stroke="#757575"/>
<path d="M6.00005 12C5.00005 12 3.10005 11.6 3.50005 10C4.00005 8.00002 6.5 4.00002 9 5.50002" stroke="#757575"/>
<path d="M17.9999 12C18.9999 12 20.8999 11.6 20.4999 10C19.9999 8.00002 17.5 4.00002 15 5.50002" stroke="#757575"/>
<path d="M12 19V16" stroke="#757575"/>
<path d="M10.2891 14.2481C10.0986 13.9147 10.3393 13.5 10.7232 13.5H13.2768C13.6607 13.5 13.9014 13.9147 13.7109 14.2481L12.8538 15.7481C12.7648 15.9039 12.5991 16 12.4197 16H11.5803C11.4009 16 11.2352 15.9039 11.1462 15.7481L10.2891 14.2481Z" stroke="#757575"/>
<circle cx="10.5" cy="9.5" r="0.25" stroke="#757575" stroke-width="0.5"/>
<circle cx="13.5" cy="9.5" r="0.25" stroke="#757575" stroke-width="0.5"/>
</svg>
