<svg width="24" height="24" viewBox="0 0 24 24" fill="none" xmlns="http://www.w3.org/2000/svg">
<path d="M22.5578 11.1378H21.8655V9.02688C21.8655 8.10569 21.0886 7.3598 20.1386 7.41201C19.2809 7.46049 18.5963 8.15045 18.5963 8.99331V11.1378H17.6386V9.02688C17.6386 8.10569 16.8617 7.3598 15.9117 7.41201C15.054 7.46049 14.3694 8.15045 14.3694 8.99331V11.1378H8.5232C8.36551 11.1378 8.23474 11.2646 8.23474 11.4175C8.23474 11.5704 8.36551 11.6972 8.5232 11.6972H14.3694V16.1688C13.5924 16.18 13.1809 16.5045 12.8232 16.7917C12.4886 17.0565 12.2001 17.2877 11.6001 17.2877C11.2578 17.2877 11.0194 17.2131 10.8309 17.1124C10.704 17.0453 10.5463 17.0826 10.4617 17.1945C10.3578 17.3287 10.4001 17.5226 10.554 17.6047C10.8078 17.739 11.1386 17.8508 11.6001 17.8508C12.4078 17.8508 12.8232 17.5189 13.1886 17.228C13.5232 16.9632 13.8117 16.732 14.4117 16.732C15.0117 16.732 15.3001 16.9632 15.6347 17.228C16.0001 17.5189 16.4194 17.8508 17.2232 17.8508C18.027 17.8508 18.4463 17.5189 18.8117 17.228C19.1463 16.9632 19.4347 16.732 20.0347 16.732C20.6347 16.732 20.9232 16.9632 21.2578 17.228C21.5732 17.4779 21.9232 17.7576 22.5232 17.8322C22.6963 17.8546 22.8463 17.724 22.8463 17.5562C22.8463 17.4182 22.7386 17.2989 22.5963 17.2802C22.1578 17.2243 21.9078 17.0266 21.6232 16.7991C21.2578 16.5082 20.8386 16.1763 20.0347 16.1763C19.6847 16.1763 19.4078 16.2397 19.177 16.3329H19.1732V11.6972H22.5578C22.7155 11.6972 22.8463 11.5704 22.8463 11.4175C22.8463 11.2646 22.7155 11.1378 22.5578 11.1378ZM14.9424 8.99331C14.9424 8.41897 15.4347 7.95278 16.0309 7.9677C16.6078 7.98262 17.0578 8.45626 17.0578 9.01569V11.134H14.9463V8.99331H14.9424ZM18.5963 14.6808H14.9463V13.3792H18.5963V14.6808ZM18.4424 16.7954C18.1078 17.0602 17.8194 17.2914 17.2194 17.2914C16.6194 17.2914 16.3309 17.0602 15.9963 16.7954C15.7194 16.5754 15.4194 16.3367 14.9424 16.2285V15.2439H18.5924V16.6761C18.5424 16.7171 18.4924 16.7581 18.4424 16.7954ZM18.5963 12.816H14.9463V11.7009H18.5963V12.816ZM19.1732 8.99331C19.1732 8.41897 19.6655 7.95278 20.2617 7.9677C20.8386 7.98262 21.2886 8.45626 21.2886 9.01569V11.134H19.177V8.99331H19.1732Z" fill="#757575"/>
<path d="M17.2193 18C16.3577 18 15.9 17.6345 15.5308 17.3436C15.2077 17.0863 14.95 16.8812 14.4039 16.8812C13.8577 16.8812 13.6039 17.0863 13.277 17.3436C12.9077 17.6345 12.45 18 11.5885 18C11.1693 18 10.8039 17.9142 10.4693 17.7352C10.3577 17.6756 10.2808 17.5749 10.2539 17.4555C10.227 17.3362 10.2539 17.2094 10.327 17.1087C10.4577 16.9334 10.7 16.8812 10.8924 16.9856C11.0962 17.0938 11.3154 17.146 11.5885 17.146C12.1347 17.146 12.3885 16.9408 12.7154 16.6835C13.0539 16.415 13.4693 16.0831 14.2077 16.0346V11.8464H8.51543C8.27312 11.8464 8.07312 11.6524 8.07312 11.4175C8.07312 11.1825 8.27312 10.9886 8.51543 10.9886H14.2077V8.99331C14.2077 8.07586 14.95 7.31504 15.8962 7.26283C16.3885 7.23672 16.8577 7.40082 17.2154 7.72901C17.577 8.06094 17.7885 8.53458 17.7885 9.02315V10.9886H18.4424V8.99331C18.4424 8.07586 19.1847 7.31504 20.1308 7.26283C20.6231 7.23672 21.0924 7.40082 21.45 7.72901C21.8116 8.06094 22.0231 8.53458 22.0231 9.02315V10.9886H22.5616C22.8039 10.9886 23.0039 11.1825 23.0039 11.4175C23.0039 11.6524 22.8039 11.8464 22.5616 11.8464H19.3308V16.1166C19.55 16.0532 19.7808 16.0234 20.0385 16.0234C20.9 16.0234 21.3577 16.3889 21.727 16.6798C22.0077 16.9036 22.2308 17.0788 22.6231 17.1273C22.8424 17.1534 23.0077 17.3362 23.0077 17.5525C23.0077 17.6756 22.9539 17.7949 22.8577 17.8732C22.7616 17.9553 22.6347 17.9926 22.5116 17.9776C21.8654 17.8956 21.4962 17.601 21.1693 17.3399C20.8462 17.0826 20.5885 16.8774 20.0424 16.8774C19.4962 16.8774 19.2424 17.0826 18.9154 17.3399C18.5385 17.6345 18.0808 18 17.2193 18ZM14.4077 16.5828C15.0616 16.5828 15.3847 16.8402 15.727 17.1124C16.0924 17.4033 16.4693 17.7017 17.2193 17.7017C17.9693 17.7017 18.3462 17.4033 18.7116 17.1124C19.0539 16.8402 19.377 16.5828 20.0347 16.5828C20.6924 16.5828 21.0116 16.8402 21.3577 17.1124C21.6693 17.3586 21.9885 17.6122 22.5462 17.683C22.5847 17.6867 22.6231 17.6756 22.65 17.6532C22.6808 17.6271 22.6962 17.5935 22.6962 17.5562C22.6962 17.4891 22.6462 17.4369 22.5808 17.4257C22.1 17.366 21.8231 17.146 21.527 16.911C21.1616 16.6201 20.7847 16.3218 20.0347 16.3218C19.7347 16.3218 19.477 16.3702 19.2385 16.4672L19.1616 16.497L19.0231 16.4075V16.3255V11.548H19.177H22.5616C22.6347 11.548 22.6962 11.4883 22.6962 11.4175C22.6962 11.3466 22.6347 11.2869 22.5616 11.2869H21.7154V11.1378V9.02688C21.7154 8.62036 21.5424 8.22504 21.2385 7.94905C20.9424 7.6768 20.5539 7.53881 20.15 7.56119C19.3654 7.60221 18.7539 8.23249 18.7539 8.99331V11.2869H18.6H17.4885V11.1378V9.02688C17.4885 8.62036 17.3154 8.22504 17.0116 7.94905C16.7154 7.6768 16.327 7.53881 15.9231 7.56119C15.1385 7.60221 14.527 8.23249 14.527 8.99331V11.2869H14.3731H8.52697C8.45389 11.2869 8.39235 11.3466 8.39235 11.4175C8.39235 11.4883 8.45389 11.548 8.52697 11.548H14.527V11.6972V16.3143L14.3731 16.3218C13.6462 16.3329 13.277 16.6276 12.9231 16.911C12.5808 17.1833 12.2577 17.4406 11.6039 17.4406C11.277 17.4406 11.0116 17.3772 10.7616 17.2467C10.7039 17.2168 10.6308 17.2317 10.5924 17.284C10.5693 17.3138 10.5616 17.3548 10.5693 17.3921C10.5731 17.4145 10.5885 17.4518 10.6347 17.4742C10.9231 17.6271 11.2424 17.7017 11.6077 17.7017C12.3577 17.7017 12.7347 17.4033 13.1 17.1124C13.427 16.8402 13.75 16.5828 14.4077 16.5828ZM17.2193 17.4406C16.5654 17.4406 16.2424 17.1833 15.8962 16.911C15.627 16.6947 15.3462 16.4747 14.9077 16.374H14.9039L14.7885 16.3441V16.2285V15.0948H14.9424H18.7462V15.2439V16.7544L18.6847 16.7991C18.6347 16.8364 18.5885 16.8737 18.5385 16.9147L18.5347 16.9185C18.2 17.1833 17.8731 17.4406 17.2193 17.4406ZM15.0962 16.1129C15.5385 16.2397 15.8308 16.4709 16.0924 16.6798C16.4154 16.9371 16.6731 17.1422 17.2193 17.1422C17.7654 17.1422 18.0193 16.9371 18.3462 16.6798L18.35 16.6761C18.3808 16.65 18.4116 16.6276 18.4424 16.6015V15.3857H15.0962V16.1129ZM18.5962 14.83H14.7924V14.6808V13.23H14.9462H18.75V13.3792V14.83H18.5962ZM15.0962 14.5316H18.4424V13.5246H15.0962V14.5316ZM18.5962 12.9652H14.7924V12.816V11.5517H14.9462H18.75V11.7009V12.9652H18.5962ZM15.0962 12.6669H18.4424V11.8464H15.0962V12.6669ZM21.2885 11.2869H19.0231V11.1378V8.99331C19.0231 8.67257 19.1539 8.37422 19.3924 8.15045C19.6308 7.92668 19.9424 7.81106 20.2731 7.81852C20.9231 7.83717 21.45 8.37422 21.45 9.01569V11.2832L21.2885 11.2869ZM19.327 10.9886H21.1347V9.01569C21.1347 8.53458 20.7424 8.12807 20.2577 8.11688C20.0116 8.10942 19.777 8.19893 19.6039 8.36303C19.427 8.53085 19.3308 8.75462 19.3308 8.98958V10.9886H19.327ZM17.0577 11.2869H14.7924V11.1378V8.99331C14.7924 8.67257 14.9231 8.37422 15.1616 8.15045C15.4 7.92668 15.7116 7.81106 16.0424 7.81852C16.6924 7.83717 17.2193 8.37422 17.2193 9.01569V11.2832L17.0577 11.2869ZM15.0962 10.9886H16.9039V9.01569C16.9039 8.53458 16.5116 8.12807 16.027 8.11688C15.7808 8.10942 15.5462 8.19893 15.3731 8.36303C15.1962 8.53085 15.1 8.75462 15.1 8.98958V10.9886H15.0962Z" fill="#757575"/>
<path d="M3.44227 11.1378H6.2115C6.36919 11.1378 6.49996 11.2646 6.49996 11.4175C6.49996 11.5704 6.36919 11.6972 6.2115 11.6972H3.44227C3.28458 11.6972 3.15381 11.5704 3.15381 11.4175C3.15381 11.2646 3.28458 11.1378 3.44227 11.1378Z" fill="#757575"/>
<path d="M6.21154 11.8464H3.44231C3.2 11.8464 3 11.6524 3 11.4175C3 11.1825 3.2 10.9886 3.44231 10.9886H6.21154C6.45385 10.9886 6.65385 11.1825 6.65385 11.4175C6.65385 11.6524 6.45385 11.8464 6.21154 11.8464ZM3.44231 11.2869C3.36923 11.2869 3.30769 11.3466 3.30769 11.4175C3.30769 11.4883 3.36923 11.548 3.44231 11.548H6.21154C6.28462 11.548 6.34615 11.4883 6.34615 11.4175C6.34615 11.3466 6.28462 11.2869 6.21154 11.2869H3.44231Z" fill="#757575"/>
<path d="M5.88859 9.94808L5.20782 9.77279C5.11167 9.74668 5.05782 9.65345 5.0809 9.56394L5.45397 8.21759C5.4732 8.143 5.54628 8.09079 5.62705 8.09079C6.36551 8.09079 7.01551 7.60596 7.20397 6.916L7.9809 4.1077C8.00782 4.01446 7.95013 3.92122 7.85397 3.89885L5.04244 3.16414C4.94628 3.13803 4.85013 3.19397 4.82705 3.28721L4.05013 6.09179V6.09552L4.33474 6.16638L4.43474 6.19248C4.5309 6.21859 4.62705 6.16265 4.65013 6.06941L4.8309 5.40929C4.85782 5.31605 4.95397 5.26384 5.04628 5.28622L6.74628 5.73003C6.84244 5.75613 6.89628 5.84937 6.8732 5.93888L6.65397 6.76682C6.5309 7.21436 6.11167 7.52764 5.63474 7.52764C5.54244 7.52764 5.45013 7.51645 5.36167 7.49407C5.01167 7.40457 4.73859 7.14723 4.62705 6.81904C4.60013 6.73699 4.51936 6.68477 4.4309 6.69969L4.20782 6.73699C4.10397 6.75563 4.03859 6.8526 4.06551 6.9533C4.18474 7.34489 4.45782 7.67682 4.8232 7.87821C4.89244 7.91551 4.9232 7.99755 4.90397 8.07214L4.52705 9.41476C4.50013 9.508 4.40397 9.56021 4.31167 9.53783L3.6309 9.36255C3.53474 9.33644 3.43859 9.39238 3.41551 9.48562L3.35782 9.69447C3.3309 9.78771 3.38859 9.88095 3.48474 9.90332L5.74244 10.4889C5.83859 10.515 5.93474 10.459 5.95782 10.3695L6.01551 10.1607C6.03859 10.0674 5.98474 9.97045 5.88859 9.94808ZM5.0309 4.70442L5.2809 3.80188L7.3232 4.33147L7.07705 5.23773L5.0309 4.70442Z" fill="#757575"/>
<path d="M5.78466 10.6418C5.75774 10.6418 5.72697 10.638 5.70005 10.6306L3.44236 10.0451C3.35774 10.0227 3.28466 9.97046 3.24236 9.89587C3.20005 9.82128 3.18466 9.7355 3.20774 9.65345L3.26543 9.4446C3.31159 9.27305 3.49236 9.17235 3.66928 9.2171L4.35005 9.39239C4.36159 9.39612 4.37313 9.38866 4.37697 9.37747L4.75005 8.03113C4.75389 8.01994 4.75005 8.01248 4.74236 8.00502C4.33851 7.78125 4.0462 7.41949 3.91543 6.9906C3.88851 6.90482 3.90389 6.81158 3.95005 6.73326C4.00005 6.65495 4.08466 6.60273 4.17697 6.58781L4.40005 6.55052C4.56159 6.52441 4.71543 6.61765 4.76928 6.77056C4.86543 7.054 5.10005 7.27031 5.3962 7.34863C5.47313 7.36728 5.55389 7.37847 5.63082 7.37847C6.03851 7.37847 6.3962 7.10994 6.50389 6.72954L6.73082 5.90159C6.73466 5.89413 6.73082 5.88667 6.72697 5.88294C6.72313 5.87921 6.71928 5.87548 6.71159 5.87175L5.01543 5.4354C5.00389 5.43167 4.99236 5.43913 4.98851 5.45032L4.80774 6.11044C4.76159 6.282 4.58082 6.38269 4.40389 6.33794L4.30389 6.31183L3.86543 6.20741L3.91159 6.0545L4.67697 3.24619C4.70005 3.16414 4.75389 3.09328 4.83082 3.05226C4.90774 3.01124 4.9962 2.99632 5.08082 3.01869L7.8962 3.74967C7.98082 3.77205 8.05389 3.82426 8.0962 3.89885C8.13851 3.97344 8.15389 4.05922 8.13082 4.14127L7.35389 6.94958C7.1462 7.70666 6.43466 8.23625 5.62697 8.23625C5.61543 8.23625 5.60389 8.23998 5.60005 8.25117L5.23082 9.59751C5.22697 9.60497 5.23082 9.61243 5.23466 9.61616C5.23851 9.61989 5.24236 9.62362 5.25005 9.62735L5.93082 9.80263C6.10774 9.84739 6.21159 10.0264 6.16543 10.1942L6.10774 10.4031C6.06543 10.5485 5.93082 10.6418 5.78466 10.6418ZM3.58466 9.50427C3.57313 9.50427 3.56543 9.51173 3.56159 9.51919L3.50389 9.72804C3.50005 9.7355 3.50389 9.74296 3.50774 9.74669C3.51159 9.75042 3.51543 9.75415 3.52313 9.75788L5.78082 10.3434C5.79236 10.3471 5.80389 10.3397 5.80774 10.3285L5.86543 10.1196C5.86928 10.1122 5.86543 10.1047 5.86159 10.101C5.85774 10.0973 5.85389 10.0935 5.8462 10.0898L5.16543 9.91452C5.08082 9.89214 5.00774 9.83993 4.96543 9.76534C4.92313 9.69075 4.90774 9.60497 4.93082 9.52292L5.30389 8.17658C5.34236 8.03486 5.47697 7.93789 5.62697 7.93789C6.2962 7.93789 6.88466 7.50154 7.05774 6.87499L7.83466 4.06668C7.83851 4.05549 7.83082 4.0443 7.81928 4.04057L5.00389 3.30587C4.9962 3.30214 4.98851 3.30587 4.98466 3.30959C4.98082 3.31332 4.97697 3.31705 4.97313 3.32451L4.23851 5.98737L4.47697 6.04704C4.48851 6.05077 4.50005 6.04331 4.50389 6.03212L4.68466 5.372C4.73082 5.20045 4.91543 5.09975 5.08851 5.1445L6.78851 5.58831C6.96543 5.63307 7.06928 5.80835 7.02313 5.97991L6.80005 6.80413C6.65774 7.31879 6.17697 7.67683 5.63082 7.67683C5.52313 7.67683 5.41928 7.66191 5.31543 7.6358C4.91543 7.53138 4.60389 7.2442 4.47697 6.86007C4.47313 6.84888 4.46543 6.84142 4.45389 6.84142L4.23082 6.87872C4.22313 6.87872 4.21543 6.88617 4.21543 6.8899C4.21159 6.89736 4.21159 6.90109 4.21159 6.90482C4.31928 7.25912 4.56543 7.55748 4.8962 7.74396C5.02313 7.81482 5.08851 7.964 5.05005 8.10572L4.67697 9.45206C4.63082 9.62362 4.4462 9.72431 4.27313 9.67956L3.59236 9.50427C3.58851 9.50427 3.58466 9.50427 3.58466 9.50427ZM7.18466 5.42049L4.84236 4.80885L5.16928 3.61914L7.51159 4.23078L7.18466 5.42049ZM5.21928 4.6L6.96543 5.055L7.13466 4.44336L5.38851 3.98836L5.21928 4.6Z" fill="#757575"/>
<path d="M11.1385 8.08706C11.15 8.08706 11.1577 8.08706 11.1692 8.08706C11.2346 8.08706 11.2885 8.12809 11.3038 8.18776L11.6923 9.5975C11.7115 9.66836 11.6692 9.74295 11.5962 9.7616L10.8423 9.95926C10.7692 9.97791 10.7231 10.0525 10.7461 10.1234L10.8231 10.4031C10.8423 10.4739 10.9192 10.5187 10.9923 10.4963L13.3269 9.8884C13.4 9.86976 13.4462 9.79517 13.4231 9.72431L13.3462 9.4446C13.3269 9.37373 13.25 9.32898 13.1769 9.35136L12.4231 9.54902C12.35 9.56767 12.2731 9.52664 12.2538 9.45578L11.8654 8.04604C11.85 7.98637 11.8769 7.92296 11.9346 7.89313C12.4462 7.61715 12.7769 7.09129 12.7769 6.50576C12.7769 6.49084 12.7769 6.47965 12.7769 6.46473C12.7731 6.38642 12.7038 6.32301 12.6231 6.3342L12.3231 6.36777C12.2538 6.37523 12.2 6.4349 12.2 6.50203C12.2 6.96449 11.8769 7.371 11.4154 7.49034C11.3269 7.51272 11.2346 7.52391 11.1423 7.52391C10.6654 7.52391 10.2461 7.21063 10.1231 6.76309L9.88461 5.90158C9.86538 5.83072 9.90769 5.75613 9.98076 5.73748L11.7577 5.27503C11.8308 5.25638 11.9077 5.29741 11.9269 5.36827L12.0308 5.74121C12.05 5.81207 12.1269 5.85683 12.2 5.83445L12.4885 5.75986C12.5615 5.74121 12.6077 5.66662 12.5846 5.59576L11.9308 3.24992C11.9115 3.17906 11.8346 3.1343 11.7615 3.15668L8.86923 3.90631C8.79615 3.92495 8.74999 3.99954 8.77307 4.0704L9.55769 6.91227C9.75 7.60223 10.4 8.08706 11.1385 8.08706ZM11.5231 3.93241L11.7 4.57388C11.7192 4.64474 11.6769 4.71933 11.6038 4.73798L9.82692 5.20044C9.75384 5.21909 9.67692 5.17806 9.65769 5.1072L9.48076 4.46573C9.46153 4.39487 9.50384 4.32028 9.57692 4.30163L11.3538 3.83918C11.4269 3.82053 11.5038 3.86155 11.5231 3.93241Z" fill="#757575"/>
<path d="M10.9577 10.6492C10.8269 10.6492 10.7115 10.5671 10.6769 10.4403L10.6 10.1606C10.5807 10.086 10.5884 10.0114 10.6307 9.94432C10.673 9.87719 10.7346 9.83243 10.8077 9.81379L11.5461 9.61985L11.1654 8.23621C10.35 8.2474 9.6269 7.71408 9.41536 6.94954L8.63074 4.10767C8.58843 3.95849 8.68074 3.80185 8.83843 3.76083L11.7307 3.0112C11.8077 2.99255 11.8846 3.00001 11.9538 3.04104C12.023 3.07833 12.0692 3.14173 12.0884 3.21259L12.7307 5.56217C12.75 5.63676 12.7423 5.71135 12.7 5.77848C12.6615 5.84561 12.5961 5.89036 12.523 5.90901L12.2346 5.9836C12.1577 6.00225 12.0807 5.99479 12.0115 5.95377C11.9423 5.91647 11.8961 5.85307 11.8769 5.78221L11.7769 5.42418L10.0307 5.87918L10.2654 6.72577C10.373 7.10991 10.7307 7.3747 11.1384 7.3747C11.2154 7.3747 11.2961 7.36351 11.373 7.34487C11.7692 7.24044 12.0423 6.8936 12.0423 6.49827C12.0423 6.35282 12.1538 6.22975 12.3 6.21483L12.6 6.18126C12.6807 6.17008 12.7654 6.19618 12.8269 6.2484C12.8884 6.30061 12.9269 6.3752 12.9269 6.45725C12.9269 6.47216 12.9269 6.48708 12.9269 6.502C12.9269 7.12855 12.5769 7.70663 12.0154 8.01244L12.4 9.39608L13.1384 9.20215C13.2154 9.1835 13.2923 9.19096 13.3615 9.23199C13.4307 9.26928 13.4769 9.33268 13.4961 9.40354L13.573 9.68325C13.6154 9.83243 13.523 9.98907 13.3654 10.0301L11.0307 10.638C11.0077 10.6492 10.9807 10.6492 10.9577 10.6492ZM10.8961 10.0972L10.9654 10.3508L13.2692 9.75412L13.2 9.50051L12.4615 9.69444C12.3077 9.73547 12.1461 9.64596 12.1038 9.49305L11.7154 8.0833C11.6807 7.9565 11.7384 7.82597 11.8577 7.76257C12.3307 7.50896 12.623 7.02786 12.623 6.50573C12.623 6.49827 12.623 6.49081 12.623 6.48335L12.3538 6.51319C12.35 7.03905 11.9807 7.5015 11.4538 7.63949C11.35 7.6656 11.2461 7.68052 11.1384 7.68052C10.5923 7.68052 10.1115 7.32249 9.9692 6.80782L9.73074 5.94258C9.68843 5.7934 9.78074 5.63676 9.93843 5.59574L11.7154 5.13328C11.7923 5.11463 11.8692 5.12209 11.9384 5.16311C12.0077 5.20041 12.0538 5.26381 12.073 5.33467L12.173 5.6927L12.4346 5.62557L11.7884 3.3021L8.9269 4.04427L9.70766 6.87122C9.88074 7.49777 10.4692 7.93412 11.1384 7.93412C11.1461 7.93412 11.1577 7.93412 11.1654 7.93412C11.3 7.9304 11.4192 8.01617 11.4538 8.14298L11.8423 9.55272C11.8846 9.7019 11.7923 9.85854 11.6346 9.89957L10.8961 10.0972ZM9.79228 5.35332C9.66151 5.35332 9.54613 5.27127 9.51151 5.14447L9.33459 4.50299C9.31536 4.42841 9.32305 4.35382 9.36536 4.28668C9.40382 4.21955 9.4692 4.1748 9.54228 4.15615L11.3192 3.6937C11.3961 3.67505 11.473 3.68251 11.5423 3.72353C11.6115 3.76083 11.6577 3.82423 11.6769 3.89509L11.8538 4.53656C11.8961 4.68574 11.8038 4.84238 11.6461 4.8834L9.8692 5.34586C9.84228 5.35332 9.81536 5.35332 9.79228 5.35332ZM9.63459 4.43959L9.80382 5.05123L11.55 4.59623L11.3807 3.9846L9.63459 4.43959Z" fill="#757575"/>
</svg>
