<svg width="24" height="24" viewBox="0 0 24 24" fill="none" xmlns="http://www.w3.org/2000/svg">
<path d="M6.5955 8.97413C7.07607 6.42683 9.31302 4.5 12 4.5C14.6663 4.5 16.8894 6.39721 17.3931 8.9153C16.8535 8.62398 16.3047 8.51569 15.7672 8.56455C15.0962 8.62555 14.497 8.92661 14.0014 9.32673C13.271 8.72862 12.5084 8.49717 11.7672 8.56455C11.0951 8.62566 10.4949 8.92766 9.99884 9.32882C9.18568 8.68161 8.33122 8.53252 7.56966 8.6565C7.21427 8.71435 6.88579 8.83022 6.5955 8.97413Z" stroke="#757575"/>
<path d="M6.5 9.5L11 17.5" stroke="#757575"/>
<path d="M10 9.5L11.5 17" stroke="#757575"/>
<path d="M17.5 9.5L13 17.5" stroke="#757575"/>
<path d="M14 9.5L12.5 17" stroke="#757575"/>
<path d="M10.5 17H13.5" stroke="#757575"/>
<circle cx="12" cy="19" r="1" fill="#757575"/>
</svg>
