<svg width="24" height="24" viewBox="0 0 24 24" fill="none" xmlns="http://www.w3.org/2000/svg">
<path d="M12.1892 15.7532L11.8684 15.6421C12.5678 14.9555 12.9624 14.0075 12.9624 13.0136V9.88822C12.9624 7.84169 11.3263 6.17438 9.31803 6.17438C7.30978 6.17438 5.67367 7.84169 5.67367 9.88822V12.873C5.67367 13.9061 6.11317 14.9 6.86065 15.5865L6.38586 15.7532C5.63196 16.018 5.1283 16.7405 5.1283 17.548V19.2513C5.1283 19.5913 5.40098 19.8692 5.73462 19.8692H12.8405C13.1741 19.8692 13.4468 19.5913 13.4468 19.2513V18.9048C13.4468 18.7707 13.3377 18.6596 13.2062 18.6596C13.0747 18.6596 12.9656 18.7707 12.9656 18.9048V19.2513C12.9656 19.32 12.9111 19.3788 12.8405 19.3788H9.52655V16.7144L9.55543 16.6751L9.67733 16.8059C9.86661 17.0119 10.1297 17.1296 10.4088 17.1296C10.428 17.1296 10.4473 17.1296 10.4665 17.1263C10.7649 17.11 11.0376 16.9596 11.214 16.7144L11.6727 16.0867L12.0353 16.2142C12.5935 16.4103 12.9656 16.9465 12.9656 17.5448V17.9175C12.9656 18.0515 13.0747 18.1626 13.2062 18.1626C13.3377 18.1626 13.4468 18.0515 13.4468 17.9175V17.548C13.4468 16.7405 12.9399 16.018 12.1892 15.7532ZM6.15488 12.873V9.88822C6.15488 8.10976 7.57284 6.66476 9.31803 6.66476C11.0632 6.66476 12.4812 8.10976 12.4812 9.88822V13.0136C12.4812 13.929 12.0898 14.8019 11.4129 15.4001L11.3487 15.4557L10.4601 15.1419V14.2625C11.4161 13.7623 12.0321 12.7553 12.0321 11.6373V10.274C12.0321 10.14 11.9807 10.0157 11.8877 9.92419C11.7947 9.83265 11.6695 9.78034 11.5412 9.78361L10.4473 9.80322L10.1104 9.24419C10.0431 9.13303 9.92115 9.06765 9.79282 9.07745C9.6645 9.08726 9.55222 9.16572 9.50089 9.28669L9.29237 9.7738H8.79191C8.66038 9.7738 8.5513 9.88495 8.5513 10.019C8.5513 10.153 8.66038 10.2642 8.79191 10.2642H9.44956C9.5458 10.2642 9.63242 10.2053 9.67092 10.1171L9.84094 9.72476L10.1136 10.1759C10.1585 10.2478 10.2355 10.2936 10.3189 10.2936H10.3222L11.5541 10.274V11.6373C11.5541 12.6148 10.9894 13.4876 10.1297 13.88C10.1265 13.88 10.1265 13.88 10.1265 13.8832C10.0559 13.9159 9.98531 13.9453 9.90831 13.9682L9.61317 14.0696C9.41427 14.1382 9.19612 14.1382 9.00043 14.0696L8.72775 13.9748C7.74929 13.6348 7.09163 12.6998 7.09163 11.6438V10.2642H7.82949C7.96102 10.2642 8.07009 10.153 8.07009 10.019C8.07009 9.88495 7.96102 9.7738 7.82949 9.7738H7.09163C6.82536 9.7738 6.61042 9.99284 6.61042 10.2642V11.6438C6.61042 12.7357 7.20071 13.723 8.11821 14.233V15.1386L7.3964 15.3936L7.38998 15.3903C6.61684 14.8019 6.15488 13.8571 6.15488 12.873ZM7.49906 15.8807L8.22087 15.6257L8.71812 16.2796L8.54489 16.4692C8.43902 16.5836 8.29145 16.6457 8.13746 16.6359C7.98347 16.6261 7.84232 16.5509 7.74929 16.4234L7.38357 15.9232C7.42527 15.92 7.46377 15.9069 7.49906 15.8807ZM9.28595 16.2273L8.59622 15.3184V14.4521L8.84324 14.5371C8.99402 14.5894 9.15121 14.6155 9.3052 14.6155C9.45918 14.6155 9.61638 14.5894 9.76395 14.5403L9.97889 14.4684V15.3217L9.28595 16.2273ZM5.73462 19.3788C5.66725 19.3788 5.60951 19.3232 5.60951 19.2513V17.548C5.60951 16.9465 5.98485 16.4136 6.53984 16.2175L6.90236 16.09L7.36111 16.7176C7.53755 16.9596 7.81024 17.11 8.10859 17.1296C8.12784 17.1296 8.14709 17.1328 8.16633 17.1328C8.44223 17.1328 8.70529 17.0184 8.89777 16.8092L9.01968 16.6784L9.04855 16.7176V19.3788H5.73462ZM10.8258 16.4267C10.7328 16.5542 10.5916 16.6294 10.4376 16.6392C10.2837 16.649 10.1361 16.5869 10.0302 16.4725L9.85698 16.2828L10.3542 15.629L11.1947 15.9232L10.8258 16.4267Z" fill="#757575"/>
<path d="M12.8405 20H5.73465C5.33043 20 5 19.6633 5 19.2513V17.5481C5 16.6817 5.53896 15.9102 6.34097 15.629L6.61687 15.531C5.93355 14.8248 5.54537 13.8669 5.54537 12.8731V9.88826C5.54537 7.76653 7.23923 6.04364 9.31806 6.04364C11.4001 6.04364 13.0907 7.7698 13.0907 9.88826V13.0136C13.0907 13.965 12.7314 14.8902 12.0994 15.5865L12.2278 15.6323C13.0298 15.9135 13.5687 16.685 13.5687 17.5513V17.924C13.5687 18.13 13.4019 18.3 13.1998 18.3C12.9977 18.3 12.8309 18.13 12.8309 17.924V17.5481C12.8309 17.0021 12.4908 16.5183 11.9872 16.3417L11.7113 16.2436L11.3135 16.7961C11.1146 17.0708 10.8066 17.2408 10.4698 17.2604C10.4473 17.2604 10.4248 17.2636 10.4056 17.2636C10.1297 17.2636 9.86022 17.159 9.6549 16.9727V19.2481H12.8341V18.9048C12.8341 18.6988 13.0009 18.5288 13.203 18.5288C13.4051 18.5288 13.572 18.6988 13.572 18.9048V19.2513C13.5752 19.6633 13.2447 20 12.8405 20ZM9.31806 6.30518C7.38038 6.30518 5.80202 7.91364 5.80202 9.88826V12.8731C5.80202 13.8669 6.21906 14.8215 6.9473 15.4885L7.1077 15.6356L6.42438 15.8742C5.72823 16.1227 5.25665 16.7961 5.25665 17.5481V19.2513C5.25665 19.5194 5.47159 19.7385 5.73465 19.7385H12.8405C13.1036 19.7385 13.3185 19.5194 13.3185 19.2513V18.9048C13.3185 18.8427 13.2672 18.7904 13.2062 18.7904C13.1453 18.7904 13.094 18.8427 13.094 18.9048V19.2513C13.094 19.3919 12.9817 19.5096 12.8405 19.5096H9.39826V16.6686L9.54583 16.4725L9.77039 16.7144C9.94684 16.9073 10.2003 17.0086 10.4569 16.9956C10.7168 16.9792 10.9542 16.8517 11.1082 16.6392L11.6214 15.9331L12.0738 16.0933C12.6833 16.3058 13.0907 16.891 13.0907 17.5481V17.9208C13.0907 17.9829 13.1421 18.0352 13.203 18.0352C13.264 18.0352 13.3153 17.9829 13.3153 17.9208V17.5481C13.3153 16.7929 12.8437 16.1227 12.1444 15.8775L11.6247 15.6944L11.7754 15.5473C12.4459 14.8869 12.8309 13.965 12.8309 13.0136V9.88826C12.8341 7.91364 11.2589 6.30518 9.31806 6.30518ZM9.17369 19.5096H5.73465C5.5967 19.5096 5.48121 19.3952 5.48121 19.2513V17.5481C5.48121 16.891 5.89184 16.3058 6.49817 16.0933L6.9505 15.9331L7.46379 16.6392C7.61778 16.8517 7.85518 16.9825 8.11503 16.9956C8.13107 16.9956 8.14711 16.9956 8.16636 16.9956C8.40697 16.9956 8.63795 16.8942 8.80156 16.7144L9.02612 16.4725L9.17369 16.6686V19.5096ZM5.73786 19.2481H8.91705V16.9694C8.69569 17.1721 8.40055 17.2767 8.1022 17.2604C7.76856 17.2408 7.46059 17.0708 7.25848 16.7961L6.85747 16.2436L6.58158 16.3417C6.07791 16.5183 5.73786 17.0054 5.73786 17.5481V19.2481ZM10.4056 16.77C10.2259 16.77 10.0559 16.6948 9.93401 16.5608L9.68698 16.2894L10.3061 15.4721L11.3969 15.8546L10.9285 16.5019C10.813 16.6588 10.6366 16.7569 10.4441 16.7667C10.4313 16.77 10.4184 16.77 10.4056 16.77ZM10.0238 16.2731L10.1233 16.381C10.2035 16.466 10.3158 16.515 10.4313 16.5052C10.5467 16.4986 10.6526 16.4398 10.7232 16.345L10.9863 15.9854L10.3992 15.7794L10.0238 16.2731ZM8.16636 16.77C8.15353 16.77 8.1407 16.77 8.12786 16.77C7.93538 16.7602 7.75894 16.6621 7.64345 16.5052L7.14299 15.8186L7.36755 15.7958C7.3868 15.7925 7.40605 15.786 7.42209 15.7761L7.43813 15.7663L8.26581 15.4754L8.88497 16.2927L8.63795 16.564C8.51604 16.6948 8.34601 16.77 8.16636 16.77ZM7.58891 15.9886L7.85197 16.3483C7.92255 16.4431 8.02841 16.5019 8.1439 16.5085C8.25939 16.515 8.37168 16.4692 8.45188 16.3842L8.55133 16.2763L8.17599 15.7827L7.58891 15.9886ZM9.28598 16.4431L8.46792 15.3642V14.269L8.88176 14.4129C9.15124 14.5077 9.4528 14.5077 9.72227 14.4129L10.104 14.2821V15.361L9.28598 16.4431ZM8.72456 15.2727L9.28598 16.0148L9.84739 15.2727V14.645L9.80247 14.6613C9.48167 14.7725 9.12236 14.7725 8.79835 14.6581L8.72136 14.6319V15.2727H8.72456ZM11.3776 15.6061L10.3318 15.24V14.1873L10.4024 14.1513C11.3295 13.6675 11.907 12.7063 11.907 11.6438V10.2806C11.907 10.1825 11.8685 10.091 11.8011 10.0223C11.7337 9.95364 11.6439 9.91768 11.5477 9.91768L10.3799 9.9373L10.0046 9.31614C9.96288 9.24422 9.88588 9.20499 9.80568 9.21153C9.72548 9.21807 9.6549 9.2671 9.62282 9.3423L9.37901 9.90787H8.79514C8.73419 9.90787 8.68286 9.96018 8.68286 10.0223C8.68286 10.0844 8.73419 10.1367 8.79514 10.1367H9.4528C9.49771 10.1367 9.53941 10.1106 9.55545 10.0681L9.82172 9.44691L10.2227 10.1106C10.242 10.1433 10.2805 10.1661 10.319 10.1661H10.3222L11.6824 10.1433V11.6406C11.6824 12.6606 11.0921 13.5858 10.181 14.0042C10.1778 14.0042 10.1778 14.0075 10.1746 14.0075C10.0976 14.0435 10.0238 14.0729 9.94684 14.099L9.6517 14.2004C9.42713 14.2756 9.18011 14.2756 8.95555 14.2004L8.68286 14.1056C7.64986 13.7492 6.95692 12.7619 6.95692 11.6536V10.1433H7.8231C7.88405 10.1433 7.93538 10.091 7.93538 10.0288C7.93538 9.96672 7.88405 9.91441 7.8231 9.91441H7.08524C6.88955 9.91441 6.73236 10.0746 6.73236 10.274V11.6536C6.73236 12.6867 7.28414 13.6348 8.17599 14.1285L8.24335 14.1644V15.2433L7.37076 15.5506L7.30981 15.5015C6.50779 14.8836 6.02658 13.9029 6.02658 12.8763V9.89153C6.02658 8.04114 7.50229 6.53729 9.31806 6.53729C11.1338 6.53729 12.6095 8.04114 12.6095 9.89153V13.0169C12.6095 13.9715 12.2021 14.8771 11.4963 15.5048L11.3776 15.6061ZM10.5885 15.0536L11.3199 15.3119L11.3295 15.3054C11.9808 14.73 12.3561 13.8963 12.3561 13.0169V9.89153C12.3561 8.18499 10.9959 6.79883 9.32126 6.79883C7.64665 6.79883 6.28643 8.18499 6.28643 9.89153V12.8731C6.28643 13.7983 6.7099 14.681 7.41888 15.2531L7.98671 15.0536V14.3148C7.05316 13.7656 6.47892 12.7521 6.47892 11.6471V10.2675C6.47892 9.92422 6.7516 9.64634 7.08845 9.64634H7.82631C8.02841 9.64634 8.19523 9.81634 8.19523 10.0223C8.19523 10.2283 8.02841 10.3983 7.82631 10.3983H7.21677V11.6471C7.21677 12.6442 7.83914 13.5302 8.76627 13.8538L9.03895 13.9486C9.20898 14.0075 9.39826 14.0075 9.57149 13.9486L9.86664 13.8473C9.93401 13.8244 10.0046 13.7983 10.072 13.7656L10.0752 13.7623C10.8932 13.3863 11.4258 12.5527 11.4258 11.6373V10.4081L10.319 10.4277C10.1907 10.4277 10.072 10.359 10.0046 10.2479L9.86022 10.0092L9.78964 10.1727C9.7319 10.31 9.59716 10.3983 9.4528 10.3983H8.79514C8.59303 10.3983 8.42621 10.2283 8.42621 10.0223C8.42621 9.81634 8.59303 9.64634 8.79514 9.64634H9.21219L9.38863 9.23768C9.45921 9.07095 9.6132 8.96307 9.78964 8.94999C9.96609 8.93691 10.1329 9.02518 10.2259 9.17883L10.5243 9.67249L11.5445 9.65614C11.7113 9.65614 11.8653 9.71826 11.984 9.83595C12.1027 9.95364 12.1668 10.1106 12.1668 10.2806V11.6438C12.1668 12.7783 11.5669 13.8081 10.5949 14.3475V15.0536H10.5885Z" fill="#757575"/>
<path d="M14.5857 3.13074C13.0106 3.13074 11.5669 4.00689 10.8162 5.4192C10.7521 5.53689 10.797 5.68727 10.9125 5.75266C11.028 5.81804 11.1755 5.77227 11.2397 5.65458C11.9038 4.3992 13.187 3.62112 14.5857 3.62112C16.6838 3.62112 18.3905 5.36035 18.3905 7.49843C18.3905 9.6365 16.6838 11.3757 14.5857 11.3757C14.5568 11.3757 14.5248 11.3757 14.4959 11.3757C14.3644 11.3725 14.2521 11.4803 14.2489 11.6144C14.2457 11.7484 14.3515 11.8628 14.4831 11.8661C14.5183 11.8661 14.5504 11.8661 14.5857 11.8661C16.9501 11.8661 18.8717 9.90785 18.8717 7.49843C18.8717 5.08901 16.9501 3.13074 14.5857 3.13074Z" fill="#757575"/>
<path d="M14.5857 12.0002C14.5505 12.0002 14.5152 12.0002 14.4799 12.0002C14.2746 11.9937 14.1142 11.8237 14.1206 11.6144C14.1238 11.4117 14.2906 11.2483 14.4895 11.2483C14.4927 11.2483 14.4927 11.2483 14.4959 11.2483C14.5248 11.2483 14.5537 11.2483 14.5857 11.2483C16.6132 11.2483 18.2622 9.56788 18.2622 7.50173C18.2622 5.43231 16.6132 3.75192 14.5857 3.75192C13.2351 3.75192 11.9968 4.50385 11.352 5.71673C11.3039 5.805 11.2269 5.87038 11.1339 5.89654C11.0408 5.92596 10.9382 5.91288 10.8516 5.86712C10.6719 5.76904 10.6045 5.54019 10.704 5.35712C11.4739 3.90231 12.9625 3 14.5857 3C17.0207 3 19 5.01712 19 7.49846C19 9.97981 17.0207 12.0002 14.5857 12.0002ZM14.4895 11.5065C14.4286 11.5065 14.3772 11.5556 14.3772 11.6177C14.3772 11.6798 14.4253 11.7321 14.4863 11.7354C14.5184 11.7354 14.5505 11.7354 14.5857 11.7354C16.8795 11.7354 18.7434 9.83269 18.7434 7.49846C18.7434 5.16423 16.8795 3.26154 14.5857 3.26154C13.0587 3.26154 11.6568 4.11154 10.9286 5.48135C10.9157 5.5075 10.9125 5.54019 10.9189 5.56962C10.9286 5.59904 10.9478 5.62192 10.9735 5.63827C10.9991 5.65135 11.0312 5.65462 11.0601 5.64808C11.089 5.63827 11.1114 5.61865 11.1275 5.5925C11.814 4.29462 13.1389 3.49038 14.5857 3.49038C16.7544 3.49038 18.5188 5.28846 18.5188 7.49846C18.5188 9.70846 16.7544 11.5065 14.5857 11.5065C14.5537 11.5065 14.5216 11.5065 14.4895 11.5065C14.4927 11.5065 14.4895 11.5065 14.4895 11.5065Z" fill="#757575"/>
<path d="M14.4831 10.8854C14.5184 10.8854 14.5505 10.8886 14.5858 10.8886C16.4176 10.8886 17.9093 9.36843 17.9093 7.5017C17.9093 5.6317 16.4176 4.11151 14.5858 4.11151C13.5111 4.11151 12.4973 4.6444 11.8749 5.54016C11.798 5.65132 11.8236 5.80497 11.9327 5.88343C12.0418 5.9619 12.1925 5.93574 12.2695 5.82459C12.7989 5.05959 13.665 4.6019 14.5858 4.6019C16.1513 4.6019 17.4281 5.89978 17.4281 7.49843C17.4281 9.09382 16.1545 10.395 14.5858 10.395C14.5569 10.395 14.5248 10.395 14.4959 10.395C14.3644 10.3884 14.2521 10.4963 14.2489 10.6336C14.2457 10.7709 14.3484 10.8821 14.4831 10.8854Z" fill="#757575"/>
<path d="M14.5857 11.0162C14.5504 11.0162 14.5151 11.0162 14.4766 11.0129C14.3772 11.0096 14.2874 10.9671 14.22 10.8952C14.1526 10.8233 14.1173 10.7252 14.1205 10.6271C14.1238 10.5258 14.1655 10.431 14.2392 10.3623C14.3098 10.2937 14.4061 10.2577 14.5023 10.261C14.528 10.261 14.5568 10.261 14.5857 10.261C16.0807 10.261 17.2997 9.02193 17.2997 7.4952C17.2997 5.97174 16.0839 4.72943 14.5857 4.72943C13.7067 4.72943 12.879 5.16424 12.3721 5.89654C12.3144 5.97827 12.231 6.03385 12.1315 6.0502C12.0353 6.06654 11.9359 6.04366 11.8557 5.98481C11.7754 5.92597 11.7209 5.84097 11.7049 5.73962C11.6888 5.64154 11.7113 5.5402 11.769 5.45847C12.4171 4.53654 13.4693 3.98077 14.5857 3.98077C16.4881 3.98077 18.0376 5.55981 18.0376 7.49847C18.0376 9.44039 16.4881 11.0162 14.5857 11.0162ZM14.4895 10.5258C14.4606 10.5258 14.4349 10.5356 14.4125 10.5552C14.39 10.5748 14.3772 10.6042 14.3772 10.6369C14.3772 10.6664 14.3868 10.6958 14.4093 10.7187C14.4285 10.7415 14.4574 10.7546 14.4863 10.7546C14.5183 10.7546 14.5536 10.7579 14.5857 10.7579C16.3469 10.7579 17.7809 9.29654 17.7809 7.50174C17.7809 5.70693 16.3469 4.24558 14.5857 4.24558C13.5527 4.24558 12.5775 4.75885 11.9776 5.61866C11.9615 5.64481 11.9519 5.67424 11.9583 5.70366C11.9647 5.73308 11.9808 5.75924 12.0032 5.77885C12.0546 5.81481 12.1251 5.80174 12.1604 5.7527C12.7186 4.94847 13.6233 4.47116 14.5857 4.47116C16.225 4.47116 17.5564 5.82789 17.5564 7.49847C17.5564 9.16904 16.225 10.5258 14.5857 10.5258C14.5536 10.5258 14.5248 10.5258 14.4927 10.5258H14.4895Z" fill="#757575"/>
<path d="M13.0298 7.57694C12.9496 7.61944 12.8983 7.70444 12.8983 7.79598V8.54791C12.8983 8.68194 13.0074 8.7931 13.1389 8.7931H14.2617C14.3933 8.7931 14.5023 8.68194 14.5023 8.54791C14.5023 8.41387 14.3933 8.30271 14.2617 8.30271H13.3795V7.94637L14.374 7.42656C14.4542 7.38406 14.5056 7.29906 14.5056 7.20752V6.12868C14.5056 5.99464 14.3965 5.88348 14.2649 5.88348H13.1421C13.0106 5.88348 12.9015 5.99464 12.9015 6.12868V6.61906C12.9015 6.7531 13.0106 6.86425 13.1421 6.86425C13.2737 6.86425 13.3827 6.7531 13.3827 6.61906V6.37387H14.0243V7.05387L13.0298 7.57694Z" fill="#757575"/>
<path d="M14.9386 5.88019C14.8071 5.88019 14.698 5.99134 14.698 6.12538V7.36769C14.698 7.50173 14.8071 7.61288 14.9386 7.61288H15.7246V8.61C15.7246 8.74404 15.8337 8.85519 15.9652 8.85519C16.0967 8.85519 16.2058 8.74404 16.2058 8.61V7.61288H16.3822C16.5138 7.61288 16.6228 7.50173 16.6228 7.36769C16.6228 7.23365 16.5138 7.1225 16.3822 7.1225H16.2058V6.12538C16.2058 5.99134 16.0967 5.88019 15.9652 5.88019C15.8337 5.88019 15.7246 5.99134 15.7246 6.12538V7.1225H15.1792V6.12538C15.1792 5.98807 15.0701 5.88019 14.9386 5.88019Z" fill="#757575"/>
</svg>
