<svg width="24" height="24" viewBox="0 0 24 24" fill="none" xmlns="http://www.w3.org/2000/svg">
<rect x="4.5" y="6.5" width="15" height="10" rx="1.5" stroke="#757575"/>
<path d="M7 11.5158C7 12.3143 7.6329 12.9649 8.40965 12.9649L10.3659 12.9649C10.5097 12.9649 10.6536 13.0241 10.7687 13.1424C11.2289 13.6747 11.8906 14 12.5811 14C13.2427 14 13.8756 13.7338 14.3359 13.2311C14.7962 12.7283 15.0264 12.1073 14.9976 11.3975C14.9401 10.1258 13.9332 9.06117 12.6961 9.00202C11.9482 8.97245 11.2289 9.26818 10.7399 9.85966C10.6248 9.97796 10.5097 10.0371 10.3659 10.0371L8.40965 10.0371C7.6329 10.0667 7 10.7173 7 11.5158ZM12.6386 9.97796C13.4153 10.0075 14.0195 10.6582 14.0482 11.4566C14.0482 11.4862 14.0482 11.4862 14.0482 11.5158C14.0482 11.9298 13.9044 12.2847 13.6167 12.5805C13.329 12.8762 12.955 13.0536 12.5523 13.0536C12.1208 13.0536 11.718 12.8762 11.4303 12.5213C11.1426 12.196 10.7399 12.0186 10.3371 12.0186L8.38088 12.0186C8.12197 12.0186 7.89182 11.8115 7.89182 11.5158C7.89182 11.2496 8.0932 11.013 8.38088 11.013L10.3371 11.013C10.7399 11.013 11.1426 10.8356 11.4303 10.4807C11.7468 10.1258 12.1783 9.94838 12.6386 9.97796Z" fill="#757575"/>
<path d="M12.3125 11.042C12.125 11.1354 12 11.3223 12 11.5402C12 11.7582 12.1562 11.9139 12.3437 11.9761C12.5312 12.0384 12.7812 11.9761 12.9062 11.8205C13.0312 11.6336 13.0312 11.3845 12.9062 11.2289C12.7812 11.0109 12.5313 10.9486 12.3125 11.042Z" fill="#757575"/>
<path d="M17 9V14" stroke="#757575" stroke-linecap="round"/>
<rect x="6" y="17" width="3" height="1" fill="#757575"/>
<rect x="15" y="17" width="3" height="1" fill="#757575"/>
</svg>
