<svg width="24" height="24" viewBox="0 0 24 24" fill="none" xmlns="http://www.w3.org/2000/svg">
<line x1="4.5" y1="18.5" x2="19.5" y2="18.5" stroke="#757575" stroke-linecap="round"/>
<path d="M4 9C4.66667 10 6.4 11.4 8 9" stroke="#757575" stroke-linecap="round"/>
<path d="M8 9C8.66667 10 10.4 11.4 12 9" stroke="#757575" stroke-linecap="round"/>
<path d="M12 9C12.6667 10 14.4 11.4 16 9" stroke="#757575" stroke-linecap="round"/>
<path d="M16 9C16.6667 10 18.4 11.4 20 9" stroke="#757575" stroke-linecap="round"/>
<path d="M4 8.5L6.25 5.5H17.75L20 8.5H4Z" stroke="#757575"/>
<line x1="5.5" y1="18" x2="5.5" y2="10" stroke="#757575"/>
<line x1="18.5" y1="18" x2="18.5" y2="10" stroke="#757575"/>
<rect x="7.5" y="13.5" width="4" height="3" rx="0.5" stroke="#757575"/>
<rect x="13.5" y="12.5" width="3" height="6" rx="0.5" stroke="#757575"/>
</svg>
