<svg width="24" height="24" viewBox="0 0 24 24" fill="none" xmlns="http://www.w3.org/2000/svg">
<path d="M20.9093 5.3526H19.9977C19.9609 5.16513 19.8837 4.99236 19.7808 4.83797L20.4278 4.191C20.5417 4.07705 20.5417 3.88958 20.4278 3.77562C20.3138 3.66167 20.1263 3.66167 20.0124 3.77562L19.3654 4.42259C19.211 4.31966 19.0383 4.24614 18.8508 4.20571V3.29407C18.8508 3.13233 18.7184 3 18.5567 3C18.395 3 18.2626 3.13233 18.2626 3.29407V4.20571C18.0752 4.24247 17.9024 4.31966 17.748 4.42259L17.101 3.77562C16.9871 3.66167 16.7996 3.66167 16.6857 3.77562C16.5717 3.88958 16.5717 4.07705 16.6857 4.191L17.3326 4.83797C17.2297 4.99236 17.1562 5.16513 17.1157 5.3526H16.2041C16.0424 5.3526 15.91 5.48493 15.91 5.64667C15.91 5.80842 16.0424 5.94075 16.2041 5.94075H17.1157C17.1525 6.12822 17.2297 6.30099 17.3326 6.45538L16.6857 7.10234C16.5717 7.2163 16.5717 7.40377 16.6857 7.51773C16.7445 7.57654 16.818 7.60227 16.8952 7.60227C16.9724 7.60227 17.0459 7.57287 17.1047 7.51773L17.7517 6.87076C17.9061 6.97369 18.0788 7.04721 18.2663 7.08764V7.99927C18.2663 8.16102 18.3986 8.29335 18.5604 8.29335C18.7221 8.29335 18.8545 8.16102 18.8545 7.99927V7.08764C19.0419 7.05088 19.2147 6.97369 19.3691 6.87076L20.0161 7.51773C20.0749 7.57654 20.1484 7.60227 20.2256 7.60227C20.3028 7.60227 20.3763 7.57287 20.4351 7.51773C20.5491 7.40377 20.5491 7.2163 20.4351 7.10234L19.7808 6.45538C19.8837 6.30099 19.9572 6.12822 19.9977 5.94075H20.9093C21.071 5.94075 21.2034 5.80842 21.2034 5.64667C21.2034 5.48493 21.071 5.3526 20.9093 5.3526ZM18.5567 6.5289C18.0715 6.5289 17.6745 6.1319 17.6745 5.64667C17.6745 5.16145 18.0715 4.76445 18.5567 4.76445C19.0419 4.76445 19.4389 5.16145 19.4389 5.64667C19.4389 6.1319 19.0419 6.5289 18.5567 6.5289Z" fill="#757575"/>
<path d="M20.9094 19.4682H19.8948C19.5015 18.9131 17.8069 17.1156 12.6569 17.1156C12.3628 17.1156 12.0908 17.1229 11.7967 17.1339L10.33 11.5869C10.5138 11.3186 10.7895 11.1238 11.1056 11.0392C11.4585 10.9437 11.8335 10.9914 12.1496 11.1752C12.1533 11.1789 12.1606 11.1789 12.1643 11.1789C12.1753 11.1863 12.19 11.1899 12.2047 11.1936C12.2195 11.1973 12.2342 11.2046 12.2489 11.2046C12.2525 11.2046 12.2562 11.2083 12.2636 11.2083C12.2783 11.2083 12.2893 11.212 12.3003 11.212C12.304 11.212 12.3077 11.212 12.3114 11.212C12.3224 11.212 12.3334 11.2083 12.3444 11.2083C12.3591 11.2046 12.3775 11.2046 12.3922 11.1973C12.4032 11.1936 12.4143 11.1899 12.4216 11.1863C12.4363 11.1789 12.451 11.1716 12.4657 11.1605C12.4694 11.1569 12.4768 11.1569 12.4804 11.1532C12.4841 11.1495 12.4878 11.1458 12.4915 11.1422C12.5062 11.1311 12.5172 11.1201 12.5282 11.1054C12.5356 11.098 12.5429 11.087 12.5466 11.0797C12.5503 11.076 12.554 11.0723 12.5576 11.0686C12.7414 10.7525 13.0355 10.5246 13.3884 10.429C13.7413 10.3334 14.1089 10.3812 14.4287 10.565C14.5316 10.6238 14.6603 10.6165 14.7558 10.543C14.8514 10.4695 14.8919 10.3482 14.8625 10.2342C14.5169 8.94394 13.6898 7.86689 12.5319 7.19787C11.4622 6.58032 10.2271 6.38917 9.02506 6.63546L8.79348 5.76793C8.74937 5.60987 8.5913 5.51797 8.43324 5.55841C8.27517 5.59884 8.18327 5.76058 8.22371 5.91865L8.45529 6.78617C7.29002 7.17214 6.31957 7.95512 5.69834 9.02481C5.02932 10.1827 4.85287 11.5281 5.19841 12.8184C5.22782 12.9323 5.32707 13.0169 5.4447 13.0353C5.4594 13.0353 5.47043 13.0389 5.48146 13.0389C5.58439 13.0389 5.68364 12.9838 5.7351 12.8919C6.11372 12.2376 6.95183 12.0134 7.60615 12.392C7.60983 12.3956 7.6135 12.3956 7.62086 12.3956C7.63188 12.403 7.64659 12.4067 7.66129 12.4104C7.67599 12.414 7.6907 12.4214 7.7054 12.4214C7.70908 12.4214 7.71275 12.4251 7.71643 12.4251C7.73113 12.4251 7.74216 12.4287 7.75319 12.4287C7.75686 12.4287 7.76054 12.4287 7.76422 12.4287C7.77524 12.4287 7.78627 12.4251 7.7973 12.4251C7.812 12.4214 7.83038 12.4214 7.84509 12.414C7.85612 12.4104 7.86714 12.4067 7.87449 12.403C7.8892 12.3956 7.9039 12.3883 7.91861 12.3773C7.92228 12.3736 7.92963 12.3736 7.93331 12.3699C7.93699 12.3662 7.94066 12.3626 7.94434 12.3589C7.95904 12.3479 7.97007 12.3368 7.9811 12.3221C7.98845 12.3148 7.9958 12.3074 7.99948 12.2964C8.00315 12.2927 8.00683 12.289 8.0105 12.2854C8.37075 11.6641 9.14269 11.4362 9.77863 11.7377L11.2343 17.167C7.19077 17.4611 5.80862 18.9645 5.45573 19.4682H4.44117C4.27943 19.4682 4.14709 19.6005 4.14709 19.7622C4.14709 19.924 4.27943 20.0563 4.44117 20.0563H5.61747H19.7331H20.9094C21.0711 20.0563 21.2034 19.924 21.2034 19.7622C21.2034 19.6005 21.0711 19.4682 20.9094 19.4682ZM7.50323 7.92571C7.47014 8.0029 7.44441 8.08378 7.415 8.16832C7.4003 8.20876 7.3856 8.24552 7.37457 8.28595C7.33781 8.41461 7.30105 8.54694 7.27164 8.68663C7.24591 8.80426 7.22753 8.92924 7.21283 9.05055C7.20547 9.09098 7.20547 9.13509 7.19812 9.1792C7.18709 9.26375 7.17974 9.3483 7.17239 9.43652C7.16872 9.48798 7.16504 9.53945 7.16504 9.59091C7.16136 9.67178 7.15769 9.75265 7.15769 9.8372C7.15769 9.89234 7.15769 9.94747 7.15769 10.0026C7.15769 10.0872 7.16136 10.1717 7.16504 10.2563C7.16871 10.3114 7.16872 10.3665 7.17239 10.418C7.17974 10.5136 7.18709 10.6055 7.19445 10.701C7.19812 10.7488 7.2018 10.7966 7.20915 10.8407C7.22385 10.9841 7.24591 11.1238 7.26797 11.2671C7.27164 11.2855 7.27532 11.3039 7.27899 11.326C7.29737 11.4399 7.31943 11.5502 7.34148 11.6641C6.74231 11.5318 6.11372 11.6935 5.65055 12.0869C5.52557 11.1311 5.71672 10.168 6.20562 9.31889C6.53645 8.74544 6.98124 8.26757 7.5069 7.89998C7.5069 7.91101 7.5069 7.91836 7.50323 7.92571ZM12.2342 7.70883C13.0833 8.19773 13.7303 8.93659 14.0979 9.82617C13.8148 9.77471 13.5207 9.78206 13.234 9.86293C12.9252 9.9438 12.6495 10.0982 12.4216 10.304C12.3849 10.1938 12.3481 10.0872 12.3077 9.98056C12.3003 9.96218 12.2966 9.9438 12.2893 9.92542C12.2378 9.78941 12.1827 9.6534 12.1239 9.52107C12.1055 9.48063 12.0871 9.44387 12.0687 9.40344C12.0283 9.31154 11.9842 9.22332 11.9438 9.13509C11.9217 9.08731 11.896 9.04319 11.8739 8.99908C11.8335 8.92189 11.793 8.84469 11.7489 8.7675C11.7232 8.72339 11.6975 8.6756 11.6717 8.63149C11.6276 8.55797 11.5835 8.48445 11.5394 8.41461C11.5137 8.37417 11.4879 8.33006 11.4585 8.28963C11.4071 8.21611 11.3556 8.14259 11.3041 8.07275C11.2784 8.03966 11.2564 8.00658 11.2306 7.9735C11.1534 7.87425 11.0762 7.77867 10.9954 7.68677C10.8998 7.58017 10.8042 7.48092 10.7086 7.38902C10.6756 7.35594 10.6388 7.33021 10.6057 7.3008C10.5432 7.24566 10.4807 7.19052 10.4182 7.14273C10.4109 7.13906 10.4072 7.13171 10.3999 7.12803C11.0358 7.18317 11.6607 7.378 12.2342 7.70883ZM7.91125 11.495C7.89655 11.4252 7.88185 11.3517 7.87082 11.2818C7.86347 11.2414 7.85611 11.201 7.84876 11.1642C7.82671 11.0319 7.80833 10.8995 7.79362 10.7672C7.78995 10.7488 7.78995 10.7304 7.78995 10.7084C7.77892 10.5981 7.76789 10.4878 7.76054 10.3776C7.75686 10.3334 7.75686 10.2893 7.75319 10.2489C7.74951 10.1644 7.74584 10.0798 7.74584 9.99894C7.74584 9.95115 7.74584 9.90336 7.74584 9.85925C7.74584 9.78206 7.74951 9.70119 7.75319 9.62767C7.75686 9.58356 7.75686 9.53577 7.76054 9.49166C7.76789 9.41079 7.77524 9.32992 7.7826 9.25272C7.78627 9.21596 7.78995 9.1792 7.79362 9.14245C7.80833 9.02849 7.82671 8.91821 7.84876 8.80793C7.86714 8.71236 7.89287 8.62046 7.91493 8.52856C7.92228 8.49916 7.93331 8.47342 7.94066 8.44402C7.95904 8.3852 7.97742 8.32639 7.99948 8.27125C8.0105 8.24184 8.02153 8.21243 8.03256 8.18303C8.05462 8.13156 8.07667 8.0801 8.09873 8.03231C8.10975 8.00658 8.12078 7.98452 8.13549 7.95879C8.16857 7.89998 8.20165 7.84116 8.23474 7.7897C8.24209 7.78235 8.24576 7.77132 8.24944 7.76397C8.28988 7.70515 8.33399 7.65001 8.3781 7.60223C8.3928 7.58752 8.40751 7.57282 8.42221 7.55812C8.45529 7.52503 8.4847 7.49562 8.51778 7.46622C8.53616 7.45151 8.55454 7.43681 8.57292 7.42211C8.58763 7.41108 8.60233 7.40373 8.61703 7.3927L9.59851 11.0503C8.99933 10.929 8.37075 11.0944 7.91125 11.495ZM9.69776 9.15347L9.1868 7.24566C9.20518 7.24566 9.22356 7.24566 9.24194 7.24934C9.264 7.25301 9.28238 7.25301 9.30443 7.25669C9.34855 7.26404 9.39266 7.27507 9.44044 7.28977C9.45882 7.29345 9.4772 7.3008 9.49558 7.30448C9.55807 7.32653 9.62424 7.35226 9.68673 7.38167C9.69408 7.38535 9.70144 7.38902 9.70879 7.3927C9.7676 7.42211 9.82274 7.45519 9.88156 7.49195C9.90361 7.50665 9.92567 7.52136 9.94772 7.53606C9.99183 7.56547 10.0359 7.59855 10.0801 7.63163C10.1058 7.65001 10.1278 7.66839 10.1536 7.69045C10.1977 7.72721 10.2455 7.76764 10.2896 7.81176C10.3116 7.83014 10.3337 7.85219 10.3521 7.87057C10.4182 7.93674 10.4844 8.0029 10.5506 8.07642C10.6241 8.15729 10.6939 8.24552 10.7638 8.33741C10.7858 8.36682 10.8079 8.39991 10.8299 8.42931C10.8777 8.4918 10.9218 8.55797 10.966 8.62414C10.9917 8.6609 11.0174 8.70133 11.0395 8.73809C11.0799 8.80058 11.1203 8.86675 11.1608 8.93292C11.1865 8.97335 11.2086 9.01379 11.2343 9.0579C11.2747 9.12774 11.3115 9.20126 11.3519 9.27478C11.374 9.31521 11.3924 9.35197 11.4144 9.39241C11.4622 9.48798 11.51 9.58723 11.5541 9.69016C11.5615 9.70854 11.5725 9.72692 11.5798 9.7453C11.6313 9.8666 11.6828 9.98791 11.7306 10.1129C11.7453 10.1533 11.76 10.1938 11.7747 10.2342C11.7967 10.3004 11.8225 10.3629 11.8445 10.429C11.5541 10.3702 11.2564 10.3812 10.9623 10.4584C10.6609 10.5393 10.3888 10.6863 10.1646 10.8885L9.69776 9.15347ZM6.2387 19.4682C6.90772 18.8285 8.65379 17.7037 12.6753 17.7037C16.6784 17.7037 18.4355 18.8285 19.1082 19.4682H6.2387Z" fill="#757575"/>
<path d="M20.9093 20.2034H4.44111C4.1985 20.2034 4 20.0049 4 19.7623C4 19.5196 4.1985 19.3211 4.44111 19.3211H5.38215C5.59168 19.0418 6.04014 18.5639 6.89296 18.1081C7.97369 17.5346 9.37054 17.1707 11.0468 17.0347L9.65727 11.8443C9.09852 11.6164 8.44053 11.8333 8.1391 12.3589C8.13175 12.3699 8.1244 12.3773 8.12073 12.3846C8.11337 12.3957 8.10235 12.4067 8.09867 12.4141C8.08397 12.4324 8.06559 12.4508 8.05088 12.4655C8.04721 12.4692 8.03985 12.4765 8.02883 12.4876C8.0178 12.4986 8.00677 12.5023 7.99574 12.5096C7.97736 12.5207 7.95898 12.5317 7.93693 12.5427C7.9259 12.5464 7.9112 12.5537 7.89282 12.5611C7.86709 12.5684 7.84135 12.5721 7.8193 12.5758H7.81562C7.80827 12.5758 7.79357 12.5795 7.77886 12.5795C7.77151 12.5795 7.76416 12.5795 7.75681 12.5795C7.73843 12.5795 7.71637 12.5795 7.69799 12.5758C7.68696 12.5758 7.67594 12.5721 7.66859 12.5684C7.64653 12.5648 7.62815 12.5574 7.61345 12.5537C7.60242 12.5501 7.58404 12.5427 7.56198 12.5354C7.55463 12.5317 7.54728 12.528 7.53625 12.5243C7.2532 12.3626 6.92237 12.3185 6.60624 12.403C6.29011 12.4876 6.02544 12.6898 5.8637 12.9728C5.77548 13.1272 5.60271 13.2154 5.42259 13.1897C5.24614 13.1676 5.09911 13.039 5.05499 12.8662C4.69843 11.5392 4.88222 10.1534 5.56963 8.96235C6.17615 7.91103 7.1319 7.11336 8.27511 6.70165L8.08029 5.96646C8.05088 5.85251 8.06559 5.73488 8.1244 5.63195C8.18322 5.52903 8.27879 5.45551 8.39274 5.4261C8.628 5.36361 8.87062 5.50329 8.93311 5.73855L9.12793 6.47374C10.3226 6.26054 11.5504 6.47374 12.6017 7.08027C13.7927 7.76767 14.6455 8.8778 14.9984 10.2048C15.0462 10.3776 14.9837 10.5614 14.8403 10.668C14.7007 10.7783 14.5058 10.7893 14.3514 10.7011C14.0684 10.5393 13.7376 10.4952 13.4214 10.5798C13.1053 10.6643 12.8443 10.8665 12.6789 11.1495C12.6715 11.1606 12.6679 11.1679 12.6605 11.1753C12.6532 11.1863 12.6458 11.1973 12.6385 11.2047C12.6201 11.2231 12.6054 11.2414 12.5907 11.2561C12.5833 11.2635 12.576 11.2708 12.5613 11.2819C12.5502 11.2892 12.5392 11.2966 12.5355 11.2966C12.5171 11.3076 12.4988 11.3186 12.4767 11.326C12.462 11.3333 12.4473 11.337 12.4289 11.3444C12.4032 11.3517 12.3775 11.3554 12.3591 11.3591H12.3554C12.3481 11.3591 12.337 11.3627 12.3223 11.3627C12.3003 11.3664 12.2672 11.3664 12.2378 11.3627C12.2267 11.3627 12.2157 11.3591 12.2084 11.3554C12.1863 11.3517 12.1679 11.3444 12.1496 11.337H12.1459C12.1348 11.3333 12.1201 11.3297 12.1018 11.3223C12.0944 11.3186 12.0797 11.315 12.065 11.3076C11.782 11.1422 11.4511 11.0981 11.1313 11.1863C10.8703 11.2561 10.6387 11.4105 10.477 11.6237L11.8959 16.9906C12.1863 16.9796 12.4142 16.9759 12.6458 16.9759C17.7076 16.9759 19.483 18.6999 19.9609 19.3285H20.9093C21.1519 19.3285 21.3504 19.527 21.3504 19.7696C21.3504 20.0122 21.1519 20.2034 20.9093 20.2034ZM4.44111 19.6152C4.36024 19.6152 4.29407 19.6814 4.29407 19.7623C4.29407 19.8431 4.36024 19.9093 4.44111 19.9093H20.9093C20.9902 19.9093 21.0563 19.8431 21.0563 19.7623C21.0563 19.6814 20.9902 19.6152 20.9093 19.6152H19.8176L19.7734 19.5527C19.6117 19.3248 19.1118 18.733 17.998 18.2147C16.6342 17.5824 14.8367 17.2626 12.6568 17.2626C12.3995 17.2626 12.1459 17.2663 11.8003 17.281L11.6496 17.2883V17.1523L10.1719 11.5576L10.2087 11.5024C10.4145 11.2047 10.7196 10.9915 11.0688 10.8959C11.4585 10.793 11.8628 10.8444 12.212 11.0393C12.2194 11.0429 12.2267 11.0466 12.2378 11.0503C12.2378 11.0503 12.2451 11.054 12.2488 11.054L12.2562 11.0576C12.2635 11.0613 12.2745 11.065 12.2782 11.065C12.2856 11.065 12.2892 11.0687 12.2929 11.0687C12.2929 11.0687 12.2929 11.0687 12.2966 11.0687H12.3003H12.3113H12.315H12.326C12.3333 11.0687 12.3444 11.065 12.3517 11.065C12.3554 11.065 12.3628 11.0613 12.3664 11.0576C12.3738 11.054 12.3811 11.0503 12.3885 11.0429L12.3922 11.0393L12.3958 11.0356C12.3995 11.0319 12.4069 11.0246 12.4105 11.0172L12.4142 11.0135C12.4179 11.0098 12.4179 11.0062 12.4216 11.0025C12.4252 10.9988 12.4289 10.9915 12.4326 10.9878C12.6348 10.6423 12.9619 10.3923 13.3479 10.2894C13.7412 10.1864 14.1493 10.2379 14.4985 10.4401C14.5499 10.4695 14.6161 10.4658 14.6602 10.4291C14.708 10.3923 14.7301 10.3335 14.7117 10.2747C14.3772 9.02117 13.5721 7.9772 12.451 7.32656C11.4217 6.73473 10.216 6.53991 9.04706 6.78252L8.91105 6.81193L8.64271 5.81207C8.62065 5.73488 8.53978 5.68709 8.46259 5.70915C8.42583 5.72017 8.39274 5.74223 8.37436 5.77899C8.35599 5.81207 8.34863 5.85251 8.35966 5.88927L8.628 6.88912L8.49567 6.93323C7.36348 7.30818 6.41509 8.08013 5.82326 9.10571C5.1763 10.2232 5.00353 11.5318 5.34172 12.7853C5.35642 12.8441 5.40421 12.8846 5.46302 12.8919C5.47037 12.8919 5.47773 12.8919 5.4814 12.8919C5.53287 12.8919 5.58433 12.8625 5.61006 12.8184C5.81224 12.4692 6.1394 12.2192 6.53272 12.1126C6.91869 12.0097 7.32305 12.0612 7.67226 12.256C7.67594 12.2597 7.68329 12.2597 7.69064 12.2633C7.69432 12.267 7.70167 12.267 7.70534 12.2707H7.70902C7.71637 12.2744 7.72372 12.278 7.7274 12.278C7.73475 12.278 7.73843 12.2817 7.7421 12.2817C7.7421 12.2817 7.7421 12.2817 7.74578 12.2817C7.74946 12.2817 7.75313 12.2817 7.76048 12.2817C7.76048 12.2817 7.76048 12.2817 7.76416 12.2817H7.77151C7.77886 12.2817 7.78989 12.278 7.79724 12.278C7.80092 12.278 7.80827 12.2744 7.81195 12.2707C7.8193 12.267 7.82665 12.2633 7.834 12.2597C7.83768 12.2597 7.83768 12.256 7.84135 12.256C7.84135 12.256 7.84135 12.256 7.84503 12.2523L7.84871 12.2486C7.85606 12.245 7.85973 12.2376 7.86709 12.2303C7.87076 12.2229 7.87444 12.2229 7.87811 12.2192C7.88179 12.2156 7.88547 12.2082 7.88914 12.2045C8.28247 11.5355 9.13896 11.2745 9.84474 11.6054L9.90723 11.6348L11.4217 17.2994L11.2453 17.3141C7.23482 17.6045 5.89311 19.1006 5.57698 19.5527L5.53287 19.6152H4.44111ZM7.88179 12.2082C7.88179 12.2082 7.88179 12.2119 7.88179 12.2082C7.88179 12.2119 7.88179 12.2082 7.88179 12.2082ZM12.0944 11.3113C12.0981 11.3113 12.0981 11.3113 12.0944 11.3113C12.0981 11.3113 12.0981 11.3113 12.0944 11.3113ZM12.4289 10.9915C12.4289 10.9915 12.4289 10.9951 12.4289 10.9915C12.4289 10.9951 12.4289 10.9915 12.4289 10.9915ZM19.4757 19.6152H5.87105L6.13572 19.3616C6.8415 18.6889 8.628 17.5567 12.6752 17.5567C16.704 17.5567 18.4979 18.6889 19.211 19.3616L19.4757 19.6152ZM6.63565 19.3211H18.7074C17.8693 18.6815 16.1196 17.8508 12.6752 17.8508C9.21615 17.8508 7.46641 18.6815 6.63565 19.3211ZM5.54022 12.3773L5.50346 12.109C5.3748 11.1128 5.5733 10.1239 6.0769 9.24907C6.41877 8.66092 6.87091 8.16467 7.4223 7.78238L7.83033 7.49933L7.64285 7.95882C7.63918 7.96617 7.63918 7.97352 7.6355 7.98088C7.60977 8.04337 7.58404 8.11321 7.56198 8.18673L7.55463 8.21246C7.54728 8.23084 7.5436 8.24922 7.53625 8.26392C7.5289 8.2823 7.52155 8.30436 7.5142 8.32641C7.47744 8.4514 7.44435 8.58373 7.41495 8.71606C7.39289 8.82267 7.37451 8.9403 7.35613 9.07263C7.35245 9.09836 7.34878 9.12409 7.34878 9.14982C7.34878 9.16453 7.3451 9.18291 7.3451 9.19761C7.33775 9.27481 7.32672 9.35935 7.32305 9.44758C7.31937 9.49536 7.3157 9.54683 7.3157 9.59829C7.31202 9.68284 7.30834 9.76003 7.30834 9.8409C7.30834 9.89236 7.30834 9.9475 7.30834 10.0026C7.30834 10.0798 7.31202 10.1607 7.3157 10.2526V10.2783C7.31937 10.3224 7.31937 10.3666 7.32305 10.4107C7.3304 10.5136 7.33775 10.6128 7.3451 10.69C7.34878 10.7084 7.34878 10.7268 7.34878 10.7452C7.35245 10.7746 7.35245 10.8003 7.35613 10.8297C7.37451 10.9804 7.39289 11.1165 7.41495 11.2525C7.41495 11.2598 7.41862 11.2672 7.41862 11.2782C7.4223 11.2892 7.4223 11.3002 7.42597 11.3113C7.44435 11.4105 7.46273 11.5282 7.48846 11.6421L7.53625 11.8627L7.3157 11.8149C6.7643 11.6936 6.18351 11.8406 5.75342 12.2082L5.54022 12.3773ZM7.20909 8.32641C6.86355 8.63152 6.57316 8.98808 6.3379 9.39611C5.90781 10.1423 5.71666 10.9731 5.77548 11.8149C6.18351 11.5502 6.67608 11.4326 7.16131 11.484C7.15395 11.4363 7.1466 11.3921 7.13925 11.348C7.13925 11.337 7.13557 11.3297 7.13557 11.3223C7.1319 11.3113 7.1319 11.3002 7.12822 11.2929C7.10617 11.1532 7.08411 11.0098 7.06941 10.8555C7.06573 10.8261 7.06206 10.793 7.06206 10.7636C7.06206 10.7452 7.05838 10.7305 7.05838 10.7121C7.05103 10.6349 7.04 10.5283 7.03265 10.4254C7.02897 10.3776 7.02897 10.3335 7.0253 10.2857V10.26C7.02162 10.1681 7.01794 10.0835 7.01794 10.0026C7.01794 9.9475 7.01794 9.89236 7.01794 9.83355C7.01794 9.749 7.02162 9.66813 7.0253 9.58358C7.02897 9.53212 7.02897 9.47698 7.03265 9.42552C7.04 9.33362 7.04735 9.24172 7.05838 9.16453C7.05838 9.14982 7.06206 9.13512 7.06206 9.12042C7.06573 9.09101 7.06941 9.0616 7.07308 9.03587C7.09146 8.89618 7.11352 8.77488 7.13557 8.66092C7.15028 8.54697 7.17969 8.43669 7.20909 8.32641ZM7.81562 11.7708L7.76416 11.5245C7.74946 11.4546 7.73475 11.3811 7.72372 11.3076L7.71637 11.2672C7.7127 11.2414 7.70534 11.212 7.70167 11.1863C7.67961 11.0429 7.66123 10.9106 7.64653 10.7819C7.64653 10.7709 7.64285 10.7562 7.64285 10.7452C7.64285 10.7378 7.64285 10.7305 7.63918 10.7231C7.62447 10.5981 7.61712 10.4879 7.60977 10.3849C7.60609 10.3482 7.60609 10.3151 7.60609 10.2783V10.2526C7.60242 10.1534 7.59874 10.0725 7.59874 9.99529C7.59874 9.95485 7.59874 9.9181 7.59874 9.87766V9.85193C7.59874 9.76371 7.60242 9.68651 7.60609 9.61299C7.60977 9.56521 7.60977 9.52109 7.61345 9.47331C7.61712 9.39979 7.62447 9.32259 7.6355 9.23069L7.63918 9.19394C7.64285 9.1682 7.64285 9.14247 7.64653 9.11674C7.66491 8.99176 7.68329 8.87781 7.70167 8.77488C7.72005 8.68298 7.7421 8.59108 7.77151 8.48816C7.77519 8.46978 7.78254 8.4514 7.78989 8.43302C7.79357 8.42199 7.79724 8.41096 7.80092 8.39993C7.8193 8.33744 7.84135 8.27495 7.86341 8.21981C7.87444 8.1904 7.88547 8.15732 7.90017 8.12791C7.92222 8.07645 7.94428 8.02131 7.97001 7.96985L7.97736 7.95147C7.98839 7.93309 7.99574 7.91103 8.00677 7.89265C8.03985 7.82649 8.07661 7.76767 8.11337 7.71253L8.11705 7.70886C8.12073 7.70151 8.1244 7.69415 8.13175 7.6868C8.17219 7.62799 8.2163 7.56917 8.27144 7.51036C8.28247 7.49933 8.29349 7.48462 8.30452 7.4736C8.3082 7.46992 8.31187 7.46625 8.31923 7.45889C8.35599 7.41846 8.39274 7.38537 8.42583 7.35597C8.44421 7.34126 8.46259 7.32656 8.48832 7.30818C8.49935 7.30083 8.51037 7.29348 8.52508 7.28612C8.52875 7.28245 8.53243 7.28245 8.53611 7.27877L8.7052 7.16482L9.80063 11.2488L9.56537 11.201C9.01398 11.087 8.4295 11.2378 8.0031 11.609L7.81562 11.7708ZM8.53611 7.65372L8.53243 7.65739C8.52508 7.66475 8.5214 7.66842 8.51405 7.67577C8.5067 7.68313 8.49935 7.69048 8.49567 7.69783C8.45156 7.74929 8.4148 7.79708 8.37804 7.84487L8.37436 7.84854C8.37069 7.85589 8.36701 7.86325 8.35966 7.8706C8.33025 7.91839 8.29717 7.96985 8.26776 8.02499C8.26041 8.03969 8.25306 8.05807 8.24571 8.07277L8.23468 8.09115C8.21262 8.13894 8.19057 8.18673 8.17219 8.23452C8.16116 8.26025 8.15013 8.28966 8.1391 8.31539C8.12073 8.36685 8.10235 8.42199 8.08397 8.4808C8.08029 8.49183 8.07661 8.50286 8.07294 8.51389C8.06926 8.52859 8.06191 8.54329 8.05823 8.56167C8.0325 8.65725 8.01045 8.74547 7.99207 8.83002C7.97369 8.92927 7.95531 9.03219 7.93693 9.1535C7.93325 9.17556 7.93325 9.20129 7.92958 9.22334L7.9259 9.26378C7.91487 9.35568 7.90752 9.4292 7.90384 9.49536C7.90017 9.53947 7.90017 9.58358 7.89649 9.6277C7.89282 9.69754 7.88914 9.77473 7.88914 9.8556V9.88134C7.88914 9.9181 7.88914 9.95485 7.88914 9.99161C7.88914 10.0651 7.89282 10.1423 7.89649 10.2379V10.2636C7.89649 10.2967 7.90017 10.3298 7.90017 10.3629C7.90752 10.4621 7.91487 10.5651 7.92958 10.6864C7.92958 10.6974 7.92958 10.7047 7.93325 10.7158C7.93325 10.7231 7.93325 10.7342 7.93693 10.7415C7.95163 10.8628 7.97001 10.9915 7.99207 11.1312C7.99574 11.1569 7.99942 11.1826 8.00677 11.2047L8.01045 11.2231C8.4148 10.9474 8.91105 10.8187 9.39995 10.8665L8.53611 7.65372ZM10.0837 11.1679L8.98825 7.08395L9.1941 7.09865C9.19777 7.09865 9.20513 7.09865 9.2088 7.09865C9.22351 7.09865 9.23821 7.09865 9.25291 7.10233C9.27865 7.106 9.3007 7.10968 9.32643 7.11336C9.37422 7.12071 9.42201 7.13173 9.47715 7.15011C9.48082 7.15011 9.48817 7.15379 9.49185 7.15379C9.50655 7.15747 9.52126 7.16114 9.53596 7.16482C9.60948 7.19055 9.67932 7.21628 9.74549 7.24936C9.75284 7.25304 9.76019 7.25672 9.76754 7.26039L9.77122 7.26407C9.83371 7.29348 9.8962 7.33024 9.95869 7.37067C9.9734 7.3817 9.99178 7.39273 10.0065 7.40375L10.0285 7.41846C10.08 7.45154 10.1278 7.4883 10.1719 7.52138C10.1976 7.53976 10.2234 7.56182 10.2491 7.58387C10.2932 7.62063 10.341 7.66107 10.3925 7.70886L10.4145 7.72724C10.4292 7.74194 10.4439 7.75664 10.4623 7.77135C10.5395 7.84487 10.6057 7.91839 10.6681 7.98455C10.7417 8.06542 10.8115 8.15365 10.8887 8.2529C10.9034 8.27495 10.9218 8.29701 10.9365 8.31539L10.9585 8.34479C11.01 8.41464 11.0578 8.4808 11.0982 8.54329C11.124 8.58373 11.1497 8.62049 11.1754 8.66092C11.2195 8.73077 11.26 8.79693 11.3004 8.8631C11.3261 8.90354 11.3482 8.94765 11.3739 8.99176C11.4107 9.05793 11.4474 9.12777 11.4916 9.21232L11.5136 9.25275C11.5283 9.27848 11.543 9.30789 11.5577 9.33362C11.6055 9.4292 11.6496 9.52845 11.7011 9.63505C11.7048 9.6424 11.7084 9.64975 11.7121 9.6571C11.7158 9.66813 11.7231 9.67916 11.7268 9.69019C11.7783 9.80782 11.8297 9.9328 11.8775 10.0651C11.8886 10.0909 11.8959 10.1166 11.9069 10.146C11.9106 10.1607 11.918 10.1754 11.9216 10.1901C11.9437 10.2526 11.9658 10.3151 11.9915 10.3886L12.0724 10.6276L11.8224 10.5761C11.5504 10.5209 11.2784 10.532 11.0063 10.6055C10.727 10.679 10.4807 10.815 10.2675 11.0025L10.0837 11.1679ZM9.83739 9.11307L10.2454 10.6423C10.4476 10.4989 10.6755 10.3923 10.9218 10.3261C11.1534 10.2636 11.3886 10.2416 11.6239 10.26C11.6239 10.2563 11.6202 10.2489 11.6202 10.2453C11.6129 10.2195 11.6018 10.1975 11.5945 10.1717C11.5467 10.0431 11.4952 9.92177 11.4474 9.80782C11.4438 9.80047 11.4401 9.78944 11.4364 9.78209C11.4327 9.77106 11.4291 9.76371 11.4217 9.75268C11.3739 9.64608 11.3298 9.5505 11.2857 9.46228C11.2747 9.43655 11.26 9.41082 11.2453 9.38508L11.2232 9.34465C11.1791 9.2601 11.1423 9.19394 11.1093 9.13144C11.0872 9.09101 11.0615 9.05057 11.0394 9.01014C11.0027 8.94765 10.9622 8.88516 10.9218 8.81899C10.8961 8.78223 10.874 8.7418 10.8483 8.70504C10.8078 8.64622 10.7637 8.58373 10.7159 8.51756L10.6902 8.48448C10.6755 8.4661 10.6608 8.44772 10.6498 8.42934C10.5763 8.33377 10.5101 8.2529 10.4439 8.1757C10.3888 8.11321 10.3263 8.04704 10.2528 7.9772C10.2381 7.9625 10.227 7.95147 10.2123 7.94044L10.1903 7.91839C10.1425 7.87427 10.0984 7.83751 10.0616 7.80443C10.0396 7.78605 10.0138 7.76767 9.99178 7.74929C9.95134 7.71988 9.91091 7.69048 9.8668 7.65739L9.84106 7.63901C9.82636 7.63166 9.81533 7.62063 9.80063 7.61328C9.74549 7.5802 9.69403 7.54712 9.63889 7.52138C9.63154 7.51771 9.62786 7.51403 9.62051 7.51036L9.61683 7.50668C9.56169 7.48095 9.50655 7.45889 9.44406 7.43684C9.43671 7.43316 9.42568 7.43316 9.41833 7.42949C9.41098 7.42581 9.40363 7.42581 9.39628 7.42213C9.3926 7.42213 9.38892 7.41846 9.38525 7.41846L9.83739 9.11307ZM12.3554 10.5651L12.2856 10.3482C12.2488 10.2379 12.2084 10.1276 12.1716 10.0284C12.1679 10.021 12.1643 10.01 12.1606 10.0026C12.1569 9.99529 12.1532 9.98426 12.1496 9.97691C12.1018 9.84825 12.0466 9.71592 11.9878 9.57991C11.9768 9.55785 11.9694 9.5358 11.9584 9.51374C11.9511 9.49536 11.9437 9.48066 11.9363 9.46228C11.9033 9.38876 11.8592 9.29319 11.8114 9.19761C11.793 9.16453 11.7783 9.13144 11.7599 9.09469L11.7415 9.0616C11.7011 8.98441 11.6607 8.90721 11.6202 8.83369C11.5945 8.78958 11.5688 8.74547 11.543 8.70136C11.5026 8.63152 11.4585 8.56535 11.4107 8.48816L11.3997 8.46978C11.3776 8.43669 11.3555 8.39993 11.3335 8.36685C11.2894 8.30436 11.2416 8.23452 11.1828 8.15732C11.1718 8.14629 11.1644 8.13159 11.1534 8.12056C11.1387 8.10218 11.124 8.08013 11.1093 8.06175C11.0284 7.95514 10.9512 7.86325 10.8814 7.78238C10.7931 7.68313 10.6976 7.58755 10.602 7.49565C10.5836 7.47727 10.5652 7.46257 10.5432 7.44419C10.5285 7.43316 10.5138 7.41846 10.4991 7.40743L10.4807 7.39273C10.4255 7.34494 10.3704 7.29715 10.3189 7.25672C10.3116 7.25304 10.3079 7.24569 10.3006 7.24201L9.89253 6.93691L10.4035 6.98102C11.0725 7.03616 11.7121 7.23834 12.3003 7.57652C13.1751 8.08013 13.8405 8.83737 14.2265 9.76371L14.3294 10.0137L14.061 9.96588C13.7927 9.9181 13.5244 9.92912 13.2634 9.99897C12.9803 10.0762 12.7267 10.2122 12.5135 10.407L12.3554 10.5651ZM10.8703 7.34494C10.9512 7.42213 11.0284 7.50668 11.1056 7.59123C11.1828 7.67945 11.2637 7.77502 11.3482 7.8853C11.3629 7.90736 11.3813 7.92941 11.396 7.95147C11.4033 7.9625 11.4144 7.9772 11.4217 7.98823C11.4842 8.07277 11.532 8.14262 11.5798 8.20878C11.6055 8.24554 11.6276 8.2823 11.6496 8.31906L11.6607 8.33744C11.7121 8.41464 11.7562 8.48816 11.7967 8.558C11.8224 8.60211 11.8518 8.6499 11.8775 8.69768C11.9216 8.77488 11.9621 8.85575 12.0062 8.93294L12.0246 8.96603C12.0429 9.00279 12.0613 9.03587 12.0797 9.07263C12.1275 9.17188 12.1753 9.27113 12.2084 9.34465C12.2157 9.36303 12.2231 9.37773 12.2304 9.39244C12.2415 9.41449 12.2525 9.44022 12.2635 9.46228C12.3223 9.60196 12.3811 9.73797 12.4289 9.87031C12.4326 9.88134 12.4363 9.89236 12.44 9.90339C12.4436 9.91074 12.4436 9.91809 12.4473 9.92545C12.462 9.96588 12.4767 10.01 12.4951 10.0541C12.7046 9.89971 12.9436 9.78576 13.1972 9.71592C13.4141 9.6571 13.6346 9.63505 13.8589 9.64608C13.4876 8.88516 12.9068 8.26392 12.1606 7.83384C11.7526 7.59858 11.3225 7.43684 10.8703 7.34494Z" fill="#757575"/>
</svg>
