<svg width="24" height="24" viewBox="0 0 24 24" fill="none" xmlns="http://www.w3.org/2000/svg">
<path d="M0.5 6C0.5 5.7202 0.721918 5.5 0.994419 5.5H1.01304H1.03181H1.05073H1.0698H1.08901H1.10838H1.12789H1.14755H1.16735H1.1873H1.20739H1.22763H1.24801H1.26853H1.28919H1.31H1.33095H1.35203H1.37326H1.39462H1.41612H1.43776H1.45954H1.48145H1.5035H1.52568H1.548H1.57045H1.59303H1.61575H1.6386H1.66157H1.68468H1.70792H1.73129H1.75479H1.77841H1.80216H1.82604H1.85004H1.87417H1.89843H1.92281H1.94731H1.97193H1.99668H2.02155H2.04653H2.07164H2.09687H2.12222H2.14769H2.17327H2.19897H2.22479H2.25072H2.27677H2.30293H2.3292H2.35559H2.3821H2.40871H2.43543H2.46227H2.48922H2.51627H2.54343H2.57071H2.59809H2.62557H2.65316H2.68086H2.70866H2.73657H2.76458H2.7927H2.82091H2.84923H2.87765H2.90617H2.93479H2.96351H2.99232H3.02124H3.05025H3.07936H3.10856H3.13786H3.16726H3.19675H3.22633H3.25601H3.28577H3.31563H3.34558H3.37562H3.40575H3.43597H3.46628H3.49667H3.52715H3.55772H3.58838H3.61912H3.64994H3.68085H3.71184H3.74291H3.77407H3.8053H3.83662H3.86802H3.8995H3.93105H3.96269H3.9944H4.02619H4.05805H4.08999H4.12201H4.1541H4.18626H4.2185H4.2508H4.28319H4.31564H4.34816H4.38075H4.41341H4.44614H4.47894H4.51181H4.54474H4.57774H4.6108H4.64393H4.67712H4.71037H4.74369H4.77707H4.81052H4.84402H4.87758H4.91121H4.94489H4.97863H5.01243H5.04628H5.0802H5.11416H5.14819H5.18226H5.2164H5.25058H5.28482H5.31911H5.35345H5.38784H5.42228H5.45678H5.49132H5.5259H5.56054H5.59522H5.62995H5.66473H5.69955H5.73441H5.76932H5.80427H5.83926H5.8743H5.90938H5.94449H5.97965H6.01485H6.05008H6.08536H6.12067H6.15601H6.1914H6.22682H6.26227H6.29776H6.33328H6.36883H6.40442H6.44004H6.47569H6.51136H6.54707H6.58281H6.61858H6.65437H6.6902H6.72604H6.76192H6.79782H6.83374H6.86969H6.90566H6.94166H6.97767H7.01371H7.04977H7.08585H7.12194H7.15806H7.1942H7.23035H7.26652H7.3027H7.33891H7.37512H7.41136H7.4476H7.48386H7.52013H7.55641H7.59271H7.62901H7.66533H7.70165H7.73798H7.77432H7.81067H7.84703H7.88339H7.91975H7.95612H7.9925H8.02888H8.06526H8.10165H8.13803H8.17442H8.21081H8.24719H8.28358H8.31997H8.35635H8.39273H8.4291H8.46548H8.50185H8.53821H8.57456H8.61092H8.64726H8.68359H8.71992H8.75624H8.79254H8.82884H8.86513H8.9014H8.93766H8.97391H9.01015H9.04637H9.08258H9.11877H9.15494H9.1911H9.22724H9.26336H9.29947H9.33555H9.37161H9.40766H9.44368H9.47968H9.51566H9.55161H9.58754H9.62345H9.65933H9.69519H9.73102H9.76682H9.80259H9.83834H9.87406H9.90975H9.9454H9.98103H10.0166H10.0522H10.0877H10.1232H10.1587H10.1941H10.2295H10.2649H10.3002H10.3355H10.3707H10.4059H10.4411H10.4762H10.5113H10.5464H10.5814H10.6163H10.6512H10.6861H10.721H10.7557H10.7905H10.8252H10.8598H10.8944H10.929H10.9635H10.9979H11.0324H11.0667H11.101H11.1353H11.1695H11.2036H11.2377H11.2717H11.3057H11.3397H11.3735H11.4073H11.4411H11.4748H11.5084H11.542H11.5755H11.609H11.6424H11.6757H11.709H11.7422H11.7754H11.8085H11.8415H11.8744H11.9073H11.9401H11.9729H12.0056H12.0382H12.0707H12.1032H12.1356H12.1679H12.2002H12.2323H12.2645H12.2965H12.3285H12.3603H12.3922H12.4239H12.4555H12.4871H12.5186H12.55H12.5814H12.6126H12.6438H12.6749H12.7059H12.7369H12.7677H12.7985H12.8292H12.8597H12.8903H12.9207H12.951H12.9813H13.0114H13.0415H13.0715H13.1013H13.1311H13.1608H13.1904H13.22H13.2494H13.2787H13.3079H13.3371H13.3661H13.3951H13.4239H13.4526H13.4813H13.5098H13.5383H13.5666H13.5949H13.623H13.6511H13.679H13.7068H13.7346H13.7622H13.7897H13.8171H13.8444H13.8716H13.8987H13.9257H13.9525H13.9793H14.0059H14.0325H14.0589H14.0852H14.1114H14.1375H14.1635H14.1893H14.215H14.2407H14.2662H14.2915H14.3168H14.3419H14.367H14.3919H14.4166H14.4413H14.4658H14.4903H14.5145H14.5387H14.5628H14.5867H14.6105H14.6341H14.6576H14.6811H14.7043H14.7275H14.7505H14.7734H14.7961H14.8188H14.8412H14.8636H14.8858H14.9079H14.9299H14.9517H14.9733H14.9949H15.0163H15.0376H15.0587H15.0797H15.1005H15.1212H15.1418H15.1622H15.1825H15.2026H15.2226H15.2425H15.2622H15.2817H15.3011H15.3204H15.3395H15.3584H15.3773H15.3959H15.4144H15.4328H15.451H15.4691H15.487H15.5047H15.5223H15.5397H15.557H15.5742H15.5911H15.6079H15.6246H15.6411H15.6574H15.6736H15.6896H15.7055H15.7212H15.7367H15.7521H15.7673H15.7823H15.7972H15.8119H15.8264H15.8408H15.855H15.869H15.8829H15.8966H15.9101H15.9235H15.9367H15.9497H15.9625H15.9752H15.9877H16C16.5136 5.5 17.2455 5.71239 18.0892 6.11527C18.9203 6.51206 19.8117 7.07032 20.6305 7.70718C21.4506 8.34497 22.1824 9.04967 22.7041 9.7331C23.2374 10.4316 23.5 11.041 23.5 11.5C23.5 12.3685 23.0668 13.2057 22.4985 13.9219C21.9355 14.6315 21.283 15.1679 20.9427 15.4249C20.8815 15.4711 20.7985 15.5 20.6972 15.5H1C0.723858 15.5 0.5 15.2761 0.5 15V6Z" stroke="#757575"/>
<circle cx="18.5" cy="17.5" r="0.75" stroke="#757575" stroke-width="1.5"/>
<circle cx="12.5" cy="17.5" r="0.75" stroke="#757575" stroke-width="1.5"/>
<path d="M21 8H18C17.4477 8 17 8.44772 17 9V10C17 10.5523 17.4477 11 18 11H23" stroke="#757575" stroke-linecap="round"/>
<line x1="13.5" y1="17.5" x2="17.5" y2="17.5" stroke="#757575" stroke-linecap="round"/>
<circle cx="8.5" cy="17.5" r="0.75" stroke="#757575" stroke-width="1.5"/>
<circle cx="2.5" cy="17.5" r="0.75" stroke="#757575" stroke-width="1.5"/>
<line x1="3.5" y1="17.5" x2="7.5" y2="17.5" stroke="#757575" stroke-linecap="round"/>
<rect x="10" y="8" width="4" height="3" rx="1" stroke="#757575"/>
<rect x="3" y="8" width="4" height="3" rx="1" stroke="#757575"/>
</svg>
