<svg width="24" height="24" viewBox="0 0 24 24" fill="none" xmlns="http://www.w3.org/2000/svg">
<path d="M16.7937 6.95001C16.7101 6.95037 16.6285 6.92453 16.5603 6.8761C16.4921 6.82767 16.4409 6.7591 16.4137 6.68002L15.7437 4.68002L15.0737 6.68002C15.0479 6.75995 14.9969 6.8294 14.9285 6.87805C14.86 6.9267 14.7777 6.95193 14.6937 6.95001C14.6111 6.95137 14.5302 6.92577 14.4634 6.87704C14.3967 6.82832 14.3476 6.75915 14.3237 6.68002L13.2737 3.52002C13.2385 3.42311 13.2385 3.31694 13.2737 3.22003C13.2961 3.17263 13.3282 3.13037 13.3678 3.09595C13.4074 3.06153 13.4536 3.03568 13.5037 3.02002H13.6337C13.716 3.02025 13.796 3.04648 13.8625 3.09497C13.9289 3.14347 13.9784 3.21176 14.0037 3.29004L14.6737 5.29004L15.3537 3.29004C15.379 3.21176 15.4284 3.14347 15.4949 3.09497C15.5613 3.04648 15.6414 3.02025 15.7237 3.02002C15.8069 3.02111 15.8879 3.04753 15.9558 3.09576C16.0237 3.144 16.0753 3.21177 16.1037 3.29004L16.7737 5.29004L17.4437 3.29004C17.4721 3.21177 17.5237 3.144 17.5916 3.09576C17.6595 3.04753 17.7405 3.02111 17.8237 3.02002H17.9437C17.9934 3.03582 18.0393 3.06143 18.0789 3.09531C18.1185 3.12918 18.1509 3.17065 18.1742 3.21725C18.1976 3.26386 18.2113 3.31466 18.2147 3.36667C18.218 3.41867 18.2109 3.47081 18.1937 3.52002L17.1437 6.68002C17.1208 6.75591 17.0748 6.82274 17.012 6.87115C16.9493 6.91957 16.8729 6.94713 16.7937 6.95001Z" fill="#757575"/>
<path d="M20.3137 6.94998C20.1049 6.94998 19.8981 6.90885 19.7052 6.82895C19.5123 6.74904 19.337 6.63193 19.1893 6.48428C19.0417 6.33664 18.9246 6.16138 18.8447 5.96848C18.7648 5.77557 18.7236 5.56879 18.7236 5.35999V4.59C18.7236 4.38119 18.7648 4.17444 18.8447 3.98154C18.9246 3.78863 19.0417 3.61334 19.1893 3.4657C19.337 3.31805 19.5123 3.20094 19.7052 3.12103C19.8981 3.04113 20.1049 3 20.3137 3C20.5763 3.00167 20.8346 3.06717 21.0663 3.19086C21.298 3.31454 21.4961 3.4927 21.6436 3.70999C21.6976 3.79966 21.7152 3.90659 21.6929 4.00885C21.6706 4.11111 21.61 4.20094 21.5236 4.25998C21.4608 4.29957 21.3879 4.32042 21.3137 4.32001C21.2487 4.32226 21.1842 4.30781 21.1265 4.27805C21.0687 4.24828 21.0195 4.20418 20.9836 4.14999C20.9113 4.03846 20.8119 3.94699 20.6948 3.88406C20.5777 3.82113 20.4466 3.78879 20.3137 3.79001C20.1015 3.79001 19.898 3.87429 19.748 4.02432C19.598 4.17435 19.5137 4.37782 19.5137 4.59V5.35999C19.5137 5.57216 19.598 5.77566 19.748 5.92569C19.898 6.07572 20.1015 6.16 20.3137 6.16C20.4466 6.16122 20.5777 6.12885 20.6948 6.06592C20.8119 6.00299 20.9113 5.91153 20.9836 5.79999C21.019 5.74461 21.0679 5.69907 21.1255 5.6676C21.1832 5.63613 21.2479 5.61977 21.3137 5.62C21.3889 5.62311 21.4616 5.64738 21.5236 5.69C21.61 5.74904 21.6706 5.83887 21.6929 5.94113C21.7152 6.04339 21.6976 6.15032 21.6436 6.23999C21.4961 6.45728 21.298 6.63547 21.0663 6.75916C20.8346 6.88284 20.5763 6.94831 20.3137 6.94998Z" fill="#757575"/>
<path d="M7.42368 20.8001C6.03734 20.7834 4.70866 20.2427 3.70451 19.2867C2.70035 18.3307 2.09512 17.0302 2.01029 15.6464C1.92546 14.2626 2.36736 12.8979 3.24723 11.8264C4.1271 10.7549 5.37979 10.056 6.7537 9.87009H6.84367V9.11008C6.84096 8.82029 6.90129 8.53338 7.02042 8.2692C7.13956 8.00502 7.31468 7.76989 7.53367 7.58008L7.6237 7.50009L7.52366 7.43009C7.18665 7.15963 6.9418 6.79136 6.82273 6.37598C6.70366 5.96059 6.71625 5.51852 6.8588 5.1106C7.00136 4.70267 7.26681 4.34895 7.61869 4.09815C7.97057 3.84734 8.3916 3.71176 8.82371 3.71008C9.25667 3.7097 9.67904 3.84378 10.0325 4.09381C10.386 4.34385 10.6531 4.69748 10.7969 5.10587C10.9407 5.51425 10.9541 5.95722 10.8353 6.37357C10.7165 6.78991 10.4714 7.15909 10.1337 7.43009L10.0337 7.50009L10.1237 7.58008C10.3327 7.76098 10.5018 7.98322 10.6206 8.23279C10.7393 8.48236 10.8051 8.75384 10.8137 9.03009V9.1301H13.3137C13.4974 9.11413 13.6823 9.1365 13.8569 9.19583C14.0315 9.25517 14.1918 9.35014 14.3277 9.47473C14.4636 9.59933 14.5721 9.75082 14.6463 9.91959C14.7206 10.0884 14.7589 10.2707 14.7589 10.4551C14.7589 10.6394 14.7206 10.8218 14.6463 10.9906C14.5721 11.1593 14.4636 11.3108 14.3277 11.4354C14.1918 11.56 14.0315 11.655 13.8569 11.7143C13.6823 11.7737 13.4974 11.7961 13.3137 11.7801H10.8137V12.9001H11.7337C12.1996 12.9012 12.6541 13.0445 13.0365 13.3107C13.4189 13.577 13.7109 13.9535 13.8737 14.3901L15.1937 17.9201H15.6337C15.8594 17.9178 16.0808 17.9815 16.2708 18.1032C16.4608 18.2249 16.6112 18.3995 16.7036 18.6054C16.7959 18.8113 16.8262 19.0396 16.7907 19.2625C16.7552 19.4854 16.6555 19.693 16.5037 19.8601C16.394 19.9755 16.2622 20.0677 16.1162 20.1313C15.9702 20.1948 15.8129 20.2284 15.6537 20.2301H14.0037C13.7859 20.2279 13.5738 20.1598 13.3953 20.0349C13.2168 19.91 13.0803 19.734 13.0037 19.5301L12.3437 17.8401L12.2437 18.0301C11.864 18.6923 11.3577 19.2733 10.7537 19.7401C9.79153 20.4521 8.62038 20.8249 7.42368 20.8001ZM6.72367 10.6701C5.6088 10.8296 4.5894 11.3874 3.85404 12.2404C3.11869 13.0934 2.71716 14.1839 2.72367 15.3101C2.72421 16.429 3.12389 17.511 3.85087 18.3615C4.57785 19.2121 5.58445 19.7754 6.68961 19.9501C7.79478 20.1249 8.92605 19.8996 9.87998 19.3149C10.8339 18.7301 11.5479 17.8242 11.8937 16.7601L11.6737 16.1401H10.6737V16.2101C10.5144 16.7757 10.2074 17.2888 9.78422 17.6965C9.36104 18.1042 8.8369 18.3919 8.26573 18.5301C7.69455 18.6682 7.09689 18.6518 6.53416 18.4825C5.97142 18.3132 5.46394 17.9972 5.06376 17.5669C4.66358 17.1366 4.38515 16.6075 4.25712 16.034C4.12909 15.4604 4.15606 14.8632 4.33524 14.3035C4.51443 13.7438 4.83938 13.242 5.27671 12.8495C5.71404 12.457 6.24801 12.188 6.82371 12.0701H6.90366V10.6701H6.72367ZM8.72367 7.8801C8.41509 7.90053 8.12602 8.03834 7.91587 8.26523C7.70572 8.49212 7.59044 8.79086 7.59367 9.1001V14.1501C7.59235 14.3072 7.62216 14.463 7.68137 14.6086C7.74059 14.7541 7.82807 14.8865 7.9387 14.998C8.04933 15.1096 8.18093 15.1981 8.32597 15.2585C8.471 15.319 8.62655 15.3501 8.78367 15.3501H11.9037C11.9832 15.3503 12.0609 15.3741 12.1268 15.4186C12.1927 15.4632 12.2438 15.5264 12.2737 15.6001L13.6737 19.1901C13.696 19.2489 13.7357 19.2996 13.7875 19.3353C13.8393 19.371 13.9007 19.3901 13.9637 19.3901H15.6137C15.6648 19.3917 15.7156 19.3817 15.7624 19.361C15.8091 19.3402 15.8506 19.3091 15.8837 19.2701C15.9188 19.2329 15.9458 19.1888 15.9631 19.1406C15.9803 19.0924 15.9873 19.0411 15.9837 18.9901C15.9713 18.8964 15.9245 18.8108 15.8524 18.7498C15.7803 18.6887 15.6881 18.6568 15.5937 18.6601H14.8737C14.793 18.6591 14.7145 18.6338 14.6484 18.5874C14.5824 18.541 14.5319 18.4757 14.5037 18.4001L13.1037 14.6101C12.9981 14.3199 12.8066 14.0688 12.5547 13.8901C12.3028 13.7115 12.0025 13.6138 11.6937 13.6101H10.3837C10.2776 13.6101 10.1759 13.5679 10.1009 13.4929C10.0259 13.4179 9.98368 13.3162 9.98368 13.2101V11.3401C9.98629 11.2357 10.0296 11.1366 10.1043 11.0637C10.179 10.9908 10.2793 10.95 10.3837 10.9501H13.2737C13.3501 10.9605 13.4278 10.9546 13.5017 10.9325C13.5756 10.9104 13.6438 10.8727 13.7019 10.822C13.76 10.7713 13.8066 10.7088 13.8385 10.6386C13.8705 10.5684 13.887 10.4922 13.887 10.4151C13.887 10.338 13.8705 10.2618 13.8385 10.1916C13.8066 10.1214 13.76 10.0588 13.7019 10.0081C13.6438 9.95746 13.5756 9.9198 13.5017 9.89771C13.4278 9.87562 13.3501 9.86963 13.2737 9.8801H10.3837C10.2793 9.88013 10.179 9.83935 10.1043 9.76648C10.0296 9.69361 9.98629 9.59443 9.98368 9.49008V9.0401C9.98504 8.8826 9.95483 8.72643 9.89488 8.58078C9.83492 8.43513 9.74646 8.30295 9.63462 8.19205C9.52279 8.08114 9.3899 7.99376 9.24375 7.93503C9.09761 7.8763 8.94115 7.84742 8.78367 7.8501H8.72367V7.8801ZM6.72367 12.8801C6.14031 13.0495 5.63776 13.4239 5.30857 13.9345C4.97938 14.445 4.84569 15.0573 4.93211 15.6586C5.01853 16.2599 5.31926 16.8097 5.77891 17.2069C6.23856 17.604 6.82623 17.8218 7.43369 17.8201C7.93382 17.8241 8.42356 17.6775 8.83915 17.3992C9.25474 17.121 9.57693 16.724 9.76371 16.2601L9.82371 16.1301H8.82371C8.29328 16.1301 7.78454 15.9194 7.40946 15.5443C7.03439 15.1692 6.82371 14.6605 6.82371 14.1301V12.9001L6.72367 12.8801ZM8.83366 4.48007C8.57654 4.48007 8.32521 4.55634 8.11143 4.69919C7.89764 4.84203 7.73106 5.04505 7.63267 5.28259C7.53427 5.52014 7.50847 5.78152 7.55863 6.03369C7.60879 6.28587 7.73266 6.5175 7.91447 6.69931C8.09628 6.88112 8.32788 7.00495 8.58006 7.05512C8.83223 7.10528 9.09361 7.07954 9.33115 6.98114C9.5687 6.88275 9.77174 6.7161 9.91459 6.50232C10.0574 6.28854 10.1337 6.03721 10.1337 5.78009C10.1324 5.60937 10.0975 5.44058 10.0309 5.28336C9.96438 5.12613 9.86753 4.98356 9.74589 4.86377C9.62424 4.74398 9.48017 4.64932 9.32194 4.58521C9.16371 4.52109 8.99443 4.48876 8.82371 4.49008L8.83366 4.48007Z" fill="#757575"/>
</svg>
