<svg width="24" height="24" viewBox="0 0 24 24" fill="none" xmlns="http://www.w3.org/2000/svg">
<path d="M3.5 12C3.5 11.1716 4.17157 10.5 5 10.5H19C19.8284 10.5 20.5 11.1716 20.5 12V13C20.5 13.2761 20.2761 13.5 20 13.5H4C3.72386 13.5 3.5 13.2761 3.5 13V12Z" stroke="#757575" stroke-linecap="round" stroke-linejoin="round"/>
<path d="M5.5 13.5H18.5V14C18.5 16.4853 16.4853 18.5 14 18.5H10C7.51472 18.5 5.5 16.4853 5.5 14V13.5Z" stroke="#757575" stroke-linecap="round" stroke-linejoin="round"/>
<path d="M11.5 18.5H13.5V20.5C13.5 21.0523 13.0523 21.5 12.5 21.5C11.9477 21.5 11.5 21.0523 11.5 20.5V18.5Z" stroke="#757575"/>
<line x1="6.5" y1="9.5" x2="8.5" y2="9.5" stroke="#757575" stroke-linecap="round"/>
<line x1="15.5" y1="9.5" x2="17.5" y2="9.5" stroke="#757575" stroke-linecap="round"/>
<path d="M12 10.5V5.5C12 4.11929 13.1193 3 14.5 3V3C15.8807 3 17 4.11929 17 5.5V6" stroke="#757575" stroke-linecap="round"/>
</svg>
