<svg width="24" height="24" viewBox="0 0 24 24" fill="none" xmlns="http://www.w3.org/2000/svg">
<path d="M14 21L13 15H20L19 21H14Z" stroke="#757575" stroke-linejoin="round"/>
<path d="M5.5 10C5.5 8.61929 6.61929 7.5 8 7.5H9C10.3807 7.5 11.5 8.61929 11.5 10V20.5H5.5V10Z" stroke="#757575"/>
<path d="M11.5 22V13C11.5 11.3431 12.8431 10 14.5 10V10C16.1569 10 17.5 11.3431 17.5 13V15" stroke="#757575"/>
<line x1="4.5" y1="21.5" x2="19.5" y2="21.5" stroke="#757575" stroke-linecap="round"/>
<path d="M7.5 3C7.5 2.72386 7.72386 2.5 8 2.5H9C9.27614 2.5 9.5 2.72386 9.5 3V7.5H7.5V3Z" stroke="#757575"/>
<line x1="8" y1="3.5" x2="9" y2="3.5" stroke="#757575"/>
<path d="M13.5 6C13.5 5.72386 13.7239 5.5 14 5.5H15C15.2761 5.5 15.5 5.72386 15.5 6V9.5H13.5V6Z" stroke="#757575"/>
<line x1="14" y1="6.5" x2="15" y2="6.5" stroke="#757575"/>
<path d="M6 11.5H5.5V12V21V21.5H6H8H8.5V21V13C8.5 12.1716 7.82843 11.5 7 11.5H6Z" stroke="#757575"/>
</svg>
