<svg width="24" height="24" viewBox="0 0 24 24" fill="none" xmlns="http://www.w3.org/2000/svg">
<path d="M10 18H19C19.5 18 20.2 17.6 19 16C17.8 14.4 16.5 12.6667 16 12C15.6667 11.5 14.8 10.8 14 12C13.7037 12.4445 13.2152 13.1773 12.6667 14M10 18H5.00005C4.66672 18 3.70009 17.6 4.50009 16L8.00006 10C8.33339 9.50001 9.20006 8.80001 10.0001 10C10.686 11.0289 11.9111 12.8666 12.6667 14M10 18C10.6296 17.0557 11.7347 15.398 12.6667 14" stroke="#757575"/>
<path d="M6.5 13L7.5 14.5C7.66667 14.6667 8.1 14.9 8.5 14.5C9 14 9 13.5 9.5 13.5C9.9 13.5 10.6667 12.1667 11 11.5" stroke="#757575"/>
<path d="M12.5 15L13.5 16C13.8333 16.3333 14.6 16.8 15 16C15.5 15 16 15 18.5 15" stroke="#757575"/>
<circle cx="14" cy="8" r="1.5" stroke="#757575"/>
</svg>
