<svg width="24" height="24" viewBox="0 0 24 24" fill="none" xmlns="http://www.w3.org/2000/svg">
<path d="M5.98659 17.9005C5.79906 17.5 5.76265 16.8837 5.97993 16.1403L5.97994 16.1403C6.1984 15.3931 6.65135 14.4867 7.49821 13.7689C8.33748 13.0576 9.60004 12.5 11.5001 12.5C12.8183 12.5 14.3436 13.0113 15.5349 13.8576C16.7328 14.7086 17.5 15.8263 17.5 17C17.5 17.2787 17.4286 17.645 17.1775 17.9356C16.9395 18.2111 16.4693 18.5 15.5 18.5C14.7287 18.5 14.2087 18.1972 13.6395 17.8299C13.6035 17.8067 13.5671 17.783 13.5301 17.7589C13.0002 17.4141 12.3637 17 11.5001 17C10.6515 17 9.88436 17.4016 9.22406 17.7473C9.18586 17.7673 9.14802 17.7871 9.11053 17.8066C8.38166 18.1865 7.73372 18.5 7 18.5C6.47264 18.5 6.15776 18.266 5.98659 17.9005Z" stroke="#757575" stroke-linecap="round" stroke-linejoin="round"/>
<path d="M6.6009 11.2254C6.9953 12.055 6.7081 12.7924 6.26753 13.0019C5.82696 13.2113 5.07378 12.9685 4.67938 12.1389C4.28498 11.3093 4.57217 10.5719 5.01275 10.3624C5.45332 10.153 6.20649 10.3958 6.6009 11.2254Z" stroke="#757575"/>
<path d="M11.2325 7.45358C11.6964 8.86355 11.0771 10.1745 10.0707 10.5056C9.06437 10.8368 7.78756 10.1498 7.32358 8.73988C6.85961 7.3299 7.47899 6.019 8.48534 5.68784C9.49168 5.35668 10.7685 6.04361 11.2325 7.45358Z" stroke="#757575"/>
<path d="M16.4804 8.44713C16.2941 9.14537 15.9286 9.70329 15.5127 10.0474C15.0958 10.3924 14.666 10.4983 14.303 10.4014C13.9399 10.3045 13.62 9.99861 13.4304 9.4918C13.2413 8.98621 13.2023 8.32037 13.3886 7.62212C13.575 6.92388 13.9405 6.36596 14.3563 6.0218C14.7732 5.67682 15.203 5.57094 15.5661 5.66782C15.9291 5.7647 16.2491 6.07064 16.4386 6.57745C16.6278 7.08304 16.6667 7.74888 16.4804 8.44713Z" stroke="#757575"/>
<path d="M19.1244 10.824C19.6048 11.2781 19.6367 12.2135 18.96 12.9291C18.2834 13.6447 17.3477 13.6651 16.8674 13.211C16.387 12.7568 16.3551 11.8214 17.0318 11.1058C17.7084 10.3902 18.6441 10.3698 19.1244 10.824Z" stroke="#757575"/>
</svg>
