<svg width="24" height="24" viewBox="0 0 24 24" fill="none" xmlns="http://www.w3.org/2000/svg">
<path d="M14.5 10.5H19.5V13C19.5 14.3807 18.3807 15.5 17 15.5C15.6193 15.5 14.5 14.3807 14.5 13V10.5Z" stroke="#757575"/>
<path d="M15 21H19" stroke="#757575" stroke-linecap="round"/>
<path d="M17 15.5V21" stroke="#757575" stroke-linecap="round"/>
<path d="M15 9V7C15 6.44772 14.5523 6 14 6H5C4.44772 6 4 6.44772 4 7V20C4 20.5523 4.44772 21 5 21H13" stroke="#757575" stroke-linecap="round"/>
<path d="M4.5 6L13 3V6" stroke="#757575" stroke-linecap="round" stroke-linejoin="round"/>
<path d="M7 19H12" stroke="#757575" stroke-linecap="round"/>
<path d="M11.5 9.5C11.5 9.66958 11.3828 9.90853 11.0105 10.1319C10.6482 10.3493 10.1153 10.5 9.5 10.5C8.88468 10.5 8.35183 10.3493 7.98948 10.1319C7.61718 9.90853 7.5 9.66958 7.5 9.5C7.5 9.33042 7.61718 9.09147 7.98948 8.86809C8.35183 8.65068 8.88468 8.5 9.5 8.5C10.1153 8.5 10.6482 8.65068 11.0105 8.86809C11.3828 9.09147 11.5 9.33042 11.5 9.5Z" stroke="#757575"/>
</svg>
