<svg width="24" height="24" viewBox="0 0 24 24" fill="none" xmlns="http://www.w3.org/2000/svg">
<path d="M24 0H0V24H24V0Z" fill="#EAEAEA"/>
<path d="M2.74002 21.8V20C2.69721 19.377 2.7884 18.752 3.00748 18.1673C3.22655 17.5825 3.5684 17.0515 4.01001 16.61C4.37811 16.245 4.7996 15.9382 5.26001 15.7C5.91223 15.4142 6.61798 15.271 7.33002 15.28H9.23001C9.23001 15.28 9.29001 15.28 9.34001 15.28C9.3978 15.2813 9.45528 15.2712 9.50917 15.2503C9.56306 15.2294 9.61231 15.1981 9.6541 15.1582C9.69589 15.1183 9.72941 15.0705 9.75273 15.0176C9.77605 14.9647 9.78871 14.9078 9.79001 14.85V14.75C10.06 14.18 10.02 14.06 9.52002 13.8C8.96545 13.4576 8.47198 13.025 8.06001 12.52L7.74002 12.06L7.57002 11.74C7.31427 11.2291 7.13564 10.6832 7.04001 10.12L6.99002 9.41998C6.9894 9.02782 7.02285 8.63634 7.09001 8.24997C7.33003 7.03031 8.00975 5.94134 9.00001 5.18997C9.06307 5.14841 9.1127 5.08943 9.14288 5.0202C9.17306 4.95097 9.18248 4.87444 9.17001 4.79996C9.16505 4.71003 9.16505 4.6199 9.17001 4.52997V4.39996C9.17919 4.13682 9.21606 3.87538 9.28001 3.61996L9.36001 3.38998C9.53049 2.93767 9.80772 2.53323 10.1681 2.21112C10.5285 1.88901 10.9615 1.65877 11.43 1.53998C11.5406 1.53238 11.6489 1.50528 11.75 1.45996H12.41H12.53C13.0956 1.52924 13.6298 1.75817 14.07 2.11996L14.45 2.50998C14.8798 3.05883 15.1185 3.73298 15.13 4.42996C15.1334 4.47323 15.1334 4.5167 15.13 4.55997C15.0786 4.70452 15.0866 4.86357 15.1522 5.00226C15.2178 5.14095 15.3357 5.24798 15.48 5.29996C15.948 5.72889 16.3461 6.22824 16.66 6.77997L16.9 7.27997C17.177 8.01022 17.2996 8.78997 17.26 9.56998C17.2425 9.86539 17.2057 10.1593 17.15 10.45L17.09 10.64C17.0524 10.7828 17.0056 10.9231 16.95 11.06C16.5391 12.2123 15.7307 13.1803 14.67 13.79C14.6205 13.8111 14.576 13.8424 14.5395 13.882C14.5031 13.9215 14.4754 13.9684 14.4584 14.0194C14.4414 14.0705 14.4354 14.1246 14.4408 14.1781C14.4463 14.2316 14.4631 14.2834 14.49 14.33C14.56 14.49 14.61 14.65 14.67 14.81L14.73 14.98C14.7479 15.054 14.7902 15.1199 14.8501 15.167C14.9099 15.2142 14.9838 15.2399 15.06 15.24H17.06C17.7054 15.2269 18.3472 15.339 18.95 15.57L19.47 15.82C20.0012 16.1503 20.4714 16.5698 20.86 17.06L21.16 17.54C21.5001 18.2102 21.6847 18.9485 21.7 19.7C21.6851 19.9598 21.6851 20.2202 21.7 20.48C21.7 20.89 21.7 21.33 21.7 21.76L2.74002 21.8ZM7.37001 19.37C7.04001 19.37 7.00001 19.59 6.95001 19.84V20.13C6.93399 20.2652 6.90723 20.399 6.87001 20.53C6.84348 20.5845 6.8297 20.6443 6.8297 20.705C6.8297 20.7656 6.84348 20.8255 6.87001 20.88L6.93001 20.96H7.12001H7.25001H17.4H17.5C17.5 20.96 17.62 20.87 17.64 20.82C17.6278 20.4248 17.5707 20.0323 17.47 19.65C17.4701 19.6141 17.4628 19.5785 17.4485 19.5456C17.4342 19.5127 17.4132 19.4831 17.3869 19.4587C17.3606 19.4343 17.3296 19.4155 17.2957 19.4037C17.2618 19.3919 17.2258 19.3872 17.19 19.39H7.37001V19.37ZM7.09001 16.12C6.15023 16.1279 5.25193 16.5081 4.59209 17.1774C3.93224 17.8466 3.56469 18.7502 3.57002 19.69V20.46C3.5528 20.5273 3.54922 20.5973 3.55952 20.666C3.56983 20.7347 3.59381 20.8007 3.63002 20.86C3.67237 20.907 3.72527 20.9433 3.78438 20.9659C3.84348 20.9885 3.9071 20.9967 3.97002 20.99H5.60002C5.64627 20.9955 5.69316 20.9915 5.73779 20.9781C5.78242 20.9648 5.82385 20.9424 5.85948 20.9124C5.89511 20.8824 5.92419 20.8455 5.94493 20.8037C5.96567 20.762 5.9776 20.7165 5.98001 20.67L6.14001 19.75C6.21001 19.35 6.28001 18.96 6.34001 18.56H16.92C17.3023 18.5198 17.6877 18.5198 18.07 18.56C18.32 18.73 18.45 20.56 18.46 20.69C18.4611 20.7347 18.4715 20.7788 18.4906 20.8193C18.5098 20.8598 18.5372 20.8958 18.5711 20.925C18.6051 20.9542 18.6447 20.976 18.6876 20.9889C18.7305 21.0018 18.7756 21.0056 18.82 21H20.58C20.6256 21.0025 20.6712 20.9959 20.7142 20.9804C20.7571 20.9649 20.7965 20.941 20.83 20.91C20.8603 20.8763 20.883 20.8366 20.8968 20.7935C20.9106 20.7505 20.9151 20.7049 20.91 20.66V20.21C20.91 20.01 20.91 19.8 20.91 19.6C20.9095 19.1721 20.8174 18.7493 20.64 18.36C20.5866 18.17 20.4947 17.993 20.37 17.84C19.9894 17.1697 19.3835 16.6559 18.66 16.39C18.4552 16.2896 18.2358 16.2221 18.01 16.19H17.8C17.38 16.19 16.97 16.19 16.55 16.19H14.35C14.28 16.19 14.24 16.19 14.19 16.01C14.14 15.83 14.03 15.54 13.94 15.3C13.85 15.06 13.79 14.92 13.73 14.72C13.67 14.52 13.51 14.44 13.4 14.44C13.33 14.4374 13.2606 14.4547 13.2 14.49L12.37 14.59H12.29C11.9278 14.5992 11.5657 14.569 11.21 14.5H11.09C11.0082 14.5041 10.93 14.5346 10.8669 14.5869C10.8038 14.6391 10.7593 14.7104 10.74 14.79C10.67 15 10.59 15.21 10.52 15.41L10.25 16.15L9.75001 16.2H7.53001H7.12001L7.09001 16.12ZM11.91 7.71997C11.7337 7.91032 11.5317 8.07522 11.31 8.20996C11.1441 8.28948 10.9738 8.35961 10.8 8.41998L8.14001 9.30997C7.93001 9.37997 7.84001 9.49997 7.86001 9.68997C7.89609 10.2979 8.07052 10.8897 8.37001 11.42C8.43703 11.5984 8.53903 11.7616 8.67001 11.9C9.07626 12.5048 9.64461 12.9831 10.31 13.28C10.5132 13.3947 10.7323 13.479 10.96 13.53H11.07C11.9227 13.7451 12.8208 13.6937 13.6433 13.3825C14.4658 13.0714 15.1732 12.5156 15.67 11.79C16.0887 11.177 16.3465 10.4686 16.42 9.72998C16.49 9.41998 16.32 9.31998 16.21 9.28998L15.81 9.15997C15.5785 9.06835 15.3413 8.99152 15.1 8.92996C14.9205 8.84725 14.7328 8.78356 14.54 8.73996L14.31 8.64996L13.87 8.50998C13.414 8.38807 12.9838 8.1848 12.6 7.90997L12.54 7.84998L12.37 7.67996L12.31 7.60995H12.15H12.05L11.91 7.71997ZM12.63 5.08997L12.57 5.14996V5.30997V5.61996C12.57 5.81996 12.57 6.01997 12.57 6.21997C12.5821 6.51356 12.6911 6.79486 12.88 7.01996C12.9763 7.18672 13.1186 7.32216 13.29 7.40997C13.3719 7.49387 13.4759 7.5528 13.59 7.57996L15.4 8.18997L16.4 8.53998L16.3 8.16998C16.2567 7.96022 16.1826 7.75802 16.08 7.56998C15.8079 6.87427 15.3387 6.27304 14.73 5.83997C14.5754 5.70024 14.4 5.58552 14.21 5.49997C13.8034 5.26198 13.3556 5.10254 12.89 5.02997H12.73L12.63 5.08997ZM11.48 5.00998C11.192 5.05385 10.9102 5.13101 10.64 5.23996C10.0627 5.45079 9.53878 5.78574 9.10509 6.22116C8.67139 6.65658 8.33855 7.18188 8.13002 7.75998C8.05948 7.90012 8.01862 8.0533 8.01001 8.20996V8.50998L9.28001 8.05997C9.79913 7.91866 10.3099 7.74839 10.81 7.54996C11.0436 7.45484 11.2495 7.30236 11.4086 7.1066C11.5676 6.91083 11.6747 6.6781 11.72 6.42996C11.7545 6.1979 11.7545 5.96204 11.72 5.72998V5.52997C11.7445 5.40785 11.7445 5.28209 11.72 5.15997V4.97998L11.48 5.00998ZM12.18 2.27997C11.8695 2.28408 11.5631 2.35218 11.28 2.47998C10.9217 2.63604 10.613 2.88722 10.3874 3.2063C10.1617 3.52537 10.0278 3.90016 10 4.28998V4.60995L10.31 4.49997C10.6333 4.37388 10.9683 4.28009 11.31 4.21997C11.641 4.16966 11.9752 4.14294 12.31 4.13998L13.03 4.21997C13.371 4.28358 13.7056 4.37728 14.03 4.49997L14.33 4.60995V4.28998C14.3076 3.88254 14.161 3.49173 13.91 3.16998C13.7906 2.98887 13.6337 2.83542 13.45 2.71997C13.0901 2.43119 12.6414 2.27574 12.18 2.27997Z" fill="#010101"/>
</svg>
