<svg width="24" height="24" viewBox="0 0 24 24" fill="none" xmlns="http://www.w3.org/2000/svg">
<rect x="6.5" y="16.5" width="11" height="2" rx="1" stroke="#757575"/>
<path d="M4.5 11.5H6.5V16.5C6.5 17.0523 6.05228 17.5 5.5 17.5C4.94772 17.5 4.5 17.0523 4.5 16.5V11.5Z" stroke="#757575"/>
<path d="M17.5 11.5H19.5V16.5C19.5 17.0523 19.0523 17.5 18.5 17.5C17.9477 17.5 17.5 17.0523 17.5 16.5V11.5Z" stroke="#757575"/>
<path d="M7.38182 4.90643C7.43123 4.11588 8.08681 3.5 8.8789 3.5H15.1211C15.9132 3.5 16.5688 4.11588 16.6182 4.90643L17.3682 16.9064C17.4221 17.77 16.7363 18.5 15.8711 18.5H8.1289C7.26367 18.5 6.57785 17.77 6.63182 16.9064L7.38182 4.90643Z" stroke="#757575"/>
<path d="M8 19V20.7143M16 19V20.7143M6 21H18" stroke="#757575" stroke-linecap="round"/>
</svg>
