<svg width="24" height="24" viewBox="0 0 24 24" fill="none" xmlns="http://www.w3.org/2000/svg">
<path d="M7 12.7676C5.17107 13.4091 4 14.3947 4 15.5C4 17.433 7.58172 19 12 19C16.4183 19 20 17.433 20 15.5C20 14.3947 18.8289 13.4091 17 12.7676" stroke="#757575" stroke-linecap="round"/>
<path d="M8 13.7998C7.37209 14.1341 7 14.5497 7 15C7 16.1046 9.23858 17 12 17C14.7614 17 17 16.1046 17 15C17 14.5497 16.6279 14.1341 16 13.7998" stroke="#757575" stroke-linecap="round"/>
<path d="M10.8774 12.9562C9.85006 10.2649 9.28297 5.02657 15.2337 5.60374C16.1209 6.53393 18.9083 11.6914 10.8774 12.9562Z" stroke="#757575" stroke-linecap="round"/>
<path d="M10.2476 14L13.7476 8" stroke="#757575" stroke-linecap="round"/>
<path d="M13.2476 9H14.7476" stroke="#757575" stroke-linecap="round"/>
<path d="M12.2476 10.5L11.7476 9" stroke="#757575" stroke-linecap="round"/>
</svg>
