<svg width="24" height="24" viewBox="0 0 24 24" fill="none" xmlns="http://www.w3.org/2000/svg">
<path d="M14 16.5V7.5C14 6.11929 15.1193 5 16.5 5V5C17.8807 5 19 6.11929 19 7.5V10" stroke="#757575" stroke-linecap="round"/>
<path d="M9 16.5V7.5C9 6.11929 10.1193 5 11.5 5V5C12.8807 5 14 6.11929 14 7.5V10" stroke="#757575"/>
<path d="M4 16C5 16 5 17 6 17C7 17 7 16 8 16C9 16 9 17 10 17C11 17 11 16 12 16C13 16 13 17 14 17C15 17 15 16 16 16C17 16 17 17 18 17C19 17 19 16 20 16" stroke="#757575" stroke-linecap="round"/>
<path d="M4 18.5C5 18.5 5 19.5 6 19.5C7 19.5 7 18.5 8 18.5C9 18.5 9 19.5 10 19.5C11 19.5 11 18.5 12 18.5C13 18.5 13 19.5 14 19.5C15 19.5 15 18.5 16 18.5C17 18.5 17 19.5 18 19.5C19 19.5 19 18.5 20 18.5" stroke="#757575" stroke-linecap="round"/>
<line x1="9" y1="10.5" x2="14" y2="10.5" stroke="#757575"/>
<line x1="9" y1="13.5" x2="14" y2="13.5" stroke="#757575"/>
</svg>
