<svg width="24" height="24" viewBox="0 0 24 24" fill="none" xmlns="http://www.w3.org/2000/svg">
<path d="M15 15.5L19 20" stroke="#757575" stroke-linecap="round"/>
<path d="M9 15.5L5 20" stroke="#757575" stroke-linecap="round"/>
<path d="M10 17L8 19.5" stroke="#757575" stroke-linecap="round"/>
<path d="M9 18.5H15" stroke="#757575" stroke-linecap="round"/>
<path d="M14 17L16 19.5" stroke="#757575" stroke-linecap="round"/>
<path fill-rule="evenodd" clip-rule="evenodd" d="M10 5C8.34315 5 7 6.34315 7 8V15C7 15.5523 7.44772 16 8 16H16C16.5523 16 17 15.5523 17 15V8C17 6.34315 15.6569 5 14 5H10ZM10 7H14C14.5523 7 15 7.44772 15 8V10H9V8C9 7.44772 9.44772 7 10 7ZM8 8C8 6.89543 8.89543 6 10 6H14C15.1046 6 16 6.89543 16 8V10C16 10.5523 15.5523 11 15 11H9C8.44772 11 8 10.5523 8 10V8ZM10 14C10 14.5523 9.55228 15 9 15C8.44772 15 8 14.5523 8 14C8 13.4477 8.44772 13 9 13C9.55228 13 10 13.4477 10 14ZM15 15C15.5523 15 16 14.5523 16 14C16 13.4477 15.5523 13 15 13C14.4477 13 14 13.4477 14 14C14 14.5523 14.4477 15 15 15Z" fill="#757575"/>
</svg>
