<svg width="24" height="24" viewBox="0 0 24 24" fill="none" xmlns="http://www.w3.org/2000/svg">
<path d="M13.567 17.5406C11.9175 16.9871 11.3814 16.473 11.3814 15.445C11.3814 15.3264 11.3814 15.2473 11.4227 15.1682C11.5464 14.8519 11.9175 14.8124 12.0825 13.9029C12.1649 13.4285 12.6186 13.9029 12.701 12.8354C12.701 12.4004 12.4536 12.2818 12.4536 12.2818C12.4536 12.2818 12.5773 11.6492 12.6186 11.1747C12.7423 10.5816 12.3299 9 10.0206 9C10.0206 9 10.0206 9 9.97938 9C9.97938 9 9.97938 9 9.93814 9C7.6701 9 7.25773 10.5816 7.29897 11.1747C7.34021 11.6492 7.46392 12.2818 7.46392 12.2818C7.46392 12.2818 7.21649 12.4004 7.21649 12.8354C7.29897 13.9029 7.75258 13.4285 7.83505 13.9029C8 14.8124 8.37113 14.8519 8.49484 15.1682C8.53608 15.2473 8.53608 15.3264 8.53608 15.445C8.53608 16.473 8 16.9475 6.35052 17.5406C4.74227 18.0942 4 18.6873 4 19.0827V20H16V19.0827C16 18.6873 15.2165 18.0942 13.567 17.5406Z" fill="#757575"/>
<path d="M14.5 8V7.5H14H13C12.9133 7.5 12.7722 7.46989 12.6672 7.39423C12.5876 7.33693 12.5 7.23704 12.5 7V5C12.5 4.91334 12.5301 4.77223 12.6058 4.66715C12.6631 4.58757 12.763 4.5 13 4.5H19C19.0867 4.5 19.2278 4.53011 19.3328 4.60577C19.4124 4.66307 19.5 4.76296 19.5 5V7C19.5 7.08666 19.4699 7.22777 19.3942 7.33285C19.3369 7.41243 19.237 7.5 19 7.5H16H15.7929L15.6464 7.64645L14.5 8.79289V8Z" stroke="#757575"/>
</svg>
