<svg width="24" height="24" viewBox="0 0 24 24" fill="none" xmlns="http://www.w3.org/2000/svg">
<path d="M5.5 7.5H8.5V10C8.5 10.8284 7.82843 11.5 7 11.5C6.17157 11.5 5.5 10.8284 5.5 10V7.5Z" stroke="#757575" stroke-linecap="round"/>
<rect x="6.5" y="6.5" width="1" height="1" stroke="#757575" stroke-linecap="round"/>
<path d="M18.5 16.5L15.5 16.5L15.5 14C15.5 13.1716 16.1716 12.5 17 12.5C17.8284 12.5 18.5 13.1716 18.5 14L18.5 16.5Z" stroke="#757575" stroke-linecap="round"/>
<rect x="17.5" y="17.5" width="1" height="1" transform="rotate(-180 17.5 17.5)" stroke="#757575" stroke-linecap="round"/>
<path d="M7 13V16.5C7 17.8807 8.11929 19 9.5 19V19C10.8807 19 12 17.8807 12 16.5V13" stroke="#757575" stroke-linecap="round"/>
<path d="M17 11L17 7.5C17 6.11929 15.8807 5 14.5 5V5C13.1193 5 12 6.11929 12 7.5L12 14" stroke="#757575" stroke-linecap="round"/>
</svg>
