<svg width="24" height="24" viewBox="0 0 24 24" fill="none" xmlns="http://www.w3.org/2000/svg">
<path d="M17.5 16H20L17 20H4V16H6.5" stroke="#757575" stroke-linecap="round" stroke-linejoin="round"/>
<path d="M13 4V13.5C15.5 13 17 11.5 17 9.5C17 6.3 14.3333 4.5 13 4Z" stroke="#757575"/>
<path d="M7.95428 13H11V8.60063L7.95428 13Z" stroke="#757575"/>
<path d="M16.8873 16.5C17.0301 16.3118 17.168 16.0997 17.2772 15.8837C17.426 15.5895 17.5013 15.3282 17.5 15.1284C17.4988 14.956 17.4447 14.8374 17.3029 14.7392C17.1302 14.6197 16.7796 14.5 16.1159 14.5H7.05207C7.02561 14.5169 6.93907 14.5838 6.83215 14.8121C6.69028 15.115 6.55051 15.6405 6.51101 16.5H16.8873Z" stroke="#757575"/>
</svg>
