<svg width="568" height="354" viewBox="0 0 568 354" fill="none" xmlns="http://www.w3.org/2000/svg">
<g clip-path="url(#clip0)">
<rect width="568" height="354" fill="white"/>
<rect width="1200" height="675" fill="#F5F5F5"/>
<path d="M231.627 216.374H228.423L216.254 197.747V216.374H213.05V192.202H216.254L228.456 210.912V192.202H231.627V216.374ZM236.243 207.226C236.243 205.466 236.586 203.884 237.273 202.478C237.97 201.072 238.933 199.988 240.161 199.224C241.401 198.46 242.812 198.079 244.395 198.079C246.841 198.079 248.816 198.925 250.321 200.619C251.838 202.312 252.596 204.564 252.596 207.375V207.591C252.596 209.34 252.258 210.912 251.583 212.306C250.919 213.69 249.962 214.769 248.711 215.543C247.471 216.318 246.044 216.706 244.428 216.706C241.993 216.706 240.017 215.859 238.501 214.166C236.996 212.472 236.243 210.231 236.243 207.442V207.226ZM239.331 207.591C239.331 209.583 239.79 211.183 240.709 212.389C241.639 213.596 242.878 214.199 244.428 214.199C245.988 214.199 247.228 213.59 248.147 212.373C249.065 211.144 249.525 209.429 249.525 207.226C249.525 205.256 249.054 203.662 248.113 202.445C247.184 201.216 245.944 200.602 244.395 200.602C242.878 200.602 241.655 201.205 240.726 202.412C239.796 203.618 239.331 205.345 239.331 207.591ZM268.718 216.374H265.647V198.411H268.718V216.374ZM265.398 193.646C265.398 193.148 265.547 192.727 265.846 192.384C266.156 192.041 266.609 191.87 267.207 191.87C267.805 191.87 268.259 192.041 268.568 192.384C268.878 192.727 269.033 193.148 269.033 193.646C269.033 194.144 268.878 194.559 268.568 194.891C268.259 195.223 267.805 195.389 267.207 195.389C266.609 195.389 266.156 195.223 265.846 194.891C265.547 194.559 265.398 194.144 265.398 193.646ZM276.787 198.411L276.87 200.403C278.187 198.853 279.964 198.079 282.199 198.079C284.712 198.079 286.422 199.042 287.329 200.967C287.927 200.104 288.702 199.407 289.653 198.875C290.616 198.344 291.751 198.079 293.057 198.079C296.997 198.079 299 200.165 299.067 204.337V216.374H295.995V204.52C295.995 203.236 295.702 202.279 295.115 201.648C294.529 201.006 293.544 200.685 292.16 200.685C291.02 200.685 290.074 201.028 289.321 201.714C288.569 202.389 288.132 203.303 288.01 204.454V216.374H284.922V204.603C284.922 201.991 283.644 200.685 281.087 200.685C279.073 200.685 277.695 201.543 276.953 203.258V216.374H273.882V198.411H276.787ZM315.055 216.374C314.878 216.019 314.734 215.389 314.623 214.481C313.195 215.964 311.491 216.706 309.51 216.706C307.739 216.706 306.284 216.208 305.144 215.211C304.015 214.204 303.45 212.931 303.45 211.393C303.45 209.523 304.159 208.073 305.575 207.043C307.003 206.003 309.006 205.483 311.585 205.483H314.573V204.072C314.573 202.998 314.252 202.146 313.61 201.515C312.969 200.873 312.022 200.552 310.772 200.552C309.676 200.552 308.757 200.829 308.016 201.382C307.274 201.936 306.903 202.605 306.903 203.391H303.816C303.816 202.495 304.131 201.631 304.762 200.801C305.404 199.96 306.267 199.296 307.352 198.809C308.447 198.322 309.648 198.079 310.954 198.079C313.024 198.079 314.645 198.599 315.818 199.639C316.992 200.668 317.6 202.091 317.645 203.906V212.173C317.645 213.822 317.855 215.134 318.276 216.108V216.374H315.055ZM309.958 214.033C310.921 214.033 311.834 213.784 312.697 213.286C313.561 212.788 314.186 212.14 314.573 211.343V207.658H312.166C308.403 207.658 306.522 208.759 306.522 210.961C306.522 211.924 306.843 212.677 307.484 213.219C308.126 213.762 308.951 214.033 309.958 214.033ZM321.979 207.243C321.979 204.443 322.626 202.218 323.921 200.569C325.216 198.909 326.931 198.079 329.068 198.079C331.259 198.079 332.969 198.853 334.197 200.403L334.347 198.411H337.152V215.942C337.152 218.266 336.461 220.098 335.077 221.437C333.705 222.776 331.857 223.446 329.532 223.446C328.237 223.446 326.97 223.169 325.731 222.616C324.491 222.062 323.545 221.304 322.892 220.341L324.485 218.499C325.803 220.125 327.413 220.939 329.317 220.939C330.811 220.939 331.973 220.518 332.803 219.677C333.644 218.836 334.065 217.652 334.065 216.125V214.581C332.836 215.997 331.159 216.706 329.034 216.706C326.931 216.706 325.227 215.859 323.921 214.166C322.626 212.472 321.979 210.165 321.979 207.243ZM325.067 207.591C325.067 209.617 325.482 211.21 326.312 212.373C327.142 213.524 328.304 214.099 329.798 214.099C331.735 214.099 333.157 213.219 334.065 211.459V203.258C333.124 201.543 331.713 200.685 329.831 200.685C328.337 200.685 327.169 201.266 326.328 202.428C325.487 203.59 325.067 205.311 325.067 207.591ZM349.505 216.706C347.07 216.706 345.089 215.909 343.562 214.315C342.034 212.71 341.271 210.569 341.271 207.89V207.326C341.271 205.544 341.608 203.956 342.283 202.561C342.97 201.155 343.921 200.06 345.139 199.274C346.367 198.477 347.695 198.079 349.123 198.079C351.458 198.079 353.274 198.848 354.568 200.386C355.863 201.925 356.511 204.127 356.511 206.994V208.272H344.342C344.386 210.043 344.901 211.476 345.886 212.572C346.882 213.656 348.144 214.199 349.671 214.199C350.756 214.199 351.674 213.977 352.427 213.535C353.179 213.092 353.838 212.505 354.402 211.775L356.278 213.236C354.773 215.549 352.515 216.706 349.505 216.706ZM349.123 200.602C347.884 200.602 346.843 201.056 346.002 201.963C345.161 202.86 344.641 204.122 344.442 205.749H353.44V205.516C353.351 203.956 352.93 202.749 352.178 201.897C351.425 201.034 350.407 200.602 349.123 200.602Z" fill="#757575"/>
<rect x="260.253" y="134.331" width="47.4933" height="43.3822" rx="5.5" stroke="#757575" stroke-width="3"/>
<path d="M267.197 166.249L278.32 153.924L290.153 167.035" stroke="#757575" stroke-width="3" stroke-linecap="round" stroke-linejoin="round"/>
<path d="M291.574 152.54C294.373 152.54 296.387 150.076 296.387 147.369C296.387 144.661 294.373 142.198 291.574 142.198C288.774 142.198 286.76 144.661 286.76 147.369C286.76 150.076 288.774 152.54 291.574 152.54Z" stroke="#757575" stroke-width="3"/>
<path d="M299.62 165.2L292.757 157.596L287.313 163.627" stroke="#757575" stroke-width="3" stroke-linecap="round" stroke-linejoin="round"/>
</g>
<defs>
<clipPath id="clip0">
<rect width="568" height="354" fill="white"/>
</clipPath>
</defs>
</svg>
