<svg width="25" height="24" viewBox="0 0 25 24" fill="none" xmlns="http://www.w3.org/2000/svg">
<path d="M16.5838 5.07092C19.9761 5.55615 22.5838 8.47356 22.5838 12C22.5838 15.5265 19.9761 18.4439 16.5838 18.9291" stroke="#00AD50" stroke-linecap="round"/>
<mask id="path-2-inside-1" fill="white">
<path fill-rule="evenodd" clip-rule="evenodd" d="M10.5838 20C15.0021 20 18.5838 16.4183 18.5838 12C18.5838 7.58172 15.0021 4 10.5838 4C6.16552 4 2.5838 7.58172 2.5838 12C2.5838 16.4183 6.16552 20 10.5838 20ZM10.5838 7.99998L6.5838 12L10.5838 16L14.5838 12L10.5838 7.99998Z"/>
</mask>
<path fill-rule="evenodd" clip-rule="evenodd" d="M10.5838 20C15.0021 20 18.5838 16.4183 18.5838 12C18.5838 7.58172 15.0021 4 10.5838 4C6.16552 4 2.5838 7.58172 2.5838 12C2.5838 16.4183 6.16552 20 10.5838 20ZM10.5838 7.99998L6.5838 12L10.5838 16L14.5838 12L10.5838 7.99998Z" fill="#757575"/>
<path d="M6.5838 12L3.75537 9.17157L0.926932 12L3.75539 14.8284L6.5838 12ZM10.5838 7.99998L13.4123 5.17157L10.5838 2.34311L7.75539 5.17155L10.5838 7.99998ZM10.5838 16L7.75541 18.8284L10.5838 21.6568L13.4122 18.8284L10.5838 16ZM14.5838 12L17.4122 14.8284L20.2406 12L17.4122 9.17159L14.5838 12ZM14.5838 12C14.5838 14.2091 12.7929 16 10.5838 16V24C17.2112 24 22.5838 18.6274 22.5838 12H14.5838ZM10.5838 8C12.7929 8 14.5838 9.79086 14.5838 12H22.5838C22.5838 5.37258 17.2112 0 10.5838 0V8ZM6.5838 12C6.5838 9.79086 8.37466 8 10.5838 8V0C3.95638 0 -1.4162 5.37258 -1.4162 12H6.5838ZM10.5838 16C8.37466 16 6.5838 14.2091 6.5838 12H-1.4162C-1.4162 18.6274 3.95638 24 10.5838 24V16ZM9.41223 14.8284L13.4122 10.8284L7.75539 5.17155L3.75537 9.17157L9.41223 14.8284ZM13.4122 13.1715L9.41221 9.17156L3.75539 14.8284L7.75541 18.8284L13.4122 13.1715ZM11.7554 9.17157L7.75539 13.1716L13.4122 18.8284L17.4122 14.8284L11.7554 9.17157ZM7.75538 10.8284L11.7554 14.8284L17.4122 9.17159L13.4123 5.17157L7.75538 10.8284Z" fill="#00AD50" mask="url(#path-2-inside-1)"/>
</svg>
