<svg width="24" height="24" viewBox="0 0 24 24" fill="none" xmlns="http://www.w3.org/2000/svg">
<rect x="3.5" y="6.5" width="17" height="3" rx="1.5" stroke="#43BF75"/>
<path d="M5.95459 9.5H18.0455V18.8182C18.0455 19.747 17.2925 20.5 16.3637 20.5H7.63641C6.70757 20.5 5.95459 19.747 5.95459 18.8182V9.5Z" stroke="#43BF75"/>
<path d="M15.438 6.5H8.61838C8.78975 5.92915 9.115 5.28679 9.57905 4.7403C10.1995 4.00966 11.0225 3.5 12 3.5C12.9836 3.5 13.8567 4.01575 14.4995 4.74683C14.9912 5.30601 15.311 5.94913 15.438 6.5Z" stroke="#43BF75"/>
<line x1="9.125" y1="12.5" x2="9.125" y2="17.125" stroke="#43BF75" stroke-linecap="round"/>
<line x1="11.9375" y1="12.5" x2="11.9375" y2="17.125" stroke="#43BF75" stroke-linecap="round"/>
<line x1="14.75" y1="12.5" x2="14.75" y2="17.125" stroke="#43BF75" stroke-linecap="round"/>
</svg>
