<svg width="25" height="24" viewBox="0 0 25 24" fill="none" xmlns="http://www.w3.org/2000/svg">
<path d="M4.5 9.5C5.51509 5.61824 9.23925 3 13.5 3C18.5501 3 22 7.02944 22 12C22 16.9706 17.9061 21 12.856 21C10.6784 21 8.67855 20.2508 7.10809 19" stroke="#616161" stroke-width="2" stroke-linecap="round"/>
<path d="M3.41479 6L4.27267 10.1333L8.38845 8.2742" stroke="#616161" stroke-width="2" stroke-linecap="round" stroke-linejoin="round"/>
<path d="M5.8484 15.6206C5.84803 15.6208 5.84766 15.621 5.84724 15.6211C5.69982 15.6846 5.62563 15.8506 5.67699 16.0028C5.72841 16.1554 5.88866 16.2427 6.04479 16.2031L10.4467 15.0877L9.54725 16.3411C9.48193 16.4322 9.4853 16.5556 9.55551 16.6429C9.62571 16.7303 9.74558 16.76 9.84859 16.7157L10.7233 16.3395C10.7484 16.3286 10.7716 16.3138 10.7919 16.2955L13.4791 13.8703L16.6776 12.4881C17.8904 11.9445 17.7907 11.4511 17.7312 11.3128C17.6851 11.2056 17.5752 11.0583 17.3141 10.9657C17.0492 10.8716 16.6835 10.8509 16.1964 10.9021C16.0338 10.9193 15.9454 10.9103 15.8518 10.9009C15.5227 10.8677 15.2973 10.8735 14.1444 11.3694L7.83858 14.082L5.57216 12.687C5.48668 12.6344 5.38098 12.6267 5.28874 12.6664L4.87666 12.8436C4.79182 12.8801 4.72782 12.9527 4.70231 13.0414C4.67674 13.1302 4.69228 13.2257 4.7447 13.3017L6.23086 15.4579L5.8484 15.6206Z" fill="#616161"/>
</svg>
