<svg width="24" height="24" viewBox="0 0 24 24" fill="none" xmlns="http://www.w3.org/2000/svg">
<path d="M3.10208 9.04197C3.10142 9.04187 3.10081 9.04173 3.1001 9.04157C2.85362 8.98545 2.6051 9.12786 2.52919 9.36924C2.45297 9.6112 2.5759 9.87104 2.81134 9.96561L9.44901 12.6319L7.14079 13.3923C6.97313 13.4475 6.86282 13.6078 6.87118 13.784C6.87943 13.9604 7.00434 14.1095 7.17657 14.1488L8.63906 14.4818C8.68106 14.4913 8.72432 14.4939 8.76717 14.4895L14.4382 13.8972L19.7919 15.1071C21.8401 15.5409 22.1711 14.8205 22.2237 14.5892C22.2646 14.41 22.2615 14.1206 22.0151 13.7603C21.7653 13.3947 21.3191 13.0289 20.6516 12.642C20.4287 12.5128 20.3246 12.4194 20.2143 12.3205C19.8261 11.9728 19.5339 11.7709 17.6064 11.3319L7.0631 8.93112L5.47349 5.05201C5.41353 4.90573 5.28616 4.79781 5.13193 4.7627L4.44296 4.60576C4.30112 4.57347 4.15229 4.60644 4.03748 4.69566C3.92256 4.78488 3.85368 4.92087 3.84986 5.06623L3.73987 9.18988L3.10208 9.04197Z" fill="#616161"/>
<line x1="3" y1="19" x2="21" y2="19" stroke="#616161" stroke-width="2" stroke-linecap="round" stroke-linejoin="round"/>
</svg>
