<svg width="24" height="24" viewBox="0 0 24 24" fill="none" xmlns="http://www.w3.org/2000/svg">
<path d="M3.51162 13.9701C3.51102 13.9704 3.51045 13.9706 3.50978 13.9709C3.27756 14.0686 3.16069 14.3245 3.2416 14.559C3.3226 14.7942 3.57502 14.9287 3.82097 14.8677L10.755 13.1488L9.3381 15.0804C9.23521 15.2207 9.24052 15.411 9.35113 15.5455C9.4617 15.6801 9.65053 15.726 9.81279 15.6577L11.1906 15.0779C11.2302 15.0612 11.2667 15.0383 11.2987 15.0101L15.5316 11.2728L20.5699 9.14275C22.4805 8.30495 22.3233 7.5447 22.2296 7.33154C22.157 7.16632 21.984 6.93938 21.5726 6.79659C21.1554 6.65162 20.5793 6.61967 19.812 6.69866C19.5558 6.72504 19.4166 6.71128 19.2692 6.69669C18.7508 6.64562 18.3957 6.65452 16.5797 7.41869L6.64658 11.599L3.07647 9.44926C2.94182 9.3682 2.77532 9.35632 2.63003 9.41748L1.9809 9.69061C1.84727 9.74685 1.74645 9.85871 1.70627 9.99542C1.66599 10.1322 1.69047 10.2794 1.77304 10.3965L4.11407 13.7193L3.51162 13.9701Z" fill="#616161"/>
<line x1="3" y1="19.0869" x2="21" y2="19.0869" stroke="#616161" stroke-width="2" stroke-linecap="round" stroke-linejoin="round"/>
</svg>
