<svg width="24" height="24" viewBox="0 0 24 24" fill="none" xmlns="http://www.w3.org/2000/svg">
<circle cx="6" cy="10" r="2.5" stroke="#616161"/>
<path d="M1.5 17.3333C1.5 14.664 3.66396 12.5 6.33333 12.5H6.66667C9.33604 12.5 11.5 14.664 11.5 17.3333C11.5 17.4254 11.4254 17.5 11.3333 17.5H1.66667C1.57462 17.5 1.5 17.4254 1.5 17.3333Z" stroke="#616161"/>
<circle cx="18" cy="10" r="2.5" stroke="#616161"/>
<path d="M13.5 17C13.5 14.5147 15.5147 12.5 18 12.5C20.4853 12.5 22.5 14.5147 22.5 17V17.3333C22.5 17.4254 22.4254 17.5 22.3333 17.5H13.6667C13.5746 17.5 13.5 17.4254 13.5 17.3333V17Z" stroke="#616161"/>
<circle cx="12" cy="9" r="4" fill="#616161"/>
<path d="M5 18.2222C5 14.7858 7.78578 12 11.2222 12H12.7778C16.2142 12 19 14.7858 19 18.2222C19 18.6518 18.6518 19 18.2222 19H5.77778C5.34822 19 5 18.6518 5 18.2222Z" fill="#616161"/>
</svg>
