<svg width="16" height="16" viewBox="0 0 16 16" fill="none" xmlns="http://www.w3.org/2000/svg">
<path d="M1.53736 8.98765L3.28515 8.30082C3.4462 8.2379 3.6239 8.32778 3.68217 8.50166L3.78828 8.8159L5.81275 8.0204C5.86361 7.99997 5.91871 7.99474 5.97214 8.00536L10.1855 8.80855C10.5672 8.88209 10.8952 9.14371 11.0725 9.51614L13.0049 8.75332C13.3137 8.63092 13.6552 8.64726 13.9529 8.79858C14.3304 8.98912 14.5944 9.37119 14.6561 9.81633C14.7333 10.4608 14.3797 11.0751 13.8102 11.2858L7.4446 13.7872C7.41069 13.8007 7.37467 13.8076 7.33849 13.8076C7.30474 13.8076 7.27129 13.8015 7.23935 13.7899L5.46189 13.142L5.27284 13.2162L5.3788 13.5308C5.43707 13.7046 5.35382 13.8967 5.19277 13.9596L3.44468 14.6462C3.41093 14.6598 3.37505 14.6668 3.33903 14.6667C3.29377 14.6668 3.24897 14.656 3.20795 14.6353C3.13348 14.5977 3.07581 14.5299 3.04766 14.4465L1.35133 9.41433C1.29427 9.24111 1.37737 9.05057 1.53736 8.98765ZM5.35216 12.4736C5.4183 12.4476 5.49065 12.4468 5.5574 12.4712L7.33456 13.1191L13.5983 10.6576C13.8881 10.5535 14.0729 10.2469 14.0437 9.91863C14.0141 9.69426 13.8812 9.50127 13.6906 9.406C13.542 9.33017 13.3712 9.32184 13.217 9.38328L11.2048 10.1737C11.204 10.2353 11.1998 10.2968 11.1917 10.3577C11.07 11.0836 10.4296 11.5681 9.75621 11.4438L6.26624 10.7795L6.37416 10.1201L9.86247 10.7846C10.1988 10.8488 10.5198 10.6074 10.5807 10.2446C10.594 10.1567 10.5919 10.067 10.5742 9.97991C10.5698 9.95115 10.5627 9.92304 10.5528 9.89592C10.4769 9.67122 10.2958 9.50699 10.0777 9.46483L5.94701 8.67831L4.00018 9.44309L5.06048 12.589L5.35216 12.4736ZM3.52324 13.904L4.68873 13.4461L3.20417 9.04321L2.03897 9.50094L3.52324 13.904Z" fill="#4FC3F7"/>
<path d="M9.33333 1.33325C7.49333 1.33325 6 2.82659 6 4.66658C6 6.50659 7.49333 7.99992 9.33333 7.99992C11.1733 7.99992 12.6667 6.50659 12.6667 4.66658C12.6667 2.82659 11.1733 1.33325 9.33333 1.33325ZM9.33333 7.33325C7.86333 7.33325 6.66667 6.13658 6.66667 4.66658C6.66667 3.19659 7.86333 1.99992 9.33333 1.99992C10.8033 1.99992 12 3.19659 12 4.66658C12 6.13658 10.8033 7.33325 9.33333 7.33325ZM9.43667 4.37992C8.84667 4.22992 8.65667 4.06659 8.65667 3.82325C8.65667 3.54325 8.92 3.34659 9.35667 3.34659C9.81667 3.34659 9.99 3.56659 10.0033 3.89325H10.5733C10.5567 3.44659 10.2833 3.03659 9.74333 2.90325V2.33325H8.96667V2.89659C8.46333 3.00325 8.06 3.32992 8.06 3.83325C8.06 4.42992 8.55667 4.72992 9.28 4.90325C9.93 5.05659 10.06 5.28659 10.06 5.52659C10.06 5.70325 9.93 5.98992 9.36 5.98992C8.82667 5.98992 8.61667 5.74992 8.58667 5.44325H8.01333C8.04667 6.00992 8.46667 6.32992 8.96667 6.43325V6.99992H9.74667V6.44325C10.2533 6.34658 10.6533 6.05659 10.6567 5.51992C10.6533 4.78659 10.0233 4.53325 9.43667 4.37992Z" fill="#4FC3F7"/>
</svg>
