<svg width="24" height="24" viewBox="0 0 24 24" fill="none" xmlns="http://www.w3.org/2000/svg">
<path d="M5.66786 19.8547L5.66773 19.8546L5.65829 19.8643C5.63457 19.8885 5.45144 20.0667 5.22631 20.2347C5.11403 20.3185 5.00246 20.3913 4.90328 20.4412C4.79963 20.4934 4.75042 20.4995 4.74687 20.5C4.7467 20.5 4.74664 20.5 4.74667 20.5H4.74585C4.73703 20.5 4.73475 20.5 4.72327 20.4903C4.70329 20.4734 4.66634 20.4304 4.62679 20.3408C4.54588 20.1574 4.5 19.8836 4.5 19.6019V4.39806C4.5 3.9362 4.93223 3.5 5.44 3.5H18.6667C19.0821 3.5 19.4639 3.84385 19.5 4.41267V19.6019C19.5 20.0263 19.4428 20.2867 19.3769 20.4226C19.3516 20.4747 19.3317 20.4944 19.3257 20.4996C19.3239 20.4998 19.3212 20.5 19.3173 20.5C19.318 20.5 19.3179 20.5 19.3171 20.4999C19.3123 20.4992 19.2802 20.4947 19.2154 20.4647C19.1445 20.4319 19.0596 20.3805 18.9646 20.3119C18.7743 20.1746 18.585 19.999 18.442 19.8578L17.8446 19.268L17.8385 19.2619L17.8322 19.2561C17.64 19.079 17.3932 18.9709 17.1093 18.9709C16.8423 18.9709 16.5713 19.0682 16.3713 19.2707L15.7767 19.8578L15.7752 19.8592C15.6207 20.0131 15.3944 20.1813 15.1551 20.3091C14.9056 20.4424 14.7011 20.5 14.5813 20.5C14.4556 20.5 14.2508 20.4418 14.0044 20.3096C13.7675 20.1824 13.5432 20.0143 13.3874 19.8592L13.386 19.8578L12.7914 19.2707C12.5986 19.0753 12.3417 18.9709 12.064 18.9709C11.797 18.9709 11.526 19.0681 11.3261 19.2706L10.7314 19.8578L10.7299 19.8592C10.5741 20.0143 10.3498 20.1824 10.1129 20.3096C9.86651 20.4418 9.66177 20.5 9.536 20.5C9.41024 20.5 9.20549 20.4418 8.95908 20.3096C8.72215 20.1824 8.49786 20.0143 8.3421 19.8592L8.34064 19.8578L7.7433 19.268L7.73718 19.2619L7.73084 19.2561C7.53868 19.079 7.29188 18.9709 7.008 18.9709C6.7418 18.9709 6.47159 19.0676 6.27184 19.2688L5.66786 19.8547Z" stroke="#F44336"/>
<path d="M13.1851 12.2822L13.1851 12.2822L13.1877 12.2793C13.5213 11.9085 14.0126 11.6985 14.64 11.6985C15.3111 11.6985 15.7835 11.9429 16.0902 12.279C16.404 12.6229 16.5688 13.0903 16.564 13.5653L16.564 13.5653V13.5703C16.564 14.0673 16.3896 14.5227 16.0829 14.8585L16.0828 14.8585L16.0802 14.8613C15.7467 15.2322 15.2554 15.4422 14.628 15.4422C13.3606 15.4422 12.704 14.5164 12.704 13.5703C12.704 13.0734 12.8784 12.6179 13.1851 12.2822ZM15.9953 14.7961L16.0005 14.7904L16.0055 14.7845C16.2929 14.4452 16.4323 14.0194 16.4477 13.5881L16.448 13.5792V13.5703C16.448 13.1551 16.3137 12.7089 16.0115 12.3587C15.6994 11.9971 15.235 11.77 14.652 11.77C14.1313 11.77 13.6542 11.9626 13.3207 12.3325L13.3198 12.3335C13.0117 12.6769 12.868 13.1134 12.868 13.5583C12.868 13.9736 13.0023 14.4197 13.3045 14.7699C13.6166 15.1315 14.081 15.3586 14.664 15.3586C15.1847 15.3586 15.6618 15.166 15.9953 14.7961Z" stroke="#F44336"/>
<path d="M15.6035 6.85768L8.77616 14.503H8.53817L15.4089 6.86365L15.6035 6.85768Z" stroke="#F44336"/>
<path d="M10.9879 9.18233L10.9879 9.18231L10.9847 9.18576C10.6346 9.56477 10.138 9.78355 9.492 9.78355C8.18644 9.78355 7.52 8.84334 7.52 7.87558C7.52 7.35674 7.70495 6.88918 8.01221 6.55234C8.36151 6.17481 8.86928 5.95557 9.504 5.95557C10.8225 5.95557 11.4856 6.90786 11.476 7.8585L11.476 7.8585V7.86354C11.476 8.38934 11.2988 8.85207 10.9879 9.18233ZM10.8593 9.08933L10.8645 9.08359L10.8695 9.07769C11.1453 8.75213 11.3143 8.32301 11.3 7.86645C11.298 7.46123 11.1674 7.02168 10.8682 6.67469C10.5564 6.3131 10.0912 6.08731 9.504 6.08731C8.92245 6.08731 8.45183 6.29551 8.13085 6.6511C7.81832 6.99734 7.684 7.44262 7.684 7.86354C7.684 8.27865 7.82491 8.72355 8.13501 9.07092C8.45429 9.42855 8.92589 9.6518 9.516 9.6518C10.0462 9.6518 10.5243 9.46088 10.8593 9.08933Z" stroke="#F44336"/>
</svg>
