<svg width="24" height="24" viewBox="0 0 24 24" fill="none" xmlns="http://www.w3.org/2000/svg">
<g clip-path="url(#clip0)">
<path d="M6.5 4C6.5 3.72386 6.72386 3.5 7 3.5H17C17.2761 3.5 17.5 3.72386 17.5 4V23.5H6.5V4Z" stroke="#757575"/>
<path d="M13.7638 7.3326L13.7639 7.33246C13.747 7.32977 13.7298 7.32704 13.7123 7.32427C13.5791 7.30312 13.4295 7.27938 13.3008 7.25268C13.2275 7.23747 13.1493 7.219 13.077 7.19588C13.0175 7.17685 12.9088 7.13886 12.8126 7.064M13.7638 7.3326L12.8126 7.064M13.7638 7.3326L13.7756 7.3342M13.7638 7.3326L13.7756 7.3342M12.8126 7.064C12.7181 6.99048 12.654 6.89535 12.621 6.84405M12.8126 7.064L12.621 6.84405M13.7756 7.3342C14.0546 7.37194 14.2725 7.40355 14.4324 7.45243C14.4319 7.45307 14.4314 7.45371 14.4309 7.45436C14.3276 7.58944 14.1625 7.74812 13.9469 7.94692L13.9469 7.94691L13.9446 7.94902C13.8227 8.06282 13.6951 8.18815 13.589 8.30514C13.5361 8.36347 13.4837 8.42491 13.4386 8.48551C13.3987 8.53919 13.3427 8.6206 13.3062 8.71526C13.2581 8.83977 13.2565 8.96645 13.2574 9.03289C13.2585 9.11479 13.2667 9.20105 13.2764 9.27983C13.2908 9.39681 13.3129 9.53 13.332 9.6451C13.3381 9.68184 13.3439 9.71674 13.349 9.74868C13.3502 9.75646 13.3517 9.76421 13.3533 9.77192C13.4133 10.0581 13.4549 10.2792 13.4594 10.4469C13.4384 10.4379 13.4149 10.4273 13.3888 10.415C13.2634 10.3556 13.1279 10.2804 12.977 10.1966C12.9509 10.1821 12.9243 10.1673 12.8972 10.1524C12.7712 10.0811 12.6202 9.99605 12.4838 9.92872C12.4154 9.89492 12.3413 9.86087 12.2696 9.83423C12.2126 9.81303 12.1007 9.77419 11.9767 9.77419C11.8526 9.77419 11.7408 9.81303 11.6837 9.83423C11.612 9.86087 11.538 9.89492 11.4695 9.92872C11.3332 9.99605 11.1822 10.0811 11.0561 10.1524C10.8773 10.2513 10.723 10.3362 10.584 10.3979C10.5434 10.416 10.5084 10.43 10.4788 10.4409C10.4789 10.4373 10.479 10.4338 10.4791 10.4301C10.4849 10.2852 10.5141 10.1151 10.5521 9.89427C10.5605 9.84569 10.5693 9.79465 10.5783 9.74088C10.6123 9.58772 10.6497 9.41326 10.6725 9.25806C10.6842 9.17832 10.6938 9.09192 10.6955 9.00892C10.6968 8.94639 10.6954 8.84097 10.6611 8.73102C10.6283 8.61098 10.5649 8.51737 10.5315 8.47027C10.484 8.40346 10.428 8.33815 10.3761 8.28095C10.3073 8.20523 10.2217 8.11792 10.1453 8.04006C10.1112 8.0053 10.0789 7.97242 10.0508 7.94329L10.0402 7.93254C9.83247 7.72979 9.67224 7.57189 9.56938 7.43439C9.56607 7.42996 9.56291 7.42566 9.55988 7.42149C9.55991 7.42148 9.55994 7.42147 9.55997 7.42147C9.70217 7.37991 9.88425 7.35556 10.1257 7.32326C10.1576 7.319 10.1904 7.3146 10.2244 7.31C10.2305 7.30918 10.2365 7.30825 10.2425 7.30721C10.3021 7.29692 10.3663 7.28768 10.4391 7.27723L10.4465 7.27616C10.5188 7.26576 10.6004 7.25397 10.6776 7.24004C10.753 7.22644 10.8411 7.20793 10.9245 7.18036C10.9882 7.15929 11.1088 7.11471 11.214 7.01801C11.2876 6.9542 11.3418 6.87951 11.3733 6.83381C11.4161 6.7718 11.4576 6.70212 11.4956 6.63355C11.5713 6.49698 11.6473 6.33896 11.7098 6.19668C11.7157 6.18379 11.7216 6.17105 11.7273 6.15845C11.8352 5.92329 11.92 5.73854 12.0046 5.60195C12.0931 5.74081 12.1839 5.93996 12.2843 6.18287C12.2879 6.1917 12.2918 6.20043 12.296 6.20905M13.7756 7.3342L12.296 6.20905M12.296 6.20905C12.3136 6.24567 12.3322 6.28472 12.3514 6.32483M12.296 6.20905L12.3514 6.32483M12.3514 6.32483C12.4022 6.43159 12.4567 6.54589 12.5064 6.64203M12.3514 6.32483L12.5064 6.64203M12.5064 6.64203C12.5414 6.70965 12.5802 6.78065 12.621 6.84405M12.5064 6.64203L12.621 6.84405M14.5029 7.33902C14.5029 7.339 14.5027 7.33989 14.502 7.34175C14.5025 7.33996 14.5028 7.33904 14.5029 7.33902ZM13.4496 10.5818C13.4495 10.5817 13.4498 10.5808 13.4505 10.5792C13.4499 10.581 13.4496 10.5818 13.4496 10.5818ZM10.4856 10.5643C10.4863 10.5659 10.4865 10.5668 10.4865 10.5669C10.4864 10.5669 10.4861 10.5661 10.4856 10.5643ZM9.4523 7.46293C9.44985 7.46498 9.44834 7.46591 9.44819 7.46587C9.44805 7.46582 9.44927 7.46479 9.4523 7.46293Z" stroke="#757575" stroke-linecap="round" stroke-linejoin="round"/>
<line x1="1.5" y1="23.5" x2="22.5" y2="23.5" stroke="#757575" stroke-linecap="round"/>
<path d="M3.5 13C3.5 12.7239 3.72386 12.5 4 12.5H6.5V22.5H3.5V13Z" stroke="#757575"/>
<path d="M17.5 12.5H20C20.2761 12.5 20.5 12.7239 20.5 13V22.5H17.5V12.5Z" stroke="#757575"/>
<rect x="8.5" y="13.5" width="2" height="2" stroke="#757575"/>
<rect x="13.5" y="13.5" width="2" height="2" stroke="#757575"/>
<rect x="8.5" y="18.5" width="2" height="2" stroke="#757575"/>
<rect x="13.5" y="18.5" width="2" height="2" stroke="#757575"/>
</g>
<defs>
<clipPath id="clip0">
<rect width="24" height="24" fill="white"/>
</clipPath>
</defs>
</svg>
