<svg width="24" height="24" viewBox="0 0 24 24" fill="none" xmlns="http://www.w3.org/2000/svg">
<path d="M11.3919 7.12192C11.4863 7.24829 11.6348 7.32271 11.7925 7.32271C11.9502 7.32271 12.0987 7.24829 12.1931 7.12192C12.9201 6.14854 14.0681 5.5 15.3316 5.5C17.502 5.5 19.2925 7.34617 19.2925 9.69252C19.2925 12.3852 17.4471 14.5833 15.4807 16.1513C14.5085 16.9266 13.5336 17.5259 12.8004 17.9317C12.4344 18.1343 12.1301 18.2878 11.9185 18.3902C11.8723 18.4125 11.8305 18.4324 11.7935 18.4498C11.7564 18.4322 11.7145 18.412 11.6681 18.3894C11.4564 18.286 11.1521 18.1311 10.7859 17.927C10.0525 17.5182 9.07729 16.9151 8.10479 16.1372C6.13714 14.5634 4.29248 12.3654 4.29248 9.69252C4.29248 7.34617 6.08296 5.5 8.25331 5.5C9.51682 5.5 10.6649 6.14854 11.3919 7.12192Z" stroke="#57C478" stroke-linecap="round" stroke-linejoin="round"/>
</svg>
