<svg width="24" height="24" viewBox="0 0 24 24" fill="none" xmlns="http://www.w3.org/2000/svg">
<path d="M12 2C7.58867 2 4 5.55342 4 9.92087C4 16.2093 11.1416 22.5264 11.4458 22.7928C11.6049 22.9309 11.8024 23 12 23C12.2054 23 12.4108 22.9254 12.571 22.7767C12.874 22.496 20 15.8313 20 9.92142C20 5.55397 16.4102 2 12 2ZM12 13.6981C9.89312 13.6981 8.18585 12.0065 8.18585 9.92197C8.18585 7.83745 9.89312 6.14584 12 6.14584C14.1058 6.14584 15.813 7.83689 15.813 9.92197C15.813 12.0071 14.1058 13.6981 12 13.6981Z" fill="#616161"/>
</svg>
