<svg class="svgPin" width="48" height="48" viewBox="0 0 48 48" fill="none" xmlns="http://www.w3.org/2000/svg">
<path class="pin" d="M24 4C15.1773 4 8 11.1068 8 19.8417C8 32.4185 22.2832 45.0528 22.8916 45.5855C23.2097 45.8618 23.6049 46 24 46C24.4108 46 24.8215 45.8508 25.1419 45.5535C25.748 44.992 40 31.6625 40 19.8428C40 11.1079 32.8204 4 24 4ZM24 27.3962C19.7862 27.3962 16.3717 24.013 16.3717 19.8439C16.3717 15.6749 19.7862 12.2917 24 12.2917C28.2115 12.2917 31.6261 15.6738 31.6261 19.8439C31.6261 24.0141 28.2115 27.3962 24 27.3962Z" fill="#9E9E9E"/>
</svg>
