<svg width="270" height="184" viewBox="0 0 270 184" fill="none" xmlns="http://www.w3.org/2000/svg">
<g clip-path="url(#clip0)">
<path d="M262.715 93.9279L287.483 13.2303L307.125 18.4143L307.989 15.0735L259.317 2.28628L267.15 -30.2577L286.158 -99.7233L286.389 -100.53L283.048 -101.451L263.81 -31.1217L255.976 1.36469L240.712 -2.60973L271.874 -112.453L268.533 -113.375L237.371 -3.47372L202.062 -12.7473L211.509 -46.9617L208.168 -47.8833L198.722 -13.6113L166.005 -22.1937L152.123 -26.0529L176.949 -107.787L173.666 -108.767L148.84 -26.9169L138.933 -29.6817L164.68 -109.285L161.397 -110.322L135.592 -30.6033L119.522 -35.0385L103.163 17.9535L43.144 25.3839L43.5472 28.8399L102.011 21.5823L93.1984 50.1519L96.4816 51.1887L105.582 21.6399L131.733 29.1855L123.208 57.4671L126.491 58.4463L135.074 30.0495L186.222 44.7375L201.141 -9.46412L255.054 4.64788L231.611 84.6543L218.939 127.221L88.5328 91.7391C88.936 90.2415 89.1664 88.6863 89.1664 87.0735C89.1664 80.1039 84.904 73.8255 78.5104 71.1183L80.1808 64.6095L189.851 96.5775L190.83 93.2367L81.0448 61.2111L84.8464 46.2351L81.5056 45.3711L75.2272 70.0239C74.1328 69.7935 73.0384 69.6783 71.944 69.6783C64.744 69.6783 58.408 74.1135 55.816 80.7375L-16.5872 64.4367L-28.6256 103.201L-25.3424 104.238L-14.2256 68.5263L54.952 84.3663C54.7792 85.2879 54.7216 86.2671 54.7216 87.1887C54.7216 93.9855 58.6384 100.033 64.8016 102.856L33.0064 206.19L36.2896 207.227L68.0848 104.008C69.352 104.296 70.6768 104.469 72.0016 104.469C78.4528 104.469 84.3856 100.84 87.3232 95.0799L218.018 130.619L206.843 168.289L210.184 169.269L221.416 131.541L254.997 140.699L237.198 202.331L236.968 203.137L240.309 204.117L258.395 141.621L303.035 153.774L303.957 150.433L259.374 138.337L272.046 94.5615L268.706 93.5823L256.034 137.416L222.453 128.315L235.067 85.8063L258.51 5.68468L284.2 12.4239L259.49 93.0063L262.715 93.9279ZM136.11 26.8239L151.144 -22.7121L165.141 -18.8529L197.858 -10.2705L183.861 40.5327L136.11 26.8239ZM121.941 22.7343L137.838 -26.3985L147.803 -23.6337L132.77 25.9023L121.941 22.7343ZM134.498 -27.3201L118.6 21.7551L106.619 18.2991L121.826 -30.8913L134.498 -27.3201ZM71.944 101.013C64.3408 101.013 58.1776 94.8495 58.1776 87.2463C58.1776 79.6431 64.3408 73.4799 71.944 73.4799C79.5472 73.4799 85.7104 79.6431 85.7104 87.2463C85.7104 94.8495 79.6048 101.013 71.944 101.013Z" fill="#E8E1D0"/>
<path d="M42.9136 48.3087L-5.18235 38.2863L5.01285 2.28634L1.72965 1.36475L-9.50235 40.9359L42.2224 51.7071L42.9136 48.3087Z" fill="#E8E1D0"/>
<path d="M10.0771 -50.9415L-6.7562 0.943848L-3.46885 2.01037L13.3644 -49.8749L10.0771 -50.9415Z" fill="#E8E1D0"/>
<path d="M113.646 161.435L112.725 164.776L164.795 179.003L233.109 209.358L233.858 209.704L235.298 206.536L166.12 175.777L113.646 161.435Z" fill="#E8E1D0"/>
<path d="M306.318 106.139L307.182 102.798L197.454 74.0561C208.802 35.2913 220.782 -5.60473 230.517 -38.8399L304.36 -17.8735L305.282 -21.2143L231.496 -42.1807C242.728 -80.5999 250.734 -108.075 250.85 -108.651L247.451 -109.4C247.163 -108.306 239.214 -81.0607 228.155 -43.1023L178.331 -57.2719L195.554 -115.045L192.213 -116.024L174.99 -58.1935L52.7632 -75.1279L55.0096 -108.882L51.5536 -109.112L47.2336 -44.5999L-5.52797 -54.5647L-36.7472 -75.0703L-38.648 -72.1903L-6.85277 -51.3391L47.0608 -41.1439L43.5472 10.9265L-31.5056 -7.79353L-32.3696 -4.45274L43.3168 14.4401L41.6464 39.7841L29.1472 116.507C-19.7552 103.029 -44.5808 96.2321 -44.984 96.2321V98.1905L-45.272 99.6305C-43.832 99.9185 -13.3616 108.328 28.5712 119.906L2.88163 215.406L6.22243 216.328L31.912 120.885C57.6592 127.97 87.4384 136.206 117.275 144.501L100.514 207.4L103.854 208.264L120.616 145.422C136.974 149.973 153.333 154.466 169.058 158.843C161.512 184.59 156.501 201.64 156.328 202.389L159.669 203.368C161.512 197.09 166.178 181.25 172.456 159.765C232.994 176.526 282.875 190.35 284.142 190.696L285.064 187.355C243.938 175.95 206.728 165.64 173.32 156.366C179.829 134.133 187.95 106.427 196.475 77.3393L306.318 106.139ZM227.176 -39.8191C217.442 -6.52633 205.461 34.4849 194.114 73.1921L143.426 59.8865L177.352 -53.9887L227.176 -39.8191ZM173.954 -54.7951L140.027 59.0801L45.3328 35.9249L52.5328 -71.6719L173.954 -54.7951ZM32.488 117.429L45.0448 40.2449V40.1873L45.1024 39.4385L139.106 62.3633L118.139 141.102C84.3857 131.771 55.816 123.88 32.488 117.429ZM169.979 155.445C152.757 150.664 136.629 146.229 121.48 142.024L142.446 63.2273L193.134 76.5329C184.552 105.736 176.43 133.499 169.979 155.445Z" fill="#FBD676"/>
<path d="M128.738 -26.2832L125.915 -27.0896C124.59 -27.4352 123.266 -26.6864 122.862 -25.4192L110.651 14.0944C110.248 15.4192 110.997 16.8592 112.322 17.2048L114.626 17.8384C115.893 18.184 117.275 17.4928 117.678 16.2256L130.408 -23.1728C130.869 -24.44 130.062 -25.88 128.738 -26.2832Z" fill="#E8E1D0"/>
<path d="M141.87 -22.5969C140.603 -22.9425 139.221 -22.2513 138.818 -20.9841L126.03 18.5295C125.57 19.8543 126.376 21.2943 127.701 21.6975L128.68 21.9855C130.005 22.3887 131.33 21.6399 131.733 20.3151L143.771 -19.4289C144.174 -20.7537 143.426 -22.1937 142.043 -22.5393L141.87 -22.5969Z" fill="#E8E1D0"/>
<path d="M106.619 27.1697L100.802 45.8897L122.402 51.1313L127.816 33.3329C128.219 32.0081 127.47 30.6257 126.146 30.2225L109.73 25.4993C108.347 25.0961 107.022 25.8449 106.619 27.1697Z" fill="#E8E1D0"/>
<path d="M227.176 88.9746L199.298 81.6594C199.067 81.6018 198.779 81.717 198.722 82.005L188.757 115.931C188.699 116.162 188.814 116.45 189.102 116.507L216.808 124.053C217.038 124.111 217.326 123.995 217.384 123.707L227.522 89.5506C227.579 89.3202 227.464 89.0322 227.176 88.9746Z" fill="#B1DF71"/>
<path d="M188.354 78.7793L144.923 67.4321L142.446 76.6481L185.301 89.1473C185.531 89.2049 185.819 89.0897 185.877 88.8017L188.642 79.4129C188.757 79.1249 188.584 78.8945 188.354 78.7793Z" fill="#E8E1D0"/>
<path d="M131.099 141.103C142.734 144.328 154.888 147.669 167.675 151.24L176.258 121.979L133.576 110.344L127.24 134.248C126.376 137.186 128.104 140.296 131.099 141.103Z" fill="#E8E1D0"/>
<path d="M226.082 126.587L253.73 134.075C253.96 134.133 254.248 134.018 254.306 133.73L264.27 99.1698C264.328 98.9394 264.213 98.6514 263.925 98.5938L236.507 91.3938C236.277 91.3362 235.989 91.4514 235.931 91.7394L225.736 125.954C225.678 126.242 225.794 126.472 226.082 126.587Z" fill="#E8E1D0"/>
<path d="M97.2304 28.2639C97.7488 26.5359 96.3664 24.8079 94.5232 25.0383L51.2081 30.3951C49.9985 30.5679 49.1345 31.4895 49.0193 32.6991L48.9617 33.1599L92.392 43.7583L97.2304 28.2639Z" fill="#E8E1D0"/>
<path d="M61.6913 104.181C55.8161 100.61 52.1297 94.2738 52.1297 87.189C52.1297 86.901 52.1297 86.6706 52.1297 86.3826L41.4161 83.9634L36.3473 114.952C42.7409 116.738 49.4801 118.581 56.6225 120.539L61.6913 104.181Z" fill="#E8E1D0"/>
<path d="M117.16 131.368L123.496 107.637L88.5328 98.1328C84.904 103.662 78.6832 107.061 71.944 107.061C71.2528 107.061 70.5616 107.003 69.8704 106.946L64.9744 122.843C78.7408 126.645 93.832 130.85 110.248 135.342C113.243 136.149 116.354 134.363 117.16 131.368Z" fill="#E8E1D0"/>
<path d="M5.93447 8.68018L-1.95673 36.3282L16.2449 40.1298L20.6801 12.3666L5.93447 8.68018Z" fill="#E8E1D0"/>
<path d="M37.3265 44.5071L38.1329 39.3807L39.5153 19.1631C39.5729 17.9535 38.8241 16.8591 37.6145 16.5711L22.2929 12.7695L17.9153 40.4751L37.3265 44.5071Z" fill="#E8E1D0"/>
<path d="M35.944 53.032L-7.54395 43.9888V63.8608L32.7184 73.0767L35.944 53.032Z" fill="#E8E1D0"/>
<path d="M251.541 7.70083C251.714 7.06723 251.368 6.43363 250.734 6.31843L224.066 -0.651165C223.49 -0.823965 222.856 -0.478364 222.683 0.0976363C221.013 5.80004 219.342 11.56 217.614 17.4352L246.53 24.6928L251.541 7.70083Z" fill="#E8E1D0"/>
<path d="M246.069 26.3055L217.154 19.0479C214.389 28.6094 211.509 38.2862 208.686 47.963L237.314 56.1422L246.069 26.3055Z" fill="#E8E1D0"/>
<path d="M201.89 71.1186C201.832 71.349 201.947 71.637 202.235 71.6946L230.171 79.0098C230.402 79.0674 230.69 78.9522 230.747 78.6642L236.853 57.7554L208.226 49.5762C206.094 56.8338 204.021 64.0338 201.89 71.1186Z" fill="#E8E1D0"/>
<path d="M54.3761 78.0303C57.7745 71.5215 64.4561 67.3743 71.9441 67.3743C72.4049 67.3743 72.8657 67.3743 73.3265 67.4319L77.5313 50.9007L47.9825 43.7007L42.7985 75.4383L54.3761 78.0303Z" fill="#E8E1D0"/>
<path d="M273.544 13.1152C273.544 12.5968 273.198 12.136 272.68 12.0208L261.275 9.02559C260.699 8.85279 260.066 9.19839 259.893 9.77439L254.939 26.7088L273.544 31.3744V13.1152Z" fill="#E8E1D0"/>
<path d="M273.544 37.8834V33.1602L254.478 28.3794L245.666 58.5618L265.538 64.2642L273.486 38.229C273.544 38.1138 273.544 37.9986 273.544 37.8834Z" fill="#E8E1D0"/>
<path d="M239.099 80.9103C239.042 81.1407 239.157 81.4287 239.445 81.4863L258.28 86.4399C258.51 86.4975 258.798 86.3823 258.856 86.0943L265.077 65.8767L245.205 60.1743L239.099 80.9103Z" fill="#E8E1D0"/>
<path d="M186.107 125.147L177.813 153.544C177.755 153.775 177.87 154.063 178.158 154.12L205.634 161.723C205.864 161.781 206.152 161.666 206.21 161.378L214.677 132.866C214.734 132.635 214.619 132.347 214.331 132.29L186.683 124.744C186.395 124.744 186.165 124.859 186.107 125.147Z" fill="#E8E1D0"/>
<path d="M121.595 155.099C120.789 158.094 122.574 161.147 125.57 161.954L161.627 171.803L164.738 161.147C152.93 157.864 140.776 154.523 128.507 151.125C125.512 150.318 122.402 152.104 121.595 155.099Z" fill="#E8E1D0"/>
<path d="M194.344 -7.33287C194.517 -7.96647 194.171 -8.54247 193.538 -8.71527L169.346 -15.0513L163.701 3.89913L189.448 10.3503L194.344 -7.33287Z" fill="#E8E1D0"/>
<path d="M155.982 29.8194L180.923 37.0194C181.499 37.1922 182.133 36.8466 182.306 36.213L188.987 11.9634L163.182 5.51221L155.982 29.8194Z" fill="#E8E1D0"/>
<path d="M178.792 113.224L183.227 98.0176C183.285 97.7872 183.17 97.4992 182.882 97.4416L140.2 85L135.65 101.992L178.101 113.57C178.446 113.627 178.677 113.454 178.792 113.224Z" fill="#E8E1D0"/>
<path d="M156.04 -18.6799C154.254 -19.1407 152.469 -18.1615 151.95 -16.4335L140.373 21.6977C139.797 23.5409 140.891 25.4993 142.734 26.0177C144.578 26.5361 146.478 25.4993 146.997 23.6561L158.344 -14.5327C158.92 -16.3183 157.826 -18.1615 156.04 -18.6799Z" fill="#E8E1D0"/>
<path d="M137.666 54.8754L143.541 35.2338L136.859 33.333L130.811 53.205L137.666 54.8754Z" fill="#E8E1D0"/>
<path d="M84.2128 59.6562L132.539 73.7106L134.901 64.8978L85.9408 52.917L84.2128 59.6562Z" fill="#E8E1D0"/>
<path d="M71.9441 98.4211C78.1073 98.4211 83.1185 93.4099 83.1185 87.2467C83.1185 81.0835 78.1073 76.0723 71.9441 76.0723C65.7809 76.0723 60.7697 81.0835 60.7697 87.2467C60.7697 93.4099 65.7809 98.4211 71.9441 98.4211Z" fill="#B1DF71"/>
<path d="M212.661 -2.55191C212.834 -3.18551 212.488 -3.76151 211.854 -3.93431L204.021 -6.00792C203.445 -6.18072 202.811 -5.83512 202.638 -5.20152L197.8 12.4241L207.534 14.8433C209.32 8.96809 210.99 3.20809 212.661 -2.55191Z" fill="#E8E1D0"/>
<path d="M188.354 46.9263C188.181 47.5023 187.547 47.9055 186.971 47.7327L153.563 38.1135L147.803 57.4671L191.349 68.8719C191.579 68.9295 191.867 68.8143 191.925 68.5263C196.994 51.3039 202.12 33.6783 207.131 16.5134L197.397 14.0942L188.354 46.9263Z" fill="#E8E1D0"/>
<path d="M125.742 99.2846L130.293 82.0622L82.0817 68.0078L81.6208 69.851C87.8417 73.307 91.816 79.931 91.816 87.1886C91.816 88.1102 91.7584 89.0318 91.6432 89.9534L125.742 99.2846Z" fill="#E8E1D0"/>
<path d="M239.79 181.999C221.646 176.987 199.125 170.709 174.702 163.97L171.362 175.317L203.272 189.544C203.33 189.544 203.387 189.602 203.445 189.602H237.717C237.947 189.602 238.12 189.487 238.178 189.256L240.078 182.632C240.194 182.287 240.078 182.056 239.79 181.999Z" fill="#E8E1D0"/>
<path d="M251.253 142.37L223.547 134.824C223.317 134.766 223.029 134.882 222.971 135.17L214.504 163.682C214.446 163.912 214.562 164.2 214.85 164.258L242.728 171.976C242.958 172.034 243.246 171.918 243.304 171.63L251.599 142.888C251.656 142.715 251.541 142.427 251.253 142.37Z" fill="#E8E1D0"/>
<path d="M273.198 148.36L260.526 144.904C260.296 144.846 260.008 144.962 259.95 145.25L251.598 173.992C251.541 174.222 251.656 174.51 251.944 174.568L272.968 180.386C273.256 180.443 273.544 180.27 273.544 179.925V148.763C273.544 148.59 273.429 148.418 273.198 148.36Z" fill="#E8E1D0"/>
<path d="M10.6001 76.8786L-7.54395 72.7314V102.856C-2.87835 104.123 2.24806 105.563 7.83526 107.061L10.6001 76.8786Z" fill="#E8E1D0"/>
<path d="M26.3249 112.13L31.2785 81.6017L12.2705 77.2241L9.44806 107.464C14.7473 108.962 20.3345 110.517 26.3249 112.13Z" fill="#E8E1D0"/>
<path d="M34.3313 125.09L16.9937 189.544H35.3681L53.5697 130.447L34.3313 125.09Z" fill="#E8E1D0"/>
<path d="M116.469 174.338L114.28 182.459C113.358 186.03 116.008 189.544 119.694 189.544H156.386L159.15 180.155L123.381 170.363C120.386 169.557 117.275 171.342 116.469 174.338Z" fill="#E8E1D0"/>
<path d="M61.9217 132.75L44.4113 189.544H74.5937C77.8193 171.631 81.736 149.627 83.6944 138.741C76.3216 136.725 69.064 134.709 61.9217 132.75Z" fill="#E8E1D0"/>
<path d="M107.714 145.365C100.226 143.291 92.7952 141.218 85.4225 139.202C85.1921 140.469 84.9617 141.794 84.6737 143.291C83.5217 149.915 81.9089 158.728 80.3537 167.541C78.9713 175.374 77.5313 183.208 76.4369 189.486H97.4032C99.9377 189.486 102.184 187.758 102.818 185.339L111.63 152.219C112.437 149.282 110.651 146.229 107.714 145.365Z" fill="#E8E1D0"/>
<path d="M180.117 188.623L168.942 183.669L167.214 189.544H179.944C180.462 189.544 180.578 188.853 180.117 188.623Z" fill="#E8E1D0"/>
<path d="M273.198 101.071C272.968 101.013 272.68 101.128 272.622 101.416L262.6 135.976C262.542 136.207 262.658 136.495 262.946 136.552L272.968 139.259C273.256 139.317 273.544 139.087 273.544 138.799V101.474C273.544 101.301 273.371 101.128 273.198 101.071Z" fill="#E8E1D0"/>
<path d="M-7.54395 113.57V189.544H6.28006L24.3665 122.325C12.6161 119.099 1.84485 116.162 -7.54395 113.57Z" fill="#E8E1D0"/>
<path d="M272.622 70.5425L267.208 88.2257C267.15 88.4561 267.266 88.7441 267.554 88.8017L272.968 90.2417C273.256 90.2993 273.544 90.0689 273.544 89.7809V70.6577C273.544 70.1393 272.795 70.0241 272.622 70.5425Z" fill="#E8E1D0"/>
<path d="M52.7057 21.5824L99.5344 15.7648C100.514 15.6496 101.32 14.9584 101.608 14.0368L117.045 -35.96C117.448 -37.2272 118.773 -37.976 120.098 -37.6304L131.56 -34.4624C132.827 -34.1168 134.21 -34.808 134.613 -36.0752L140.142 -53.0672C140.603 -54.5648 139.624 -56.0624 138.126 -56.2928L101.435 -61.4192C100.053 -61.592 98.7856 -60.6128 98.6128 -59.2304L95.9056 -32.3888C95.7904 -31.064 94.6384 -30.0848 93.3136 -30.1424L55.8161 -31.8128C54.4913 -31.8704 53.3393 -30.8336 53.2241 -29.5088L49.9985 18.8752C49.8257 20.488 51.1505 21.7552 52.7057 21.5824Z" fill="#B1DF71"/>
<path d="M37.4992 5.85771C38.9968 6.26091 40.4944 5.16651 40.6096 3.61131L41.6464 -12.1711L6.74083 -20.9839L0.980835 -3.24309L37.4992 5.85771Z" fill="#E8E1D0"/>
<path d="M263.522 0.673737L272.104 2.92013C272.795 3.09293 273.544 2.57453 273.544 1.82574V-8.83026L265.25 -11.0767L262.715 -0.651065C262.6 -0.0750647 262.946 0.500937 263.522 0.673737Z" fill="#E8E1D0"/>
<ellipse cx="145" cy="92" rx="8" ry="2" fill="#9E9E9E"/>
<path d="M145 49C136.177 49 129 56.1068 129 64.8417C129 77.4185 143.283 90.0528 143.892 90.5855C144.21 90.8618 144.605 91 145 91C145.411 91 145.822 90.8508 146.142 90.5535C146.748 89.992 161 76.6625 161 64.8428C161 56.1079 153.82 49 145 49ZM145 72.3962C140.786 72.3962 137.372 69.013 137.372 64.8439C137.372 60.6749 140.786 57.2917 145 57.2917C149.212 57.2917 152.626 60.6738 152.626 64.8439C152.626 69.0141 149.212 72.3962 145 72.3962Z" fill="#7E57C2"/>
</g>
<defs>
<clipPath id="clip0">
<rect width="270" height="184" fill="white"/>
</clipPath>
</defs>
</svg>
