<svg width="24" height="24" viewBox="0 0 24 24" fill="none" xmlns="http://www.w3.org/2000/svg">
<rect x="0.000488281" y="4" width="24" height="16" rx="2" fill="#5E35B1"/>
<path d="M7.4126 15H8.82324L6.61719 8.65869H5.05713L2.85547 15H4.21777L4.70117 13.4619H6.9292L7.4126 15ZM5.7998 9.87158H5.83057L6.64355 12.4688H4.98682L5.7998 9.87158ZM11.4556 15V9.75293H13.2925V8.65869H8.2959V9.75293H10.1284V15H11.4556ZM20.7412 15V8.65869H19.2031L17.4014 13.1543H17.3662L15.5645 8.65869H14.0264V15H15.2085V10.7197H15.2437L16.9663 14.9385H17.8013L19.5239 10.7197H19.5591V15H20.7412Z" fill="white"/>
</svg>
