<svg width="140" height="117" viewBox="0 0 140 117" fill="none" xmlns="http://www.w3.org/2000/svg">
<path d="M53.2443 41.6137C53.2443 38.1907 50.4552 35.5284 47.159 35.5284C43.8628 35.5284 41.0737 38.3175 41.0737 41.6137H53.2443Z" stroke="#FF7043" stroke-width="1.39759" stroke-miterlimit="10" stroke-linecap="round"/>
<path d="M73.9086 76.4782L71.2462 78.6335L66.6823 74.9569L62.6254 78.6335L57.9346 74.9569L53.2439 78.6335V41.6146" stroke="#FF7043" stroke-width="1.39759" stroke-miterlimit="10" stroke-linecap="round"/>
<path d="M47.1587 35.529H82.2759C82.2759 35.529 87.347 35.2754 87.347 41.6143C87.347 45.7979 87.347 48.1397 87.347 57.648" stroke="#FF7043" stroke-width="1.39759" stroke-miterlimit="10" stroke-linecap="round"/>
<path d="M58.1882 44.2296L60.0899 46.5115L63.5129 41.9476" stroke="#FF7043" stroke-width="1.39759" stroke-miterlimit="10" stroke-linecap="round" stroke-linejoin="round"/>
<path d="M58.1882 54.1585L60.0899 56.4405L63.5129 51.8765" stroke="#FF7043" stroke-width="1.39759" stroke-miterlimit="10" stroke-linecap="round" stroke-linejoin="round"/>
<path d="M67.9504 42.7081H80.2478" stroke="#FF7043" stroke-width="1.39759" stroke-miterlimit="10" stroke-linecap="round"/>
<path d="M67.9504 45.4973H75.0499" stroke="#FF7043" stroke-width="1.39759" stroke-miterlimit="10" stroke-linecap="round"/>
<path d="M77.8389 45.4973H80.2476" stroke="#FF7043" stroke-width="1.39759" stroke-miterlimit="10" stroke-linecap="round"/>
<path d="M67.9504 53.6513H80.2478" stroke="#FF7043" stroke-width="1.39759" stroke-miterlimit="10" stroke-linecap="round"/>
<path d="M67.9504 56.3136H75.0499" stroke="#FF7043" stroke-width="1.39759" stroke-miterlimit="10" stroke-linecap="round"/>
<mask id="path-11-inside-1" fill="white">
<rect x="71.96" y="62.0012" width="24.2676" height="4.55018" rx="1.11807"/>
</mask>
<rect x="71.96" y="62.0012" width="24.2676" height="4.55018" rx="1.11807" stroke="#FF7043" stroke-width="4.55018" mask="url(#path-11-inside-1)"/>
<path d="M77.2681 62.9103L79.5432 65.1854L84.8518 65.1854C85.6101 62.1519 82.5767 58.3601 80.3016 57.6017C78.0265 56.8434 76.5098 59.1185 76.5098 60.6352C76.5098 61.8486 77.0153 62.6575 77.2681 62.9103Z" stroke="#FF7043" stroke-width="1.39759"/>
<path d="M91.7958 62.9103L89.5207 65.1854L84.2122 65.1854C83.4538 62.1519 86.4873 58.3601 88.7624 57.6017C91.0375 56.8434 92.5542 59.1185 92.5542 60.6352C92.5542 61.8486 92.0486 62.6575 91.7958 62.9103Z" stroke="#FF7043" stroke-width="1.39759"/>
<path d="M74.9932 66.5515V79.0839C74.9932 79.7014 75.4937 80.202 76.1112 80.202H92.0758C92.6933 80.202 93.1939 79.7014 93.1939 79.0839V66.5515" stroke="#FF7043" stroke-width="1.39759" stroke-linecap="round" stroke-linejoin="round"/>
<line x1="84.0338" y1="66.5515" x2="84.0338" y2="80.202" stroke="#FF7043" stroke-width="1.39759"/>
<line x1="74.9932" y1="73.4365" x2="93.1939" y2="73.4365" stroke="#FF7043" stroke-width="1.39759"/>
<path d="M108.423 21.2144C98.9763 11.5784 85.8128 5.59998 71.2529 5.59998C48.5909 5.59998 29.3116 20.0833 22.1666 40.2986M122.26 47.2384C122.942 50.6018 123.301 54.083 123.301 57.648C123.301 75.8181 113.99 91.8135 99.8793 101.124M88.6022 106.734C83.1757 108.652 77.3362 109.696 71.2529 109.696C45.4632 109.696 24.0544 90.9388 19.9246 66.3226" stroke="#FF7043" stroke-width="1.39759" stroke-linecap="round"/>
<path d="M23.2306 45.6144C23.4152 45.6144 23.5998 45.6144 23.7844 45.799L30.0611 49.4911C30.4303 49.6757 30.6149 50.045 30.6149 50.4142V57.6138C30.6149 57.9831 30.4303 58.3523 30.0611 58.5369L23.7844 62.229C23.5998 62.229 23.4152 62.4136 23.2306 62.4136C23.046 62.4136 22.8614 62.4136 22.6768 62.229L16.4001 58.5369C16.0309 58.3523 15.8463 57.9831 15.8463 57.6138V50.4142C15.8463 50.045 16.0309 49.6757 16.4001 49.4911L22.6768 45.799C22.8614 45.6144 23.046 45.6144 23.2306 45.6144ZM23.2306 43.7683C22.6768 43.7683 22.3076 43.9529 21.7537 44.1375L15.4771 47.8297C14.5541 48.3835 14.0002 49.3065 14.0002 50.2296V57.4292C14.0002 58.5369 14.5541 59.4599 15.4771 59.8291L21.7537 63.5213C22.123 63.7059 22.6768 63.8905 23.2306 63.8905C23.7844 63.8905 24.1536 63.7059 24.7075 63.5213L30.9841 59.8291C31.9071 59.2753 32.461 58.3523 32.461 57.4292V50.2296C32.461 49.1219 31.9071 48.1989 30.9841 47.8297L24.7075 44.1375C24.1536 43.9529 23.7844 43.7683 23.2306 43.7683Z" fill="#57C478"/>
<path d="M23.231 52.445L23.6002 53.368L24.5232 53.5527L23.7848 54.2911L23.9694 55.2141L23.0464 54.8449L22.1233 55.2141L22.3079 54.2911L21.5695 53.5527L22.4925 53.368L23.231 52.445ZM23.231 48.7529C23.0464 48.7529 23.0464 48.7529 22.8618 48.9375L21.5695 51.7066L18.4312 52.0758C18.2466 52.0758 18.2466 52.2604 18.2466 52.2604C18.2466 52.445 18.2466 52.445 18.2466 52.6296L20.4619 54.8449L19.908 57.7986C19.908 57.9832 19.908 57.9832 20.0927 58.1678H20.2773H20.4619L23.231 56.691L26.0001 58.1678H26.1847H26.3693C26.5539 58.1678 26.5539 57.9832 26.5539 57.7986L26.0001 54.8449L28.2154 52.6296C28.2154 52.6296 28.4 52.445 28.2154 52.2604C28.2154 52.0758 28.0308 52.0758 28.0308 52.0758L24.8924 51.7066L23.6002 48.9375C23.4156 48.7529 23.4156 48.7529 23.231 48.7529Z" fill="#57C478"/>
<path d="M115.108 24.7953C115.478 24.7953 115.662 24.7953 115.847 24.9799L123.6 29.4105C124.154 29.7797 124.339 30.1489 124.339 30.8873V39.5639C124.339 40.1177 123.97 40.6715 123.6 41.0407L116.031 45.4713C115.847 45.6559 115.478 45.6559 115.293 45.6559C114.924 45.6559 114.739 45.6559 114.555 45.4713L106.986 41.0407C106.432 40.6715 106.247 40.3023 106.247 39.5639V30.7027C106.247 30.1489 106.616 29.5951 106.986 29.2259L114.555 24.7953C114.555 24.7953 114.924 24.7953 115.108 24.7953ZM115.108 22.9492C114.555 22.9492 114.001 23.1338 113.447 23.3184L105.878 27.749C104.77 28.3028 104.217 29.5951 104.217 30.7027V39.3792C104.217 40.6715 104.955 41.7791 105.878 42.333L113.447 46.7635C114.001 47.1327 114.555 47.1327 115.108 47.1327C115.662 47.1327 116.216 46.9481 116.77 46.7635L124.339 42.333C125.446 41.7791 126 40.4869 126 39.3792V30.7027C126 29.4105 125.262 28.3028 124.339 27.749L116.77 23.3184C116.401 23.1338 115.847 22.9492 115.108 22.9492Z" fill="#57C478"/>
<path d="M115.108 32.5487L115.477 33.2871L115.846 34.2101L116.769 34.3947H117.692L117.138 34.9485L116.4 35.687L116.585 36.61L116.769 37.3484L116.031 36.9792L115.108 36.61L114.185 36.9792L113.446 37.3484L113.631 36.61L114 35.687L113.262 34.9485L112.708 34.3947L113.446 34.2101L114.369 34.0255L114.738 33.1025L115.108 32.5487ZM115.108 28.8565C114.923 28.8565 114.738 28.8565 114.738 29.0411L113.077 32.364L109.385 32.9179C109.2 32.9179 109.016 33.1025 109.016 33.2871C109.016 33.4717 109.016 33.6563 109.2 33.6563L111.969 36.2408L111.416 39.9329C111.416 40.1175 111.416 40.3022 111.6 40.3022H111.785H111.969L115.292 38.6407L118.615 40.3022H118.8H118.984C119.169 40.3022 119.169 40.1175 119.169 39.9329L118.615 36.2408L121.384 33.6563C121.569 33.4717 121.569 33.4717 121.569 33.2871C121.2 33.1025 121.015 33.1025 120.83 33.1025L117.138 32.5487L115.477 29.2257C115.477 29.0411 115.292 28.8565 115.108 28.8565Z" fill="#57C478"/>
<path fill-rule="evenodd" clip-rule="evenodd" d="M54.0399 87.3682C54.0399 87.0543 53.7855 86.7999 53.4717 86.7999C53.1578 86.7999 52.9034 87.0543 52.9034 87.3682V90.868H49.5683C49.2544 90.868 49 91.1224 49 91.4362C49 91.7501 49.2544 92.0045 49.5683 92.0045H52.9034V95.3394C52.9034 95.6532 53.1578 95.9076 53.4717 95.9076C53.7855 95.9076 54.0399 95.6532 54.0399 95.3394V92.0045H57.5394C57.8533 92.0045 58.1077 91.7501 58.1077 91.4362C58.1077 91.1224 57.8533 90.868 57.5394 90.868H54.0399V87.3682Z" fill="#57C478"/>
<path d="M55.3015 23.1C55.3015 24.647 54.0473 25.9012 52.5002 25.9012C50.9532 25.9012 49.699 24.647 49.699 23.1C49.699 21.5529 50.9532 20.2988 52.5002 20.2988C54.0473 20.2988 55.3015 21.5529 55.3015 23.1Z" stroke="#B2DFDB" stroke-width="1.39759"/>
<path d="M97.3013 102.2C97.3013 104.134 95.7338 105.701 93.8001 105.701C91.8664 105.701 90.2989 104.134 90.2989 102.2C90.2989 100.266 91.8664 98.6988 93.8001 98.6988C95.7338 98.6988 97.3013 100.266 97.3013 102.2Z" stroke="#B2DFDB" stroke-width="1.39759"/>
</svg>
