<svg width="24" height="24" viewBox="0 0 24 24" fill="none" xmlns="http://www.w3.org/2000/svg">
<rect x="0.000488281" y="4" width="24" height="16" rx="2" fill="#57C478"/>
<path d="M6.50049 7H14.0005V6H6.50049V7ZM16.0005 9H6.50049V10H16.0005V9ZM14.0005 7H16.0005V6H14.0005V7ZM16.0005 7C16.0871 7 16.2283 7.03011 16.3333 7.10577C16.4129 7.16307 16.5005 7.26296 16.5005 7.5H17.5005C17.5005 6.93704 17.2547 6.53693 16.9176 6.29423C16.6061 6.06989 16.2472 6 16.0005 6V7ZM16.5005 7.5V9H17.5005V7.5H16.5005ZM19.5005 9H16.0005V10H19.5005V9ZM4.50049 8C4.50049 9.10457 5.39592 10 6.50049 10V9C5.9482 9 5.50049 8.55228 5.50049 8H4.50049ZM5.50049 8C5.50049 7.44772 5.9482 7 6.50049 7V6C5.39592 6 4.50049 6.89543 4.50049 8H5.50049Z" fill="white"/>
<path d="M5.00049 8V15.5C5.00049 16.6046 5.89592 17.5 7.00049 17.5H19.0005V9.5" stroke="white"/>
<path d="M14.6479 11.0918C13.6142 10.7837 12.4842 11.2766 12.1338 12.1931C11.7834 13.1097 12.1776 15.8208 12.6944 15.9826C13.4127 16.2059 15.5414 14.2265 15.8918 13.3176C16.251 12.3857 15.6903 11.4075 14.6479 11.0918ZM13.658 14.8273C13.7456 14.8735 13.9383 14.8658 14.0434 14.8196C14.0434 14.8196 14.0259 14.9659 13.9646 15.0891C13.842 15.3202 13.4478 15.505 13.0448 15.3818C12.598 15.2432 12.5893 14.7733 12.6331 14.55C12.6769 14.3266 13.0098 12.9788 13.0098 12.9788C13.0974 12.6553 13.3426 12.4165 13.7456 12.4088C13.8682 12.4088 13.9734 12.4473 14.0785 12.4935C14.0785 12.4935 13.6405 14.3112 13.5967 14.473C13.5616 14.5654 13.5266 14.7579 13.658 14.8273ZM13.7806 12.1315C13.5178 12.1315 13.3076 11.9467 13.3076 11.7156C13.3076 11.4846 13.5178 11.2997 13.7806 11.2997C14.0434 11.2997 14.2537 11.4846 14.2537 11.7156C14.2537 11.9467 14.0434 12.1315 13.7806 12.1315Z" fill="white"/>
</svg>
