<svg width="24" height="24" viewBox="0 0 24 24" fill="none" xmlns="http://www.w3.org/2000/svg">
<rect x="0.000488281" y="4" width="24" height="16" rx="2" fill="#1976D2"/>
<path d="M4.10121 10.2554L4.74869 15.0468H6.3674L9.47532 9.08997H7.79186L6.4969 11.8741C6.30265 12.2626 6.10841 12.6511 5.97891 12.9749C5.97891 12.6511 5.91416 12.3274 5.91416 11.9389L5.65517 9.08997H3.00049L5.71992 11.2267L4.10121 10.2554Z" fill="white"/>
<path d="M10.7053 15.0468L11.806 9.08997H10.2521L9.15137 15.0468H10.7053Z" fill="white"/>
<path d="M11.6122 14.723C12.0007 14.982 12.6482 15.1762 13.2957 15.1762C14.7849 15.1762 15.7561 14.3345 15.7561 13.1043C15.7561 12.4568 15.3676 11.8741 14.5259 11.4856C14.0726 11.2266 13.8137 11.0323 13.8137 10.8381C13.8137 10.6439 14.0079 10.4496 14.5259 10.4496C15.0439 10.4496 15.3676 10.6439 15.4324 10.7086L15.6266 10.8381L16.1446 9.47838L16.0151 9.41364C15.6266 9.15464 15.1734 9.02515 14.5906 9.02515C13.1662 9.02515 12.1949 9.86687 12.1949 11.0323C12.1949 11.8741 12.8424 12.3921 13.4252 12.6511C14.0079 12.91 14.0726 13.1043 14.0726 13.2985C14.0726 13.687 13.6842 13.8165 13.3604 13.8165C12.9072 13.8165 12.4539 13.687 12.1302 13.4928L11.936 13.3633L11.418 14.6582L11.6122 14.723Z" fill="white"/>
<path d="M17.245 15.0468L17.8925 13.6223H19.2522L19.3817 15.0468H21.0004L20.2882 9.08997H18.4752L15.5615 15.0468H17.245ZM18.8637 11.4209C18.9284 11.2914 18.9932 11.1619 19.0579 10.9677C19.0579 11.0972 19.0579 11.2267 19.0579 11.3562L19.1874 12.3274H18.4104L18.8637 11.4209Z" fill="white"/>
</svg>
