<svg width="24" height="24" viewBox="0 0 24 24" fill="none" xmlns="http://www.w3.org/2000/svg">
<rect x="0.000488281" y="4" width="24" height="16" rx="2" fill="#005BAA"/>
<path fill-rule="evenodd" clip-rule="evenodd" d="M3.00049 8.02856H4.22906L5.22906 10.8571L6.08621 8.51428C6.11478 8.42857 6.08621 8.39999 6.05764 8.31428C6.00049 8.22856 5.97192 8.11428 5.91478 8.02856H6.82907C6.77192 8.22856 6.68621 8.42857 6.62907 8.62857L5.45764 11.9143C5.14335 11.8571 4.77192 11.7429 4.51478 11.4857C4.31478 11.2857 4.22906 11.0857 4.14335 10.8286L3.14335 8.31428C3.0862 8.19999 3.05763 8.11428 3.00049 8.02856Z" fill="white"/>
<path fill-rule="evenodd" clip-rule="evenodd" d="M7.8574 9.34286V11.3714C7.8574 11.4571 7.88597 11.4571 7.94311 11.5429L8.17168 11.8571H7.02882C7.08597 11.7714 7.14311 11.6571 7.22882 11.5714C7.28597 11.4571 7.28597 11.4286 7.28597 11.3429V8.51429L6.97168 8H8.17168L10.086 10.3714V8.51429C10.086 8.42857 10.0574 8.4 10.0288 8.31429C9.97168 8.22857 9.88597 8.11429 9.82883 8.02857H10.9717L10.7431 8.34286C10.686 8.4 10.686 8.42857 10.686 8.51429V11.9429C10.2574 11.8857 9.82883 11.8 9.48597 11.3429L7.8574 9.34286Z" fill="white"/>
<path d="M11.429 11.2571V8.65713C11.429 8.4857 11.4004 8.37142 11.3719 8.2857C11.3433 8.19999 11.2576 8.11427 11.1719 8.05713H12.8576C13.1719 8.05713 13.429 8.11427 13.629 8.22856C13.829 8.34284 13.9433 8.4857 14.0005 8.62856C14.1147 8.77142 14.1433 8.91427 14.1433 9.0857C14.1433 9.6857 13.8005 10.0571 13.0862 10.2L12.7147 10.2286C12.6004 10.2 12.5433 10.2 12.5147 10.2C12.8862 10.0286 13.0862 9.77142 13.0862 9.34285C13.0862 8.85713 12.8862 8.59999 12.4862 8.59999V11.1143C12.4862 11.4286 12.5719 11.6571 12.7433 11.8V11.8286H11.2004C11.3433 11.6857 11.429 11.5143 11.429 11.2571Z" fill="white"/>
<path d="M14.1434 10.9714L14.9149 8.74284C14.972 8.57142 15.0006 8.45713 15.0006 8.39999C15.0006 8.2857 14.9434 8.17141 14.8006 8.05713H16.2006L17.3149 11.0571C17.372 11.2571 17.4291 11.4 17.5149 11.4857C17.572 11.6 17.6863 11.6857 17.8006 11.8V11.8286H16.0291V11.8C16.2006 11.7143 16.2577 11.6 16.2577 11.4857C16.2577 11.4 16.2291 11.3143 16.2006 11.2286L16.0291 10.6857H14.8863L14.7149 11.1714C14.6863 11.2857 14.6577 11.4 14.6291 11.4857C14.6291 11.5428 14.6577 11.6 14.6863 11.6571C14.7149 11.7143 14.772 11.7714 14.8577 11.8V11.8286H13.6577V11.8C13.772 11.6857 13.8577 11.6 13.9149 11.4857C13.9434 11.4286 13.972 11.3428 14.0006 11.2857C14.0577 11.1714 14.1149 11.0857 14.1434 10.9714ZM15.0863 10.1428H15.8863L15.4863 8.99999L15.0863 10.1428Z" fill="white"/>
<path d="M18.4574 10.1143L17.3717 8.4857C17.3145 8.37142 17.2288 8.2857 17.1717 8.22856C17.1145 8.17141 17.0574 8.11427 16.9717 8.0857H18.3717L19.2288 9.45713L19.7145 8.77142C19.7717 8.71427 19.8003 8.62856 19.8288 8.54284C19.8574 8.39999 19.8574 8.34284 19.8574 8.31427C19.8574 8.19999 19.7717 8.11427 19.6574 8.05713H21.0003L19.5717 10.1143V11.0857C19.5717 11.1143 19.5717 11.1714 19.5717 11.2C19.5717 11.2286 19.5717 11.2571 19.5717 11.2857C19.5717 11.3143 19.6003 11.4 19.6003 11.4857C19.6288 11.6 19.7145 11.7143 19.8288 11.8V11.8286H18.2288V11.8C18.4003 11.7143 18.486 11.5428 18.486 11.2571V10.1143H18.4574Z" fill="white"/>
<path fill-rule="evenodd" clip-rule="evenodd" d="M9.00049 14.6955C9.00049 14.587 9.00049 14.4786 9.03837 14.3702C9.07625 14.2617 9.11412 14.1894 9.18988 14.081C9.30352 13.9003 9.45503 13.7557 9.6823 13.6473C9.83382 13.5388 10.099 13.5027 10.3641 13.5027C10.4778 13.5027 10.5914 13.5027 10.6672 13.5388C10.7808 13.575 10.8565 13.6111 10.9702 13.6473C11.1596 13.7557 11.3111 13.9003 11.3869 14.081C11.4247 14.1894 11.5005 14.2617 11.5005 14.3702C11.5384 14.4786 11.5384 14.587 11.5384 14.6955C11.5384 14.8762 11.5005 15.0208 11.4247 15.2015C11.349 15.3822 11.2353 15.5268 11.0838 15.6352L11.3111 15.8521C11.3869 15.9244 11.4626 15.9605 11.5384 16.0328C11.6141 16.1051 11.6899 16.1412 11.8035 16.1774C11.9172 16.2135 11.9929 16.2497 12.1065 16.2497C12.0308 16.322 11.9172 16.3943 11.8035 16.4304C11.6899 16.4665 11.5762 16.5027 11.4626 16.5027C11.349 16.5027 11.2732 16.4665 11.1596 16.4304C11.0459 16.3943 10.9702 16.3581 10.8944 16.2858C10.8187 16.2135 10.705 16.1774 10.6293 16.1051L10.4399 15.9605H10.402C10.3641 15.9605 10.3641 15.9605 10.3262 15.9605H10.2126C9.98534 15.9605 9.75806 15.8882 9.56867 15.7798C9.37928 15.6714 9.22776 15.5268 9.11412 15.3099C9.07625 15.2376 9.03837 15.1292 9.03837 15.0208C9.00049 14.9123 9.00049 14.8039 9.00049 14.6955ZM9.6823 14.6955C9.6823 14.7677 9.68231 14.84 9.72019 14.9485C9.72019 15.0208 9.75806 15.093 9.79594 15.1653C9.83382 15.3099 9.90958 15.4183 10.0232 15.4906C10.099 15.5629 10.2505 15.6352 10.3641 15.6352C10.5535 15.6352 10.6672 15.5629 10.7429 15.4183C10.8187 15.2738 10.8565 15.1292 10.8565 14.9123C10.8565 14.8762 10.8565 14.7677 10.8565 14.6593C10.8565 14.587 10.8187 14.4786 10.8187 14.4063C10.7808 14.334 10.7808 14.2617 10.7429 14.2256C10.705 14.1171 10.6293 14.0087 10.5156 13.9726C10.4399 13.9003 10.3262 13.8641 10.2126 13.8641C10.1747 13.8641 10.099 13.8641 10.0611 13.9003C10.0232 13.9364 9.98534 13.9364 9.90958 13.9726C9.83382 14.0449 9.79594 14.1171 9.75806 14.2256C9.72019 14.334 9.72019 14.4424 9.72019 14.587V14.6593V14.6955H9.6823ZM12.5232 14.7316C12.599 14.7316 12.6747 14.6955 12.7505 14.6593C12.7884 14.587 12.8262 14.5509 12.8641 14.4786C12.8641 14.4424 12.902 14.4063 12.902 14.3702C12.902 14.334 12.902 14.2979 12.902 14.2617C12.902 14.1533 12.8641 14.0449 12.8262 13.9726C12.7505 13.9003 12.6747 13.8641 12.5611 13.8641H12.5232V14.7316ZM12.5232 14.9123V15.5629C12.5232 15.7436 12.5611 15.8521 12.6747 15.8882H11.652C11.7656 15.8159 11.8035 15.7075 11.8035 15.5629V13.9364C11.8035 13.828 11.8035 13.7557 11.7656 13.7196C11.7278 13.6473 11.6899 13.6111 11.652 13.575H12.8641C13.0156 13.575 13.1293 13.6111 13.2429 13.6473C13.3565 13.6834 13.4323 13.7557 13.5081 13.8641C13.5459 13.9003 13.5838 13.9364 13.5838 14.0087C13.5838 14.081 13.6217 14.1171 13.6217 14.1894C13.6217 14.2617 13.5838 14.3702 13.5459 14.4786C13.4702 14.587 13.3565 14.6593 13.205 14.7677L13.6975 15.5629C13.8111 15.7436 13.9247 15.8521 14.0005 15.9244L13.5838 15.9605H13.4702H13.3565C13.2429 15.9605 13.1672 15.9605 13.1293 15.9244C13.0914 15.8882 13.0156 15.8159 12.9778 15.7436L12.5232 14.9123Z" fill="white"/>
</svg>
