<svg width="48" height="26" viewBox="0 0 48 26" fill="none" xmlns="http://www.w3.org/2000/svg">
<path fill-rule="evenodd" clip-rule="evenodd" d="M43 0.514893C45.7614 0.514893 48 2.75347 48 5.51489V20.5149C48 23.2763 45.7614 25.5149 43 25.5149H5C2.23858 25.5149 0 23.2763 0 20.5149V5.51489C0 2.75347 2.23858 0.514893 5 0.514893H43ZM25 1.51489H43C45.2091 1.51489 47 3.30575 47 5.51489V20.5149C47 22.724 45.2091 24.5149 43 24.5149H25L25 1.51489ZM24 24.5149H5C2.79086 24.5149 1 22.724 1 20.5149V5.51489C1 3.30575 2.79086 1.51489 5 1.51489H24L24 24.5149Z" fill="#C1C6C9"/>
</svg>
