<svg width="48" height="49" viewBox="0 0 48 49" fill="none" xmlns="http://www.w3.org/2000/svg">
<path fill-rule="evenodd" clip-rule="evenodd" d="M48 5.01489C48 2.25347 45.7614 0.0148926 43 0.0148926H5C2.23858 0.0148926 0 2.25347 0 5.01489V43.0149C0 45.7763 2.23858 48.0149 5 48.0149H43C45.7614 48.0149 48 45.7763 48 43.0149V5.01489ZM32 1.01489H43C45.2091 1.01489 47 2.80575 47 5.01489V17.0149H32V1.01489ZM47 33.0149V18.0149H32V33.0149H47ZM32 34.0149V47.0149H43C45.2091 47.0149 47 45.224 47 43.0149V34.0149H32ZM31 1.01489H5C2.79086 1.01489 1 2.80575 1 5.01489V43.0149C1 45.224 2.79086 47.0149 5 47.0149H31V1.01489Z" fill="#C1C6C9"/>
</svg>
