<svg width="48" height="49" viewBox="0 0 48 49" fill="none" xmlns="http://www.w3.org/2000/svg">
<path fill-rule="evenodd" clip-rule="evenodd" d="M0 5.01489C0 2.25347 2.23858 0.0148926 5 0.0148926H43C45.7614 0.0148926 48 2.25347 48 5.01489V43.0149C48 45.7763 45.7614 48.0149 43 48.0149H17V48.0163H16V48.0149H5C2.23858 48.0149 0 45.7763 0 43.0149V5.01489ZM5 1.01489H43C45.2091 1.01489 47 2.80575 47 5.01489V31.5149H1V5.01489C1 2.80575 2.79086 1.01489 5 1.01489ZM47 32.5149H33V47.0149H43C45.2091 47.0149 47 45.224 47 43.0149V32.5149ZM32 32.5149H17V47.0149H32V32.5149ZM16 32.5149V47.0149H5C2.79086 47.0149 1 45.224 1 43.0149V32.5149H16Z" fill="#C1C6C9"/>
</svg>
