<svg width="48" height="49" viewBox="0 0 48 49" fill="none" xmlns="http://www.w3.org/2000/svg">
<path fill-rule="evenodd" clip-rule="evenodd" d="M48 43.0149C48 45.7763 45.7614 48.0149 43 48.0149H5C2.23858 48.0149 0 45.7763 0 43.0149V5.01489C0 2.25347 2.23858 0.0148926 5 0.0148926H43C45.7614 0.0148926 48 2.25347 48 5.01489V43.0149ZM43 1.01489H24.2775V24.0149H47V5.01489C47 2.80575 45.2091 1.01489 43 1.01489ZM47 25.0149H24.2775V47.0149H43C45.2091 47.0149 47 45.224 47 43.0149V25.0149ZM23.2775 24.0149V1.01489H5C2.79086 1.01489 1 2.80575 1 5.01489V24.0149H23.2775ZM1 25.0149H23.2775V47.0149H5C2.79086 47.0149 1 45.224 1 43.0149V25.0149Z" fill="#C1C6C9"/>
</svg>
