<svg width="48" height="49" viewBox="0 0 48 49" fill="none" xmlns="http://www.w3.org/2000/svg">
<path fill-rule="evenodd" clip-rule="evenodd" d="M48 43.0156C48 45.777 45.7614 48.0156 43 48.0156H5C2.23858 48.0156 0 45.7771 0 43.0156V5.01563C0 2.2542 2.23858 0.015625 5 0.015625H43C45.7614 0.015625 48 2.2542 48 5.01562V43.0156ZM43 1.01562H32V16.0156H47V5.01562C47 2.80649 45.2091 1.01562 43 1.01562ZM47 33.0156V17.0156H32V33.0156H47ZM32 34.0156V47.0156H43C45.2091 47.0156 47 45.2248 47 43.0156V34.0156H32ZM5 1.01562H31V25.0156H1V5.01563C1 2.80649 2.79086 1.01562 5 1.01562ZM1 26.0156H31V47.0156H5C2.79086 47.0156 1 45.2248 1 43.0156V26.0156Z" fill="#C1C6C9"/>
</svg>
