<svg width="96" height="24" viewBox="0 0 96 24" fill="none" xmlns="http://www.w3.org/2000/svg">
<path d="M30.6062 12.1528C31.002 10.9655 31.2178 9.27455 31.2178 8.519C31.2178 5.46082 29.5268 3.69788 26.4687 3.69788C23.9861 3.69788 21.9713 4.88517 20.6401 6.72007C19.4528 8.33911 18.7693 10.6417 18.7693 12.6565C18.7693 15.9666 20.82 17.9454 24.274 17.9454C26.3247 17.9454 28.0877 17.4777 29.203 16.938L28.8073 14.4555C28.0517 14.8152 26.6126 15.247 25.1375 15.247C23.0867 15.247 22.4031 13.9518 22.475 12.1888H30.6062V12.1528ZM23.1946 8.15921C23.8782 6.82801 24.8137 6.03648 25.965 6.03648C27.0443 6.03648 27.656 6.75605 27.656 8.15921C27.656 8.59096 27.548 9.23857 27.4401 9.67031H22.6909C22.8708 8.91476 22.9428 8.73487 23.1946 8.15921Z" fill="#ED3024"/>
<path d="M10.2783 4.09363L4.77355 16.0745L4.05398 4.09363H0.132324L1.82332 21.7231H5.42117L14.3438 4.09363H10.2783Z" fill="#ED3024"/>
<path d="M34.3119 17.9453C37.0823 17.9453 37.6939 15.1749 37.6939 15.1749C37.4781 15.2829 36.9384 15.3548 36.5786 15.3548C35.3193 15.2829 35.5712 14.0236 35.6072 13.8437L37.1183 6.64801H39.241L39.7807 4.09354H37.658C37.658 4.09354 37.8738 3.08614 38.3415 0.855471C35.6072 0.38775 34.168 1.97081 34.168 1.97081L31.6495 13.8797C31.1818 16.3262 32.1532 17.9453 34.3119 17.9453Z" fill="#ED3024"/>
<path d="M62.9508 15.3189C61.6915 15.247 61.9434 13.9877 61.9794 13.8078L63.4545 6.61213H65.5772L66.1169 4.05765H63.9942C63.9942 4.05765 64.21 3.05025 64.6778 0.819582C61.9434 0.351862 60.5043 1.93492 60.5043 1.93492L58.0577 13.8798C57.554 16.2904 58.5254 17.9094 60.6841 17.9094C63.4545 17.9094 64.0661 15.139 64.0661 15.139C63.8503 15.247 63.3106 15.3549 62.9508 15.3189Z" fill="#ED3024"/>
<path d="M56.9784 12.1528C57.3742 10.9655 57.5901 9.27455 57.5901 8.519C57.5901 5.46082 55.8991 3.69788 52.8409 3.69788C50.3584 3.69788 48.3436 4.88517 47.0124 6.72007C45.8611 8.33911 45.1775 10.6417 45.1775 12.6565C45.1775 15.9666 47.1923 17.9454 50.6822 17.9454C52.733 17.9454 54.4959 17.4777 55.6112 16.938L55.2155 14.4555C54.4599 14.8152 52.9848 15.247 51.5457 15.247C49.4949 15.247 48.8113 13.9518 48.8833 12.1888H56.9784V12.1528ZM49.5669 8.15921C50.2145 6.82801 51.1859 6.03648 52.3372 6.03648C53.4166 6.03648 54.0282 6.75605 54.0282 8.15921C54.0282 8.59096 53.9203 9.23857 53.8123 9.67031H49.0632C49.2431 8.91476 49.279 8.73487 49.5669 8.15921Z" fill="#ED3024"/>
<path d="M87.9918 4.84916L85.2935 17.8014H89.1791L91.4818 6.57613C92.1294 6.2883 93.1728 6.32428 94.1082 6.68406L95.0436 3.84176C92.705 3.41001 89.6469 3.94969 87.9918 4.84916Z" fill="#ED3024"/>
<path d="M78.9973 21.7231L78.3137 4.09363H74.2482L63.6345 21.7231H67.5202L69.7149 17.8014H75.1117L75.0757 21.7231H78.9973ZM71.118 15.247L75.1836 8.01529L75.1117 15.247H71.118Z" fill="#ED3024"/>
<path d="M41.4356 4.09363C41.4356 4.09363 39.8885 11.3253 39.061 15.3549C38.5933 17.7295 37.9816 18.7009 37.298 19.3125C35.3912 21.0035 32.1531 21.0035 30.4261 18.9887C30.1383 21.3633 32.0812 23.6659 35.5711 23.6659C39.061 23.6659 41.7594 21.0395 42.6588 17.0099L45.3572 4.09363H41.4356Z" fill="#ED3024"/>
<path d="M15.0275 4.09363L12.1492 17.8014H16.0709L18.9491 4.09363H15.0275Z" fill="#ED3024"/>
<path d="M82.4151 4.09363L79.5369 17.8014H83.4585L86.3368 4.09363H82.4151Z" fill="#ED3024"/>
</svg>
