<svg width="100" height="50" viewBox="0 0 100 50" fill="none" xmlns="http://www.w3.org/2000/svg">
<path d="M78.8692 33.8177C78.2409 33.8177 77.7383 34.3204 77.7383 34.9486C77.7383 35.5769 78.2409 36.0795 78.8692 36.0795C79.4974 36.0795 80.0001 35.5769 80.0001 34.9486C80.0001 34.3204 79.4849 33.8177 78.8692 33.8177ZM78.8692 35.8911C78.3414 35.8911 77.9142 35.4638 77.9142 34.9361C77.9142 34.4083 78.3414 33.9811 78.8692 33.9811C79.3969 33.9811 79.8241 34.4083 79.8241 34.9361C79.8116 35.4638 79.3844 35.8911 78.8692 35.8911Z" fill="#FFC113"/>
<path d="M79.2841 35.4512C79.2841 35.4512 79.259 35.4261 79.2464 35.2502C79.2464 35.1622 79.2339 35.112 79.2213 35.0743C79.2087 35.024 79.1836 34.9863 79.1459 34.9612C79.1836 34.9361 79.2213 34.9109 79.2339 34.8732C79.259 34.823 79.2841 34.7601 79.2841 34.6973C79.2841 34.5591 79.2213 34.3832 78.882 34.3832H78.4297V35.5141H78.593V35.024H78.882C78.9323 35.024 78.9826 35.0366 79.0077 35.0491C79.0454 35.0617 79.058 35.0868 79.0705 35.1371V35.1497C79.0705 35.1748 79.0831 35.2251 79.0831 35.3256C79.0831 35.4135 79.0957 35.4764 79.1208 35.5141L79.1334 35.5266H79.2841V35.4512ZM79.1208 34.6973C79.1208 34.7601 79.0957 34.8104 79.058 34.8355C79.0203 34.8607 78.9574 34.8858 78.882 34.8858H78.593V34.534H78.882C79.0957 34.5214 79.1208 34.6219 79.1208 34.6973Z" fill="#FFC113"/>
<path d="M20 42.576H22.1864V43.3048C22.1864 43.6315 22.2366 43.8702 22.3246 44.0084C22.4503 44.222 22.6639 44.3226 22.9529 44.3226C23.1916 44.3226 23.3801 44.2472 23.5309 44.0838C23.6691 43.933 23.7445 43.7571 23.7445 43.5561C23.7445 43.1163 23.4681 42.6639 22.9277 42.1864L21.9602 41.4576C21.2565 40.8671 20.8293 40.5027 20.7162 40.3519C20.5403 40.1383 20.4021 39.887 20.289 39.598C20.201 39.3089 20.1634 39.0074 20.1634 38.6807C20.1634 37.7634 20.4147 37.0723 20.9173 36.6199C21.4073 36.1676 22.1236 35.9414 23.0534 35.9414C24.0084 35.9414 24.712 36.155 25.177 36.5822C25.6419 37.022 25.8806 37.6252 25.8806 38.4042V39.2964H23.7194V38.7686C23.7194 38.4671 23.6817 38.2283 23.6063 38.0398C23.4932 37.8011 23.2921 37.688 23.0031 37.688C22.7644 37.688 22.5759 37.7508 22.4377 37.8639C22.2995 38.0021 22.2241 38.1781 22.2241 38.4168C22.2241 38.7309 22.5131 39.1205 23.1037 39.598L24.1089 40.3644C25.001 41.1561 25.5037 41.6587 25.6168 41.8597C25.8681 42.2995 25.9937 42.8775 25.9937 43.5561C25.9937 44.1592 25.7675 44.687 25.3403 45.1644C24.7874 45.755 23.9832 46.0566 22.9277 46.0566C21.9225 46.0566 21.156 45.7802 20.6283 45.2273C20.2136 44.7875 20 44.2597 20 43.6315V42.576Z" fill="#FFC113"/>
<path d="M27.0117 43.2293V36.1047H29.2735V43.267C29.2735 43.6063 29.2986 43.8576 29.374 44.021C29.4369 44.1843 29.6253 44.2723 29.9269 44.2723C30.1405 44.2723 30.3039 44.2094 30.417 44.0838C30.5175 43.9581 30.5803 43.6943 30.5803 43.2796V36.1173H32.8421V43.2419C32.8421 44.1089 32.5782 44.8 32.063 45.3026C31.5353 45.8178 30.8316 46.0817 29.9395 46.0817C29.0473 46.0817 28.3437 45.8304 27.8285 45.3152C27.2882 44.7875 27.0117 44.0964 27.0117 43.2293Z" fill="#FFC113"/>
<path d="M33.9854 45.9058V36.0922H36.4607L38.2702 41.8723L38.2953 36.0922H40.4817V45.9058H38.0314L36.1969 39.8367L36.1717 45.9058H33.9854Z" fill="#FFC113"/>
<path d="M43.9248 43.2294V38.7812C43.9248 37.8639 44.2012 37.1477 44.7416 36.6451C45.2567 36.1801 45.9604 35.9414 46.8274 35.9414C47.6944 35.9414 48.373 36.1048 48.8505 36.444C49.441 36.8587 49.73 37.487 49.73 38.3414V39.4346H47.5813V38.4545C47.5813 37.9393 47.3426 37.6754 46.8651 37.6754C46.6264 37.6754 46.4379 37.7885 46.2871 38.0021C46.1992 38.1781 46.1615 38.3665 46.1615 38.5676V43.4179C46.1615 43.7194 46.2117 43.9456 46.3122 44.109C46.4128 44.2472 46.5761 44.3226 46.8149 44.3226C47.2923 44.3226 47.5311 44.0713 47.5311 43.5812V42.3247H46.7646V40.5152H49.7426V45.9184H47.7698V45.1268C47.3552 45.7676 46.7646 46.0817 45.9981 46.0817C45.2693 46.0817 44.729 45.7927 44.352 45.2273C44.0756 44.7247 43.9248 44.0713 43.9248 43.2294Z" fill="#FFC113"/>
<path d="M56.7161 45.3026C56.7036 45.2021 56.691 45.1141 56.691 45.0262V44.7623V42.3246C56.691 41.91 56.5779 41.5707 56.3266 41.2943C56.1004 41.0052 55.7863 40.8168 55.3716 40.7414C55.9371 40.5655 56.314 40.289 56.5025 39.8869C56.6533 39.5728 56.7287 39.0953 56.7287 38.467C56.7287 37.5874 56.5025 36.9717 56.0502 36.6199C55.6104 36.2681 54.8816 36.0922 53.8763 36.0922H50.8857V45.9058H53.1475V41.6712H53.5748C53.8889 41.6712 54.1025 41.734 54.2282 41.8723C54.3538 42.0105 54.4292 42.2115 54.4292 42.488V44.0712C54.4292 44.1969 54.4292 44.3728 54.4418 44.6115C54.4418 44.8377 54.4543 45.089 54.492 45.3403C54.5549 45.6419 54.6177 45.8429 54.6931 45.9183H56.9297C56.7789 45.7424 56.7161 45.5414 56.7161 45.3026ZM54.4543 39.3717L54.3789 39.6607C54.2533 39.8869 54.0271 40 53.7004 40H53.1475V37.7634H53.5873C53.9894 37.7634 54.2407 37.8639 54.3664 38.0524C54.4418 38.2032 54.4795 38.467 54.4795 38.844L54.4543 39.3717Z" fill="#FFC113"/>
<path d="M64.834 43.2293V36.1047H67.0958V43.267C67.0958 43.6063 67.1335 43.8576 67.1963 44.021C67.2591 44.1843 67.4476 44.2723 67.7617 44.2723C67.9753 44.2723 68.1387 44.2094 68.2518 44.0838C68.3523 43.9581 68.4026 43.6943 68.4026 43.2796V36.1173H70.6644V43.2419C70.6644 44.1089 70.4005 44.8 69.8727 45.3026C69.345 45.8178 68.6413 46.0817 67.7492 46.0817C66.8696 46.0817 66.1534 45.8304 65.6382 45.3152C65.0979 44.7875 64.834 44.0964 64.834 43.2293Z" fill="#FFC113"/>
<path d="M62.8983 36.6576C62.3579 36.1801 61.6543 35.9288 60.7873 35.9288C59.9077 35.9288 59.204 36.1676 58.6888 36.6325C58.1485 37.1226 57.8721 37.8388 57.8721 38.7686V43.2168C57.8721 44.0964 58.1359 44.7875 58.6637 45.2901C59.1914 45.7927 59.8951 46.0566 60.7873 46.0566C61.6794 46.0566 62.3831 45.7927 62.9108 45.2775C63.4386 44.7623 63.7024 44.0838 63.7024 43.2168V38.7686C63.6899 37.8513 63.426 37.1477 62.8983 36.6576ZM61.4407 43.4178C61.4407 43.6189 61.4155 43.7948 61.3527 43.9707C61.2396 44.1969 61.0511 44.3225 60.7873 44.3225C60.5485 44.3225 60.3726 44.2472 60.2846 44.1089C60.1841 43.9456 60.1339 43.7194 60.1339 43.4178V38.5676C60.1339 38.354 60.159 38.1655 60.2218 37.9896C60.3349 37.776 60.5234 37.6754 60.7873 37.6754C61.0637 37.6754 61.2647 37.7885 61.3653 38.0021C61.4155 38.1404 61.4407 38.3288 61.4407 38.5676V43.4178Z" fill="#FFC113"/>
<path d="M76.8966 36.6199C76.4191 36.2681 75.527 36.0922 74.2327 36.0922H71.8076V45.9058H74.0694V42.023H75.3511C76.2683 42.023 76.9092 41.7089 77.2987 41.0932C77.4621 40.8419 77.5752 40.5906 77.6128 40.3393C77.6631 40.1005 77.6882 39.9121 77.7008 39.7738C77.7134 39.6482 77.7134 39.422 77.7134 39.0827C77.7134 37.8513 77.4495 37.0346 76.8966 36.6199ZM75.3008 40.0126C75.1752 40.1885 74.949 40.2765 74.6223 40.2765H74.0568V37.8388H74.3207C74.7731 37.8388 75.0621 37.889 75.1752 37.9895C75.3636 38.1403 75.4642 38.4922 75.4642 39.0325C75.4642 39.4848 75.4139 39.8115 75.3008 40.0126Z" fill="#FFC113"/>
<path fill-rule="evenodd" clip-rule="evenodd" d="M49.9814 16.6157H49.8809V17.1435H50.0065C50.0819 17.1435 50.1322 17.1183 50.1699 17.0681L50.1824 16.9927V16.867C50.1824 16.7791 50.1699 16.7162 50.1573 16.6785C50.1447 16.6283 50.0819 16.6157 49.9814 16.6157Z" fill="#FFC113"/>
<path fill-rule="evenodd" clip-rule="evenodd" d="M51.6902 16.5906C51.6274 16.5906 51.5771 16.6157 51.552 16.666C51.5394 16.7037 51.5269 16.7539 51.5269 16.8042V17.9476C51.5269 18.023 51.5394 18.0733 51.5646 18.111C51.5897 18.1487 51.6274 18.1613 51.6776 18.1613C51.7405 18.1613 51.7907 18.1361 51.8159 18.0733C51.8284 18.0356 51.841 17.9853 51.841 17.9476V16.8042C51.841 16.7539 51.8284 16.7037 51.8284 16.666C51.8033 16.6157 51.753 16.5906 51.6902 16.5906Z" fill="#FFC113"/>
<path fill-rule="evenodd" clip-rule="evenodd" d="M54.8944 16.6283H54.8315V17.2063H54.9698C55.0452 17.2063 55.0954 17.1812 55.1331 17.1435C55.1582 17.0932 55.1708 17.0178 55.1708 16.9047C55.1708 16.7791 55.1457 16.6911 55.108 16.6534C55.0703 16.6409 55.0075 16.6283 54.8944 16.6283Z" fill="#FFC113"/>
<path fill-rule="evenodd" clip-rule="evenodd" d="M57.6839 15.6733H40.7708C41.7133 14.1026 43.6986 12.9215 46.7897 12.1675C52.3059 10.823 55.3091 14.555 57.0305 14.7811C58.752 15.0073 59.1918 14.2031 59.7447 13.5623C55.686 13.0346 51.9541 7.68167 49.0012 4C46.2368 7.24188 42.5677 13.2482 37.9688 13.4743V18.1989H40.1049V19.0408H56.9803C56.0504 20.6241 54.0525 21.8304 50.9363 22.5843C45.4201 23.9288 42.3792 20.1843 40.6829 19.9707C38.9866 19.7571 38.5216 20.5613 37.9688 21.1895C42.0274 21.7047 46.0232 27.0702 48.9761 30.7518C51.753 27.5099 55.1331 21.5037 59.7447 21.2775V16.5152H57.6839V15.6733ZM43.2839 18.3623C43.1457 18.5005 42.9572 18.5759 42.7059 18.5759C42.4672 18.5759 42.2913 18.5131 42.1656 18.3749C42.0651 18.2743 42.0148 18.1487 42.0148 17.9979V17.7466H42.53V17.9225C42.53 17.9979 42.5426 18.0607 42.5677 18.0859C42.5928 18.1361 42.6431 18.1613 42.7185 18.1613C42.7687 18.1613 42.819 18.1487 42.8567 18.111C42.8944 18.0733 42.907 18.0356 42.907 17.9853C42.907 17.8848 42.8441 17.7717 42.7185 17.6586L42.4923 17.4827C42.329 17.3445 42.2284 17.2565 42.1907 17.2188C42.153 17.1686 42.1153 17.1058 42.0902 17.0429C42.0651 16.9675 42.0651 16.9047 42.0651 16.8293C42.0651 16.6157 42.1279 16.4524 42.241 16.3393C42.3541 16.2262 42.53 16.1759 42.7436 16.1759C42.9698 16.1759 43.1331 16.2262 43.2462 16.3267C43.3593 16.4272 43.4096 16.578 43.4096 16.7539V16.9675H42.907V16.8419C42.907 16.7665 42.8944 16.7162 42.8818 16.666C42.8567 16.6157 42.8064 16.578 42.7436 16.578C42.6934 16.578 42.6431 16.5906 42.6054 16.6157C42.5677 16.6534 42.5551 16.6911 42.5551 16.7414C42.5551 16.8168 42.618 16.9047 42.7562 17.0178L42.9949 17.2063C43.2085 17.3948 43.3216 17.5078 43.3468 17.5581C43.4096 17.6586 43.4347 17.7969 43.4347 17.9602C43.4347 18.1236 43.3845 18.2492 43.2839 18.3623ZM45.0557 17.9099C45.0557 18.111 44.9928 18.2743 44.8672 18.4C44.7415 18.5257 44.5782 18.5885 44.3646 18.5885C44.1509 18.5885 43.9876 18.5257 43.8619 18.4126C43.7363 18.2869 43.6735 18.1236 43.6735 17.9225V16.2136H44.2138V17.9099C44.2138 17.9853 44.2263 18.0482 44.2389 18.0859C44.2515 18.1236 44.3017 18.1487 44.3771 18.1487C44.4274 18.1487 44.4651 18.1361 44.4902 18.0984C44.5153 18.0733 44.5279 18.0105 44.5279 17.9099V16.2136H45.0682V17.9099H45.0557ZM46.8776 18.5382H46.2996L45.8598 17.1058V18.5382H45.3447V16.2136H45.9352L46.3625 17.5832L46.375 16.2136H46.8902V18.5382H46.8776ZM49.064 17.0052H48.5614V16.7791C48.5614 16.6534 48.5112 16.5906 48.3981 16.5906C48.3352 16.5906 48.2975 16.6157 48.2598 16.666C48.2347 16.7037 48.2347 16.7539 48.2347 16.8042V17.9476C48.2347 18.023 48.2473 18.0733 48.2724 18.111C48.2975 18.1487 48.3352 18.1613 48.3981 18.1613C48.5112 18.1613 48.574 18.0984 48.574 17.9853V17.6963H48.3855V17.2691H49.0892V18.5508H48.6242V18.3623C48.5237 18.5131 48.3855 18.5885 48.2096 18.5885C48.0337 18.5885 47.908 18.5257 47.8201 18.3874C47.7572 18.2743 47.7195 18.1236 47.7195 17.9225V16.867C47.7195 16.6534 47.7824 16.4775 47.908 16.3644C48.0337 16.2513 48.197 16.201 48.3981 16.201C48.5991 16.201 48.7625 16.2387 48.8756 16.3141C49.0138 16.4147 49.0892 16.5654 49.0892 16.7665V17.0052H49.064ZM50.2452 18.5382C50.2326 18.5131 50.2075 18.4754 50.1949 18.4C50.1824 18.3372 50.1824 18.2869 50.1824 18.2241C50.1824 18.1738 50.1824 18.1236 50.1824 18.0984V17.7215C50.1824 17.6586 50.1698 17.6084 50.1321 17.5707C50.107 17.5455 50.0441 17.5204 49.9813 17.5204H49.8808V18.5257H49.3405V16.2136H50.0441C50.2829 16.2136 50.4588 16.2513 50.5593 16.3393C50.6724 16.4272 50.7227 16.5654 50.7227 16.7791C50.7227 16.9298 50.7101 17.0429 50.6724 17.1183C50.6222 17.2063 50.5342 17.2817 50.4085 17.3194C50.5091 17.3319 50.5845 17.3822 50.6347 17.445C50.6975 17.5078 50.7227 17.5958 50.7227 17.6838V18.2618V18.3246C50.7227 18.3497 50.7227 18.3623 50.7227 18.3874C50.7227 18.4377 50.7352 18.488 50.7729 18.5257H50.2452V18.5382ZM52.3813 17.9099C52.3813 18.111 52.3185 18.2743 52.1928 18.4C52.0672 18.5257 51.9038 18.5885 51.6902 18.5885C51.4766 18.5885 51.3132 18.5257 51.1876 18.4126C51.0619 18.2869 50.9991 18.1236 50.9991 17.9225V16.867C50.9991 16.6534 51.0619 16.4775 51.1876 16.3644C51.3132 16.2513 51.4766 16.201 51.6902 16.201C51.8913 16.201 52.0672 16.2639 52.1928 16.377C52.3185 16.49 52.3813 16.6534 52.3813 16.8796V17.9099ZM54.0274 17.9099C54.0274 18.111 53.9646 18.2743 53.8389 18.4C53.7132 18.5257 53.5499 18.5885 53.3363 18.5885C53.1227 18.5885 52.9593 18.5257 52.8337 18.4126C52.708 18.2869 52.6452 18.1236 52.6452 17.9225V16.2136H53.1855V17.9099C53.1855 17.9853 53.1981 18.0482 53.2106 18.0859C53.2232 18.1236 53.2735 18.1487 53.3489 18.1487C53.3991 18.1487 53.4368 18.1361 53.4619 18.0984C53.4871 18.0733 53.4996 18.0105 53.4996 17.9099V16.2136H54.04V17.9099H54.0274ZM55.6986 17.0806C55.6986 17.1058 55.686 17.156 55.6735 17.2188C55.6609 17.2817 55.6358 17.3319 55.5981 17.3948C55.5101 17.5455 55.3468 17.6209 55.1331 17.6209H54.8316V18.5382H54.3038V16.2136H54.8818C55.1834 16.2136 55.397 16.2513 55.5101 16.3393C55.6358 16.4398 55.7112 16.6283 55.7112 16.9173C55.6986 17.0052 55.6986 17.0555 55.6986 17.0806Z" fill="#FFC113"/>
</svg>
