<svg width="106" height="18" viewBox="0 0 106 18" fill="none" xmlns="http://www.w3.org/2000/svg">
<path fill-rule="evenodd" clip-rule="evenodd" d="M90.7117 4.2057C90.7308 4.18659 90.7594 4.18659 90.7785 4.18659C91.2372 4.19615 91.6959 4.15792 92.1451 4.2057C92.5942 4.25348 93.0624 4.50194 93.1771 5.05619C93.1867 5.12308 93.2153 5.18042 93.2249 5.24731C93.244 5.3142 93.2535 5.36198 93.33 5.27598C93.588 4.99885 93.8556 4.73128 94.1709 4.52105C94.6105 4.24393 95.0787 4.06236 95.5948 3.98591C95.9579 3.93813 96.3115 3.94769 96.6555 4.00503C97.5442 4.14837 98.2227 4.60706 98.6431 5.41932C98.7483 5.61044 98.7578 5.61999 98.882 5.44798C99.2547 4.96063 99.7039 4.58794 100.258 4.32993C100.621 4.15792 101.013 4.05281 101.414 3.99547C101.787 3.94769 102.15 3.95725 102.513 4.00503C103.584 4.15792 104.358 4.70262 104.749 5.74422C104.902 6.15513 104.979 6.57559 105.027 7.01517C105.027 7.03428 105.027 7.05339 105.046 7.0725C105.046 9.2895 105.046 11.5065 105.046 13.7235C104.587 13.7235 104.128 13.733 103.67 13.7139C103.297 13.7044 102.943 13.6184 102.695 13.3221C102.513 13.1023 102.427 12.8348 102.427 12.5577C102.418 11.1147 102.418 9.67174 102.418 8.22878C102.418 7.87521 102.399 7.52164 102.322 7.16806C102.227 6.75716 101.978 6.44181 101.453 6.41314C100.659 6.36536 100.115 6.7476 99.7039 7.3783C99.4554 7.75098 99.3312 8.17145 99.2452 8.60147C99.1687 8.92637 99.1496 9.26083 99.1496 9.59529C99.1496 10.9236 99.1496 12.2423 99.1496 13.5706C99.1496 13.6853 99.1114 13.7139 99.0063 13.7139C98.2227 13.7139 97.4486 13.7139 96.665 13.7139C96.5599 13.7139 96.5217 13.6948 96.5217 13.5801C96.5217 11.7549 96.5313 9.92975 96.5217 8.10455C96.5217 7.74143 96.493 7.36874 96.3401 7.02472C96.1299 6.52781 95.7094 6.36536 95.2125 6.39403C94.6583 6.43225 94.2665 6.72849 93.9511 7.14895C93.6645 7.53119 93.4925 7.97077 93.3873 8.43901C93.2822 8.87859 93.2536 9.30861 93.2536 9.75774C93.2536 11.0287 93.2536 12.2996 93.2536 13.5706C93.2536 13.6853 93.2249 13.7044 93.1102 13.7044C92.3266 13.6948 91.5526 13.7044 90.769 13.7044C90.6639 13.7044 90.6256 13.6853 90.6256 13.5706C90.6352 12.3952 90.6256 11.2198 90.6256 10.0444C90.6256 10.0062 90.6161 9.95842 90.6352 9.9202C90.6543 9.93931 90.6543 9.95842 90.6543 9.97753C90.6543 11.1816 90.6543 12.3856 90.6543 13.5897C90.6543 13.6088 90.683 13.5897 90.6639 13.5897C90.6639 13.5897 90.6543 13.5897 90.6543 13.5801C90.6543 13.5419 90.6543 13.5037 90.6543 13.4655C90.6543 10.4171 90.6543 7.36874 90.6543 4.32038C90.6925 4.30126 90.683 4.25348 90.7117 4.2057Z" fill="#0094D0"/>
<path fill-rule="evenodd" clip-rule="evenodd" d="M43.4954 0.0775492C43.6865 0.134885 43.8777 0.182665 44.0497 0.287781C44.6135 0.622242 44.9288 1.28161 44.8237 1.93141C44.709 2.57167 44.2121 3.09725 43.5814 3.22148C42.6927 3.40304 41.8613 2.84879 41.6989 1.94097C41.5364 1.07137 42.1098 0.268669 42.9507 0.0966612C42.9698 0.0871052 42.9985 0.0966612 43.0176 0.0679932C43.1801 0.0775492 43.3425 0.0775492 43.4954 0.0775492Z" fill="#00327C"/>
<path fill-rule="evenodd" clip-rule="evenodd" d="M41.2211 13.7234C40.361 13.7043 39.5201 13.7521 38.6792 13.6948C38.2109 13.6661 37.8574 13.4368 37.6089 13.045C37.3413 12.615 37.1215 12.1467 36.8826 11.6976C36.5864 11.1433 36.2902 10.5891 35.9939 10.0253C35.9079 9.86282 35.7837 9.79593 35.6213 9.76726C35.497 9.74815 35.3824 9.73859 35.2581 9.74815C35.067 9.75771 35.0861 9.71948 35.0861 9.9106C35.0861 11.0382 35.0861 12.1658 35.0861 13.2934C35.0861 13.3985 35.0861 13.5037 35.0861 13.6088C35.0861 13.6852 35.067 13.7139 34.981 13.7139C34.1305 13.7139 33.28 13.7139 32.4295 13.7139C32.3531 13.7139 32.3244 13.6948 32.334 13.6183C32.3435 13.4941 32.334 13.3794 32.334 13.2552C32.334 9.05056 32.334 4.84592 32.334 0.641274C32.334 0.450154 32.3149 0.478822 32.4964 0.478822C32.9934 0.488378 33.4903 0.45971 33.9967 0.497934C34.5701 0.536158 34.9141 0.79417 35.0383 1.29108C35.0861 1.45353 35.0957 1.6351 35.0957 1.79755C35.0957 3.59408 35.0957 5.39061 35.0957 7.18714C35.0957 7.35915 35.0957 7.35915 35.2772 7.35915C35.4206 7.35915 35.5639 7.35915 35.7073 7.34004C35.9366 7.32092 36.1182 7.22536 36.2424 7.02469C36.8349 6.09775 37.4369 5.17082 38.0389 4.23433C38.0771 4.16744 38.1249 4.13877 38.2014 4.13877C39.1761 4.13877 40.1508 4.13877 41.1255 4.13877C41.1446 4.13877 41.1637 4.13877 41.202 4.13877C41.1255 4.25344 41.0586 4.35856 40.9917 4.46368C40.2081 5.61995 39.4341 6.78579 38.6505 7.94206C38.5263 8.12363 38.3925 8.29564 38.23 8.45809C38.2014 8.48676 38.1632 8.51542 38.2109 8.5632C38.5741 8.91678 38.7652 9.37547 38.9754 9.80549C39.5774 11.0095 40.3037 12.1467 40.9917 13.303C41.0491 13.4463 41.1255 13.5706 41.2211 13.7234Z" fill="#00327C"/>
<path fill-rule="evenodd" clip-rule="evenodd" d="M48.971 5.23778C49.1334 5.08488 49.2672 4.93199 49.4297 4.7982C50.089 4.25351 50.844 3.98594 51.6945 3.94772C52.2774 3.91905 52.8507 3.97639 53.3954 4.17706C54.2746 4.51152 54.8193 5.15177 55.0964 6.03093C55.2493 6.51828 55.3162 7.02475 55.3162 7.53122C55.3162 8.41993 55.3162 9.30864 55.3162 10.1973C55.3162 11.3154 55.3257 12.4335 55.3257 13.5611C55.3257 13.7426 55.3448 13.7235 55.1633 13.714C54.695 13.7044 54.2363 13.7331 53.7681 13.6948C53.0418 13.6471 52.6214 13.2075 52.5832 12.4812C52.5545 11.7741 52.5736 11.0765 52.5736 10.3694C52.5736 9.57621 52.5736 8.78306 52.5736 7.98991C52.5736 7.75101 52.5545 7.51211 52.4876 7.28276C52.3538 6.75718 52.0194 6.50873 51.4842 6.48962C50.4139 6.45139 49.4583 7.07253 49.1334 8.33393C49.057 8.63972 49.0188 8.95507 49.0188 9.27041C49.0188 10.7038 49.0188 12.1277 49.0188 13.5611C49.0188 13.6757 48.9997 13.714 48.8659 13.714C48.0441 13.7044 47.2318 13.7044 46.41 13.714C46.3049 13.714 46.2762 13.6853 46.2762 13.5802C46.2762 10.7994 46.2762 8.01858 46.2762 5.23778C46.2762 4.90332 46.2762 4.57841 46.2762 4.24395C46.2762 4.19617 46.2666 4.14839 46.3526 4.14839C46.84 4.15795 47.3274 4.11973 47.8147 4.16751C48.3498 4.22484 48.8085 4.49241 48.9328 5.14222C48.9423 5.18044 48.9614 5.20911 48.971 5.23778Z" fill="#00327C"/>
<path fill-rule="evenodd" clip-rule="evenodd" d="M78.9769 6.69034C78.9769 6.91968 78.9769 7.13947 78.9769 7.36881C78.9769 7.44526 78.9577 7.48349 78.8717 7.47393C78.4322 7.47393 78.0021 7.48349 77.5626 7.46437C77.0943 7.44526 76.7408 7.20636 76.5974 6.70945C76.5401 6.50877 76.3681 6.42277 76.1961 6.36543C75.2787 6.05008 74.1702 6.33676 73.549 7.08213C73.2815 7.40704 73.1095 7.77017 73.0139 8.18107C72.9088 8.63021 72.8897 9.07934 72.9757 9.52847C73.1381 10.3312 73.5682 10.9332 74.3135 11.2963C74.8773 11.5639 75.4698 11.6403 76.0718 11.5448C76.6739 11.4492 77.2186 11.1817 77.7059 10.8185C77.9161 10.6561 78.1168 10.4936 78.2888 10.293C78.3366 10.2452 78.3557 10.2356 78.3939 10.3025C78.738 10.8854 79.0915 11.4588 79.4451 12.0417C79.4833 12.1086 79.4642 12.1564 79.4164 12.2137C79.0915 12.5864 78.6997 12.8826 78.2888 13.1406C77.8301 13.4273 77.3332 13.628 76.8172 13.7618C76.1005 13.9433 75.3647 13.972 74.6193 13.8765C73.8357 13.7809 73.0999 13.5324 72.4406 13.1024C71.571 12.5386 70.9498 11.7646 70.5867 10.7899C70.3478 10.1496 70.2427 9.49025 70.2618 8.81177C70.3 7.49304 70.7491 6.33676 71.7047 5.40028C72.259 4.85558 72.9088 4.4829 73.6446 4.244C74.1797 4.07199 74.734 3.98599 75.2978 3.96687C76.0623 3.94776 76.8076 4.06243 77.5148 4.35867C78.0404 4.57846 78.4991 4.88425 78.7666 5.40983C78.9004 5.65829 78.9578 5.9163 78.9578 6.19342C78.9769 6.36543 78.9769 6.52788 78.9769 6.69034Z" fill="#0094D0"/>
<path fill-rule="evenodd" clip-rule="evenodd" d="M41.995 8.94547C41.995 7.38784 41.995 5.83021 41.995 4.28214C41.995 4.2248 41.9759 4.16747 42.0715 4.16747C42.5684 4.17702 43.0653 4.14835 43.5718 4.18658C44.2311 4.24391 44.642 4.65482 44.7089 5.31419C44.7185 5.43841 44.728 5.55309 44.728 5.67731C44.728 8.31477 44.728 10.9522 44.728 13.5897C44.728 13.6948 44.7089 13.733 44.5943 13.733C43.7724 13.7235 42.9602 13.7235 42.1384 13.733C42.0237 13.733 42.0046 13.6948 42.0046 13.5897C42.0046 12.0321 42.0046 10.484 41.995 8.94547C42.0046 8.94547 42.0046 8.94547 41.995 8.94547Z" fill="#00327C"/>
<path fill-rule="evenodd" clip-rule="evenodd" d="M68.2647 13.8288C67.4237 13.8574 66.6688 13.1407 66.6688 12.2329C66.6688 11.3346 67.4142 10.6466 68.2551 10.6371C69.1247 10.6275 69.8605 11.3729 69.8605 12.2329C69.8605 13.0929 69.1438 13.8574 68.2647 13.8288Z" fill="#0094D0"/>
<path fill-rule="evenodd" clip-rule="evenodd" d="M65.5889 13.2457C65.5603 13.1692 65.5794 13.0928 65.5794 13.0259C65.5794 10.1304 65.5794 7.23496 65.5794 4.32993C65.5794 4.15792 65.5794 4.15792 65.3978 4.15792C64.9965 4.15792 64.6047 4.15792 64.2033 4.15792C64.2415 4.1197 64.2798 4.13881 64.3275 4.13881C64.7193 4.13881 65.1111 4.13881 65.4934 4.13881C65.5794 4.13881 65.608 4.15792 65.608 4.24393C65.608 7.18718 65.608 10.1304 65.5985 13.0737C65.608 13.131 65.5985 13.1884 65.5889 13.2457Z" fill="#002F5F"/>
<path fill-rule="evenodd" clip-rule="evenodd" d="M90.7117 4.20569C90.7117 7.35917 90.7117 10.5222 90.7117 13.7044C90.6735 13.6375 90.683 13.5897 90.683 13.5515C90.683 12.4047 90.683 11.258 90.683 10.1209C90.683 10.0635 90.683 10.0157 90.683 9.95841C90.683 8.82124 90.683 7.69363 90.683 6.55647C90.683 5.83021 90.683 5.11351 90.683 4.38725C90.6735 4.32036 90.6544 4.25347 90.7117 4.20569Z" fill="#0085A8"/>
<path d="M8.25286 6.87187C8.1573 6.82409 8.0713 6.76675 7.96618 6.70942C8.03307 6.65208 8.09041 6.6043 8.14775 6.55652C8.35798 6.37496 8.55866 6.19339 8.73066 5.9736C9.23713 5.30468 9.42825 4.54976 9.38047 3.71839C9.31358 2.53344 8.75933 1.64473 7.72728 1.06182C7.01058 0.650908 6.20788 0.498012 5.39562 0.498012C4.31579 0.488456 3.2264 0.488456 2.14657 0.498012C1.707 0.498012 1.34387 0.679576 1.06674 1.02359C0.913848 1.21471 0.8374 1.4345 0.770508 1.66384C0.770508 5.66781 0.770508 9.67178 0.770508 13.6757C0.818288 13.6757 0.866068 13.6757 0.904292 13.6757C2.40459 13.6757 3.90488 13.6757 5.40517 13.6757C6.05498 13.6757 6.69523 13.5897 7.30682 13.37C8.21464 13.0546 8.96001 12.5386 9.43781 11.6881C9.90605 10.8472 10.0112 9.93935 9.81049 9.00286C9.61937 8.05681 9.1129 7.33056 8.25286 6.87187ZM3.31241 4.57843C3.31241 4.2153 3.30285 3.86173 3.32196 3.4986C3.34107 2.97302 3.57997 2.70545 4.10556 2.67678C4.61202 2.64811 5.11849 2.629 5.62496 2.69589C6.25566 2.79145 6.66657 3.18325 6.78124 3.80439C6.88635 4.34908 6.81946 4.86511 6.46589 5.31424C6.18876 5.67737 5.78741 5.81115 5.34784 5.82071C4.70758 5.83026 4.06733 5.82071 3.42708 5.82071C3.34107 5.82071 3.31241 5.79204 3.32196 5.70604C3.31241 5.33335 3.31241 4.95111 3.31241 4.57843ZM6.92458 10.8376C6.59967 11.2485 6.1601 11.4205 5.66318 11.4301C4.90826 11.4492 4.16289 11.4301 3.40797 11.4396C3.32196 11.4396 3.31241 11.411 3.31241 11.3441C3.31241 10.8949 3.31241 10.4363 3.31241 9.98713C3.31241 9.55711 3.30285 9.12709 3.31241 8.68751C3.32196 8.15237 3.6182 7.87525 4.15334 7.87525C4.63114 7.87525 5.09938 7.86569 5.57718 7.87525C6.18876 7.89436 6.70479 8.09504 7.02969 8.63973C7.42149 9.26087 7.37371 10.2643 6.92458 10.8376Z" fill="#00327C"/>
<path d="M65.4743 4.13867C65.1685 4.14823 64.8723 4.13867 64.5665 4.13867C64.4423 4.13867 64.3276 4.12911 64.2034 4.14823C63.7065 4.15778 63.3624 4.39668 63.1522 4.85537C62.9611 4.68336 62.77 4.53047 62.5502 4.41579C61.7188 3.94755 60.8206 3.84243 59.8936 3.96666C58.2882 4.18645 57.1893 5.09427 56.6159 6.59456C56.1477 7.82729 56.1285 9.09824 56.4821 10.3692C56.721 11.2292 57.1702 11.9746 57.8582 12.5575C58.7182 13.2838 59.7216 13.5609 60.8397 13.5036C61.5659 13.4653 62.2348 13.2647 62.8082 12.7869C62.8273 12.7773 62.8369 12.7582 62.8655 12.7677C62.8751 12.9398 62.8655 13.1022 62.856 13.2742C62.7891 13.9336 62.4737 14.44 61.8526 14.7172C61.1837 15.023 60.4765 15.0039 59.7694 14.8987C59.3776 14.8414 58.9954 14.7076 58.6227 14.6025C58.1544 14.4687 57.8391 14.6121 57.6288 15.0516C57.6097 15.0899 57.5906 15.1376 57.5715 15.1759C57.4091 15.5868 57.2466 15.9881 57.0841 16.399C57.0459 16.485 57.065 16.5137 57.1415 16.5615C57.8486 16.9437 58.594 17.1826 59.3776 17.3164C59.6069 17.3546 59.8267 17.3833 60.0561 17.412C60.4001 17.412 60.7441 17.412 61.0881 17.412C61.1072 17.3833 61.1359 17.3929 61.155 17.3929C61.4895 17.3737 61.8144 17.3164 62.1297 17.2304C62.9802 17.0202 63.7542 16.657 64.3849 16.0359C65.1685 15.2619 65.5221 14.3158 65.5794 13.236C65.5794 13.1882 65.5794 13.1309 65.5794 13.0831C65.5794 10.1685 65.5794 7.24437 65.5794 4.32979C65.5794 4.30112 65.5794 4.28201 65.5794 4.25334C65.6081 4.16734 65.5699 4.13867 65.4743 4.13867ZM62.7318 9.9965C62.4737 10.7036 61.9004 11.1146 61.1359 11.1241C60.1899 11.1337 59.5305 10.675 59.2343 9.77671C58.9762 8.98357 58.9667 8.19042 59.2725 7.41638C59.5496 6.71879 60.0847 6.36522 60.8301 6.33655C61.2219 6.327 61.6137 6.36522 61.9673 6.54678C62.4642 6.79524 62.7031 7.23482 62.8273 7.75084C62.9038 8.06619 62.9229 8.39109 62.9324 8.73511C62.9229 9.14602 62.8846 9.58559 62.7318 9.9965Z" fill="#00327C"/>
<path d="M89.5841 7.63621C89.4981 7.23486 89.3452 6.85262 89.1445 6.48949C88.7145 5.68679 88.1125 5.06565 87.3193 4.61652C86.6982 4.26294 86.0293 4.07182 85.3221 3.99538C84.8348 3.93804 84.357 3.95715 83.8792 4.02404C83.3632 4.10049 82.8758 4.24383 82.4076 4.47318C81.6144 4.85542 80.9646 5.41922 80.4868 6.16459C79.9517 7.00552 79.7128 7.93245 79.7223 8.92628C79.7319 9.17473 79.7319 9.42319 79.7701 9.66209C79.8465 10.2068 79.9994 10.7228 80.2383 11.2197C80.5919 11.9555 81.1079 12.548 81.7864 13.0067C82.5127 13.5036 83.3249 13.7712 84.1945 13.8476C85.0641 13.9241 85.9051 13.819 86.7173 13.5036C87.5009 13.1978 88.1698 12.7105 88.6954 12.0415C89.0681 11.5733 89.3357 11.0477 89.5077 10.4743C89.6223 10.1017 89.6797 9.71942 89.7179 9.32763C89.7657 8.75427 89.7084 8.19046 89.5841 7.63621ZM87.0327 8.84027C87.0327 9.54742 86.8989 10.1303 86.5262 10.6368C86.2204 11.0668 85.8095 11.3439 85.2935 11.4586C84.7679 11.5828 84.2614 11.5542 83.7741 11.3344C83.2772 11.1146 82.9236 10.7419 82.6942 10.2546C82.4744 9.79587 82.3789 9.30852 82.398 8.8116C82.4267 8.07579 82.6273 7.39731 83.1816 6.87173C83.6785 6.40349 84.2805 6.23148 84.959 6.29837C85.9242 6.40349 86.5262 6.95774 86.8607 7.83689C86.9944 8.19046 87.0518 8.56315 87.0327 8.84027Z" fill="#0094D0"/>
<path d="M28.7123 4.50183C27.4031 3.86158 26.0366 3.79469 24.6606 4.23426C23.2463 4.6834 22.2525 5.61989 21.7078 7.00551C21.3255 7.97066 21.2682 8.97404 21.4689 9.99654C21.6982 11.1719 22.2811 12.1466 23.2367 12.8729C24.1541 13.5705 25.2053 13.8667 26.3424 13.8667C26.7725 13.8667 27.2025 13.8285 27.6229 13.7234C29.0754 13.3698 30.1744 12.548 30.8433 11.2006C31.3784 10.1112 31.4836 8.94538 31.2351 7.76043C30.9198 6.27925 30.0788 5.17075 28.7123 4.50183ZM28.6837 8.93582C28.6837 9.59518 28.5403 10.2068 28.1198 10.7323C27.642 11.3344 26.9922 11.5733 26.2373 11.5446C25.167 11.4968 24.3548 10.7419 24.1254 9.62385C23.963 8.82115 24.0394 8.04711 24.479 7.33041C24.9664 6.54682 25.7786 6.19325 26.6864 6.31747C27.6994 6.46081 28.2919 7.08195 28.5785 8.03756C28.655 8.32424 28.6837 8.63003 28.6837 8.93582Z" fill="#00327C"/>
<path d="M18.0478 4.51153C16.8724 3.91906 15.6301 3.8235 14.3687 4.11973C12.8589 4.48286 11.76 5.37157 11.1197 6.79541C10.6897 7.74146 10.5941 8.73528 10.747 9.75778C10.9095 10.8854 11.3968 11.8505 12.2378 12.615C13.2125 13.4942 14.3783 13.8669 15.6684 13.8764C16.1748 13.8764 16.6622 13.8191 17.1495 13.6853C18.5447 13.2839 19.5863 12.4526 20.2075 11.1338C20.6948 10.0827 20.7999 8.98374 20.5706 7.85613C20.2552 6.32717 19.4239 5.19956 18.0478 4.51153ZM17.6273 10.4076C17.2547 11.0956 16.6526 11.4587 15.8786 11.5256C14.6268 11.6403 13.7094 10.8376 13.4418 9.68133C13.4227 9.59532 13.4036 9.49976 13.394 9.41376C13.3654 9.25131 13.3558 9.0793 13.3654 8.90729C13.3654 8.22882 13.5183 7.60767 13.9578 7.07254C14.4834 6.43229 15.181 6.20294 15.9933 6.30806C16.9011 6.42273 17.5031 6.95787 17.8089 7.80835C18.1147 8.69706 18.0765 9.57621 17.6273 10.4076Z" fill="#00327C"/>
</svg>
