<svg width="66" height="43" viewBox="0 0 66 43" fill="none" xmlns="http://www.w3.org/2000/svg">
<path d="M50.0972 19.6748C50.1705 18.9962 50.2255 18.2991 50.2255 17.5838C50.2255 16.9785 50.1889 16.3732 50.1338 15.7679C49.2351 18.3358 47.4742 20.4269 45.2731 21.7842C47.6393 19.7665 49.3084 16.9051 49.767 13.6035C49.4185 12.1361 48.9049 10.742 48.2079 9.4397C48.2262 9.98998 48.2262 10.5586 48.1712 11.1272C47.8777 14.8141 46.1168 18.024 43.5122 20.2251C45.9517 17.8222 47.4558 14.4839 47.4375 10.797C47.4375 9.64147 47.2724 8.54092 46.9973 7.47705C43.8607 3.09319 38.6881 0.195068 32.8185 0.195068C26.9672 0.195068 21.7763 3.09319 18.6214 7.53208C18.3462 8.59594 18.1812 9.6965 18.1812 10.8521C18.1628 14.5389 19.6669 17.8956 22.1065 20.2801C19.5018 18.079 17.7409 14.8691 17.4475 11.1822C17.4108 10.6136 17.3924 10.045 17.4108 9.49473C16.7321 10.797 16.2002 12.1911 15.8517 13.6585C16.3102 16.9601 17.9794 19.8216 20.3456 21.8392C18.1628 20.4452 16.4203 18.3542 15.5032 15.7862C15.4481 16.3732 15.4114 16.9785 15.4114 17.6021C15.4114 18.2991 15.4481 18.9962 15.5398 19.6932C16.3836 21.399 17.5759 22.8848 19.0249 24.0587C17.851 23.3984 16.7688 22.5546 15.8517 21.5641C17.6309 29.268 24.546 35.0275 32.8001 35.0275C41.0543 35.0275 47.9694 29.2863 49.7486 21.5641C48.8315 22.5729 47.7677 23.4167 46.5754 24.0587C48.0611 22.8664 49.2534 21.3807 50.0972 19.6748ZM21.5378 11.9343C21.5378 5.69783 26.582 0.653631 32.8185 0.653631C39.055 0.653631 44.0991 5.69783 44.0991 11.9343C44.0991 14.3188 43.3654 16.5199 42.1182 18.3358H42.0998C35.4231 26.8834 25.133 16.74 39.752 8.46755C38.9632 7.95396 37.2574 5.22092 35.3131 5.22092C34.0658 5.22092 32.6534 6.04633 32.3416 6.74335L23.4821 7.64213L33.0019 8.15572C34.0108 8.22909 34.561 8.706 34.561 9.51307C34.561 10.3385 33.2404 11.274 32.3416 11.971C31.5529 12.5946 26.9305 16.4832 27.5358 21.9126C27.6092 22.628 27.7743 23.3617 28.0494 24.1137C27.4625 23.5818 27.0406 22.683 26.8021 21.4907C26.4353 21.2523 26.0684 20.9955 25.7199 20.7204C23.1703 18.6293 21.5378 15.4744 21.5378 11.9343Z" fill="#E2001A"/>
<path d="M25.188 29.2678C25.6283 29.3779 25.8851 29.3595 26.3803 29.3595C26.7288 29.3595 27.3525 28.9927 27.6276 28.2039L28.7465 25.3608H30.9659L29.9571 28.1672C29.5169 29.3962 28.9299 30.5518 26.5821 30.5518C25.9401 30.5518 24.8029 30.4417 24.8029 30.4417L25.188 29.2678Z" fill="white"/>
<path d="M33.3691 25.3608H36.3405L36.8908 30.35H34.543L34.4513 29.5246H32.2135L31.5348 30.35H29.0586L33.3691 25.3608ZM34.3412 28.424L34.3962 26.9933L33.1306 28.424H34.3412Z" fill="white"/>
<path d="M39.3487 25.3608H41.7148L40.4309 29.2861H43.329L42.9621 30.35H37.5327L39.3487 25.3608Z" fill="white"/>
<path d="M64.8261 41.0495C64.4593 41.9895 63.2212 42.2876 61.8684 42.2876C60.5157 42.2876 59.6444 41.9895 59.8507 41.0495H61.5703C61.5245 41.3017 61.685 41.4622 62.1894 41.4622C62.6938 41.4622 63.0148 41.3017 63.1065 41.0495C63.3358 40.4304 59.9425 41.0265 60.4927 39.6279C60.7908 38.8484 61.9831 38.4815 63.3358 38.4815C64.6657 38.4815 65.4452 38.7796 65.2847 39.6279H63.611C63.6339 39.3987 63.5651 39.2152 63.0607 39.2152C62.5563 39.2152 62.2811 39.3987 62.1894 39.6279C61.9372 40.2699 65.3535 39.6509 64.8261 41.0495Z" fill="#231916"/>
<path d="M34.8374 42.1851H33.1178L34.4935 38.5853H36.2131" fill="#231916"/>
<path d="M47.8005 42.1851H46.0809L47.4566 38.5853H49.1762" fill="#231916"/>
<path d="M58.8369 42.1851H54.6639L56.0396 38.5853H60.2126L59.9374 39.2732H57.4841L57.209 40.0069H59.2496L58.9744 40.6947H56.9338L56.6587 41.4284H59.112" fill="#231916"/>
<path d="M24.7879 42.1851H23.4122L22.2429 40.0527L21.4174 42.1851H20.0417L21.4174 38.5853H23.0224L24.0542 40.4654L24.7879 38.5853H26.1636" fill="#231916"/>
<path d="M53.6013 42.1851H52.2256L51.0562 40.0527L50.2308 42.1851H48.8551L50.2308 38.5853H51.8358L52.8676 40.4654L53.6013 38.5853H54.977" fill="#231916"/>
<path d="M3.98012 40.9712C3.52155 42.1864 2.35221 42.301 1.5268 42.301C1.06824 42.301 0.655528 42.2552 0.334534 42.1864L0.632604 41.4298C1.41216 41.5215 2.07708 41.4527 2.35222 40.7648L3.17763 38.5867H4.89724" fill="#231916"/>
<path d="M13.824 39.7397C13.7323 39.9919 13.3883 40.1982 13.0903 40.1982H12.1502L12.4941 39.2811H13.4571C13.7552 39.2811 13.9157 39.4645 13.824 39.7397ZM13.7093 38.5933H11.0497L9.67398 42.193H11.3936L11.898 40.8861H12.861C14.443 40.8861 15.2914 40.4734 15.5665 39.7397C15.8187 39.006 15.2914 38.5933 13.7093 38.5933Z" fill="#231916"/>
<path d="M40.0736 39.7397C39.9819 39.9919 39.638 40.1982 39.3399 40.1982H38.3999L38.7438 39.2811H39.7068C40.0048 39.2811 40.1653 39.4645 40.0736 39.7397ZM39.959 38.5933H37.2993L35.9236 42.193H37.6432L38.1476 40.8861H38.675L39.0189 42.193H40.899L40.4405 40.7485C41.1971 40.5651 41.6557 40.2212 41.8391 39.7397C42.0684 39.006 41.541 38.5933 39.959 38.5933Z" fill="#231916"/>
<path d="M43.7014 41.4079L44.779 38.5878H43.0594L41.6837 42.1875H45.5815L45.8795 41.4309" fill="#231916"/>
<path d="M6.49379 40.7755L7.41091 39.6291L7.45677 40.7755H6.49379ZM8.87831 38.5973H7.34212C7.1587 38.5973 6.95235 38.7119 6.81478 38.8724L3.94876 42.197H5.37031L5.94351 41.4862H7.4797L7.50262 42.197H9.22224" fill="#231916"/>
<path d="M16.8938 40.7755L17.8109 39.6291L17.8567 40.7755H16.8938ZM19.2783 38.5973H17.7421C17.5587 38.5973 17.3523 38.7119 17.2147 38.8724L14.3487 42.197H15.7703L16.3435 41.4862H17.8797L17.9026 42.197H19.6222" fill="#231916"/>
<path d="M29.9534 40.7755L30.8705 39.6291L30.9163 40.7755H29.9534ZM32.3608 38.5973H30.8246C30.6412 38.5973 30.4349 38.7119 30.2973 38.8724L27.4313 42.197H28.8528L29.426 41.4862H30.9622L30.9851 42.197H32.7048" fill="#231916"/>
</svg>
