<svg width="100" height="50" viewBox="0 0 100 50" fill="none" xmlns="http://www.w3.org/2000/svg">
<path d="M61.9801 16C61.9025 16 61.9025 16 61.9801 16C58.6417 16 55.7691 17.708 54.1387 20.2701C52.5083 17.708 49.5581 16 46.2973 16H46.2197C41.0956 16 36.9031 20.2701 36.9808 25.3942C36.9808 30.5183 41.1732 34.6331 46.2973 34.6331H46.3749C49.6357 34.6331 52.5083 32.925 54.2163 30.363C55.9244 32.925 58.7193 34.6331 62.0578 34.6331H62.1354C67.2595 34.6331 71.4519 30.363 71.3743 25.2389C71.219 20.1924 67.0266 16 61.9801 16ZM46.2973 31.6828C44.5116 31.6828 42.9589 31.0617 41.7943 29.8195C40.5521 28.655 39.931 27.1022 39.931 25.3942C39.931 23.6861 40.5521 22.1334 41.7943 20.8912C42.9589 19.649 44.5116 19.0279 46.2973 19.0279H46.3749C48.083 19.0279 49.6357 19.649 50.8779 20.8912C52.1201 22.0557 52.7412 23.6085 52.7412 25.3165C52.6636 28.8102 49.8686 31.6828 46.2973 31.6828ZM61.9801 31.6828C60.1945 31.6828 58.6417 31.0617 57.4771 29.8195C56.2349 28.655 55.6138 27.1022 55.6138 25.3942C55.6138 23.6861 56.2349 22.1334 57.4771 20.8912C58.6417 19.649 60.1945 19.0279 61.9801 19.0279H61.9025C63.6105 19.0279 65.1633 19.649 66.4055 20.8912C67.6477 22.0557 68.2688 23.6085 68.2688 25.3165C68.4241 28.8102 65.5515 31.6828 61.9801 31.6828ZM14 16V34.6331C15.6304 34.6331 16.9502 33.3132 16.9502 31.6828V18.9502C16.9502 17.3198 15.6304 16 14 16Z" fill="#FF5722"/>
<path d="M36.5154 31.6828H32.8664V18.9502C32.8664 17.3198 31.5466 16 29.9162 16V34.6331H32.8664H39.4656C39.4656 33.0027 38.2234 31.6828 36.5154 31.6828ZM72.4617 16V34.6331C74.0921 34.6331 75.4119 33.3132 75.4119 31.6828V18.9502C75.4119 17.3198 74.0921 16 72.4617 16ZM85.1942 30.4406L79.9925 25.3165L85.1166 20.1924C86.2812 19.0279 86.2812 17.1646 85.1166 16L75.8001 25.3165L85.1166 34.6331C86.2812 33.4685 86.2812 31.6052 85.1942 30.4406ZM21.5313 25.3165L26.6554 20.1924C27.82 19.0279 27.82 17.1646 26.6554 16L17.4941 25.3165L26.8107 34.6331C27.9752 33.4685 27.9752 31.6052 26.8107 30.4406L21.5313 25.3165Z" fill="#FF5722"/>
</svg>
