<svg width="86" height="22" viewBox="0 0 86 22" fill="none" xmlns="http://www.w3.org/2000/svg">
<path d="M29.2481 10.9789H27.0053V15.7703C27.0053 16.6878 27.5151 16.7898 28.3306 16.7898C28.6365 16.7898 28.9423 16.7898 29.2481 16.7898V19.4403C28.6365 19.4403 27.9228 19.5423 27.3112 19.5423C24.2528 19.5423 23.4373 18.6248 23.4373 15.6684V10.9789H21.6023V8.53227H23.4373V5.06616H27.0053V8.53227H29.2481V10.9789Z" fill="black"/>
<path d="M47.3941 10.9789H45.1513V15.7703C45.1513 16.6878 45.6611 16.7898 46.4766 16.7898C46.7825 16.7898 47.0883 16.7898 47.3941 16.7898V19.4403C46.7825 19.4403 46.0688 19.5423 45.4572 19.5423C42.3988 19.5423 41.5833 18.6248 41.5833 15.6684V10.9789H39.7483V8.53227H41.5833V5.06616H45.1513V8.53227H47.3941V10.9789Z" fill="black"/>
<path d="M10.0826 14.8528C10.0826 18.115 8.45148 19.6442 5.08732 19.6442C1.31537 19.6442 0.092041 17.5034 0.092041 14.2412V13.6295H3.55815V14.9548C3.55815 15.8723 4.06787 16.382 4.98537 16.382C5.80093 16.382 6.31065 15.8723 6.31065 14.547V5.06616H10.0826V14.8528Z" fill="black"/>
<path d="M13.9565 14.7509C14.0584 16.2801 14.874 17.1976 16.4031 17.1976C17.2187 17.1976 18.1362 16.7898 18.442 15.9742H21.8062C21.1945 18.5229 18.8498 19.5423 16.4031 19.5423C12.8351 19.5423 10.3884 17.4015 10.3884 13.7315C10.3884 10.3673 13.039 8.02258 16.3012 8.02258C20.1751 8.02258 22.112 10.979 22.0101 14.649H13.9565V14.7509ZM18.442 12.814C18.3401 11.5906 17.5245 10.5712 16.3012 10.5712C15.0779 10.5712 14.1604 11.4887 13.9565 12.814H18.442Z" fill="black"/>
<path d="M32.7142 15.7703C32.7142 16.28 32.918 16.6878 33.3258 16.9937C33.6317 17.1975 34.1414 17.4014 34.6511 17.4014C35.3647 17.4014 36.2822 17.0956 36.2822 16.28C36.2822 15.4645 35.1608 15.2606 34.5492 15.1587C32.3064 14.547 29.4519 14.547 29.4519 11.5906C29.4519 8.94005 32.3064 8.22644 34.4472 8.22644C36.7919 8.22644 39.3405 8.94005 39.4425 11.7945H36.1803C36.1803 11.2848 35.9764 11.0809 35.6705 10.877C35.3647 10.6731 34.9569 10.5712 34.5492 10.5712C33.9375 10.5712 33.02 10.6731 33.02 11.3867C33.02 12.4062 35.3647 12.6101 36.9958 12.9159C39.2386 13.3237 39.7483 14.9548 39.7483 15.8723C39.7483 18.8287 36.9958 19.7462 34.5492 19.7462C32.0005 19.7462 29.35 18.9306 29.248 15.8723H32.7142V15.7703Z" fill="black"/>
<path d="M48.006 11.8965C48.1079 10.4693 48.7196 9.55182 49.739 9.0421C50.6565 8.53238 51.9818 8.32849 53.2051 8.32849C55.7538 8.32849 58.3024 8.94016 58.3024 11.9985V16.7899C58.3024 17.7074 58.3024 18.7268 58.7101 19.5424H55.0401C54.9382 19.2365 54.8363 18.8288 54.8363 18.5229C53.9188 19.4404 52.5935 19.8482 51.2682 19.8482C49.2293 19.8482 47.5982 18.8288 47.5982 16.586C47.5982 13.0179 51.4721 13.3238 53.9188 12.814C54.5304 12.7121 54.8363 12.5082 54.8363 11.7946C54.8363 10.979 53.8168 10.6732 53.1032 10.6732C52.0838 10.6732 51.4721 11.081 51.3701 11.9985H48.006V11.8965ZM52.5935 17.5035C54.3265 17.5035 54.8363 16.586 54.7343 14.3432C54.2246 14.649 53.3071 14.751 52.4915 14.9549C51.676 15.1588 51.0643 15.4646 51.0643 16.3821C51.1663 17.0957 51.7779 17.5035 52.5935 17.5035Z" fill="black"/>
<path d="M63.7054 8.83806C63.1956 9.14389 62.7879 9.75556 62.482 10.3672V8.53223H59.0159V19.4403H62.584V14.0372C62.584 12.7119 63.5015 11.4886 65.2345 11.4886C65.6423 11.4886 66.0501 11.5906 66.3559 11.6925L63.7054 8.83806Z" fill="black"/>
<path fill-rule="evenodd" clip-rule="evenodd" d="M76.7543 0.886475L77.0601 7.10508H85.6234L77.4679 12.5081L79.3029 21.3773L72.2687 15.3626L62.9918 20.154L68.4968 12.6101L63.2976 7.10508H71.8609L76.7543 0.886475Z" fill="#F47735"/>
</svg>
