<svg width="90" height="35" viewBox="0 0 90 35" fill="none" xmlns="http://www.w3.org/2000/svg">
<path d="M8.44483 25.895C8.15128 26.4821 4.54867 34.0076 4.46861 34.0076H4.44192C4.36187 34.0076 1.18623 27.2827 1.18623 27.2827C0.839311 26.6155 0.732566 26.2953 0.198846 26.0551C0.17216 26.0018 0.0921021 25.9217 0.0921021 25.895H2.06687C2.33373 26.4287 4.8689 32.0328 4.8689 32.0328C7.77768 26.0818 7.59087 26.2419 7.7243 25.895H8.44483Z" fill="#005695"/>
<path d="M16.7976 32.9667C16.2639 33.6072 15.4633 33.9808 14.5026 33.9808C12.6079 33.9808 11.1669 32.6198 11.1669 30.8318C11.1669 29.6577 12.0475 28.1099 14.4759 28.1099C16.1305 28.1099 17.3313 29.2307 17.4915 30.4582H12.8214C12.7947 30.7251 12.7947 30.9386 12.7947 31.1788C12.7947 32.2729 13.5953 33.4471 14.6894 33.5271C15.49 33.5805 16.1572 33.3403 16.6375 32.7532L16.7976 32.9667ZM15.9437 30.0846C15.9437 29.3908 15.6234 28.5368 14.5827 28.5368C13.1149 28.5368 12.9015 29.8178 12.8481 30.0846H15.9437Z" fill="#005695"/>
<path d="M83.059 32.9667C82.5253 33.6072 81.7247 33.9808 80.764 33.9808C78.8693 33.9808 77.4283 32.6198 77.4283 30.8318C77.4283 29.6577 78.3089 28.1099 80.7374 28.1099C82.3919 28.1099 83.5928 29.2307 83.7529 30.4582H79.0828C79.0561 30.7251 79.0561 30.9386 79.0561 31.1788C79.0561 32.2729 79.8567 33.4471 80.9508 33.5271C81.7514 33.5805 82.4186 33.3403 82.8989 32.7532L83.059 32.9667ZM82.2051 30.1113C82.2051 29.4175 81.8849 28.5635 80.8441 28.5635C79.3764 28.5635 79.1629 29.8445 79.1095 30.1113H82.2051Z" fill="#005695"/>
<path d="M9.48579 27.4427C9.85939 27.4427 10.1529 27.1492 10.1529 26.7755C10.1529 26.4286 9.85939 26.1084 9.48579 26.1084C9.13887 26.1084 8.81864 26.4286 8.81864 26.7755C8.81864 27.1492 9.11218 27.4427 9.48579 27.4427ZM10.3131 28.5368V28.1899H10.0462H8.8987H8.63184V28.5368H8.8987V33.6339H8.63184V33.9808H10.2864V33.6339H10.0195V28.5368H10.3131Z" fill="#005695"/>
<path d="M57.5471 27.4427C57.9207 27.4427 58.2143 27.1492 58.2143 26.7755C58.2143 26.4286 57.9207 26.1084 57.5471 26.1084C57.2002 26.1084 56.88 26.4286 56.88 26.7755C56.9067 27.1492 57.2002 27.4427 57.5471 27.4427ZM58.4011 28.5368V28.1899H58.1342H56.9867H56.7198V28.5368H56.9867V33.6339H56.7198V33.9808H58.3744V33.6339H58.1075V28.5368H58.4011Z" fill="#005695"/>
<path d="M66.247 25.708V25.3611H65.9802H64.8327H64.5658V25.708H64.8327V33.6337H64.5658V33.9807H66.2203V33.6337H65.9535V25.708H66.247Z" fill="#005695"/>
<path d="M68.195 27.4427C68.5686 27.4427 68.8621 27.1492 68.8621 26.7755C68.8621 26.4286 68.5686 26.1084 68.195 26.1084C67.848 26.1084 67.5278 26.4286 67.5278 26.7755C67.5278 27.1492 67.8214 27.4427 68.195 27.4427ZM69.0222 28.5368V28.1899H68.7554H67.6079H67.341V28.5368H67.6079V33.6339H67.341V33.9808H68.9955V33.6339H68.7287V28.5368H69.0222Z" fill="#005695"/>
<path d="M22.2683 32.9135C20.8273 34.0076 19.4663 33.7941 19.4663 31.7393V28.6704C19.5196 28.6704 21.9214 28.6704 22.0281 28.6704V28.2434H19.4663V27.0159L18.3188 27.7898V28.2701H17.7584V28.6971H18.3188V28.8572C18.3188 28.8572 18.3188 31.6326 18.3188 32.4331C18.3188 33.207 19.4129 33.9542 20.0267 34.0076C20.6671 34.061 21.7079 34.061 22.4284 33.127L22.2683 32.9135Z" fill="#005695"/>
<path d="M29.0466 33.6338C29.0466 33.6338 29.0466 29.9244 29.0466 29.6842C29.0466 29.4441 28.9132 28.4033 27.4455 28.2432C25.9777 28.0831 25.3373 28.3232 24.43 29.3907V28.6702V28.2432H23.1223H22.9622V28.6702H23.1223V33.6338H22.9622V33.9807H23.1223H24.43H24.5901V33.6338H24.43V30.3514C24.6434 30.0045 25.4173 29.0971 25.8977 28.937C26.6983 28.6702 27.739 28.7235 27.739 29.3907C27.739 30.0578 27.739 33.6338 27.739 33.6338H27.5789V33.9807H27.739H29.0466H29.2067V33.6338H29.0466Z" fill="#005695"/>
<path d="M76.4408 33.6338C76.4408 33.6338 76.4408 29.9244 76.4408 29.6842C76.4408 29.4441 76.3074 28.4033 74.8396 28.2432C73.3719 28.0831 72.7314 28.3232 71.8241 29.3907V28.6702V28.2432H70.5165H70.3564V28.6702H70.5165V33.6338H70.3564V33.9807H70.5165H71.8241H71.9842V33.6338H71.8241V30.3514C72.0376 30.0045 72.8115 29.0971 73.2918 28.937C74.0924 28.6702 75.1332 28.7235 75.1332 29.3907C75.1332 30.0578 75.1332 33.6338 75.1332 33.6338H74.9731V33.9807H75.1332H76.4408H76.6009V33.6338H76.4408Z" fill="#005695"/>
<path d="M45.752 33.634C45.752 33.634 45.752 29.9246 45.752 29.6845C45.752 29.4443 45.6186 28.2434 44.1509 28.2434C43.2969 28.2434 43.0034 28.3235 42.096 29.3909L42.0693 29.3642C41.9626 28.9106 41.6157 28.2434 40.4949 28.2434C39.6409 28.2434 39.3474 28.3235 38.44 29.3909V28.6704V28.2434H37.1324H36.9723V28.6704H37.1324V33.634H36.9189V33.9809H37.0791H38.3867H38.5468V33.634H38.3867V30.3516C38.7336 28.7771 40.735 28.7238 40.735 29.3909C40.735 30.0581 40.735 33.634 40.735 33.634H40.5749V33.9809H40.735H42.0427H42.2028V33.634H42.0427C42.0427 33.634 42.0427 33.6073 42.0427 33.5806C42.0427 33.2871 42.0427 31.3657 42.0427 30.3516C42.4163 28.8038 44.391 28.7238 44.391 29.3909C44.391 30.0581 44.391 33.634 44.391 33.634H44.2309V33.9809H44.391H45.6986H45.8588V33.634H45.752Z" fill="#005695"/>
<path d="M35.5581 33.287C35.5581 32.9134 35.5581 32.2196 35.5581 30.058C35.5581 27.8964 33.7435 28.1099 32.3024 28.1099C30.8614 28.1099 30.1142 29.0173 30.1142 29.0173L30.4344 29.3909C31.5552 28.27 33.3165 28.4302 34.037 28.9906C34.7575 29.551 33.957 30.1648 33.3699 30.2715C32.7561 30.3782 30.6746 30.4583 30.1409 31.2589C29.367 32.3797 30.0608 33.3137 30.7546 33.8207C31.4485 34.3545 32.8361 34.1143 33.3165 33.7941C33.9036 33.3938 33.4766 33.6873 34.3572 32.8867V33.9809H36.0652C36.0652 33.9809 35.5581 33.6606 35.5581 33.287ZM34.3572 31.926C34.2505 32.2196 33.0496 33.2336 32.4625 33.3671C31.9021 33.5005 30.8614 33.0202 31.2083 31.8993C31.4218 31.2055 32.2757 30.8052 33.8502 30.4583C34.3839 30.3516 34.3306 30.4049 34.3306 30.4049V31.926H34.3572Z" fill="#005695"/>
<path d="M63.9251 28.2432C62.4574 28.0831 61.8169 28.3232 60.9096 29.3907V28.6702V28.2432H59.602H59.4418V28.6702H59.602V33.6338H59.4418V33.9807H59.602H60.9096H61.0697V33.6338H60.9096V30.3514C61.1231 30.0045 61.8969 29.0971 62.3773 28.937C62.8576 28.7769 63.2312 28.937 63.6049 29.0705L64.3521 28.3232C64.2186 28.2966 64.0852 28.2699 63.9251 28.2432Z" fill="#005695"/>
<path d="M55.9458 33.6338L52.0497 25.6013L47.9934 33.9807H48.7673L50.2083 30.9919H53.1171L54.5582 33.9807H56.106H56.2127V33.6338H55.9458ZM50.5553 30.3247L51.6761 28.0031L52.7969 30.3247H50.5553Z" fill="#005695"/>
<path d="M88.8497 29.4174V28.5368C88.8497 28.5368 87.6222 28.0031 86.6615 28.0031C85.7275 28.0031 84.2064 28.3233 84.3131 29.7643C84.3932 30.7784 86.7149 31.3655 87.2753 31.659C87.8357 31.9526 88.3961 32.4062 88.0225 32.8599C87.4087 33.6338 85.4873 33.8206 84.0729 32.4863V33.2602C84.0729 33.2602 85.3005 34.1408 86.528 34.1408C87.7556 34.1408 88.8764 33.6338 89.1966 32.8866C89.5169 32.1127 89.5436 31.3388 88.0492 30.7517C86.8483 30.2714 85.0336 29.8177 85.7008 29.0171C86.3412 28.1899 88.236 28.8036 88.8497 29.4174Z" fill="#005695"/>
<path d="M60.8293 19.8104C61.1762 19.8104 61.5231 19.9171 61.8433 20.0239C62.1903 20.1306 62.5105 20.2373 62.6706 20.1306C62.7774 20.0505 62.8307 19.8371 62.8307 19.4901C62.8307 18.9297 62.2703 18.1025 61.4164 17.3819C60.8026 16.8482 58.561 15.167 55.5988 15.6473C55.2519 16.0209 52.5299 18.9297 49.1675 19.0898C49.0874 19.0898 49.0341 19.0365 49.0341 18.9564C49.0341 18.8764 49.0874 18.823 49.1675 18.823C52.5566 18.6896 55.412 15.4872 55.4387 15.4339C55.4654 15.4072 57.9205 13.2723 58.9346 9.88317V9.85648C59.0413 9.66968 59.9753 7.98846 60.856 7.98846C61.2029 7.98846 61.4164 7.7216 61.4431 7.48142C61.4697 7.26794 61.3363 7.00108 60.9894 6.9477C60.936 6.9477 54.3713 6.04038 52.2631 9.77642C52.2631 9.77642 51.8895 10.577 51.8628 11.8579C51.8628 11.9113 51.8628 11.9647 51.8628 11.9647C51.8628 12.0447 51.8094 15.9943 48.0467 17.7822C48.02 17.7822 48.02 17.7822 47.9933 17.7822C47.9399 17.7822 47.8866 17.7555 47.8599 17.7022C47.8332 17.6488 47.8599 17.5687 47.9132 17.5154C51.5425 15.7808 51.5692 11.9647 51.5692 11.938C51.5692 11.9113 51.5692 11.8846 51.5692 11.8579C51.5692 11.3509 51.5692 8.76235 51.1689 7.26794C51.0088 6.68084 50.6886 5.88026 50.315 5.02631C49.4877 3.07823 49.0341 1.87736 49.461 1.45038C49.8346 1.07678 49.888 0.489688 49.7279 0.196142C49.6212 0.0360261 49.461 -0.0173459 49.2209 0.0360261C48.3936 0.2762 45.1913 4.06561 45.1913 7.96177C45.1913 8.49549 45.1913 8.97584 45.1913 9.37613C45.1646 11.9647 45.1646 12.2048 45.9118 12.9521C46.7124 13.0588 47.2461 13.2723 47.5663 13.6459C47.8599 13.9928 47.9666 14.4732 47.8599 15.167C47.6731 16.3946 45.725 16.7415 45.6449 16.7415C45.5649 16.7415 45.5115 16.7148 45.4848 16.6347C45.4848 16.5547 45.5115 16.5013 45.5916 16.4746C45.6182 16.4746 47.4329 16.1544 47.593 15.1136C47.6731 14.5265 47.6197 14.0996 47.3528 13.8327C47.086 13.5392 46.6323 13.3523 45.9385 13.2456C45.8584 13.2456 45.7784 13.2189 45.6716 13.2189C45.4314 13.1922 45.1913 13.1922 44.8977 13.1922H44.5241C44.2039 13.1922 43.9103 13.2189 43.6435 13.2456C43.5634 13.2456 43.4567 13.2723 43.3766 13.2723C42.7362 13.379 42.3092 13.5658 42.069 13.8327C41.8288 14.1262 41.7488 14.5265 41.8288 15.1136C41.9889 16.1544 43.8036 16.4746 43.8303 16.4746C43.9103 16.4746 43.9637 16.5547 43.937 16.6347C43.937 16.6881 43.857 16.7415 43.8036 16.7415H43.7769C43.6969 16.7148 41.7488 16.3946 41.562 15.167C41.4552 14.4998 41.562 14.0195 41.8555 13.6459C42.1491 13.299 42.6561 13.0855 43.3766 12.9787C44.1238 12.2315 44.1238 11.9914 44.1238 9.37613C44.1238 8.97584 44.1238 8.49549 44.1238 7.96177C44.1238 4.0923 40.9482 0.302886 40.0942 0.0360261C39.8541 -0.0440319 39.694 0.00934011 39.5872 0.196142C39.4004 0.489688 39.4805 1.10347 39.8541 1.45038C40.281 1.87736 39.8007 3.07823 39.0001 5.02631C38.6532 5.88026 38.3063 6.65416 38.1462 7.26794C37.7459 8.76235 37.7459 11.3509 37.7459 11.8579C37.7459 11.8846 37.7459 11.9113 37.7459 11.938C37.7459 11.9647 37.7992 15.8075 41.4019 17.5154C41.4552 17.5421 41.5086 17.6221 41.4552 17.7022C41.4285 17.7555 41.3752 17.7822 41.3218 17.7822C41.2951 17.7822 41.2951 17.7822 41.2684 17.7822C37.5057 15.9943 37.4523 12.018 37.4523 11.9647C37.4523 11.9647 37.4523 11.9113 37.4523 11.8579C37.4256 10.5503 37.052 9.77642 37.052 9.74974C34.9438 6.01369 28.4058 6.92102 28.3257 6.92102C27.9521 6.97439 27.8454 7.24125 27.872 7.45474C27.8987 7.7216 28.0855 7.96177 28.4591 7.96177C29.3131 7.96177 30.2738 9.64299 30.3805 9.82979V9.85648C31.3946 13.2456 33.8497 15.3805 33.8764 15.4072C33.9031 15.4339 36.7585 18.6362 40.1476 18.7963C40.2277 18.7963 40.281 18.8497 40.281 18.9297C40.281 19.0098 40.2277 19.0632 40.1476 19.0632C36.8119 18.9297 34.0632 16.021 33.7163 15.6207C30.7808 15.167 28.5392 16.8482 27.8987 17.3819C27.0448 18.1025 26.4844 18.9297 26.4844 19.4901C26.4844 19.8371 26.5377 20.0505 26.6445 20.1306C26.8046 20.2373 27.1248 20.1573 27.4718 20.0239C27.792 19.9171 28.1389 19.8104 28.4858 19.8104C28.9662 19.8104 29.8468 20.0239 31.0744 20.3441C32.6488 20.7177 34.7837 21.2514 37.2388 21.625C41.4819 22.2388 44.4441 19.6502 44.4974 19.6236C44.5508 19.5702 44.6309 19.5702 44.6842 19.6236C44.7109 19.6502 47.6998 22.2388 51.9428 21.625C54.398 21.2781 56.5328 20.7444 58.1073 20.3441C59.4683 20.0505 60.3489 19.8104 60.8293 19.8104Z" fill="#D59F0F"/>
</svg>
