<svg width="57" height="43" viewBox="0 0 57 43" fill="none" xmlns="http://www.w3.org/2000/svg">
<path fill-rule="evenodd" clip-rule="evenodd" d="M21.394 0.195068L32.8891 11.6902C34.0667 12.8678 34.291 14.6621 33.3938 16.0079L29.3565 22.5686H29.6368C29.805 22.5686 30.0293 22.4564 30.1415 22.2882L33.2816 17.1855C33.6742 16.5687 34.347 16.1761 35.1321 16.1761H37.375L39.9544 18.7555L39.7862 18.6434C39.0012 18.363 38.104 18.6434 37.5993 19.3163L34.1788 24.9237C33.6742 25.7087 32.7209 26.3255 31.7116 26.3255H20.1603L24.3659 19.5406C24.6462 18.9798 24.6462 18.1387 24.1416 17.6901L17.5809 11.1856C17.0763 10.6809 16.908 9.89586 17.1884 9.33512L18.1977 7.26039L27.0574 16.0079C27.5621 16.6247 27.6742 17.4098 27.2256 17.9705L23.0762 24.6433H31.5433C32.1602 24.6433 32.6087 24.3629 32.9452 23.8583L36.0853 18.7555C36.3657 18.363 36.8704 17.9705 37.2629 17.7462L37.5433 17.6341H35.4685H35.5807C35.076 17.6341 34.6835 17.9144 34.5153 18.2509L31.4312 23.1854C31.0387 23.8022 30.4219 24.1947 29.749 24.1947H26.3845L30.8144 17.1294C31.4873 16.064 31.319 14.55 30.3097 13.5967L20.7771 4.06417C20.2725 3.55951 20.1603 2.88662 20.3846 2.21373L21.394 0.195068Z" fill="url(#paint0_linear)"/>
<path fill-rule="evenodd" clip-rule="evenodd" d="M19.7679 3.72791L29.8612 13.7651C30.7584 14.6623 30.9266 16.0081 30.2537 17.0174L25.8238 24.1949H23.9734L27.6182 18.3071C28.1229 17.5221 28.0107 16.3445 27.3378 15.6717L19.151 7.54093C18.7585 7.03627 18.5342 6.25123 18.8707 5.69049L19.7679 3.72791Z" fill="url(#paint1_linear)"/>
<path fill-rule="evenodd" clip-rule="evenodd" d="M2.21679 30.4189H1.88035L1.48783 30.475L1.20746 30.5872L0.92709 30.6993L0.702794 30.8675L0.534572 31.204L0.422424 31.3722V31.5965V31.8769L0.534572 32.1572L0.702794 32.3815L0.92709 32.5498L1.20746 32.774L1.48783 32.8301L1.88035 32.9423H2.21679H4.06723H4.23545L4.45975 33.0544L4.5719 33.1666L4.62797 33.3348L4.74012 33.4469L4.62797 33.6152L4.5719 33.7273L4.45975 33.8395L4.23545 33.9516H4.06723H0.534572V34.9049H4.23545L4.62797 34.7927L4.96442 34.7366L5.24479 34.6245L5.52516 34.4002L5.74945 34.232L5.91767 34.0077L6.02982 33.7273V33.4469V33.1666L5.91767 32.9423L5.74945 32.6619L5.52516 32.4376L5.24479 32.3815L4.96442 32.2694L4.62797 32.1572L4.23545 32.0451H2.38501H2.21679H1.9925L1.88035 31.989L1.82427 31.7647L1.71213 31.6526L1.82427 31.5965L1.88035 31.3722L1.9925 31.2601H2.21679L2.38501 31.204H5.80552V30.4189H2.21679Z" fill="#005A96"/>
<path fill-rule="evenodd" clip-rule="evenodd" d="M7.37555 34.9049H8.7774V30.4189H7.37555V34.9049Z" fill="#005A96"/>
<path fill-rule="evenodd" clip-rule="evenodd" d="M10.3474 30.4189H11.6371V34.9049H10.3474V30.4189Z" fill="#005A96"/>
<path fill-rule="evenodd" clip-rule="evenodd" d="M12.31 30.4189H13.8801H14.1605L14.553 30.475L14.8894 30.5872L15.1698 30.6993L15.4502 30.8675L15.6745 31.0918L15.8427 31.2601L15.9548 31.5965V31.8769V34.9049H14.6651V31.6526L14.553 31.4843L14.4408 31.3722L14.2726 31.2601L14.0483 31.204H13.8801H11.6371L12.31 30.4189Z" fill="#005A96"/>
<path fill-rule="evenodd" clip-rule="evenodd" d="M23.1324 34.9049H19.9922H19.5997L19.095 34.7927L18.7025 34.6245L18.31 34.5123L18.0296 34.232L17.6932 33.9516L17.4128 33.6152L17.2446 33.3348L17.1324 33.0544V32.6619V32.3815V32.0451L17.3007 31.6526L17.525 31.4843L17.6932 31.204L18.0296 30.9797L18.4221 30.8115L18.8147 30.5872L19.2072 30.475H19.5997L20.0483 30.4189H23.1324V31.204H20.2726H19.8801L19.5997 31.2601L19.2633 31.3722L18.9829 31.4843L18.8147 31.6526L18.5904 31.8769L18.4782 32.1572L18.4221 32.3815V32.6619L18.4782 32.9423L18.5904 33.1666L18.8147 33.4469L18.9829 33.6152L19.2633 33.7273L19.5997 33.9516H19.8801L20.2726 34.0077H21.7305V31.8769H23.1324V34.9049Z" fill="#005A96"/>
<path fill-rule="evenodd" clip-rule="evenodd" d="M24.3099 33.6151L24.9828 32.4375L25.6557 31.3721L26.4407 30.3628H27.8426L28.5155 31.3721L29.3005 32.4375L29.9734 33.6151L30.6463 34.9048H29.1883L28.5155 33.4469H25.7678L25.0949 34.9048H23.637L24.3099 33.6151ZM28.0108 32.6618L27.1136 31.2039L26.2164 32.6618H28.0108Z" fill="#005A96"/>
<path fill-rule="evenodd" clip-rule="evenodd" d="M31.3752 34.9049V30.4189H34.6836H35.0201L35.4126 30.475L35.6929 30.5872L35.9733 30.6993L36.2537 30.8675L36.478 31.0918L36.5901 31.3722L36.6462 31.6526V31.8769V32.1572L36.478 32.4376L36.3658 32.6619L36.0855 32.9423L35.8051 33.0544L35.4686 33.2226L35.0761 33.3348H34.7958H33.3378L32.6649 32.4376H34.6275H34.7958L35.0201 32.3815L35.1883 32.2694L35.4126 32.1572L35.4686 31.989V31.7647V31.6526L35.4126 31.4843L35.1883 31.3722L35.0201 31.204H34.7958H34.6275H32.6649V34.9049H31.3752Z" fill="#005A96"/>
<path fill-rule="evenodd" clip-rule="evenodd" d="M44.0479 32.4376V32.8301L43.9357 33.1105L43.7114 33.3909L43.5432 33.8395L43.3189 34.1198L43.0385 34.3441L42.646 34.6245L42.3657 34.7927L41.9731 34.9049L41.4685 35.0731H41.076H40.5713H40.1788L39.7863 34.9609L39.2816 34.8488L39.0012 34.6245L38.6087 34.4563L38.3283 34.1759L38.048 33.8955L37.8237 33.6152L37.5994 33.3348L37.4872 33.0544L37.4312 32.6619V32.3815L37.5433 32.1012L37.6554 31.7087L37.8797 31.4283L38.104 31.2601L38.3844 30.9797L38.6648 30.7554L39.0573 30.5872L39.3377 30.475L39.8423 30.3629L40.2349 30.2507H40.6274H41.132H41.5246L42.0292 30.3629L42.4217 30.5872L42.7021 30.6993L43.0946 30.9236L43.375 31.0918L43.5993 31.3722L43.7675 31.5404L43.9918 31.8208L44.104 32.2133V32.4376H44.0479ZM42.7582 32.5498L42.646 32.2694V31.989L42.4778 31.7647L42.2535 31.5965L41.9731 31.3722L41.6928 31.204L41.3563 31.0918H40.9638H40.6834H40.2909L40.0106 31.204L39.7302 31.3161L39.4498 31.4844L39.1134 31.6526L39.0012 31.8208L38.833 32.1572V32.3815V32.6619V32.9423L39.0012 33.1666L39.1134 33.4469L39.3937 33.6152L39.6741 33.7834L39.9545 33.8955L40.2349 34.0077H40.6274H40.9077H41.3563L41.6367 33.8955L41.9171 33.7273L42.1974 33.503L42.3657 33.2227L42.59 33.0544V32.7741L42.7582 32.5498Z" fill="#005A96"/>
<path fill-rule="evenodd" clip-rule="evenodd" d="M45.0013 34.9049V30.4189H48.4779H48.8704L49.1508 30.475L49.5433 30.5872L49.7115 30.6993L50.0479 30.8675L50.2162 31.204L50.3283 31.3722L50.4405 31.6526L50.3283 31.8769V32.1572L50.104 32.4376L49.9358 32.6619L49.6554 32.8301L49.319 33.0544L49.0386 33.1666L50.889 34.9049H49.2629L46.6835 32.3815H48.1414H48.4779L48.6461 32.2694L48.8704 32.1572L48.9265 31.989L49.0386 31.8769V31.6526L48.9265 31.4843L48.8704 31.3722L48.6461 31.2601L48.4779 31.204H48.1414H46.291V34.9049H45.0013Z" fill="#005A96"/>
<path fill-rule="evenodd" clip-rule="evenodd" d="M56.6086 30.4189V31.204H53.0759V31.989H56.1039V32.8301H53.0759V33.9516H56.6086V34.9049H51.7862V30.4189H56.6086Z" fill="#005A96"/>
<path fill-rule="evenodd" clip-rule="evenodd" d="M13.2634 42.1384H11.8055L11.1326 40.6805H8.49711L7.71207 42.1384H6.25415L9.11392 37.5964H10.5158L13.2634 42.1384ZM8.88963 39.8955H10.684L9.78681 38.4375L8.88963 39.8955Z" fill="#005A96"/>
<path fill-rule="evenodd" clip-rule="evenodd" d="M14.1606 42.1384H15.4503V37.6525H14.1606V42.1384Z" fill="#005A96"/>
<path fill-rule="evenodd" clip-rule="evenodd" d="M23.1885 42.1384H21.4502L18.9829 39.6151H20.4409H20.7773L20.9455 39.5029L21.1698 39.3908L21.2259 39.2225L21.338 39.1104V38.8861L21.2259 38.7179L21.1698 38.6057L20.9455 38.4936L20.7773 38.4375H20.4409H18.5904V42.1384H17.3007V37.6525H20.7773H21.0577L21.4502 37.7085L21.7306 37.8207L22.0109 37.9328L22.3474 38.1011L22.4035 38.4375L22.6277 38.6057V38.8861V39.1104L22.5156 39.3908L22.4035 39.6711L22.2352 39.8954L21.9549 40.0636L21.6184 40.2879L21.2259 40.4001L23.1885 42.1384Z" fill="#005A96"/>
<path fill-rule="evenodd" clip-rule="evenodd" d="M23.9735 42.1384V37.6525H25.3754V41.1851H28.2912V42.1384H23.9735Z" fill="#005A96"/>
<path fill-rule="evenodd" clip-rule="evenodd" d="M29.1884 37.6525H30.4781V42.1384H29.1884V37.6525Z" fill="#005A96"/>
<path fill-rule="evenodd" clip-rule="evenodd" d="M32.1604 37.6525H33.4501V42.1384H32.1604V37.6525Z" fill="#005A96"/>
<path fill-rule="evenodd" clip-rule="evenodd" d="M37.8239 42.1384V39.1104L37.7678 38.83L37.6557 38.4936L37.5435 38.3254L37.3753 38.1011L37.0389 37.9328L36.7585 37.8207L36.4781 37.7085L36.0856 37.6525H35.6931H34.2352L33.5062 38.4375H35.6931H35.9735L36.1978 38.4936L36.366 38.6057L36.4781 38.7179V38.8861V42.1384H37.8239Z" fill="#005A96"/>
<path fill-rule="evenodd" clip-rule="evenodd" d="M39.3378 42.1384V37.6525H44.048V38.4375H40.5715V39.2225H43.6555V40.0636H40.5715V41.1851H44.048V42.1384H39.3378Z" fill="#005A96"/>
<path fill-rule="evenodd" clip-rule="evenodd" d="M45.3377 42.1384H49.1508L49.4311 42.0262L49.8236 41.9702L50.104 41.858L50.3283 41.6337L50.4965 41.4655L50.7208 41.2412L50.833 40.9608V40.6805V40.4001L50.7208 40.1758L50.4965 39.8954L50.3283 39.6711L50.104 39.6151L49.8236 39.5029L49.4311 39.3908L49.1508 39.2786H47.1882H46.9639H46.7957L46.6835 39.1104L46.5714 38.9982L46.5153 38.83L46.5714 38.7179L46.6835 38.6057L46.7957 38.4375H46.9639H47.1882H50.7208V37.6525H46.9639H46.6835L46.291 37.7085L46.0106 37.8207L45.7863 37.9328L45.506 38.1011L45.3938 38.4375L45.3377 38.6057L45.2256 38.83L45.3377 39.1104L45.3938 39.3908L45.506 39.6151L45.7863 39.7833L46.0106 40.0076L46.291 40.0636L46.6835 40.1758H46.9639H48.9265H49.1508L49.2629 40.2879L49.4311 40.4001L49.5433 40.5683V40.6805V40.8487L49.4311 40.9608L49.2629 41.073L49.1508 41.1851H48.9265H45.3377V42.1384Z" fill="#005A96"/>
<defs>
<linearGradient id="paint0_linear" x1="16.2141" y1="18.9458" x2="34.8176" y2="9.05414" gradientUnits="userSpaceOnUse">
<stop stop-color="#F9C511"/>
<stop offset="1" stop-color="#E29618"/>
</linearGradient>
<linearGradient id="paint1_linear" x1="19.4732" y1="15.7105" x2="28.4917" y2="10.9152" gradientUnits="userSpaceOnUse">
<stop stop-color="#F9C511"/>
<stop offset="1" stop-color="#E29618"/>
</linearGradient>
</defs>
</svg>
