<svg width="100" height="50" viewBox="0 0 100 50" fill="none" xmlns="http://www.w3.org/2000/svg">
<path fill-rule="evenodd" clip-rule="evenodd" d="M30.2734 34.7449C30.2734 34.1823 30.0323 33.901 29.5903 33.901C29.309 33.901 29.1081 34.0618 29.0277 34.2627C29.0679 34.1823 29.0679 34.0216 29.0679 33.901V33.0571H28.666V35.7094C28.8669 35.7496 29.0679 35.7897 29.309 35.7897C29.9118 35.7496 30.2734 35.3879 30.2734 34.7449ZM29.8716 34.7851C29.8716 35.2673 29.6707 35.4683 29.3492 35.4683C29.2286 35.4683 29.1482 35.4683 29.0679 35.4281V34.8655C29.0679 34.544 29.2286 34.2225 29.5099 34.2225C29.751 34.2225 29.8716 34.4234 29.8716 34.7851Z" fill="#02718C"/>
<path fill-rule="evenodd" clip-rule="evenodd" d="M32.0017 33.901H31.5998L31.3587 34.6243C31.2784 34.8253 31.198 35.0262 31.198 35.1869C31.1578 35.0262 31.1176 34.8655 31.0373 34.7047L30.7158 33.901H30.2737L30.9569 35.7093L30.8765 35.9103C30.756 36.2318 30.6756 36.3121 30.4747 36.3121C30.3943 36.3121 30.3139 36.3121 30.2335 36.2719L30.1934 36.6336C30.2737 36.6336 30.3541 36.6738 30.4345 36.6738C30.8363 36.6738 31.0373 36.5131 31.2382 35.9103L32.0017 33.901Z" fill="#02718C"/>
<path fill-rule="evenodd" clip-rule="evenodd" d="M18.3389 17.8269C17.2539 17.4652 16.0483 17.2643 14.8026 17.2643C10.4223 17.2643 7.44861 20.1576 7.04676 24.136C6.6449 28.0742 8.8551 30.4853 12.8335 30.4853C14.2801 30.4853 15.8876 30.204 17.2137 29.7218L17.8165 23.694H15.7268L15.2446 28.3555C14.6418 28.5564 13.9587 28.6769 13.2353 28.6769C10.5027 28.6368 9.01585 26.8686 9.29714 23.9351C9.61863 20.7604 11.869 19.0726 14.4409 19.0726C15.6063 19.0726 16.7716 19.3137 17.8165 19.7558L18.3389 17.8269Z" fill="#02718C"/>
<path fill-rule="evenodd" clip-rule="evenodd" d="M25.9338 30.2844C25.9739 29.4807 26.0543 28.5162 26.1347 27.7125L26.5365 23.8547C26.7375 21.9258 26.0543 20.6399 23.161 20.6399C21.9554 20.6399 20.7498 20.9212 19.7854 21.2829V23.0108C20.6293 22.5286 21.7947 22.2473 22.6787 22.2473C24.1656 22.2473 24.6076 22.8501 24.4871 24.0557L24.4067 24.6584C20.991 24.6584 18.7004 25.9042 18.4995 28.0742C18.3387 29.5611 19.263 30.4853 20.9106 30.4853C22.3974 30.4853 23.6834 29.6414 24.246 28.5162C24.1254 29.0387 24.045 29.6414 23.9647 30.2844H25.9338ZM24.246 26.1855C24.1254 27.5518 23.0404 28.8779 21.6339 28.8779C20.8302 28.8779 20.3882 28.4359 20.4685 27.7125C20.5489 26.9088 21.2723 25.9846 24.246 25.9846V26.1855Z" fill="#02718C"/>
<path fill-rule="evenodd" clip-rule="evenodd" d="M29.7515 30.2844L31.1981 16.3802H29.1487L27.7422 30.2844H29.7515Z" fill="#02718C"/>
<path fill-rule="evenodd" clip-rule="evenodd" d="M35.1371 18.1484C35.2174 17.425 34.695 16.8624 33.9717 16.8624C33.2483 16.8624 32.6054 17.425 32.525 18.1484C32.4446 18.8717 32.967 19.4343 33.6904 19.4343C34.4137 19.3941 35.0969 18.8315 35.1371 18.1484ZM33.61 30.2844L34.5745 20.8408H32.525L31.5605 30.2844H33.61Z" fill="#02718C"/>
<path fill-rule="evenodd" clip-rule="evenodd" d="M37.4673 30.2844L38.914 16.3802H36.8645L35.458 30.2844H37.4673Z" fill="#02718C"/>
<path fill-rule="evenodd" clip-rule="evenodd" d="M47.2724 24.6986C47.5136 22.4483 46.5491 20.5997 43.8165 20.5997C41.0437 20.5997 39.2755 22.7296 38.9942 25.5827C38.6728 28.9181 40.1194 30.4452 43.053 30.4452C44.2184 30.4452 45.3837 30.2442 46.3884 29.8424L46.3482 28.235C45.5445 28.5966 44.4997 28.8377 43.5352 28.8377C41.6465 28.8377 40.8026 27.8331 41.0839 25.6631H47.1117C47.2323 25.3014 47.2724 24.9799 47.2724 24.6986ZM45.3034 24.2566H41.2848C41.6063 22.9707 42.4904 22.1268 43.6156 22.1268C44.8211 22.1268 45.4641 22.9305 45.3034 24.2566Z" fill="#02718C"/>
<path fill-rule="evenodd" clip-rule="evenodd" d="M56.6349 25.3818C56.9564 22.0464 55.349 20.6399 52.8173 20.6399C49.9641 20.6399 47.8745 22.8099 47.5932 25.6631C47.2717 28.9985 48.7988 30.4451 51.451 30.4451C54.1836 30.4451 56.3134 28.2751 56.6349 25.3818ZM54.5051 25.5023C54.264 27.6723 53.0584 28.7172 51.7725 28.7172C50.2053 28.7172 49.4819 27.592 49.6828 25.4621C49.924 23.2921 51.2099 22.3277 52.4556 22.3277C54.0631 22.3277 54.706 23.4931 54.5051 25.5023Z" fill="#02718C"/>
<path fill-rule="evenodd" clip-rule="evenodd" d="M36.2209 33.1778L36.2611 32.7357H33.5285L33.4883 33.1778H34.5733L34.2518 36.5533H34.7742L35.0957 33.1778H36.2209Z" fill="#02718C"/>
<path fill-rule="evenodd" clip-rule="evenodd" d="M37.8694 33.7002C37.3068 33.6198 36.9853 34.0216 36.8246 34.4235C36.905 34.1824 36.9452 33.9413 36.9452 33.7403H36.4629L36.1816 36.5533H36.7041L36.8246 35.4281C36.905 34.5441 37.2265 34.102 37.8292 34.1824L37.8694 33.7002Z" fill="#02718C"/>
<path fill-rule="evenodd" clip-rule="evenodd" d="M39.8789 36.5532C39.8789 36.3121 39.9191 35.9906 39.9593 35.7495L40.0798 34.6243C40.12 34.0617 39.9593 33.7001 39.1154 33.7001C38.7537 33.7001 38.392 33.7804 38.1107 33.901V34.343C38.3518 34.1823 38.7135 34.1019 38.9948 34.1019C39.477 34.1019 39.5976 34.3029 39.5574 34.7047L39.5172 34.9056C38.4322 34.9056 37.7892 35.3075 37.7089 35.9103C37.6687 36.3523 37.95 36.5934 38.4322 36.5934C38.9144 36.5934 39.2761 36.3121 39.4368 35.9906C39.3967 36.1514 39.3565 36.3523 39.3565 36.5532H39.8789ZM39.477 35.3075C39.4369 35.7495 39.0752 36.1916 38.6331 36.1916C38.392 36.1916 38.2313 36.0308 38.2313 35.7897C38.2715 35.5486 38.5126 35.2271 39.477 35.2271V35.3075Z" fill="#02718C"/>
<path fill-rule="evenodd" clip-rule="evenodd" d="M43.0918 33.7404H42.5292L41.7255 35.4281C41.6452 35.5889 41.5648 35.7898 41.5246 35.9506C41.4844 35.7898 41.4442 35.5889 41.4041 35.4281L40.962 33.7404H40.3994L41.1629 36.5533H41.6854L43.0918 33.7404Z" fill="#02718C"/>
<path fill-rule="evenodd" clip-rule="evenodd" d="M45.3428 34.9057C45.4232 34.2628 45.1419 33.7404 44.3382 33.7404C43.5345 33.7404 43.0121 34.3833 42.9317 35.2272C42.8111 36.2319 43.2532 36.6739 44.0971 36.6739C44.4587 36.6739 44.7802 36.5935 45.0615 36.5132V36.1113C44.8204 36.2319 44.4989 36.272 44.2176 36.272C43.6148 36.272 43.3335 35.9506 43.4541 35.187H45.3026C45.3026 35.0263 45.3428 34.9459 45.3428 34.9057ZM44.8204 34.7852H43.4943C43.5747 34.3833 43.8961 34.102 44.2578 34.102C44.6597 34.0618 44.9008 34.3431 44.8204 34.7852Z" fill="#02718C"/>
<path fill-rule="evenodd" clip-rule="evenodd" d="M46.1474 36.5533L46.5493 32.4142H46.067L45.625 36.5533H46.1474Z" fill="#02718C"/>
<path fill-rule="evenodd" clip-rule="evenodd" d="M49.4014 35.0262C49.4818 34.1823 49.1603 33.7001 48.5173 33.7001C48.0753 33.7001 47.7136 33.9412 47.5127 34.343C47.5529 34.1823 47.5931 33.9412 47.6332 33.7804H47.151L46.709 37.9999H47.2314L47.3921 36.5934C47.5529 36.6336 47.6734 36.6336 47.8744 36.6336C48.7183 36.5934 49.321 36.0308 49.4014 35.0262ZM48.879 35.0664C48.7986 35.8701 48.3968 36.1916 47.8744 36.1916C47.6734 36.1916 47.5127 36.1514 47.3921 36.1112L47.4725 35.1869C47.5127 34.7047 47.8342 34.1019 48.3566 34.1019C48.7584 34.1421 48.9192 34.4636 48.879 35.0664Z" fill="#02718C"/>
<path fill-rule="evenodd" clip-rule="evenodd" d="M52.2146 35.1066C52.3352 34.1019 51.8127 33.7001 51.0894 33.7001C50.2455 33.7001 49.6427 34.343 49.5624 35.1869C49.4418 36.1916 49.924 36.6336 50.6876 36.6336C51.5314 36.6336 52.1342 35.9505 52.2146 35.1066ZM51.6922 35.1467C51.6118 35.8701 51.21 36.1916 50.8081 36.1916C50.2857 36.1916 50.0446 35.8299 50.125 35.1467C50.2053 34.4636 50.6072 34.1421 51.009 34.1421C51.5315 34.1421 51.7324 34.5038 51.6922 35.1467Z" fill="#02718C"/>
<path fill-rule="evenodd" clip-rule="evenodd" d="M54.1839 33.7002C53.6213 33.6198 53.2998 34.0216 53.1391 34.4235C53.2194 34.1824 53.2596 33.9413 53.2596 33.7403H52.7774L52.4961 36.5533H53.0185L53.1391 35.4281C53.2194 34.5441 53.5409 34.102 54.1437 34.1824L54.1839 33.7002Z" fill="#02718C"/>
<path fill-rule="evenodd" clip-rule="evenodd" d="M55.6299 36.5533L55.6701 36.1112C55.5495 36.1514 55.429 36.1514 55.2682 36.1514C54.9467 36.1514 54.8664 36.0308 54.9065 35.5486L55.0673 34.1019H55.871L55.9112 33.7001H55.1075L55.228 32.6553L54.7056 32.816L54.6252 33.7403H54.0626L54.0225 34.1421H54.5851L54.4243 35.7496C54.3439 36.3523 54.5047 36.5934 55.1075 36.5934C55.2682 36.6336 55.4691 36.5934 55.6299 36.5533Z" fill="#02718C"/>
<path d="M82.4347 19.3539C86.3728 18.6708 90.1904 18.3091 92.481 18.1484C87.3373 18.1484 80.1039 18.0278 74.3172 17.6661C67.4857 17.6661 62.3419 18.5904 58.2832 19.3539L66.5212 20.881C69.7762 19.9567 73.5939 19.2736 75.9648 19.0726C78.0946 19.3137 79.9432 19.3539 82.4347 19.3539Z" fill="url(#paint0_linear)"/>
<path d="M82.4348 19.3539C79.9433 19.3539 78.0947 19.2736 76.0051 19.0726C73.6342 19.2736 69.8165 19.9969 66.5615 20.881L72.6295 22.0062C75.3621 20.8408 78.9386 19.9969 82.4348 19.3539Z" fill="url(#paint1_linear)"/>
<path d="M82.4354 19.3539C78.9393 19.9567 75.3628 20.8006 72.6302 22.0463L66.5622 20.9211C65.0352 21.3632 63.6688 21.8454 62.624 22.3276L75.6039 27.0695C78.9393 23.6537 85.4895 20.4389 89.5885 19.3539C86.5746 19.3539 84.3242 19.3941 82.4354 19.3539Z" fill="url(#paint2_linear)"/>
<path d="M60.6543 15.4961C69.1736 16.9026 78.2153 18.1082 91.5971 17.3447C86.0515 16.8624 79.0592 14.813 74.1566 12L60.6543 15.4961Z" fill="url(#paint3_linear)"/>
<defs>
<linearGradient id="paint0_linear" x1="73.6053" y1="13.8136" x2="77.2122" y2="23.7236" gradientUnits="userSpaceOnUse">
<stop stop-color="#67B845"/>
<stop offset="1" stop-color="#A6D063"/>
</linearGradient>
<linearGradient id="paint1_linear" x1="72.8486" y1="17.2843" x2="76.1506" y2="23.0035" gradientUnits="userSpaceOnUse">
<stop stop-color="#1E6F38"/>
<stop offset="0.9398" stop-color="#83B53F"/>
<stop offset="1" stop-color="#8ABC3F"/>
</linearGradient>
<linearGradient id="paint2_linear" x1="70.1001" y1="14.8424" x2="82.0953" y2="26.8377" gradientUnits="userSpaceOnUse">
<stop stop-color="#05596E"/>
<stop offset="0.2665" stop-color="#0C6B84"/>
<stop offset="0.756" stop-color="#0A8FB0"/>
<stop offset="1" stop-color="#02A0C6"/>
</linearGradient>
<linearGradient id="paint3_linear" x1="67.942" y1="8.21288" x2="84.3194" y2="24.5903" gradientUnits="userSpaceOnUse">
<stop stop-color="#29AECF"/>
<stop offset="0.271" stop-color="#67BDD8"/>
<stop offset="0.5898" stop-color="#92CFE2"/>
<stop offset="0.8441" stop-color="#ABDCEA"/>
<stop offset="1" stop-color="#B5E2ED"/>
</linearGradient>
</defs>
</svg>
