<svg width="82" height="33" viewBox="0 0 82 33" fill="none" xmlns="http://www.w3.org/2000/svg">
<path fill-rule="evenodd" clip-rule="evenodd" d="M60.9672 13.4045C60.7421 13.4496 60.607 13.6747 60.4269 13.8098C60.2468 13.9449 60.0667 14.0799 59.8866 14.215C59.5264 14.4401 59.1211 14.6653 58.6709 14.8454C58.1756 14.9805 57.5452 14.9805 56.9599 14.9354C55.8342 14.8454 55.1138 14.3501 54.5285 13.7197C54.2133 13.4045 53.9432 13.0443 53.763 12.6391C53.1777 11.5135 52.9526 9.57734 53.2227 7.86635C53.4929 6.29044 54.2583 5.16479 55.429 4.53443C55.8342 4.3093 56.2395 4.17422 56.8698 4.12919C57.4102 4.08417 58.0405 4.08417 58.6259 4.17422C59.7065 4.35432 60.2918 4.93966 61.0122 5.47997C61.0122 4.71453 61.0122 3.81401 61.0122 2.91349C61.0122 2.058 60.9672 1.15748 61.2824 0.617167C61.5075 0.121882 62.1829 -0.148274 62.8583 0.121882C62.9934 0.166908 63.1285 0.256959 63.2185 0.347011C63.3086 0.437063 63.4887 0.527115 63.5337 0.617167C63.5787 0.797271 63.5337 1.29256 63.5337 1.56271C63.5337 4.3093 63.5787 7.01086 63.5787 9.80247C63.5787 10.4328 63.5787 10.8381 63.5787 11.3784C63.5787 11.9637 63.5787 12.5941 63.5787 13.2244C63.5337 13.7197 63.4887 14.4852 63.2185 14.7103C63.1285 14.8004 62.9483 14.8454 62.7682 14.8904C62.363 15.0255 62.0478 15.0255 61.6876 14.8004C61.2374 14.5752 61.0122 14.0349 60.9672 13.4045ZM57.3201 6.33547C56.6447 6.69567 56.1945 7.37106 56.0143 8.09148C55.6992 9.1721 55.7442 10.703 56.2395 11.5585C56.3746 11.7836 56.5096 11.9637 56.6897 12.1438C57.14 12.6391 57.9955 13.0894 58.941 12.8642C59.9316 12.5941 60.607 11.6936 60.8321 10.658C60.9222 10.2527 60.9222 9.80247 60.9222 9.35221C60.8772 8.72184 60.8321 8.04645 60.562 7.59619C60.3368 7.14593 59.8866 6.69567 59.4813 6.42552C59.1662 6.24542 58.6709 6.02029 58.2206 6.06531C57.8154 6.11034 57.5452 6.20039 57.3201 6.33547Z" fill="#909192"/>
<path fill-rule="evenodd" clip-rule="evenodd" d="M25.8471 13.0443C25.8471 12.9993 25.7571 13.0894 25.7571 13.0894C25.2167 13.6747 24.5864 14.215 23.7309 14.5302C22.6953 14.8454 21.4796 14.7103 20.6241 14.3051C19.0482 13.4946 18.0576 11.8737 18.0576 9.4873C18.0576 8.85693 18.1026 8.2716 18.1927 7.73128C18.2827 7.236 18.4629 6.78574 18.643 6.3805C19.0482 5.57004 19.6335 4.93967 20.489 4.48941C20.8943 4.26428 21.3895 4.12921 21.9749 4.08418C22.5602 4.08418 23.1456 4.08418 23.6859 4.21926C24.4963 4.39936 24.9916 4.75957 25.4869 5.20983C25.622 5.34491 25.7571 5.52501 25.9822 5.61506C26.0272 5.43496 26.0272 5.25485 26.0722 5.11978C26.1623 4.71454 26.3424 4.30931 26.6126 4.17423C26.9277 3.99413 27.6932 3.99413 28.0534 4.21926C28.2335 4.30931 28.4586 4.71454 28.4586 4.9847C28.5937 5.97527 28.5487 7.10092 28.5937 8.13652C28.6387 9.17212 28.5937 10.2978 28.5937 11.4234C28.5937 12.459 28.5937 13.5396 28.5036 14.6203C28.4586 15.1606 28.4586 15.6559 28.3235 16.0611C27.9633 17.3218 27.1979 18.1773 25.9372 18.6276C25.1267 18.8977 24.0911 19.0328 23.0105 18.9878C21.9749 18.9428 21.0744 18.8527 20.2639 18.4475C19.9037 18.2674 19.5885 18.0873 19.2733 17.8171C18.9581 17.5469 18.688 17.2768 18.5079 16.9166C18.0576 15.926 18.9131 14.9805 19.9487 15.2956C20.3089 15.3857 20.6241 15.836 20.8943 16.1061C21.1644 16.3763 21.5246 16.6915 21.8848 16.8716C22.6503 17.2768 24.1361 17.1417 24.8115 16.7815C25.7571 16.1511 25.712 14.6653 25.8471 13.0443ZM22.245 6.33548C21.4796 6.69569 21.0744 7.4161 20.8492 8.2716C20.489 9.71243 20.8492 11.2433 21.5696 12.0088C21.9749 12.414 22.5602 12.7292 23.2356 12.7292C23.866 12.7292 24.4513 12.504 24.8565 12.0988C25.2167 11.7836 25.577 11.2433 25.712 10.703C25.8471 10.2077 25.8471 9.62238 25.8021 9.08206C25.7571 8.58678 25.712 8.04647 25.5319 7.64123C25.3518 7.236 25.0366 6.83076 24.6314 6.51558C24.3162 6.24543 23.5958 5.97527 23.0555 6.0203C22.6953 6.11035 22.4702 6.2004 22.245 6.33548Z" fill="#909192"/>
<path fill-rule="evenodd" clip-rule="evenodd" d="M78.0321 13.5395C77.2217 14.0348 76.5913 14.5301 75.6007 14.8002C74.6552 15.0254 73.2143 15.0254 72.4039 14.6651C71.9986 14.485 71.6835 14.1699 71.4133 13.8547C71.0981 13.4945 70.873 13.1343 70.7829 12.684C70.5128 11.5584 70.963 10.5228 71.5484 9.93742C72.1787 9.26203 73.4845 9.0369 74.6101 8.76674C75.4206 8.58664 76.3211 8.40654 77.1766 8.18141C77.4468 8.09135 77.807 8.0013 77.897 7.8212C77.9871 7.59607 77.852 7.32591 77.807 7.19083C77.6269 6.65052 77.3567 6.20026 76.7714 6.02016C76.3662 5.88508 75.8709 5.93011 75.4206 5.97513C74.9704 6.02016 74.6101 6.11021 74.295 6.33534C74.0248 6.51544 73.7547 6.83063 73.5295 7.10078C73.3494 7.37094 73.1243 7.8212 72.8091 7.91125C72.539 8.0013 72.0887 7.95628 71.8636 7.86622C71.5034 7.73115 71.2782 7.41596 71.2332 6.9657C71.1882 5.88508 72.0437 5.11964 72.7191 4.71441C73.1243 4.48928 73.5746 4.30917 74.0698 4.17409C74.5201 4.12907 75.0604 4.12907 75.7358 4.12907C76.8614 4.08404 78.1672 4.17409 78.9326 4.57933C79.2929 4.80446 79.608 5.07461 79.8782 5.43482C80.0583 5.65995 80.1934 6.02016 80.3284 6.33534C80.3735 6.42539 80.4635 6.51544 80.4635 6.6055C80.5086 6.74057 80.4635 6.92068 80.4635 7.10078C80.5086 8.8568 80.4635 10.7029 80.6887 12.3688C80.7337 12.639 80.7787 12.9091 80.8688 13.1793C80.9588 13.4494 81.0489 13.8547 81.0038 14.0798C80.8688 14.485 80.5086 14.8453 80.1483 14.9803C79.7431 15.1154 79.3379 14.9353 79.0677 14.7552C78.9777 14.6651 78.8426 14.6201 78.7525 14.5751C78.7075 14.485 78.6625 14.395 78.6175 14.3049C78.4374 13.9898 78.2573 13.7646 78.0321 13.5395ZM76.3662 9.98245C76.006 10.0725 75.6457 10.1625 75.2855 10.2526C74.9253 10.3427 74.5651 10.4327 74.2499 10.5678C73.9798 10.7029 73.7096 10.928 73.5295 11.1981C73.1693 11.8735 73.6196 12.639 74.1149 12.9542C74.43 13.1343 74.8353 13.2243 75.3306 13.1793C76.096 13.1343 76.8614 12.684 77.3117 12.1887C77.6269 11.7835 77.807 11.2432 77.852 10.4777C77.852 10.2976 77.897 9.84737 77.807 9.75732C77.762 9.66726 77.5368 9.71229 77.4468 9.71229C77.0866 9.80234 76.7264 9.89239 76.3662 9.98245Z" fill="#909192"/>
<path fill-rule="evenodd" clip-rule="evenodd" d="M40.0751 4.12927C40.9756 4.08424 41.8761 4.17429 42.5965 4.30937C43.2719 4.48947 43.8573 4.84968 44.3525 5.25492C45.073 5.88528 45.6133 6.69575 45.9284 7.73135C46.0185 8.09155 46.0635 8.45176 46.1086 8.90202C46.1086 9.35228 46.1086 9.75751 46.0635 10.2078C46.0635 10.658 46.0185 11.0633 45.9284 11.4235C45.7483 12.0989 45.3881 12.6392 44.9829 13.1795C44.2175 14.1701 43.0018 14.8905 41.4258 15.0256C39.6698 15.1606 38.229 14.6653 37.2384 13.8999C36.2479 13.0894 35.6625 11.8287 35.4824 10.2978C35.3023 8.49679 35.7976 7.01093 36.563 6.06538C37.1484 5.34497 37.9588 4.75963 38.9494 4.44445C39.2646 4.21932 39.6248 4.12927 40.0751 4.12927ZM39.8049 6.29051C39.5348 6.42559 39.3547 6.51564 39.1746 6.69575C38.229 7.55124 37.9138 9.53238 38.4091 11.1533C38.6342 11.7837 38.9494 12.279 39.4447 12.5942C39.985 12.9544 40.7054 13.0894 41.4709 12.9093C41.651 12.8643 41.741 12.8193 41.9211 12.6842C42.2813 12.4591 42.6866 12.0538 42.9567 11.6486C43.3169 11.0633 43.3169 10.1627 43.3169 9.26223C43.3169 8.81197 43.3169 8.40674 43.1819 8.04653C43.0468 7.68632 42.9117 7.37114 42.7316 7.10098C42.3264 6.56067 41.5609 5.97533 40.6154 6.06538C40.3452 6.11041 40.0751 6.15544 39.8049 6.29051Z" fill="#909192"/>
<path fill-rule="evenodd" clip-rule="evenodd" d="M7.88175 13.5396C6.7561 14.26 5.58542 15.0254 3.78438 14.9804C2.52365 14.9354 1.57811 14.3951 1.0378 13.5846C0.722613 13.1343 0.542509 12.6841 0.587535 11.9186C0.632561 11.1982 0.767639 10.6129 1.12785 10.2077C1.57811 9.62231 2.2535 9.30713 3.01894 9.082C3.78438 8.85687 4.63987 8.67677 5.45034 8.49666C6.08071 8.36159 6.66604 8.22651 7.29641 8.09143C7.47651 8.0464 7.65662 8.00138 7.79169 7.8663C7.79169 7.55112 7.70164 7.37101 7.61159 7.10086C7.52154 6.8307 7.52154 6.6506 7.34143 6.42547C7.16133 6.20034 6.71107 6.02023 6.35086 5.93018C5.67547 5.7951 4.72993 5.93018 4.23464 6.20034C3.6493 6.51552 3.33412 7.10086 2.88386 7.59614C2.74878 7.73122 2.65873 7.8663 2.52365 7.91133C2.02837 8.0464 1.398 7.82127 1.17287 7.50609C1.08282 7.32599 1.0378 7.14588 1.0378 6.92075C1.0378 6.11029 1.48805 5.47992 1.98334 5.02966C2.47863 4.62443 3.15402 4.26422 3.87443 4.12914C4.5048 4.08412 5.18019 4.12914 5.9006 4.12914C7.07128 4.12914 8.24195 4.21919 8.96237 4.66945C9.3676 4.93961 9.77284 5.34484 9.95294 5.7951C10.1781 6.29039 10.2231 7.01081 10.2681 7.6862C10.3582 9.39718 10.2231 11.3333 10.5833 12.8192C10.6734 13.1343 10.7634 13.4045 10.7634 13.7197C10.8084 14.26 10.5833 14.4851 10.2681 14.7102C9.99797 14.8904 9.63776 15.0705 9.23252 14.9354C8.60216 14.7102 8.19693 13.9448 7.88175 13.5396ZM7.38646 9.71236C6.35086 9.93749 5.27024 10.1626 4.36972 10.4778C4.23464 10.5228 4.05454 10.5679 3.96448 10.6129C3.60428 10.793 3.33412 11.1532 3.28909 11.6035C3.24407 12.0087 3.37915 12.3689 3.55925 12.594C3.82941 12.9092 4.23464 13.1343 4.63987 13.1794C5.13516 13.2244 5.67547 13.1343 6.08071 12.9542C7.07128 12.594 7.65662 11.6935 7.70164 10.4328C7.70164 10.2077 7.74667 9.93749 7.61159 9.66734C7.47651 9.71236 7.47651 9.71236 7.38646 9.71236Z" fill="#909192"/>
<path d="M75.9608 32.2254C78.8952 32.2254 81.2739 29.8466 81.2739 26.9123C81.2739 23.978 78.8952 21.5992 75.9608 21.5992C73.0265 21.5992 70.6478 23.978 70.6478 26.9123C70.6478 29.8466 73.0265 32.2254 75.9608 32.2254Z" fill="#2C7DC1"/>
<path d="M58.3104 32.2254C61.2447 32.2254 63.6235 29.8466 63.6235 26.9123C63.6235 23.978 61.2447 21.5992 58.3104 21.5992C55.3761 21.5992 52.9973 23.978 52.9973 26.9123C52.9973 29.8466 55.3761 32.2254 58.3104 32.2254Z" fill="#704896"/>
<path fill-rule="evenodd" clip-rule="evenodd" d="M46.0186 26.9123C46.0186 29.839 43.6323 32.2254 40.7056 32.2254C37.7789 32.2254 35.3925 29.839 35.3925 26.9123C35.3925 23.9856 37.7789 21.5992 40.7056 21.5992C43.6323 21.5992 46.0186 23.9856 46.0186 26.9123Z" fill="#27AA5C"/>
<path d="M23.0552 32.2254C25.9895 32.2254 28.3683 29.8466 28.3683 26.9123C28.3683 23.978 25.9895 21.5992 23.0552 21.5992C20.1209 21.5992 17.7421 23.978 17.7421 26.9123C17.7421 29.8466 20.1209 32.2254 23.0552 32.2254Z" fill="#F59D1B"/>
<path d="M5.40511 32.2254C8.33943 32.2254 10.7182 29.8466 10.7182 26.9123C10.7182 23.978 8.33943 21.5992 5.40511 21.5992C2.47078 21.5992 0.092041 23.978 0.092041 26.9123C0.092041 29.8466 2.47078 32.2254 5.40511 32.2254Z" fill="#E52822"/>
</svg>
