<svg width="103" height="31" viewBox="0 0 103 31" fill="none" xmlns="http://www.w3.org/2000/svg">
<path d="M2.04528 15.3265C2.24853 15.2326 2.46741 15.217 2.68629 15.1388C2.35797 14.7793 1.99838 14.4666 1.71696 14.0444C1.62315 13.935 1.67006 13.8725 1.74823 13.8412C1.81077 13.8568 1.76386 13.7005 1.81077 13.6379C1.95148 13.591 1.93584 13.4503 2.01401 13.3565C2.01401 13.3253 1.99838 13.2158 2.02965 13.1845C2.06092 13.1533 2.13909 13.1376 2.20162 13.1689C2.46741 13.4816 2.7801 13.6848 3.09278 13.9037C3.46801 14.1539 3.84323 14.3571 4.18719 14.6698C4.21845 14.6698 4.31226 14.7167 4.32789 14.6542C4.3748 14.3259 4.48424 14.0288 4.62495 13.7474C4.67185 13.6536 4.68748 13.5129 4.76566 13.4347C4.85946 13.2471 5.07834 13.1064 5.26595 12.9969C5.56301 12.8406 5.9226 12.9813 6.12584 12.7468C6.20401 12.6843 6.32909 12.7468 6.39163 12.7468C6.57924 12.8406 6.86066 12.7781 7.017 12.9344C6.76685 13.5129 6.75122 14.1226 6.5636 14.748C6.54797 14.8887 6.45416 15.0763 6.54797 15.1232C6.84502 15.2326 7.6111 15.1076 7.64237 15.0763C8.04887 15.0607 8.42409 15.0763 8.81495 15.1701C9.112 15.2483 9.33088 15.3734 9.58103 15.5766C10.0188 15.9049 10.0032 16.4834 9.95626 16.9993C9.95626 17.0306 9.75301 17.2026 9.69047 17.2026C9.6592 17.2026 9.64357 17.0619 9.6123 17.0462C9.45596 17.1557 9.14327 17.4527 9.03383 17.484C9.00256 17.484 8.78368 17.2807 8.68987 17.2338C8.34592 17.015 7.9707 17.0619 7.57984 17.1088C7.12644 17.1557 6.68868 17.0931 6.26655 17.2651C6.4229 17.5622 6.71995 17.7029 6.95446 17.9374C7.34532 18.3282 7.73618 18.6253 8.17394 19.0005C8.43972 19.2819 8.72114 19.4852 8.87749 19.8135C8.76805 19.8604 8.86185 19.9229 8.83058 19.9855C8.75241 20.0168 8.76805 19.9073 8.70551 19.8917C8.64297 19.876 8.59607 19.9855 8.6117 20.048C8.64297 20.0793 8.54916 20.2669 8.47099 20.2825C8.43972 20.3138 8.26775 20.4076 8.22084 20.4076C8.18958 20.4076 7.97069 20.3138 8.00196 20.3451C8.08014 20.4232 8.12704 20.5796 8.1114 20.6109C7.93943 20.5796 7.86125 20.564 7.73618 20.4389C7.18898 19.9855 6.70431 19.5165 6.12584 19.0162C5.9226 18.8129 5.78189 18.5628 5.53174 18.3908C5.14088 19.2976 4.85946 19.9386 4.45297 20.8454C4.35916 21.0017 4.31226 21.4238 4.21845 21.4707C4.15592 21.502 3.90577 21.1737 3.79633 20.9235C3.79633 20.392 3.84323 20.1731 3.89013 19.6103L3.90577 19.5165C3.93704 18.766 4.17155 18.125 4.14028 17.3589C4.15592 17.2964 4.04648 17.2807 3.95267 17.2651C2.95207 17.1557 1.96711 17.0619 0.966512 16.9212C0.731997 16.8899 0.497482 16.8899 0.262967 16.7961C0.231698 16.7648 0.106623 16.7023 0.0753547 16.7023C0.0440861 16.671 0.0440861 16.671 0.0128174 16.6554C0.403676 16.2645 0.763266 15.8737 1.31047 15.6235C1.45118 15.5453 1.85767 15.4046 2.04528 15.3265Z" fill="#F47735"/>
<path d="M11.3789 20.5485C11.3164 20.5329 11.3477 20.4703 11.3477 20.439C11.3946 20.3296 11.5353 20.3609 11.6134 20.3609C11.8792 20.2827 12.1763 20.3609 12.4421 20.2827C12.489 20.2514 12.5515 20.1733 12.5828 20.1733C12.8017 20.0951 12.9893 20.0326 13.2081 19.9857C13.2551 19.9544 13.3958 19.8762 13.3489 19.798C13.0987 19.5479 12.8642 19.3134 12.7548 19.0163C12.6766 18.86 12.5359 18.7193 12.5359 18.5629C12.5359 18.4222 12.6922 18.4066 12.8329 18.4535C13.427 18.7818 13.8335 19.2665 14.2556 19.7824C14.3338 19.8918 14.412 19.6417 14.4433 19.5635C14.6309 19.1258 14.7716 18.6724 15.0061 18.2502C15.053 18.1095 15.1624 17.9532 15.3031 17.9219C15.522 17.875 15.6315 17.7343 15.8191 17.6249C15.9598 17.578 16.0536 17.6249 16.1943 17.5467C16.2725 17.5154 16.3819 17.6561 16.4914 17.6092C16.6477 17.4998 16.7884 17.578 16.9448 17.6092C17.0542 17.6561 17.0855 17.7656 17.0542 17.875C16.8979 18.2502 16.804 18.6567 16.5695 19.032C16.3819 19.329 16.2256 19.5948 16.0067 19.8918C16.0067 19.9231 15.9754 19.97 16.038 20.0013C16.1787 20.0326 16.335 20.0013 16.4445 20.0482C16.8509 20.1889 17.2574 20.1264 17.6796 20.2202C17.8984 20.2671 17.8984 20.5641 18.0861 20.7361C18.1955 20.8143 18.0079 20.8924 17.8984 20.9237C17.6014 21.0019 17.3043 20.8924 17.0073 20.9706C16.4914 21.0801 16.0067 20.9706 15.522 21.1582C15.6784 21.3146 15.8503 21.4553 15.9754 21.6116C16.1161 21.7992 16.2412 21.9868 16.3819 22.1745C16.5226 22.3933 16.6008 22.6122 16.6477 22.8155C16.6946 22.9249 16.679 23.0656 16.679 23.1907C16.6321 23.1594 16.6321 23.05 16.5695 23.0343C16.5226 23.0343 16.4601 23.1438 16.3819 23.1125C16.3037 23.0813 16.2725 23.0343 16.2412 22.9718C16.1318 22.8624 16.0536 22.7217 16.0067 22.5966C15.8191 22.1901 15.4439 21.9243 15.0843 21.6585C14.7559 22.3308 14.5214 23.0031 14.0524 23.6441C14.0211 23.691 13.943 23.691 13.8648 23.691C13.8335 23.6597 13.7866 23.7379 13.7553 23.7692C13.7241 23.7223 13.6772 23.691 13.6459 23.6597C13.5052 23.5503 13.3176 23.4408 13.2707 23.2845C13.1925 23.1282 13.13 22.9874 13.13 22.8311C13.13 22.7998 13.0674 22.7529 13.0674 22.7217C13.13 22.6122 13.13 22.4871 13.1769 22.3933C13.255 22.3152 13.3645 22.2057 13.3958 22.0963C13.5365 21.768 13.771 21.5335 13.8335 21.1895C13.1925 21.0801 12.5202 21.127 11.8949 20.8924C11.7542 20.8299 11.5978 20.783 11.4571 20.7048C11.4258 20.6423 11.4571 20.5641 11.3789 20.5485Z" fill="#00467F"/>
<path d="M12.1451 10.5269C12.3327 10.0578 12.661 9.74514 12.7235 9.21357C11.6604 8.6351 10.3628 8.97906 9.58104 7.61887C9.39342 7.35309 9.58104 5.97726 9.69048 5.82092C9.92499 5.32062 10.394 5.32062 10.8318 5.68021C10.8787 5.64894 11.207 5.74275 11.2852 5.77402C11.7229 5.71148 12.192 5.86782 12.6454 5.97726C13.2551 6.0398 13.7554 6.27432 14.3182 6.21178C14.3651 6.18051 14.4277 6.05544 14.412 5.89909C14.2713 5.08611 14.0837 4.3982 13.8805 3.55394C13.8023 3.36633 13.8023 3.11618 13.7554 2.8973C13.7241 2.42827 13.3802 1.67782 13.6929 1.45894C13.7398 1.42767 13.7867 1.55275 13.8336 1.52148C13.9274 1.45894 13.9743 1.33387 14.0525 1.36513C15.1 2.02178 15.9755 3.06928 16.8823 4.06987C17.1793 4.35129 17.2419 3.56958 17.4764 3.31943C17.5389 3.19435 17.4607 2.91293 17.5233 2.78786C17.7422 2.38137 17.8047 1.8498 17.9767 1.47458C18.3363 0.974276 18.5395 0.255097 19.0711 0.0518504C19.4307 -0.0419556 19.8372 0.0831191 20.1655 0.442709C20.2437 0.473978 20.4 0.442709 20.4938 0.536515C20.869 0.849202 21.1817 1.28696 21.5726 1.66219C21.6976 1.81853 21.7602 2.09995 21.7133 2.22502C21.6195 2.78786 21.1035 2.81913 20.8065 3.17872C20.228 4.08551 19.6495 4.97667 19.0711 5.88346C19.0085 6.00853 18.8522 6.28995 18.9773 6.44629C19.7746 7.19674 20.4938 8.02536 21.4006 8.61947C21.9634 8.96342 22.5888 8.94779 23.0891 9.41682C23.4487 9.82331 23.7145 10.2923 23.9021 10.8239C21.8696 12.0903 19.5401 10.0109 17.3669 10.0578C17.2106 10.0891 17.2419 10.308 17.2262 10.4018C17.3357 11.3086 17.5076 12.1841 17.5858 13.0283C17.6327 13.6537 17.961 14.2478 18.0548 14.8419C18.1017 15.0608 18.305 15.6549 17.9923 15.6236C17.6484 15.6236 17.195 15.5298 16.9761 15.0139C16.6634 14.326 16.3663 13.6381 16.1318 12.8876C16.0849 12.6688 16.0067 12.4811 16.0849 12.2623C16.1006 11.9183 15.8973 11.5744 15.7722 11.3242C15.7097 11.1991 15.569 11.3867 15.4752 11.4493C15.1781 11.8245 14.8811 12.1997 14.6153 12.6219C14.115 13.3098 13.5365 13.7006 12.8642 14.0133C12.3639 14.2009 11.6135 14.3104 11.2695 13.5599C11.4259 13.5286 11.5666 13.1847 11.4572 13.0909C10.7223 12.0121 11.8167 11.3398 12.1451 10.5269Z" fill="#56A0D3"/>
<path d="M31.813 19.3134H33.2201V20.9863H33.2513C33.9236 19.845 34.6584 19.1884 36.1124 19.1884V20.3609C35.3463 20.3766 34.7835 20.6423 34.3145 21.0801C33.736 21.6117 33.2357 22.5497 33.2201 23.3784V27.7403H31.813V19.3134Z" fill="#00467F"/>
<path d="M37.3005 20.9394C37.8634 19.9701 39.1298 19.1571 40.787 19.1571C42.2723 19.1571 44.0233 19.8294 44.0233 21.6742V25.9111C44.0233 26.8336 44.1015 27.287 44.2265 27.7247H42.7882L42.6475 26.5678C42.0377 27.2088 41.0528 27.8967 39.7395 27.8967C38.3793 27.8967 37.0504 27.115 37.0504 25.5828C37.0504 23.738 38.7076 22.8155 42.6162 22.1589V21.7055C42.6162 20.5955 41.8501 20.1733 40.8026 20.1733C39.4581 20.1733 38.7858 20.9238 38.5513 21.4866L37.3005 20.9394ZM42.6162 23.1751C39.8177 23.6442 38.4575 24.4259 38.4575 25.5828C38.4575 26.3645 39.2392 26.8805 39.9115 26.8805C40.787 26.8805 41.9127 26.2707 42.6162 25.489V23.1751Z" fill="#00467F"/>
<path d="M49.6517 27.7246H47.8381L45.1334 19.3134H46.5561L48.7918 26.2706H48.8231L51.0588 19.3134H52.2939L49.6517 27.7246Z" fill="#00467F"/>
<path d="M63.9728 15.8113V27.7246H62.55V16.421L63.9728 15.8113Z" fill="#00467F"/>
<path d="M69.4293 27.8811C67.0216 27.8811 65.6458 25.9424 65.6458 23.5191C65.6458 21.0958 67.0372 19.1571 69.4293 19.1571C71.837 19.1571 73.2284 21.0958 73.2284 23.5191C73.2284 25.9424 71.837 27.8811 69.4293 27.8811ZM69.4293 20.1577C67.9753 20.1577 67.0372 21.3615 67.0372 23.5191C67.0372 25.6923 67.9596 26.8805 69.4293 26.8805C70.8833 26.8805 71.8213 25.6923 71.8213 23.5191C71.8213 21.3615 70.8833 20.1577 69.4293 20.1577Z" fill="#00467F"/>
<path d="M80.2325 21.8304C79.8885 20.8142 79.2006 20.1576 78.1531 20.1576C76.6522 20.1576 75.761 21.3927 75.761 23.519C75.761 25.6452 76.6366 26.8803 78.1531 26.8803C79.2631 26.8803 79.8885 26.5207 80.5764 25.3325L81.749 25.7547C80.8735 27.1774 79.9041 27.8966 78.1687 27.8966C75.9643 27.8966 74.3852 26.255 74.3852 23.5346C74.3852 20.8142 75.9799 19.1726 78.1687 19.1726C79.9823 19.1726 81.0142 20.1419 81.577 21.4552L80.2325 21.8304Z" fill="#00467F"/>
<path d="M84.6258 19.3134H83.2187V27.7246H84.6258V19.3134Z" fill="#00467F"/>
<path d="M28.6547 26.8803C27.9512 26.8803 27.6541 26.6927 27.6541 26.3019V20.3139H29.4052L29.671 19.3133H27.6385V16.3115L26.2314 16.9056V19.2977H24.9337V20.2983H26.2314V26.4738C26.3721 27.537 26.9818 27.8653 28.2951 27.8653C28.8736 27.8653 29.2019 27.8184 29.6084 27.7559L29.8742 26.7709C29.4052 26.8491 29.0612 26.8803 28.6547 26.8803Z" fill="#00467F"/>
<path d="M99.7912 19.3134L96.6956 28.4594C96.0077 30.3356 94.6631 30.8671 93.5218 30.8671C93.1153 30.8671 92.5994 30.8046 92.3649 30.7733L92.6619 29.7727C92.8339 29.7884 93.0528 29.8196 93.3186 29.8196C94.069 29.8196 95.1947 29.6633 95.6168 27.8184L92.5525 19.3134H93.8345L96.1953 25.7391H96.2266L98.2903 19.3134H99.7912Z" fill="#00467F"/>
<path d="M90.2541 26.8803C89.5505 26.8803 89.2535 26.6927 89.2535 26.3019V20.3139H91.0045L91.2703 19.3133H89.2378V16.3115L87.8307 16.9056V19.2977H86.5331V20.2983H87.8307V26.4738C87.9715 27.537 88.5812 27.8653 89.8945 27.8653C90.4729 27.8653 90.8013 27.8184 91.2078 27.7559L91.4735 26.7709C91.0045 26.8491 90.6449 26.8803 90.2541 26.8803Z" fill="#00467F"/>
<path d="M59.7046 25.5045C59.1887 26.3488 58.3601 26.8804 57.2969 26.8804C55.8429 26.8804 54.686 25.5827 54.686 23.7379H60.5958V22.9561C60.5958 20.267 58.8916 19.1414 57.0624 19.1414C54.9049 19.1414 53.2945 20.7986 53.2945 23.5033C53.2945 26.5677 55.3426 27.8653 57.2969 27.8653C58.9698 27.8653 59.5639 27.7246 60.5801 26.3332L59.7046 25.5045ZM57.0937 20.1576C58.407 20.1576 59.1887 21.1895 59.1887 22.7373H54.7173C54.8267 21.1895 55.6084 20.1576 57.0937 20.1576Z" fill="#00467F"/>
<path d="M84.6258 16.4836H83.2187V17.8751H84.6258V16.4836Z" fill="#00467F"/>
<path d="M100.729 19.8605C100.776 19.7354 100.854 19.626 100.948 19.5478C101.042 19.454 101.151 19.3914 101.276 19.3289C101.401 19.282 101.527 19.2507 101.667 19.2507C101.808 19.2507 101.933 19.282 102.058 19.3289C102.183 19.3758 102.293 19.454 102.386 19.5478C102.48 19.6416 102.558 19.751 102.605 19.8605C102.652 19.9855 102.684 20.1106 102.684 20.267C102.684 20.4077 102.652 20.5484 102.605 20.6735C102.558 20.7985 102.48 20.908 102.386 21.0018C102.293 21.0956 102.183 21.1581 102.058 21.2207C101.933 21.2676 101.808 21.2988 101.667 21.2988C101.527 21.2988 101.401 21.2676 101.276 21.2207C101.151 21.1738 101.042 21.0956 100.948 21.0018C100.854 20.908 100.776 20.7985 100.729 20.6735C100.682 20.5484 100.651 20.4077 100.651 20.267C100.651 20.1263 100.667 19.9855 100.729 19.8605ZM100.901 20.6109C100.948 20.7204 100.995 20.8142 101.073 20.8923C101.151 20.9705 101.23 21.033 101.339 21.08C101.448 21.1269 101.558 21.1425 101.667 21.1425C101.792 21.1425 101.902 21.1269 101.996 21.08C102.089 21.033 102.183 20.9705 102.261 20.8923C102.34 20.8142 102.402 20.7204 102.433 20.6109C102.48 20.5015 102.496 20.392 102.496 20.267C102.496 20.1419 102.48 20.0324 102.433 19.923C102.386 19.8136 102.34 19.7198 102.261 19.6572C102.183 19.5791 102.105 19.5165 101.996 19.4696C101.902 19.4227 101.792 19.4071 101.667 19.4071C101.542 19.4071 101.433 19.4227 101.339 19.4696C101.23 19.5165 101.151 19.5791 101.073 19.6572C100.995 19.7354 100.932 19.8292 100.901 19.923C100.854 20.0324 100.839 20.1419 100.839 20.267C100.839 20.392 100.854 20.5015 100.901 20.6109ZM101.73 19.6729C101.871 19.6729 101.98 19.7041 102.042 19.751C102.105 19.8136 102.152 19.8917 102.152 20.0012C102.152 20.1106 102.121 20.1888 102.058 20.2357C101.996 20.2826 101.917 20.3139 101.839 20.3295L102.183 20.8611H101.98L101.652 20.3451H101.448V20.8611H101.261V19.6729H101.73ZM101.652 20.2044C101.699 20.2044 101.73 20.2044 101.777 20.2044C101.808 20.2044 101.839 20.1888 101.871 20.1888C101.902 20.1732 101.917 20.1575 101.933 20.1263C101.949 20.095 101.964 20.0637 101.964 20.0168C101.964 19.9699 101.964 19.9386 101.949 19.923C101.933 19.9074 101.917 19.8761 101.886 19.8761C101.855 19.8605 101.839 19.8605 101.808 19.8448C101.777 19.8448 101.745 19.8448 101.714 19.8448H101.464V20.2201H101.652V20.2044Z" fill="#00467F"/>
</svg>
