<svg width="100" height="50" viewBox="0 0 100 50" fill="none" xmlns="http://www.w3.org/2000/svg">
<g id="amadeus">
<path id="Vector" fill-rule="evenodd" clip-rule="evenodd" d="M52.5271 19H51.9951L51.3744 19.0887H50.7537L50.133 19.1773L49.5123 19.266L48.9803 19.3547L48.3596 19.4433L47.9163 19.6207V30.5271L48.3596 30.6158H48.8916L49.9557 30.7044L51.1084 30.7931L52.1724 30.8818L53.0591 30.7931H53.7685L54.4778 30.7044L55.0985 30.5271L55.6305 30.3498L56.1626 30.1724L56.3399 30.0837L56.6946 29.9064L56.8719 29.8177L57.0493 29.6404L57.1379 29.4631L57.3153 29.2857L57.4039 29.197L57.4926 28.8424L57.67 28.665L57.7586 28.4877L58.202 27.601L58.2906 26.9803L58.3793 26.3596L58.468 25.6502V24.8522V24.2315L58.3793 23.6108L58.2906 22.9901L58.1133 22.4581L57.936 21.9261L57.5813 21.3941L57.3153 21.0394L56.8719 20.5961L56.5172 20.1527L56.0739 19.8867L55.6305 19.7094L55.0099 19.532L54.4778 19.3547L53.9458 19.266L53.3251 19H52.5271ZM50.399 21.2167L50.8424 21.1281H51.2857L51.9064 21.0394H53.1478L53.5025 21.1281L53.8571 21.2167L54.0345 21.3054L54.3892 21.3941L54.5665 21.6601L54.7438 21.8374L54.9212 22.0148L55.0985 22.3695L55.2759 22.7241L55.5419 23.0788L55.6305 23.4335L55.7192 23.8768V24.3202L55.8079 24.8522V25.2956L55.7192 25.8276V26.2709L55.6305 26.7143L55.5419 26.9803L55.4532 27.335L55.3645 27.6897L55.0985 27.867L54.9212 28.0443L54.5665 28.2217L54.3892 28.399L54.0345 28.4877L53.5911 28.5764L53.2365 28.7537L52.7931 28.8424H52.2611L51.6404 28.7537H51.0197L50.4877 28.665V21.2167H50.399ZM86.399 30.5271H86.7537L87.4631 30.6158L88.0837 30.7044L88.7044 30.7931H89.4138L90.1232 30.8818L90.5665 30.7931H91.4532L91.8966 30.7044L92.2512 30.6158L92.6946 30.5271L93.1379 30.3498L93.4926 30.2611L93.8473 30.0837L94.202 29.7291L94.5566 29.5517L94.734 29.197L94.9113 28.7537L95 28.3103L95.0887 27.867V27.335V26.9803L95 26.6256V26.3596L94.8227 26.0936L94.5566 25.9163L94.468 25.5616L94.2906 25.3842L94.0246 25.2069L93.8473 25.1182L93.4926 24.9409L93.1379 24.7635L92.7832 24.6749L92.0739 24.3202L91.3645 23.9655L90.4778 23.6108L90.1232 23.3448L89.7685 23.1675L89.4138 23.0788L89.3251 22.9901V22.7241L89.2365 22.6355L89.1478 22.5468V22.1921V22.1034L89.2365 21.8374L89.4138 21.6601L89.5025 21.4828L89.5911 21.3941H89.6798L89.8571 21.3054L89.9458 21.2167H90.3892L90.7438 21.1281H91.0098L91.5419 21.2167H92.0739L92.6059 21.3054L93.0493 21.3941L93.67 21.6601L94.0246 21.7488L94.5566 19.8867L94.0246 19.7094L93.67 19.532L93.1379 19.4433L92.6059 19.3547L92.0739 19.266L91.5419 19H90.3892L90.0345 19.0887H89.5911L89.2365 19.1773L88.7931 19.266L88.4384 19.3547L88.0837 19.532L87.9064 19.8867L87.5517 20.064L87.3744 20.2414L87.197 20.5961L87.0197 20.9507L86.8424 21.3054L86.5764 21.6601V22.3695V23.0788L86.665 23.5222L86.8424 23.8768L87.0197 24.0542L87.197 24.4089L87.3744 24.5862L87.5517 24.7635L87.9064 24.9409L88.4384 25.2069L88.7931 25.3842L89.1478 25.4729L89.7685 25.6502L90.3892 25.8276L91.2759 26.1823L91.6305 26.2709L91.9852 26.4483L92.1626 26.6256L92.2512 26.9803L92.3399 27.069V27.1576L92.4286 27.2463V27.4236V27.601L92.3399 27.7783L92.2512 27.867L92.1626 28.0443L92.0739 28.2217H91.8966L91.8079 28.3103L91.6305 28.399H91.4532L91.0985 28.7537H88.9704L87.9064 28.665L87.197 28.5764L87.0197 28.4877L86.399 30.5271ZM80.7241 27.867L80.1921 28.0443L79.7488 28.133L79.4828 28.2217L79.0394 28.399H78.5074L78.064 28.4877H77H76.8227H76.6453L76.468 28.399L76.2906 28.3103L76.202 28.133L75.936 27.9557L75.8473 27.867L75.7586 27.6897V27.4236L75.6699 27.2463L75.5813 26.7143V19.0887H74.6946L74.0739 19.1773H73.4532L73.0098 19.266V26.2709V26.803L73.0985 27.335V27.867L73.1872 28.399L73.2759 28.7537L73.3645 29.197L73.5419 29.5517L73.7192 29.9064L73.8965 30.0837L74.0739 30.4384L74.4286 30.5271L74.8719 30.7044L75.3153 30.7931L75.7586 30.8818H76.2906L76.8227 30.9704L77.266 30.8818H78.1527L78.5074 30.7931L79.1281 30.7044L79.7488 30.5271L80.1921 30.3498L80.5468 30.2611L80.9015 30.1724H81.0788L81.1675 30.2611L81.5222 30.3498L81.8768 30.4384L82.3202 30.5271H82.8522L83.4729 30.6158V19.3547L82.4975 19.266L81.9655 19.1773H80.8128V27.867H80.7241ZM40.0246 19H39.1379L38.4286 19.0887L37.7192 19.1773L37.0985 19.266L36.5665 19.3547L36.0345 19.532L35.5911 19.6207L35.2365 19.798L35.8571 21.7488H36.0345L36.9212 21.5714L37.4532 21.3941L37.9852 21.3054H40.202H40.468H40.6453L40.734 21.3941L41 21.6601L41.0887 21.7488L41.1773 21.8374L41.266 21.9261L41.3547 22.1921L41.4433 22.2808V23.8768H38.6059L37.9852 23.9655H37.4532L36.9212 24.2315L36.3892 24.3202L36.0345 24.4975L35.6798 24.6749L35.3251 24.8522L35.1478 25.2956L34.9704 25.6502L34.7931 25.8276L34.6158 26.0936L34.5271 26.4483L34.4384 26.803V27.5123V27.9557L34.5271 28.399L34.6158 28.8424L34.7044 29.197L34.8818 29.5517L35.0591 29.9064L35.2365 30.0837L35.4138 30.1724L35.7685 30.3498L36.1232 30.5271L36.4778 30.6158L36.8325 30.7044H37.1872L37.5419 30.7931H37.8079L38.1626 30.8818L38.6059 30.7931H39.0493L39.6699 30.7044L40.202 30.6158L40.734 30.4384L41.1773 30.3498L41.532 30.1724L41.6207 30.0837H41.798L41.8867 30.1724H41.9754L42.1527 30.2611L42.5961 30.3498L42.9507 30.4384H43.4828L44.1921 30.5271V22.3695V22.0148L44.0148 21.5714L43.9261 21.1281L43.8374 20.7734L43.7488 20.5961L43.5714 20.2414L43.3941 19.8867H42.9507L42.7734 19.7094L42.4187 19.532L42.064 19.4433L41.6207 19.3547L41.3547 19.0887H40.9113L40.5566 19H40.0246ZM41.6207 28.2217L41.0887 28.3103L40.3793 28.4877L39.936 28.5764L39.4926 28.7537L39.0493 28.8424H38.3399L37.9852 28.7537L37.6305 28.665L37.4532 28.5764H37.3645L37.2759 28.4877L37.1872 28.399L37.0985 28.2217V28.133L36.9212 27.9557L36.8325 27.7783V27.335V26.9803L36.9212 26.6256L37.0098 26.5369L37.0985 26.3596L37.1872 26.2709L37.3645 26.0936L37.4532 26.0049H37.5419L37.8079 25.9163L37.8965 25.8276H38.3399L38.8719 25.7389L41.6207 25.6502V28.2217ZM10.7635 19H9.87685L8.99015 19.0887L8.36946 19.1773L7.6601 19.3547L7.12808 19.4433L6.59606 19.6207L6.24138 19.7094L5.97537 19.9754L6.50739 21.9261L6.7734 21.7488L7.48276 21.5714L8.01478 21.3941L8.63547 21.3054H10.8522H11.2069H11.3842L11.4729 21.3941L11.5616 21.6601L11.7389 21.7488L11.8276 21.8374L11.9163 21.9261V22.1034L12.0936 22.2808V22.6355L12.1823 22.8128V23.8768H9.25616L8.72414 23.9655H8.10345L7.57143 24.2315L7.12808 24.3202L6.68473 24.4975L6.41872 24.7635L6.06404 24.9409L5.8867 25.2956L5.53202 25.5616L5.44335 25.8276L5.35468 26.0936L5.08867 26.4483V26.803L5 27.1576V27.5123V27.9557L5.08867 28.399L5.17734 28.7537L5.26601 29.1084L5.44335 29.4631L5.62069 29.8177L5.79803 29.9951L6.15271 30.0837L6.33005 30.2611L6.7734 30.5271L7.12808 30.6158L7.48276 30.7044H7.83744L8.28079 30.7931H8.5468L8.90148 30.8818L9.34483 30.7931H9.69951L10.3202 30.7044L10.9409 30.6158L11.3842 30.4384L11.8276 30.3498L12.1823 30.1724L12.3596 30.0837H12.4483L12.5369 30.1724H12.7143L12.8916 30.2611L13.2463 30.3498L13.6897 30.4384H14.2217L14.7537 30.5271V22.3695V22.0148L14.665 21.5714V21.1281L14.5764 20.7734L14.399 20.5961L14.2217 20.2414L14.0443 19.8867H13.6897L13.4236 19.6207L13.069 19.4433L12.803 19.3547L12.4483 19.1773L12.0049 19.0887H11.5616L11.2069 19H10.7635ZM12.2709 28.2217L11.7389 28.3103L11.0296 28.4877L10.5862 28.5764L10.2315 28.7537L9.78818 28.8424H9.07882L8.63547 28.7537L8.28079 28.665L8.19212 28.5764H8.10345L8.01478 28.4877L7.83744 28.399V28.2217L7.6601 28.0443L7.57143 27.9557V27.335V26.9803L7.6601 26.6256V26.5369L7.74877 26.3596L7.83744 26.2709L8.01478 26.0936L8.10345 26.0049H8.19212L8.36946 25.9163L8.5468 25.8276H8.99015L9.4335 25.7389L12.1823 25.6502V28.2217H12.2709ZM25.1281 25.8276L25.0394 26.0936L24.9507 26.4483L24.7734 26.0936V25.8276L22.468 20.064L22.3793 19.7094L22.202 19.532L22.0246 19.3547L21.8473 19.266L21.67 19.1773L21.0493 19H19.6305L19.1872 19.0887L18.0345 30.7044H20.6059L21.1379 22.9015L23.6207 28.7537L23.7094 28.931L23.798 29.0197L23.8867 29.1084L24.064 29.197H24.1527L24.33 29.2857H25.3941L25.5714 29.197H25.6601L25.8374 29.1084L25.9261 29.0197L26.0148 28.931V28.7537L28.4975 22.9015L29.1182 30.7044H31.6897L30.6256 19.0887L30.1823 19H28.6749L28.3202 19.0887L28.1429 19.1773L27.9655 19.266L27.6108 19.4433L27.5222 19.6207L27.4335 19.9754L25.1281 25.8276ZM61.5714 30.2611L61.9261 30.3498L62.9015 30.5271L63.5222 30.6158L64.2315 30.7044H65.2069L66.0936 30.7931L67.069 30.7044H67.9557L68.5764 30.6158H69.1084L69.8177 30.5271H69.9951V28.4877H69.8177L69.197 28.5764L68.133 28.7537L67.5123 28.8424H66.1823L65.7389 28.7537L64.8522 28.665H64.1429V25.8276H69.2857V23.8768H64.1429V21.2167L64.4089 21.1281H64.8522L65.7389 21.0394H67.9557L68.8424 21.1281L69.5517 21.2167H69.9064V19.3547L69.5517 19.266L68.931 19.1773H67.7783L67.1576 19H65.3842L64.4975 19.0887L63.6108 19.1773H62.9015L62.3695 19.266L61.9261 19.3547L61.5714 19.4433V30.2611Z" fill="#005EB8"/>
</g>
</svg>
