<svg width="100" height="50" viewBox="0 0 100 50" fill="none" xmlns="http://www.w3.org/2000/svg">
<path d="M83.8957 30.1109C83.0083 32.6097 80.6263 34.221 76.6797 34.221C73.4103 34.221 70.1877 32.3294 71.0284 27.9625C71.6355 24.2494 75.0217 21.7974 78.8982 21.7974C83.2185 21.7974 85.1567 24.7398 84.4562 28.2427L84.2927 29.0133H76.1426C76.0846 29.3063 76.0456 29.6027 76.0258 29.9007C76.0258 30.9516 76.5863 31.3486 77.2402 31.3486C77.6156 31.3379 77.9795 31.2171 78.2868 31.0012C78.594 30.7853 78.831 30.4838 78.9683 30.1343L83.8957 30.1109ZM79.7389 26.5613L79.7856 26.2811C79.9491 25.347 79.5054 24.6697 78.5713 24.6697C77.6839 24.6697 76.9132 25.2769 76.6797 26.5613H79.7389ZM70.2344 22.0075C68.95 22.0075 67.9692 22.6614 67.2919 23.6189H67.1798L67.39 22.1243H62.1123L61.7854 23.6656L64.6811 23.3386L64.6344 23.6189L61.692 24.1093L59.6369 33.8707H65.2883C65.2883 33.8707 65.8487 31.045 66.2224 29.4337C66.7828 26.7715 68.2307 26.211 69.1648 26.211C70.0055 26.211 70.4959 26.538 70.6127 26.6547L71.5468 22.3345C71.1512 22.1023 70.6973 21.9889 70.239 22.0075H70.2344ZM18.7651 27.005C16.5045 26.2811 14.7717 24.95 14.7717 22.4045C14.7717 18.6915 18.4848 16.5897 23.4823 16.5197C27.6391 16.5197 30.4648 18.2945 29.9743 21.7974H23.9774C24.1876 20.8633 23.6504 20.3028 22.5996 20.3028C21.8289 20.3028 21.2218 20.6998 21.105 21.1902C20.9882 21.8441 21.4319 22.3111 22.4828 22.568C23.3702 22.8482 23.9774 23.0117 24.8648 23.2219C27.4056 23.9925 28.6479 25.4871 28.9001 27.0517L21.4086 27.8224L18.7697 27.005H18.7651ZM18.9986 31.045L19.489 28.663H13.0437C12.6 32.6564 15.7526 34.3144 19.8626 34.3144C23.7392 34.3144 27.896 32.9833 28.7834 29.4337L18.9986 31.045ZM52.3229 22.9416C53.2383 22.2066 54.3717 21.7959 55.5455 21.774C57.2736 21.774 58.6047 22.4979 59.2119 23.8757L46.111 25.2536L47.8391 16.94H53.4905L52.2061 22.9183H52.3229V22.9416ZM52.0006 25.6739C51.5587 26.3632 51.2571 27.133 51.1132 27.9391C50.6228 30.2744 51.1599 30.8816 51.8371 30.8816C52.7712 30.8816 53.5652 29.9942 53.9389 27.9858C54.149 26.7014 54.1023 25.7673 53.7754 25.3703L59.4268 24.4829C59.7271 25.5738 59.7432 26.7235 59.4735 27.8224C58.6328 32.0258 56.0873 34.1976 53.2616 34.1976C51.9772 34.1976 50.5527 33.8707 49.9923 32.4695H49.8288L49.3851 33.8473H44.2709L45.7654 26.6314L52.0006 25.6739ZM36.401 25.6739C36.5645 24.95 37.1249 24.3895 37.8489 24.3895C38.5027 24.3895 38.853 24.9967 38.6896 25.6038L38.6429 26.0475L43.9206 25.4871C43.5236 22.7782 41.0248 21.6105 38.1058 21.6105C33.7154 21.6105 31.6137 23.7823 31.17 25.7206L31.1233 26.0008H36.401V25.6739ZM29.9276 29.2702C29.7453 29.7476 29.6504 30.2538 29.6474 30.7648C29.6474 32.5863 31.0252 34.1976 33.3605 34.1976C35.4622 34.1976 36.6999 33.3102 37.237 32.7031H37.2837L37.167 33.8707H42.4914L43.7758 27.7056C43.8225 27.4954 43.8925 27.2152 43.9393 26.9817L29.9276 29.2702ZM37.8442 29.7139C37.6807 30.6013 37.0736 31.3253 36.2329 31.3253C35.3922 31.3253 35.0652 30.648 35.182 29.9474C35.3455 29.3403 35.9526 28.7331 37.1203 28.7331H38.0544L37.8442 29.7139Z" fill="#E41E26"/>
<path d="M84.7345 33.1001C84.7308 32.8752 84.7942 32.6542 84.9166 32.4654C85.039 32.2766 85.2148 32.1285 85.4217 32.0401C85.6286 31.9516 85.8571 31.9268 86.0781 31.9687C86.2992 32.0107 86.5027 32.1175 86.6628 32.2756C86.8229 32.4337 86.9323 32.6359 86.977 32.8564C87.0217 33.0769 86.9997 33.3057 86.9139 33.5137C86.828 33.7217 86.6821 33.8993 86.4949 34.0241C86.3076 34.1488 86.0875 34.215 85.8625 34.2141C85.715 34.2159 85.5686 34.1885 85.4319 34.1333C85.2951 34.0782 85.1707 33.9964 85.0657 33.8928C84.9608 33.7892 84.8775 33.6657 84.8206 33.5297C84.7638 33.3936 84.7345 33.2476 84.7345 33.1001ZM85.8625 34.0342C86.0482 34.0393 86.2313 33.9889 86.3882 33.8895C86.5452 33.79 86.6689 33.6459 86.7436 33.4758C86.8182 33.3056 86.8404 33.117 86.8073 32.9342C86.7742 32.7513 86.6874 32.5825 86.5578 32.4492C86.4283 32.316 86.2619 32.2245 86.08 32.1863C85.8982 32.1481 85.7091 32.1651 85.5369 32.2349C85.3647 32.3048 85.2172 32.4245 85.1134 32.5786C85.0096 32.7327 84.9541 32.9143 84.954 33.1001C84.9496 33.2218 84.9699 33.3431 85.0137 33.4568C85.0574 33.5704 85.1237 33.674 85.2086 33.7613C85.2935 33.8486 85.3952 33.9178 85.5076 33.9647C85.62 34.0116 85.7407 34.0353 85.8625 34.0342ZM85.6289 33.747H85.4351V32.4533H85.9255C86.2291 32.4533 86.3786 32.5654 86.3786 32.8199C86.3814 32.8655 86.3749 32.9112 86.3594 32.9542C86.3439 32.9971 86.3198 33.0365 86.2885 33.0697C86.2572 33.103 86.2194 33.1295 86.1775 33.1476C86.1355 33.1657 86.0903 33.175 86.0446 33.1749L86.4113 33.7423H86.1941L85.8625 33.1842H85.6289V33.747ZM85.8625 33.0231C86.0283 33.0231 86.1754 33.0114 86.1754 32.8129C86.1754 32.6541 86.0306 32.6237 85.8952 32.6237H85.6289V33.0231H85.8625Z" fill="#E41E26"/>
</svg>
