<svg width="113" height="29" viewBox="0 0 113 29" fill="none" xmlns="http://www.w3.org/2000/svg">
<path d="M103.516 0.866577H103.983C104.041 6.64015 104.158 12.3554 104.274 18.129C102.175 18.1873 100.134 18.3623 98.0924 18.7122C98.0341 14.105 97.9174 9.49778 97.8591 4.83226C98.8506 3.95748 99.7837 2.96606 100.775 2.14959C101.475 1.44977 102.525 1.39145 103.399 0.983215L103.516 0.866577Z" fill="#64B053"/>
<path d="M106.49 0.866577H108.298C108.473 1.44977 108.532 2.09127 108.298 2.67446C107.132 7.1067 106.141 11.6556 104.799 16.0295C104.799 11.0141 105.091 5.99864 105.207 0.924896C105.674 0.924896 106.082 0.866577 106.49 0.866577Z" fill="#64B053"/>
<path d="M89.6363 13.7552C92.0274 11.0142 94.4185 8.21487 97.0428 5.70715C96.9845 10.1394 96.9845 14.5133 96.9262 18.9456C95.9931 19.1205 95.06 19.2955 94.1269 19.5287C94.1852 16.1462 94.2435 12.7054 94.1852 9.32293C93.7186 12.7637 93.777 16.2629 93.427 19.7037C91.3276 20.2286 89.2864 20.9284 87.3036 21.8032C87.5368 19.937 87.4785 18.0125 87.7701 16.1462C88.2367 15.2131 88.9948 14.5133 89.6363 13.7552Z" fill="#64B053"/>
<path d="M78.4973 27.4601C81.0051 24.4859 83.3961 21.4533 85.7872 18.479C85.9622 19.762 86.0788 21.045 86.1954 22.3281C83.3378 23.5528 80.8301 25.3606 78.4973 27.4601Z" fill="#64B053"/>
<path d="M0.64151 10.3143C0.583191 9.55618 1.51629 9.49786 2.04116 9.49786C3.84905 9.49786 5.65694 9.43954 7.46483 9.55617C8.9228 9.61449 10.3808 10.6642 10.614 12.1805C10.8473 13.1136 10.2641 13.9301 9.79758 14.6299C10.2058 15.3298 10.789 16.0879 10.614 17.021C10.4391 18.5373 9.03944 19.7037 7.52315 19.762C6.00685 19.8203 4.49056 19.762 2.91595 19.762C2.09948 19.762 1.2247 19.8786 0.466553 19.3538V19.2371C0.466553 19.2954 0.524872 19.3538 0.524872 19.4121C0.64151 16.3212 0.524872 13.2886 0.64151 10.3143ZM2.97427 11.3057C2.97427 12.0639 2.91595 12.8804 2.91595 13.6385C4.37392 13.6385 5.77358 13.6968 7.23155 13.5802C7.93138 13.5802 8.51457 12.7054 8.22297 12.0639C8.10633 11.4807 7.46483 11.2474 6.93996 11.3057C5.59862 11.3057 4.25728 11.3641 2.97427 11.3057ZM2.97427 15.563C2.97427 16.3212 2.97427 17.1376 2.97427 17.9541C4.49056 17.8958 6.00685 18.0707 7.52315 17.8375C8.57289 17.5459 8.51457 15.7963 7.40651 15.6213C5.94853 15.4464 4.43224 15.563 2.97427 15.563Z" fill="#004F8B"/>
<path d="M16.0377 10.6642C16.6792 8.91466 19.8285 8.97298 20.3533 10.7809C21.6364 13.7551 22.9777 16.7877 24.319 19.762C23.5026 19.7037 22.6278 19.8786 21.8696 19.5287C21.1698 18.8289 20.9949 17.7791 20.5283 16.9044C18.9537 16.9044 17.3208 16.9044 15.7461 16.9627C15.3379 17.8958 14.9297 18.8289 14.5214 19.762C13.8216 19.6453 12.8302 19.9953 12.3636 19.2954C12.422 18.6539 12.7719 18.1291 13.0052 17.5459C14.0549 15.2714 15.0463 12.9387 16.0377 10.6642ZM18.1372 11.539C17.6124 12.7054 17.0875 13.9301 16.5626 15.0965C17.6124 15.0965 18.6621 15.0965 19.7702 15.0965C19.2453 13.8718 18.7204 12.7054 18.1372 11.539Z" fill="#004F8B"/>
<path d="M26.0103 10.3143C26.0103 9.6728 26.7101 9.49784 27.235 9.49784C31.6089 9.43952 35.9245 9.49784 40.2984 9.49784C40.4151 12.9387 40.2984 16.3795 40.3568 19.8203C39.5986 19.7037 38.2573 20.1119 38.024 19.0621C37.9657 16.6711 38.024 14.28 37.9657 11.8889C34.7581 11.8889 31.5506 11.8889 28.3431 11.8889C28.3431 14.5133 28.3431 17.1376 28.3431 19.8203C27.5266 19.8203 26.0103 20.1119 26.0103 18.8872C26.0103 15.9712 25.952 13.1136 26.0103 10.3143Z" fill="#004F8B"/>
<path d="M44.0891 9.55617C46.072 9.43954 48.1131 9.49786 50.096 9.49786C51.6123 9.49786 53.1286 10.5476 53.4202 12.0639C53.6534 12.997 53.0702 13.8135 52.6037 14.5716C53.0119 15.3881 53.7118 16.2629 53.3618 17.2543C53.0702 18.7706 51.4956 19.7037 50.0377 19.7037C48.2298 19.7037 46.3636 19.7037 44.5557 19.7037C43.9725 19.762 43.331 19.4121 43.3893 18.7706C43.3893 16.0296 43.3893 13.2886 43.3893 10.5476C43.331 10.1394 43.5643 9.55617 44.0891 9.55617ZM45.6637 11.3641C45.6637 12.1222 45.6637 12.9387 45.6637 13.6968C47.18 13.6385 48.7546 13.8135 50.2709 13.5802C51.3207 13.2303 51.204 11.5973 50.1543 11.4224C48.6963 11.2474 47.18 11.3641 45.6637 11.3641ZM45.7221 15.5047C45.7221 16.3212 45.7221 17.0793 45.7221 17.8958C47.2384 17.8375 48.813 18.0124 50.3293 17.7791C51.379 17.4876 51.3207 15.7963 50.2126 15.6213C48.6963 15.4464 47.18 15.563 45.7221 15.5047Z" fill="#004F8B"/>
<path d="M59.252 9.55609C61.4681 8.85626 64.1508 9.14786 65.9587 10.7225C66.9501 11.4806 67.1251 12.7636 67.0667 13.93C67.0084 15.3297 67.3583 16.9626 66.3086 18.0707C64.559 19.9952 61.5264 20.3451 59.1354 19.5869C57.5024 19.0621 55.8112 17.6041 56.1028 15.7379C56.2194 14.2216 55.6946 12.472 56.7443 11.189C57.3858 10.4309 58.3189 9.84769 59.252 9.55609ZM60.1268 11.3057C59.3686 11.5973 58.4939 12.1221 58.4355 12.9969C58.4355 14.2216 58.3189 15.4463 58.4939 16.6127C59.3686 18.0707 61.3515 18.3039 62.8678 17.8957C63.6842 17.6041 64.734 17.0209 64.6757 16.0295C64.6173 14.8048 64.8506 13.5801 64.559 12.4137C63.6259 11.0724 61.6431 10.8391 60.1268 11.3057Z" fill="#004F8B"/>
<path d="M72.607 9.55606C74.4733 8.97287 76.5144 9.08951 78.264 9.96429C79.2554 10.5475 80.3051 11.4223 80.3635 12.647C80.4218 14.0466 80.4801 15.4463 80.3052 16.8459C79.8969 18.4205 78.264 19.3536 76.806 19.7036C74.5316 20.2284 71.7906 19.8202 70.1577 18.0123C69.0496 16.7293 69.5161 14.8631 69.3995 13.2885C69.2829 11.4806 70.9741 10.0809 72.607 9.55606ZM73.7734 11.2473C72.957 11.4806 72.1405 11.8888 71.8489 12.7636C71.7906 14.0466 71.7323 15.388 71.9072 16.671C73.1902 18.7121 76.7477 18.7121 78.0307 16.671C78.1473 15.2713 78.264 13.8717 77.9724 12.5303C77.0393 11.1307 75.1731 10.8974 73.7734 11.2473Z" fill="#004F8B"/>
<path d="M98.0925 18.7123C100.134 18.3624 102.175 18.1875 104.274 18.1292C103.633 19.5288 102.933 20.9285 101.708 21.8616C99.0256 23.9027 95.7598 24.8941 92.5522 25.7106C88.1783 26.9353 83.6294 27.2269 79.1389 27.8684C78.9056 27.8684 78.4974 27.8101 78.2641 27.7518L78.4974 27.4602C80.8301 25.419 83.3378 23.6111 86.1955 22.2698C86.5454 22.0948 86.8953 21.9199 87.3035 21.8032C89.2864 20.9285 91.3275 20.2286 93.427 19.7038C93.602 19.6454 93.9519 19.5871 94.1852 19.5288C95.1183 19.2955 96.0514 19.1206 96.9845 18.9456C97.2178 18.829 97.8009 18.7707 98.0925 18.7123Z" fill="#004F8B"/>
<path d="M26.9434 22.9694C27.9931 22.153 29.801 22.3862 30.3842 23.6693C29.3344 23.7276 28.2264 22.6195 27.2933 23.6109C27.9348 24.544 29.4511 23.7276 30.1509 24.6607C30.6758 25.1856 30.0926 25.9437 29.5677 26.177C28.5763 26.5269 27.235 26.4103 26.5935 25.4771C26.7101 24.894 27.3516 25.3605 27.7015 25.4188C28.343 25.7687 29.2761 25.8271 29.6844 25.1272C28.9262 24.4857 27.7015 25.0689 26.9434 24.3108C26.4185 24.0192 26.5351 23.3193 26.9434 22.9694Z" fill="#004F8B"/>
<path d="M2.44937 22.7946C2.8576 22.4447 3.61575 22.5613 3.7907 23.0862C4.25725 24.136 4.66549 25.1857 5.19036 26.1771C4.89876 26.1771 4.60717 26.2354 4.31557 26.2354C4.14062 25.8855 3.96566 25.5356 3.7907 25.1857C3.26583 25.1857 2.68264 25.1857 2.15777 25.1857C1.98282 25.5356 1.80786 25.8855 1.6329 26.2354C1.45795 26.2354 1.04971 26.1771 0.874756 26.1188C1.39963 25.0691 1.80786 23.9027 2.44937 22.7946ZM2.44937 24.6025C2.79928 24.6025 3.20751 24.6025 3.55743 24.6025C3.32415 24.1943 3.14919 23.786 2.97424 23.3195C2.79928 23.786 2.62432 24.1943 2.44937 24.6025Z" fill="#004F8B"/>
<path d="M5.77348 22.7361C6.00675 22.6778 6.41498 22.6195 6.58994 22.5612C6.58994 23.8442 6.58994 25.0689 6.53162 26.3519C6.29835 26.1769 5.59852 26.2353 5.71516 25.7687C5.71516 24.7773 5.77348 23.7859 5.77348 22.7361Z" fill="#004F8B"/>
<path d="M7.69805 22.6778C8.74779 22.7361 10.2058 22.2696 11.0222 23.2027C11.5471 23.8442 11.0222 24.544 10.5557 25.0106C10.789 25.4771 11.0222 25.8853 11.2555 26.3519C11.0222 26.3519 10.614 26.2936 10.3807 26.2936C10.1474 25.8853 9.85585 25.4188 9.62258 25.0106C9.27266 25.0106 8.92275 25.0106 8.51452 25.0106C8.51452 25.4771 8.51452 25.8853 8.57284 26.3519C8.39788 26.2936 7.98965 26.2353 7.75637 26.1769C7.63973 25.0106 7.69805 23.8442 7.69805 22.6778ZM8.51452 23.261C8.51452 23.5526 8.51452 24.0775 8.51452 24.369C9.09771 24.2524 10.5557 24.6606 10.3807 23.6109C9.85585 23.086 9.09771 23.3776 8.51452 23.261Z" fill="#004F8B"/>
<path d="M12.1304 22.7363C12.3636 22.6779 12.7719 22.6196 13.0051 22.6196C13.0051 23.6111 13.0051 24.5442 13.0051 25.5356C13.53 25.6522 14.0549 25.7105 14.5797 25.5356C14.5797 24.6025 14.5797 23.6694 14.5797 22.7363C14.813 22.6779 15.2213 22.6196 15.3962 22.6196C15.3962 23.5527 15.2796 24.5442 15.4545 25.4773C15.9211 25.8272 16.446 25.5939 16.9708 25.5356C16.9708 24.6025 16.9708 23.6694 16.9708 22.7363C17.2041 22.7363 17.6123 22.6779 17.7873 22.6779C17.729 23.6694 17.729 24.6025 17.7873 25.5939C17.2624 26.1771 16.5043 26.5853 15.6878 26.2937C14.5214 25.9438 13.0635 26.9352 12.247 25.6522C11.9554 24.7191 12.1887 23.6694 12.1304 22.7363Z" fill="#004F8B"/>
<path d="M19.7117 23.0276C19.945 22.4444 20.9364 22.3861 21.1697 23.0276C21.6945 24.0774 22.1611 25.2438 22.686 26.3518C21.9278 26.4685 21.5779 25.8853 21.2863 25.3021C20.7031 25.3021 20.1782 25.3021 19.5951 25.3021C19.4784 25.652 19.3618 26.0019 19.2451 26.2935C18.9535 26.2352 18.662 26.2352 18.3704 26.1769C18.7786 25.1271 19.1868 24.0774 19.7117 23.0276ZM19.8283 24.6022C20.2366 24.6022 20.5865 24.6022 20.9947 24.6022C20.8198 24.194 20.6448 23.7858 20.4698 23.3775C20.2366 23.7858 20.0616 24.194 19.8283 24.6022Z" fill="#004F8B"/>
<path d="M22.3363 22.6779C22.5696 22.6779 22.9778 22.6196 23.2111 22.6196C23.6193 23.1445 23.9692 23.6111 24.3775 24.1359C24.7274 23.6694 25.0773 23.1445 25.4272 22.6779C25.7188 22.6779 26.2437 22.6196 26.4769 22.6196C25.8938 23.3778 25.2522 24.0776 24.7857 24.8941C24.7274 25.3606 24.7274 25.8855 24.7274 26.352C23.561 26.4104 24.2025 25.1273 23.6193 24.4858C23.2111 23.9026 22.7445 23.3195 22.3363 22.6779Z" fill="#004F8B"/>
<path d="M32.192 13.2887C32.8335 13.2887 33.5333 13.2887 34.1749 13.2887C34.1749 15.8547 34.1749 18.3624 34.1749 20.8702C33.5333 20.7535 32.4253 21.1034 32.2503 20.2287C32.1337 17.9542 32.192 15.6215 32.192 13.2887Z" fill="#008244"/>
<path d="M104.274 18.1292C106.957 18.1292 109.639 18.5374 112.264 19.0039V19.1206C109.581 21.0451 106.723 22.853 103.691 24.1943C96.0511 27.5768 87.4199 28.8598 79.0803 27.8684C83.5709 27.2852 88.1198 26.9936 92.4937 25.7106C95.7012 24.9525 98.9671 23.961 101.65 21.8616C102.933 20.9285 103.633 19.5288 104.274 18.1292Z" fill="#4BBEED"/>
</svg>
