<svg width="76" height="46" viewBox="0 0 76 46" fill="none" xmlns="http://www.w3.org/2000/svg">
<path d="M72.4062 35.708C72.3167 35.6968 72.2384 35.6185 72.2384 35.529V34.3651H71.9026C71.8243 34.3651 71.7572 34.298 71.7572 34.2196C71.746 34.1413 71.8019 34.0741 71.8803 34.0629H71.8915H72.8987C72.9882 34.0629 73.0553 34.1301 73.0553 34.2196C73.0441 34.298 72.977 34.3651 72.8987 34.3651H72.5629V35.529C72.5741 35.6185 72.507 35.6968 72.4062 35.708ZM74.8907 35.708C74.7899 35.708 74.7116 35.6297 74.7116 35.529V34.5218L74.2863 35.6409C74.2863 35.6857 74.2416 35.7304 74.1968 35.7304C74.152 35.7304 74.1073 35.6857 74.1073 35.6409L73.6708 34.5218V35.529C73.682 35.6185 73.6037 35.6968 73.5142 35.708C73.4134 35.708 73.3351 35.6297 73.3351 35.529V34.3315C73.3351 34.1749 73.4582 34.0518 73.6149 34.0518C73.7268 34.0518 73.8275 34.1301 73.8723 34.2308L74.1968 35.0813L74.5214 34.2308C74.5661 34.1189 74.6668 34.0518 74.7787 34.0518C74.9354 34.0518 75.0585 34.1749 75.0585 34.3315V35.529C75.0585 35.6185 74.9914 35.6968 74.8907 35.708Z" fill="#EE2842"/>
<path d="M39.4487 6.49952C39.4487 5.70495 39.6949 4.93277 40.1537 4.28369C38.8108 4.67538 37.8708 5.90639 37.8708 7.30527V9.84564H39.4599L39.4487 6.49952Z" fill="#EE2842"/>
<path d="M37.8595 23.9687C37.8707 25.3788 38.7995 26.6098 40.1425 27.0127C39.6836 26.3524 39.4374 25.569 39.4374 24.7633V20.0071H37.8483L37.8595 23.9687Z" fill="#EE2842"/>
<path d="M41.8211 19.9958H40.232V24.752C40.2432 26.1621 41.172 27.3931 42.515 27.796C42.0561 27.1357 41.8099 26.3524 41.8099 25.5466V20.0182L41.8211 19.9958Z" fill="#EE2842"/>
<path d="M41.821 5.72726C41.821 4.9327 42.0672 4.14932 42.526 3.50024C41.1831 3.89193 40.2543 5.11175 40.2431 6.51063V9.97986H41.8322L41.821 5.72726Z" fill="#EE2842"/>
<path d="M23.9378 4.65295C22.7292 5.38037 21.9906 6.68972 22.0017 8.09979V23.0958C22.0017 24.4947 22.7404 25.7816 23.9378 26.4867C23.7028 25.9047 23.5797 25.278 23.5909 24.6402V6.49948C23.5797 5.86159 23.7028 5.23489 23.9378 4.65295Z" fill="#EE2842"/>
<path d="M25.9634 4.9327C25.9522 4.29481 26.0865 3.66812 26.3327 3.08618C25.1241 3.79122 24.3743 5.08938 24.3743 6.49945V24.7632C24.3855 26.4195 25.4262 27.8855 26.9706 28.4563C26.3103 27.6281 25.9522 26.5986 25.9522 25.5466C25.9634 25.5354 25.9634 4.9327 25.9634 4.9327Z" fill="#EE2842"/>
<path d="M45.7941 2.54905C44.0371 2.54905 42.6158 3.97031 42.6158 5.71611V10.8864L34.6814 10.4835V4.94393C34.6814 2.75048 32.902 0.9823 30.7197 0.9823C28.5263 0.9823 26.7581 2.76168 26.7581 4.94393V25.5466C26.7581 27.7401 28.5375 29.5083 30.7197 29.5083C32.9132 29.5083 34.6814 27.7289 34.6814 25.5466V19.2013H42.6158V25.5466C42.6158 27.3036 44.0371 28.7137 45.7941 28.7137C47.5399 28.7137 48.9611 27.2924 48.9611 25.5466V5.7273C48.9611 3.97031 47.5399 2.54905 45.7941 2.54905Z" fill="#EE2842"/>
<path d="M7.71074 44.2803V40.1844H1.72353V44.2803C1.72353 44.728 1.36542 45.0861 0.928967 45.0973C0.481325 45.0973 0.112021 44.7392 0.10083 44.2803V34.9246C0.112021 34.477 0.470134 34.1189 0.917776 34.1077C1.36542 34.1077 1.73472 34.4658 1.73472 34.9246V38.696H7.71074V34.8239C7.71074 34.3763 8.06885 34.007 8.52768 34.007C8.97532 34.007 9.34463 34.3651 9.34463 34.8239V44.1796C9.34463 44.6273 8.98652 44.9966 8.52768 44.9966C8.08004 44.9966 7.71074 44.6384 7.71074 44.1796V44.2803Z" fill="#EE2842"/>
<path d="M10.4748 41.0799C10.3517 38.8865 12.0191 37.0176 14.2126 36.8945C16.406 36.7714 18.2749 38.4388 18.398 40.6323C18.4092 40.7778 18.4092 40.9344 18.398 41.0799C18.5211 43.2734 16.8537 45.1423 14.6602 45.2654C12.4668 45.3885 10.5979 43.721 10.4748 41.5276C10.4748 41.3821 10.4748 41.2254 10.4748 41.0799ZM16.9208 41.0799C17.0887 39.737 16.1375 38.5172 14.7945 38.3381C13.4516 38.1702 12.2318 39.1215 12.0527 40.4644C12.0303 40.6658 12.0303 40.8785 12.0527 41.0799C11.8289 42.4228 12.7466 43.6874 14.0895 43.9112C15.4324 44.1351 16.697 43.2174 16.9208 41.8745C16.9656 41.6059 16.9656 41.3373 16.9208 41.0799Z" fill="#EE2842"/>
<path d="M26.8921 36.9838C28.9624 36.9167 30.697 38.5394 30.7642 40.6209C30.7642 40.6992 30.7642 40.7776 30.7642 40.8559C30.7642 41.2924 30.4508 41.5498 29.9024 41.5498H24.5084C24.5867 42.9486 25.7729 44.0342 27.1718 43.9894C27.8657 43.9894 28.5483 43.7656 29.1191 43.3627C29.2198 43.3068 29.3317 43.2732 29.4436 43.2844C29.7682 43.2732 30.0255 43.5306 30.0367 43.8551C30.0367 44.0566 29.936 44.2468 29.7682 44.3587C28.9624 44.9295 28 45.2204 27.0263 45.198C24.8889 45.2988 23.0759 43.6537 22.9752 41.5274C22.964 41.3819 22.964 41.2252 22.9752 41.0797C22.8857 38.9087 24.5643 37.0734 26.7354 36.9838C26.769 36.9838 26.8025 36.9838 26.8473 36.9838H26.8921ZM24.486 40.509H29.2646C29.2757 39.2332 28.2574 38.1925 26.9816 38.1701C26.948 38.1701 26.9144 38.1701 26.8809 38.1701C25.5939 38.1813 24.5307 39.2108 24.486 40.509Z" fill="#EE2842"/>
<path d="M31.637 44.3701V34.8353C31.6258 34.4324 31.9504 34.1079 32.342 34.0967C32.3532 34.0967 32.3644 34.0967 32.3644 34.0967C32.7673 34.1079 33.0918 34.4324 33.103 34.8353V44.3701C33.0918 44.7729 32.7673 45.0975 32.3644 45.0975C31.9616 45.1087 31.637 44.7841 31.6258 44.3924C31.637 44.3701 31.637 44.3701 31.637 44.3701Z" fill="#EE2842"/>
<path d="M34.0318 43.8552C34.0206 43.5195 34.3004 43.2285 34.6361 43.2285C34.6473 43.2285 34.6585 43.2285 34.6585 43.2285C34.7928 43.2285 34.9159 43.2733 35.0166 43.3404C35.6545 43.8105 36.4267 44.0679 37.2213 44.0902C38.3292 44.0902 38.9111 43.6314 38.9111 42.9711C38.9111 42.3109 38.027 41.9304 37.0198 41.6842C35.7329 41.3708 34.1325 41.0127 34.1325 39.3229C34.1325 38.0359 35.2069 37.0063 37.1206 37.0063C38.0494 36.9951 38.9447 37.2749 39.6945 37.8233C39.8512 37.9352 39.9519 38.1142 39.9519 38.3157C39.9407 38.6402 39.6833 38.8976 39.3588 38.9088C39.2468 38.9088 39.1237 38.864 39.0342 38.7969C38.4747 38.394 37.792 38.1926 37.0982 38.2037C36.1022 38.2037 35.4867 38.5954 35.4867 39.2221C35.4867 39.8488 36.3372 40.1398 37.2996 40.3524C38.6649 40.6658 40.2876 41.0351 40.2876 42.8368C40.2876 44.1238 39.1797 45.2317 37.1206 45.2317C36.1022 45.2653 35.095 44.9631 34.2668 44.3588C34.099 44.2469 33.9871 44.0455 33.9871 43.844L34.0318 43.8552Z" fill="#EE2842"/>
<path d="M42.2574 43.1726C42.8169 43.1838 43.2646 43.6202 43.2758 44.1798C43.2758 44.7394 42.8169 45.1982 42.2574 45.1982C41.6978 45.1982 41.239 44.7394 41.239 44.1798C41.239 43.6202 41.6978 43.1726 42.2574 43.1726Z" fill="#EE2842"/>
<path d="M50.8521 41.0798C50.8521 38.8975 52.6203 37.1182 54.8026 37.1182C56.9848 37.1182 58.7642 38.8864 58.7642 41.0686C58.7642 43.2509 56.996 45.0302 54.8026 45.0302C52.6315 45.0414 50.8521 43.262 50.8521 41.0798ZM57.2982 41.0798C57.466 39.7369 56.5148 38.517 55.1719 38.338C53.829 38.1701 52.6091 39.1214 52.4301 40.4643C52.4077 40.6657 52.4077 40.8784 52.4301 41.0798C52.2063 42.4227 53.1239 43.6873 54.4668 43.9111C55.8098 44.1349 57.0744 43.2173 57.2982 41.8744C57.3429 41.6058 57.3429 41.3372 57.2982 41.0798Z" fill="#EE2842"/>
<path d="M70.8617 39.3563V44.3699C70.8505 44.7728 70.5147 45.0973 70.1119 45.0973C69.7202 45.0861 69.4068 44.7728 69.4068 44.3699V39.7928C69.4068 38.8751 68.9928 38.5058 68.0415 38.5058C67.0903 38.5058 66.4636 39.3451 66.0383 39.9159V44.3811C65.9824 44.784 65.6131 45.0638 65.2102 45.0078C64.8856 44.963 64.6283 44.7057 64.5835 44.3811V39.804C64.5835 38.8863 64.1806 38.517 63.207 38.517C62.4348 38.517 61.6738 39.4682 61.2821 40.039V44.3811C61.2709 44.784 60.9464 45.1085 60.5435 45.1085C60.1406 45.1085 59.8161 44.784 59.8161 44.3811V37.8344C59.8161 37.4427 60.1295 37.1181 60.5211 37.1069C60.924 37.1069 61.2597 37.4315 61.2709 37.8344V38.2932C61.8976 37.4986 62.8377 37.0286 63.8449 37.0062C64.8297 36.8943 65.7474 37.4986 66.0271 38.4499C66.6203 37.5881 67.5715 37.051 68.6011 36.995C70.0447 36.995 70.8057 37.7896 70.8057 39.3675L70.8617 39.3563Z" fill="#EE2842"/>
<path d="M47.6403 36.9837C48.5579 36.9501 49.4532 37.2747 50.1359 37.8902C50.2702 38.0133 50.3597 38.1923 50.3709 38.3826C50.3821 38.7407 50.0911 39.0428 49.7218 39.054C49.5539 39.0652 49.3973 38.9981 49.2742 38.8862C48.8489 38.4833 48.2782 38.2707 47.685 38.293C46.2638 38.293 45.0999 39.4345 45.0999 40.867C45.0999 40.9453 45.0999 41.0237 45.1111 41.0908C44.9656 42.5121 46.0064 43.7767 47.4164 43.9109C47.506 43.9221 47.5955 43.9221 47.685 43.9221C48.9496 43.7878 50.0687 43.0157 50.6283 41.8742C50.7402 41.6615 50.8745 41.4489 51.02 41.2475C51.255 40.9341 51.4228 41.0796 51.5571 41.2475C51.7921 41.6168 51.8257 42.0756 51.6467 42.4673C51.3221 43.1164 50.8857 43.6983 50.3597 44.1907C49.6323 44.8734 48.6587 45.2427 47.6627 45.2203C45.5252 45.2874 43.7458 43.62 43.6674 41.4825C43.6674 41.3594 43.6675 41.2251 43.6786 41.102C43.5443 38.9645 45.1782 37.1404 47.3045 37.0061C47.4276 36.9949 47.5396 36.9949 47.6627 37.0061L47.6403 36.9837Z" fill="#EE2842"/>
<path d="M24.0161 43.8551C24.0161 44.1237 23.2215 44.7504 22.6508 45.0301C22.3038 45.1868 21.9121 45.2652 21.5317 45.254C20.5916 45.3659 19.7411 44.6944 19.6292 43.7544C19.6068 43.5977 19.618 43.441 19.6404 43.2843V38.461H18.8906C18.5325 38.4498 18.2527 38.17 18.2415 37.8119C18.2527 37.465 18.5325 37.1852 18.8906 37.1852H19.6404V35.6744C19.6516 35.2716 19.9761 34.947 20.379 34.947C20.7819 34.947 21.1064 35.2716 21.1176 35.6744V37.174H22.2255C22.5836 37.174 22.8746 37.465 22.8746 37.8231C22.8746 38.1812 22.5836 38.4722 22.2255 38.4722H21.2071V42.9486C21.2071 43.5082 21.4645 43.911 21.9681 43.911C22.8522 43.911 23.5684 42.5234 23.9489 42.5234C24.3406 42.5234 24.0944 43.4522 24.0944 43.8103L24.0161 43.8551Z" fill="#EE2842"/>
</svg>
