<svg width="133" height="27" viewBox="0 0 133 27" fill="none" xmlns="http://www.w3.org/2000/svg">
<path fill-rule="evenodd" clip-rule="evenodd" d="M78.1639 25.4027L88.6007 1.82591C88.7509 1.45049 88.6007 1.15015 88.1502 1.15015H80.8669C80.4915 1.15015 80.041 1.45049 79.8908 1.82591L69.529 25.4027C69.3789 25.7781 69.6041 26.0785 69.9795 26.0785H77.1127C77.5632 26.0785 78.0137 25.7781 78.1639 25.4027Z" fill="#0021BA" stroke="white" stroke-width="0.5" stroke-miterlimit="10" stroke-linejoin="bevel"/>
<path fill-rule="evenodd" clip-rule="evenodd" d="M115.782 18.9454L132 1.07507H113.078L108.799 7.90784H116.232L99.7883 25.9283H119.761L127.194 18.9454H115.782Z" fill="#0021BA" stroke="white" stroke-width="0.5" stroke-miterlimit="10" stroke-linejoin="bevel"/>
<path fill-rule="evenodd" clip-rule="evenodd" d="M46.3277 1.07506H33.8635C33.1878 1.07506 32.3618 1.60066 32.0615 2.20134L22.2253 24.802C21.925 25.4778 22.3004 26.0034 22.9762 26.0034H29.2082C29.884 26.0034 30.71 25.4778 31.0103 24.802L33.7885 18.4198H36.7168C37.6178 18.3447 37.9932 18.7201 37.5427 19.7713L35.2902 24.727C34.9898 25.4027 35.3652 25.9283 36.041 25.9283H42.2731C42.9489 25.9283 43.7748 25.4027 44.0751 24.727L46.9284 18.1945C47.8294 16.0921 46.553 14.4403 44.6758 14.3652C46.3277 13.7645 47.8294 12.1126 48.5052 10.686L49.9318 7.23206C51.6588 3.25254 50.4574 0.999976 46.3277 1.07506ZM42.7236 8.13309L41.2219 11.5119C40.8465 12.3379 40.3209 12.413 39.7953 12.3379H36.3414L38.669 7.08189H42.0478C42.7987 7.15698 42.9489 7.45732 42.7236 8.13309Z" fill="#0021BA"/>
<path fill-rule="evenodd" clip-rule="evenodd" d="M70.7305 1.07507H57.4404C56.9148 1.07507 56.3892 1.45049 56.164 1.901L46.0274 25.1024C45.8022 25.628 46.1025 26.0034 46.553 26.0034H60.7442C65.2493 25.9283 67.8022 24.9522 69.9046 20.1468L71.3312 16.9932C72.4575 14.2901 71.3312 13.0887 69.2288 12.7884C71.0309 12.2628 72.3824 10.5358 72.908 9.1092L74.1094 6.63138C75.6111 3.10237 74.3346 0.99998 70.7305 1.07507ZM64.1981 16.6928L63.2971 18.4949C62.8466 19.7713 62.0957 20.0717 60.9694 20.1468H56.8397L58.792 15.4164H62.9216C64.123 15.4915 64.5735 15.7918 64.1981 16.6928ZM66.6008 8.28326L66.0001 9.70988L65.9251 9.93514C65.6247 10.6109 65.0991 10.9112 64.4984 10.9112H60.8193L62.4711 7.15698H66.1503C66.751 7.15698 66.9012 7.60749 66.6008 8.28326Z" fill="#0021BA"/>
<path fill-rule="evenodd" clip-rule="evenodd" d="M90.8533 1.07509L87.7748 7.98294H92.1298C92.4301 7.98294 92.5803 8.20819 92.4301 8.50854L84.8465 25.4027C84.6963 25.7031 84.8465 25.9283 85.1468 25.9283H92.9557C93.256 25.9283 93.5564 25.7031 93.7066 25.4027L101.065 8.43345C101.215 8.13311 101.515 7.90785 101.816 7.90785H106.321L110.526 1H90.8533" fill="#0021BA"/>
<path d="M90.8533 1.07509L87.7748 7.98294H92.1298C92.4301 7.98294 92.5803 8.20819 92.4301 8.50854L84.8465 25.4027C84.6963 25.7031 84.8465 25.9283 85.1468 25.9283H92.9557C93.256 25.9283 93.5564 25.7031 93.7066 25.4027L101.065 8.43345C101.215 8.13311 101.515 7.90785 101.816 7.90785H106.321L110.526 1H90.8533" stroke="#0021BA" stroke-width="0.5" stroke-miterlimit="10" stroke-linejoin="bevel"/>
<path fill-rule="evenodd" clip-rule="evenodd" d="M23.727 1.07508H14.4915C10.6621 0.999996 7.43345 3.10239 5.70649 7.157L2.70307 15.4915H0L5.18089 22.4744L13.7406 15.4915H11.5631L14.1911 9.40956C14.5666 8.43345 15.3174 7.98293 16.0683 7.98293H17.4949C17.7952 7.98293 18.0205 8.05802 18.1707 8.20819L22.9761 4.22867L25.9795 9.40956L26.8806 7.38225C28.8328 2.95221 27.5563 0.999996 23.727 1.07508Z" fill="#0021BA"/>
<path fill-rule="evenodd" clip-rule="evenodd" d="M22.6007 6.33105L14.116 13.314H16.4437L14.5665 17.5939C14.1911 18.4198 13.5153 18.8703 12.8396 18.9454H11.7133L4.88053 24.5017L1.20135 19.5461C-0.750874 23.9761 -0.375448 25.9283 3.45391 26.0034H12.6143C16.3686 25.9283 19.6723 23.901 21.4744 19.9215L24.3276 13.3891H26.7304L22.6007 6.33105Z" fill="#54B8F5"/>
</svg>
