<svg width="100" height="50" viewBox="0 0 100 50" fill="none" xmlns="http://www.w3.org/2000/svg">
<path d="M17.7344 25.9388V30.9184H14.5916V26.4286C14.5916 25.1633 14.0201 24.6327 13.1222 24.6327C12.1018 24.6327 11.3263 25.2449 11.3263 26.6735V30.8776H8.14258V19H11.2854V23C11.9793 22.3878 12.9181 22.0612 13.9793 22.0612C16.1426 22.0612 17.7344 23.2449 17.7344 25.9388Z" fill="#113456"/>
<path d="M25.6124 26.5511C25.6124 25.245 24.7961 24.5103 23.7349 24.5103C22.6736 24.5103 21.8573 25.245 21.8573 26.5511C21.8573 27.898 22.6736 28.6327 23.7349 28.6327C24.7961 28.6327 25.6124 27.8572 25.6124 26.5511ZM18.6328 26.5511C18.6328 23.9388 20.7961 22.0613 23.7349 22.0613C26.7144 22.0613 28.8369 23.9388 28.8369 26.5511C28.8369 29.1633 26.7144 31.0409 23.7349 31.0409C20.7553 31.0409 18.6328 29.1633 18.6328 26.5511Z" fill="#113456"/>
<path d="M39.3264 26.1429L42.9999 25.449C42.7958 24.7143 42.1428 24.2653 41.2448 24.2653C40.1428 24.2245 39.4081 24.8776 39.3264 26.1429ZM43.6938 27.9796L45.3265 29.6531C44.4693 30.5918 43.204 31.0816 41.4897 31.0816C38.2652 31.0816 36.1836 29.1633 36.1836 26.5918C36.1836 23.9796 38.306 22.1021 41.1632 22.1021C43.7754 22.1021 45.9387 23.6939 45.9387 26.551L39.4897 27.7347C39.8571 28.4286 40.5509 28.7959 41.5305 28.7959C42.5101 28.7143 43.0816 28.4694 43.6938 27.9796Z" fill="#113456"/>
<path d="M60.3472 26.551C60.3472 25.2449 59.5309 24.5102 58.4696 24.5102C57.4084 24.5102 56.5921 25.2449 56.5921 26.551C56.5921 27.898 57.4084 28.6327 58.4696 28.6327C59.5309 28.6327 60.3472 27.8571 60.3472 26.551ZM63.5309 26.551C63.5309 29.3265 61.5717 31.0408 59.1227 31.0408C57.939 31.0408 57.0411 30.7143 56.4696 30.0204V30.8776H53.4492V19H56.5921V22.9592C57.2043 22.3469 58.0615 22.0612 59.1227 22.0612C61.5717 22.0612 63.5309 23.7755 63.5309 26.551Z" fill="#113456"/>
<path d="M67.5315 26.1429L71.205 25.449C71.0009 24.7143 70.3479 24.2653 69.4499 24.2653C68.3479 24.2245 67.6132 24.8776 67.5315 26.1429ZM71.8989 27.9796L73.5315 29.6531C72.6744 30.5918 71.4091 31.0816 69.6948 31.0816C66.4703 31.0816 64.3887 29.1633 64.3887 26.5918C64.3887 23.9796 66.5111 22.1021 69.3683 22.1021C71.9805 22.1021 74.1438 23.6939 74.1438 26.551L67.6948 27.7347C68.0621 28.4286 68.756 28.7959 69.7356 28.7959C70.7152 28.7143 71.2866 28.4694 71.8989 27.9796Z" fill="#113456"/>
<path d="M82.1435 26.551C82.1435 25.2449 81.3271 24.5102 80.2659 24.5102C79.2047 24.5102 78.3884 25.2449 78.3884 26.551C78.3884 27.898 79.2047 28.6327 80.2659 28.6327C81.3271 28.6327 82.1435 27.8571 82.1435 26.551ZM85.2455 19V30.9184H82.2251V30.0204C81.6128 30.7143 80.7557 31.0408 79.572 31.0408C77.123 31.0408 75.123 29.3265 75.123 26.551C75.123 23.7755 77.0822 22.0612 79.572 22.0612C80.6332 22.0612 81.4496 22.3469 82.0618 22.9592V19H85.2455Z" fill="#113456"/>
<path d="M86.5508 30.1429L87.4896 28.0613C88.3059 28.5511 89.5304 28.8776 90.6324 28.8776C91.6936 28.8776 92.061 28.6327 92.061 28.2654C92.061 27.0817 86.7549 28.4286 86.7549 24.9592C86.7549 23.3266 88.3059 22.0613 91.163 22.0613C92.4283 22.0613 93.8161 22.3062 94.7141 22.796L93.7753 24.8776C92.8773 24.3878 91.9794 24.2245 91.163 24.2245C90.1018 24.2245 89.7345 24.5103 89.7345 24.8368C89.7345 26.0205 95.0406 24.7552 95.0406 28.1837C95.0406 29.7756 93.5304 31.0409 90.5916 31.0409C89.0406 31.0409 87.4487 30.6735 86.5508 30.1429Z" fill="#113456"/>
<path d="M11.2854 27.8572H8.14258V30.9184H11.2854V27.8572Z" fill="#113456"/>
<path d="M11.2854 27.8572H8.14258V30.9184H11.2854V27.8572Z" fill="#B6295B"/>
<path d="M11.2854 24.7959H8.14258V27.8571H11.2854V24.7959Z" fill="#113456"/>
<path d="M35.0808 28.4286C34.795 28.5918 34.4685 28.7143 34.1012 28.7143C33.5297 28.7143 33.1624 28.3469 33.1624 27.7347V24.3878H35.2032V22.0612H33.1624V19.8571V19H30.0195V19.8571V21.9796V27.6939C30.0195 29.9388 31.3665 31 33.6522 31C34.4685 31 35.2848 30.8367 35.8563 30.5102L35.0808 28.4286Z" fill="#113456"/>
<path d="M8.14286 24.7959H5V27.8571H8.14286V24.7959Z" fill="#93CBC6"/>
<path d="M47.3262 27.7347V19H50.4282V27.6122C50.4282 28.2653 50.7956 28.5918 51.4078 28.5918C51.6527 28.5918 51.9384 28.5102 52.1017 28.4286L52.2241 30.7143C51.7343 30.8776 51.2445 30.9184 50.7547 30.9184C48.6323 30.9184 47.3262 29.8163 47.3262 27.7347Z" fill="#113456"/>
</svg>
