<svg width="100" height="50" viewBox="0 0 100 50" fill="none" xmlns="http://www.w3.org/2000/svg">
<path fill-rule="evenodd" clip-rule="evenodd" d="M50 7C42.704 7 36.752 12.952 36.752 20.248C36.752 27.544 42.704 33.496 50 33.496C57.296 33.496 63.248 27.544 63.248 20.248C63.248 12.952 57.296 7 50 7Z" fill="#CF3339"/>
<path fill-rule="evenodd" clip-rule="evenodd" d="M52.2567 11.7521C53.1207 10.5521 54.4167 9.6881 56.7687 9.2561C42.2248 10.7921 48.4647 21.4001 48.5607 21.5441C48.5127 21.4481 45.4407 17.8481 39.9688 18.3761C44.9127 19.5281 50.8647 24.7601 44.4328 24.2321C47.0248 25.6721 51.0567 26.9201 52.6887 26.2481C57.2007 24.3281 48.8967 16.4561 52.2567 11.7521Z" fill="#FFF200"/>
<path fill-rule="evenodd" clip-rule="evenodd" d="M45.7276 27.8319L45.7756 28.8879L46.7356 29.3199L45.7276 29.7039L45.6316 30.7599L44.9596 29.9439L43.9516 30.1839L44.5276 29.3199L43.9996 28.3599L45.0076 28.6479L45.7276 27.8319ZM57.6316 26.1519L57.9196 27.1599L57.1516 27.8799H58.2076L58.6396 28.8399L58.9756 27.8319L60.0316 27.6879L59.1676 27.0639L59.3596 26.0559L58.5436 26.6799L57.6316 26.1519ZM54.2716 27.8799L54.2236 28.9359L53.2636 29.3199L54.2236 29.7039L54.3196 30.7599L54.9916 29.9439L55.9996 30.1839L55.4236 29.3199L55.9516 28.4079L54.9436 28.6959L54.2716 27.8799ZM50.0476 28.5039L49.6156 29.4639L48.5596 29.5119L49.3276 30.1839L49.0396 31.1919L49.9516 30.6639L50.8156 31.2399L50.5756 30.2319L51.3916 29.5599L50.3356 29.4639L50.0476 28.5039ZM40.6396 26.0559L40.8316 27.1119L40.0156 27.7359L41.0716 27.8799L41.4076 28.8879L41.8396 27.9279H42.8956L42.0796 27.1119L42.3676 26.1039L41.4556 26.6319L40.6396 26.0559Z" fill="#FFF200"/>
<path fill-rule="evenodd" clip-rule="evenodd" d="M20 33.592C20.72 35.176 21.056 36.712 21.68 38.44C21.92 39.064 23.168 43 23.216 43.384H26.864C27.152 41.944 28.064 39.88 28.496 38.392C28.976 36.856 29.6 34.792 30.32 33.592H28.256V34.312C28.256 35.368 26.384 39.832 26.096 41.272H25.952C25.904 40.84 25.088 38.344 24.896 37.768C24.704 37.096 23.888 34.888 23.888 34.216V34.072C23.888 33.832 23.936 33.784 23.936 33.592H20Z" fill="#CF3339"/>
<path fill-rule="evenodd" clip-rule="evenodd" d="M73.3767 37.8161V42.7121C73.3767 43.0481 73.2327 43.2881 73.1367 43.4801H76.0647C75.9207 43.1921 75.8247 43.0001 75.8247 42.5681V41.1281H78.6087C79.3767 41.1281 80.0487 40.7921 80.0487 40.0241V38.1041C80.0487 37.2881 79.2327 36.9041 78.4647 36.9041H73.1367C73.1847 37.2401 73.3767 37.2401 73.3767 37.8161ZM77.2167 40.0721H75.7767V38.0081H77.1687C77.4567 38.0081 77.6007 38.1521 77.6007 38.4881V39.2561C77.6007 39.5921 77.5527 40.0721 77.2167 40.0721Z" fill="#8A2432"/>
<path fill-rule="evenodd" clip-rule="evenodd" d="M42.1289 38.392V42.04C42.1289 43.048 42.6089 43.48 43.5209 43.48H45.8729C46.6409 43.48 46.4489 43.144 46.8329 43V43.24C46.8329 43.576 48.6089 43.432 48.9929 43.432C48.8489 43.24 48.7529 43.048 48.7529 42.712V40.264C48.7529 39.88 48.8969 39.832 48.9449 39.544H45.0089V40.744C45.1529 40.648 45.2969 40.6 45.5369 40.6H46.3529V42.04C46.3529 42.232 46.1129 42.376 45.9209 42.376H45.1049C44.7209 42.376 44.5769 42.088 44.5769 41.704V38.488C44.5769 38.248 44.7689 37.96 44.9609 37.96H47.8409C48.1289 37.96 48.3209 38.056 48.5609 38.104C48.5609 37.816 48.5129 36.856 48.2249 36.856H43.7129C42.7049 36.904 42.1289 37.336 42.1289 38.392Z" fill="#8A2432"/>
<path fill-rule="evenodd" clip-rule="evenodd" d="M65.0234 36.9041C65.8874 38.5841 64.2554 43.4801 66.6554 43.4801H70.5914C71.0714 43.4801 71.5994 42.9521 71.7434 42.5681C71.9834 42.0401 71.8874 41.4641 71.8874 40.6961V38.6801C71.8874 38.3441 71.8874 37.9601 71.8874 37.6241C71.9354 37.2401 72.0794 37.1921 72.1274 36.9041H70.5434C70.6394 37.2401 70.7834 37.2401 70.7834 37.8161V42.0401C70.7834 42.2321 70.4954 42.4241 70.2554 42.4241H68.6234L67.8074 42.3281C67.7114 42.1841 67.6154 42.1361 67.6154 41.8961V38.0081C67.6154 37.3841 67.7594 37.2881 67.8554 36.9041H65.0234Z" fill="#8A2432"/>
<path fill-rule="evenodd" clip-rule="evenodd" d="M49.6152 36.904C49.7592 37.192 49.8552 37.432 49.8552 37.816V42.424C49.8552 42.856 49.7592 43.192 49.6152 43.48H52.5432C52.3992 43.192 52.3032 43 52.3032 42.568V40.744H52.9272C53.1192 40.744 53.5032 41.848 53.5992 42.088C53.7432 42.52 54.0792 43.144 54.1272 43.48H56.9112L55.5672 40.696C56.2392 40.696 56.5272 40.36 56.5272 39.688V38.248C56.5272 37.288 55.8072 36.856 54.8952 36.856H49.6152V36.904ZM52.2552 38.008H53.7912C53.9352 38.008 54.1272 38.2 54.1272 38.344V39.208C54.1272 39.4 54.0792 39.4 54.0792 39.544C53.9352 39.592 53.9352 39.592 53.7432 39.592H52.3032V38.008H52.2552Z" fill="#8A2432"/>
<path fill-rule="evenodd" clip-rule="evenodd" d="M57.2969 41.7521C57.2969 42.7601 57.8249 43.4801 58.8329 43.4801H62.9129C63.5849 43.4801 64.2569 42.7121 64.2569 41.9441V39.0641C64.2569 37.8161 63.8729 36.9041 62.6729 36.9041H59.3129C57.9689 36.9041 57.3449 37.4321 57.3449 38.8721V41.7521H57.2969ZM59.6969 38.3921C59.6969 38.1041 60.0329 38.0081 60.3209 38.0081H61.1369C61.5209 38.0081 61.7609 38.1521 61.7609 38.5361V41.8961C61.7609 42.1361 61.6649 42.2321 61.5689 42.3761L60.7529 42.4721H60.7049L59.8889 42.3761C59.7929 42.2321 59.6969 42.1841 59.6969 41.9441V38.3921Z" fill="#8A2432"/>
<path fill-rule="evenodd" clip-rule="evenodd" d="M30.416 36.904C30.56 37.192 30.656 37.384 30.656 37.816V42.76C30.656 43.144 30.512 43.192 30.464 43.48H33.296C33.2 43.288 33.056 42.904 33.056 42.616V37.72C33.056 37.288 33.248 37.192 33.296 36.856H30.416V36.904Z" fill="#CF3339"/>
<path fill-rule="evenodd" clip-rule="evenodd" d="M34.1113 36.904C34.2073 37.048 34.4473 37.528 34.4473 37.768V42.52C34.4473 43.048 34.3033 43.144 34.2073 43.528H35.7433C35.2153 42.52 35.5033 39.784 35.5033 38.248C35.9833 38.824 37.8073 43.528 38.1433 43.528H41.0713V37.864C41.0713 37.528 41.2633 37.096 41.4073 36.856H39.8233C39.9673 37.336 40.0633 37.24 40.0633 37.96C40.0633 38.44 40.0633 38.872 40.0633 39.352V42.04L37.6153 36.856L34.1113 36.904Z" fill="#CF3339"/>
</svg>
