<svg width="100" height="50" viewBox="0 0 100 50" fill="none" xmlns="http://www.w3.org/2000/svg">
<path d="M15.3882 30.7904L22.6684 18.4601C22.5402 18.1268 22.4121 17.7936 22.2583 17.4603L9.364 12.0258L1.13525 23.8177C1.16089 23.9972 1.18652 24.2022 1.23779 24.3817L15.3882 30.7904Z" fill="#F7B916"/>
<path d="M47.1753 32.2523H44.176H44.1504L41.5869 29.0992L38.9978 32.2523H38.9722H36.5881C36.5625 32.2523 36.5625 32.2523 36.5625 32.2267C36.5625 32.2267 36.5625 32.201 36.5625 32.1754L40.3564 27.5099L36.6138 22.8956C36.6138 22.87 36.6138 22.87 36.6138 22.8444L36.6394 22.8187H39.6387C39.6387 22.8187 39.6643 22.8187 39.6643 22.8444L41.9202 25.6385L44.2273 22.8444L44.2529 22.8187H46.6882C46.7138 22.8187 46.7139 22.8187 46.7139 22.8444C46.7139 22.87 46.7139 22.87 46.7139 22.8956L43.1506 27.1766L47.2265 32.1754C47.2265 32.1754 47.2522 32.201 47.2265 32.2267C47.2009 32.2523 47.2009 32.2523 47.1753 32.2523Z" fill="#1F3562"/>
<path d="M63.3757 24.5105C62.0427 24.5105 61.1455 25.3052 60.8892 26.7151H65.4009V26.6125C65.4009 25.5102 64.5549 24.5105 63.3757 24.5105ZM67.708 28.1506L67.6824 28.1763H60.8379C60.9661 29.7656 62.0171 30.6885 63.6833 30.6885C64.7087 30.6885 65.811 30.3296 67.3491 29.5093C67.3747 29.4836 67.4004 29.5093 67.4004 29.5605V31.6626C67.4004 31.6882 67.4004 31.6882 67.3747 31.6882C65.9392 32.3034 64.478 32.7136 63.3501 32.7136C60.4021 32.7136 58.2744 30.5603 58.2744 27.6123C58.2744 24.6643 60.4021 22.511 63.3501 22.511C66.0417 22.511 67.7593 24.3311 67.7593 26.8176C67.7849 27.1765 67.708 28.125 67.708 28.1506Z" fill="#1F3562"/>
<path d="M81.6023 20.9216C80.7563 20.9216 80.0898 20.2551 80.0898 19.4348C80.0898 18.5889 80.782 17.8967 81.6023 17.8967C82.4482 17.8967 83.1147 18.5889 83.1147 19.4348C83.1404 20.2295 82.4482 20.9216 81.6023 20.9216Z" fill="#1F3562"/>
<path d="M80.3723 32.2523C80.3467 32.2523 80.3467 32.2267 80.3467 32.2267V22.8956C80.3467 22.87 80.3467 22.87 80.3723 22.87H82.8333C82.8589 22.87 82.8589 22.8956 82.8589 22.8956V32.2267C82.8589 32.2523 82.8333 32.2523 82.8333 32.2523H80.3723Z" fill="#1F3562"/>
<path d="M51.7124 30.8424C51.2766 30.8424 50.8152 30.7911 50.2769 30.6373V24.6644C50.8921 24.4593 51.4304 24.3824 51.9431 24.3824C53.6606 24.3824 54.8142 25.6385 54.8142 27.5355C54.8142 29.535 53.6094 30.8424 51.7124 30.8424ZM52.3789 22.4855C51.6868 22.4855 50.969 22.6136 50.2512 22.87H47.7903C47.7647 22.87 47.7646 22.8956 47.7646 22.9213V38.1739C48.5081 38.0714 49.4053 37.815 50.3025 37.1742V32.5343C50.9177 32.6112 51.4048 32.6881 51.8918 32.6881C55.25 32.6881 57.4546 30.6629 57.4546 27.5355C57.4289 24.5619 55.3525 22.4855 52.3789 22.4855Z" fill="#1F3562"/>
<path d="M75.8855 30.0735C75.1164 30.4836 74.4243 30.6631 73.7834 30.6631C72.2453 30.6631 71.3481 29.5864 71.3481 27.7663C71.3481 25.6899 72.5273 24.3313 74.3218 24.3313C74.8088 24.3313 75.2959 24.4595 75.8855 24.7158V30.0735ZM75.8855 17.9226V22.7932C75.1677 22.5881 74.5268 22.4856 73.886 22.4856C70.9636 22.4856 68.7334 24.6902 68.7334 27.6382C68.7334 30.5605 70.6816 32.6626 73.3733 32.6626C74.2961 32.6626 75.1677 32.4319 76.1931 31.8935V32.7395C76.8596 32.6113 77.6543 32.3293 78.4233 31.791V16.9229C77.6799 17.0254 76.7827 17.2817 75.8855 17.9226Z" fill="#1F3562"/>
<path d="M91.4458 30.0477C90.7024 30.4835 90.0615 30.6886 89.4976 30.6886C87.8569 30.6886 86.8828 29.6119 86.8828 27.7919C86.8828 25.7411 88.0364 24.3568 89.7539 24.3568C90.2153 24.3568 90.7793 24.5363 91.4458 24.8951V30.0477ZM93.9836 22.7418C93.9836 22.6906 93.9324 22.6393 93.8811 22.6393H91.8816C91.8303 22.6393 91.779 22.6906 91.779 22.7418V23.0751H91.7278C90.8049 22.6649 90.0102 22.4855 89.2412 22.4855C86.4727 22.4855 84.3193 24.767 84.3193 27.715C84.3193 30.6886 86.2676 32.6625 89.1387 32.6625C89.9077 32.6625 90.9075 32.6112 91.8303 31.5345V32.7394C92.4968 32.6112 93.2659 32.3292 93.9836 31.7909V22.7418Z" fill="#1F3562"/>
<path d="M29.7695 29.8939H35.9731C35.8706 30.586 35.6399 31.4063 35.1015 32.2267H29.7952H28.7441H28.6672C27.8726 32.2267 27.2317 31.6114 27.1548 30.8424V30.8167V24.4593V18.589V18.5634C27.2317 17.7943 27.8726 17.1791 28.6672 17.1791C28.6929 17.1791 28.7185 17.1791 28.7441 17.1791H35.9731C35.8706 17.8712 35.6399 18.6915 35.1015 19.5118H29.7952V22.8443H35.0503C35.0759 22.8443 35.1015 22.87 35.1015 22.87V25.1771C35.1015 25.2027 35.0759 25.2027 35.0503 25.2027H29.7952V29.8939H29.7695Z" fill="#1F3562"/>
<path d="M96.625 22.4853H96.907C97.2402 22.4853 97.3684 22.3828 97.3684 22.1777C97.3684 21.947 97.2146 21.8445 96.8813 21.8445H96.625V22.4853ZM96.9582 21.5881C97.5222 21.5881 97.8298 21.7932 97.8298 22.1521C97.8298 22.4597 97.676 22.6392 97.3684 22.7161L97.8298 23.6389H97.3428L96.9326 22.793H96.625V23.6389H96.1892V21.6138H96.9582V21.5881ZM95.856 21.5369C95.5483 21.8445 95.3945 22.229 95.3945 22.6392C95.3945 23.0493 95.5483 23.4338 95.8303 23.7158C96.1379 24.0234 96.5225 24.1772 96.907 24.1772C97.3428 24.1772 97.7273 24.0234 98.0349 23.7158C98.3169 23.4338 98.4963 23.0493 98.4963 22.6392C98.4963 22.2034 98.3425 21.8188 98.0605 21.5369C97.7529 21.2292 97.394 21.0754 96.9582 21.0754C96.4968 21.0754 96.1379 21.2292 95.856 21.5369ZM98.2144 21.3574C98.5476 21.6907 98.727 22.1521 98.727 22.6392C98.727 23.1519 98.5476 23.5876 98.1887 23.9209C97.8298 24.2798 97.3684 24.4592 96.907 24.4592C96.4199 24.4592 95.9585 24.2541 95.6252 23.9209C95.292 23.562 95.0869 23.1262 95.0869 22.6392C95.0869 22.1521 95.292 21.6907 95.6252 21.3318C95.9585 20.9985 96.3943 20.8191 96.8813 20.8191C97.4197 20.8191 97.8811 20.9985 98.2144 21.3574Z" fill="#1F3562"/>
<path d="M14.0294 19.563L13.5936 18.3069L9.77405 13.2056L10.4662 13.0262L17.0287 18.6915L20.8995 17.5892C21.3609 17.461 21.8736 17.4354 22.2582 17.461C21.0277 14.8463 18.7975 12.6929 15.8751 11.6419C10.0817 9.59114 3.72426 12.616 1.64785 18.4095C1.00698 20.2039 0.853174 22.0496 1.13516 23.8184L10.3893 20.6141L14.0294 19.563Z" fill="#1F3561"/>
<path d="M22.6428 18.4607C22.3095 18.6658 21.7968 18.9734 21.3098 19.1272L17.4389 20.2295L14.8755 28.5095L14.209 28.7402L14.7473 22.4084L14.4397 21.1011L10.8252 22.1265L1.23779 24.3823C2.00683 28.0737 4.59594 31.2781 8.41551 32.6367C14.209 34.7131 20.5664 31.6626 22.6428 25.8691C23.5144 23.3826 23.4631 20.7678 22.6428 18.4607Z" fill="#1F3561"/>
<path d="M22.0271 32.4573C21.4119 32.4573 21.0273 31.9702 21.0273 31.4062C21.0273 30.791 21.4631 30.3296 22.0271 30.3296C22.5911 30.3296 23.0012 30.7654 23.0012 31.4062C23.0012 32.0215 22.5654 32.4573 22.0271 32.4573ZM22.0271 30.2014C21.4119 30.2014 20.8735 30.6628 20.8735 31.3806C20.8735 32.0471 21.3606 32.5598 22.0271 32.5598C22.6423 32.5598 23.1807 32.0984 23.1807 31.3806C23.1807 30.6628 22.6423 30.2014 22.0271 30.2014Z" fill="#1F3561"/>
<path d="M21.7454 31.278V30.8422H22.0273C22.1812 30.8422 22.3606 30.8678 22.3606 31.0472C22.3606 31.2523 22.2068 31.278 22.0273 31.278H21.7454ZM22.5657 31.0985C22.5657 30.8165 22.3862 30.6884 22.053 30.6884H21.5146V32.0983H21.7454V31.5087H21.9504L22.3093 32.0983H22.5657L22.1812 31.483C22.4119 31.4574 22.5657 31.3549 22.5657 31.0985Z" fill="#1F3561"/>
</svg>
