<svg width="75" height="33" viewBox="0 0 75 33" fill="none" xmlns="http://www.w3.org/2000/svg">
<path d="M25.3524 8.19486C24.3933 8.37388 23.5493 9.26902 23.4726 10.2025C23.3959 11.1232 24.1248 11.737 25.0839 11.558C26.0429 11.379 26.8869 10.4838 26.9636 9.55034C27.0404 8.61685 26.3243 8.01583 25.3524 8.19486Z" fill="#EE3124"/>
<path d="M32.1426 12.3125C31.7461 12.3892 31.2858 12.4659 29.4955 14.5631C29.9303 13.7575 30.071 13.0925 29.5339 12.7345C28.9712 12.3508 27.9866 12.645 27.4495 13.003C27.117 13.2204 27.1042 13.3355 27.0403 13.7575C26.9892 14.026 26.7462 14.6398 26.5672 14.9851L26.0173 16.1488C23.9585 19.7421 22.8076 20.7139 22.4751 21.1231C22.1299 21.5068 21.8358 21.7242 21.6312 21.7625C21.4777 21.7881 21.4138 21.6858 21.4266 21.4812C21.4521 21.1871 21.5544 20.7779 21.7974 20.2536C22.1938 19.3584 22.8076 18.0413 23.2935 17.159C23.5621 16.6347 24.2398 15.3815 24.2398 15.3815C24.8792 13.9365 23.6644 13.4378 22.9483 13.5401C22.7437 13.5657 20.4803 13.8342 17.8972 14.269C19.3038 8.36111 19.1887 9.24345 20.6593 5.45832C21.3754 3.6169 21.2987 3.18213 20.6849 2.4916C20.0839 1.78828 20.1862 1.02102 19.5084 0.957083C17.9355 0.829207 12.4113 8.80867 7.96121 16.5707C5.86404 17.1973 3.76687 17.939 1.83594 18.8214C0.557184 19.4096 0.800148 20.471 0.915237 21.0208C1.08148 21.7881 1.91267 22.1334 2.56484 21.7497C3.56227 21.1871 4.71316 20.65 5.95355 20.1513C5.91519 20.228 5.9024 20.2792 5.91519 20.2792C4.22723 23.4505 2.33466 27.8878 1.72086 29.8443C1.37559 30.944 1.92546 31.9287 2.87174 32.3507C3.81802 32.7854 4.4574 32.3251 4.77709 30.8545C5.17351 29.0259 7.56479 23.3354 9.98165 18.7446C9.98165 18.7446 9.99444 18.7319 10.02 18.6935C11.4778 18.2204 12.9484 17.8111 14.3422 17.4403C13.4855 21.0592 13.2681 22.5553 13.2808 23.7957C13.2936 25.0234 13.7412 26.4428 15.0839 26.251C16.4266 26.0592 16.2092 24.806 16.3499 23.6295C16.6951 20.9569 16.7463 19.806 17.3729 16.7498C17.3857 16.7498 17.4112 16.7114 17.424 16.6603C18.9074 16.315 20.1734 16.0465 21.0685 15.8674C20.9406 16.136 20.8 16.4301 20.6465 16.7498C20.0583 17.939 19.4317 19.4096 19.0225 20.471C18.6389 21.5323 18.4343 22.3635 18.3703 23.0669C18.2424 24.6269 18.9074 25.4709 20.0839 25.2535C20.9534 25.0873 22.2961 23.9108 23.805 21.5451C23.6388 22.1078 23.5365 22.5681 23.5237 22.8495C23.4726 24.0643 24.0864 25.0745 26.0557 23.7446C26.2475 23.6167 26.2731 23.4121 26.2858 23.0285C26.3881 21.7114 26.9252 19.9595 28.1017 18.182C29.0224 16.8009 29.6746 16.0209 30.5058 15.6628C32.0019 15.0107 32.9482 15.2153 33.7794 14.205C34.5978 13.2332 32.897 12.1718 32.1426 12.3125ZM14.9816 14.8316C13.933 15.049 12.8333 15.2792 11.708 15.5605C13.6645 12.0823 15.8128 8.59128 17.8332 5.86752C16.823 8.30996 15.8256 11.6092 14.9816 14.8316Z" fill="#EE3124"/>
<path d="M73.2291 16.2254C72.8071 16.9287 72.4235 17.517 71.8736 18.118C71.3749 18.6551 70.9785 18.8725 70.7611 18.7957C70.1984 18.5911 70.5181 17.7727 71.1063 16.5835C71.3749 16.0208 71.7585 15.2919 72.1166 14.6781C72.6153 13.8725 72.7176 13.6423 72.7559 13.3482C72.8071 12.939 72.5513 12.6577 71.7713 12.338C71.2854 12.1206 71.2342 12.0822 71.0424 11.5068C70.7611 10.8035 70.16 10.4582 69.4312 10.5605C68.3186 10.714 66.5795 12.0567 65.045 13.962C64.4824 14.6014 62.5642 17.1845 62.334 17.5042L62.0399 17.9006C61.1959 19.0387 60.9658 19.32 60.5949 19.7292C60.2241 20.0873 59.93 20.3047 59.7254 20.3302C59.5719 20.3558 59.508 20.2407 59.5336 20.0489C59.5719 19.7548 59.6998 19.3584 59.9555 18.8469C60.3903 17.9773 61.0681 16.6858 61.6051 15.829C61.8993 15.3175 62.398 14.3712 62.4363 14.2689L62.7177 13.7702C63.4466 12.4659 62.334 11.8393 61.5028 11.9032C61.1704 11.9288 60.6333 12.1718 60.352 12.3764C60.1346 12.5298 60.109 12.581 60.0451 12.8751C59.9683 13.2459 59.4824 14.3201 58.9581 15.2791C58.3187 16.4428 57.6154 17.875 57.1551 18.9236C56.7203 19.9594 56.4773 20.7906 56.3878 21.4939C56.1832 23.054 56.8098 23.9236 57.9863 23.7573C58.8686 23.6294 59.8149 22.7855 60.9658 21.4556C61.3366 21.0336 61.7458 20.4453 62.1422 19.8443C61.9248 21.5834 62.7944 22.7727 64.265 22.5681C65.2496 22.4274 66.0808 21.7113 67.1422 20.5349C67.2828 20.3942 67.334 20.343 67.4107 20.3302C67.4874 20.3175 67.5514 20.3814 67.5642 20.5221L67.6153 20.6755C67.756 21.4683 68.357 21.8392 69.2138 21.7241C70.2751 21.5834 71.426 20.7906 72.7048 19.1794C73.7278 17.9134 74.137 16.9927 74.3544 16.4172C74.5973 15.7523 73.6639 15.5093 73.2291 16.2254ZM67.1933 18.361C66.4516 19.3456 65.7483 19.9722 65.3519 20.0233C65.0962 20.0617 64.9555 19.8187 65.0066 19.4479C65.1217 18.5528 66.5795 15.829 67.6665 14.4863C68.4081 13.5528 69.1754 12.8879 69.5335 12.8367C69.8148 12.7984 69.9171 12.9518 69.8659 13.3226C69.7508 14.1283 68.1908 17.0694 67.1933 18.361Z" fill="#EE3124"/>
<path d="M63.1269 10.2409C64.0859 10.0619 64.9299 9.16672 65.0066 8.23322C65.0834 7.31252 64.3545 6.69871 63.3954 6.87774C62.4363 7.05676 61.5923 7.9519 61.5156 8.88539C61.4389 9.81889 62.1678 10.4199 63.1269 10.2409Z" fill="#EE3124"/>
<path d="M49.0093 14.2308C48.8815 14.2564 48.7408 14.2692 48.6001 14.2948C50.0196 8.37413 49.8917 9.25647 51.3622 5.47134C52.0784 3.62992 52.0016 3.19515 51.3878 2.50462C50.7868 1.8013 50.8891 1.03404 50.2114 0.970103C48.6129 0.82944 43.1142 8.77054 38.6642 16.507C36.5798 17.1336 34.4826 17.8881 32.5517 18.8088C31.3497 19.3715 31.5926 20.4456 31.7077 20.9955C31.8612 21.7627 32.654 22.108 33.2678 21.75C34.2652 21.1617 35.4161 20.6119 36.6437 20.1004C36.5926 20.2154 33.2678 26.8138 32.3854 29.8445C32.0658 30.957 32.59 31.9289 33.5363 32.3509C34.4826 32.7857 35.122 32.3253 35.4417 30.8547C35.8381 29.0261 38.9966 21.6732 40.723 18.617C42.1808 18.1439 43.6513 17.7347 45.0068 17.3766C45.0068 17.4022 43.9454 21.6349 43.9454 23.796C43.9454 25.0236 44.4058 26.443 45.7485 26.2512C47.0912 26.0594 46.8738 24.8062 47.0145 23.6297C47.3597 20.9571 47.4109 19.8062 48.0375 16.75C48.063 16.75 48.0886 16.6861 48.1142 16.6093C48.4595 16.5326 48.8047 16.4559 49.1116 16.3792C50.7868 16.0083 51.2599 16.0339 51.375 14.7168C51.4518 13.9112 49.5848 14.1413 49.0093 14.2308ZM48.5106 5.85497C47.5132 8.31019 46.503 11.5966 45.6718 14.8063C44.6488 15.0109 43.549 15.2411 42.4109 15.5096C44.3546 12.0442 46.503 8.57873 48.5106 5.85497Z" fill="#EE3124"/>
<path d="M51.1321 24.9594C50.2625 25.0489 48.3827 24.6269 48.063 23.1052C47.9479 22.6193 48.664 21.3021 48.8175 21.072C49.0732 20.6755 49.4697 20.9185 49.6103 21.1103C49.9044 21.5451 51.5029 22.9773 52.4236 22.0438C53.0118 21.4556 52.1039 20.6755 51.7075 20.0362C50.2881 17.696 52.2062 14.9851 52.8072 14.3968C54.1116 13.1181 55.0323 13.003 55.6717 12.9902C57.5386 12.9263 58.178 13.9876 58.0374 14.6014C57.8839 15.2792 57.5131 15.6884 57.2701 15.9569C57.0911 16.1487 56.5668 16.2127 56.4005 15.9697C56.0041 15.3943 55.774 14.6142 54.6231 15.0746C53.7024 15.4454 53.6512 16.6986 53.843 17.3124C54.1627 18.297 55.467 19.0387 55.4543 20.4454C55.4415 24.1154 52.2318 24.8443 51.1321 24.9594Z" fill="#EE3124"/>
</svg>
