<svg width="165" height="50" viewBox="0 0 165 50" fill="none" xmlns="http://www.w3.org/2000/svg">
<rect width="165" height="50" fill="#FAFAFC"/>
<path fill-rule="evenodd" clip-rule="evenodd" d="M117.562 12.2197L127.091 11.6646C122.049 11.4796 119.088 11.4796 118.163 11.6183L116.775 11.9422C116.59 12.0809 116.868 12.1734 117.562 12.2197Z" fill="#808285"/>
<path fill-rule="evenodd" clip-rule="evenodd" d="M115.48 14.6252L131.116 14.3014L115.943 13.7463C113.954 13.6075 112.843 13.7463 112.658 14.1163C112.381 14.6252 113.352 14.8102 115.48 14.6252Z" fill="#808285"/>
<path fill-rule="evenodd" clip-rule="evenodd" d="M109.929 17.632L133.568 16.7993L112.288 16.5217C110.669 16.5217 109.836 16.7068 109.836 17.0306L109.929 17.632Z" fill="#808285"/>
<path fill-rule="evenodd" clip-rule="evenodd" d="M111.502 20.7777L135.233 19.7137L109.513 19.2974C108.865 19.3436 108.495 19.5287 108.403 19.8525C108.31 20.6389 109.328 20.8702 111.502 20.7777Z" fill="#808285"/>
<path fill-rule="evenodd" clip-rule="evenodd" d="M108.079 23.5069L136.158 22.813L110.207 22.0729C108.541 22.0729 107.662 22.3504 107.523 22.9981C107.477 23.2294 107.708 23.4607 108.079 23.5069Z" fill="#808285"/>
<path fill-rule="evenodd" clip-rule="evenodd" d="M107.847 26.3751L116.729 26.2826L117.978 24.8948H109.096C107.755 24.8948 107.153 25.2186 107.338 25.82C107.338 26.0975 107.523 26.3288 107.847 26.3751Z" fill="#808285"/>
<path fill-rule="evenodd" clip-rule="evenodd" d="M109.836 29.3356L115.48 28.9193L116.22 27.624L109.605 27.7628C108.31 27.7628 107.708 28.0404 107.708 28.5492C107.708 28.9656 107.894 29.1969 108.171 29.2431L109.836 29.3356Z" fill="#808285"/>
<path fill-rule="evenodd" clip-rule="evenodd" d="M110.715 32.0188L125.01 31.4636L123.992 30.4459L110.207 30.5384L108.773 30.7235C108.587 30.8623 108.541 31.0473 108.587 31.3711C108.68 31.9725 109.42 32.2038 110.715 32.0188Z" fill="#808285"/>
<path fill-rule="evenodd" clip-rule="evenodd" d="M126.906 33.7766L112.658 33.6841C110.901 33.6841 110.16 33.8691 110.16 34.378C110.345 35.0256 111.317 35.1644 113.121 35.0256L127.785 34.7018L126.906 33.7766Z" fill="#808285"/>
<path fill-rule="evenodd" clip-rule="evenodd" d="M128.71 36.691L113.399 36.5522C113.075 36.5522 112.89 36.691 112.89 36.9686C112.89 37.4774 113.954 37.7087 116.082 37.57L130.237 37.0611L128.71 36.691Z" fill="#93989C"/>
<path fill-rule="evenodd" clip-rule="evenodd" d="M119.042 39.6516L127.415 39.374L118.626 39.0502C117.469 38.8652 116.868 39.004 116.868 39.374L119.042 39.6516Z" fill="#93989C"/>
<path fill-rule="evenodd" clip-rule="evenodd" d="M142.866 8.24127C139.813 9.53654 133.891 13.006 125.102 18.696C129.636 16.1979 133.799 14.255 137.638 12.821L144.531 10.5543L145.873 10.6468C146.15 10.8318 145.734 11.0631 144.809 11.2944C143.19 11.8033 140.229 13.0523 135.881 15.0414C130.838 17.3082 127.97 18.9273 127.138 19.945L132.92 20.0837C132.087 21.1015 131.07 21.7028 129.913 21.7491L128.803 21.7954C130.098 23.877 132.134 25.0335 135.002 25.2186L136.945 25.3111L137.037 26.8377L128.895 27.6241L136.76 28.1329C136.852 29.2894 136.806 29.8908 136.667 29.8908H128.71L136.019 30.9548L135.603 32.8514L128.988 33.3603L134.863 34.0079L133.475 35.9046L129.867 36.3672L132.642 36.9685L129.589 39.0965C127.415 36.9223 125.75 35.0719 124.732 33.6841L122.604 30.7235L119.643 31.3711C122.234 29.5207 123.622 28.1329 123.853 27.3003C123.807 25.6812 123.668 24.6172 123.529 24.0158L122.465 25.1261C122.28 23.507 122.049 22.5355 121.771 22.1192L121.355 23.3682L119.597 24.8948L120.892 24.8022C120.106 29.1044 118.394 31.8337 115.619 32.9439L114 31.2786L115.11 30.2609L113.445 30.7697L113.121 30.2609C114.786 27.5316 116.035 25.6349 117.053 24.5247L121.91 20.0837C124.64 17.817 127.184 15.8741 129.543 14.3938C135.742 10.6468 140.229 8.24127 142.958 7.26982C144.022 6.85348 144.485 6.946 144.207 7.36234L142.866 8.24127Z" fill="#7A003C"/>
<path fill-rule="evenodd" clip-rule="evenodd" d="M97.2075 40.8543V39.9754C97.2075 39.5128 97.8089 39.0502 98.9654 38.5876L99.613 38.2637V41.5482H101.001V37.9399L100.816 37.8474C100.77 37.7549 100.816 37.6624 100.908 37.6161C101.047 37.4773 101.417 37.246 102.019 36.8297V42.4734H86.1514C86.1514 42.9822 85.9664 43.3986 85.5038 43.7224L84.6249 43.9999C84.3473 43.9999 84.0698 43.8612 83.7459 43.5836C83.5609 43.4448 83.6072 43.3523 83.7922 43.3523C84.2085 43.4911 84.5324 43.4448 84.8099 43.2135C85.0412 43.0285 85.18 42.8435 85.18 42.5196L85.2263 39.7441L84.9487 39.6515C84.9024 39.6053 84.9024 39.5128 85.0412 39.4202L86.1514 38.6338L86.1977 41.6407H87.4467V38.1712C87.1229 38.0324 87.1229 37.8474 87.4467 37.6161L88.5107 36.876V39.6978C88.7883 39.4202 89.2046 39.2815 89.7134 39.2815H93.553C93.9693 39.2815 94.3857 39.4202 94.7558 39.6978C95.1258 40.0216 95.3109 40.4379 95.3109 40.9468V41.6407H98.6878V40.9468H97.2075V40.8543ZM79.7676 37.3385V41.5482H82.867V40.3454C82.5432 40.2529 82.4969 40.1141 82.7745 39.8366L83.8385 39.0964V42.4734H76.6682L76.807 40.9005C76.807 40.5767 77.1308 40.2067 77.7322 39.7903C78.1023 39.559 78.4261 39.3277 78.7499 39.1889L78.7962 38.7726C78.5649 38.6801 78.4723 38.5876 78.5649 38.5413L79.7676 37.3385ZM98.6416 39.6053C98.179 39.7441 97.9477 39.9291 97.9477 40.1604H98.6416V39.6053ZM77.6859 41.5482H78.7499V40.2067L77.9172 40.623C77.6859 40.808 77.5934 41.1318 77.6859 41.5482ZM77.4084 36.7372C77.8247 36.7372 78.0097 36.9222 78.0097 37.1998C78.0097 37.4311 77.8247 37.5698 77.4084 37.5698C77.0845 37.5698 76.8995 37.4311 76.8995 37.1998C76.8995 36.9222 77.0845 36.7372 77.4084 36.7372ZM78.7036 36.7372C79.12 36.7372 79.305 36.9222 79.305 37.1998C79.305 37.4311 79.12 37.5698 78.7036 37.5698C78.3798 37.5698 78.241 37.4311 78.241 37.1998C78.241 36.9222 78.4261 36.7372 78.7036 36.7372ZM80.7391 42.7972C81.1091 42.7972 81.3404 42.9822 81.3404 43.2598C81.3404 43.4911 81.1554 43.6299 80.7391 43.6299C80.4152 43.6299 80.2302 43.4911 80.2302 43.2598C80.2302 42.9822 80.4152 42.7972 80.7391 42.7972ZM82.1269 42.7972C82.4969 42.7972 82.7282 42.9822 82.7282 43.2598C82.7282 43.4911 82.5432 43.6299 82.1269 43.6299C81.803 43.6299 81.618 43.4911 81.618 43.2598C81.618 42.9822 81.7568 42.7972 82.1269 42.7972ZM97.5313 36.6447C97.9477 36.6447 98.1327 36.8297 98.1327 37.1073C98.1327 37.3385 97.9477 37.4773 97.5313 37.4773C97.2075 37.4773 97.0225 37.3385 97.0225 37.1073C97.0687 36.8297 97.2075 36.6447 97.5313 36.6447ZM98.9191 36.6447C99.3355 36.6447 99.5205 36.8297 99.5205 37.1073C99.5205 37.3385 99.3355 37.4773 98.9191 37.4773C98.5953 37.4773 98.4565 37.3385 98.4565 37.1073C98.4565 36.8297 98.5953 36.6447 98.9191 36.6447ZM94.2469 41.5482H88.5107V40.5767C88.6495 40.2992 88.927 40.1604 89.2971 40.1604H93.5067C93.9231 40.1604 94.1081 40.2529 94.2006 40.4379L94.2469 40.9005V41.5482ZM103.823 36.876V42.4734H102.805V37.9399C102.712 37.9862 102.62 37.9399 102.62 37.8474L102.712 37.6161L103.823 36.876Z" fill="#7A003C"/>
<path fill-rule="evenodd" clip-rule="evenodd" d="M54.2785 32.8514H58.1643L50.3464 15.3652H48.9124L41.2795 32.8514H43.5463L45.7667 27.439H52.058L54.2785 32.8514ZM46.4144 25.8199L48.9124 19.7136L51.4104 25.8199H46.4144Z" fill="#7A003C"/>
<path fill-rule="evenodd" clip-rule="evenodd" d="M83.052 32.8514H86.9378L79.1199 15.3652H77.6858L70.053 32.8514H72.3197L74.5402 27.439H80.8315L83.052 32.8514ZM75.2341 25.8199L77.7321 19.7136L80.2301 25.8199H75.2341Z" fill="#7A003C"/>
<path fill-rule="evenodd" clip-rule="evenodd" d="M57.563 15.3652H70.8395V17.4932H66.0748V32.8514H62.3277V17.4932H57.563V15.3652Z" fill="#7A003C"/>
<path fill-rule="evenodd" clip-rule="evenodd" d="M39.6604 24.3397C39.6604 19.1586 35.2657 14.949 29.8071 14.949C24.3947 14.949 20 19.1586 20 24.3397C20 29.567 24.3947 33.7767 29.8533 33.7767C30.3622 33.7767 30.8248 33.7304 31.2874 33.6841L36.5147 38.4026L39.2903 36.1822L33.7391 33.0365C37.2549 31.5099 39.6604 28.2255 39.6604 24.3397ZM29.8533 32.1113C26.2451 32.1113 23.3307 28.6418 23.3307 24.3859C23.3307 20.1301 26.2451 16.6606 29.8533 16.6606C33.4616 16.6606 36.3759 20.1301 36.3759 24.3859C36.3759 28.6418 33.4616 32.1113 29.8533 32.1113Z" fill="#7A003C"/>
<path fill-rule="evenodd" clip-rule="evenodd" d="M97.2536 24.7097C99.0577 24.3396 101.695 22.628 101.695 19.2048C101.695 15.7816 97.6237 15.4115 97.6237 15.4115H92.9052H91.4711H89.8521V32.8514H92.9052V25.0798H93.9692L99.0115 32.6664H103.314L97.2536 24.7097ZM92.9514 23.6457V16.3367H96.8835C96.8835 16.3367 99.0115 17.5394 99.0115 19.7136C99.0115 21.8879 98.0863 23.6457 96.7447 23.6457C95.4032 23.6457 92.9514 23.6457 92.9514 23.6457Z" fill="#7A003C"/>
<path d="M42.4363 36.3208H43.269L45.4894 42.0107H44.6567L44.0554 40.2991H41.6499L41.0022 42.0107H40.2158L42.4363 36.3208ZM41.8812 39.6515H43.8241L42.8526 37.0147L41.8812 39.6515Z" fill="#808285"/>
<path d="M46.137 36.3208H46.8771V42.0107H46.137V36.3208Z" fill="#808285"/>
<path d="M48.1726 36.3208H50.8557C51.9196 36.3208 52.5673 36.9222 52.5673 37.8011C52.5673 38.495 52.2435 39.0501 51.5958 39.2352C52.2435 39.3739 52.3822 39.8365 52.4285 40.3917C52.4748 40.9468 52.4285 41.5944 52.7523 41.9645H51.9196C51.6883 41.7332 51.8271 41.1318 51.7346 40.5767C51.6421 40.0216 51.5033 39.559 50.7631 39.559H48.9128V42.0107H48.1726V36.3208ZM50.4856 38.9576C51.1795 38.9576 51.8271 38.7726 51.8271 37.9399C51.8271 37.3848 51.5033 36.9684 50.8094 36.9684H48.9128V38.9576H50.4856Z" fill="#808285"/>
<path d="M58.6272 42.0107H57.8408L56.5455 37.246L55.204 42.057H54.4176L52.9373 36.3671H53.7237L54.8339 41.1318L56.1292 36.3671H56.9619L58.2109 41.1318L59.3674 36.3671H60.1075L58.6272 42.0107Z" fill="#808285"/>
<path d="M62.2355 36.3208H63.0682L65.3349 42.0107H64.5022L63.9008 40.2991H61.4953L60.8477 42.0107H60.0613L62.2355 36.3208ZM61.6804 39.6515H63.6233L62.6518 37.0147L61.6804 39.6515Z" fill="#808285"/>
<path d="M67.6479 39.6978V42.0107H66.9077V39.6978L64.6873 36.3208H65.6124L67.3241 39.0501L68.9894 36.3208H69.8683L67.6479 39.6978Z" fill="#808285"/>
<path d="M73.7541 37.9861C73.6616 37.1535 73.1065 36.8296 72.3201 36.8296C71.6724 36.8296 71.0248 37.0609 71.0248 37.8011C71.0248 38.495 71.95 38.5875 72.8752 38.8188C73.8004 39.0039 74.6793 39.3277 74.6793 40.4842C74.6793 41.6869 73.4766 42.1958 72.4589 42.1958C71.1636 42.1958 70.0996 41.5944 70.0996 40.1603H70.8398C70.8398 41.1318 71.6262 41.5481 72.5051 41.5481C73.199 41.5481 73.9392 41.3168 73.9392 40.5304C73.9392 39.744 73.014 39.6052 72.135 39.4202C71.2098 39.2351 70.2846 38.9576 70.2846 37.8936C70.2846 36.7371 71.3024 36.2283 72.3663 36.2283C73.5228 36.2283 74.4018 36.7834 74.448 38.0324H73.7541V37.9861Z" fill="#808285"/>
</svg>
