<svg width="165" height="50" viewBox="0 0 165 50" fill="none" xmlns="http://www.w3.org/2000/svg">
<rect width="165" height="50" fill="#FAFAFC"/>
<path fill-rule="evenodd" clip-rule="evenodd" d="M110.662 6L127.623 22.961C129.341 24.6786 129.627 27.3265 128.339 29.3304L122.399 38.9917H122.828C123.114 38.9917 123.401 38.8486 123.544 38.5623L128.196 31.0479C128.768 30.1892 129.77 29.6166 130.915 29.6166H134.207L138 33.4096L137.714 33.2665C136.569 32.8371 135.281 33.2665 134.565 34.2684L129.484 42.4984C128.768 43.6435 127.337 44.5023 125.834 44.5023H108.73L114.956 34.5547C115.457 33.6243 115.457 32.4793 114.741 31.7636L105.08 22.2454C104.364 21.5297 104.078 20.3847 104.507 19.5259L105.939 16.5201L118.964 29.4019C119.679 30.2607 119.822 31.4058 119.25 32.2646L113.167 42.069H125.619C126.478 42.069 127.194 41.6396 127.623 40.924L132.275 33.4096C132.704 32.8371 133.42 32.2646 133.992 31.9783L134.422 31.8352H131.416H131.559C130.844 31.8352 130.271 32.2646 129.985 32.694L125.476 39.8505C124.904 40.7093 124.045 41.2818 123.043 41.2818H118.105L124.617 30.8332C125.619 29.2588 125.333 27.0403 123.902 25.609L109.803 11.6537C109.088 10.938 108.944 9.93611 109.231 8.93419L110.662 6Z" fill="url(#paint0_linear)"/>
<path fill-rule="evenodd" clip-rule="evenodd" d="M108.229 11.2244L123.114 25.9669C124.403 27.255 124.689 29.2589 123.687 30.7618L117.175 41.3535H114.455L119.822 32.694C120.538 31.549 120.395 29.8314 119.393 28.7579L107.37 16.878C106.797 16.1624 106.511 15.0173 106.941 14.1586L108.229 11.2244Z" fill="url(#paint1_linear)"/>
<path fill-rule="evenodd" clip-rule="evenodd" d="M93.1286 36.7733C93.8443 36.7733 95.3471 36.7733 95.3471 36.7733C95.705 36.7733 96.0628 37.1312 96.0628 37.7037C96.0628 38.2762 95.705 38.4193 95.3471 38.4193C95.3471 38.4193 91.4826 38.4193 90.7669 38.4193V39.9222C90.7669 39.9222 94.4884 39.9222 95.204 39.9222C96.85 39.9222 97.7804 38.8487 97.7804 37.7037C97.7804 36.4155 96.85 35.342 95.204 35.342C94.4884 35.342 92.9855 35.342 92.9855 35.342C92.413 35.342 92.2698 35.1273 92.2698 34.6264C92.2698 34.0538 92.4845 33.9107 92.9855 33.9107C92.9855 33.9107 96.85 33.9107 97.5657 33.9107V32.4078C97.5657 32.4078 93.8443 32.4078 93.1286 32.4078C91.4826 32.4078 90.5522 33.3382 90.5522 34.6264C90.5522 35.843 91.411 36.7733 93.1286 36.7733Z" fill="#005A96"/>
<path fill-rule="evenodd" clip-rule="evenodd" d="M50.6902 39.9221H52.3362V32.3362H50.6902V39.9221Z" fill="#005A96"/>
<path fill-rule="evenodd" clip-rule="evenodd" d="M70.0845 39.9221H71.7305V32.3362H70.0845V39.9221Z" fill="#005A96"/>
<path fill-rule="evenodd" clip-rule="evenodd" d="M75.3804 33.8391C75.3804 33.8391 77.742 33.8391 78.1714 33.8391C78.8871 33.8391 79.2449 34.4116 79.2449 34.9125V39.9221H80.8909V34.7694C80.8909 33.4812 79.9606 32.4077 78.5293 32.4077C77.5989 32.4077 76.3107 32.4077 76.3107 32.4077L75.3804 33.6244V32.3362H73.7344V39.9221H75.3804V33.8391Z" fill="#005A96"/>
<path fill-rule="evenodd" clip-rule="evenodd" d="M42.2453 39.9221L43.1756 37.7036H46.6823L47.7558 39.9221H49.6165L45.8951 32.3362H44.0344L40.313 39.9221H42.2453ZM44.9647 33.8391L46.0382 36.4154H43.8913L44.9647 33.8391Z" fill="#005A96"/>
<path fill-rule="evenodd" clip-rule="evenodd" d="M54.5547 39.9221H56.2007V33.8391H58.7771C59.4927 33.8391 59.8505 34.4116 59.8505 34.9125C59.8505 35.4851 59.4927 35.986 58.7771 35.986H56.7732L60.0652 39.8506H62.0691L59.7074 37.0595C60.7809 36.7017 61.3534 35.7713 61.3534 34.6978C61.3534 33.4097 60.4231 32.3362 58.9917 32.3362H54.5547V39.9221Z" fill="#005A96"/>
<path fill-rule="evenodd" clip-rule="evenodd" d="M89.0494 33.8391V32.3362H82.9663V39.9221H89.0494V38.6339H84.6123V36.6301H88.4769V35.3419H84.6123V33.8391H89.0494Z" fill="#005A96"/>
<path fill-rule="evenodd" clip-rule="evenodd" d="M68.9394 39.9221V38.6339H64.8601V32.3362H63.2141V39.9221H68.9394Z" fill="#005A96"/>
<path fill-rule="evenodd" clip-rule="evenodd" d="M28.3617 24.8218C29.0773 24.8218 30.5802 24.8218 30.5802 24.8218C31.1527 24.8218 31.2959 25.0365 31.2959 25.5374C31.2959 26.0384 31.0812 26.4678 30.5802 26.4678C30.5802 26.4678 26.7157 26.4678 26 26.4678V27.756C26 27.756 29.7214 27.756 30.4371 27.756C32.0831 27.756 33.0134 26.6825 33.0134 25.5374C33.0134 24.4639 32.0831 23.1758 30.4371 23.1758C29.7214 23.1758 28.2185 23.3905 28.2185 23.3905C27.8607 23.3905 27.5029 23.0326 27.5029 22.4601C27.5029 21.8876 27.8607 21.7445 28.2185 21.7445C28.2185 21.7445 32.2978 21.7445 32.7987 21.7445V20.2416C32.7987 20.2416 29.0773 20.2416 28.3617 20.2416C26.7157 20.2416 26 21.1719 26 22.4601C26 23.7483 26.7157 24.8218 28.3617 24.8218Z" fill="#005A96"/>
<path fill-rule="evenodd" clip-rule="evenodd" d="M51.2627 27.7559C52.5509 27.7559 54.7694 27.7559 54.7694 27.7559V22.7463H53.1234V26.253C51.2627 26.253 51.1196 26.253 51.1196 26.253C49.6167 26.253 48.7579 25.5373 48.7579 23.8913C48.7579 22.3885 49.6883 21.6728 51.1196 21.6728H54.841V20.1699C54.841 20.1699 52.6225 20.1699 51.3343 20.1699C48.5432 20.1699 47.1119 22.1738 47.1119 24.0345C47.0404 25.752 48.4717 27.7559 51.2627 27.7559Z" fill="#005A96"/>
<path fill-rule="evenodd" clip-rule="evenodd" d="M34.6594 27.756H36.3054V20.2416H34.6594V27.756Z" fill="#005A96"/>
<path fill-rule="evenodd" clip-rule="evenodd" d="M40.1699 21.6729C40.1699 21.6729 42.5316 21.6729 42.961 21.6729C43.5335 21.6729 44.0345 22.2454 44.0345 22.7464V27.756H45.6805V22.6032C45.6805 21.3151 44.7501 20.2416 43.3188 20.2416C42.2453 20.2416 41.1003 20.2416 41.1003 20.2416L40.1699 21.5298V20.2416H38.5239V27.8275H40.1699V21.6729Z" fill="#005A96"/>
<path fill-rule="evenodd" clip-rule="evenodd" d="M84.4692 21.6728H87.2602C87.8327 21.6728 88.1906 22.2453 88.1906 22.7463C88.1906 23.3188 87.8327 23.8198 87.2602 23.8198H85.2564L88.5484 27.6843H90.4091L88.1906 24.8932C89.1209 24.5354 89.8366 23.6051 89.8366 22.5316C89.8366 21.2434 88.7631 20.1699 87.2602 20.1699H83.0378V27.7559H84.5407V21.6728H84.4692Z" fill="#005A96"/>
<path fill-rule="evenodd" clip-rule="evenodd" d="M97.7088 27.756V26.4678H93.2717V24.4639H97.1363V23.1758H93.2717V21.6729H97.7088V20.2416H91.6257V27.756H97.7088Z" fill="#005A96"/>
<path fill-rule="evenodd" clip-rule="evenodd" d="M58.4192 25.5373H61.9259L62.8563 27.7559H64.717L60.9956 20.1699H59.3496L55.6282 27.7559H57.4889L58.4192 25.5373ZM60.1368 21.5297L61.425 24.3207H59.0633L60.1368 21.5297Z" fill="#005A96"/>
<path fill-rule="evenodd" clip-rule="evenodd" d="M67.2932 24.1061L68.2236 25.3943C68.2236 25.3943 68.9392 25.3943 69.8696 25.3943C71.5156 25.3943 72.4459 24.3208 72.4459 22.8179C72.4459 21.5298 71.5156 20.2416 69.8696 20.2416H65.6472V27.8275H67.2932V24.1061ZM67.2932 21.6729H69.8696C70.4421 21.6729 70.7999 22.2454 70.7999 22.7464C70.7999 23.3189 70.4421 24.0346 69.8696 24.0346C69.5118 24.0346 67.2932 24.0346 67.2932 24.0346V21.6729Z" fill="#005A96"/>
<path fill-rule="evenodd" clip-rule="evenodd" d="M77.4557 28.1136C79.8174 28.1136 81.6781 26.2529 81.6781 24.0344C81.6781 21.6727 79.8174 19.812 77.4557 19.812C75.2372 19.812 73.3765 21.6727 73.3765 24.0344C73.3765 26.3245 75.2372 28.1136 77.4557 28.1136ZM77.4557 21.3149C78.9586 21.3149 80.0321 22.6031 80.0321 24.1059C80.0321 25.3941 78.9586 26.6823 77.4557 26.6823C76.1675 26.6823 74.8793 25.3941 74.8793 24.1059C74.8793 22.6031 76.1675 21.3149 77.4557 21.3149Z" fill="#005A96"/>
<path fill-rule="evenodd" clip-rule="evenodd" d="M26.501 42.5701V44.5023H104.221L105.581 42.5701H26.501Z" fill="#EFBD42"/>
<defs>
<linearGradient id="paint0_linear" x1="103.031" y1="33.6158" x2="130.43" y2="19.0475" gradientUnits="userSpaceOnUse">
<stop stop-color="#F9C511"/>
<stop offset="1" stop-color="#E29618"/>
</linearGradient>
<linearGradient id="paint1_linear" x1="107.831" y1="28.8507" x2="121.113" y2="21.7883" gradientUnits="userSpaceOnUse">
<stop stop-color="#F9C511"/>
<stop offset="1" stop-color="#E29618"/>
</linearGradient>
</defs>
</svg>
