<svg width="21" height="20" viewBox="0 0 21 20" fill="none" xmlns="http://www.w3.org/2000/svg">
<path fill-rule="evenodd" clip-rule="evenodd" d="M2.5 9.77618C2.5 9.39649 2.78215 9.08269 3.14823 9.03303L3.25 9.02618L16.434 9.02678L11.671 4.28325C11.3775 3.99099 11.3765 3.51612 11.6687 3.2226C11.9344 2.95576 12.351 2.93065 12.6451 3.14787L12.7294 3.22031L18.7794 9.24431C18.8181 9.28284 18.8517 9.32453 18.8802 9.36856C18.8883 9.38181 18.8965 9.39537 18.9042 9.4092C18.9114 9.42106 18.9179 9.43337 18.9239 9.44581C18.9324 9.46392 18.9407 9.48263 18.9482 9.50173C18.9543 9.51644 18.9594 9.53076 18.964 9.54519C18.9696 9.56308 18.9749 9.58215 18.9796 9.60151C18.983 9.61503 18.9857 9.62804 18.9881 9.6411C18.9914 9.66053 18.9943 9.68063 18.9963 9.70098C18.998 9.7165 18.9991 9.73187 18.9997 9.74726C18.9998 9.7566 19 9.76637 19 9.77618L18.9996 9.80523C18.9991 9.81995 18.998 9.83466 18.9966 9.84933L19 9.77618C19 9.82351 18.9956 9.86981 18.9872 9.91471C18.9853 9.92543 18.983 9.93644 18.9804 9.9474C18.9751 9.96998 18.9689 9.99172 18.9618 10.013C18.9584 10.0236 18.9543 10.0349 18.95 10.0462C18.9412 10.0687 18.9317 10.0903 18.9212 10.1112C18.9163 10.1211 18.9109 10.1314 18.9052 10.1416C18.8958 10.1582 18.8861 10.1741 18.8759 10.1895C18.8687 10.2004 18.8607 10.2118 18.8524 10.223L18.8459 10.2316C18.8257 10.258 18.8038 10.283 18.7803 10.3065L18.7794 10.3072L12.7294 16.3322C12.4359 16.6245 11.9611 16.6235 11.6688 16.33C11.4031 16.0632 11.3797 15.6465 11.5982 15.3533L11.671 15.2694L16.432 10.5268L3.25 10.5262C2.83579 10.5262 2.5 10.1904 2.5 9.77618Z" fill="#3D3F40"/>
</svg>
