<svg width="32" height="32" viewBox="0 0 32 32" fill="none" xmlns="http://www.w3.org/2000/svg">
<g opacity="0.5">
<g opacity="0.5">
<path opacity="0.5" d="M32 16C32 7.16344 24.8366 0 16 0C7.16344 0 0 7.16344 0 16C0 24.8366 7.16344 32 16 32C24.8366 32 32 24.8366 32 16Z" fill="black"/>
</g>
</g>
<path fill-rule="evenodd" clip-rule="evenodd" d="M20.5615 11.4282C20.7509 11.2876 21.0197 11.3033 21.1915 11.4751C21.3805 11.664 21.3805 11.9704 21.1915 12.1593L17.0183 16.3333L21.1915 20.5073C21.3805 20.6963 21.3805 21.0026 21.1915 21.1916C21.0197 21.3634 20.7509 21.379 20.5615 21.2385L20.5072 21.1916L16.3333 17.0183L12.1593 21.1916L12.105 21.2385C11.9156 21.379 11.6468 21.3634 11.475 21.1916C11.286 21.0026 11.286 20.6963 11.475 20.5073L15.6483 16.3333L11.475 12.1593C11.286 11.9704 11.286 11.664 11.475 11.4751C11.6468 11.3033 11.9156 11.2876 12.105 11.4282L12.1593 11.4751L16.3333 15.6483L20.5072 11.4751L20.5615 11.4282Z" fill="white"/>
</svg>
