<svg width="4" height="19" viewBox="0 0 4 19" fill="none" xmlns="http://www.w3.org/2000/svg">
<path fill-rule="evenodd" clip-rule="evenodd" d="M2 7.80563C3.10556 7.80563 4 8.7145 4 9.83789C4 10.9613 3.10556 11.8701 2 11.8701C0.894444 11.8701 0 10.9613 0 9.83789C0 8.7145 0.894444 7.80563 2 7.80563ZM0 2.87015C0 3.99354 0.894444 4.90241 2 4.90241C3.10556 4.90241 4 3.99354 4 2.87015C4 1.74676 3.10556 0.837891 2 0.837891C0.894444 0.837891 0 1.74676 0 2.87015ZM0 16.8056C0 17.929 0.894444 18.8379 2 18.8379C3.10556 18.8379 4 17.929 4 16.8056C4 15.6822 3.10556 14.7734 2 14.7734C0.894444 14.7734 0 15.6822 0 16.8056Z" fill="#E5EBED"/>
</svg>
