<svg width="16" height="17" viewBox="0 0 16 17" fill="none" xmlns="http://www.w3.org/2000/svg">
<path fill-rule="evenodd" clip-rule="evenodd" d="M14.7652 0.989686C15.0683 0.764804 15.4984 0.789791 15.7732 1.06465C16.0756 1.36699 16.0756 1.85718 15.7732 2.15952L9.096 8.83789L15.7732 15.5163C16.0756 15.8186 16.0756 16.3088 15.7732 16.6111C15.4984 16.886 15.0683 16.911 14.7652 16.6861L14.6784 16.6111L8 9.93389L1.32163 16.6111L1.2348 16.6861C0.931717 16.911 0.501612 16.886 0.226756 16.6111C-0.0755854 16.3088 -0.0755854 15.8186 0.226756 15.5163L6.904 8.83789L0.226756 2.15952C-0.0755854 1.85718 -0.0755854 1.36699 0.226756 1.06465C0.501612 0.789791 0.931717 0.764804 1.2348 0.989686L1.32163 1.06465L8 7.74189L14.6784 1.06465L14.7652 0.989686Z" fill="#C1C6C9"/>
</svg>
