<svg width="50" height="49" viewBox="0 0 50 49" fill="none" xmlns="http://www.w3.org/2000/svg">
<path d="M49.0703 9.50024C49.0703 12.0198 48.0694 14.4362 46.2878 16.2178C44.5062 17.9994 42.0899 19.0002 39.5703 19.0002C37.0508 19.0002 34.6344 17.9994 32.8528 16.2178C31.0712 14.4362 30.0703 12.0198 30.0703 9.50024C30.0703 6.98069 31.0712 4.56433 32.8528 2.78273C34.6344 1.00113 37.0508 0.000244141 39.5703 0.000244141C42.0899 0.000244141 44.5062 1.00113 46.2878 2.78273C48.0694 4.56433 49.0703 6.98069 49.0703 9.50024ZM40.6259 5.27802C40.6259 4.99807 40.5147 4.72959 40.3167 4.53163C40.1187 4.33368 39.8503 4.22247 39.5703 4.22247C39.2904 4.22247 39.0219 4.33368 38.8239 4.53163C38.626 4.72959 38.5148 4.99807 38.5148 5.27802V8.44469H35.3481C35.0681 8.44469 34.7997 8.5559 34.6017 8.75385C34.4037 8.95181 34.2925 9.22029 34.2925 9.50024C34.2925 9.7802 34.4037 10.0487 34.6017 10.2466C34.7997 10.4446 35.0681 10.5558 35.3481 10.5558H38.5148V13.7225C38.5148 14.0024 38.626 14.2709 38.8239 14.4689C39.0219 14.6668 39.2904 14.778 39.5703 14.778C39.8503 14.778 40.1187 14.6668 40.3167 14.4689C40.5147 14.2709 40.6259 14.0024 40.6259 13.7225V10.5558H43.7925C44.0725 10.5558 44.341 10.4446 44.5389 10.2466C44.7369 10.0487 44.8481 9.7802 44.8481 9.50024C44.8481 9.22029 44.7369 8.95181 44.5389 8.75385C44.341 8.5559 44.0725 8.44469 43.7925 8.44469H40.6259V5.27802Z" fill="#C1C6C9"/>
<path fill-rule="evenodd" clip-rule="evenodd" d="M47.5115 20.1706C49.0694 27.8095 46.8914 36.0653 40.9776 41.9791C36.3884 46.5705 30.2092 49.0002 23.9496 49.0002C20.5373 49.0002 17.1027 48.2789 13.8891 46.7916L13.869 46.7835C12.9297 46.4069 12.0512 46.0547 11.4192 46.0547C10.6867 46.0591 9.70191 46.3986 8.75058 46.7269L8.74762 46.7279C6.79633 47.3977 4.36817 48.2311 2.57137 46.441C0.780357 44.6478 1.60663 42.2248 2.27212 40.2752C2.6004 39.3149 2.93761 38.3234 2.93761 37.5731C2.93761 36.9567 2.6406 36.1706 2.18503 35.0384C-1.99772 26.0052 -0.0637862 15.1184 7.03103 8.02807C11.5599 3.49694 17.5873 1.00024 24.0032 1.00024C25.1558 1.00024 26.296 1.08075 27.4172 1.23911C26.7614 2.22191 26.2265 3.29236 25.834 4.42915C25.2295 4.37657 24.6196 4.35002 24.0054 4.35002C18.4828 4.35002 13.2951 6.49834 9.3982 10.3975C3.29269 16.4985 1.6312 25.8667 5.26012 33.7119C5.78268 35.0049 6.28738 36.2644 6.28738 37.5731C6.28738 38.8761 5.84081 40.1881 5.44628 41.3471L5.44324 41.3561L5.43999 41.3656C5.11393 42.3214 4.62471 43.7556 4.94077 44.0716C5.24462 44.3864 6.6419 43.9073 7.59939 43.579L7.66079 43.558L7.70277 43.5436C8.84256 43.154 10.1308 42.7137 11.4081 42.7049C12.7033 42.7049 13.9249 43.1962 15.2179 43.7165C23.139 47.379 32.5072 45.713 38.6105 39.6119C43.4159 34.8038 45.3538 28.1977 44.424 21.9403C45.532 21.4814 46.5684 20.8844 47.5115 20.1706ZM35.0528 25.9286C35.0528 24.6936 34.0523 23.6954 32.8196 23.6954H32.7995C31.5668 23.6954 30.5775 24.6936 30.5775 25.9286C30.5775 27.1635 31.5869 28.1618 32.8196 28.1618C34.0523 28.1618 35.0528 27.1635 35.0528 25.9286ZM26.1004 25.9286C26.1004 24.6936 25.0999 23.6954 23.8672 23.6954H23.8471C22.6122 23.6954 21.6251 24.6936 21.6251 25.9286C21.6251 27.1635 22.6345 28.1618 23.8672 28.1618C25.0999 28.1618 26.1004 27.1635 26.1004 25.9286ZM17.1471 25.9286C17.1471 24.6936 16.1467 23.6954 14.9139 23.6954H14.8938C13.6611 23.6954 12.6718 24.6936 12.6718 25.9286C12.6718 27.1635 13.6812 28.1618 14.9139 28.1618C16.1467 28.1618 17.1471 27.1635 17.1471 25.9286Z" fill="#C1C6C9"/>
</svg>
