<svg width="26" height="26" viewBox="0 0 26 26" fill="none" xmlns="http://www.w3.org/2000/svg">
<path d="M21.9032 1H4.09677C2.38647 1 1 2.3674 1 4.05417V21.9458C1 23.6326 2.38647 25 4.09677 25H21.9032C23.6135 25 25 23.6326 25 21.9458V4.05417C25 2.3674 23.6135 1 21.9032 1Z" stroke="#899296"/>
<g clip-path="url(#clip0_13712_8321)">
<path fill-rule="evenodd" clip-rule="evenodd" d="M13.9495 8.19922C13.9701 8.19922 13.9903 8.20095 14.01 8.20429L14.0756 8.20469C14.1736 8.20469 14.2672 8.24453 14.3353 8.31509L16.7665 10.8481C16.8308 10.9148 16.8669 11.0045 16.8669 11.0972V15.4968C16.8755 16.7012 15.9376 17.6852 14.7313 17.7341L10.8822 17.7346H10.8299C9.65391 17.708 8.71076 16.757 8.68203 15.5925L8.68188 10.3546C8.70972 9.16373 9.69324 8.20469 10.8755 8.20469L13.889 8.20429C13.9086 8.20095 13.9288 8.19922 13.9495 8.19922ZM13.5894 8.9245L10.8764 8.92469C10.0811 8.92469 9.4206 9.56885 9.40188 10.3633V15.4968C9.38412 16.3191 10.0321 16.9964 10.8462 17.0146H14.7169C15.518 16.9815 16.1526 16.3157 16.1469 15.4997L16.1468 11.5511L15.1821 11.5515C14.3037 11.5491 13.5895 10.833 13.5895 9.95554L13.5894 8.9245ZM13.8598 14.2511C14.0585 14.2511 14.2198 14.4124 14.2198 14.6111C14.2198 14.8098 14.0585 14.9711 13.8598 14.9711H11.2678C11.0691 14.9711 10.9078 14.8098 10.9078 14.6111C10.9078 14.4124 11.0691 14.2511 11.2678 14.2511H13.8598ZM12.8782 12.4501C13.077 12.4501 13.2382 12.6114 13.2382 12.8101C13.2382 13.0089 13.077 13.1701 12.8782 13.1701H11.2674C11.0686 13.1701 10.9074 13.0089 10.9074 12.8101C10.9074 12.6114 11.0686 12.4501 11.2674 12.4501H12.8782ZM14.3094 9.32818L14.3095 9.95554C14.3095 10.4375 14.7016 10.8301 15.1831 10.8315L15.7523 10.8311L14.3094 9.32818Z" fill="#899296"/>
</g>
<defs>
<clipPath id="clip0_13712_8321">
<rect width="9.6" height="9.6" fill="white" transform="translate(8.19995 8.19922)"/>
</clipPath>
</defs>
</svg>
