<svg width="16" height="13" viewBox="0 0 16 13" fill="none" xmlns="http://www.w3.org/2000/svg">
<path fill-rule="evenodd" clip-rule="evenodd" d="M14.7336 0.165381C14.968 0.385889 14.968 0.743368 14.7336 0.963876L2.11467 12.8344C1.99788 12.9451 1.84428 13 1.69068 13C1.53709 13 1.38349 12.9451 1.26669 12.8344C1.0323 12.6139 1.0323 12.2572 1.26669 12.0367L2.84421 10.5535C1.71319 9.58031 0.753756 8.2684 0.0491989 6.72358C-0.0163996 6.58058 -0.0163996 6.41953 0.0491989 6.27729C0.865981 4.49818 2.01635 3.02536 3.37632 2.01915C6.01053 0.0579484 9.47363 -0.0461528 12.2147 1.73718L13.8856 0.165381C14.12 -0.055127 14.4992 -0.055127 14.7336 0.165381ZM14.4374 3.7936C15.0166 4.51684 15.5254 5.35296 15.9502 6.27563C16.0166 6.41863 16.0166 6.58119 15.9502 6.72342C14.2734 10.3787 11.3015 12.5605 7.99998 12.5605C7.2504 12.5605 6.50481 12.4461 5.78483 12.2211C5.47044 12.1225 5.30004 11.8026 5.40484 11.5069C5.50964 11.2103 5.84803 11.0531 6.16402 11.1494C6.76161 11.3368 7.37919 11.4316 7.99998 11.4316C10.7423 11.4316 13.2487 9.59379 14.7438 6.49991C14.379 5.74807 13.9542 5.06698 13.4791 4.47244C13.2799 4.22333 13.3327 3.86886 13.5975 3.68147C13.8614 3.49407 14.2382 3.54525 14.4374 3.7936ZM4.11951 2.9057C2.97073 3.75612 1.98436 4.99488 1.25637 6.50156C1.89111 7.82043 2.725 8.93269 3.69356 9.75406L5.40376 8.14533C5.05583 7.66374 4.86861 7.09591 4.86861 6.50126C4.86861 4.87567 6.27338 3.55338 7.99974 3.55338C8.62611 3.55338 9.23883 3.7328 9.74896 4.05708L11.3501 2.55086C9.06793 1.16291 6.29025 1.28953 4.11951 2.9057ZM10.5898 6.36805C10.9162 6.42299 11.1329 6.7165 11.0746 7.02356C10.845 8.22243 9.83538 9.1737 8.56181 9.39195C8.52581 9.39797 8.48901 9.40098 8.45381 9.40098C8.16982 9.40098 7.91702 9.20982 7.86422 8.93738C7.80503 8.63108 8.02102 8.33682 8.34741 8.28113C9.13139 8.14717 9.75218 7.56166 9.89298 6.82337C9.95218 6.51707 10.2642 6.31537 10.5898 6.36805ZM7.99974 4.68226C6.93496 4.68226 6.06858 5.49806 6.06858 6.50126C6.06858 6.79129 6.14116 7.07126 6.27798 7.32268L8.87443 4.87977C8.60712 4.75162 8.30645 4.68226 7.99974 4.68226Z" fill="#899296"/>
</svg>
