<svg xmlns="http://www.w3.org/2000/svg" width="59" height="14" viewBox="0 0 59 14">
    <g fill="none" fill-rule="evenodd">
        <g fill="#FEA216" fill-rule="nonzero">
            <g>
                <g>
                    <g>
                        <g>
                            <g>
                                <path d="M21.546 3.94h-3.941l-1.2-3.573c-.031-.083-.086-.155-.16-.206-.072-.05-.158-.078-.247-.078-.09 0-.175.028-.248.078-.073.05-.128.123-.16.206l-1.2 3.573h-3.96c-.114 0-.223.045-.303.126-.081.08-.126.189-.126.303 0 .024.003.048.008.072.006.06.025.118.056.17.03.051.073.096.123.13l3.238 2.282-1.242 3.616c-.03.085-.031.178-.005.264.027.087.08.163.152.218.067.058.152.093.24.1.098-.008.19-.043.269-.1L16 8.877l3.162 2.253c.078.058.17.093.268.1.088-.005.172-.04.238-.1.073-.054.126-.13.153-.217.026-.087.024-.18-.006-.265l-1.243-3.613 3.212-2.3.078-.067c.065-.058.11-.135.129-.22.019-.085.01-.174-.025-.254-.036-.08-.095-.146-.171-.189-.075-.044-.162-.062-.25-.052V3.94zM34.546 3.94h-3.941l-1.2-3.573c-.031-.083-.086-.155-.16-.206-.072-.05-.158-.078-.247-.078-.09 0-.175.028-.248.078-.073.05-.128.123-.16.206l-1.2 3.573h-3.96c-.114 0-.223.045-.303.126-.081.08-.126.189-.126.303 0 .024.003.048.008.072.006.06.025.118.056.17.03.051.073.096.123.13l3.238 2.282-1.242 3.616c-.03.085-.031.178-.005.264.027.087.08.163.152.218.067.058.152.093.24.1.098-.008.19-.043.269-.1L29 8.877l3.162 2.253c.078.058.17.093.268.1.088-.005.172-.04.238-.1.073-.054.126-.13.153-.217.026-.087.024-.18-.006-.265l-1.243-3.613 3.212-2.3.078-.067c.065-.058.11-.135.129-.22.019-.085.01-.174-.025-.254-.036-.08-.095-.146-.171-.189-.075-.044-.162-.062-.25-.052V3.94zM47.546 3.94h-3.941l-1.2-3.573c-.031-.083-.086-.155-.16-.206-.072-.05-.158-.078-.247-.078-.09 0-.175.028-.248.078-.073.05-.128.123-.16.206l-1.2 3.573h-3.96c-.114 0-.223.045-.303.126-.081.08-.126.189-.126.303 0 .024.003.048.008.072.006.06.025.118.056.17.03.051.073.096.123.13l3.238 2.282-1.242 3.616c-.03.085-.031.178-.005.264.027.087.08.163.152.218.067.058.152.093.24.1.098-.008.19-.043.269-.1L42 8.877l3.162 2.253c.078.058.17.093.268.1.088-.005.172-.04.238-.1.073-.054.126-.13.153-.217.026-.087.024-.18-.006-.265l-1.243-3.613 3.212-2.3.078-.067c.065-.058.11-.135.129-.22.019-.085.01-.174-.025-.254-.036-.08-.095-.146-.171-.189-.075-.044-.162-.062-.25-.052V3.94zM7.028 13.198c-.028 0-.055-.006-.081-.016-1.07-.507-1.993-1.276-2.684-2.237-.691-.96-1.128-2.08-1.27-3.254-.154-.918-.105-1.86.142-2.757.248-.897.689-1.73 1.293-2.438-.027-.583.168-1.155.545-1.6.629-.442 1.345-.746 2.1-.891.035-.008.072-.006.106.004s.065.03.09.055c.025.026.043.058.053.093.009.034.01.07 0 .106-.17.75-.497 1.456-.96 2.07-.471.37-1.065.545-1.661.49-.542.668-.936 1.443-1.157 2.273-.222.831-.265 1.7-.127 2.548.132 1.099.54 2.147 1.186 3.047.645.899 1.508 1.62 2.508 2.097.046.018.084.052.108.095.024.044.03.095.022.143-.01.049-.037.093-.075.124-.04.031-.087.047-.137.047h-.001zM2.914 12.092c-.634-.079-1.247-.276-1.808-.582-.033-.018-.061-.044-.08-.075-.02-.032-.031-.068-.032-.105-.002-.037.007-.074.024-.107.018-.033.043-.06.075-.08.549-.357 1.163-.6 1.807-.715.529.033 1.027.26 1.4.638.037.037.059.088.06.14.003.053-.015.105-.05.146-.343.404-.824.667-1.35.739h-.046z" transform="translate(-4966 -2299) translate(3057 2204) translate(1789 52) translate(16 16) translate(104 25) translate(0 2)"/>
                                <path d="M4.822 10.764c-.035 0-.07-.009-.1-.025-.03-.017-.057-.04-.076-.07-.275-.401-.383-.894-.3-1.374.252-.533.62-1.002 1.076-1.374.027-.024.059-.04.094-.047.034-.008.07-.007.104.003.034.01.065.029.09.054.025.025.044.056.054.09.177.561.226 1.155.145 1.739-.193.445-.552.798-1 .985-.027.012-.057.018-.087.019zM2.023 9.712c-.146 0-.292-.021-.431-.065-.59-.292-1.112-.7-1.538-1.2-.025-.028-.042-.062-.05-.098-.007-.036-.004-.074.007-.11.012-.034.032-.066.06-.09.027-.025.06-.043.097-.05.639-.151 1.3-.171 1.948-.06.488.218.878.61 1.092 1.1.02.048.024.102.007.152-.016.05-.05.092-.095.118-.337.185-.713.289-1.097.303zM3.718 8.037h-.02c-.05-.002-.1-.021-.136-.055-.038-.034-.063-.08-.07-.131-.06-.476.062-.957.343-1.346.449-.374.973-.647 1.536-.8.035-.01.072-.012.107-.004.036.008.069.025.096.05.027.024.047.055.059.09.01.034.014.07.007.107-.094.575-.311 1.124-.636 1.609-.352.317-.812.49-1.286.48zM2.57 7.112c-.516.016-1.021-.162-1.412-.5-.378-.54-.64-1.154-.77-1.8-.007-.036-.005-.073.005-.108.01-.034.03-.066.057-.09.026-.026.058-.044.094-.053.035-.009.072-.009.107 0 .64.16 1.24.453 1.763.858.326.428.477.964.424 1.5-.005.05-.028.097-.065.132-.036.035-.084.056-.135.059l-.067.002zM4.845 5.103c-.355-.016-.701-.119-1.007-.3-.045-.028-.078-.072-.092-.123-.015-.05-.01-.105.014-.152.21-.422.57-.752 1.01-.924.572-.08 1.153-.043 1.71.107.037.009.07.027.097.053.026.026.046.059.056.094.01.036.01.074 0 .11-.008.036-.026.069-.052.096-.396.42-.872.758-1.4.992-.11.03-.222.046-.336.047zM3.104 4.467c-.026 0-.052-.005-.076-.014-.504-.194-.916-.572-1.152-1.057-.125-.65-.112-1.318.037-1.962.007-.036.024-.069.048-.096.024-.028.054-.048.089-.06.034-.013.07-.016.106-.01.036.006.07.022.098.045.52.406.952.917 1.264 1.5.123.525.04 1.078-.23 1.546-.018.032-.044.06-.077.079-.032.019-.07.029-.107.029zM51.174 13.198c.028 0 .055-.006.08-.016 1.07-.507 1.994-1.276 2.685-2.237.69-.96 1.128-2.08 1.269-3.254.155-.918.107-1.859-.14-2.756-.248-.897-.688-1.73-1.291-2.438.027-.583-.168-1.155-.545-1.6-.63-.442-1.345-.746-2.1-.891-.035-.008-.072-.006-.106.004s-.065.03-.09.055c-.025.026-.043.058-.053.093-.01.034-.01.07-.001.106.17.75.498 1.456.96 2.07.472.37 1.066.545 1.662.49.54.668.936 1.442 1.157 2.273.22.83.264 1.698.127 2.547-.132 1.099-.54 2.147-1.186 3.047-.646.899-1.508 1.62-2.508 2.097-.046.018-.084.052-.108.095-.024.044-.031.095-.022.143.01.049.037.093.075.124.039.031.087.048.137.047h-.002zM55.289 12.09c.634-.078 1.247-.275 1.808-.581.033-.018.06-.044.08-.075.02-.032.03-.068.032-.105.002-.037-.007-.074-.024-.107-.018-.033-.043-.06-.075-.08-.55-.357-1.163-.6-1.807-.715-.53.033-1.027.26-1.4.638-.037.037-.06.088-.061.14-.002.053.016.105.05.146.344.404.825.667 1.35.739h.047z" transform="translate(-4966 -2299) translate(3057 2204) translate(1789 52) translate(16 16) translate(104 25) translate(0 2)"/>
                                <path d="M53.38 10.764c.036 0 .07-.009.1-.025.03-.017.058-.04.077-.07.275-.401.383-.894.3-1.374-.252-.533-.62-1.002-1.076-1.374-.027-.024-.06-.04-.094-.047-.034-.008-.07-.007-.104.003-.034.01-.065.029-.09.054-.026.025-.044.056-.054.09-.177.561-.226 1.155-.145 1.739.193.445.552.798 1 .985.027.012.057.018.087.019zM56.177 9.712c.146 0 .292-.021.43-.065.589-.292 1.113-.7 1.539-1.2.025-.028.04-.062.049-.098.007-.036.005-.074-.006-.11-.012-.034-.032-.066-.06-.09-.027-.025-.061-.043-.097-.05-.64-.151-1.301-.171-1.948-.06-.488.218-.878.61-1.092 1.1-.021.048-.024.102-.008.152.017.05.05.092.096.118.337.185.713.289 1.097.303zM54.486 8.037h.019c.05-.002.1-.021.137-.055.038-.034.062-.08.069-.131.06-.476-.061-.957-.342-1.346-.45-.374-.973-.647-1.536-.8-.035-.01-.072-.012-.108-.004-.035.008-.068.025-.095.05-.027.024-.047.055-.06.09-.01.034-.013.07-.006.107.094.575.31 1.124.636 1.609.352.317.812.49 1.286.48zM55.637 7.112c.517.016 1.022-.162 1.413-.5.378-.54.64-1.154.769-1.8.008-.036.006-.073-.004-.108-.011-.034-.03-.066-.057-.09-.026-.026-.058-.044-.094-.053-.035-.009-.072-.009-.107 0-.641.16-1.241.453-1.763.858-.326.428-.477.964-.424 1.5.005.05.028.097.065.132.036.035.084.056.135.059l.067.002zM53.362 5.103c.353-.016.696-.12 1-.3.045-.027.078-.07.092-.122.015-.05.01-.105-.014-.152-.211-.422-.571-.752-1.01-.924-.572-.08-1.154-.043-1.711.107-.036.009-.07.027-.096.053-.026.026-.046.058-.056.094-.01.036-.01.074-.001.11.009.036.027.069.053.096.396.42.872.758 1.4.992.112.03.227.046.343.046zM55.098 4.467c.026 0 .052-.005.076-.014.504-.194.916-.572 1.152-1.057.125-.65.112-1.318-.037-1.962-.007-.036-.024-.069-.048-.096-.024-.028-.054-.048-.09-.06-.033-.013-.07-.016-.105-.01-.036.006-.07.022-.098.045-.521.406-.952.917-1.264 1.5-.123.525-.041 1.078.229 1.546.018.032.045.06.078.079.032.019.069.029.107.029z" transform="translate(-4966 -2299) translate(3057 2204) translate(1789 52) translate(16 16) translate(104 25) translate(0 2)"/>
                            </g>
                        </g>
                    </g>
                </g>
            </g>
        </g>
    </g>
</svg>
