<svg width="46" height="14" viewBox="0 0 46 14" fill="none" xmlns="http://www.w3.org/2000/svg">
<path d="M21.5455 3.93969H17.6045L16.4045 0.366685C16.3738 0.283545 16.3183 0.211825 16.2455 0.161175C16.1727 0.110525 16.0862 0.083374 15.9975 0.083374C15.9089 0.083374 15.8224 0.110525 15.7496 0.161175C15.6768 0.211825 15.6213 0.283545 15.5905 0.366685L14.3905 3.93969H10.4295C10.3158 3.93995 10.2069 3.98524 10.1265 4.06563C10.0461 4.14603 10.0008 4.25499 10.0005 4.36869C10.0005 4.39292 10.0031 4.41708 10.0085 4.44069C10.0146 4.50075 10.0337 4.55876 10.0647 4.6106C10.0956 4.66244 10.1375 4.70685 10.1875 4.74069L13.4255 7.02269L12.1835 10.6387C12.1542 10.7243 12.1526 10.817 12.179 10.9035C12.2054 10.99 12.2584 11.066 12.3305 11.1207C12.398 11.1791 12.4825 11.2142 12.5715 11.2207C12.6684 11.2128 12.7612 11.1782 12.8395 11.1207L16.0005 8.87669L19.1615 11.1297C19.2392 11.1884 19.3324 11.2232 19.4295 11.2297C19.518 11.2248 19.6021 11.1894 19.6675 11.1297C19.7403 11.0756 19.7937 10.9996 19.8202 10.9128C19.8466 10.8261 19.8447 10.7332 19.8145 10.6477L18.5715 7.03469L21.7835 4.73469L21.8615 4.66769C21.9269 4.61007 21.9721 4.53314 21.9908 4.44806C22.0094 4.36298 22.0005 4.27417 21.9653 4.1945C21.9301 4.11483 21.8704 4.04845 21.795 4.00497C21.7195 3.96149 21.6321 3.94318 21.5455 3.95269V3.93969Z" fill="#FEA216"/>
<path d="M34.5455 3.93969H30.6045L29.4045 0.366685C29.3738 0.283545 29.3183 0.211825 29.2455 0.161175C29.1727 0.110525 29.0862 0.083374 28.9975 0.083374C28.9089 0.083374 28.8224 0.110525 28.7496 0.161175C28.6768 0.211825 28.6213 0.283545 28.5905 0.366685L27.3905 3.93969H23.4295C23.3158 3.93995 23.2069 3.98524 23.1265 4.06563C23.0461 4.14603 23.0008 4.25499 23.0005 4.36869C23.0005 4.39292 23.0031 4.41708 23.0085 4.44069C23.0146 4.50075 23.0337 4.55876 23.0647 4.6106C23.0956 4.66244 23.1375 4.70685 23.1875 4.74069L26.4255 7.02269L25.1835 10.6387C25.1542 10.7243 25.1526 10.817 25.179 10.9035C25.2054 10.99 25.2584 11.066 25.3305 11.1207C25.398 11.1791 25.4825 11.2142 25.5715 11.2207C25.6684 11.2128 25.7612 11.1782 25.8395 11.1207L29.0005 8.87669L32.1615 11.1297C32.2392 11.1884 32.3324 11.2232 32.4295 11.2297C32.518 11.2248 32.6021 11.1894 32.6675 11.1297C32.7403 11.0756 32.7937 10.9996 32.8202 10.9128C32.8466 10.8261 32.8447 10.7332 32.8145 10.6477L31.5715 7.03469L34.7835 4.73469L34.8615 4.66769C34.9269 4.61007 34.9721 4.53314 34.9908 4.44806C35.0094 4.36298 35.0005 4.27417 34.9653 4.1945C34.9301 4.11483 34.8704 4.04845 34.795 4.00497C34.7195 3.96149 34.6321 3.94318 34.5455 3.95269V3.93969Z" fill="#FEA216"/>
<path d="M7.02746 13.1977C6.99966 13.1977 6.97216 13.1923 6.94646 13.1817C5.87726 12.6751 4.95386 11.9057 4.26256 10.9455C3.57126 9.98518 3.13466 8.8654 2.99346 7.69065C2.83896 6.77254 2.88736 5.83175 3.13506 4.9343C3.38276 4.03685 3.82386 3.20449 4.42746 2.49565C4.40066 1.91263 4.59536 1.34103 4.97246 0.895646C5.60166 0.453645 6.31746 0.149977 7.07246 0.00464607C7.10766 -0.00282993 7.14406 -0.00126393 7.17846 0.00920107C7.21276 0.0196651 7.24386 0.0386841 7.26886 0.0644721C7.29386 0.0902601 7.31186 0.121972 7.32126 0.156635C7.33066 0.191298 7.33106 0.227776 7.32246 0.262645C7.15216 1.01314 6.82456 1.71899 6.36146 2.33365C5.89046 2.70265 5.29636 2.87792 4.70046 2.82365C4.15896 3.49124 3.76456 4.26575 3.54326 5.09641C3.32206 5.92707 3.27886 6.79512 3.41646 7.64365C3.54836 8.74304 3.95626 9.79121 4.60206 10.6906C5.24796 11.59 6.11086 12.3114 7.11046 12.7877C7.15666 12.806 7.19486 12.8399 7.21856 12.8835C7.24226 12.9272 7.24986 12.9777 7.24016 13.0264C7.23036 13.075 7.20386 13.1187 7.16516 13.1499C7.12646 13.181 7.07816 13.1975 7.02846 13.1967L7.02746 13.1977Z" fill="#FEA216"/>
<path d="M2.91355 12.0916C2.27965 12.0131 1.66625 11.8156 1.10555 11.5096C1.07265 11.4922 1.04495 11.4664 1.02515 11.4348C1.00545 11.4033 0.99435 11.3671 0.99305 11.3299C0.99175 11.2927 1.00025 11.2558 1.01765 11.2229C1.03515 11.1901 1.06095 11.1624 1.09255 11.1426C1.64125 10.7864 2.25555 10.5433 2.89955 10.4276C3.42865 10.4613 3.92695 10.6883 4.29955 11.0656C4.33675 11.1033 4.35855 11.1536 4.36055 11.2065C4.36265 11.2594 4.34475 11.3112 4.31055 11.3516C3.96655 11.7559 3.48545 12.019 2.95955 12.0906L2.91355 12.0916Z" fill="#FEA216"/>
<path d="M4.8215 10.7636C4.7867 10.7636 4.7524 10.755 4.7217 10.7386C4.691 10.7222 4.6649 10.6985 4.6455 10.6696C4.3705 10.2677 4.2629 9.77452 4.3455 9.29461C4.5977 8.76244 4.9653 8.29309 5.4215 7.92062C5.4483 7.89742 5.4805 7.8813 5.5151 7.87376C5.5497 7.86621 5.5857 7.86747 5.6197 7.87742C5.6538 7.88737 5.6847 7.90569 5.7099 7.9307C5.735 7.95572 5.7534 7.98663 5.7635 8.02062C5.9402 8.58236 5.9897 9.17637 5.9085 9.75962C5.7153 10.2051 5.3568 10.5583 4.9085 10.7446C4.8812 10.7571 4.8515 10.7635 4.8215 10.7636Z" fill="#FEA216"/>
<path d="M2.02251 9.71166C1.87631 9.71288 1.73081 9.69094 1.59151 9.64666C1.00291 9.35474 0.479707 8.94652 0.0535065 8.44666C0.0289065 8.41896 0.0120065 8.38529 0.00440653 8.34901C-0.00309347 8.31274 -0.000993474 8.27513 0.0105065 8.23993C0.0221065 8.20473 0.0426065 8.17316 0.0702065 8.14837C0.0977065 8.12358 0.131207 8.10645 0.167507 8.09866C0.806107 7.94764 1.46881 7.92757 2.11551 8.03966C2.60381 8.25748 2.99321 8.64976 3.20751 9.13966C3.22851 9.18747 3.23121 9.24135 3.21491 9.29099C3.19871 9.34064 3.16471 9.38254 3.11951 9.40866C2.78251 9.59405 2.40681 9.69784 2.02251 9.71166Z" fill="#FEA216"/>
<path d="M3.71743 8.03658H3.69843C3.64753 8.03532 3.59873 8.01587 3.56093 7.98174C3.52313 7.94762 3.49883 7.90109 3.49243 7.85059C3.43133 7.37477 3.55363 6.89355 3.83443 6.50459C4.28323 6.131 4.80703 5.85817 5.37043 5.70458C5.40533 5.69414 5.44233 5.69286 5.47783 5.70088C5.51343 5.7089 5.54633 5.72594 5.57333 5.75037C5.60033 5.77479 5.62063 5.80576 5.63223 5.84031C5.64383 5.87485 5.64623 5.9118 5.63943 5.94759C5.54513 6.52329 5.32823 7.072 5.00343 7.55659C4.65143 7.87443 4.19153 8.04609 3.71743 8.03658Z" fill="#FEA216"/>
<path d="M2.57039 7.11167C2.05329 7.12844 1.54889 6.94994 1.15739 6.61167C0.779086 6.07148 0.517186 5.4585 0.388386 4.81167C0.380686 4.77614 0.382186 4.7392 0.392786 4.70442C0.403486 4.66964 0.422886 4.63818 0.449186 4.61307C0.475486 4.58796 0.507886 4.57004 0.543086 4.56104C0.578286 4.55204 0.615286 4.55226 0.650386 4.56167C1.29119 4.72187 1.89159 5.01373 2.41339 5.41867C2.73929 5.84709 2.89079 6.38305 2.83739 6.91867C2.83249 6.96917 2.80959 7.01623 2.77289 7.05128C2.73619 7.08632 2.68809 7.10704 2.63739 7.10967L2.57039 7.11167Z" fill="#FEA216"/>
<path d="M4.84439 5.10259C4.48909 5.08746 4.14309 4.98438 3.83739 4.80259C3.79249 4.77474 3.75949 4.7311 3.74509 4.68022C3.73069 4.62934 3.73579 4.5749 3.75939 4.52759C3.97059 4.10555 4.33029 3.77647 4.76939 3.60359C5.34119 3.52449 5.92299 3.56087 6.48039 3.71059C6.51649 3.71975 6.54939 3.73821 6.57609 3.76413C6.60269 3.79005 6.62199 3.82252 6.63219 3.85827C6.64229 3.89403 6.64289 3.93182 6.63379 3.96785C6.62469 4.00389 6.60629 4.03691 6.58039 4.06359C6.18479 4.4845 5.70869 4.82181 5.18039 5.05559C5.07109 5.08659 4.95809 5.10241 4.84439 5.10259Z" fill="#FEA216"/>
<path d="M3.10347 4.46661C3.07747 4.46661 3.05167 4.46187 3.02747 4.45261C2.52317 4.2593 2.11127 3.88141 1.87547 3.39561C1.75087 2.74618 1.76347 2.07788 1.91247 1.43361C1.91987 1.39807 1.93637 1.36504 1.96027 1.33769C1.98427 1.31035 2.01477 1.28961 2.04897 1.27747C2.08327 1.26532 2.11997 1.26217 2.15577 1.26833C2.19157 1.27448 2.22517 1.28973 2.25347 1.31261C2.77467 1.71905 3.20527 2.22998 3.51747 2.81261C3.64017 3.33833 3.55827 3.89104 3.28847 4.35861C3.26997 4.39142 3.24307 4.41872 3.21057 4.4377C3.17807 4.45668 3.14107 4.46665 3.10347 4.46661Z" fill="#FEA216"/>
<path d="M38.1734 13.1976C38.2011 13.1976 38.2287 13.1923 38.2544 13.1816C39.3236 12.6751 40.247 11.9057 40.9383 10.9455C41.6296 9.98518 42.0662 8.86538 42.2074 7.69062C42.3621 6.77289 42.3142 5.83242 42.067 4.93517C41.8198 4.03791 41.3793 3.20561 40.7764 2.49663C40.8032 1.91361 40.6085 1.34201 40.2314 0.896626C39.6021 0.454621 38.8864 0.150954 38.1314 0.00562233C38.0962 -0.00185367 38.0598 -0.000286672 38.0254 0.0101773C37.9911 0.0206423 37.96 0.0396603 37.935 0.0654483C37.91 0.0912373 37.892 0.122949 37.8826 0.157611C37.8732 0.192274 37.8728 0.228753 37.8814 0.263622C38.0517 1.01412 38.3793 1.71996 38.8424 2.33463C39.3134 2.70363 39.9075 2.8789 40.5034 2.82463C41.0448 3.49209 41.4391 4.26644 41.6603 5.09691C41.8816 5.92739 41.9249 6.79525 41.7874 7.64363C41.6555 8.74302 41.2476 9.79119 40.6017 10.6906C39.9559 11.59 39.093 12.3114 38.0934 12.7876C38.0472 12.806 38.009 12.8399 37.9853 12.8835C37.9616 12.9271 37.954 12.9777 37.9637 13.0264C37.9735 13.075 38 13.1187 38.0387 13.1498C38.0774 13.181 38.1257 13.1976 38.1754 13.1966L38.1734 13.1976Z" fill="#FEA216"/>
<path d="M42.2886 12.0907C42.9225 12.0121 43.5359 11.8146 44.0966 11.5087C44.1294 11.4912 44.1571 11.4654 44.1769 11.4338C44.1966 11.4023 44.2077 11.3661 44.209 11.3289C44.2103 11.2917 44.2018 11.2548 44.1844 11.222C44.1669 11.1891 44.1411 11.1614 44.1096 11.1417C43.5608 10.7854 42.9465 10.5423 42.3026 10.4267C41.7734 10.4603 41.2751 10.6874 40.9026 11.0647C40.8653 11.1023 40.8436 11.1526 40.8415 11.2055C40.8395 11.2584 40.8573 11.3102 40.8916 11.3507C41.2356 11.7549 41.7166 12.018 42.2426 12.0897L42.2886 12.0907Z" fill="#FEA216"/>
<path d="M40.3806 10.7636C40.4154 10.7636 40.4496 10.755 40.4803 10.7386C40.511 10.7222 40.5372 10.6985 40.5566 10.6696C40.8315 10.2677 40.9391 9.77452 40.8566 9.29461C40.6043 8.76242 40.2368 8.29307 39.7806 7.92062C39.7538 7.89742 39.7216 7.8813 39.6869 7.87376C39.6523 7.86621 39.6163 7.86747 39.5823 7.87742C39.5483 7.88737 39.5173 7.90569 39.4922 7.9307C39.4671 7.95572 39.4486 7.98663 39.4386 8.02062C39.2619 8.58236 39.2123 9.17637 39.2936 9.75962C39.4867 10.2051 39.8452 10.5583 40.2936 10.7446C40.3209 10.7571 40.3505 10.7635 40.3806 10.7636Z" fill="#FEA216"/>
<path d="M43.1763 9.71166C43.3225 9.71288 43.468 9.69094 43.6073 9.64666C44.1958 9.35474 44.7191 8.94652 45.1453 8.44666C45.1699 8.41896 45.1868 8.38529 45.1944 8.34901C45.2019 8.31274 45.1998 8.27513 45.1882 8.23993C45.1767 8.20473 45.1562 8.17316 45.1286 8.14837C45.1011 8.12358 45.0676 8.10645 45.0313 8.09866C44.3926 7.94764 43.73 7.92757 43.0833 8.03966C42.595 8.25748 42.2056 8.64976 41.9913 9.13966C41.9703 9.18747 41.9676 9.24135 41.9839 9.29099C42.0001 9.34064 42.0341 9.38254 42.0793 9.40866C42.4163 9.59405 42.792 9.69784 43.1763 9.71166Z" fill="#FEA216"/>
<path d="M41.4853 8.03658H41.5043C41.5552 8.03532 41.604 8.01587 41.6418 7.98174C41.6796 7.94762 41.7039 7.90109 41.7103 7.85059C41.7714 7.37477 41.6491 6.89355 41.3683 6.50459C40.9195 6.131 40.3957 5.85817 39.8323 5.70458C39.7974 5.69414 39.7604 5.69286 39.7249 5.70088C39.6893 5.7089 39.6565 5.72594 39.6294 5.75037C39.6024 5.77479 39.5821 5.80576 39.5705 5.84031C39.559 5.87485 39.5565 5.9118 39.5633 5.94759C39.6576 6.52329 39.8745 7.072 40.1993 7.55659C40.5513 7.87443 41.0112 8.04609 41.4853 8.03658Z" fill="#FEA216"/>
<path d="M42.6364 7.11167C43.1534 7.12844 43.6579 6.94994 44.0494 6.61167C44.4277 6.07148 44.6896 5.4585 44.8184 4.81167C44.8261 4.77614 44.8246 4.7392 44.814 4.70442C44.8033 4.66964 44.7839 4.63818 44.7576 4.61307C44.7313 4.58796 44.6989 4.57004 44.6637 4.56104C44.6285 4.55204 44.5915 4.55226 44.5564 4.56167C43.9156 4.72187 43.3152 5.01373 42.7934 5.41867C42.4675 5.84709 42.316 6.38305 42.3694 6.91867C42.3743 6.96917 42.3972 7.01623 42.4339 7.05128C42.4706 7.08632 42.5187 7.10704 42.5694 7.10967L42.6364 7.11167Z" fill="#FEA216"/>
<path d="M40.3613 5.10257C40.7142 5.0866 41.0576 4.9839 41.3613 4.80357C41.4063 4.77572 41.4392 4.73207 41.4536 4.68119C41.4681 4.63031 41.463 4.57587 41.4393 4.52857C41.2282 4.10653 40.8684 3.77745 40.4293 3.60457C39.8576 3.52547 39.2758 3.56185 38.7183 3.71156C38.6823 3.72072 38.6493 3.73919 38.6227 3.76511C38.5961 3.79103 38.5767 3.82349 38.5666 3.85925C38.5565 3.895 38.5559 3.93279 38.565 3.96883C38.5741 4.00486 38.5925 4.03788 38.6183 4.06457C39.014 4.48548 39.4901 4.82279 40.0183 5.05657C40.1299 5.08787 40.2454 5.10336 40.3613 5.10257Z" fill="#FEA216"/>
<path d="M42.0976 4.46661C42.1236 4.46661 42.1493 4.46187 42.1736 4.45261C42.6778 4.2593 43.0897 3.88141 43.3256 3.39561C43.4502 2.74618 43.4376 2.07788 43.2886 1.43361C43.2811 1.39807 43.2646 1.36504 43.2407 1.33769C43.2168 1.31035 43.1863 1.28961 43.152 1.27747C43.1178 1.26532 43.081 1.26217 43.0452 1.26833C43.0094 1.27448 42.9758 1.28973 42.9476 1.31261C42.4263 1.71905 41.9958 2.22998 41.6836 2.81261C41.5609 3.33833 41.6427 3.89104 41.9126 4.35861C41.9311 4.39142 41.9579 4.41872 41.9904 4.4377C42.023 4.45668 42.0599 4.46665 42.0976 4.46661Z" fill="#FEA216"/>
</svg>
