<svg width="12" height="12" viewBox="0 0 12 12" fill="none" xmlns="http://www.w3.org/2000/svg">
<path d="M6 0C6.2387 0 6.46761 0.094821 6.6364 0.263604C6.80518 0.432387 6.9 0.661305 6.9 0.9V5.1H11.1C11.3387 5.1 11.5676 5.19482 11.7364 5.3636C11.9052 5.53239 12 5.76131 12 6C12 6.2387 11.9052 6.46761 11.7364 6.6364C11.5676 6.80518 11.3387 6.9 11.1 6.9H6.9V11.1C6.9 11.3387 6.80518 11.5676 6.6364 11.7364C6.46761 11.9052 6.2387 12 6 12C5.76131 12 5.53239 11.9052 5.3636 11.7364C5.19482 11.5676 5.1 11.3387 5.1 11.1V6.9H0.9C0.661305 6.9 0.432387 6.80518 0.263604 6.6364C0.094821 6.46761 0 6.2387 0 6C0 5.76131 0.094821 5.53239 0.263604 5.3636C0.432387 5.19482 0.661305 5.1 0.9 5.1H5.1V0.9C5.1 0.661305 5.19482 0.432387 5.3636 0.263604C5.53239 0.094821 5.76131 0 6 0Z" fill="#899296"/>
</svg>
