<svg width="25" height="3" viewBox="0 0 25 3" fill="none" xmlns="http://www.w3.org/2000/svg">
<path opacity="0.108" d="M1.21058 2.5403C1.8646 2.5403 2.39479 2.01011 2.39479 1.35609C2.39479 0.702064 1.8646 0.171875 1.21058 0.171875C0.556556 0.171875 0.0263672 0.702064 0.0263672 1.35609C0.0263672 2.01011 0.556556 2.5403 1.21058 2.5403Z" fill="#506383" fill-opacity="0.25"/>
<path opacity="0.399" d="M8.57899 2.5403C9.23301 2.5403 9.7632 2.01011 9.7632 1.35609C9.7632 0.702064 9.23301 0.171875 8.57899 0.171875C7.92496 0.171875 7.39478 0.702064 7.39478 1.35609C7.39478 2.01011 7.92496 2.5403 8.57899 2.5403Z" fill="#506383" fill-opacity="0.25"/>
<path opacity="0.702" d="M15.9474 2.5403C16.6014 2.5403 17.1316 2.01011 17.1316 1.35609C17.1316 0.702064 16.6014 0.171875 15.9474 0.171875C15.2934 0.171875 14.7632 0.702064 14.7632 1.35609C14.7632 2.01011 15.2934 2.5403 15.9474 2.5403Z" fill="#506383" fill-opacity="0.25"/>
<path d="M23.3158 2.5403C23.9698 2.5403 24.5 2.01011 24.5 1.35609C24.5 0.702064 23.9698 0.171875 23.3158 0.171875C22.6618 0.171875 22.1316 0.702064 22.1316 1.35609C22.1316 2.01011 22.6618 2.5403 23.3158 2.5403Z" fill="#506383" fill-opacity="0.25"/>
</svg>
