<svg width="26" height="25" viewBox="0 0 26 25" fill="none" xmlns="http://www.w3.org/2000/svg">
<path d="M21.9032 0.5H4.09677C2.38647 0.5 1 1.8674 1 3.55417V21.4458C1 23.1326 2.38647 24.5 4.09677 24.5H21.9032C23.6135 24.5 25 23.1326 25 21.4458V3.55417C25 1.8674 23.6135 0.5 21.9032 0.5Z" stroke="#899296"/>
<path fill-rule="evenodd" clip-rule="evenodd" d="M18.4274 9.59456C18.7406 9.62034 18.9742 9.89403 18.9492 10.2071C18.9447 10.2587 18.5336 15.3467 18.2969 17.4809C18.1498 18.8054 17.2745 19.6113 15.9532 19.6355C14.9422 19.653 13.9668 19.6628 13.0133 19.6628C11.9856 19.6628 10.9837 19.6515 9.99233 19.631C8.72415 19.606 7.84659 18.7841 7.70324 17.4862C7.46432 15.333 7.0555 10.2579 7.05171 10.2071C7.02592 9.89403 7.25953 9.61958 7.57278 9.59456C7.88148 9.58622 8.1606 9.80305 8.18563 10.1154C8.18942 10.167 8.59749 15.2246 8.83413 17.3611C8.91529 18.0988 9.31349 18.4794 10.0158 18.4938C11.912 18.5339 13.8469 18.5362 15.9327 18.4983C16.6791 18.4839 17.0826 18.1109 17.166 17.3558C17.2399 16.69 17.331 15.7327 17.4214 14.7312L17.4705 14.182C17.6495 12.1632 17.8124 10.1478 17.8153 10.1154C17.8403 9.80305 18.1172 9.5847 18.4274 9.59456ZM6.56886 8.28242C6.25485 8.28242 6 8.02768 6 7.71381C6 7.39993 6.25485 7.14519 6.56886 7.14519H9.04711C9.37022 7.14519 9.65086 6.91472 9.71457 6.59781L9.89888 5.67589C10.0862 4.9693 10.6983 4.5 11.3946 4.5H14.6052C15.3015 4.5 15.9136 4.9693 16.0934 5.64178L16.286 6.59781C16.349 6.91472 16.6296 7.14519 16.9527 7.14519H19.4311C19.7452 7.14519 20 7.39993 20 7.71381C20 8.02768 19.7452 8.28242 19.4311 8.28242H6.56886ZM14.6052 5.63723H11.3946C11.2126 5.63723 11.0525 5.75929 11.0063 5.93442L10.8295 6.82146C10.8071 6.93384 10.7744 7.04213 10.7325 7.14545H15.2676C15.2257 7.04213 15.1929 6.93384 15.1703 6.82146L14.986 5.89955C14.9473 5.75929 14.7873 5.63723 14.6052 5.63723Z" fill="#899296"/>
</svg>
