<svg width="26" height="25" viewBox="0 0 26 25" fill="none" xmlns="http://www.w3.org/2000/svg">
<path d="M16.625 4.5H9.375C8.61561 4.5 8 5.11561 8 5.875V19.125C8 19.8844 8.61561 20.5 9.375 20.5H16.625C17.3844 20.5 18 19.8844 18 19.125V5.875C18 5.11561 17.3844 4.5 16.625 4.5Z" stroke="#899296" stroke-linecap="round" stroke-linejoin="round"/>
<path d="M12 5.5H14" stroke="#899296" stroke-width="2.75" stroke-linecap="round" stroke-linejoin="round"/>
<path d="M13 17.5V17.51" stroke="#899296" stroke-width="2.75" stroke-linecap="round" stroke-linejoin="round"/>
<path d="M21.9032 0.5H4.09677C2.38647 0.5 1 1.8674 1 3.55417V21.4458C1 23.1326 2.38647 24.5 4.09677 24.5H21.9032C23.6135 24.5 25 23.1326 25 21.4458V3.55417C25 1.8674 23.6135 0.5 21.9032 0.5Z" stroke="#899296"/>
</svg>
