<svg width="22" height="22" viewBox="0 0 22 22" fill="none" xmlns="http://www.w3.org/2000/svg">
<path d="M1 5.00024C1 2.7911 2.79086 1.00024 5 1.00024H17C19.2091 1.00024 21 2.79111 21 5.00024V17.0002C21 19.2094 19.2091 21.0002 17 21.0002H5C2.79086 21.0002 1 19.2094 1 17.0002V5.00024Z" fill="white"/>
<path d="M18.4194 1.00024H3.58065C2.15539 1.00024 1 2.13974 1 3.54539V18.4551C1 19.8607 2.15539 21.0002 3.58065 21.0002H18.4194C19.8446 21.0002 21 19.8607 21 18.4551V3.54539C21 2.13974 19.8446 1.00024 18.4194 1.00024Z" stroke="#899296"/>
<path fill-rule="evenodd" clip-rule="evenodd" d="M13.6114 5.5578C13.6414 5.58112 14.6423 6.35855 14.6423 6.35855C15.006 6.57503 15.2902 6.96195 15.3979 7.42003C15.505 7.87333 15.4272 8.34098 15.1777 8.73627C15.1772 8.73704 15.1768 8.73781 15.1762 8.7387C15.1731 8.74317 15.172 8.74471 15.1706 8.74663L15.1653 8.75367C15.1271 8.80426 14.9559 9.02064 14.0538 10.1504C14.0479 10.1626 14.0399 10.1741 14.0313 10.1853L13.9891 10.2315C13.1722 11.2544 11.7889 12.985 9.44266 15.9191C9.16805 16.2611 8.75643 16.4603 8.31431 16.4657L6.13718 16.4932H6.1312C5.9236 16.4932 5.74292 16.3508 5.69446 16.1481L5.20447 14.0724C5.10336 13.6424 5.20387 13.1987 5.47968 12.8542L11.1154 5.80837C11.1178 5.80598 11.1196 5.80299 11.122 5.80059C11.74 5.06204 12.8576 4.9532 13.6114 5.5578ZM16.384 15.5961C16.6317 15.5961 16.8327 15.797 16.8327 16.0446C16.8327 16.2922 16.6317 16.4931 16.384 16.4931H12.0447C11.797 16.4931 11.596 16.2922 11.596 16.0446C11.596 15.797 11.797 15.5961 12.0447 15.5961H16.384ZM10.4868 8.02922L6.18026 13.4146C6.07795 13.5425 6.04026 13.7076 6.07795 13.8661L6.48538 15.5914L8.30354 15.5686C8.47644 15.5668 8.63618 15.4897 8.74207 15.3581C9.92548 13.8781 11.7684 11.5731 13.0367 9.98591L10.4868 8.02922ZM11.813 6.3729L11.0477 7.32913L13.5967 9.28494C14.0874 8.67057 14.4102 8.26593 14.4401 8.22735C14.5382 8.06828 14.5765 7.84343 14.525 7.62694C14.4724 7.40508 14.3342 7.2167 14.1349 7.0965C14.0925 7.0672 13.0844 6.28499 13.0533 6.26047C12.6739 5.95668 12.1205 6.0093 11.813 6.3729Z" fill="#899296"/>
</svg>
