<svg width="16" height="16" viewBox="0 0 16 16" fill="none" xmlns="http://www.w3.org/2000/svg">
<path fill-rule="evenodd" clip-rule="evenodd" d="M8.25 5.79999C9.49375 5.79999 10.5 6.80624 10.5 8.04999C10.5 9.29374 9.49375 10.3 8.25 10.3C7.00625 10.3 6 9.29374 6 8.04999C6 6.80624 7.00625 5.79999 8.25 5.79999ZM6 2.54999C6 3.79374 7.00625 4.79999 8.25 4.79999C9.49375 4.79999 10.5 3.79374 10.5 2.54999C10.5 1.30624 9.49375 0.299988 8.25 0.299988C7.00625 0.299988 6 1.30624 6 2.54999ZM6 13.55C6 14.7937 7.00625 15.8 8.25 15.8C9.49375 15.8 10.5 14.7937 10.5 13.55C10.5 12.3062 9.49375 11.3 8.25 11.3C7.00625 11.3 6 12.3062 6 13.55Z" fill="white"/>
</svg>
