<svg xmlns="http://www.w3.org/2000/svg" width="24" height="24" viewBox="0 0 24 24">
    <g fill="none" fill-rule="evenodd">
        <g fill="#3D3F40">
            <g>
                <g>
                    <g>
                        <g>
                            <g>
                                <path d="M12 1.25c5.937 0 10.75 4.813 10.75 10.75S17.937 22.75 12 22.75 1.25 17.937 1.25 12 6.063 1.25 12 1.25zm0 1.5c-5.109 0-9.25 4.141-9.25 9.25s4.141 9.25 9.25 9.25 9.25-4.141 9.25-9.25S17.109 2.75 12 2.75zm3.167 6.065c.325.325.325.848.007 1.18l-2.009 2.009 2.002 2c.325.326.325.85 0 1.175-.326.325-.849.325-1.174 0l-2.001-2.002L9.99 15.18c-.333.318-.856.318-1.181-.008-.157-.156-.24-.367-.248-.586.007-.22.092-.432.248-.587l2-2.001-1.993-1.994c-.326-.326-.326-.849 0-1.174.325-.326.848-.326 1.174 0l1.994 1.994 2.008-2.008c.325-.326.848-.326 1.174 0z" transform="translate(-2023 -1068) translate(1960.5 134) translate(0 24) translate(28.5 64) translate(0 834) translate(34 12)"/>
                            </g>
                        </g>
                    </g>
                </g>
            </g>
        </g>
    </g>
</svg>
