<svg width="26" height="26" viewBox="0 0 26 26" fill="none" xmlns="http://www.w3.org/2000/svg">
<path d="M21.9032 1H4.09677C2.38647 1 1 2.3674 1 4.05417V21.9458C1 23.6326 2.38647 25 4.09677 25H21.9032C23.6135 25 25 23.6326 25 21.9458V4.05417C25 2.3674 23.6135 1 21.9032 1Z" stroke="#899296"/>
<path fill-rule="evenodd" clip-rule="evenodd" d="M16.1345 6.46907C16.1704 6.49706 17.3715 7.42997 17.3715 7.42997C17.808 7.68974 18.149 8.15405 18.2783 8.70374C18.4068 9.2477 18.3134 9.80888 18.0141 10.2832C18.0135 10.2842 18.0129 10.2851 18.0122 10.2862C18.0085 10.2915 18.0072 10.2934 18.0055 10.2957L17.9992 10.3041C17.9533 10.3648 17.7479 10.6245 16.6653 11.9802C16.6583 11.9948 16.6487 12.0086 16.6384 12.022L16.5877 12.0775C15.6075 13.3049 13.9475 15.3817 11.132 18.9026C10.8024 19.3131 10.3085 19.552 9.77795 19.5585L7.1654 19.5915H7.15822C6.9091 19.5915 6.69228 19.4207 6.63413 19.1774L6.04614 16.6866C5.92481 16.1706 6.04543 15.6381 6.37639 15.2248L13.1393 6.76975C13.1422 6.76688 13.1443 6.76329 13.1472 6.76042C13.8888 5.87416 15.2299 5.74355 16.1345 6.46907ZM19.4616 18.515C19.7588 18.515 20 18.7561 20 19.0532C20 19.3503 19.7588 19.5914 19.4616 19.5914H14.2544C13.9572 19.5914 13.7159 19.3503 13.7159 19.0532C13.7159 18.7561 13.9572 18.515 14.2544 18.515H19.4616ZM12.3849 9.43477L7.21709 15.8972C7.09432 16.0508 7.04909 16.2488 7.09432 16.439L7.58324 18.5093L9.76503 18.4821C9.97251 18.4799 10.1642 18.3873 10.2913 18.2295C11.7114 16.4535 13.9229 13.6875 15.4448 11.7828L12.3849 9.43477ZM13.9764 7.44719L13.058 8.59466L16.1168 10.9416C16.7057 10.2044 17.093 9.71882 17.1288 9.67254C17.2466 9.48165 17.2925 9.21182 17.2308 8.95204C17.1676 8.6858 17.0018 8.45975 16.7627 8.31551C16.7117 8.28035 15.502 7.3417 15.4647 7.31228C15.0095 6.94772 14.3454 7.01087 13.9764 7.44719Z" fill="#899296"/>
</svg>
