<svg width="13" height="14" viewBox="0 0 13 14" fill="none" xmlns="http://www.w3.org/2000/svg">
<path fill-rule="evenodd" clip-rule="evenodd" d="M10.9231 4.54034C11.1984 4.56331 11.4037 4.80723 11.3817 5.08628C11.3777 5.13223 11.0164 9.66669 10.8084 11.5687C10.6791 12.7491 9.90973 13.4674 8.7484 13.489C7.85973 13.5045 7.0024 13.5133 6.1644 13.5133C5.26107 13.5133 4.3804 13.5032 3.50907 13.4849C2.3944 13.4626 1.62307 12.7302 1.49707 11.5734C1.28707 9.65453 0.927733 5.13155 0.9244 5.08628C0.901733 4.80723 1.10707 4.56264 1.3824 4.54034C1.65373 4.53291 1.89907 4.72615 1.92107 5.00453C1.9244 5.05047 2.28307 9.55791 2.49107 11.462C2.5624 12.1194 2.9124 12.4586 3.52973 12.4714C5.1964 12.5072 6.89707 12.5093 8.7304 12.4755C9.3864 12.4626 9.74107 12.1302 9.8144 11.4572C9.87935 10.8639 9.95945 10.0107 10.0389 9.11815L10.082 8.62872C10.2394 6.82957 10.3826 5.03341 10.3851 5.00453C10.4071 4.72615 10.6504 4.53155 10.9231 4.54034ZM0.5 3.37095C0.224 3.37095 0 3.14392 0 2.86419C0 2.58446 0.224 2.35743 0.5 2.35743H2.67827C2.96227 2.35743 3.20893 2.15203 3.26493 1.86959L3.42693 1.04797C3.5916 0.418243 4.1296 0 4.7416 0H7.5636C8.1756 0 8.7136 0.418243 8.8716 1.01757L9.04093 1.86959C9.09627 2.15203 9.34293 2.35743 9.62693 2.35743H11.8053C12.0813 2.35743 12.3053 2.58446 12.3053 2.86419C12.3053 3.14392 12.0813 3.37095 11.8053 3.37095H0.5ZM7.5636 1.01351H4.7416C4.5816 1.01351 4.44093 1.1223 4.40027 1.27838L4.24493 2.06892C4.22519 2.16907 4.19644 2.26558 4.15964 2.35766H8.14576C8.10892 2.26558 8.0801 2.16907 8.06027 2.06892L7.89827 1.2473C7.86427 1.1223 7.7236 1.01351 7.5636 1.01351Z" fill="#EE4040"/>
</svg>
