<svg width="75" height="30" viewBox="0 0 75 30" fill="none" xmlns="http://www.w3.org/2000/svg">
<path d="M52.5 8.58244C53.154 8.58244 53.6842 8.05225 53.6842 7.39823C53.6842 6.74421 53.154 6.21402 52.5 6.21402C51.846 6.21402 51.3158 6.74421 51.3158 7.39823C51.3158 8.05225 51.846 8.58244 52.5 8.58244Z" fill="#506383" fill-opacity="0.25"/>
<path opacity="0.702" d="M59.6053 8.58244C60.2593 8.58244 60.7895 8.05225 60.7895 7.39823C60.7895 6.74421 60.2593 6.21402 59.6053 6.21402C58.9512 6.21402 58.4211 6.74421 58.4211 7.39823C58.4211 8.05225 58.9512 8.58244 59.6053 8.58244Z" fill="#506383" fill-opacity="0.25"/>
<path opacity="0.401" d="M66.7105 8.58244C67.3645 8.58244 67.8947 8.05225 67.8947 7.39823C67.8947 6.74421 67.3645 6.21402 66.7105 6.21402C66.0565 6.21402 65.5263 6.74421 65.5263 7.39823C65.5263 8.05225 66.0565 8.58244 66.7105 8.58244Z" fill="#506383" fill-opacity="0.25"/>
<path opacity="0.104" d="M73.8158 8.58244C74.4698 8.58244 75 8.05225 75 7.39823C75 6.74421 74.4698 6.21402 73.8158 6.21402C73.1618 6.21402 72.6316 6.74421 72.6316 7.39823C72.6316 8.05225 73.1618 8.58244 73.8158 8.58244Z" fill="#506383" fill-opacity="0.25"/>
<path d="M22.5 8.58244C23.154 8.58244 23.6842 8.05225 23.6842 7.39823C23.6842 6.74421 23.154 6.21402 22.5 6.21402C21.846 6.21402 21.3158 6.74421 21.3158 7.39823C21.3158 8.05225 21.846 8.58244 22.5 8.58244Z" fill="#506383" fill-opacity="0.25"/>
<path opacity="0.702" d="M15.3947 8.58244C16.0488 8.58244 16.5789 8.05225 16.5789 7.39823C16.5789 6.74421 16.0488 6.21402 15.3947 6.21402C14.7407 6.21402 14.2105 6.74421 14.2105 7.39823C14.2105 8.05225 14.7407 8.58244 15.3947 8.58244Z" fill="#506383" fill-opacity="0.25"/>
<path opacity="0.399" d="M8.28947 8.58244C8.94349 8.58244 9.47368 8.05225 9.47368 7.39823C9.47368 6.74421 8.94349 6.21402 8.28947 6.21402C7.63545 6.21402 7.10526 6.74421 7.10526 7.39823C7.10526 8.05225 7.63545 8.58244 8.28947 8.58244Z" fill="#506383" fill-opacity="0.25"/>
<path opacity="0.108" d="M1.18421 8.58244C1.83823 8.58244 2.36842 8.05225 2.36842 7.39823C2.36842 6.74421 1.83823 6.21402 1.18421 6.21402C0.530189 6.21402 0 6.74421 0 7.39823C0 8.05225 0.530189 8.58244 1.18421 8.58244Z" fill="#506383" fill-opacity="0.25"/>
<path opacity="0.335" d="M28.715 10.953L32.154 7.506L28.715 4.059L29.774 3L34.28 7.506L29.774 12.012L28.715 10.953Z" fill="#63738E"/>
<path opacity="0.652" d="M33.7199 10.953L37.1589 7.506L33.7199 4.059L34.7789 3L39.2849 7.506L34.7789 12.012L33.7199 10.953Z" fill="#63738E"/>
<path d="M38.7199 10.953L42.1589 7.506L38.7199 4.059L39.7789 3L44.2849 7.506L39.7789 12.012L38.7199 10.953Z" fill="#63738E"/>
</svg>
