<svg width="26" height="25" viewBox="0 0 26 25" fill="none" xmlns="http://www.w3.org/2000/svg">
<path d="M18.1333 20.5C18.6284 20.5 19.1032 20.3033 19.4533 19.9533C19.8033 19.6032 20 19.1284 20 18.6333V16.7667C20 16.2716 19.8033 15.7968 19.4533 15.4467C19.1032 15.0967 18.6284 14.9 18.1333 14.9H10.6667C10.1716 14.9 9.6968 15.0967 9.34673 15.4467C8.99667 15.7968 8.8 16.2716 8.8 16.7667V18.6333C8.8 19.1284 8.99667 19.6032 9.34673 19.9533C9.6968 20.3033 10.1716 20.5 10.6667 20.5H18.1333ZM19.0667 18.6333C19.0667 18.8809 18.9683 19.1183 18.7933 19.2933C18.6183 19.4683 18.3809 19.5667 18.1333 19.5667H10.6667C10.4191 19.5667 10.1817 19.4683 10.0067 19.2933C9.83167 19.1183 9.73333 18.8809 9.73333 18.6333V16.7667C9.73333 16.5191 9.83167 16.2817 10.0067 16.1067C10.1817 15.9317 10.4191 15.8333 10.6667 15.8333H18.1333C18.3809 15.8333 18.6183 15.9317 18.7933 16.1067C18.9683 16.2817 19.0667 16.5191 19.0667 16.7667V18.6333ZM16.2667 9.76666C16.3904 9.76666 16.5091 9.7175 16.5966 9.62998C16.6842 9.54246 16.7333 9.42377 16.7333 9.3C16.7333 9.17623 16.6842 9.05753 16.5966 8.97001C16.5091 8.8825 16.3904 8.83333 16.2667 8.83333L12.5333 8.83333C12.4096 8.83333 12.2909 8.8825 12.2033 8.97001C12.1158 9.05753 12.0667 9.17623 12.0667 9.3C12.0667 9.42377 12.1158 9.54246 12.2033 9.62998C12.2909 9.7175 12.4096 9.76666 12.5333 9.76666L16.2667 9.76666ZM11.7129 13.0333H18.1333C18.6284 13.0333 19.1032 12.8367 19.4533 12.4866C19.8033 12.1365 20 11.6617 20 11.1667V7.43333C20 6.93826 19.8033 6.46347 19.4533 6.1134C19.1032 5.76333 18.6284 5.56666 18.1333 5.56666L10.6667 5.56666C10.1716 5.56666 9.6968 5.76333 9.34673 6.1134C8.99667 6.46347 8.8 6.93826 8.8 7.43333V8.446C9.10203 8.33969 9.4313 8.33969 9.73333 8.446V7.43333C9.73333 7.1858 9.83167 6.9484 10.0067 6.77336C10.1817 6.59833 10.4191 6.5 10.6667 6.5L18.1333 6.5C18.3809 6.5 18.6183 6.59833 18.7933 6.77336C18.9683 6.9484 19.0667 7.1858 19.0667 7.43333V11.1667C19.0667 11.4142 18.9683 11.6516 18.7933 11.8266C18.6183 12.0017 18.3809 12.1 18.1333 12.1L12.454 12.1C12.3845 12.2968 12.2716 12.4754 12.1236 12.6227L11.7129 13.0333ZM6 15.3667C6 15.4904 6.04917 15.6091 6.13668 15.6966C6.2242 15.7842 6.3429 15.8333 6.46667 15.8333C6.59043 15.8333 6.70913 15.7842 6.79665 15.6966C6.88417 15.6091 6.93333 15.4904 6.93333 15.3667V13.5C6.93333 13.1287 7.08083 12.7726 7.34338 12.51C7.60594 12.2475 7.96203 12.1 8.33333 12.1H10.0068L8.93627 13.1696C8.84864 13.2572 8.79941 13.3761 8.79941 13.5C8.79941 13.6239 8.84864 13.7428 8.93627 13.8304C9.02389 13.918 9.14274 13.9673 9.26667 13.9673C9.39059 13.9673 9.50944 13.918 9.59707 13.8304L11.4637 11.9637C11.5072 11.9204 11.5417 11.8689 11.5652 11.8122C11.5887 11.7555 11.6008 11.6947 11.6008 11.6333C11.6008 11.5719 11.5887 11.5112 11.5652 11.4545C11.5417 11.3978 11.5072 11.3463 11.4637 11.3029L9.59707 9.43626C9.50944 9.34864 9.39059 9.29941 9.26667 9.29941C9.14274 9.29941 9.02389 9.34864 8.93627 9.43626C8.84864 9.52389 8.79941 9.64274 8.79941 9.76666C8.79941 9.89059 8.84864 10.0094 8.93627 10.0971L10.0068 11.1667H8.33333C8.02692 11.1667 7.7235 11.227 7.4404 11.3443C7.15731 11.4615 6.90009 11.6334 6.68342 11.8501C6.46675 12.0668 6.29488 12.324 6.17762 12.6071C6.06035 12.8902 6 13.1936 6 13.5V15.3667Z" fill="#848484"/>
<path d="M21.9032 0.5H4.09677C2.38647 0.5 1 1.8674 1 3.55417V21.4458C1 23.1326 2.38647 24.5 4.09677 24.5H21.9032C23.6135 24.5 25 23.1326 25 21.4458V3.55417C25 1.8674 23.6135 0.5 21.9032 0.5Z" stroke="#899296"/>
</svg>
