<svg xmlns="http://www.w3.org/2000/svg" width="24" height="24" viewBox="0 0 24 24">
    <g fill="none" fill-rule="evenodd">
        <g fill="#3D3F40">
            <g>
                <g>
                    <g>
                        <g>
                            <g>
                                <g>
                                    <path d="M12 2c5.514 0 10 4.486 10 10s-4.486 10-10 10S2 17.514 2 12 6.486 2 12 2zm0 1.5c-4.687 0-8.5 3.813-8.5 8.5 0 4.687 3.813 8.5 8.5 8.5 4.687 0 8.5-3.813 8.5-8.5 0-4.687-3.813-8.5-8.5-8.5zm-.339 3.595c.415 0 .75.336.75.75v4.422l3.405 2.03c.355.213.472.673.26 1.03-.14.234-.39.365-.645.365-.13 0-.263-.034-.384-.105l-3.77-2.249c-.226-.136-.366-.38-.366-.645V7.845c0-.414.336-.75.75-.75z" transform="translate(-2023 -1139) translate(1960.5 134) translate(0 24) translate(28.5 64) translate(0 834) translate(0 71) translate(34 12)"/>
                                </g>
                            </g>
                        </g>
                    </g>
                </g>
            </g>
        </g>
    </g>
</svg>
