<svg width="16" height="14" viewBox="0 0 16 14" fill="none" xmlns="http://www.w3.org/2000/svg">
<path fill-rule="evenodd" clip-rule="evenodd" d="M13.6571 2.43025H16V3.5731H13.6571C13.3714 4.88739 12.2286 5.85882 10.8571 5.85882C9.48571 5.85882 8.34286 4.88739 8.05714 3.5731H0V2.43025H8.05714C8.34286 1.11596 9.48571 0.144531 10.8571 0.144531C12.2286 0.144531 13.3714 1.11596 13.6571 2.43025ZM9.14286 3.00167C9.14286 3.9731 9.88571 4.71596 10.8571 4.71596C11.8286 4.71596 12.5714 3.9731 12.5714 3.00167C12.5714 2.03025 11.8286 1.28739 10.8571 1.28739C9.88571 1.28739 9.14286 2.03025 9.14286 3.00167Z" fill="#899296"/>
<path fill-rule="evenodd" clip-rule="evenodd" d="M2.34286 11.5731H0V10.4302H2.34286C2.62857 9.11596 3.77143 8.14453 5.14286 8.14453C6.51429 8.14453 7.65714 9.11596 7.94286 10.4302H16V11.5731H7.94286C7.65714 12.8874 6.51429 13.8588 5.14286 13.8588C3.77143 13.8588 2.62857 12.8874 2.34286 11.5731ZM6.85714 11.0017C6.85714 10.0302 6.11429 9.28739 5.14286 9.28739C4.17143 9.28739 3.42857 10.0302 3.42857 11.0017C3.42857 11.9731 4.17143 12.716 5.14286 12.716C6.11429 12.716 6.85714 11.9731 6.85714 11.0017Z" fill="#899296"/>
</svg>
