<svg width="25" height="3" viewBox="0 0 25 3" fill="none" xmlns="http://www.w3.org/2000/svg">
<path d="M1.68421 2.5403C2.33823 2.5403 2.86842 2.01011 2.86842 1.35609C2.86842 0.702064 2.33823 0.171875 1.68421 0.171875C1.03019 0.171875 0.5 0.702064 0.5 1.35609C0.5 2.01011 1.03019 2.5403 1.68421 2.5403Z" fill="#506383" fill-opacity="0.25"/>
<path opacity="0.702" d="M9.05262 2.5403C9.70664 2.5403 10.2368 2.01011 10.2368 1.35609C10.2368 0.702064 9.70664 0.171875 9.05262 0.171875C8.3986 0.171875 7.86841 0.702064 7.86841 1.35609C7.86841 2.01011 8.3986 2.5403 9.05262 2.5403Z" fill="#506383" fill-opacity="0.25"/>
<path opacity="0.401" d="M16.421 2.5403C17.075 2.5403 17.6052 2.01011 17.6052 1.35609C17.6052 0.702064 17.075 0.171875 16.421 0.171875C15.767 0.171875 15.2368 0.702064 15.2368 1.35609C15.2368 2.01011 15.767 2.5403 16.421 2.5403Z" fill="#506383" fill-opacity="0.25"/>
<path opacity="0.104" d="M23.7894 2.5403C24.4435 2.5403 24.9736 2.01011 24.9736 1.35609C24.9736 0.702064 24.4435 0.171875 23.7894 0.171875C23.1354 0.171875 22.6052 0.702064 22.6052 1.35609C22.6052 2.01011 23.1354 2.5403 23.7894 2.5403Z" fill="#506383" fill-opacity="0.25"/>
</svg>
