<svg width="10" height="16" viewBox="0 0 10 16" fill="none" xmlns="http://www.w3.org/2000/svg">
<path fill-rule="evenodd" clip-rule="evenodd" d="M0 13.4207C0 12.2724 0.93092 11.3415 2.07927 11.3415C3.22762 11.3415 4.15854 12.2724 4.15854 13.4207C4.15854 14.5691 3.22762 15.5 2.07927 15.5C0.93092 15.5 0 14.5691 0 13.4207ZM0 7.75C0 6.60165 0.93092 5.67073 2.07927 5.67073C3.22762 5.67073 4.15854 6.60165 4.15854 7.75C4.15854 8.89835 3.22762 9.82927 2.07927 9.82927C0.93092 9.82927 0 8.89835 0 7.75ZM0 2.07927C0 0.930921 0.93092 0 2.07927 0C3.22762 0 4.15854 0.930921 4.15854 2.07927C4.15854 3.22762 3.22762 4.15854 2.07927 4.15854C0.93092 4.15854 0 3.22762 0 2.07927ZM1.13415 13.4207C1.13415 13.9427 1.55729 14.3659 2.07927 14.3659C2.60124 14.3659 3.02439 13.9427 3.02439 13.4207C3.02439 12.8988 2.60124 12.4756 2.07927 12.4756C1.55729 12.4756 1.13415 12.8988 1.13415 13.4207ZM1.13415 7.75C1.13415 8.27198 1.55729 8.69512 2.07927 8.69512C2.60124 8.69512 3.02439 8.27198 3.02439 7.75C3.02439 7.22802 2.60124 6.80488 2.07927 6.80488C1.55729 6.80488 1.13415 7.22802 1.13415 7.75ZM1.13415 2.07927C1.13415 2.60124 1.55729 3.02439 2.07927 3.02439C2.60124 3.02439 3.02439 2.60124 3.02439 2.07927C3.02439 1.55729 2.60124 1.13415 2.07927 1.13415C1.55729 1.13415 1.13415 1.55729 1.13415 2.07927Z" fill="#E5EBED"/>
<path fill-rule="evenodd" clip-rule="evenodd" d="M5.04883 13.4207C5.04883 12.2724 5.97975 11.3415 7.1281 11.3415C8.27644 11.3415 9.20736 12.2724 9.20736 13.4207C9.20736 14.5691 8.27644 15.5 7.1281 15.5C5.97975 15.5 5.04883 14.5691 5.04883 13.4207ZM5.04883 7.75C5.04883 6.60165 5.97975 5.67073 7.1281 5.67073C8.27644 5.67073 9.20736 6.60165 9.20736 7.75C9.20736 8.89835 8.27644 9.82927 7.1281 9.82927C5.97975 9.82927 5.04883 8.89835 5.04883 7.75ZM5.04883 2.07927C5.04883 0.930921 5.97975 0 7.1281 0C8.27644 0 9.20736 0.930921 9.20736 2.07927C9.20736 3.22762 8.27644 4.15854 7.1281 4.15854C5.97975 4.15854 5.04883 3.22762 5.04883 2.07927ZM6.18297 13.4207C6.18297 13.9427 6.60612 14.3659 7.1281 14.3659C7.65007 14.3659 8.07322 13.9427 8.07322 13.4207C8.07322 12.8988 7.65007 12.4756 7.1281 12.4756C6.60612 12.4756 6.18297 12.8988 6.18297 13.4207ZM6.18297 7.75C6.18297 8.27198 6.60612 8.69512 7.1281 8.69512C7.65007 8.69512 8.07322 8.27198 8.07322 7.75C8.07322 7.22802 7.65007 6.80488 7.1281 6.80488C6.60612 6.80488 6.18297 7.22802 6.18297 7.75ZM6.18297 2.07927C6.18297 2.60124 6.60612 3.02439 7.1281 3.02439C7.65007 3.02439 8.07322 2.60124 8.07322 2.07927C8.07322 1.55729 7.65007 1.13415 7.1281 1.13415C6.60612 1.13415 6.18297 1.55729 6.18297 2.07927Z" fill="#E5EBED"/>
</svg>
