<svg xmlns="http://www.w3.org/2000/svg" width="54" height="32" viewBox="0 0 54 32">
    <g fill="none" fill-opacity=".5" fill-rule="evenodd">
        <g fill="#F5CCE0" stroke="#F5CCE0">
            <g>
                <g>
                    <g>
                        <g>
                            <g>
                                <g>
                                    <g>
                                        <g>
                                            <path d="M52 .5c.414 0 .79.168 1.06.44.272.27.44.646.44 1.06h0v7.519c-1.596.121-3.03.819-4.096 1.885C48.228 12.58 47.5 14.205 47.5 16c0 1.75.692 3.34 1.818 4.509 1.028 1.067 2.417 1.783 3.97 1.952h0l.212 7.546c-.002.411-.17.784-.44 1.054-.27.271-.646.439-1.06.439h0H2c-.414 0-.79-.168-1.06-.44C.667 30.79.5 30.415.5 30h0v-7.519c1.596-.121 3.03-.819 4.096-1.885C5.772 19.42 6.5 17.795 6.5 16c0-1.75-.692-3.34-1.818-4.509C3.654 10.424 2.265 9.708.712 9.54h0L.5 1.993C.502 1.582.67 1.21.94.94 1.21.668 1.585.5 2 .5h0z" transform="translate(-2117 -747) translate(1960.5 134) translate(0 24) translate(28.5 64) translate(0 56) translate(0 375) translate(128 16) translate(0 74) translate(0 4)"/>
                                        </g>
                                    </g>
                                </g>
                            </g>
                        </g>
                    </g>
                </g>
            </g>
        </g>
    </g>
</svg>
