<svg width="22" height="22" viewBox="0 0 22 22" fill="none" xmlns="http://www.w3.org/2000/svg">
<path d="M1 5.00024C1 2.7911 2.79086 1.00024 5 1.00024H17C19.2091 1.00024 21 2.79111 21 5.00024V17.0002C21 19.2094 19.2091 21.0002 17 21.0002H5C2.79086 21.0002 1 19.2094 1 17.0002V5.00024Z" fill="white"/>
<path d="M18.4194 1.00024H3.58065C2.15539 1.00024 1 2.13974 1 3.54539V18.4551C1 19.8607 2.15539 21.0002 3.58065 21.0002H18.4194C19.8446 21.0002 21 19.8607 21 18.4551V3.54539C21 2.13974 19.8446 1.00024 18.4194 1.00024Z" stroke="#899296"/>
<path fill-rule="evenodd" clip-rule="evenodd" d="M15.5222 8.57902C15.7832 8.6005 15.9779 8.82858 15.957 9.08951C15.9532 9.13247 15.6106 13.3724 15.4134 15.1509C15.2908 16.2547 14.5614 16.9263 13.4604 16.9465C12.6178 16.961 11.805 16.9692 11.0105 16.9692C10.154 16.9692 9.31907 16.9598 8.49296 16.9427C7.43614 16.9219 6.70484 16.237 6.58538 15.1554C6.38628 13.3611 6.0456 9.13184 6.04244 9.08951C6.02095 8.82858 6.21562 8.59987 6.47667 8.57902C6.73392 8.57207 6.96652 8.75277 6.98738 9.01307C6.99054 9.05603 7.33059 13.2707 7.52779 15.0511C7.59542 15.6659 7.92726 15.983 8.51255 15.995C10.0927 16.0285 11.7051 16.0304 13.4433 15.9988C14.0652 15.9868 14.4015 15.676 14.471 15.0467C14.5326 14.4919 14.6086 13.6941 14.6839 12.8595L14.7248 12.4019C14.874 10.7196 15.0097 9.04007 15.0121 9.01307C15.0329 8.75277 15.2636 8.57081 15.5222 8.57902ZM5.64006 7.48558C5.37839 7.48558 5.16602 7.27329 5.16602 7.01173C5.16602 6.75017 5.37839 6.53789 5.64006 6.53789H7.70528C7.97454 6.53789 8.2084 6.34582 8.26149 6.08173L8.41509 5.31347C8.57121 4.72464 9.08128 4.33356 9.66152 4.33356H12.3371C12.9173 4.33356 13.4274 4.72464 13.5772 5.28504L13.7377 6.08173C13.7902 6.34582 14.024 6.53789 14.2933 6.53789H16.3586C16.6203 6.53789 16.8327 6.75017 16.8327 7.01173C16.8327 7.27329 16.6203 7.48558 16.3586 7.48558H5.64006ZM12.3371 5.28125H9.66152C9.50982 5.28125 9.37646 5.38297 9.3379 5.52891L9.19063 6.26811C9.17191 6.36175 9.14465 6.452 9.10976 6.5381H12.889C12.8541 6.452 12.8267 6.36175 12.8079 6.26811L12.6543 5.49985C12.6221 5.38297 12.4887 5.28125 12.3371 5.28125Z" fill="#899296"/>
</svg>
