<svg xmlns="http://www.w3.org/2000/svg" width="24" height="24" viewBox="0 0 24 24">
    <defs>
        <filter id="oaqrfdtepa">
            <feColorMatrix in="SourceGraphic" values="0 0 0 0 1.000000 0 0 0 0 1.000000 0 0 0 0 1.000000 0 0 0 1.000000 0"/>
        </filter>
    </defs>
    <g fill="none" fill-rule="evenodd">
        <g>
            <g>
                <g>
                    <g>
                        <g filter="url(#oaqrfdtepa)" transform="translate(-128 -252) translate(100 164) translate(0 72) translate(8)">
                            <g>
                                <g fill="#3D3F40">
                                    <path d="M16.191 2C19.28 2 21 3.78 21 6.83v10.33c0 3.1-1.72 4.84-4.809 4.84H7.81C4.77 22 3 20.26 3 17.16V6.83C3 3.78 4.77 2 7.81 2zM8.08 15.74c-.3-.03-.59.11-.75.37-.16.25-.16.58 0 .84.16.25.45.4.75.36h7.84c.399-.04.7-.381.7-.78 0-.41-.301-.75-.7-.79zm7.84-4.561H8.08c-.431 0-.78.351-.78.781 0 .43.349.78.78.78h7.84c.43 0 .78-.35.78-.78 0-.43-.35-.781-.78-.781zM11.069 6.65H8.08v.01c-.431 0-.78.35-.78.78 0 .43.349.78.78.78h2.989c.431 0 .781-.35.781-.791 0-.429-.35-.779-.781-.779z" transform="translate(8 4) translate(12 12)"/>
                                </g>
                            </g>
                        </g>
                    </g>
                </g>
            </g>
        </g>
    </g>
</svg>
