<svg width="20" height="20" viewBox="0 0 20 20" fill="none" xmlns="http://www.w3.org/2000/svg">
<path d="M11.3441 20C11.8907 20 12.2699 19.7331 12.3815 19.23L13.4746 14.2505H17.4568C18.0591 14.2505 18.4941 13.8398 18.4941 13.2854C18.4941 12.8337 18.1484 12.4641 17.6576 12.4641H13.865L15.0586 7.04312H18.9626C19.5761 7.04312 20 6.63244 20 6.07803C20 5.62628 19.6654 5.25667 19.1634 5.25667H15.449L16.3636 1.1191C16.3748 1.05749 16.3971 0.924025 16.3971 0.790555C16.3971 0.287474 15.9955 0 15.4713 0C14.8355 0 14.5566 0.318275 14.4562 0.800821L13.4746 5.25667H8.19855L9.10206 1.1191C9.12437 1.05749 9.14668 0.924025 9.14668 0.790555C9.14668 0.287474 8.74512 0 8.2097 0C7.58505 0 7.29504 0.318275 7.19465 0.800821L6.21305 5.25667H2.54322C1.94088 5.25667 1.50586 5.68788 1.50586 6.25257C1.50586 6.71458 1.85165 7.04312 2.34244 7.04312H5.82264L4.62911 12.4641H1.03737C0.423871 12.4641 0 12.8953 0 13.46C0 13.922 0.334635 14.2505 0.836587 14.2505H4.23871L3.22365 18.8912C3.20134 18.9938 3.17903 19.117 3.17903 19.2197C3.17903 19.7228 3.55828 20 4.0937 20C4.62911 20 5.01952 19.7331 5.13107 19.23L6.22421 14.2505H11.5003L10.4741 18.8912C10.4518 18.9938 10.4406 19.117 10.4406 19.2197C10.4406 19.7228 10.8199 20 11.3441 20ZM11.8907 12.4641H6.61461L7.80814 7.04312H13.0842L11.8907 12.4641Z" fill="white"/>
</svg>
