<svg width="20" height="20" viewBox="0 0 20 20" fill="none" xmlns="http://www.w3.org/2000/svg">
<path fill-rule="evenodd" clip-rule="evenodd" d="M14.669 0C18.07 0 19.99 1.929 20 5.33V14.67C20 18.07 18.07 20 14.669 20H5.33C1.929 20 0 18.07 0 14.67V5.33C0 1.929 1.929 0 5.33 0H14.669ZM6.54835 4.29759C6.77297 4.10705 7.07761 4 7.39526 4H12.6048C12.9225 4 13.2271 4.10705 13.4517 4.29759C13.6763 4.48813 13.8025 4.74657 13.8025 5.01604C13.8024 5.27642 13.6845 5.52682 13.473 5.71557C13.2616 5.90431 12.9728 6.01699 12.6662 6.03034L12.9623 10.9322C13.5291 11.0049 14.0464 11.2475 14.4203 11.6161C14.7942 11.9847 14.9999 12.4548 15 12.9411H11.0664L10.2849 17.0934C10.256 17.3691 10.2145 17.5979 10.1645 17.7571C10.1145 17.9162 10.0578 18 10 18C9.94231 18 9.88559 17.9162 9.83559 17.7571C9.78559 17.5979 9.74407 17.3691 9.7152 17.0934L8.93393 12.9411H5.00004C5.00015 12.4548 5.20584 11.9847 5.57974 11.6161C5.95364 11.2475 6.47097 11.0049 7.03779 10.9322L7.33405 6.03034C7.02748 6.01703 6.73863 5.90437 6.52714 5.71563C6.31565 5.52688 6.19767 5.27645 6.19755 5.01604C6.19755 4.74657 6.32374 4.48813 6.54835 4.29759Z" fill="white"/>
</svg>
