<svg width="33" height="14" viewBox="0 0 33 14" fill="none" xmlns="http://www.w3.org/2000/svg">
<path d="M21.5455 3.93969H17.6045L16.4045 0.366685C16.3738 0.283545 16.3183 0.211825 16.2455 0.161175C16.1727 0.110525 16.0862 0.083374 15.9975 0.083374C15.9089 0.083374 15.8224 0.110525 15.7496 0.161175C15.6768 0.211825 15.6213 0.283545 15.5905 0.366685L14.3905 3.93969H10.4295C10.3158 3.93995 10.2069 3.98524 10.1265 4.06563C10.0461 4.14603 10.0008 4.25499 10.0005 4.36869C10.0005 4.39292 10.0031 4.41708 10.0085 4.44069C10.0146 4.50075 10.0337 4.55876 10.0647 4.6106C10.0956 4.66244 10.1375 4.70685 10.1875 4.74069L13.4255 7.02269L12.1835 10.6387C12.1542 10.7243 12.1526 10.817 12.179 10.9035C12.2054 10.99 12.2584 11.066 12.3305 11.1207C12.398 11.1791 12.4825 11.2142 12.5715 11.2207C12.6684 11.2128 12.7612 11.1782 12.8395 11.1207L16.0005 8.87669L19.1615 11.1297C19.2392 11.1884 19.3324 11.2232 19.4295 11.2297C19.518 11.2248 19.6021 11.1894 19.6675 11.1297C19.7403 11.0756 19.7937 10.9996 19.8202 10.9128C19.8465 10.8261 19.8447 10.7332 19.8145 10.6477L18.5715 7.03469L21.7835 4.73469L21.8615 4.66769C21.9269 4.61007 21.9721 4.53314 21.9908 4.44806C22.0094 4.36298 22.0005 4.27417 21.9653 4.1945C21.9301 4.11483 21.8704 4.04845 21.795 4.00497C21.7195 3.96149 21.6321 3.94318 21.5455 3.95269V3.93969Z" fill="#FEA216"/>
<path d="M7.02749 13.1977C6.9997 13.1977 6.97217 13.1923 6.94649 13.1817C5.87722 12.6751 4.95381 11.9057 4.26252 10.9455C3.57123 9.98518 3.13462 8.8654 2.99349 7.69065C2.83899 6.77254 2.8873 5.83175 3.13503 4.9343C3.38276 4.03685 3.8239 3.20449 4.42749 2.49565C4.4006 1.91263 4.5953 1.34103 4.97249 0.895646C5.6017 0.453645 6.31741 0.149977 7.07249 0.00464607C7.10761 -0.00282993 7.14406 -0.00126393 7.17841 0.00920107C7.21276 0.0196651 7.24389 0.0386841 7.26887 0.0644721C7.29386 0.0902601 7.31189 0.121972 7.32127 0.156635C7.33065 0.191298 7.33107 0.227776 7.32249 0.262645C7.15211 1.01314 6.82458 1.71899 6.36149 2.33365C5.89048 2.70265 5.29636 2.87792 4.70049 2.82365C4.15893 3.49124 3.76458 4.26575 3.5433 5.09641C3.32202 5.92707 3.2788 6.79512 3.41649 7.64365C3.54837 8.74304 3.95623 9.79121 4.6021 10.6906C5.24797 11.59 6.11087 12.3114 7.11049 12.7877C7.15662 12.806 7.19486 12.8399 7.21855 12.8835C7.24224 12.9272 7.24987 12.9777 7.24011 13.0264C7.23035 13.075 7.20383 13.1187 7.16516 13.1499C7.12648 13.181 7.07812 13.1975 7.02849 13.1967L7.02749 13.1977Z" fill="#FEA216"/>
<path d="M2.91352 12.0916C2.27961 12.0131 1.66622 11.8156 1.10552 11.5096C1.07264 11.4922 1.04494 11.4664 1.0252 11.4348C1.00546 11.4033 0.99437 11.3671 0.993053 11.3299C0.991735 11.2927 1.00023 11.2558 1.01769 11.2229C1.03515 11.1901 1.06096 11.1624 1.09252 11.1426C1.64124 10.7864 2.25559 10.5433 2.89952 10.4276C3.42867 10.4613 3.92697 10.6883 4.29952 11.0656C4.33675 11.1033 4.35853 11.1536 4.36056 11.2065C4.3626 11.2594 4.34475 11.3112 4.31052 11.3516C3.96651 11.7559 3.48547 12.019 2.95952 12.0906L2.91352 12.0916Z" fill="#FEA216"/>
<path d="M4.82147 10.7636C4.78667 10.7636 4.75242 10.755 4.72172 10.7386C4.69103 10.7222 4.66484 10.6985 4.64547 10.6696C4.37053 10.2677 4.26293 9.77452 4.34547 9.29461C4.59773 8.76244 4.96528 8.29309 5.42147 7.92062C5.44827 7.89742 5.48046 7.8813 5.51509 7.87376C5.54973 7.86621 5.5857 7.86747 5.61972 7.87742C5.65374 7.88737 5.68473 7.90569 5.70984 7.9307C5.73495 7.95572 5.75339 7.98663 5.76347 8.02062C5.94018 8.58236 5.98971 9.17637 5.90847 9.75962C5.71533 10.2051 5.35682 10.5583 4.90847 10.7446C4.88114 10.7571 4.85149 10.7635 4.82147 10.7636Z" fill="#FEA216"/>
<path d="M2.02245 9.71166C1.87626 9.71288 1.73079 9.69094 1.59145 9.64666C1.00294 9.35474 0.479725 8.94652 0.0534503 8.44666C0.0288582 8.41896 0.0119553 8.38529 0.00442551 8.34901C-0.00310426 8.31274 -0.000997976 8.27513 0.0105345 8.23993C0.022067 8.20473 0.0426231 8.17316 0.0701547 8.14837C0.0976863 8.12358 0.131232 8.10645 0.16745 8.09866C0.806135 7.94764 1.4688 7.92757 2.11545 8.03966C2.60378 8.25748 2.9932 8.64976 3.20745 9.13966C3.2285 9.18747 3.23115 9.24135 3.21491 9.29099C3.19867 9.34064 3.16468 9.38254 3.11945 9.40866C2.78251 9.59405 2.40678 9.69784 2.02245 9.71166Z" fill="#FEA216"/>
<path d="M3.71742 8.03658H3.69842C3.64752 8.03532 3.59875 8.01587 3.56096 7.98174C3.52317 7.94762 3.49885 7.90109 3.49242 7.85059C3.43137 7.37477 3.55364 6.89355 3.83442 6.50459C4.28322 6.131 4.80704 5.85817 5.37042 5.70458C5.40532 5.69414 5.44233 5.69286 5.47787 5.70088C5.51341 5.7089 5.54628 5.72594 5.57332 5.75037C5.60035 5.77479 5.62064 5.80576 5.63222 5.84031C5.6438 5.87485 5.64627 5.9118 5.63942 5.94759C5.54512 6.52329 5.32823 7.072 5.00342 7.55659C4.65147 7.87443 4.19155 8.04609 3.71742 8.03658Z" fill="#FEA216"/>
<path d="M2.57043 7.11167C2.05334 7.12844 1.54888 6.94994 1.15743 6.61167C0.779061 6.07148 0.517182 5.4585 0.388425 4.81167C0.380665 4.77614 0.382179 4.7392 0.392822 4.70442C0.403464 4.66964 0.422876 4.63818 0.449192 4.61307C0.475507 4.58796 0.507841 4.57004 0.543083 4.56104C0.578326 4.55204 0.615291 4.55226 0.650425 4.56167C1.29121 4.72187 1.89161 5.01373 2.41343 5.41867C2.7393 5.84709 2.8908 6.38305 2.83743 6.91867C2.83247 6.96917 2.80956 7.01623 2.77286 7.05128C2.73616 7.08632 2.68811 7.10704 2.63743 7.10967L2.57043 7.11167Z" fill="#FEA216"/>
<path d="M4.84443 5.10259C4.48911 5.08746 4.1431 4.98438 3.83743 4.80259C3.79247 4.77474 3.75954 4.7311 3.74511 4.68022C3.73068 4.62934 3.73578 4.5749 3.75943 4.52759C3.9706 4.10555 4.33031 3.77647 4.76943 3.60359C5.34118 3.52449 5.92299 3.56087 6.48043 3.71059C6.51644 3.71975 6.54942 3.73821 6.57605 3.76413C6.60268 3.79005 6.62203 3.82252 6.63216 3.85827C6.64229 3.89403 6.64284 3.93182 6.63376 3.96785C6.62468 4.00389 6.60629 4.03691 6.58043 4.06359C6.18475 4.4845 5.7087 4.82181 5.18043 5.05559C5.07111 5.08659 4.95805 5.10241 4.84443 5.10259Z" fill="#FEA216"/>
<path d="M3.10345 4.46661C3.07748 4.46661 3.05172 4.46187 3.02745 4.45261C2.52319 4.2593 2.11134 3.88141 1.87545 3.39561C1.75088 2.74618 1.76348 2.07788 1.91245 1.43361C1.91993 1.39807 1.93642 1.36504 1.96033 1.33769C1.98424 1.31035 2.01478 1.28961 2.04901 1.27747C2.08325 1.26532 2.12002 1.26217 2.15582 1.26833C2.19162 1.27448 2.22524 1.28973 2.25345 1.31261C2.77472 1.71905 3.20527 2.22998 3.51745 2.81261C3.64017 3.33833 3.5583 3.89104 3.28845 4.35861C3.26998 4.39142 3.24311 4.41872 3.21059 4.4377C3.17808 4.45668 3.1411 4.46665 3.10345 4.46661Z" fill="#FEA216"/>
<path d="M25.1734 13.1976C25.2011 13.1976 25.2287 13.1923 25.2544 13.1816C26.3236 12.6751 27.247 11.9057 27.9383 10.9455C28.6296 9.98518 29.0662 8.86538 29.2074 7.69062C29.3621 6.77289 29.3142 5.83242 29.067 4.93517C28.8198 4.03791 28.3793 3.20561 27.7764 2.49663C27.8032 1.91361 27.6085 1.34201 27.2314 0.896626C26.6021 0.454621 25.8864 0.150954 25.1314 0.00562233C25.0962 -0.00185367 25.0598 -0.000286672 25.0254 0.0101773C24.9911 0.0206423 24.96 0.0396603 24.935 0.0654483C24.91 0.0912373 24.892 0.122949 24.8826 0.157611C24.8732 0.192274 24.8728 0.228753 24.8814 0.263622C25.0517 1.01412 25.3793 1.71996 25.8424 2.33463C26.3134 2.70363 26.9075 2.8789 27.5034 2.82463C28.0448 3.49209 28.4391 4.26644 28.6603 5.09691C28.8816 5.92739 28.9249 6.79525 28.7874 7.64363C28.6555 8.74302 28.2476 9.79119 27.6017 10.6906C26.9559 11.59 26.093 12.3114 25.0934 12.7876C25.0472 12.806 25.009 12.8399 24.9853 12.8835C24.9616 12.9271 24.954 12.9777 24.9637 13.0264C24.9735 13.075 25 13.1187 25.0387 13.1498C25.0774 13.181 25.1257 13.1976 25.1754 13.1966L25.1734 13.1976Z" fill="#FEA216"/>
<path d="M29.2886 12.0907C29.9225 12.0121 30.5359 11.8146 31.0966 11.5087C31.1294 11.4912 31.1571 11.4654 31.1769 11.4338C31.1966 11.4023 31.2077 11.3661 31.209 11.3289C31.2103 11.2917 31.2018 11.2548 31.1844 11.222C31.1669 11.1891 31.1411 11.1614 31.1096 11.1417C30.5608 10.7854 29.9465 10.5423 29.3026 10.4267C28.7734 10.4603 28.2751 10.6874 27.9026 11.0647C27.8653 11.1023 27.8436 11.1526 27.8415 11.2055C27.8395 11.2584 27.8573 11.3102 27.8916 11.3507C28.2356 11.7549 28.7166 12.018 29.2426 12.0897L29.2886 12.0907Z" fill="#FEA216"/>
<path d="M27.3806 10.7636C27.4154 10.7636 27.4496 10.755 27.4803 10.7386C27.511 10.7222 27.5372 10.6985 27.5566 10.6696C27.8315 10.2677 27.9391 9.77452 27.8566 9.29461C27.6043 8.76242 27.2368 8.29307 26.7806 7.92062C26.7538 7.89742 26.7216 7.8813 26.6869 7.87376C26.6523 7.86621 26.6163 7.86747 26.5823 7.87742C26.5483 7.88737 26.5173 7.90569 26.4922 7.9307C26.4671 7.95572 26.4486 7.98663 26.4386 8.02062C26.2619 8.58236 26.2123 9.17637 26.2936 9.75962C26.4867 10.2051 26.8452 10.5583 27.2936 10.7446C27.3209 10.7571 27.3505 10.7635 27.3806 10.7636Z" fill="#FEA216"/>
<path d="M30.1763 9.71166C30.3225 9.71288 30.468 9.69094 30.6073 9.64666C31.1958 9.35474 31.7191 8.94652 32.1453 8.44666C32.1699 8.41896 32.1868 8.38529 32.1944 8.34901C32.2019 8.31274 32.1998 8.27513 32.1882 8.23993C32.1767 8.20473 32.1562 8.17316 32.1286 8.14837C32.1011 8.12358 32.0676 8.10645 32.0313 8.09866C31.3926 7.94764 30.73 7.92757 30.0833 8.03966C29.595 8.25748 29.2056 8.64976 28.9913 9.13966C28.9703 9.18747 28.9676 9.24135 28.9839 9.29099C29.0001 9.34064 29.0341 9.38254 29.0793 9.40866C29.4163 9.59405 29.792 9.69784 30.1763 9.71166Z" fill="#FEA216"/>
<path d="M28.4853 8.03658H28.5043C28.5552 8.03532 28.604 8.01587 28.6418 7.98174C28.6796 7.94762 28.7039 7.90109 28.7103 7.85059C28.7714 7.37477 28.6491 6.89355 28.3683 6.50459C27.9195 6.131 27.3957 5.85817 26.8323 5.70458C26.7974 5.69414 26.7604 5.69286 26.7249 5.70088C26.6893 5.7089 26.6565 5.72594 26.6294 5.75037C26.6024 5.77479 26.5821 5.80576 26.5705 5.84031C26.559 5.87485 26.5565 5.9118 26.5633 5.94759C26.6576 6.52329 26.8745 7.072 27.1993 7.55659C27.5513 7.87443 28.0112 8.04609 28.4853 8.03658Z" fill="#FEA216"/>
<path d="M29.6364 7.11167C30.1534 7.12844 30.6579 6.94994 31.0494 6.61167C31.4277 6.07148 31.6896 5.4585 31.8184 4.81167C31.8261 4.77614 31.8246 4.7392 31.814 4.70442C31.8033 4.66964 31.7839 4.63818 31.7576 4.61307C31.7313 4.58796 31.6989 4.57004 31.6637 4.56104C31.6285 4.55204 31.5915 4.55226 31.5564 4.56167C30.9156 4.72187 30.3152 5.01373 29.7934 5.41867C29.4675 5.84709 29.316 6.38305 29.3694 6.91867C29.3743 6.96917 29.3972 7.01623 29.4339 7.05128C29.4706 7.08632 29.5187 7.10704 29.5694 7.10967L29.6364 7.11167Z" fill="#FEA216"/>
<path d="M27.3613 5.10257C27.7142 5.0866 28.0576 4.9839 28.3613 4.80357C28.4063 4.77572 28.4392 4.73207 28.4536 4.68119C28.4681 4.63031 28.463 4.57587 28.4393 4.52857C28.2282 4.10653 27.8684 3.77745 27.4293 3.60457C26.8576 3.52547 26.2758 3.56185 25.7183 3.71156C25.6823 3.72072 25.6493 3.73919 25.6227 3.76511C25.5961 3.79103 25.5767 3.82349 25.5666 3.85925C25.5565 3.895 25.5559 3.93279 25.565 3.96883C25.5741 4.00486 25.5925 4.03788 25.6183 4.06457C26.014 4.48548 26.4901 4.82279 27.0183 5.05657C27.1299 5.08787 27.2454 5.10336 27.3613 5.10257Z" fill="#FEA216"/>
<path d="M29.0976 4.46661C29.1236 4.46661 29.1493 4.46187 29.1736 4.45261C29.6778 4.2593 30.0897 3.88141 30.3256 3.39561C30.4502 2.74618 30.4376 2.07788 30.2886 1.43361C30.2811 1.39807 30.2646 1.36504 30.2407 1.33769C30.2168 1.31035 30.1863 1.28961 30.152 1.27747C30.1178 1.26532 30.081 1.26217 30.0452 1.26833C30.0094 1.27448 29.9758 1.28973 29.9476 1.31261C29.4263 1.71905 28.9958 2.22998 28.6836 2.81261C28.5609 3.33833 28.6427 3.89104 28.9126 4.35861C28.9311 4.39142 28.9579 4.41872 28.9904 4.4377C29.023 4.45668 29.0599 4.46665 29.0976 4.46661Z" fill="#FEA216"/>
</svg>
