<svg width="26" height="26" viewBox="0 0 26 26" fill="none" xmlns="http://www.w3.org/2000/svg">
<path d="M21.9032 1H4.09677C2.38647 1 1 2.3674 1 4.05417V21.9458C1 23.6326 2.38647 25 4.09677 25H21.9032C23.6135 25 25 23.6326 25 21.9458V4.05417C25 2.3674 23.6135 1 21.9032 1Z" stroke="#899296"/>
<path fill-rule="evenodd" clip-rule="evenodd" d="M14.3848 6C14.4148 6 14.4443 6.00253 14.473 6.00739L14.5688 6.00798C14.7116 6.00798 14.8481 6.06608 14.9475 6.16898L18.493 9.86288C18.5868 9.96018 18.6394 10.0911 18.6394 10.2262V16.6424C18.6519 18.3987 17.2841 19.8337 15.525 19.9051L9.91168 19.9058H9.83538C8.12042 19.867 6.74499 18.48 6.70309 16.7818L6.70288 9.14328C6.74348 7.40658 8.17778 6.00798 9.90188 6.00798L14.2965 6.00739C14.3252 6.00253 14.3547 6 14.3848 6ZM13.8597 7.0577L9.90328 7.05798C8.74338 7.05798 7.78018 7.99738 7.75288 9.15588V16.6424C7.72698 17.8415 8.67198 18.8292 9.85918 18.8558H15.504C16.6723 18.8075 17.5977 17.8366 17.5893 16.6466L17.5893 10.8881L16.1824 10.8888C14.9014 10.8853 13.8598 9.8409 13.8598 8.5613L13.8597 7.0577ZM14.254 14.8257C14.5438 14.8257 14.779 15.0609 14.779 15.3507C14.779 15.6405 14.5438 15.8757 14.254 15.8757H10.474C10.1842 15.8757 9.94899 15.6405 9.94899 15.3507C9.94899 15.0609 10.1842 14.8257 10.474 14.8257H14.254ZM12.8226 12.1993C13.1124 12.1993 13.3476 12.4345 13.3476 12.7243C13.3476 13.0141 13.1124 13.2493 12.8226 13.2493H10.4734C10.1836 13.2493 9.94836 13.0141 9.94836 12.7243C9.94836 12.4345 10.1836 12.1993 10.4734 12.1993H12.8226ZM14.9097 7.6464L14.9098 8.5613C14.9098 9.2641 15.4817 9.8367 16.1838 9.8388L17.0139 9.8381L14.9097 7.6464Z" fill="#899296"/>
</svg>
