<svg width="24" height="24" viewBox="0 0 24 24" fill="none" xmlns="http://www.w3.org/2000/svg">
<path d="M19.1177 9.0871C18.7284 9.08746 18.3432 9.16654 17.9852 9.3196L14.2352 5.56959C14.4452 5.16653 14.5558 4.71909 14.5577 4.26459C14.5777 3.86952 14.5172 3.47449 14.3799 3.10353C14.2425 2.73257 14.0311 2.39342 13.7586 2.1067C13.486 1.81998 13.158 1.59167 12.7945 1.43567C12.431 1.27967 12.0395 1.19922 11.6439 1.19922C11.2484 1.19922 10.8569 1.27967 10.4934 1.43567C10.1299 1.59167 9.80186 1.81998 9.52932 2.1067C9.25678 2.39342 9.0454 2.73257 8.90802 3.10353C8.77064 3.47449 8.71014 3.86952 8.73019 4.26459C8.73347 4.7246 8.84662 5.17716 9.06019 5.5846L5.31019 9.3346C4.93481 9.16825 4.52827 9.08387 4.11769 9.0871C3.34393 9.0871 2.60185 9.39447 2.05471 9.94161C1.50757 10.4887 1.2002 11.2308 1.2002 12.0046C1.2002 12.7784 1.50757 13.5204 2.05471 14.0676C2.60185 14.6147 3.34393 14.9221 4.11769 14.9221C4.50701 14.9217 4.89223 14.8426 5.25019 14.6896L9.09019 18.5296C8.8314 18.9682 8.69419 19.4678 8.69269 19.9771C8.68695 20.4267 8.78519 20.8715 8.97976 21.2768C9.17432 21.6822 9.45994 22.0371 9.81431 22.3138C10.1687 22.5905 10.5822 22.7816 11.0226 22.8721C11.463 22.9626 11.9184 22.9501 12.3532 22.8356C12.788 22.7211 13.1904 22.5076 13.5291 22.2118C13.8677 21.9161 14.1334 21.546 14.3055 21.1306C14.4775 20.7152 14.5512 20.2657 14.5208 19.8171C14.4904 19.3685 14.3567 18.933 14.1302 18.5446L17.9852 14.6896C18.3432 14.8426 18.7284 14.9217 19.1177 14.9221C19.8915 14.9221 20.6335 14.6147 21.1807 14.0676C21.7278 13.5204 22.0352 12.7784 22.0352 12.0046C22.0352 11.2308 21.7278 10.4887 21.1807 9.94161C20.6335 9.39447 19.8915 9.0871 19.1177 9.0871ZM10.1177 17.4646L6.40519 13.7146C6.79443 13.2152 7.00581 12.6002 7.00581 11.9671C7.00581 11.334 6.79443 10.719 6.40519 10.2196L9.99019 6.6271C10.4618 6.94277 11.0165 7.1113 11.5839 7.1113C12.1514 7.1113 12.7061 6.94277 13.1777 6.6271L16.7702 10.2271C16.381 10.7264 16.1696 11.3415 16.1696 11.9746C16.1696 12.6077 16.381 13.2227 16.7702 13.7221L13.0202 17.4721C12.5689 17.1955 12.0495 17.0501 11.5202 17.0521C11.0252 17.0677 10.5423 17.2097 10.1177 17.4646Z" fill="white"/>
</svg>
