<svg width="16" height="14" viewBox="0 0 16 14" fill="none" xmlns="http://www.w3.org/2000/svg">
<path d="M6.7363 4.63185C6.7363 5.86029 7.2243 7.03842 8.09294 7.90706C8.96158 8.7757 10.1397 9.2637 11.3682 9.2637C12.5966 9.2637 13.7747 8.7757 14.6434 7.90706C15.512 7.03842 16 5.86029 16 4.63185C16 3.40341 15.512 2.22528 14.6434 1.35664C13.7747 0.487997 12.5966 0 11.3682 0C10.1397 0 8.96158 0.487997 8.09294 1.35664C7.2243 2.22528 6.7363 3.40341 6.7363 4.63185ZM13.8946 1.68431C14.0063 1.68431 14.1134 1.72867 14.1924 1.80764C14.2713 1.88661 14.3157 1.99371 14.3157 2.10539V3.78969C14.3157 3.90137 14.2713 4.00847 14.1924 4.08744C14.1134 4.16641 14.0063 4.21077 13.8946 4.21077H12.2103C12.0986 4.21077 11.9915 4.16641 11.9126 4.08744C11.8336 4.00847 11.7892 3.90137 11.7892 3.78969C11.7892 3.67802 11.8336 3.57092 11.9126 3.49195C11.9915 3.41298 12.0986 3.36862 12.2103 3.36862H13.0525C12.8565 3.10694 12.6023 2.89457 12.3099 2.74838C12.0175 2.60219 11.695 2.5262 11.3682 2.52646C10.6666 2.52646 10.0443 2.86922 9.6611 3.39893C9.59462 3.48662 9.49645 3.54479 9.38761 3.56101C9.27877 3.57722 9.16791 3.55018 9.07876 3.48568C8.9896 3.42118 8.92924 3.32435 8.91059 3.2159C8.89194 3.10745 8.91648 2.99601 8.97896 2.90543C9.25198 2.52716 9.61097 2.21919 10.0264 2.00688C10.4418 1.79457 10.9016 1.68401 11.3682 1.68431C12.1935 1.68431 12.9388 2.0237 13.4735 2.56857V2.10539C13.4735 1.99371 13.5179 1.88661 13.5969 1.80764C13.6758 1.72867 13.7829 1.68431 13.8946 1.68431ZM9.26276 6.69513V7.15831C9.26276 7.26999 9.2184 7.37709 9.13943 7.45606C9.06047 7.53503 8.95336 7.57939 8.84169 7.57939C8.73001 7.57939 8.62291 7.53503 8.54394 7.45606C8.46497 7.37709 8.42061 7.26999 8.42061 7.15831V5.474C8.42061 5.36233 8.46497 5.25522 8.54394 5.17626C8.62291 5.09729 8.73001 5.05293 8.84169 5.05293H10.526C10.6377 5.05293 10.7448 5.09729 10.8237 5.17626C10.9027 5.25522 10.9471 5.36233 10.9471 5.474C10.9471 5.58568 10.9027 5.69278 10.8237 5.77175C10.7448 5.85072 10.6377 5.89508 10.526 5.89508H9.68384C10.0679 6.40711 10.6801 6.73724 11.3682 6.73724C12.0132 6.73724 12.591 6.44753 12.9775 5.9894C13.0128 5.9461 13.0564 5.91027 13.1058 5.88399C13.1551 5.85771 13.2092 5.84152 13.2648 5.83635C13.3205 5.83118 13.3766 5.83714 13.4299 5.85389C13.4832 5.87063 13.5327 5.89782 13.5754 5.93387C13.6181 5.96993 13.6532 6.01412 13.6786 6.06388C13.7041 6.11364 13.7194 6.16796 13.7236 6.22369C13.7279 6.27942 13.721 6.33543 13.7033 6.38847C13.6857 6.4415 13.6577 6.49049 13.6209 6.53259C13.3445 6.86083 12.9996 7.12462 12.6104 7.30545C12.2213 7.48628 11.7973 7.57978 11.3682 7.57939C10.976 7.57992 10.5877 7.50195 10.2261 7.35009C9.86449 7.19822 9.53695 6.97553 9.26276 6.69513ZM3.36768 9.2637H8.44924C7.7679 8.83313 7.18947 8.25814 6.75483 7.57939H3.36768L3.26915 7.58528C3.05601 7.61064 2.86059 7.71642 2.72282 7.88102C2.58505 8.04562 2.51533 8.25662 2.52791 8.4709C2.54049 8.68518 2.63442 8.88657 2.7905 9.03392C2.94658 9.18127 3.15304 9.26346 3.36768 9.2637ZM0.841221 3.36862H6.04068C5.91055 3.91996 5.86651 4.48812 5.91015 5.05293H0.841221C0.626573 5.05269 0.420117 4.9705 0.264035 4.82315C0.107953 4.6758 0.0140279 4.47441 0.00144854 4.26013C-0.0111308 4.04585 0.0585857 3.83485 0.196354 3.67025C0.334122 3.50565 0.529543 3.39986 0.742689 3.37451L0.841221 3.36862ZM4.95346 11.7961L5.05199 11.7902H8.42061C8.63526 11.7904 8.84171 11.8726 8.9978 12.0199C9.15388 12.1673 9.2478 12.3687 9.26038 12.583C9.27296 12.7972 9.20325 13.0082 9.06548 13.1728C8.92771 13.3374 8.73229 13.4432 8.51914 13.4686L8.42061 13.4745H5.05199C4.83735 13.4742 4.63089 13.392 4.47481 13.2447C4.31873 13.0973 4.2248 12.8959 4.21222 12.6817C4.19964 12.4674 4.26936 12.2564 4.40713 12.0918C4.54489 11.9272 4.74032 11.8214 4.95346 11.7961Z" fill="#CC0066"/>
</svg>
