<svg width="85" height="14" viewBox="0 0 85 14" fill="none" xmlns="http://www.w3.org/2000/svg">
<path d="M21.5455 3.93969H17.6045L16.4045 0.366685C16.3735 0.283545 16.3185 0.211825 16.2455 0.161175C16.1725 0.110525 16.0865 0.083374 15.9975 0.083374C15.9085 0.083374 15.8225 0.110525 15.7495 0.161175C15.6765 0.211825 15.6215 0.283545 15.5905 0.366685L14.3905 3.93969H10.4295C10.3155 3.93995 10.2065 3.98524 10.1265 4.06563C10.0455 4.14603 10.0005 4.25499 10.0005 4.36869C10.0005 4.39292 10.0035 4.41708 10.0085 4.44069C10.0145 4.50075 10.0335 4.55876 10.0645 4.6106C10.0955 4.66244 10.1375 4.70685 10.1875 4.74069L13.4255 7.02269L12.1835 10.6387C12.1545 10.7243 12.1525 10.817 12.1785 10.9035C12.2055 10.99 12.2585 11.066 12.3305 11.1207C12.3975 11.1791 12.4825 11.2142 12.5715 11.2207C12.6685 11.2128 12.7615 11.1782 12.8395 11.1207L16.0005 8.87669L19.1615 11.1297C19.2395 11.1884 19.3325 11.2232 19.4295 11.2297C19.5175 11.2248 19.6015 11.1894 19.6675 11.1297C19.7405 11.0756 19.7935 10.9996 19.8205 10.9128C19.8465 10.8261 19.8445 10.7332 19.8145 10.6477L18.5715 7.03469L21.7835 4.73469L21.8615 4.66769C21.9265 4.61007 21.9725 4.53314 21.9905 4.44806C22.0095 4.36298 22.0005 4.27417 21.9655 4.1945C21.9295 4.11483 21.8705 4.04845 21.7945 4.00497C21.7195 3.96149 21.6325 3.94318 21.5455 3.95269V3.93969Z" fill="#FEA216"/>
<path d="M34.5455 3.93969H30.6045L29.4045 0.366685C29.3735 0.283545 29.3185 0.211825 29.2455 0.161175C29.1725 0.110525 29.0865 0.083374 28.9975 0.083374C28.9085 0.083374 28.8225 0.110525 28.7495 0.161175C28.6765 0.211825 28.6215 0.283545 28.5905 0.366685L27.3905 3.93969H23.4295C23.3155 3.93995 23.2065 3.98524 23.1265 4.06563C23.0465 4.14603 23.0005 4.25499 23.0005 4.36869C23.0005 4.39292 23.0035 4.41708 23.0085 4.44069C23.0145 4.50075 23.0335 4.55876 23.0645 4.6106C23.0955 4.66244 23.1375 4.70685 23.1875 4.74069L26.4255 7.02269L25.1835 10.6387C25.1545 10.7243 25.1525 10.817 25.1785 10.9035C25.2055 10.99 25.2585 11.066 25.3305 11.1207C25.3975 11.1791 25.4825 11.2142 25.5715 11.2207C25.6685 11.2128 25.7615 11.1782 25.8395 11.1207L29.0005 8.87669L32.1615 11.1297C32.2395 11.1884 32.3325 11.2232 32.4295 11.2297C32.5175 11.2248 32.6025 11.1894 32.6675 11.1297C32.7405 11.0756 32.7935 10.9996 32.8205 10.9128C32.8465 10.8261 32.8445 10.7332 32.8145 10.6477L31.5715 7.03469L34.7835 4.73469L34.8615 4.66769C34.9265 4.61007 34.9725 4.53314 34.9905 4.44806C35.0095 4.36298 35.0005 4.27417 34.9655 4.1945C34.9305 4.11483 34.8705 4.04845 34.7945 4.00497C34.7195 3.96149 34.6325 3.94318 34.5455 3.95269V3.93969Z" fill="#FEA216"/>
<path d="M47.5455 3.93969H43.6045L42.4045 0.366685C42.3735 0.283545 42.3185 0.211825 42.2455 0.161175C42.1725 0.110525 42.0865 0.083374 41.9975 0.083374C41.9085 0.083374 41.8225 0.110525 41.7495 0.161175C41.6765 0.211825 41.6215 0.283545 41.5905 0.366685L40.3905 3.93969H36.4295C36.3155 3.93995 36.2065 3.98524 36.1265 4.06563C36.0465 4.14603 36.0005 4.25499 36.0005 4.36869C36.0005 4.39292 36.0035 4.41708 36.0085 4.44069C36.0145 4.50075 36.0335 4.55876 36.0645 4.6106C36.0955 4.66244 36.1375 4.70685 36.1875 4.74069L39.4255 7.02269L38.1835 10.6387C38.1545 10.7243 38.1525 10.817 38.1785 10.9035C38.2055 10.99 38.2585 11.066 38.3305 11.1207C38.3975 11.1791 38.4825 11.2142 38.5715 11.2207C38.6685 11.2128 38.7615 11.1782 38.8395 11.1207L42.0005 8.87669L45.1615 11.1297C45.2395 11.1884 45.3325 11.2232 45.4295 11.2297C45.5175 11.2248 45.6025 11.1894 45.6675 11.1297C45.7405 11.0756 45.7935 10.9996 45.8205 10.9128C45.8465 10.8261 45.8445 10.7332 45.8145 10.6477L44.5715 7.03469L47.7835 4.73469L47.8615 4.66769C47.9265 4.61007 47.9725 4.53314 47.9905 4.44806C48.0095 4.36298 48.0005 4.27417 47.9655 4.1945C47.9305 4.11483 47.8705 4.04845 47.7945 4.00497C47.7195 3.96149 47.6325 3.94318 47.5455 3.95269V3.93969Z" fill="#FEA216"/>
<path d="M60.5455 3.93969H56.6045L55.4045 0.366685C55.3735 0.283545 55.3185 0.211825 55.2455 0.161175C55.1725 0.110525 55.0865 0.083374 54.9975 0.083374C54.9085 0.083374 54.8225 0.110525 54.7495 0.161175C54.6765 0.211825 54.6215 0.283545 54.5905 0.366685L53.3905 3.93969H49.4295C49.3155 3.93995 49.2065 3.98524 49.1265 4.06563C49.0465 4.14603 49.0005 4.25499 49.0005 4.36869C49.0005 4.39292 49.0035 4.41708 49.0085 4.44069C49.0145 4.50075 49.0335 4.55876 49.0645 4.6106C49.0955 4.66244 49.1375 4.70685 49.1875 4.74069L52.4255 7.02269L51.1835 10.6387C51.1545 10.7243 51.1525 10.817 51.1785 10.9035C51.2055 10.99 51.2585 11.066 51.3305 11.1207C51.3975 11.1791 51.4825 11.2142 51.5715 11.2207C51.6685 11.2128 51.7615 11.1782 51.8395 11.1207L55.0005 8.87669L58.1615 11.1297C58.2395 11.1884 58.3325 11.2232 58.4295 11.2297C58.5175 11.2248 58.6025 11.1894 58.6675 11.1297C58.7405 11.0756 58.7935 10.9996 58.8205 10.9128C58.8465 10.8261 58.8445 10.7332 58.8145 10.6477L57.5715 7.03469L60.7835 4.73469L60.8615 4.66769C60.9265 4.61007 60.9725 4.53314 60.9905 4.44806C61.0095 4.36298 61.0005 4.27417 60.9655 4.1945C60.9305 4.11483 60.8705 4.04845 60.7945 4.00497C60.7195 3.96149 60.6325 3.94318 60.5455 3.95269V3.93969Z" fill="#FEA216"/>
<path d="M73.5455 3.93969H69.6045L68.4045 0.366685C68.3735 0.283545 68.3185 0.211825 68.2455 0.161175C68.1725 0.110525 68.0865 0.083374 67.9975 0.083374C67.9085 0.083374 67.8225 0.110525 67.7495 0.161175C67.6765 0.211825 67.6215 0.283545 67.5905 0.366685L66.3905 3.93969H62.4295C62.3155 3.93995 62.2065 3.98524 62.1265 4.06563C62.0465 4.14603 62.0005 4.25499 62.0005 4.36869C62.0005 4.39292 62.0035 4.41708 62.0085 4.44069C62.0145 4.50075 62.0335 4.55876 62.0645 4.6106C62.0955 4.66244 62.1375 4.70685 62.1875 4.74069L65.4255 7.02269L64.1835 10.6387C64.1545 10.7243 64.1525 10.817 64.1785 10.9035C64.2055 10.99 64.2585 11.066 64.3305 11.1207C64.3975 11.1791 64.4825 11.2142 64.5715 11.2207C64.6685 11.2128 64.7615 11.1782 64.8395 11.1207L68.0005 8.87669L71.1615 11.1297C71.2395 11.1884 71.3325 11.2232 71.4295 11.2297C71.5175 11.2248 71.6025 11.1894 71.6675 11.1297C71.7405 11.0756 71.7935 10.9996 71.8205 10.9128C71.8465 10.8261 71.8445 10.7332 71.8145 10.6477L70.5715 7.03469L73.7835 4.73469L73.8615 4.66769C73.9265 4.61007 73.9725 4.53314 73.9905 4.44806C74.0095 4.36298 74.0005 4.27417 73.9655 4.1945C73.9305 4.11483 73.8705 4.04845 73.7945 4.00497C73.7195 3.96149 73.6325 3.94318 73.5455 3.95269V3.93969Z" fill="#FEA216"/>
<path d="M7.02744 13.1977C6.99944 13.1977 6.97244 13.1923 6.94644 13.1817C5.87744 12.6751 4.95344 11.9057 4.26244 10.9455C3.57144 9.98518 3.13444 8.8654 2.99344 7.69065C2.83844 6.77254 2.88744 5.83175 3.13444 4.9343C3.38244 4.03685 3.82344 3.20449 4.42744 2.49565C4.40044 1.91263 4.59544 1.34103 4.97244 0.895646C5.60144 0.453645 6.31744 0.149977 7.07244 0.00464607C7.10744 -0.00282993 7.14444 -0.00126393 7.17844 0.00920107C7.21244 0.0196651 7.24344 0.0386841 7.26844 0.0644721C7.29344 0.0902601 7.31144 0.121972 7.32144 0.156635C7.33044 0.191298 7.33144 0.227776 7.32244 0.262645C7.15244 1.01314 6.82444 1.71899 6.36144 2.33365C5.89044 2.70265 5.29644 2.87792 4.70044 2.82365C4.15844 3.49124 3.76444 4.26575 3.54344 5.09641C3.32144 5.92707 3.27844 6.79512 3.41644 7.64365C3.54844 8.74304 3.95644 9.79121 4.60244 10.6906C5.24744 11.59 6.11044 12.3114 7.11044 12.7877C7.15644 12.806 7.19444 12.8399 7.21844 12.8835C7.24244 12.9272 7.24944 12.9777 7.24044 13.0264C7.23044 13.075 7.20344 13.1187 7.16544 13.1499C7.12644 13.181 7.07844 13.1975 7.02844 13.1967L7.02744 13.1977Z" fill="#FEA216"/>
<path d="M2.91344 12.0916C2.27944 12.0131 1.66644 11.8156 1.10544 11.5096C1.07244 11.4922 1.04444 11.4664 1.02544 11.4348C1.00544 11.4033 0.994439 11.3671 0.993439 11.3299C0.991439 11.2927 1.00044 11.2558 1.01744 11.2229C1.03544 11.1901 1.06044 11.1624 1.09244 11.1426C1.64144 10.7864 2.25544 10.5433 2.89944 10.4276C3.42844 10.4613 3.92644 10.6883 4.29944 11.0656C4.33644 11.1033 4.35844 11.1536 4.36044 11.2065C4.36244 11.2594 4.34444 11.3112 4.31044 11.3516C3.96644 11.7559 3.48544 12.019 2.95944 12.0906L2.91344 12.0916Z" fill="#FEA216"/>
<path d="M4.82142 10.7636C4.78642 10.7636 4.75242 10.755 4.72142 10.7386C4.69142 10.7222 4.66442 10.6985 4.64542 10.6696C4.37042 10.2677 4.26242 9.77452 4.34542 9.29461C4.59742 8.76244 4.96542 8.29309 5.42142 7.92062C5.44842 7.89742 5.48042 7.8813 5.51542 7.87376C5.54942 7.86621 5.58542 7.86747 5.61942 7.87742C5.65342 7.88737 5.68442 7.90569 5.70942 7.9307C5.73442 7.95572 5.75342 7.98663 5.76342 8.02062C5.94042 8.58236 5.98942 9.17637 5.90842 9.75962C5.71542 10.2051 5.35642 10.5583 4.90842 10.7446C4.88142 10.7571 4.85142 10.7635 4.82142 10.7636Z" fill="#FEA216"/>
<path d="M2.02252 9.71166C1.87652 9.71288 1.73052 9.69094 1.59152 9.64666C1.00252 9.35474 0.47952 8.94652 0.0535198 8.44666C0.0285198 8.41896 0.0115198 8.38529 0.00451982 8.34901C-0.00348018 8.31274 -0.000480176 8.27513 0.0105198 8.23993C0.0225198 8.20473 0.0425198 8.17316 0.0705198 8.14837C0.0975198 8.12358 0.13152 8.10645 0.16752 8.09866C0.80652 7.94764 1.46852 7.92757 2.11552 8.03966C2.60352 8.25748 2.99352 8.64976 3.20752 9.13966C3.22852 9.18747 3.23152 9.24135 3.21452 9.29099C3.19852 9.34064 3.16452 9.38254 3.11952 9.40866C2.78252 9.59405 2.40652 9.69784 2.02252 9.71166Z" fill="#FEA216"/>
<path d="M3.71741 8.03658H3.69841C3.64741 8.03532 3.59841 8.01587 3.56141 7.98174C3.52341 7.94762 3.49841 7.90109 3.49241 7.85059C3.43141 7.37477 3.55341 6.89355 3.83441 6.50459C4.28341 6.131 4.80741 5.85817 5.37041 5.70458C5.40541 5.69414 5.44241 5.69286 5.47741 5.70088C5.51341 5.7089 5.54641 5.72594 5.57341 5.75037C5.60041 5.77479 5.62041 5.80576 5.63241 5.84031C5.64341 5.87485 5.64641 5.9118 5.63941 5.94759C5.54541 6.52329 5.32841 7.072 5.00341 7.55659C4.65141 7.87443 4.19141 8.04609 3.71741 8.03658Z" fill="#FEA216"/>
<path d="M2.57048 7.11167C2.05348 7.12844 1.54848 6.94994 1.15748 6.61167C0.779481 6.07148 0.517481 5.4585 0.388481 4.81167C0.380481 4.77614 0.382481 4.7392 0.392481 4.70442C0.403481 4.66964 0.422481 4.63818 0.449481 4.61307C0.475481 4.58796 0.507481 4.57004 0.543481 4.56104C0.578481 4.55204 0.615481 4.55226 0.650481 4.56167C1.29148 4.72187 1.89148 5.01373 2.41348 5.41867C2.73948 5.84709 2.89048 6.38305 2.83748 6.91867C2.83248 6.96917 2.80948 7.01623 2.77248 7.05128C2.73648 7.08632 2.68848 7.10704 2.63748 7.10967L2.57048 7.11167Z" fill="#FEA216"/>
<path d="M4.84455 5.10259C4.48955 5.08746 4.14355 4.98438 3.83755 4.80259C3.79255 4.77474 3.75955 4.7311 3.74555 4.68022C3.73055 4.62934 3.73555 4.5749 3.75955 4.52759C3.97055 4.10555 4.33055 3.77647 4.76955 3.60359C5.34155 3.52449 5.92255 3.56087 6.48055 3.71059C6.51655 3.71975 6.54955 3.73821 6.57655 3.76413C6.60255 3.79005 6.62255 3.82252 6.63255 3.85827C6.64255 3.89403 6.64255 3.93182 6.63355 3.96785C6.62455 4.00389 6.60655 4.03691 6.58055 4.06359C6.18455 4.4845 5.70855 4.82181 5.18055 5.05559C5.07155 5.08659 4.95855 5.10241 4.84455 5.10259Z" fill="#FEA216"/>
<path d="M3.10363 4.46661C3.07763 4.46661 3.05163 4.46187 3.02763 4.45261C2.52363 4.2593 2.11163 3.88141 1.87563 3.39561C1.75063 2.74618 1.76363 2.07788 1.91263 1.43361C1.91963 1.39807 1.93663 1.36504 1.96063 1.33769C1.98463 1.31035 2.01463 1.28961 2.04963 1.27747C2.08363 1.26532 2.12063 1.26217 2.15563 1.26833C2.19163 1.27448 2.22563 1.28973 2.25363 1.31261C2.77463 1.71905 3.20563 2.22998 3.51763 2.81261C3.64063 3.33833 3.55863 3.89104 3.28863 4.35861C3.26963 4.39142 3.24363 4.41872 3.21063 4.4377C3.17863 4.45668 3.14163 4.46665 3.10363 4.46661Z" fill="#FEA216"/>
<path d="M77.1735 13.1976C77.2015 13.1976 77.2285 13.1923 77.2545 13.1816C78.3235 12.6751 79.2475 11.9057 79.9385 10.9455C80.6295 9.98518 81.0665 8.86538 81.2075 7.69062C81.3625 6.77289 81.3145 5.83242 81.0675 4.93517C80.8195 4.03791 80.3795 3.20561 79.7765 2.49663C79.8035 1.91361 79.6085 1.34201 79.2315 0.896626C78.6025 0.454621 77.8865 0.150954 77.1315 0.00562233C77.0965 -0.00185367 77.0595 -0.000286672 77.0255 0.0101773C76.9915 0.0206423 76.9605 0.0396603 76.9355 0.0654483C76.9105 0.0912373 76.8925 0.122949 76.8825 0.157611C76.8735 0.192274 76.8725 0.228753 76.8815 0.263622C77.0515 1.01412 77.3795 1.71996 77.8425 2.33463C78.3135 2.70363 78.9075 2.8789 79.5035 2.82463C80.0445 3.49209 80.4395 4.26644 80.6605 5.09691C80.8815 5.92739 80.9255 6.79525 80.7875 7.64363C80.6555 8.74302 80.2475 9.79119 79.6015 10.6906C78.9565 11.59 78.0935 12.3114 77.0935 12.7876C77.0475 12.806 77.0095 12.8399 76.9855 12.8835C76.9615 12.9271 76.9545 12.9777 76.9635 13.0264C76.9735 13.075 77.0005 13.1187 77.0385 13.1498C77.0775 13.181 77.1255 13.1976 77.1755 13.1966L77.1735 13.1976Z" fill="#FEA216"/>
<path d="M81.2885 12.0907C81.9225 12.0121 82.5355 11.8146 83.0965 11.5087C83.1295 11.4912 83.1575 11.4654 83.1765 11.4338C83.1965 11.4023 83.2075 11.3661 83.2085 11.3289C83.2105 11.2917 83.2015 11.2548 83.1845 11.222C83.1665 11.1891 83.1415 11.1614 83.1095 11.1417C82.5605 10.7854 81.9465 10.5423 81.3025 10.4267C80.7735 10.4603 80.2755 10.6874 79.9025 11.0647C79.8655 11.1023 79.8435 11.1526 79.8415 11.2055C79.8395 11.2584 79.8575 11.3102 79.8915 11.3507C80.2355 11.7549 80.7165 12.018 81.2425 12.0897L81.2885 12.0907Z" fill="#FEA216"/>
<path d="M79.3805 10.7636C79.4155 10.7636 79.4495 10.755 79.4805 10.7386C79.5105 10.7222 79.5375 10.6985 79.5565 10.6696C79.8315 10.2677 79.9395 9.77452 79.8565 9.29461C79.6045 8.76242 79.2365 8.29307 78.7805 7.92062C78.7535 7.89742 78.7215 7.8813 78.6865 7.87376C78.6525 7.86621 78.6165 7.86747 78.5825 7.87742C78.5485 7.88737 78.5175 7.90569 78.4925 7.9307C78.4665 7.95572 78.4485 7.98663 78.4385 8.02062C78.2615 8.58236 78.2125 9.17637 78.2935 9.75962C78.4865 10.2051 78.8455 10.5583 79.2935 10.7446C79.3205 10.7571 79.3505 10.7635 79.3805 10.7636Z" fill="#FEA216"/>
<path d="M82.1766 9.71166C82.3226 9.71288 82.4686 9.69094 82.6076 9.64666C83.1966 9.35474 83.7196 8.94652 84.1456 8.44666C84.1706 8.41896 84.1866 8.38529 84.1946 8.34901C84.2026 8.31274 84.1996 8.27513 84.1886 8.23993C84.1766 8.20473 84.1566 8.17316 84.1286 8.14837C84.1016 8.12358 84.0676 8.10645 84.0316 8.09866C83.3926 7.94764 82.7306 7.92757 82.0836 8.03966C81.5956 8.25748 81.2056 8.64976 80.9916 9.13966C80.9706 9.18747 80.9676 9.24135 80.9846 9.29099C81.0006 9.34064 81.0346 9.38254 81.0796 9.40866C81.4166 9.59405 81.7926 9.69784 82.1766 9.71166Z" fill="#FEA216"/>
<path d="M80.4856 8.03658H80.5046C80.5556 8.03532 80.6046 8.01587 80.6416 7.98174C80.6796 7.94762 80.7046 7.90109 80.7106 7.85059C80.7716 7.37477 80.6496 6.89355 80.3686 6.50459C79.9196 6.131 79.3956 5.85817 78.8326 5.70458C78.7976 5.69414 78.7606 5.69286 78.7256 5.70088C78.6896 5.7089 78.6566 5.72594 78.6296 5.75037C78.6026 5.77479 78.5826 5.80576 78.5706 5.84031C78.5596 5.87485 78.5566 5.9118 78.5636 5.94759C78.6576 6.52329 78.8746 7.072 79.1996 7.55659C79.5516 7.87443 80.0116 8.04609 80.4856 8.03658Z" fill="#FEA216"/>
<path d="M81.6365 7.11167C82.1535 7.12844 82.6585 6.94994 83.0495 6.61167C83.4275 6.07148 83.6895 5.4585 83.8185 4.81167C83.8265 4.77614 83.8245 4.7392 83.8145 4.70442C83.8035 4.66964 83.7845 4.63818 83.7575 4.61307C83.7315 4.58796 83.6995 4.57004 83.6635 4.56104C83.6285 4.55204 83.5915 4.55226 83.5565 4.56167C82.9155 4.72187 82.3155 5.01373 81.7935 5.41867C81.4675 5.84709 81.3165 6.38305 81.3695 6.91867C81.3745 6.96917 81.3975 7.01623 81.4345 7.05128C81.4705 7.08632 81.5185 7.10704 81.5695 7.10967L81.6365 7.11167Z" fill="#FEA216"/>
<path d="M79.3615 5.10257C79.7145 5.0866 80.0575 4.9839 80.3615 4.80357C80.4065 4.77572 80.4395 4.73207 80.4535 4.68119C80.4685 4.63031 80.4635 4.57587 80.4395 4.52857C80.2285 4.10653 79.8685 3.77745 79.4295 3.60457C78.8575 3.52547 78.2755 3.56185 77.7185 3.71156C77.6825 3.72072 77.6495 3.73919 77.6225 3.76511C77.5965 3.79103 77.5765 3.82349 77.5665 3.85925C77.5565 3.895 77.5565 3.93279 77.5655 3.96883C77.5745 4.00486 77.5925 4.03788 77.6185 4.06457C78.0145 4.48548 78.4905 4.82279 79.0185 5.05657C79.1305 5.08787 79.2455 5.10336 79.3615 5.10257Z" fill="#FEA216"/>
<path d="M81.0975 4.46661C81.1235 4.46661 81.1495 4.46187 81.1735 4.45261C81.6775 4.2593 82.0895 3.88141 82.3255 3.39561C82.4505 2.74618 82.4375 2.07788 82.2885 1.43361C82.2815 1.39807 82.2645 1.36504 82.2405 1.33769C82.2165 1.31035 82.1865 1.28961 82.1515 1.27747C82.1175 1.26532 82.0805 1.26217 82.0455 1.26833C82.0095 1.27448 81.9755 1.28973 81.9475 1.31261C81.4265 1.71905 80.9955 2.22998 80.6835 2.81261C80.5605 3.33833 80.6425 3.89104 80.9125 4.35861C80.9305 4.39142 80.9575 4.41872 80.9905 4.4377C81.0225 4.45668 81.0595 4.46665 81.0975 4.46661Z" fill="#FEA216"/>
</svg>
