<svg width="48" height="49" viewBox="0 0 48 49" fill="none" xmlns="http://www.w3.org/2000/svg">
<path d="M17.284 1.89853e-07C16.499 2.44034e-05 15.7294 0.218164 15.0612 0.63008C14.3929 1.042 13.8523 1.63148 13.4996 2.33277L11.8333 5.64836H7.06045C5.1879 5.64836 3.39205 6.39222 2.06796 7.71631C0.743866 9.0404 0 10.8363 0 12.7088V35.3022C0 37.1748 0.743866 38.9706 2.06796 40.2947C3.39205 41.6188 5.1879 42.3627 7.06045 42.3627H21.4525C20.9906 41.46 20.6188 40.5141 20.3426 39.5385H7.06327C5.93974 39.5385 4.86223 39.0922 4.06778 38.2977C3.27332 37.5033 2.827 36.4258 2.827 35.3022V12.7088C2.827 11.5853 3.27332 10.5078 4.06778 9.71331C4.86223 8.91885 5.93974 8.47254 7.06327 8.47254H12.706C12.9675 8.472 13.2238 8.39884 13.4462 8.26121C13.6686 8.12358 13.8484 7.92689 13.9656 7.69306L16.0216 3.60083C16.1393 3.3671 16.3198 3.1707 16.5427 3.03356C16.7656 2.89641 17.0222 2.82392 17.284 2.82418H27.9142C28.1767 2.82366 28.4341 2.89633 28.6576 3.03402C28.8811 3.17171 29.0618 3.36897 29.1794 3.60365L31.2213 7.69024C31.3387 7.9245 31.5189 8.12147 31.7419 8.25913C31.9648 8.39679 32.2217 8.4697 32.4837 8.46971H38.1292C39.2528 8.46971 40.3303 8.91603 41.1247 9.71048C41.9192 10.5049 42.3655 11.5825 42.3655 12.706V21.4694C43.3766 21.9862 44.3227 22.6132 45.1897 23.3305V12.706C45.1897 10.8334 44.4458 9.03758 43.1217 7.71349C41.7976 6.3894 40.0018 5.64553 38.1292 5.64553H33.3564L31.7042 2.34124C31.3522 1.63752 30.8112 1.04572 30.1418 0.632201C29.4724 0.218677 28.701 -0.000235338 27.9142 1.89853e-07H17.284Z" fill="#C1C6C9"/>
<path d="M22.5825 11.2969C25.1043 11.297 27.5536 12.1405 29.5408 13.6932C31.528 15.2458 32.9388 17.4185 33.5487 19.8654C32.6097 19.9705 31.6823 20.1614 30.7782 20.4359C30.3987 18.9941 29.6456 17.6779 28.5949 16.6201C27.5442 15.5624 26.233 14.8005 24.7937 14.4114C23.3545 14.0224 21.838 14.0198 20.3975 14.4041C18.9569 14.7884 17.6433 15.5459 16.589 16.6001C15.5348 17.6544 14.7773 18.9681 14.393 20.4086C14.0087 21.8492 14.0112 23.3656 14.4003 24.8049C14.7894 26.2441 15.5513 27.5553 16.609 28.606C17.6668 29.6568 18.983 30.4099 20.4248 30.7894C20.1505 31.6926 19.9596 32.619 19.8543 33.557C17.1858 32.8827 14.855 31.2578 13.2994 28.9871C11.7438 26.7165 11.0702 23.9562 11.405 21.2243C11.7398 18.4923 13.0601 15.9764 15.118 14.1486C17.1759 12.3209 19.8301 11.3069 22.5825 11.2969Z" fill="#C1C6C9"/>
<path d="M47.9999 35.3026C47.9999 38.6731 46.6609 41.9057 44.2776 44.289C41.8942 46.6724 38.6617 48.0114 35.2911 48.0114C31.9205 48.0114 28.688 46.6724 26.3046 44.289C23.9212 41.9057 22.5823 38.6731 22.5823 35.3026C22.5823 31.932 23.9212 28.6994 26.3046 26.3161C28.688 23.9327 31.9205 22.5938 35.2911 22.5938C38.6617 22.5938 41.8942 23.9327 44.2776 26.3161C46.6609 28.6994 47.9999 31.932 47.9999 35.3026ZM36.7032 29.6542C36.7032 29.2797 36.5544 28.9205 36.2896 28.6557C36.0248 28.3909 35.6656 28.2421 35.2911 28.2421C34.9166 28.2421 34.5574 28.3909 34.2926 28.6557C34.0278 28.9205 33.879 29.2797 33.879 29.6542V33.8905H29.6427C29.2682 33.8905 28.909 34.0392 28.6442 34.3041C28.3794 34.5689 28.2306 34.928 28.2306 35.3026C28.2306 35.6771 28.3794 36.0362 28.6442 36.3011C28.909 36.5659 29.2682 36.7146 29.6427 36.7146H33.879V40.9509C33.879 41.3254 34.0278 41.6846 34.2926 41.9494C34.5574 42.2142 34.9166 42.363 35.2911 42.363C35.6656 42.363 36.0248 42.2142 36.2896 41.9494C36.5544 41.6846 36.7032 41.3254 36.7032 40.9509V36.7146H40.9394C41.3139 36.7146 41.6731 36.5659 41.9379 36.3011C42.2028 36.0362 42.3515 35.6771 42.3515 35.3026C42.3515 34.928 42.2028 34.5689 41.9379 34.3041C41.6731 34.0392 41.3139 33.8905 40.9394 33.8905H36.7032V29.6542Z" fill="#C1C6C9"/>
</svg>
