<svg width="26" height="26" viewBox="0 0 26 26" fill="none" xmlns="http://www.w3.org/2000/svg">
<path d="M21.9032 1H4.09677C2.38647 1 1 2.3674 1 4.05417V21.9458C1 23.6326 2.38647 25 4.09677 25H21.9032C23.6135 25 25 23.6326 25 21.9458V4.05417C25 2.3674 23.6135 1 21.9032 1Z" stroke="#899296"/>
<path fill-rule="evenodd" clip-rule="evenodd" d="M14.3849 6C14.4149 6 14.4444 6.00253 14.4731 6.00739L14.5689 6.00798C14.7117 6.00798 14.8482 6.06608 14.9476 6.16898L18.4931 9.86288C18.5869 9.96018 18.6395 10.0911 18.6395 10.2262V16.6424C18.652 18.3987 17.2842 19.8337 15.5251 19.9051L9.9118 19.9058H9.8355C8.12054 19.867 6.74512 18.48 6.70321 16.7818L6.703 9.14328C6.7436 7.40658 8.1779 6.00798 9.902 6.00798L14.2966 6.00739C14.3253 6.00253 14.3548 6 14.3849 6ZM13.8598 7.0577L9.9034 7.05798C8.7435 7.05798 7.7803 7.99738 7.753 9.15588V16.6424C7.7271 17.8415 8.6721 18.8292 9.8593 18.8558H15.5041C16.6724 18.8075 17.5978 17.8366 17.5895 16.6466L17.5894 10.8881L16.1825 10.8888C14.9015 10.8853 13.8599 9.8409 13.8599 8.5613L13.8598 7.0577ZM14.2541 14.8257C14.5439 14.8257 14.7791 15.0609 14.7791 15.3507C14.7791 15.6405 14.5439 15.8757 14.2541 15.8757H10.4741C10.1843 15.8757 9.94911 15.6405 9.94911 15.3507C9.94911 15.0609 10.1843 14.8257 10.4741 14.8257H14.2541ZM12.8227 12.1993C13.1125 12.1993 13.3477 12.4345 13.3477 12.7243C13.3477 13.0141 13.1125 13.2493 12.8227 13.2493H10.4735C10.1837 13.2493 9.94848 13.0141 9.94848 12.7243C9.94848 12.4345 10.1837 12.1993 10.4735 12.1993H12.8227ZM14.9098 7.6464L14.9099 8.5613C14.9099 9.2641 15.4818 9.8367 16.1839 9.8388L17.014 9.8381L14.9098 7.6464Z" fill="#899296"/>
</svg>
