<svg width="16" height="16" viewBox="0 0 16 16" fill="none" xmlns="http://www.w3.org/2000/svg">
<path d="M9.07529 16C9.51255 16 9.81595 15.7864 9.90519 15.384L10.7797 11.4004H13.9654C14.4473 11.4004 14.7953 11.0719 14.7953 10.6283C14.7953 10.2669 14.5187 9.97125 14.126 9.97125H11.092L12.0468 5.6345H15.1701C15.6609 5.6345 16 5.30595 16 4.86242C16 4.50103 15.7323 4.20534 15.3307 4.20534H12.3592L13.0909 0.895277C13.0998 0.845996 13.1177 0.73922 13.1177 0.632444C13.1177 0.22998 12.7964 0 12.377 0C11.8684 0 11.6453 0.25462 11.565 0.640657L10.7797 4.20534H6.55884L7.28165 0.895277C7.2995 0.845996 7.31735 0.73922 7.31735 0.632444C7.31735 0.22998 6.9961 0 6.56776 0C6.06804 0 5.83603 0.25462 5.75572 0.640657L4.97044 4.20534H2.03458C1.55271 4.20534 1.20468 4.55031 1.20468 5.00205C1.20468 5.37166 1.48132 5.6345 1.87395 5.6345H4.65811L3.70329 9.97125H0.829894C0.339097 9.97125 0 10.3162 0 10.768C0 11.1376 0.267708 11.4004 0.669269 11.4004H3.39096L2.57892 15.1129C2.56107 15.1951 2.54322 15.2936 2.54322 15.3758C2.54322 15.7782 2.84663 16 3.27496 16C3.70329 16 4.01562 15.7864 4.10485 15.384L4.97936 11.4004H9.20022L8.37925 15.1129C8.36141 15.1951 8.35248 15.2936 8.35248 15.3758C8.35248 15.7782 8.65588 16 9.07529 16ZM9.51255 9.97125H5.29169L6.24651 5.6345H10.4674L9.51255 9.97125Z" fill="#C1C6C9"/>
</svg>
