<svg width="177" height="128" viewBox="0 0 177 128" fill="none" xmlns="http://www.w3.org/2000/svg">
<path opacity="0.3" fill-rule="evenodd" clip-rule="evenodd" d="M97.8316 51C100.982 51 103.535 53.543 103.535 56.68C103.535 59.817 100.982 62.3601 97.8316 62.3601H149.98C153.13 62.3601 155.683 64.9031 155.683 68.0401C155.683 71.1771 153.13 73.7201 149.98 73.7201H167.906C171.056 73.7201 173.609 76.2632 173.609 79.4002C173.609 82.5372 171.056 85.0802 167.906 85.0802H152.424C149.274 85.0802 146.721 87.6233 146.721 90.7603C146.721 93.8973 149.274 96.4403 152.424 96.4403H157.313C160.463 96.4403 163.017 98.9833 163.017 102.12C163.017 105.257 160.463 107.8 157.313 107.8H114.943C114.523 107.8 114.114 107.755 113.721 107.67C113.327 107.755 112.918 107.8 112.498 107.8H38.3501C35.2001 107.8 32.6464 105.257 32.6464 102.12C32.6464 98.9833 35.2001 96.4403 38.3501 96.4403H6.57236C3.42229 96.4403 0.868652 93.8973 0.868652 90.7603C0.868652 87.6233 3.42229 85.0802 6.57236 85.0802H39.1649C42.315 85.0802 44.8687 82.5372 44.8687 79.4002C44.8687 76.2632 42.315 73.7201 39.1649 73.7201H18.7946C15.6445 73.7201 13.0909 71.1771 13.0909 68.0401C13.0909 64.9031 15.6445 62.3601 18.7946 62.3601H51.3872C48.2371 62.3601 45.6835 59.817 45.6835 56.68C45.6835 53.543 48.2371 51 51.3872 51H97.8316ZM171.165 96.4403C174.315 96.4403 176.869 98.9833 176.869 102.12C176.869 105.257 174.315 107.8 171.165 107.8C168.015 107.8 165.461 105.257 165.461 102.12C165.461 98.9833 168.015 96.4403 171.165 96.4403Z" fill="#C1C6C9"/>
<path d="M144.531 33.8828H126.531C125.979 33.8828 125.531 34.3305 125.531 34.8828C125.531 35.4351 125.979 35.8828 126.531 35.8828H144.531C145.083 35.8828 145.531 35.4351 145.531 34.8828C145.531 34.3305 145.083 33.8828 144.531 33.8828Z" fill="#C1C6C9"/>
<path d="M24.8687 42.4277H6.86865C6.31637 42.4277 5.86865 42.8754 5.86865 43.4277C5.86865 43.98 6.31637 44.4277 6.86865 44.4277H24.8687C25.4209 44.4277 25.8687 43.98 25.8687 43.4277C25.8687 42.8754 25.4209 42.4277 24.8687 42.4277Z" fill="#C1C6C9"/>
<path d="M158.531 33.8828H150.531C149.979 33.8828 149.531 34.3305 149.531 34.8828C149.531 35.4351 149.979 35.8828 150.531 35.8828H158.531C159.083 35.8828 159.531 35.4351 159.531 34.8828C159.531 34.3305 159.083 33.8828 158.531 33.8828Z" fill="#C1C6C9"/>
<path d="M139.531 41.2207H131.531C130.979 41.2207 130.531 41.6684 130.531 42.2207C130.531 42.773 130.979 43.2207 131.531 43.2207H139.531C140.083 43.2207 140.531 42.773 140.531 42.2207C140.531 41.6684 140.083 41.2207 139.531 41.2207Z" fill="#C1C6C9"/>
<path d="M19.8687 49.7656H11.8687C11.3164 49.7656 10.8687 50.2133 10.8687 50.7656C10.8687 51.3179 11.3164 51.7656 11.8687 51.7656H19.8687C20.4209 51.7656 20.8687 51.3179 20.8687 50.7656C20.8687 50.2133 20.4209 49.7656 19.8687 49.7656Z" fill="#C1C6C9"/>
<path d="M153 63.5004C153 71.5085 128.823 78.0004 99 78.0004C69.1766 78.0004 45 71.5085 45 63.5004C45 55.4923 69.1766 49.0004 99 49.0004C128.823 49.0004 153 55.4923 153 63.5004Z" fill="#F7F7F7"/>
<path d="M153.831 65.1478C154.512 62.165 153.564 59.1438 151.231 56.8527C149.873 55.5201 148.126 54.5068 146.038 53.8401C138.973 51.5901 128.728 50.0005 117.068 49.2603L105.668 35.2751L110.265 35.2316L110.224 30.596L101.917 30.6711L90.0302 16.0919L95.5409 16.0413L95.4983 11.402L86.2781 11.4892L77.5806 0.818603C75.4333 -1.81651 69.9504 4.69922 71.4699 8.75797L86.6634 49.32C75.3405 50.0516 59.3123 51.8073 49.9174 55.9955L38.9719 42.5693C38.2303 41.6633 36.3462 43.9009 36.8689 45.2969C40.2326 54.2721 41.9961 58.9841 42.9232 61.4605C42.8361 61.6276 42.7685 61.8018 42.6985 61.9737C37.5478 62.5053 34.1045 63.3637 34.1169 64.3092C34.1267 65.245 37.5657 66.0353 42.7058 66.4675C42.7803 66.6465 42.8608 66.8291 42.9584 67.0139L37.214 83.2446C36.7171 84.6525 38.6468 86.8526 39.3679 85.9343L50.0373 72.3496C58.3299 75.8144 72.457 77.7446 86.9073 78.373L72.4829 119.134C71.0334 123.228 76.6424 129.639 78.7434 126.962L87.2445 116.133L96.4611 116.049L96.4184 111.41L90.9113 111.462L102.53 96.6653L110.829 96.5902L110.787 91.9498L106.195 91.9932L117.331 77.8081C128.979 76.8562 139.192 75.0787 146.212 72.6968C150.276 71.3144 153.052 68.5624 153.831 65.1478ZM145.153 69.5782C135.498 72.8547 118.756 75.1293 99.7891 75.3011C79.3023 75.4918 61.389 73.1812 52.1574 69.6437L54.3964 66.7947C64.1048 66.6023 71.8042 65.3589 71.8011 63.9556C71.7833 62.5476 64.0587 61.4472 54.3459 61.4333L52.0427 58.6066C61.2138 54.9084 79.106 52.2786 99.5783 52.0904C118.544 51.9174 135.324 53.8827 145.038 56.9775C146.693 57.5074 147.989 58.2845 148.925 59.2034C152.271 62.4854 151.027 67.582 145.153 69.5782Z" fill="#899296"/>
<path d="M141.438 56.9974L134.94 55.5422C137.409 56.7152 139.147 59.9732 139.462 62.5705L145.877 62.5128C145.553 60.1717 143.86 58.1721 141.438 56.9974Z" fill="#899296"/>
<path d="M139.476 64.0857C139.207 66.6871 137.529 69.9765 135.084 71.1935L141.554 69.6191C143.955 68.3989 145.609 66.3685 145.891 64.0255L139.476 64.0857Z" fill="#899296"/>
</svg>
