<svg width="14" height="20" viewBox="0 0 14 20" fill="none" xmlns="http://www.w3.org/2000/svg">
<path d="M7.00006 0.644531C6.2803 0.644531 5.56759 0.786301 4.90262 1.06175C4.23766 1.33719 3.63345 1.74092 3.12451 2.24987C2.61557 2.75882 2.21187 3.36304 1.93644 4.02802C1.66102 4.69299 1.51927 5.40571 1.51929 6.12547C1.51929 10.0005 7.00006 17.3984 7.00006 17.3984C7.00006 17.3984 12.4808 10.4053 12.4808 6.12547C12.4809 5.40571 12.3391 4.69299 12.0637 4.02802C11.7883 3.36304 11.3846 2.75882 10.8756 2.24987C10.3667 1.74092 9.76247 1.33719 9.0975 1.06175C8.43253 0.786301 7.71982 0.644531 7.00006 0.644531ZM7.00006 9.16015C6.39993 9.16019 5.81326 8.98226 5.31425 8.64887C4.81523 8.31548 4.42629 7.8416 4.19659 7.28717C3.96689 6.73273 3.90676 6.12263 4.0238 5.53401C4.14084 4.9454 4.42979 4.40471 4.85412 3.98032C5.27844 3.55593 5.81909 3.26689 6.40768 3.14976C6.99628 3.03263 7.60638 3.09267 8.16086 3.32228C8.71533 3.55189 9.18927 3.94077 9.52273 4.43973C9.8562 4.93869 10.0342 5.52533 10.0343 6.12547C10.0343 6.93019 9.7146 7.70196 9.14558 8.27098C8.57655 8.84001 7.80479 9.15969 7.00006 9.15969V9.16015Z" fill="#EF3C49"/>
<path d="M7.0001 19.1597C4.43369 19.1597 0.615723 18.692 0.615723 17.4034C0.615723 16.5112 2.36713 16.0708 3.83635 15.8581C3.90722 15.8497 3.97857 15.8693 4.03518 15.9128C4.0918 15.9562 4.12919 16.0201 4.13938 16.0907C4.14957 16.1614 4.13176 16.2332 4.08974 16.2909C4.04773 16.3486 3.98483 16.3876 3.91447 16.3995C1.90947 16.6895 1.16244 17.1692 1.16244 17.4034C1.16244 17.8139 3.22275 18.6128 6.99994 18.6128C10.7771 18.6128 12.8374 17.8139 12.8374 17.4034C12.8374 17.1847 12.0757 16.6398 9.7215 16.3509C9.65082 16.3406 9.587 16.303 9.54368 16.2461C9.50036 16.1893 9.48097 16.1179 9.48967 16.0469C9.49836 15.976 9.53444 15.9113 9.5902 15.8667C9.64596 15.822 9.71697 15.801 9.78807 15.808C11.1318 15.973 13.3843 16.3994 13.3843 17.4034C13.3845 18.692 9.5665 19.1597 7.0001 19.1597Z" fill="#35D0BA"/>
</svg>
