<svg xmlns="http://www.w3.org/2000/svg" width="216" height="19" viewBox="0 0 216 19">
    <g fill="none" fill-rule="evenodd">
        <g fill="#3D3F40" fill-rule="nonzero">
            <g>
                <path d="M113.504 47l-5.352-16.944H104L109.928 47h3.576zm.36-.984l5.592-15.96h-4.104l-3.24 10.44 1.752 5.52zm20.784.984L124.52 30.056h-3.648L131.048 47h3.6zm0-1.248V30.056h-3.792l.144 9.552 3.648 6.144zM124.688 47l-.168-9.696-3.648-6.12V47h3.816zm15.768-13.8v-3.144h-4.44V33.2h4.44zm4.44 13.8V30.056h-3.84V47h3.84zm5.088-13.8v-3.144h-4.464V33.2h4.464zM155.12 47V30.056h-3.816V47h3.816zm10.368 0c-.592-.816-.992-1.896-1.2-3.24-.288-1.872-.568-3.056-.84-3.552-.368-.688-.968-1.144-1.8-1.368.192-.016.36-.048.504-.096.656-.208 1.208-.6 1.656-1.176.576-.736.864-1.688.864-2.856 0-1.088-.28-2.012-.84-2.772-.56-.76-1.336-1.292-2.328-1.596-.496-.144-1.096-.232-1.8-.264-.352-.016-.768-.024-1.248-.024h-2.688v3.192h2.112c1.408 0 2.304.264 2.688.792.256.352.384.76.384 1.224 0 .512-.112.952-.336 1.32-.448.72-1.248 1.08-2.4 1.08h-2.448v3.096h1.776c1.152 0 1.904.24 2.256.72.224.304.4.76.528 1.368.016.08.088.568.216 1.464.128.832.304 1.496.528 1.992.16.32.288.552.384.696h4.032zm4.68 0l3.192-10.848c.256-1.056.44-1.848.552-2.376.24 1.184.432 2.008.576 2.472l1.224 4.032h-2.904l-.912 3.12h4.752l1.104 3.6h4.296l-6-16.944h-4.32L165.872 47h4.296zm21.36 0l-5.352-16.944h-4.152L187.952 47h3.576zm.36-.984l5.592-15.96h-4.104l-3.24 10.44 1.752 5.52zm10.8.984V30.056h-3.84V47h3.84zm8.568-13.848v-3.096h-7.92v3.096h7.92zm-.624 6.432v-3.048h-7.296v3.048h7.296zM211.4 47v-3.12h-8.064V47h8.064zm5.808 0V30.056h-3.84V47h3.84zm8.04 0v-3.168h-7.44V47h7.44zm15.648.408c2.736 0 4.664-.816 5.784-2.448.592-.864.888-1.872.888-3.024 0-1.232-.336-2.264-1.008-3.096-.272-.272-.504-.48-.696-.624-.8-.592-2.024-1.088-3.672-1.488l-2.616-.624c-.944-.224-1.536-.52-1.776-.888-.16-.224-.24-.48-.24-.768-.016-1.072.744-1.64 2.28-1.704.224-.016.352-.024.384-.024l.024-3.048c-1.024.016-1.904.12-2.64.312-1.232.32-2.176.864-2.832 1.632-.72.848-1.08 1.88-1.08 3.096 0 2.016.928 3.456 2.784 4.32.624.288 1.248.504 1.872.648l3.432.792c.768.176 1.304.488 1.608.936.176.256.264.552.264.888 0 .912-.544 1.504-1.632 1.776-.384.096-.76.144-1.128.144v3.192zm2.616-12.12l3.768-.264c-.224-1.76-.808-3.048-1.752-3.864-1.152-.992-2.696-1.488-4.632-1.488l-.024 3.096c.32 0 .688.08 1.104.24.416.16.72.344.912.552.416.448.624 1.024.624 1.728zm-3.288 12.168l.024-3.192c-1.152-.112-1.992-.416-2.52-.912-.304-.288-.52-.656-.648-1.104-.048-.192-.088-.456-.12-.792l-3.792.192c.064 1.856.68 3.28 1.848 4.272.832.704 1.976 1.168 3.432 1.392.624.096 1.216.144 1.776.144zm17.832-.144c2.944-.16 5.136-1.328 6.576-3.504 1.008-1.52 1.512-3.312 1.512-5.376 0-2.944-.944-5.24-2.832-6.888-.88-.768-1.896-1.312-3.048-1.632-.576-.16-1.312-.272-2.208-.336v3.24c.672.08 1.256.256 1.752.528.368.208.712.496 1.032.864.864 1.008 1.296 2.432 1.296 4.272 0 1.744-.4 3.12-1.2 4.128-.64.8-1.6 1.288-2.88 1.464v3.24zm-.648 0v-3.24c-.848-.112-1.512-.336-1.992-.672-1.376-.96-2.072-2.616-2.088-4.968-.016-2.368.704-4.024 2.16-4.968.512-.336 1.152-.552 1.92-.648V29.6c-2.496.064-4.48.936-5.952 2.616-1.424 1.616-2.136 3.688-2.136 6.216 0 2.096.536 3.928 1.608 5.496 1.504 2.208 3.664 3.336 6.48 3.384zm18.528.048l.024-3.216c-.512-.016-.968-.112-1.368-.288-1.36-.56-2.216-1.712-2.568-3.456-.096-.48-.144-1.032-.144-1.656 0-3.632 1.352-5.584 4.056-5.856l.024-3.144c-2.944.08-5.16 1.208-6.648 3.384-1.024 1.504-1.536 3.296-1.536 5.376 0 3.248 1.136 5.704 3.408 7.368.832.608 1.76 1.024 2.784 1.248.464.112 1.12.192 1.968.24zm3.792-11.88l3.84-.288c-.128-.736-.328-1.368-.6-1.896-.352-.704-.88-1.344-1.584-1.92-1.248-1.04-2.84-1.584-4.776-1.632v3.144c1.04.096 1.848.48 2.424 1.152.224.256.392.528.504.816.064.16.128.368.192.624zm-3.12 11.88c2.688-.176 4.64-1.064 5.856-2.664.448-.592.792-1.248 1.032-1.968.112-.352.224-.824.336-1.416l-3.984-.24c-.032.352-.096.648-.192.888-.352.944-1.008 1.592-1.968 1.944-.304.112-.664.192-1.08.24v3.216zM289.16 47V30.056h-3.816V47h3.816zm5.52 0l3.192-10.848c.256-1.056.44-1.848.552-2.376.24 1.184.432 2.008.576 2.472l1.224 4.032h-2.904l-.912 3.12h4.752l1.104 3.6h4.296l-6-16.944h-4.32L290.384 47h4.296zm17.04 0V30.056h-3.84V47h3.84zm8.04 0v-3.168h-7.44V47h7.44z" transform="translate(-204 -193) translate(100 164)"/>
            </g>
        </g>
    </g>
</svg>
