<svg width="87" height="28" viewBox="0 0 87 28" fill="none" xmlns="http://www.w3.org/2000/svg">
<path d="M86.6303 12.3407C86.6411 13.0679 86.4651 13.7858 86.1192 14.4257C85.8256 14.974 85.4014 15.4416 84.8841 15.7873C84.4088 16.1695 83.8568 16.4452 83.2656 16.5958C82.7109 16.7479 82.1371 16.8195 81.562 16.8086H68.231C68.3894 17.4262 68.6964 17.9959 69.1254 18.468C69.5147 18.9102 69.9754 19.2842 70.4883 19.5744C71.1976 19.9411 71.9902 20.1171 72.7882 20.085C73.2542 20.1531 73.7277 20.1531 74.1937 20.085L75.5566 19.5744L76.9196 19.0637C77.4143 18.9986 77.9155 18.9986 78.4102 19.0637C79.1386 19.048 79.8627 19.1782 80.5398 19.4467C81.1547 19.7509 81.7158 20.1533 82.2008 20.6381L84.3304 22.7231C82.8227 24.404 80.9804 25.7518 78.9213 26.6803C77.0541 27.55 75.0188 28.0003 72.9586 27.9994C71.1019 28.0166 69.2612 27.6546 67.5495 26.9356C65.9616 26.2076 64.5186 25.1985 63.2904 23.9571C62.0579 22.7308 61.0618 21.2884 60.3516 19.702C59.5988 18.0159 59.221 16.1867 59.2443 14.3406C59.1366 12.3409 59.5014 10.344 60.3091 8.51114C61.029 6.93027 62.024 5.48957 63.2478 4.25606C64.4778 3.02769 65.9209 2.03285 67.5069 1.32005C69.2427 0.463776 71.1505 0.0127297 73.0864 0.000976562C74.6447 0.0046375 76.1892 0.293056 77.6436 0.851993C79.0852 1.41454 80.4346 2.189 81.6472 3.14974C82.8211 4.13817 83.853 5.28365 84.7137 6.5538C85.558 7.85486 86.1638 9.2957 86.5025 10.8089C86.5255 11.1205 86.5255 11.4334 86.5025 11.745C86.5877 11.9578 86.6303 12.1705 86.6303 12.3407ZM78.1121 10.8514C77.8195 10.2279 77.4315 9.65372 76.9621 9.1494C76.5218 8.68031 76.0029 8.29153 75.4289 8.00053C74.7007 7.64402 73.897 7.46883 73.0864 7.48992C72.2378 7.46299 71.3982 7.66903 70.6587 8.08563C70.0633 8.43427 69.5306 8.88014 69.0828 9.40471C68.7342 9.84593 68.4476 10.3327 68.231 10.8514H78.1121Z" fill="#7E57C2"/>
<path d="M33.3911 0.25647C32.9333 0.850214 32.3703 1.355 31.7301 1.74575C30.9059 2.31676 29.9564 2.68159 28.9617 2.80952V6.72419H31.6023V27.1486H39.865V0.25647H33.3911Z" fill="#00ACA0"/>
<path d="M55.9646 7.14982C55.5589 5.753 54.8783 4.45107 53.9628 3.32024C53.1114 2.2537 52.0158 1.40727 50.7685 0.852295C49.4258 0.268342 47.9736 -0.0218257 46.5094 0.00127901C45.6711 0.000328922 44.8377 0.129523 44.0391 0.384236C43.2619 0.614269 42.5176 0.943189 41.8244 1.36291C41.1819 1.73376 40.5942 2.19202 40.0781 2.72453V11.5326C40.1005 11.1283 40.2171 10.7348 40.4189 10.3837C40.7468 9.93107 41.168 9.55384 41.654 9.27736C42.2016 8.92087 42.8068 8.66174 43.4428 8.51144C44.1247 8.33744 44.8261 8.25164 45.5298 8.25614C45.8265 8.21586 46.1274 8.21586 46.4242 8.25614C46.7776 8.35581 47.0906 8.56426 47.3186 8.85185C47.6447 9.22347 47.8911 9.65791 48.0426 10.1284C48.232 10.8791 48.318 11.6522 48.2982 12.4261V27.1913H56.8164V12.2134C56.7904 10.4922 56.5032 8.78492 55.9646 7.14982Z" fill="#7E57C2"/>
<path d="M13.8846 0.00159117C11.1433 -0.0068228 8.46121 0.798152 6.17838 2.31446C3.89555 3.83077 2.11477 5.99013 1.06182 8.51879C0.00887452 11.0474 -0.268833 13.8315 0.263908 16.518C0.796649 19.2046 2.11585 21.6726 4.05426 23.6091C5.99267 25.5457 8.463 26.8637 11.1521 27.3959C13.8411 27.9281 16.6278 27.6507 19.1589 26.5987C21.6899 25.5468 23.8513 23.7677 25.369 21.487C26.8868 19.2063 27.6925 16.5268 27.6841 13.7881C27.6841 10.1317 26.2302 6.62502 23.6423 4.03955C21.0544 1.45409 17.5445 0.00159117 13.8846 0.00159117ZM13.8846 19.2346C12.8064 19.2346 11.7524 18.9151 10.8558 18.3167C9.95932 17.7182 9.26057 16.8676 8.84794 15.8723C8.43532 14.8771 8.32736 13.782 8.53771 12.7255C8.74807 11.669 9.26729 10.6985 10.0297 9.9368C10.7921 9.17509 11.7635 8.65636 12.821 8.44621C13.8786 8.23605 14.9747 8.34391 15.9709 8.75614C16.967 9.16838 17.8185 9.86647 18.4175 10.7621C19.0165 11.6578 19.3363 12.7108 19.3363 13.7881C19.3419 14.5049 19.2048 15.2157 18.9328 15.879C18.6609 16.5424 18.2595 17.1451 17.7522 17.6519C17.2448 18.1588 16.6415 18.5598 15.9776 18.8315C15.3136 19.1032 14.6021 19.2402 13.8846 19.2346Z" fill="#7E57C2"/>
</svg>
