<svg width="208" height="51" viewBox="0 0 208 51" fill="none" xmlns="http://www.w3.org/2000/svg">
<g clip-path="url(#clip0)">
<path d="M60.8516 43.6778C60.8516 39.2984 64.0898 36.3789 68.1104 36.3789C69.1683 36.3572 70.2164 36.5854 71.1694 37.045C72.1225 37.5045 72.9536 38.1824 73.5952 39.0235L72.193 39.8831C71.7021 39.2741 71.08 38.7837 70.3731 38.4484C69.6663 38.1132 68.8928 37.9418 68.1104 37.9471C65.0116 37.9471 62.6876 40.3129 62.6876 43.6778C62.6876 47.0427 65.0349 49.4318 68.1104 49.4318C69.5202 49.4218 70.8738 48.878 71.8986 47.9101V45.0331H67.0491V43.4842H73.6572V48.5838C72.9585 49.3601 72.1025 49.9787 71.1461 50.3987C70.1897 50.8186 69.1549 51.0302 68.1104 51.0194C64.0898 51.0001 60.8516 48.0572 60.8516 43.6778Z" fill="#292728"/>
<path d="M88.7018 50.7253L85.1034 45.1184H82.2874V50.7253H80.5327V36.6113H86.1841C88.7638 36.6113 90.6075 38.2609 90.6075 40.8707C90.6075 43.4108 88.8722 44.8087 86.9471 44.979L90.7586 50.7253H88.7018ZM88.8064 40.8629C88.8064 39.2754 87.6637 38.1757 85.9904 38.1757H82.2874V43.5734H85.9904C87.6444 43.5734 88.787 42.4505 88.787 40.8629H88.8064Z" fill="#292728"/>
<path d="M96.2432 43.6776C96.2432 39.4957 99.0553 36.3979 103.246 36.3979C107.437 36.3979 110.253 39.5305 110.253 43.6969C110.253 47.8634 107.418 50.9959 103.246 50.9959C99.0746 50.9959 96.2432 47.8479 96.2432 43.6776ZM108.433 43.6776C108.433 40.3785 106.399 37.9468 103.246 37.9468C100.093 37.9468 98.0637 40.3785 98.0637 43.6776C98.0637 46.9766 100.074 49.4122 103.246 49.4122C106.419 49.4122 108.433 46.9573 108.433 43.6776Z" fill="#292728"/>
<path d="M115.739 45.2462V36.6113H117.493V45.1997C117.493 47.7825 118.892 49.4126 121.495 49.4126C124.098 49.4126 125.5 47.7825 125.5 45.1997V36.6113H127.255V45.223C127.255 48.735 125.318 50.977 121.499 50.977C117.679 50.977 115.739 48.7118 115.739 45.2462Z" fill="#292728"/>
<path d="M134.238 50.7253V36.6113H139.912C142.748 36.6113 144.336 38.5474 144.336 40.8707C144.336 43.194 142.709 45.13 139.912 45.13H135.996V50.7253H134.238ZM142.515 40.8629C142.515 39.2754 141.373 38.1757 139.699 38.1757H135.996V43.5502H139.699C141.38 43.5502 142.515 42.4505 142.515 40.8629Z" fill="#292728"/>
<path d="M11.3918 0H0V11.388H11.3918V0Z" fill="#C12026"/>
<path d="M26.6415 25.5174L16.7681 0H22.9656L30.0501 19.6279L37.0881 0H43.2857L33.4549 25.5174H26.6415Z" fill="#292728"/>
<path d="M63.6405 25.5174L51.4702 8.86721V25.5174H46.0474V0H51.6367L63.4469 16.0307V0H68.8697V25.5174H63.6405Z" fill="#292728"/>
<path d="M79.0726 25.5174V4.7821H71.6123V0H91.9711V4.7821H84.5457V25.5174H79.0726Z" fill="#292728"/>
<path d="M109.084 25.5174L104.072 16.4527H100.09V25.5174H94.667V0H106.605C111.927 0 115.181 3.48493 115.181 8.22443C115.181 12.7394 112.345 15.1517 109.591 15.8022L115.324 25.5174H109.084ZM109.618 8.22443C109.618 6.08314 107.972 4.7821 105.792 4.7821H100.09V11.6668H105.792C107.972 11.6668 109.618 10.3696 109.618 8.22443Z" fill="#292728"/>
<path d="M137.019 25.5174L135.451 21.1961H124.504L122.893 25.5174H116.695L126.569 0H133.382L143.221 25.5174H137.019ZM129.973 5.421L125.995 16.414H133.955L129.973 5.421Z" fill="#292728"/>
<path d="M148.98 25.5174L139.107 0H145.304L152.381 19.6279L159.431 0H165.628L155.79 25.5174H148.98Z" fill="#292728"/>
<path d="M168.22 25.5174V0H186.285V4.7821H173.654V10.176H186.018V14.9581H173.654V20.7353H186.285V25.5174H168.22Z" fill="#292728"/>
<path d="M191.771 25.5174V0H197.193V20.7353H208.004V25.5174H191.771Z" fill="#292728"/>
<path d="M11.3918 14.1294H0V25.5174H11.3918V14.1294Z" fill="#04ACA0"/>
</g>
<defs>
<clipPath id="clip0">
<rect width="208" height="51" fill="white"/>
</clipPath>
</defs>
</svg>
