<svg width="90" height="121" viewBox="0 0 90 121" fill="none" xmlns="http://www.w3.org/2000/svg">
<path d="M33.7656 53C35.243 53 36.7059 52.709 38.0708 52.1436C39.4357 51.5783 40.6759 50.7496 41.7206 49.705C42.7652 48.6603 43.5939 47.4201 44.1593 46.0552C44.7246 44.6903 45.0156 43.2274 45.0156 41.75C45.0156 40.2726 44.7246 38.8097 44.1593 37.4448C43.5939 36.0799 42.7652 34.8397 41.7206 33.795C40.6759 32.7504 39.4357 31.9217 38.0708 31.3564C36.7059 30.791 35.243 30.5 33.7656 30.5C30.7819 30.5 27.9205 31.6853 25.8107 33.795C23.7009 35.9048 22.5156 38.7663 22.5156 41.75C22.5156 44.7337 23.7009 47.5952 25.8107 49.705C27.9205 51.8147 30.7819 53 33.7656 53Z" fill="#3D3F40" fill-opacity="0.1"/>
<path d="M90 105.5C90 109.478 88.4196 113.294 85.6066 116.107C82.7936 118.92 78.9782 120.5 75 120.5H15C11.0218 120.5 7.20644 118.92 4.3934 116.107C1.58035 113.294 0 109.478 0 105.5V15.5C0 11.5218 1.58035 7.70644 4.3934 4.8934C7.20644 2.08035 11.0218 0.5 15 0.5L56.25 0.5L90 34.25V105.5ZM15 8C13.0109 8 11.1032 8.79018 9.6967 10.1967C8.29018 11.6032 7.5 13.5109 7.5 15.5V90.5L24.18 73.82C24.7711 73.2303 25.5421 72.8547 26.3709 72.7528C27.1996 72.6509 28.0386 72.8285 28.755 73.2575L45 83L61.1775 60.35C61.494 59.9073 61.9031 59.5388 62.3764 59.2701C62.8497 59.0014 63.3757 58.839 63.9181 58.794C64.4605 58.7491 65.0061 58.8227 65.5171 59.0098C66.0282 59.1969 66.4924 59.493 66.8775 59.8775L82.5 75.5V34.25H67.5C64.5163 34.25 61.6548 33.0647 59.545 30.955C57.4353 28.8452 56.25 25.9837 56.25 23V8H15Z" fill="#3D3F40" fill-opacity="0.1"/>
</svg>
