<svg width="206" height="155" viewBox="0 0 206 155" fill="none" xmlns="http://www.w3.org/2000/svg">
<path d="M17.0132 151V140.92H18.7002V145.596L22.7252 140.92H24.7972L20.4642 145.862L25.0912 151H22.9492L18.7002 146.296V151H17.0132ZM31.3067 151V147.36C31.3067 147.122 31.2903 146.858 31.2577 146.569C31.225 146.28 31.148 146.002 31.0267 145.736C30.91 145.465 30.7327 145.244 30.4947 145.071C30.2613 144.898 29.944 144.812 29.5427 144.812C29.328 144.812 29.1157 144.847 28.9057 144.917C28.6957 144.987 28.5043 145.108 28.3317 145.281C28.1637 145.449 28.0283 145.682 27.9257 145.981C27.823 146.275 27.7717 146.653 27.7717 147.115L26.7707 146.688C26.7707 146.044 26.8943 145.461 27.1417 144.938C27.3937 144.415 27.7623 144 28.2477 143.692C28.733 143.379 29.3303 143.223 30.0397 143.223C30.5997 143.223 31.0617 143.316 31.4257 143.503C31.7897 143.69 32.079 143.928 32.2937 144.217C32.5083 144.506 32.667 144.814 32.7697 145.141C32.8723 145.468 32.9377 145.778 32.9657 146.072C32.9983 146.361 33.0147 146.597 33.0147 146.779V151H31.3067ZM26.0637 151V140.92H27.5687V146.226H27.7717V151H26.0637ZM36.4233 142.516L35.8073 141.445L38.1943 140.136L40.5813 141.445L39.9653 142.516L38.1943 141.55L36.4233 142.516ZM38.1803 151.21C37.4243 151.21 36.764 151.04 36.1993 150.699C35.6347 150.358 35.196 149.889 34.8833 149.292C34.5753 148.69 34.4213 147.999 34.4213 147.22C34.4213 146.427 34.58 145.731 34.8973 145.134C35.2147 144.537 35.6557 144.07 36.2203 143.734C36.785 143.398 37.4383 143.23 38.1803 143.23C38.941 143.23 39.6037 143.4 40.1683 143.741C40.733 144.082 41.1717 144.553 41.4843 145.155C41.797 145.752 41.9533 146.441 41.9533 147.22C41.9533 148.004 41.7947 148.697 41.4773 149.299C41.1647 149.896 40.726 150.365 40.1613 150.706C39.5967 151.042 38.9363 151.21 38.1803 151.21ZM38.1803 149.628C38.8523 149.628 39.3517 149.404 39.6783 148.956C40.005 148.508 40.1683 147.929 40.1683 147.22C40.1683 146.487 40.0027 145.904 39.6713 145.47C39.34 145.031 38.843 144.812 38.1803 144.812C37.7277 144.812 37.3543 144.915 37.0603 145.12C36.771 145.321 36.5563 145.603 36.4163 145.967C36.2763 146.326 36.2063 146.744 36.2063 147.22C36.2063 147.953 36.372 148.538 36.7033 148.977C37.0393 149.411 37.5317 149.628 38.1803 149.628ZM48.7246 151V147.36C48.7246 147.122 48.7083 146.858 48.6756 146.569C48.643 146.28 48.566 146.002 48.4446 145.736C48.328 145.465 48.1506 145.244 47.9126 145.071C47.6793 144.898 47.362 144.812 46.9606 144.812C46.746 144.812 46.5336 144.847 46.3236 144.917C46.1136 144.987 45.9223 145.108 45.7496 145.281C45.5816 145.449 45.4463 145.682 45.3436 145.981C45.241 146.275 45.1896 146.653 45.1896 147.115L44.1886 146.688C44.1886 146.044 44.3123 145.461 44.5596 144.938C44.8116 144.415 45.1803 144 45.6656 143.692C46.151 143.379 46.7483 143.223 47.4576 143.223C48.0176 143.223 48.4796 143.316 48.8436 143.503C49.2076 143.69 49.497 143.928 49.7116 144.217C49.9263 144.506 50.085 144.814 50.1876 145.141C50.2903 145.468 50.3556 145.778 50.3836 146.072C50.4163 146.361 50.4326 146.597 50.4326 146.779V151H48.7246ZM43.4816 151V143.44H44.9866V145.785H45.1896V151H43.4816ZM55.4373 154.57C55.0173 154.57 54.6136 154.505 54.2263 154.374C53.8436 154.243 53.4983 154.054 53.1903 153.807C52.8823 153.564 52.6303 153.27 52.4343 152.925L53.9883 152.155C54.133 152.43 54.336 152.633 54.5973 152.764C54.8633 152.899 55.1456 152.967 55.4443 152.967C55.7943 152.967 56.107 152.904 56.3823 152.778C56.6576 152.657 56.87 152.475 57.0193 152.232C57.1733 151.994 57.2456 151.695 57.2363 151.336V149.187H57.4463V143.44H58.9233V151.364C58.9233 151.555 58.914 151.737 58.8953 151.91C58.8813 152.087 58.8556 152.26 58.8183 152.428C58.7063 152.918 58.4916 153.319 58.1743 153.632C57.857 153.949 57.4626 154.185 56.9913 154.339C56.5246 154.493 56.0066 154.57 55.4373 154.57ZM55.2903 151.21C54.595 151.21 53.9883 151.035 53.4703 150.685C52.9523 150.335 52.551 149.859 52.2663 149.257C51.9816 148.655 51.8393 147.976 51.8393 147.22C51.8393 146.455 51.9816 145.773 52.2663 145.176C52.5556 144.574 52.964 144.1 53.4913 143.755C54.0186 143.405 54.6393 143.23 55.3533 143.23C56.072 143.23 56.674 143.405 57.1593 143.755C57.6493 144.1 58.0203 144.574 58.2723 145.176C58.5243 145.778 58.6503 146.459 58.6503 147.22C58.6503 147.971 58.5243 148.65 58.2723 149.257C58.0203 149.859 57.6446 150.335 57.1453 150.685C56.646 151.035 56.0276 151.21 55.2903 151.21ZM55.5493 149.698C56.002 149.698 56.366 149.595 56.6413 149.39C56.9213 149.18 57.1243 148.888 57.2503 148.515C57.381 148.142 57.4463 147.71 57.4463 147.22C57.4463 146.725 57.381 146.294 57.2503 145.925C57.1243 145.552 56.926 145.262 56.6553 145.057C56.3846 144.847 56.0346 144.742 55.6053 144.742C55.1526 144.742 54.7793 144.854 54.4853 145.078C54.1913 145.297 53.9743 145.596 53.8343 145.974C53.6943 146.347 53.6243 146.763 53.6243 147.22C53.6243 147.682 53.692 148.102 53.8273 148.48C53.9673 148.853 54.1796 149.15 54.4643 149.369C54.749 149.588 55.1106 149.698 55.5493 149.698ZM66.972 151.21C66.1927 151.21 65.5277 151.037 64.977 150.692C64.4263 150.342 64.004 149.866 63.71 149.264C63.4207 148.662 63.2737 147.981 63.269 147.22C63.2737 146.445 63.4253 145.759 63.724 145.162C64.0273 144.56 64.4567 144.089 65.012 143.748C65.5673 143.403 66.2277 143.23 66.993 143.23C67.8517 143.23 68.5773 143.447 69.17 143.881C69.7673 144.31 70.157 144.898 70.339 145.645L68.659 146.1C68.5283 145.694 68.3113 145.379 68.008 145.155C67.7047 144.926 67.3593 144.812 66.972 144.812C66.5333 144.812 66.1717 144.917 65.887 145.127C65.6023 145.332 65.3923 145.617 65.257 145.981C65.1217 146.345 65.054 146.758 65.054 147.22C65.054 147.939 65.215 148.52 65.537 148.963C65.859 149.406 66.3373 149.628 66.972 149.628C67.42 149.628 67.7723 149.525 68.029 149.32C68.2903 149.115 68.4863 148.818 68.617 148.431L70.339 148.816C70.1057 149.586 69.6973 150.179 69.114 150.594C68.5307 151.005 67.8167 151.21 66.972 151.21ZM75.6946 142.39H74.0286L74.5606 140.71H76.2266L75.6946 142.39ZM74.8756 151.21C74.1196 151.21 73.4593 151.04 72.8946 150.699C72.33 150.358 71.8913 149.889 71.5786 149.292C71.2706 148.69 71.1166 147.999 71.1166 147.22C71.1166 146.427 71.2753 145.731 71.5926 145.134C71.91 144.537 72.351 144.07 72.9156 143.734C73.4803 143.398 74.1336 143.23 74.8756 143.23C75.6363 143.23 76.299 143.4 76.8636 143.741C77.4283 144.082 77.867 144.553 78.1796 145.155C78.4923 145.752 78.6486 146.441 78.6486 147.22C78.6486 148.004 78.49 148.697 78.1726 149.299C77.86 149.896 77.4213 150.365 76.8566 150.706C76.292 151.042 75.6316 151.21 74.8756 151.21ZM74.8756 149.628C75.5476 149.628 76.047 149.404 76.3736 148.956C76.7003 148.508 76.8636 147.929 76.8636 147.22C76.8636 146.487 76.698 145.904 76.3666 145.47C76.0353 145.031 75.5383 144.812 74.8756 144.812C74.423 144.812 74.0496 144.915 73.7556 145.12C73.4663 145.321 73.2516 145.603 73.1116 145.967C72.9716 146.326 72.9016 146.744 72.9016 147.22C72.9016 147.953 73.0673 148.538 73.3986 148.977C73.7346 149.411 74.227 149.628 74.8756 149.628ZM82.9797 151L82.9937 140.92H84.7017V147.08L87.4667 143.44H89.5737L86.6407 147.22L89.8257 151H87.5927L84.7017 147.36V151H82.9797ZM92.0212 142.516L91.4052 141.445L93.7922 140.136L96.1792 141.445L95.5702 142.516L93.7922 141.55L92.0212 142.516ZM98.0062 140.92H96.3402L96.8722 139.24H98.5382L98.0062 140.92ZM93.8272 151.21C93.0618 151.21 92.3898 151.044 91.8112 150.713C91.2325 150.382 90.7798 149.922 90.4532 149.334C90.1312 148.746 89.9702 148.069 89.9702 147.304C89.9702 146.478 90.1288 145.762 90.4462 145.155C90.7635 144.544 91.2045 144.07 91.7692 143.734C92.3338 143.398 92.9872 143.23 93.7292 143.23C94.5132 143.23 95.1782 143.414 95.7242 143.783C96.2748 144.147 96.6832 144.663 96.9492 145.33C97.2152 145.997 97.3155 146.784 97.2502 147.689H95.5772V147.073C95.5725 146.252 95.4278 145.652 95.1432 145.274C94.8585 144.896 94.4105 144.707 93.7992 144.707C93.1085 144.707 92.5952 144.922 92.2592 145.351C91.9232 145.776 91.7552 146.399 91.7552 147.22C91.7552 147.985 91.9232 148.578 92.2592 148.998C92.5952 149.418 93.0852 149.628 93.7292 149.628C94.1445 149.628 94.5015 149.537 94.8002 149.355C95.1035 149.168 95.3368 148.9 95.5002 148.55L97.1662 149.054C96.8768 149.735 96.4288 150.265 95.8222 150.643C95.2202 151.021 94.5552 151.21 93.8272 151.21ZM91.2232 147.689V146.415H96.4242V147.689H91.2232ZM103.243 151C102.744 151.093 102.254 151.133 101.773 151.119C101.297 151.11 100.87 151.023 100.492 150.86C100.114 150.692 99.827 150.428 99.631 150.069C99.4584 149.742 99.3674 149.409 99.358 149.068C99.3487 148.727 99.344 148.342 99.344 147.913V141.34H101.024V147.815C101.024 148.118 101.026 148.384 101.031 148.613C101.04 148.842 101.089 149.028 101.178 149.173C101.346 149.453 101.614 149.609 101.983 149.642C102.352 149.675 102.772 149.656 103.243 149.586V151ZM97.972 144.763V143.44H103.243V144.763H97.972ZM110.702 151.21C110.007 151.21 109.4 151.035 108.882 150.685C108.364 150.335 107.963 149.859 107.678 149.257C107.394 148.655 107.251 147.976 107.251 147.22C107.251 146.455 107.394 145.773 107.678 145.176C107.968 144.574 108.376 144.1 108.903 143.755C109.431 143.405 110.051 143.23 110.765 143.23C111.484 143.23 112.086 143.405 112.571 143.755C113.061 144.1 113.432 144.574 113.684 145.176C113.936 145.778 114.062 146.459 114.062 147.22C114.062 147.971 113.936 148.65 113.684 149.257C113.432 149.859 113.057 150.335 112.557 150.685C112.058 151.035 111.44 151.21 110.702 151.21ZM110.961 149.698C111.414 149.698 111.778 149.595 112.053 149.39C112.333 149.18 112.536 148.888 112.662 148.515C112.793 148.142 112.858 147.71 112.858 147.22C112.858 146.725 112.793 146.294 112.662 145.925C112.536 145.552 112.338 145.262 112.067 145.057C111.797 144.847 111.447 144.742 111.017 144.742C110.565 144.742 110.191 144.854 109.897 145.078C109.603 145.297 109.386 145.596 109.246 145.974C109.106 146.347 109.036 146.763 109.036 147.22C109.036 147.682 109.104 148.102 109.239 148.48C109.379 148.853 109.592 149.15 109.876 149.369C110.161 149.588 110.523 149.698 110.961 149.698ZM112.648 154.36V148.746H112.858V143.44H114.349V154.36H112.648ZM119.147 151.217C118.587 151.217 118.125 151.124 117.761 150.937C117.397 150.75 117.108 150.512 116.893 150.223C116.678 149.934 116.52 149.626 116.417 149.299C116.314 148.972 116.247 148.664 116.214 148.375C116.186 148.081 116.172 147.843 116.172 147.661V143.44H117.88V147.08C117.88 147.313 117.896 147.577 117.929 147.871C117.962 148.16 118.036 148.44 118.153 148.711C118.274 148.977 118.452 149.196 118.685 149.369C118.923 149.542 119.243 149.628 119.644 149.628C119.859 149.628 120.071 149.593 120.281 149.523C120.491 149.453 120.68 149.334 120.848 149.166C121.021 148.993 121.158 148.758 121.261 148.459C121.364 148.16 121.415 147.782 121.415 147.325L122.416 147.752C122.416 148.396 122.29 148.979 122.038 149.502C121.791 150.025 121.424 150.442 120.939 150.755C120.454 151.063 119.856 151.217 119.147 151.217ZM121.618 151V148.655H121.415V143.44H123.109V151H121.618ZM127.351 140.36L126.917 139.527C127.183 139.294 127.491 139.144 127.841 139.079C128.191 139.009 128.522 139.044 128.835 139.184C129.152 139.319 129.388 139.578 129.542 139.961C129.668 140.269 129.71 140.554 129.668 140.815C129.626 141.072 129.528 141.3 129.374 141.501C129.22 141.697 129.033 141.856 128.814 141.977C128.594 142.094 128.37 142.166 128.142 142.194L127.841 141.508C128.097 141.424 128.307 141.289 128.471 141.102C128.634 140.915 128.655 140.694 128.534 140.437C128.454 140.269 128.345 140.169 128.205 140.136C128.069 140.103 127.925 140.11 127.771 140.157C127.617 140.204 127.477 140.271 127.351 140.36ZM127.19 151.21C126.644 151.21 126.182 151.107 125.804 150.902C125.426 150.692 125.139 150.414 124.943 150.069C124.751 149.724 124.656 149.343 124.656 148.928C124.656 148.564 124.716 148.237 124.838 147.948C124.959 147.654 125.146 147.402 125.398 147.192C125.65 146.977 125.976 146.802 126.378 146.667C126.681 146.569 127.036 146.48 127.442 146.401C127.852 146.322 128.296 146.249 128.772 146.184C129.252 146.114 129.754 146.039 130.277 145.96L129.675 146.303C129.679 145.78 129.563 145.395 129.325 145.148C129.087 144.901 128.685 144.777 128.121 144.777C127.78 144.777 127.451 144.856 127.134 145.015C126.816 145.174 126.595 145.447 126.469 145.834L124.929 145.351C125.115 144.712 125.47 144.198 125.993 143.811C126.52 143.424 127.229 143.23 128.121 143.23C128.793 143.23 129.383 143.34 129.892 143.559C130.405 143.778 130.785 144.138 131.033 144.637C131.168 144.903 131.25 145.176 131.278 145.456C131.306 145.731 131.32 146.032 131.32 146.359V151H129.843V149.362L130.088 149.628C129.747 150.174 129.348 150.575 128.891 150.832C128.438 151.084 127.871 151.21 127.19 151.21ZM127.526 149.866C127.908 149.866 128.235 149.798 128.506 149.663C128.776 149.528 128.991 149.362 129.15 149.166C129.313 148.97 129.423 148.786 129.479 148.613C129.567 148.398 129.616 148.153 129.626 147.878C129.64 147.598 129.647 147.372 129.647 147.199L130.165 147.353C129.656 147.432 129.22 147.502 128.856 147.563C128.492 147.624 128.179 147.682 127.918 147.738C127.656 147.789 127.425 147.848 127.225 147.913C127.029 147.983 126.863 148.065 126.728 148.158C126.592 148.251 126.487 148.359 126.413 148.48C126.343 148.601 126.308 148.744 126.308 148.907C126.308 149.094 126.354 149.259 126.448 149.404C126.541 149.544 126.676 149.656 126.854 149.74C127.036 149.824 127.26 149.866 127.526 149.866ZM139.578 151.21C138.841 151.21 138.222 151.035 137.723 150.685C137.224 150.335 136.848 149.859 136.596 149.257C136.344 148.65 136.218 147.971 136.218 147.22C136.218 146.459 136.344 145.778 136.596 145.176C136.848 144.574 137.217 144.1 137.702 143.755C138.192 143.405 138.796 143.23 139.515 143.23C140.229 143.23 140.847 143.405 141.37 143.755C141.897 144.1 142.306 144.574 142.595 145.176C142.884 145.773 143.029 146.455 143.029 147.22C143.029 147.976 142.887 148.655 142.602 149.257C142.317 149.859 141.916 150.335 141.398 150.685C140.88 151.035 140.273 151.21 139.578 151.21ZM135.931 154.36V143.44H137.422V148.746H137.632V154.36H135.931ZM139.319 149.698C139.758 149.698 140.119 149.588 140.404 149.369C140.689 149.15 140.899 148.853 141.034 148.48C141.174 148.102 141.244 147.682 141.244 147.22C141.244 146.763 141.174 146.347 141.034 145.974C140.894 145.596 140.677 145.297 140.383 145.078C140.089 144.854 139.716 144.742 139.263 144.742C138.834 144.742 138.484 144.847 138.213 145.057C137.942 145.262 137.742 145.552 137.611 145.925C137.485 146.294 137.422 146.725 137.422 147.22C137.422 147.71 137.485 148.142 137.611 148.515C137.742 148.888 137.945 149.18 138.22 149.39C138.5 149.595 138.866 149.698 139.319 149.698ZM149.801 151V147.36C149.801 147.122 149.784 146.858 149.752 146.569C149.719 146.28 149.642 146.002 149.521 145.736C149.404 145.465 149.227 145.244 148.989 145.071C148.755 144.898 148.438 144.812 148.037 144.812C147.822 144.812 147.61 144.847 147.4 144.917C147.19 144.987 146.998 145.108 146.826 145.281C146.658 145.449 146.522 145.682 146.42 145.981C146.317 146.275 146.266 146.653 146.266 147.115L145.265 146.688C145.265 146.044 145.388 145.461 145.636 144.938C145.888 144.415 146.256 144 146.742 143.692C147.227 143.379 147.824 143.223 148.534 143.223C149.094 143.223 149.556 143.316 149.92 143.503C150.284 143.69 150.573 143.928 150.788 144.217C151.002 144.506 151.161 144.814 151.264 145.141C151.366 145.468 151.432 145.778 151.46 146.072C151.492 146.361 151.509 146.597 151.509 146.779V151H149.801ZM144.558 151V140.92H146.063V146.226H146.266V151H144.558ZM155.883 142.39L155.351 140.71H157.017L157.549 142.39H155.883ZM156.17 151.217C155.61 151.217 155.148 151.124 154.784 150.937C154.42 150.75 154.131 150.512 153.916 150.223C153.702 149.934 153.543 149.626 153.44 149.299C153.338 148.972 153.27 148.664 153.237 148.375C153.209 148.081 153.195 147.843 153.195 147.661V143.44H154.903V147.08C154.903 147.313 154.92 147.577 154.952 147.871C154.985 148.16 155.06 148.44 155.176 148.711C155.298 148.977 155.475 149.196 155.708 149.369C155.946 149.542 156.266 149.628 156.667 149.628C156.882 149.628 157.094 149.593 157.304 149.523C157.514 149.453 157.703 149.334 157.871 149.166C158.044 148.993 158.182 148.758 158.284 148.459C158.387 148.16 158.438 147.782 158.438 147.325L159.439 147.752C159.439 148.396 159.313 148.979 159.061 149.502C158.814 150.025 158.448 150.442 157.962 150.755C157.477 151.063 156.88 151.217 156.17 151.217ZM158.641 151V148.655H158.438V143.44H160.132V151H158.641ZM170.131 151V147.36C170.131 147.122 170.115 146.858 170.082 146.569C170.049 146.28 169.972 146.002 169.851 145.736C169.734 145.465 169.557 145.244 169.319 145.071C169.086 144.898 168.768 144.812 168.367 144.812C168.152 144.812 167.94 144.847 167.73 144.917C167.52 144.987 167.329 145.108 167.156 145.281C166.988 145.449 166.853 145.682 166.75 145.981C166.647 146.275 166.596 146.653 166.596 147.115L165.595 146.688C165.595 146.044 165.719 145.461 165.966 144.938C166.218 144.415 166.587 144 167.072 143.692C167.557 143.379 168.155 143.223 168.864 143.223C169.424 143.223 169.886 143.316 170.25 143.503C170.614 143.69 170.903 143.928 171.118 144.217C171.333 144.506 171.491 144.814 171.594 145.141C171.697 145.468 171.762 145.778 171.79 146.072C171.823 146.361 171.839 146.597 171.839 146.779V151H170.131ZM164.888 151V140.92H166.393V146.226H166.596V151H164.888ZM176.277 153.716V152.169H178.006V153.716H176.277ZM179.469 142.187L180.743 142.18C180.808 142.689 180.782 143.111 180.666 143.447C180.554 143.783 180.344 144.028 180.036 144.182C179.746 144.327 179.41 144.387 179.028 144.364C178.65 144.341 178.323 144.247 178.048 144.084V143.356C178.262 143.407 178.444 143.442 178.594 143.461C178.743 143.475 178.883 143.452 179.014 143.391C179.252 143.279 179.387 143.111 179.42 142.887C179.457 142.663 179.473 142.43 179.469 142.187ZM177.005 151.21C176.249 151.21 175.588 151.04 175.024 150.699C174.459 150.358 174.02 149.889 173.708 149.292C173.4 148.69 173.246 147.999 173.246 147.22C173.246 146.427 173.404 145.731 173.722 145.134C174.039 144.537 174.48 144.07 175.045 143.734C175.609 143.398 176.263 143.23 177.005 143.23C177.765 143.23 178.428 143.4 178.993 143.741C179.557 144.082 179.996 144.553 180.309 145.155C180.621 145.752 180.778 146.441 180.778 147.22C180.778 148.004 180.619 148.697 180.302 149.299C179.989 149.896 179.55 150.365 178.986 150.706C178.421 151.042 177.761 151.21 177.005 151.21ZM177.005 149.628C177.677 149.628 178.176 149.404 178.503 148.956C178.829 148.508 178.993 147.929 178.993 147.22C178.993 146.487 178.827 145.904 178.496 145.47C178.164 145.031 177.667 144.812 177.005 144.812C176.552 144.812 176.179 144.915 175.885 145.12C175.595 145.321 175.381 145.603 175.241 145.967C175.101 146.326 175.031 146.744 175.031 147.22C175.031 147.953 175.196 148.538 175.528 148.977C175.864 149.411 176.356 149.628 177.005 149.628ZM185.953 151.21C185.216 151.21 184.597 151.035 184.098 150.685C183.599 150.335 183.223 149.859 182.971 149.257C182.719 148.65 182.593 147.971 182.593 147.22C182.593 146.459 182.719 145.778 182.971 145.176C183.223 144.574 183.592 144.1 184.077 143.755C184.567 143.405 185.171 143.23 185.89 143.23C186.604 143.23 187.222 143.405 187.745 143.755C188.272 144.1 188.681 144.574 188.97 145.176C189.259 145.773 189.404 146.455 189.404 147.22C189.404 147.976 189.262 148.655 188.977 149.257C188.692 149.859 188.291 150.335 187.773 150.685C187.255 151.035 186.648 151.21 185.953 151.21ZM182.306 154.36V143.44H183.797V148.746H184.007V154.36H182.306ZM185.694 149.698C186.133 149.698 186.494 149.588 186.779 149.369C187.064 149.15 187.274 148.853 187.409 148.48C187.549 148.102 187.619 147.682 187.619 147.22C187.619 146.763 187.549 146.347 187.409 145.974C187.269 145.596 187.052 145.297 186.758 145.078C186.464 144.854 186.091 144.742 185.638 144.742C185.209 144.742 184.859 144.847 184.588 145.057C184.317 145.262 184.117 145.552 183.986 145.925C183.86 146.294 183.797 146.725 183.797 147.22C183.797 147.71 183.86 148.142 183.986 148.515C184.117 148.888 184.32 149.18 184.595 149.39C184.875 149.595 185.241 149.698 185.694 149.698Z" fill="#899296"/>
<path opacity="0.3" fill-rule="evenodd" clip-rule="evenodd" d="M112.832 40C115.982 40 118.535 42.543 118.535 45.68C118.535 48.817 115.982 51.3601 112.832 51.3601H164.98C168.13 51.3601 170.683 53.9031 170.683 57.0401C170.683 60.1771 168.13 62.7201 164.98 62.7201H182.906C186.056 62.7201 188.609 65.2632 188.609 68.4002C188.609 71.5372 186.056 74.0802 182.906 74.0802H167.424C164.274 74.0802 161.721 76.6233 161.721 79.7603C161.721 82.8973 164.274 85.4403 167.424 85.4403H172.313C175.463 85.4403 178.017 87.9833 178.017 91.1203C178.017 94.2573 175.463 96.8004 172.313 96.8004H129.943C129.523 96.8004 129.114 96.7553 128.721 96.6697C128.327 96.7553 127.918 96.8004 127.498 96.8004H53.3501C50.2001 96.8004 47.6464 94.2573 47.6464 91.1203C47.6464 87.9833 50.2001 85.4403 53.3501 85.4403H21.5724C18.4223 85.4403 15.8687 82.8973 15.8687 79.7603C15.8687 76.6233 18.4223 74.0802 21.5724 74.0802H54.1649C57.315 74.0802 59.8687 71.5372 59.8687 68.4002C59.8687 65.2632 57.315 62.7201 54.1649 62.7201H33.7946C30.6445 62.7201 28.0909 60.1771 28.0909 57.0401C28.0909 53.9031 30.6445 51.3601 33.7946 51.3601H66.3872C63.2371 51.3601 60.6835 48.817 60.6835 45.68C60.6835 42.543 63.2371 40 66.3872 40H112.832ZM186.165 85.4403C189.315 85.4403 191.869 87.9833 191.869 91.1203C191.869 94.2573 189.315 96.8004 186.165 96.8004C183.015 96.8004 180.461 94.2573 180.461 91.1203C180.461 87.9833 183.015 85.4403 186.165 85.4403Z" fill="#C1C6C9"/>
<path d="M92.9827 84.2602C115.689 84.2602 134.097 65.8456 134.097 43.1301C134.097 20.4146 115.689 2 92.9827 2C70.2761 2 51.8687 20.4146 51.8687 43.1301C51.8687 65.8456 70.2761 84.2602 92.9827 84.2602Z" fill="#E5EBED" stroke="#899296" stroke-width="2.5" stroke-linecap="round"/>
<path d="M92.9827 72.2284C109.047 72.2284 122.07 59.2006 122.07 43.1301C122.07 27.0595 109.047 14.0317 92.9827 14.0317C76.9184 14.0317 63.8958 27.0595 63.8958 43.1301C63.8958 59.2006 76.9184 72.2284 92.9827 72.2284Z" fill="white" stroke="#899296" stroke-width="2.5" stroke-linecap="round"/>
<path d="M92.9825 21.0163C92.9825 20.5746 92.6243 20.2151 92.1831 20.2305C86.6587 20.4234 81.3796 22.6099 77.3307 26.4009C73.2818 30.1921 70.7519 35.3171 70.1944 40.8188C70.1499 41.2583 70.4848 41.6396 70.9254 41.6688C71.366 41.6979 71.7453 41.364 71.791 40.9246C72.3209 35.828 74.6706 31.0825 78.4233 27.5688C82.176 24.0552 87.0647 22.0233 92.1831 21.831C92.6243 21.8146 92.9825 21.458 92.9825 21.0163Z" fill="#C1C6C9"/>
<path d="M129.886 82.9297C132.566 80.2486 136.912 80.2477 139.594 82.9278C139.594 82.9285 139.595 82.9291 139.595 82.9297L159.014 102.356C161.695 105.038 161.695 109.386 159.014 112.069C156.334 114.75 151.988 114.751 149.307 112.071C149.306 112.07 149.305 112.07 149.305 112.069L129.886 92.6428C127.205 89.9603 127.205 85.6122 129.886 82.9297Z" fill="#C1C6C9" stroke="#899296" stroke-width="2"/>
<path d="M140.199 90.4179C140.572 90.0447 141.177 90.0446 141.55 90.4176C141.55 90.4177 141.55 90.4178 141.55 90.4179L151.529 100.4C151.902 100.773 151.902 101.379 151.529 101.752C151.156 102.125 150.551 102.125 150.178 101.752C150.178 101.752 150.178 101.752 150.178 101.752L140.199 91.7696C139.826 91.3963 139.826 90.7912 140.199 90.4179Z" fill="white"/>
<path d="M123.637 78.0661L125.024 76.6785L130.572 82.2288L129.185 83.6164L123.637 78.0661Z" fill="#899296"/>
<path d="M159.531 22.8833H141.531C140.979 22.8833 140.531 23.331 140.531 23.8833C140.531 24.4356 140.979 24.8833 141.531 24.8833H159.531C160.083 24.8833 160.531 24.4356 160.531 23.8833C160.531 23.331 160.083 22.8833 159.531 22.8833Z" fill="#899296"/>
<path d="M39.8687 31.4282H21.8687C21.3164 31.4282 20.8687 31.8759 20.8687 32.4282C20.8687 32.9805 21.3164 33.4282 21.8687 33.4282H39.8687C40.4209 33.4282 40.8687 32.9805 40.8687 32.4282C40.8687 31.8759 40.4209 31.4282 39.8687 31.4282Z" fill="#899296"/>
<path d="M173.531 22.8833H165.531C164.979 22.8833 164.531 23.331 164.531 23.8833C164.531 24.4356 164.979 24.8833 165.531 24.8833H173.531C174.083 24.8833 174.531 24.4356 174.531 23.8833C174.531 23.331 174.083 22.8833 173.531 22.8833Z" fill="#899296"/>
<path d="M154.531 30.2212H146.531C145.979 30.2212 145.531 30.6689 145.531 31.2212C145.531 31.7735 145.979 32.2212 146.531 32.2212H154.531C155.083 32.2212 155.531 31.7735 155.531 31.2212C155.531 30.6689 155.083 30.2212 154.531 30.2212Z" fill="#899296"/>
<path d="M34.8687 38.7661H26.8687C26.3164 38.7661 25.8687 39.2138 25.8687 39.7661C25.8687 40.3184 26.3164 40.7661 26.8687 40.7661H34.8687C35.4209 40.7661 35.8687 40.3184 35.8687 39.7661C35.8687 39.2138 35.4209 38.7661 34.8687 38.7661Z" fill="#899296"/>
</svg>
