<svg width="24" height="24" viewBox="0 0 24 24" fill="none" xmlns="http://www.w3.org/2000/svg">
<path d="M9.25781 15.6641V16.7997C9.25781 17.0315 9.98233 17.4855 11.658 17.4855C13.3337 17.4855 14.0582 17.0315 14.0582 16.7997V15.6641C13.3038 15.9981 12.4821 16.1521 11.658 16.1139C10.8339 16.1521 10.0122 15.9981 9.25781 15.6641Z" fill="white"/>
<path d="M9.25781 17.7188V18.8544C9.25781 19.0862 9.98233 19.5402 11.658 19.5402C13.3337 19.5402 14.0582 19.0862 14.0582 18.8544V17.7188C13.3038 18.0528 12.4821 18.2068 11.658 18.1686C10.8339 18.2068 10.0122 18.0528 9.25781 17.7188Z" fill="white"/>
<path d="M13.4067 8.18842C13.3859 8.13877 13.3773 8.08489 13.3815 8.03123C13.3856 7.97757 13.4025 7.92567 13.4307 7.87983L13.6502 7.50951L13.0604 6.91975L12.6901 7.1392C12.6442 7.1674 12.5923 7.18429 12.5387 7.18846C12.485 7.19263 12.4311 7.18398 12.3815 7.1632C12.332 7.14269 12.2879 7.11095 12.2528 7.07048C12.2177 7.03002 12.1925 6.98193 12.1792 6.93004L12.0763 6.51172H11.2397L11.1368 6.93004C11.1235 6.98193 11.0983 7.03002 11.0632 7.07048C11.0281 7.11095 10.984 7.14269 10.9345 7.1632C10.8849 7.18398 10.831 7.19263 10.7773 7.18846C10.7237 7.18429 10.6718 7.1674 10.6259 7.1392L10.2556 6.91975L9.66585 7.50951L9.88529 7.87983C9.91349 7.92567 9.93038 7.97757 9.93455 8.03123C9.93873 8.08489 9.93007 8.13877 9.90929 8.18842C9.88879 8.23792 9.85705 8.28197 9.81658 8.31708C9.77611 8.35219 9.72803 8.37741 9.67613 8.39073L9.25781 8.49359V9.33023L9.67613 9.43309C9.72803 9.44641 9.77611 9.47163 9.81658 9.50674C9.85705 9.54185 9.88879 9.5859 9.90929 9.6354C9.93007 9.68505 9.93873 9.73893 9.93455 9.79259C9.93038 9.84625 9.91349 9.89815 9.88529 9.94399L9.66585 10.3143L10.2556 10.9041L10.6259 10.6812C10.6723 10.6543 10.7243 10.6385 10.7778 10.6349C10.8313 10.6313 10.885 10.6401 10.9345 10.6606C10.984 10.6811 11.0281 10.7129 11.0632 10.7533C11.0983 10.7938 11.1235 10.8419 11.1368 10.8938L11.2397 11.3121H12.0763L12.1792 10.8938C12.1925 10.8419 12.2177 10.7938 12.2528 10.7533C12.2879 10.7129 12.332 10.6811 12.3815 10.6606C12.4311 10.6401 12.4847 10.6313 12.5382 10.6349C12.5917 10.6385 12.6437 10.6543 12.6901 10.6812L13.0604 10.9041L13.6502 10.3143L13.4307 9.94399C13.4025 9.89815 13.3856 9.84625 13.3815 9.79259C13.3773 9.73893 13.3859 9.68505 13.4067 9.6354C13.4272 9.5859 13.459 9.54185 13.4994 9.50674C13.5399 9.47163 13.588 9.44641 13.6399 9.43309L14.0582 9.33023V8.49359L13.6399 8.39073C13.588 8.37741 13.5399 8.35219 13.4994 8.31708C13.459 8.28197 13.4272 8.23792 13.4067 8.18842ZM11.658 10.2834C11.3867 10.2834 11.1216 10.203 10.896 10.0523C10.6705 9.90159 10.4947 9.68739 10.3909 9.43677C10.2871 9.18616 10.2599 8.91039 10.3128 8.64434C10.3657 8.37828 10.4964 8.1339 10.6882 7.94209C10.88 7.75027 11.1244 7.61965 11.3904 7.56673C11.6565 7.5138 11.9323 7.54097 12.1829 7.64477C12.4335 7.74858 12.6477 7.92438 12.7984 8.14992C12.9491 8.37547 13.0295 8.64065 13.0295 8.91191C13.0295 9.27566 12.885 9.62452 12.6278 9.88173C12.3706 10.1389 12.0218 10.2834 11.658 10.2834Z" fill="white"/>
<path d="M11.6579 9.5981C12.0367 9.5981 12.3437 9.29107 12.3437 8.91233C12.3437 8.53359 12.0367 8.22656 11.6579 8.22656C11.2792 8.22656 10.9722 8.53359 10.9722 8.91233C10.9722 9.29107 11.2792 9.5981 11.6579 9.5981Z" fill="white"/>
<path d="M11.658 15.4262C12.9836 15.4262 14.0582 15.1192 14.0582 14.7405C14.0582 14.3617 12.9836 14.0547 11.658 14.0547C10.3324 14.0547 9.25781 14.3617 9.25781 14.7405C9.25781 15.1192 10.3324 15.4262 11.658 15.4262Z" fill="white"/>
<path d="M2.3999 19.7773V20.913C2.3999 21.1448 3.12442 21.5987 4.80009 21.5987C6.47577 21.5987 7.20028 21.1448 7.20028 20.913V19.7773C6.44593 20.1114 5.62422 20.2654 4.80009 20.2272C3.97597 20.2654 3.15426 20.1114 2.3999 19.7773Z" fill="white"/>
<path d="M2.3999 15.6641V16.7997C2.3999 17.0315 3.12442 17.4855 4.80009 17.4855C6.47577 17.4855 7.20028 17.0315 7.20028 16.7997V15.6641C6.44593 15.9981 5.62422 16.1521 4.80009 16.1139C3.97597 16.1521 3.15426 15.9981 2.3999 15.6641Z" fill="white"/>
<path d="M4.80009 15.4262C6.12568 15.4262 7.20028 15.1192 7.20028 14.7405C7.20028 14.3617 6.12568 14.0547 4.80009 14.0547C3.4745 14.0547 2.3999 14.3617 2.3999 14.7405C2.3999 15.1192 3.4745 15.4262 4.80009 15.4262Z" fill="white"/>
<path d="M9.25781 19.7773V20.913C9.25781 21.1448 9.98233 21.5987 11.658 21.5987C13.3337 21.5987 14.0582 21.1448 14.0582 20.913V19.7773C13.3038 20.1114 12.4821 20.2654 11.658 20.2272C10.8339 20.2654 10.0122 20.1114 9.25781 19.7773Z" fill="white"/>
<path d="M2.3999 17.7188V18.8544C2.3999 19.0862 3.12442 19.5402 4.80009 19.5402C6.47577 19.5402 7.20028 19.0862 7.20028 18.8544V17.7188C6.44593 18.0528 5.62422 18.2068 4.80009 18.1686C3.97597 18.2068 3.15426 18.0528 2.3999 17.7188Z" fill="white"/>
<path d="M16.1152 15.6641V16.7997C16.1152 17.0315 16.8397 17.4855 18.5154 17.4855C20.1911 17.4855 20.9156 17.0315 20.9156 16.7997V15.6641C20.1613 15.9981 19.3395 16.1521 18.5154 16.1139C17.6913 16.1521 16.8696 15.9981 16.1152 15.6641Z" fill="white"/>
<path d="M16.1152 17.7188V18.8544C16.1152 19.0862 16.8397 19.5402 18.5154 19.5402C20.1911 19.5402 20.9156 19.0862 20.9156 18.8544V17.7188C20.1613 18.0528 19.3395 18.2068 18.5154 18.1686C17.6913 18.2068 16.8696 18.0528 16.1152 17.7188Z" fill="white"/>
<path d="M18.5154 15.4262C19.841 15.4262 20.9156 15.1192 20.9156 14.7405C20.9156 14.3617 19.841 14.0547 18.5154 14.0547C17.1898 14.0547 16.1152 14.3617 16.1152 14.7405C16.1152 15.1192 17.1898 15.4262 18.5154 15.4262Z" fill="white"/>
<path d="M16.1152 19.7773V20.913C16.1152 21.1448 16.8397 21.5987 18.5154 21.5987C20.1911 21.5987 20.9156 21.1448 20.9156 20.913V19.7773C20.1613 20.1114 19.3395 20.2654 18.5154 20.2272C17.6913 20.2654 16.8696 20.1114 16.1152 19.7773Z" fill="white"/>
<path d="M17.1441 8.56883C17.5079 8.56883 17.8567 8.42433 18.114 8.16711C18.3712 7.9099 18.5157 7.56105 18.5157 7.19729C18.5157 6.83354 18.3712 6.48468 18.114 6.22747C17.8567 5.97025 17.5079 5.82575 17.1441 5.82575H16.3384C16.2835 5.82528 16.2295 5.81201 16.1807 5.78701C16.1319 5.76201 16.0896 5.72596 16.0572 5.68174C16.0263 5.63663 16.0064 5.58487 15.9993 5.53065C15.9921 5.47644 15.9979 5.4213 16.016 5.36972C16.0803 5.18557 16.1139 4.99213 16.1155 4.7971C16.1154 4.4591 16.0154 4.12865 15.8281 3.8473C15.6408 3.56595 15.3745 3.34624 15.0627 3.2158C14.7509 3.08535 14.4075 3.04999 14.0756 3.11416C13.7437 3.17832 13.4383 3.33915 13.1975 3.57643C13.1635 3.61012 13.1228 3.63632 13.0781 3.65333C13.0333 3.67035 12.9855 3.6778 12.9377 3.67522C12.8899 3.67263 12.8432 3.66007 12.8005 3.63833C12.7579 3.61659 12.7202 3.58616 12.6901 3.549C12.2896 3.05168 11.7448 2.69082 11.1306 2.51615C10.5165 2.34149 9.86331 2.36161 9.26109 2.57376C8.65887 2.78591 8.13728 3.17964 7.76822 3.70067C7.39916 4.2217 7.2008 4.84437 7.20048 5.48287C7.20048 5.57381 7.16436 5.66102 7.10006 5.72533C7.03575 5.78963 6.94854 5.82575 6.8576 5.82575H6.17183C5.80808 5.82575 5.45922 5.97025 5.20201 6.22747C4.94479 6.48468 4.80029 6.83354 4.80029 7.19729C4.80029 7.56105 4.94479 7.9099 5.20201 8.16711C5.45922 8.42433 5.80808 8.56883 6.17183 8.56883H8.57202V8.22594C8.57208 8.14937 8.59777 8.07502 8.645 8.01474C8.69223 7.95446 8.75828 7.91173 8.83261 7.89335L9.06235 7.83506L8.93891 7.63275C8.89969 7.56725 8.88345 7.49054 8.89276 7.41476C8.90208 7.33898 8.93642 7.26848 8.99034 7.21444L9.9607 6.24407C10.0152 6.19088 10.0856 6.15704 10.1612 6.14775C10.2368 6.13845 10.3133 6.15423 10.379 6.19264L10.5813 6.31608L10.6396 6.08635C10.658 6.01201 10.7007 5.94596 10.761 5.89873C10.8213 5.8515 10.8956 5.82581 10.9722 5.82575H12.3438C12.4203 5.82581 12.4947 5.8515 12.555 5.89873C12.6152 5.94596 12.658 6.01201 12.6763 6.08635L12.7346 6.31608L12.9369 6.19264C13.0024 6.15342 13.0792 6.13718 13.1549 6.1465C13.2307 6.15581 13.3012 6.19015 13.3553 6.24407L14.3256 7.21444C14.3795 7.26848 14.4139 7.33898 14.4232 7.41476C14.4325 7.49054 14.4163 7.56725 14.3771 7.63275L14.2536 7.83506L14.4833 7.89335C14.5577 7.91173 14.6237 7.95446 14.671 8.01474C14.7182 8.07502 14.7439 8.14937 14.7439 8.22594V8.56883H17.1441Z" fill="white"/>
<path d="M4.45703 11.6558V13.0274H5.1428V11.6558C5.1428 11.383 5.25118 11.1214 5.44409 10.9285C5.637 10.7356 5.89864 10.6272 6.17145 10.6272H8.22876V9.94141H6.17145C5.71693 9.94195 5.28117 10.1228 4.95978 10.4441C4.63838 10.7655 4.45758 11.2013 4.45703 11.6558Z" fill="white"/>
<path d="M18.1724 11.6558V13.0274H18.8582V11.6558C18.8576 11.2013 18.6768 10.7655 18.3554 10.4441C18.034 10.1228 17.5983 9.94195 17.1437 9.94141H15.0864V10.6272H17.1437C17.4165 10.6272 17.6782 10.7356 17.8711 10.9285C18.064 11.1214 18.1724 11.383 18.1724 11.6558Z" fill="white"/>
</svg>
