<svg width="64" height="64" viewBox="0 0 64 64" fill="none" xmlns="http://www.w3.org/2000/svg">
<path d="M64 32.0002C64 49.6734 49.6731 64.0002 32 64.0002C14.3269 64.0002 0 49.6734 0 32.0002C0 14.3271 14.3269 0.000244141 32 0.000244141C49.6731 0.000244141 64 14.3271 64 32.0002Z" fill="#F2F4F6"/>
<path d="M28.642 20.0002C28.2495 20.0003 27.8647 20.1093 27.5306 20.3152C27.1965 20.5211 26.9261 20.8158 26.7498 21.1664L25.9167 22.8239H23.5302C22.594 22.8239 21.696 23.1958 21.034 23.8577C20.3719 24.5196 20 25.4173 20 26.3534V37.648C20 38.5841 20.3719 39.4819 21.034 40.1438C21.696 40.8057 22.594 41.1776 23.5302 41.1776H30.7262C30.4953 40.7263 30.3094 40.2534 30.1713 39.7658H23.5316C22.9699 39.7658 22.4311 39.5426 22.0339 39.1455C21.6367 38.7483 21.4135 38.2097 21.4135 37.648V26.3534C21.4135 25.7918 21.6367 25.2531 22.0339 24.856C22.4311 24.4588 22.9699 24.2357 23.5316 24.2357H26.353C26.4838 24.2354 26.6119 24.1989 26.7231 24.1301C26.8343 24.0613 26.9242 23.9629 26.9828 23.846L28.0108 21.8003C28.0697 21.6835 28.1599 21.5853 28.2713 21.5167C28.3828 21.4482 28.5111 21.4119 28.642 21.4121H33.9571C34.0883 21.4118 34.2171 21.4481 34.3288 21.517C34.4406 21.5858 34.5309 21.6844 34.5897 21.8017L35.6106 23.8446C35.6693 23.9617 35.7595 24.0602 35.8709 24.129C35.9824 24.1978 36.1108 24.2343 36.2419 24.2343H39.0646C39.6264 24.2343 40.1651 24.4574 40.5624 24.8546C40.9596 25.2517 41.1828 25.7904 41.1828 26.352V30.7329C41.6883 30.9913 42.1613 31.3047 42.5948 31.6633V26.352C42.5948 25.4159 42.2229 24.5182 41.5609 23.8563C40.8988 23.1943 40.0009 22.8225 39.0646 22.8225H36.6782L35.8521 21.1706C35.6761 20.8188 35.4056 20.523 35.0709 20.3163C34.7362 20.1096 34.3505 20.0001 33.9571 20.0002H28.642Z" fill="#C1C6C9"/>
<path d="M31.2909 25.649C32.5518 25.6491 33.7765 26.0708 34.77 26.847C35.7636 27.6232 36.469 28.7093 36.774 29.9325C36.3045 29.985 35.8408 30.0805 35.3887 30.2177C35.199 29.4969 34.8224 28.8389 34.2971 28.3102C33.7717 27.7814 33.1161 27.4005 32.3965 27.206C31.6769 27.0115 30.9187 27.0103 30.1984 27.2024C29.4781 27.3945 28.8213 27.7732 28.2941 28.3002C27.767 28.8272 27.3883 29.4839 27.1961 30.2041C27.004 30.9242 27.0053 31.6823 27.1998 32.4018C27.3943 33.1213 27.7753 33.7767 28.3041 34.302C28.833 34.8273 29.4911 35.2037 30.212 35.3934C30.0749 35.845 29.9794 36.3081 29.9268 36.777C28.5925 36.4399 27.4272 35.6276 26.6493 34.4925C25.8715 33.3574 25.5347 31.9775 25.7021 30.6118C25.8696 29.2461 26.5297 27.9884 27.5586 27.0747C28.5876 26.1609 29.9147 25.654 31.2909 25.649Z" fill="#C1C6C9"/>
<path d="M43.9998 37.647C43.9998 39.332 43.3303 40.948 42.1387 42.1394C40.947 43.3309 39.3307 44.0002 37.6454 44.0002C35.9601 44.0002 34.3439 43.3309 33.1522 42.1394C31.9605 40.948 31.291 39.332 31.291 37.647C31.291 35.9621 31.9605 34.3461 33.1522 33.1547C34.3439 31.9632 35.9601 31.2938 37.6454 31.2938C39.3307 31.2938 40.947 31.9632 42.1387 33.1547C43.3303 34.3461 43.9998 35.9621 43.9998 37.647ZM38.3515 34.8234C38.3515 34.6362 38.2771 34.4566 38.1447 34.3242C38.0123 34.1919 37.8327 34.1175 37.6454 34.1175C37.4582 34.1175 37.2786 34.1919 37.1462 34.3242C37.0138 34.4566 36.9394 34.6362 36.9394 34.8234V36.9411H34.8212C34.634 36.9411 34.4544 37.0155 34.322 37.1479C34.1896 37.2803 34.1152 37.4598 34.1152 37.647C34.1152 37.8343 34.1896 38.0138 34.322 38.1462C34.4544 38.2786 34.634 38.353 34.8212 38.353H36.9394V40.4707C36.9394 40.6579 37.0138 40.8375 37.1462 40.9698C37.2786 41.1022 37.4582 41.1766 37.6454 41.1766C37.8327 41.1766 38.0123 41.1022 38.1447 40.9698C38.2771 40.8375 38.3515 40.6579 38.3515 40.4707V38.353H40.4696C40.6569 38.353 40.8364 38.2786 40.9688 38.1462C41.1013 38.0138 41.1756 37.8343 41.1756 37.647C41.1756 37.4598 41.1013 37.2803 40.9688 37.1479C40.8364 37.0155 40.6569 36.9411 40.4696 36.9411H38.3515V34.8234Z" fill="#C1C6C9"/>
<path fill-rule="evenodd" clip-rule="evenodd" d="M64 32.0002C64 49.6733 49.6731 64.0002 32 64.0002C14.3269 64.0002 0 49.6733 0 32.0002C0 14.3271 14.3269 0.000232697 32 0.000232697C49.6731 0.000232697 64 14.3271 64 32.0002ZM32 58.483C46.626 58.483 58.4828 46.6263 58.4828 32.0002C58.4828 17.3742 46.626 5.51747 32 5.51747C17.374 5.51747 5.51724 17.3742 5.51724 32.0002C5.51724 46.6263 17.374 58.483 32 58.483Z" fill="white"/>
</svg>
