<svg width="12" height="13" viewBox="0 0 12 13" fill="none" xmlns="http://www.w3.org/2000/svg">
<path d="M12 6.5C12 8.0913 11.3679 9.61742 10.2426 10.7426C9.11742 11.8679 7.5913 12.5 6 12.5C4.4087 12.5 2.88258 11.8679 1.75736 10.7426C0.632141 9.61742 0 8.0913 0 6.5C0 4.9087 0.632141 3.38258 1.75736 2.25736C2.88258 1.13214 4.4087 0.5 6 0.5C7.5913 0.5 9.11742 1.13214 10.2426 2.25736C11.3679 3.38258 12 4.9087 12 6.5ZM9.0225 4.2275C8.96893 4.17411 8.90514 4.13208 8.83495 4.10391C8.76476 4.07574 8.68961 4.06202 8.61399 4.06356C8.53838 4.0651 8.46385 4.08187 8.39486 4.11288C8.32588 4.14388 8.26385 4.18848 8.2125 4.244L5.60775 7.56275L4.038 5.99225C3.93137 5.89289 3.79033 5.8388 3.64461 5.84137C3.49888 5.84394 3.35984 5.90297 3.25678 6.00603C3.15372 6.10909 3.09469 6.24813 3.09212 6.39386C3.08955 6.53958 3.14364 6.68062 3.243 6.78725L5.2275 8.7725C5.28096 8.82586 5.34462 8.86791 5.41469 8.89614C5.48475 8.92437 5.55979 8.93819 5.63531 8.93679C5.71083 8.93539 5.7853 8.9188 5.85427 8.88799C5.92324 8.85719 5.9853 8.81281 6.03675 8.7575L9.03075 5.015C9.13282 4.90887 9.18921 4.76696 9.18781 4.61972C9.1864 4.47248 9.12732 4.33166 9.02325 4.2275H9.0225Z" fill="white"/>
</svg>
