<svg width="20" height="21" viewBox="0 0 20 21" fill="none" xmlns="http://www.w3.org/2000/svg">
<path fill-rule="evenodd" clip-rule="evenodd" d="M5.22736 7.11609C5.63051 7.11609 5.95771 7.44329 5.95771 7.84644C5.95771 8.2496 5.63051 8.57679 5.22736 8.57679H4.3188C2.74222 8.57679 1.4607 9.85831 1.4607 11.4339V16.1812C1.4607 17.7578 2.74222 19.0393 4.3188 19.0393H15.1572C16.7328 19.0393 18.0153 17.7578 18.0153 16.1812V11.4252C18.0153 9.85442 16.7377 8.57679 15.1679 8.57679H14.2496C13.8465 8.57679 13.5193 8.2496 13.5193 7.84644C13.5193 7.44329 13.8465 7.11609 14.2496 7.11609H15.1679C17.543 7.11609 19.476 9.04909 19.476 11.4252V16.1812C19.476 18.5631 17.5381 20.5 15.1572 20.5H4.3188C1.93786 20.5 0 18.5631 0 16.1812V11.4339C0 9.05298 1.93786 7.11609 4.3188 7.11609H5.22736ZM9.73761 0.5C9.94339 0.5 10.1294 0.585243 10.2622 0.72232L13.0943 3.56718C13.3786 3.85348 13.3777 4.31506 13.0924 4.59941C12.8061 4.88376 12.3445 4.88376 12.0601 4.59746L10.4674 2.99877L10.468 12.9559C10.468 13.359 10.1408 13.6862 9.73761 13.6862C9.33446 13.6862 9.00726 13.359 9.00726 12.9559L9.00668 2.99877L7.41607 4.59746C7.2739 4.74158 7.08595 4.81267 6.89898 4.81267C6.71299 4.81267 6.52602 4.74158 6.38384 4.59941C6.09852 4.31506 6.09657 3.85348 6.3819 3.56718L9.21306 0.72232C9.34585 0.585243 9.53183 0.5 9.73761 0.5Z" fill="#899296"/>
</svg>
