<svg width="14" height="14" viewBox="0 0 14 14" fill="none" xmlns="http://www.w3.org/2000/svg">
<path fill-rule="evenodd" clip-rule="evenodd" d="M7 0C10.8598 0 14 3.1402 14 7C14 10.8598 10.8598 14 7 14C3.1402 14 0 10.8598 0 7C0 3.1402 3.1402 0 7 0ZM7 1.05C3.7191 1.05 1.05 3.7191 1.05 7C1.05 8.442 1.5659 9.7664 2.4227 10.7975L10.8101 2.4332C9.77691 1.5701 8.4483 1.05 7 1.05ZM7 12.95C10.2809 12.95 12.95 10.2809 12.95 7C12.95 5.5839 12.4523 4.2812 11.6228 3.2585L3.24591 11.613C4.27071 12.4488 5.5776 12.95 7 12.95Z" fill="#899296"/>
</svg>
