<svg width="24" height="24" viewBox="0 0 24 24" fill="none" xmlns="http://www.w3.org/2000/svg">
<g clip-path="url(#clip0_17815_6308)">
<path d="M11.3838 10.9875H12.483L12.6283 10.3125H11.5291L11.3838 10.9875Z" fill="white"/>
<path d="M17.6249 4.6875H6.3749C4.18306 4.6875 2.3999 6.45386 2.3999 8.625V18.75C2.3999 19.1935 2.89078 19.4626 3.26469 19.2244L7.36389 16.6125H17.6249C19.8167 16.6125 21.5999 14.8461 21.5999 12.675V8.625C21.5999 6.45386 19.8167 4.6875 17.6249 4.6875ZM7.18153 13.2555C7.14898 13.5696 6.87013 13.7907 6.56653 13.7599C6.25543 13.7283 6.03118 13.4494 6.06215 13.1445C6.09632 12.8186 6.39463 12.5853 6.73153 12.6484C7.03033 12.7104 7.20954 12.983 7.18153 13.2555ZM7.1999 11.4C7.1999 11.7107 6.94805 11.9625 6.6374 11.9625C6.32675 11.9625 6.0749 11.7107 6.0749 11.4V8.1C6.0749 7.78935 6.32675 7.5375 6.6374 7.5375C6.94805 7.5375 7.1999 7.78935 7.1999 8.1V11.4ZM16.8404 8.04484C16.851 7.914 16.9207 7.76516 17.0433 7.66496C17.2897 7.46419 17.6452 7.50998 17.8349 7.74338C18.1521 8.13199 17.8394 8.70983 17.3444 8.6595C17.0409 8.63419 16.8087 8.3538 16.8404 8.04484ZM14.6999 10.3125H13.7792L13.634 10.9875H14.0999C14.4106 10.9875 14.6624 11.2394 14.6624 11.55C14.6624 11.8607 14.4106 12.1125 14.0999 12.1125H13.3919L13.1318 13.3211C13.075 13.5849 12.8418 13.7654 12.5824 13.7654C12.2237 13.7654 11.9566 13.4346 12.032 13.0844L12.2411 12.1125H11.1419L10.8818 13.3211C10.825 13.5849 10.5918 13.7654 10.3325 13.7654C9.97378 13.7654 9.70663 13.4346 9.782 13.0844L9.99118 12.1125H9.2999C8.98925 12.1125 8.7374 11.8607 8.7374 11.55C8.7374 11.2394 8.98925 10.9875 9.2999 10.9875H10.2332L10.3785 10.3125H9.8999C9.58925 10.3125 9.3374 10.0607 9.3374 9.75C9.3374 9.43935 9.58925 9.1875 9.8999 9.1875H10.6206L10.8807 7.97888C10.946 7.67516 11.2453 7.48174 11.5489 7.54733C11.8526 7.61269 12.0458 7.91186 11.9805 8.21558L11.7713 9.1875H12.8705L13.1306 7.97888C13.196 7.67516 13.4953 7.48174 13.7989 7.54733C14.1026 7.61269 14.2958 7.91186 14.2304 8.21558L14.0213 9.1875H14.6999C15.0106 9.1875 15.2624 9.43935 15.2624 9.75C15.2624 10.0607 15.0106 10.3125 14.6999 10.3125ZM19.1513 12.0971C19.1032 13.0243 18.3287 13.7625 17.3957 13.7625C16.4299 13.7625 15.6374 12.9807 15.6374 12.0043C15.6374 11.6937 15.8893 11.4418 16.1999 11.4418C16.5106 11.4418 16.7624 11.6937 16.7624 12.0043C16.7624 12.3627 17.0563 12.6452 17.4089 12.6374C17.956 12.6264 18.2328 11.9669 17.8547 11.5686C17.7338 11.4413 17.5708 11.3711 17.3956 11.3711C17.0849 11.3711 16.8331 11.1193 16.8331 10.8086V9.9C16.8331 9.58935 17.0849 9.3375 17.3956 9.3375C17.7062 9.3375 17.9581 9.58935 17.9581 9.9V10.3393C18.6838 10.5853 19.1936 11.2821 19.1513 12.0971Z" fill="white"/>
</g>
<defs>
<clipPath id="clip0_17815_6308">
<rect width="19.2" height="19.2" fill="white" transform="translate(2.3999 2.39844)"/>
</clipPath>
</defs>
</svg>
